<svg version="1.1" xmlns="http://www.w3.org/2000/svg" xmlns:xlink="http://www.w3.org/1999/xlink" width="1477" height="1082"><desc>%0A%0Aactor%20Staff%0Aboundary%20StaffUI%0Acontrol%20ManagementSystem%0Aparticipant%20Cinema%0Aparticipant%20ScreeningMapper%0Aparticipant%20ScreenMapper%0Aparticipant%20MovieMapper%0Adatabase%20db%0Aentity%20PersistentScreening%0A%0AStaff-%3EStaffUI%3Asubmit(date%20%3A%20LocalDate)%0Aactivate%20StaffUI%0AStaffUI-%3EManagementSystem%3AsetDate(date%20%3A%20LocalDate)%0Aactivate%20ManagementSystem%0A%0AManagementSystem-%3ECinema%3AgetScreenings(date%20%3A%20LocalDate)%0Aactivate%20Cinema%0A%0ACinema-%3EScreeningMapper%3AgetScreenings(date%20%3A%20LocalDate)%0Aactivate%20ScreeningMapper%0AScreeningMapper-%3Edb%3Aexecute(sql%20%3A%20String)%0A%0Aloop%20for%20every%20row%20returned%20for%20reservations%0AScreeningMapper-%3EScreenMapper%3As%20%3A%3D%20getScreenforOid(screen%20%3A%20Integer)%0AScreeningMapper-%3EMovieMapper%3Am%20%3A%3D%20getMovieForOid(movie%20%3A%20Integer)%0AScreeningMapper-%3E*PersistentScreening%3APersistentScreening(oid%20%3A%20Integer%2C%20date%20%3A%20LocalDate%2C%20s%20%3A%20Screen%2C%20m%20%3A%20Movie%2C%20stime%20%3A%20LocalTime)%0Aactivate%20PersistentScreening%0APersistentScreening--%3EScreeningMapper%3A%0Adeactivate%20PersistentScreening%0Aend%0A%0AScreeningMapper--%3ECinema%3Areturn%20screenings%0Adeactivate%20ScreeningMapper%0A%0A%0ACinema--%3EManagementSystem%3Areturn%20screenings%0Adeactivate%20Cinema%0A%0AManagementSystem-%3EManagementSystem%3AnotifyObservers()%0Aactivate%20ManagementSystem%0A%0AManagementSystem-%3EStaffUI%3Aupdate()%0Aactivate%20StaffUI%0AStaffUI-%3EManagementSystem%3AgetDate()%0Aactivate%20ManagementSystem%0AManagementSystem--%3EStaffUI%3Areturn%20date%0Adeactivate%20ManagementSystem%0A%0AStaffUI-%3EManagementSystem%3AgetScreenings()%0Aactivate%20ManagementSystem%0AManagementSystem--%3EStaffUI%3Areturn%20screenings%0Adeactivate%20ManagementSystem%0A%0AStaffUI--%3EManagementSystem%3A%0Adeactivate%20StaffUI%0A%0AManagementSystem--%3EManagementSystem%3A%0A%0Adeactivate%20ManagementSystem%0AManagementSystem--%3EStaffUI%3A%0Adeactivate%20ManagementSystem%0AStaffUI--%3EStaff%3A%0Adeactivate%20StaffUI</desc><defs/><g><g/><g/><g/><g/><g/><g/><g/><g/><g/><g/><g/><g/><g/><g/><g/><g/><g/><g/><g/><g/><g/><g><rect fill="white" stroke="none" x="0" y="0" width="1477" height="1082"/></g><g/><g><path fill="none" stroke="black" paint-order="fill stroke markers" d=" M 18.1258913 75.19219734400001 L 18.1258913 1082.4911998515997" stroke-miterlimit="10" stroke-width="1.1518412583333333" stroke-dasharray="10.632380846153845,4.607365033333333"/><path fill="none" stroke="black" paint-order="fill stroke markers" d=" M 181.73033177291668 75.19219734400001 L 181.73033177291668 1082.4911998515997" stroke-miterlimit="10" stroke-width="1.1518412583333333" stroke-dasharray="10.632380846153845,4.607365033333333"/><path fill="none" stroke="black" paint-order="fill stroke markers" d=" M 364.66760953333335 75.19219734400001 L 364.66760953333335 1082.4911998515997" stroke-miterlimit="10" stroke-width="1.1518412583333333" stroke-dasharray="10.632380846153845,4.607365033333333"/><path fill="none" stroke="black" paint-order="fill stroke markers" d=" M 586.9304856250001 75.19219734400001 L 586.9304856250001 1082.4911998515997" stroke-miterlimit="10" stroke-width="1.1518412583333333" stroke-dasharray="10.632380846153845,4.607365033333333"/><path fill="none" stroke="black" paint-order="fill stroke markers" d=" M 795.3712666166667 75.19219734400001 L 795.3712666166667 1082.4911998515997" stroke-miterlimit="10" stroke-width="1.1518412583333333" stroke-dasharray="10.632380846153845,4.607365033333333"/><path fill="none" stroke="black" paint-order="fill stroke markers" d=" M 1024.0894766208335 75.19219734400001 L 1024.0894766208335 1082.4911998515997" stroke-miterlimit="10" stroke-width="1.1518412583333333" stroke-dasharray="10.632380846153845,4.607365033333333"/><path fill="none" stroke="black" paint-order="fill stroke markers" d=" M 1137.3000493378336 75.19219734400001 L 1137.3000493378336 1082.4911998515997" stroke-miterlimit="10" stroke-width="1.1518412583333333" stroke-dasharray="10.632380846153845,4.607365033333333"/><path fill="none" stroke="black" paint-order="fill stroke markers" d=" M 1227.0828878994585 75.19219734400001 L 1227.0828878994585 1082.4911998515997" stroke-miterlimit="10" stroke-width="1.1518412583333333" stroke-dasharray="10.632380846153845,4.607365033333333"/><path fill="none" stroke="black" paint-order="fill stroke markers" d=" M 1400.9376762716042 474.31901545159997 L 1400.9376762716042 1082.4911998515997" stroke-miterlimit="10" stroke-width="1.1518412583333333" stroke-dasharray="10.632380846153845,4.607365033333333"/></g><g><g><path fill="white" stroke="black" paint-order="fill stroke markers" d=" M 26.004485507 16.724735071000005 A 7.878594207 7.878594207 0 1 1 26.004481567703223 16.7168564781061 M 18.1258913 24.603329278000004 L 18.1258913 41.4662853 M 8.173982828 30.685051122000004 L 28.077799772 30.685051122000004 M 18.1258913 41.4662853 L 8.173982828 57.22347371400001 M 18.1258913 41.4662853 L 28.077799772 57.22347371400001" stroke-miterlimit="10" stroke-width="2.3497561670000002" stroke-dasharray=""/></g><g><g/><text fill="black" stroke="none" font-family="sans-serif" font-size="8pt" font-style="normal" font-weight="normal" text-decoration="normal" x="6.911047549999999" y="71.045568814" text-anchor="start" dominant-baseline="alphabetic" xml:space="preserve">Staff</text></g><g><path fill="white" stroke="black" paint-order="fill stroke markers" d=" M 209.1671905464167 35.52278440700001 A 20.5258112235 20.5258112235 0 1 1 209.16718028351193 35.50225859919747 M 155.46835108291668 13.822095100000011 L 155.46835108291668 57.22347371400001 M 154.29347299941668 35.52278440700001 L 168.1155680994167 35.52278440700001" stroke-miterlimit="10" stroke-width="2.3497561670000002" stroke-dasharray=""/></g><g><g/><text fill="black" stroke="none" font-family="sans-serif" font-size="8pt" font-style="normal" font-weight="normal" text-decoration="normal" x="165.01548802291668" y="71.045568814" text-anchor="start" dominant-baseline="alphabetic" xml:space="preserve">StaffUI</text></g><g><path fill="white" stroke="black" paint-order="fill stroke markers" d=" M 385.19342075683335 35.52278440700001 A 20.5258112235 20.5258112235 0 1 1 385.1934104939286 35.50225859919747 M 361.90319051333336 14.99697318350001 L 370.19644757333333 8.085925633500011 M 361.90319051333336 14.99697318350001 L 370.19644757333333 21.90802073350001" stroke-miterlimit="10" stroke-width="2.3497561670000002" stroke-dasharray=""/></g><g><g/><text fill="black" stroke="none" font-family="sans-serif" font-size="8pt" font-style="normal" font-weight="normal" text-decoration="normal" x="314.22766812708335" y="71.045568814" text-anchor="start" dominant-baseline="alphabetic" xml:space="preserve">ManagementSystem</text></g><path fill="none" stroke="none"/><g><path fill="white" stroke="black" paint-order="fill stroke markers" d=" M 552.981608144625 37.87254057400001 L 620.8793631053751 37.87254057400001 L 620.8793631053751 75.19219734400001 L 552.981608144625 75.19219734400001 L 552.981608144625 37.87254057400001 Z" stroke-miterlimit="10" stroke-width="2.211535216" stroke-dasharray=""/></g><g><g/><text fill="black" stroke="none" font-family="sans-serif" font-size="8pt" font-style="normal" font-weight="normal" text-decoration="normal" x="567.9785813281251" y="61.370102243999995" text-anchor="start" dominant-baseline="alphabetic" xml:space="preserve">Cinema</text></g><path fill="none" stroke="none"/><g><path fill="white" stroke="black" paint-order="fill stroke markers" d=" M 736.9597426519167 37.87254057400001 L 853.7827905814167 37.87254057400001 L 853.7827905814167 75.19219734400001 L 736.9597426519167 75.19219734400001 L 736.9597426519167 37.87254057400001 Z" stroke-miterlimit="10" stroke-width="2.211535216" stroke-dasharray=""/></g><g><g/><text fill="black" stroke="none" font-family="sans-serif" font-size="8pt" font-style="normal" font-weight="normal" text-decoration="normal" x="751.9567158354167" y="61.370102243999995" text-anchor="start" dominant-baseline="alphabetic" xml:space="preserve">ScreeningMapper</text></g><path fill="none" stroke="none"/><g><path fill="white" stroke="black" paint-order="fill stroke markers" d=" M 973.0175522654584 37.87254057400001 L 1075.1614009762084 37.87254057400001 L 1075.1614009762084 75.19219734400001 L 973.0175522654584 75.19219734400001 L 973.0175522654584 37.87254057400001 Z" stroke-miterlimit="10" stroke-width="2.211535216" stroke-dasharray=""/></g><g><g/><text fill="black" stroke="none" font-family="sans-serif" font-size="8pt" font-style="normal" font-weight="normal" text-decoration="normal" x="988.0145254489585" y="61.370102243999995" text-anchor="start" dominant-baseline="alphabetic" xml:space="preserve">ScreenMapper</text></g><path fill="none" stroke="none"/><g><path fill="white" stroke="black" paint-order="fill stroke markers" d=" M 1088.9834960762087 37.87254057400001 L 1185.6166025994587 37.87254057400001 L 1185.6166025994587 75.19219734400001 L 1088.9834960762087 75.19219734400001 L 1088.9834960762087 37.87254057400001 Z" stroke-miterlimit="10" stroke-width="2.211535216" stroke-dasharray=""/></g><g><g/><text fill="black" stroke="none" font-family="sans-serif" font-size="8pt" font-style="normal" font-weight="normal" text-decoration="normal" x="1103.9804692597086" y="61.370102243999995" text-anchor="start" dominant-baseline="alphabetic" xml:space="preserve">MovieMapper</text></g><g><path fill="white" stroke="black" paint-order="fill stroke markers" d=" M 1206.9026290534584 48.10089094800001 L 1206.9026290534584 19.074491238000007 L 1247.2631467454585 19.074491238000007 L 1247.2631467454585 48.10089094800001" stroke-miterlimit="10" stroke-width="2.3497561670000002" stroke-dasharray=""/><path fill="white" stroke="black" paint-order="fill stroke markers" d=" M 1247.2631467454585 18.065478295700007 L 1247.2621377409246 18.15670260293715 L 1247.2591108282224 18.247917787819585 L 1247.254066310041 18.339114728904843 L 1247.247004690828 18.430284306574812 L 1247.2379266767389 18.521417403947694 L 1247.226833175568 18.612504907789702 L 1247.2137252966559 18.703537709426353 L 1247.1986043507798 18.794506705653347 L 1247.1814718500216 18.885402799646865 L 1247.1623295076172 18.976216901873258 L 1247.1411792377846 19.066939930997982 L 1247.1180231555336 19.15756281479372 L 1247.0928635764528 19.248076491047623 L 1247.0657030164793 19.338471908467483 L 1247.0365441916463 19.42874002758689 L 1247.005390017812 19.518871821669155 L 1246.972243610368 19.608858277609983 L 1246.9371082839273 19.698690396838764 L 1246.8999875519933 19.788359196218437 L 1246.860885126608 19.877855708943788 L 1246.8198049179819 19.967170985438123 L 1246.7767510341012 20.05629609424822 L 1246.7317277803186 20.145222122937476 L 1246.684739658922 20.23394017897712 L 1246.635791368684 20.322441390635486 L 1246.5848878043932 20.41071690786515 L 1246.5320340563635 20.498757903187958 L 1246.4772354099257 20.586555572577744 L 1246.4204973448989 20.674101136340735 L 1246.361825535042 20.7613858399935 L 1246.3012258474873 20.848400955138427 L 1246.2387043421531 20.935137780336497 L 1246.1742672711378 21.021587641977483 L 1246.1079210780947 21.107741895147257 L 1246.0396723975878 21.193591924492296 L 1245.9695280544283 21.279129145081207 L 1245.8974950629922 21.364345003263217 L 1245.8235806265186 21.449230977523516 L 1245.7477921363895 21.533778579335415 L 1245.6701371713907 21.617979354009194 L 1245.590623496954 21.701824881537547 L 1245.5092590643808 21.785306777437597 L 1245.426052010046 21.868416693589317 L 1245.3410106545864 21.951146319070357 L 1245.2541435020662 22.033487380987104 L 1245.1654592391283 22.115431645301985 L 1245.0749667341254 22.196970917656856 L 1244.9826750362322 22.278097044192428 L 1244.8885933745419 22.35880191236366 L 1244.792731157142 22.43907745175098 L 1244.6950979701746 22.518915634867348 L 1244.5957035768768 22.598308477960988 L 1244.4945579166053 22.677248041813744 L 1244.3916711038419 22.75572643253502 L 1244.2870534271817 22.83373580235114 L 1244.1807153483057 22.911268350390124 L 1244.0726675009328 22.988316323461788 L 1243.962920689758 23.06487201683303 L 1243.8514858893707 23.140927774998303 L 1243.7383742431584 23.216475992445172 L 1243.623597062191 23.291509114414854 L 1243.5071658240913 23.366019637657672 L 1243.3890921718862 23.4400001111834 L 1243.269387912842 23.51344313700633 L 1243.1480650172853 23.586341370885087 L 1243.0251356174044 23.658687523057033 L 1242.900612006037 23.73047435896723 L 1242.77450663544 23.801694699991916 L 1242.646832116046 23.872341424156335 L 1242.5176012152003 23.942407466846948 L 1242.3868268558851 24.011885821517872 L 1242.2545221154276 24.080769540391536 L 1242.1207002241913 24.149051735153456 L 1241.985374564254 24.216725577641057 L 1241.848558668069 24.283784300526488 L 1241.710266217112 24.350221197993342 L 1241.5705110405124 24.416029626407234 L 1241.429307113672 24.481203004980163 L 1241.2866685568652 24.54573481642858 L 1241.1426096338291 24.609618607625126 L 1240.997144750336 24.67284799024391 L 1240.8502884527531 24.73541664139936 L 1240.7020554265875 24.797318304278505 L 1240.5524604950187 24.858546788766642 L 1240.4015186174147 24.919095972066344 L 1240.249244887838 24.978959799309735 L 1240.0956545335341 25.038132284163982 L 1239.940762913411 25.09660750942991 L 1239.784585516501 25.154379627633716 L 1239.6271379604143 25.21144286161173 L 1239.468435989775 25.267791505088102 L 1239.3084954746478 25.323419923245446 L 1239.1473324089511 25.378322553288296 L 1238.9849629088571 25.432493904999404 L 1238.8214032111805 25.48592856128874 L 1238.656669671755 25.53862117873521 L 1238.490778763797 25.59056648812097 L 1238.3237470762588 25.641759294958376 L 1238.1555913121706 25.692194480009405 L 1237.9863282869683 25.741866999797576 L 1237.8159749268132 25.790771887112307 L 1237.6445482668998 25.838904251505618 L 1237.472065449751 25.886259279781186 L 1237.2985437235045 25.932832236475637 L 1237.1240004401889 25.978618464332122 L 1236.948453053987 26.023613384766 L 1236.7719191194903 26.06781249832273 L 1236.5944162899464 26.11121138512779 L 1236.4159623154892 26.153805705328658 L 1236.2365750413683 26.195591199528817 L 1236.056272406161 26.236563689213664 L 1235.875072439981 26.276719077168373 L 1235.6929932626736 26.316053347887618 L 1235.510053082005 26.354562567977098 L 1235.3262701918409 26.392242886546896 L 1235.141662970317 26.429090535596558 L 1234.9562498780015 26.46510183039188 L 1234.7700494560493 26.5002731698334 L 1234.5830803243473 26.534601036816476 L 1234.395361179653 26.568081998583022 L 1234.2069107937245 26.60071270706476 L 1234.017748011443 26.63248989921803 L 1233.8278917489297 26.663410397350102 L 1233.637360991652 26.693471109436928 L 1233.4461747925272 26.722669029432353 L 1233.2543522700157 26.7510012375687 L 1233.0619126062102 26.77846490064878 L 1232.8688750449164 26.805057272329158 L 1232.6752588897298 26.830775693394834 L 1232.4810835021044 26.855617592025126 L 1232.2863682994173 26.879580484050884 L 1232.0911327530264 26.90266197320286 L 1231.8953963863235 26.924859751351384 L 1231.6991787727825 26.946171598737138 L 1231.502499534001 26.96659538419314 L 1231.305378337739 26.986129065357865 L 1231.107834895952 27.00477068887948 L 1230.9098889628194 27.022518390611154 L 1230.7115603327695 27.03937039579752 L 1230.5128688385005 27.055325019252088 L 1230.3138343489957 27.070380665525818 L 1230.1144767675382 27.084535829066628 L 1229.9148160297204 27.097789094369954 L 1229.7148721014496 27.110139136120317 L 1229.5146649769517 27.121584719323828 L 1229.3142146767727 27.132124699431706 L 1229.1135412457752 27.141758022454724 L 1228.9126647511355 27.15048372506861 L 1228.7116052803353 27.15830093471037 L 1228.5103829391544 27.165208869665555 L 1228.309017849659 27.17120683914643 L 1228.1075301481903 27.176294243361042 L 1227.9059399833507 27.180470573573206 L 1227.7042675139887 27.18373541215339 L 1227.5025329071827 27.186088432620444 L 1227.300756336226 27.18752939967429 L 1227.098957978607 27.188058169219428 L 1226.8971580139935 27.187674688379335 L 1226.6953766222139 27.186378995501777 L 1226.4936339812389 27.184171220154965 L 1226.2919502651648 27.181051583114595 L 1226.090345642195 27.17702039634177 L 1225.8888402726236 27.172078062951805 L 1225.6874543068202 27.166225077173927 L 1225.486207883213 27.159462024301828 L 1225.2851211262769 27.15178958063516 L 1225.08421414452 27.143208513411906 L 1224.8835070284729 27.13371968073163 L 1224.6830198486803 27.12332403146969 L 1224.4827726536928 27.112022605182354 L 1224.2827854680631 27.099816532002833 L 1224.083078290343 27.086707032528267 L 1223.8836710910844 27.072695417697688 L 1223.6845838108402 27.057783088660898 L 1223.4858363581732 27.041971536638375 L 1223.2874486076626 27.025262342772145 L 1223.0894403979185 27.007657177967666 L 1222.8918315295966 26.98915780272675 L 1222.6946417634192 26.96976606697151 L 1222.4978908181986 26.94948390985936 L 1222.3015983688651 26.928313359589104 L 1222.1057840445005 26.906256533198132 L 1221.9104674263738 26.883315636350694 L 1221.7156680459839 26.859492963117372 L 1221.5214053831066 26.834790895745627 L 1221.3276988638468 26.809211904421616 L 1221.1345678586943 26.78275854702315 L 1220.942031680589 26.755433468863927 L 1220.7501095829882 26.727239402428996 L 1220.5588207579417 26.6981791671015 L 1220.3681843341726 26.668255668880757 L 1220.1782193751646 26.637471900091654 L 1219.9889448772553 26.605830939085415 L 1219.8003797677363 26.573335949931778 L 1219.6125429029619 26.53999018210257 L 1219.425453066462 26.505796970146797 L 1219.239128967064 26.470759733357152 L 1219.053589237023 26.43488197542812 L 1218.868852430157 26.398167284105593 L 1218.684937019993 26.360619330828115 L 1218.5018613979187 26.32224187035971 L 1218.3196438713437 26.28303874041446 L 1218.138302661869 26.243013861272683 L 1217.957855903464 26.20217123538894 L 1217.7783216406544 26.160514946991775 L 1217.599717826717 26.11804916167533 L 1217.4220623218844 26.07477812598274 L 1217.2453728915589 26.03070616698151 L 1217.069667204536 25.985837691830824 L 1216.8949628312384 25.940177187340804 L 1216.721277241958 25.893729219523845 L 1216.5486278051085 25.846498433138024 L 1216.3770317854899 25.798489551222623 L 1216.206506342561 25.74970737462582 L 1216.0370685287244 25.700156781524633 L 1215.86873528762 25.64984272693707 L 1215.7015234524315 25.59877024222667 L 1215.5354497442036 25.546944434599336 L 1215.3705307701682 25.49437048659265 L 1215.2067830220853 25.441053655557596 L 1215.0442228745937 25.386999273132844 L 1214.8828665835724 25.3322127447116 L 1214.7227302845158 25.27669954890105 L 1214.5638299909208 25.220465236974505 L 1214.406181592684 25.163515432316306 L 1214.2498008545142 25.105855829859454 L 1214.0947034143546 25.04749219551615 L 1213.9409047818199 24.98843036560119 L 1213.7884203366455 24.928676246248344 L 1213.6372653271487 24.86823581281976 L 1213.4874548687044 24.807115109308405 L 1213.3390039422338 24.74532024773371 L 1213.1919273927056 24.68285740753032 L 1213.0462399276523 24.61973283493021 L 1212.9019561156992 24.555952842338044 L 1212.759090385107 24.49152380769992 L 1212.6176570223297 24.42645217386562 L 1212.4776701705857 24.360744447944292 L 1212.3391438284439 24.294407200653783 L 1212.2020918484225 24.227447065663533 L 1212.0665279356058 24.159870738931243 L 1211.9324656462718 24.09168497803327 L 1211.7999183865377 24.022896601488892 L 1211.6688994110193 23.95351248807843 L 1211.5394218215047 23.883539576155414 L 1211.4114985656452 23.812984862952717 L 1211.2851424356595 23.741855403882866 L 1211.1603660670553 23.6701583118325 L 1211.0371819373659 23.597900756451068 L 1210.9156023649011 23.5250899634339 L 1210.7956395075173 23.451733213799617 L 1210.6773053613997 23.377837843162055 L 1210.560611759865 23.303411240996702 L 1210.4455703721756 23.228460849901744 L 1210.3321927023744 23.15299416485384 L 1210.220490088134 23.077018732458605 L 1210.110473699623 23.00054215019596 L 1210.0021545383884 22.923572065660405 L 1209.8955434362558 22.846116175796254 L 1209.790651054247 22.768182226127944 L 1209.6874878815124 22.6897780099855 L 1209.5860642342836 22.610911367725194 L 1209.4863902548404 22.53159018594554 L 1209.3884759104983 22.451822396698603 L 1209.2923309926098 22.37161597669684 L 1209.1979651155864 22.29097894651542 L 1209.1053877159372 22.209919369790153 L 1209.0146080513255 22.128445352411166 L 1208.9256351996414 22.046565041712302 L 1208.8384780580966 21.9642866256564 L 1208.7531453423321 21.881618332016497 L 1208.6696455855488 21.79856842755307 L 1208.5879871376524 21.715145217187356 L 1208.5081781644199 21.631357043170873 L 1208.430226646682 21.547212284251195 L 1208.3541403795255 21.4627193548341 L 1208.2799269715138 21.377886704142114 L 1208.2075938439257 21.29272281536962 L 1208.137148230014 21.207236204834516 L 1208.068597174281 21.12143542112662 L 1208.0019475317754 21.03532904425281 L 1207.9372059674058 20.948925684779006 L 1207.8743789552748 20.862233982969162 L 1207.8134727780312 20.77526260792121 L 1207.754493526242 20.688020256700185 L 1207.697447097783 20.600515653468506 L 1207.6423391972498 20.51275754861357 L 1207.5891753353862 20.424754717872737 L 1207.5379608285346 20.336515961455746 L 1207.4887007981026 20.2480501031647 L 1207.4414001700522 20.159365989511716 L 1207.396063674407 20.07047248883425 L 1207.3526958447787 19.98137849040829 L 1207.311301017914 19.89209290355944 L 1207.2718833332613 19.80262465677198 L 1207.234446732556 19.712982696796026 L 1207.1989949594272 19.62317598775288 L 1207.1655315590224 19.533213510238607 L 1207.134059877654 19.443104260425986 L 1207.1045830624637 19.352857249164913 L 1207.0771040611087 19.262481501081304 L 1207.051625621466 19.171986053674658 L 1207.0281502913585 19.0813799564143 L 1207.0066804182995 18.99067226983445 L 1206.9872181492588 18.899872064628184 L 1206.9697654304464 18.80898842074035 L 1206.9543240071202 18.7180304264596 L 1206.9408954234095 18.627007177509565 L 1206.9294810221613 18.53592777613929 L 1206.9200819448065 18.44480133021301 L 1206.912699131245 18.35363695229938 L 1206.9073333197518 18.26244375876022 L 1206.9039850469037 18.171230868838894 L 1206.902654647525 18.08000740374838 L 1206.9033422546547 17.98878248575917 L 1206.9060477995329 17.89756523728704 L 1206.9107710116068 17.80636477998082 L 1206.9175114185596 17.71519023381025 L 1206.9262683463562 17.624050716153963 L 1206.9370409193107 17.532955340887774 L 1206.9498280601754 17.4419132174733 L 1206.9646284902462 17.350933450047012 L 1206.981440729493 17.26002513650984 L 1207.0002630967056 17.16919736761737 L 1207.0210937096629 17.07845922607082 L 1207.043930485321 16.987819785608714 L 1207.0687711400217 16.897288110099574 L 1207.0956131897199 16.8068732526355 L 1207.124453950233 16.716584254626905 L 1207.155290537509 16.62643014489834 L 1207.188119867915 16.536419938785652 L 1207.2229386585452 16.446562637234447 L 1207.2597434275494 16.356867225899993 L 1207.2985304944818 16.26734267424868 L 1207.3392959806679 16.177997934661075 L 1207.3820358095927 16.08884194153668 L 1207.4267457073092 15.999883610400506 L 1207.473421202865 15.911131837011538 L 1207.5220576287493 15.82259549647316 L 1207.5726501213599 15.734283442345639 L 1207.6251936214899 15.6462045057608 L 1207.679682874833 15.558367494538897 L 1207.7361124325091 15.47078119230786 L 1207.7944766516098 15.383454357624922 L 1207.8547696957617 15.296395723100778 L 1207.9169855357104 15.209613994526332 L 1207.981117949924 15.123117850002128 L 1208.0471605252146 15.036915939070532 L 1208.1151066573796 14.951016881850805 L 1208.1849495518622 14.865429268177088 L 1208.2566822244314 14.780161656739425 L 1208.3302975018798 14.695222574227904 L 1208.4057880227408 14.610620514479992 L 1208.483146238025 14.526363937631164 L 1208.562364411976 14.44246126926889 L 1208.6434346228418 14.358920899590089 L 1208.726348763669 14.27575118256211 L 1208.8110985431128 14.19296043508735 L 1208.897675486266 14.110556936171564 L 1208.986070935506 14.028548926095976 L 1209.076276051362 13.946944605593249 L 1209.168281813397 13.865752135027433 L 1209.262079021112 13.784979633577926 L 1209.3576582948642 13.704635178427559 L 1209.455010076806 13.624726803954896 L 1209.55412463184 13.545262500930793 L 1209.6549920485936 13.466250215719334 L 1209.7576022404091 13.387697849483194 L 1209.8619449463529 13.30961325739354 L 1209.9680097322412 13.23200424784451 L 1210.075785991684 13.154878581672381 L 1210.1852629471448 13.078243971379504 L 1210.2964296510197 13.002108080363044 L 1210.4092749867307 12.926478522148656 L 1210.5237876698384 12.851362859629138 L 1210.6399562491697 12.776768604308145 L 1210.7577691079637 12.702703215549048 L 1210.8772144650327 12.629174099829003 L 1210.9982803759403 12.556188609998305 L 1211.1209547341966 12.483754044545117 L 1211.245225272468 12.411877646865625 L 1211.371079563804 12.340566604539697 L 1211.4985050228802 12.26982804861214 L 1211.6274889072574 12.199669052879603 L 1211.7580183186542 12.130096633183188 L 1211.8900802042385 12.06111774670689 L 1212.0236613579316 11.992739291281874 L 1212.1587484217296 11.924968104696699 L 1212.2953278870386 11.857810964013552 L 1212.433386096026 11.791274584890534 L 1212.5729092429856 11.725365620910111 L 1212.7138833757194 11.660090662913756 L 1212.8562943969316 11.595456238342878 L 1213.0001280656384 11.531468810586066 L 1213.1453699985932 11.468134778332775 L 1213.2920056717232 11.405460474933456 L 1213.4400204215838 11.343452167766216 L 1213.589399446823 11.282116057610097 L 1213.7401278096634 11.221458278025008 L 1213.8921904373935 11.16148489473835 L 1214.0455721238775 11.10220190503848 L 1214.2002575310748 11.043615237174969 L 1214.3562311905735 10.985730749765775 L 1214.5134775051376 10.928554231211407 L 1214.6719807502666 10.87209139911607 L 1214.831725075768 10.816347899715922 L 1214.9926945073428 10.76132930731445 L 1215.1548729481813 10.707041123725045 L 1215.3182441805752 10.653488777720831 L 1215.4827918675371 10.600677624491773 L 1215.6484995544356 10.548612945109191 L 1215.8153506706396 10.497299945997636 L 1215.9833285311772 10.446743758414254 L 1216.152416338402 10.396949437935678 L 1216.3225971836744 10.347921963952459 L 1216.4938540490512 10.299666239171138 L 1216.6661698089888 10.252187089123984 L 1216.8395272320552 10.20548926168643 L 1217.013908982652 10.159577426602311 L 1217.1892976227498 10.114456175016873 L 1217.3656756136306 10.070130019017672 L 1217.5430253176423 10.026603391183372 L 1217.7213289999625 9.983880644140482 L 1217.9005688303712 9.941966050128107 L 1218.080726885035 9.900863800570718 L 1218.2617851482983 9.86057800565902 L 1218.443725514486 9.82111269393893 L 1218.6265297897128 9.782471811908737 L 1218.8101796937037 9.744659223624438 L 1218.9946568616213 9.707678710313356 L 1219.1799428459024 9.671533969996 L 1219.3660191181032 9.636228617116288 L 1219.5528670707513 9.60176618218008 L 1219.7404680192074 9.568150111402154 L 1219.9288032035329 9.535383766361576 L 1220.117853790366 9.503470423665544 L 1220.3076008748062 9.472413274621731 L 1220.4980254823026 9.442215424919162 L 1220.6891085705533 9.412879894317644 L 1220.880831031409 9.384409616345788 L 1221.073173692783 9.35680743800767 L 1221.2661173205695 9.330076119498116 L 1221.4596426205667 9.304218333926707 L 1221.6537302404058 9.27923666705045 L 1221.8483607714863 9.255133617015213 L 1222.043514750918 9.231911594105915 L 1222.2391726634646 9.209572920505497 L 1222.4353149434985 9.1881198300627 L 1222.631921976955 9.167554468068694 L 1222.8289741032947 9.147878891042538 L 1223.0264516174693 9.129095066525542 L 1223.2243347718916 9.1112048728845 L 1223.422603778411 9.09421009912387 L 1223.6212388102924 9.078112444706866 L 1223.820220004198 9.062913519385516 L 1224.0195274621744 9.048614843039683 L 1224.2191412536417 9.03521784552509 L 1224.419041417387 9.022723866530322 L 1224.6192079635607 9.011134155442866 L 1224.819620875675 9.000449871224175 L 1225.0202601126055 8.990672082293766 L 1225.221105610596 8.981801766422386 L 1225.4221372852637 8.973839810634226 L 1225.623335033609 8.966787011118234 L 1225.8246787360247 8.960644073148481 L 1226.026148258308 8.955411611013648 L 1226.227723453675 8.951090147955588 L 1226.4293841647739 8.947680116117002 L 1226.6311102257016 8.945181856498236 L 1226.8328814640201 8.943595618923167 L 1227.0346777027742 8.942921562014233 L 1227.2364787625074 8.94315975317656 L 1227.4382644632824 8.944310168591237 L 1227.6400146266972 8.946372693217674 L 1227.8417090779035 8.949347120805129 L 1228.0433276476244 8.953233153913324 L 1228.2448501741708 8.958030403942185 L 1228.446256505458 8.963738391170708 L 1228.6475265010208 8.970356544804925 L 1228.848640034027 8.97788420303499 L 1229.0495769932916 8.98632061310135 L 1229.2503172852855 8.99566493137003 L 1229.450840836147 9.00591622341699 L 1229.6511275936884 9.017073464121571 L 1229.8511575294003 9.029135537768996 L 1230.050910640456 9.042101238161953 L 1230.2503669517114 9.055969268741208 L 1230.4495065177007 9.070738242715262 L 1230.648309424634 9.086406683199021 L 1230.8467557923857 9.102973023361494 L 1231.0448257764847 9.120435606582474 L 1231.2424995700976 9.138792686618187 L 1231.4397574060097 9.158042427775927 L 1231.636579558602 9.178182905097621 L 1231.832946345823 9.199212104552322 L 1232.028838131158 9.221127923237606 L 1232.224235325591 9.243928169589871 L 1232.4191183895662 9.267610563603478 L 1232.613467834939 9.292172737058763 L 1232.8072642269271 9.317612233758847 L 1233.000488186053 9.343926509775264 L 1233.1931203900813 9.371112933702335 L 1233.3851415759525 9.399168786920328 L 1233.5765325417078 9.428091263867296 L 1233.7672741484103 9.45787747231965 L 1233.9573473220582 9.488524433681365 L 1234.1467330554924 9.520029083281843 L 1234.3354124102977 9.55238827068238 L 1234.5233665186956 9.585598759991202 L 1234.710576585432 9.619657230187048 L 1234.897023889656 9.654560275451288 L 1235.082689786793 9.690304405508478 L 1235.2675557104076 9.726886045975398 L 1235.4516031740618 9.764301538718486 L 1235.6348137731623 9.802547142219648 L 1235.817169186802 9.841619031950406 L 1235.9986511795914 9.881513300754346 L 1236.1792416034828 9.92222595923783 L 1236.3589223995841 9.963752936168941 L 1236.5376755999653 10.00609007888459 L 1236.7154833294553 10.049233153705785 L 1236.8923278074294 10.093177846360998 L 1237.0681913495873 10.137919762417582 L 1237.2430563697214 10.18345442772122 L 1237.416905381475 10.229777288843323 L 1237.5897210000921 10.276883713536382 L 1237.761485944155 10.324768991197185 L 1237.9321830373121 10.373428333337866 L 1238.1017952099965 10.422856874064767 L 1238.2703055011323 10.473049670564997 L 1238.4376970598305 10.52400170360074 L 1238.6039531470751 10.575707878011151 L 1238.769057137396 10.628163023221877 L 1238.9329925205313 10.681361893762105 L 1239.0957429030796 10.73529916978912 L 1239.2572920101381 10.789969457620263 L 1239.4176236869312 10.84536729027231 L 1239.5767219004242 10.90148712800816 L 1239.7345707409286 10.958323358890807 L 1239.891154423692 11.015870299344526 L 1240.0464572904764 11.074122194723225 L 1240.2004638111246 11.133073219885913 L 1240.3531585851129 11.192717479779198 L 1240.5045263430911 11.253049010026789 L 1240.6545519484098 11.314061777525946 L 1240.8032203986334 11.375749681050758 L 1240.9505168270402 11.43810655186228 L 1241.096426504111 11.501126154325393 L 1241.240934838999 11.564802186532368 L 1241.3840273809915 11.629128280933049 L 1241.5256898209534 11.6940980049716 L 1241.6659079927585 11.759704861729757 L 1241.804667874707 11.825942290576517 L 1241.9419555909262 11.892803667824193 L 1242.0777574127587 11.96028230739078 L 1242.2120597601354 12.02837146146855 L 1242.3448492029338 12.097064321198838 L 1242.47611246232 12.166354017352914 L 1242.6058364120777 12.236233621018904 L 1242.7340080799197 12.306696144294676 L 1242.8606146487864 12.377734540986618 L 1242.985643458126 12.449341707314261 L 1243.1090820051622 12.521510482620645 L 1243.2309179461429 12.594233650088377 L 1243.3511390975755 12.667503937461316 L 1243.469733437445 12.741314017771781 L 1243.5866891064165 12.815656510073252 L 1243.7019944090205 12.890523980178447 L 1243.8156378148228 12.965908941402748 L 1243.9276079595772 13.04180385531285 L 1244.037893646363 13.11820113248061 L 1244.1464838467034 13.195093133241976 L 1244.2533677016684 13.272472168460947 L 1244.358534522962 13.350330500298481 L 1244.4619737939895 13.42866034298628 L 1244.56367517091 13.507453863605349 L 1244.663628483671 13.586703182869286 L 1244.7618237370239 13.666400375912204 L 1244.8582511115253 13.746537473081217 L 1244.9529009645184 13.827106460733386 L 1245.0457638310966 13.908099282037085 L 1245.1368304250507 13.989507837777682 L 1245.226091639797 14.071323987167439 L 1245.3135385492888 14.1535395486596 L 1245.3991624089076 14.236146300766524 L 1245.482954656339 14.319135982881845 L 1245.564906912428 14.402500296106505 L 1245.6450109820173 14.486230904078653 L 1245.7232588547668 14.570319433807267 L 1245.7996427059543 14.654757476509447 L 1245.8741548972584 14.739536588451287 L 1245.9467879775223 14.824648291792245 L 1246.017534683498 14.910084075432911 L 1246.0863879405742 14.995835395866116 L 1246.1533408634825 15.081893678031278 L 1246.2183867569863 15.168250316171896 L 1246.2815191165505 15.254896674696116 L 1246.342731628992 15.341824089040294 L 1246.4020181731103 15.429023866535433 L 1246.4593728203004 15.516487287276451 L 1246.5147898351454 15.604205604994158 L 1246.56826367599 15.692170047929883 L 1246.619788995495 15.780371819712634 L 1246.669360641171 15.868802100238737 L 1246.7169736558944 15.957452046553826 L 1246.7626232784044 16.046312793737147 L 1246.8063049437758 16.135375455788033 L 1246.8480142838791 16.2246311265145 L 1246.887747127815 16.314070880423845 L 1246.9254995023316 16.40368577361522 L 1246.9612676322238 16.49346684467398 L 1246.9950479407078 16.583405115567835 L 1247.026837049781 16.67349159254465 L 1247.0566317805592 16.763717267031794 L 1247.084429153594 16.85407311653701 L 1247.1102263891714 16.944550105550636 L 1247.134020907589 17.03513918644918 L 1247.1558103294153 17.12583130040003 L 1247.1755924757258 17.216617378267376 L 1247.1933653683225 17.307488341519083 L 1247.209127229931 17.398435103134553 L 1247.2228764843783 17.48944856851341 L 1247.2346117567504 17.580519636384963 L 1247.2443318735297 17.67163919971832 L 1247.252035862713 17.762798146633074 L 1247.2577229539072 17.8539873613105 L 1247.2613925784085 17.945197724905128 L 1247.2630443692572 18.0364201164566 M 1247.2631467454585 47.09187800570001 L 1247.2621377409246 47.18310231293715 L 1247.2591108282224 47.27431749781959 L 1247.254066310041 47.365514438904846 L 1247.247004690828 47.45668401657481 L 1247.2379266767389 47.547817113947694 L 1247.226833175568 47.638904617789706 L 1247.2137252966559 47.729937419426356 L 1247.1986043507798 47.82090641565335 L 1247.1814718500216 47.91180250964687 L 1247.1623295076172 48.002616611873265 L 1247.1411792377846 48.09333964099798 L 1247.1180231555336 48.18396252479373 L 1247.0928635764528 48.27447620104763 L 1247.0657030164793 48.36487161846748 L 1247.0365441916463 48.45513973758689 L 1247.005390017812 48.54527153166916 L 1246.972243610368 48.63525798760998 L 1246.9371082839273 48.72509010683876 L 1246.8999875519933 48.81475890621844 L 1246.860885126608 48.90425541894379 L 1246.8198049179819 48.99357069543812 L 1246.7767510341012 49.082695804248225 L 1246.7317277803186 49.17162183293748 L 1246.684739658922 49.26033988897713 L 1246.635791368684 49.34884110063549 L 1246.5848878043932 49.43711661786516 L 1246.5320340563635 49.525157613187965 L 1246.4772354099257 49.61295528257775 L 1246.4204973448989 49.70050084634074 L 1246.361825535042 49.78778554999351 L 1246.3012258474873 49.87480066513843 L 1246.2387043421531 49.961537490336504 L 1246.1742672711378 50.04798735197749 L 1246.1079210780947 50.134141605147256 L 1246.0396723975878 50.2199916344923 L 1245.9695280544283 50.305528855081214 L 1245.8974950629922 50.39074471326322 L 1245.8235806265186 50.47563068752352 L 1245.7477921363895 50.56017828933542 L 1245.6701371713907 50.64437906400919 L 1245.590623496954 50.72822459153755 L 1245.5092590643808 50.8117064874376 L 1245.426052010046 50.894816403589324 L 1245.3410106545864 50.97754602907036 L 1245.2541435020662 51.059887090987104 L 1245.1654592391283 51.14183135530199 L 1245.0749667341254 51.22337062765686 L 1244.9826750362322 51.304496754192435 L 1244.8885933745419 51.38520162236367 L 1244.792731157142 51.46547716175098 L 1244.6950979701746 51.545315344867355 L 1244.5957035768768 51.62470818796099 L 1244.4945579166053 51.70364775181375 L 1244.3916711038419 51.78212614253502 L 1244.2870534271817 51.86013551235114 L 1244.1807153483057 51.93766806039013 L 1244.0726675009328 52.014716033461795 L 1243.962920689758 52.09127172683303 L 1243.8514858893707 52.1673274849983 L 1243.7383742431584 52.242875702445176 L 1243.623597062191 52.31790882441486 L 1243.5071658240913 52.39241934765768 L 1243.3890921718862 52.4663998211834 L 1243.269387912842 52.539842847006334 L 1243.1480650172853 52.612741080885094 L 1243.0251356174044 52.68508723305703 L 1242.900612006037 52.756874068967235 L 1242.77450663544 52.82809440999192 L 1242.646832116046 52.89874113415634 L 1242.5176012152003 52.96880717684695 L 1242.3868268558851 53.03828553151787 L 1242.2545221154276 53.107169250391536 L 1242.1207002241913 53.175451445153456 L 1241.985374564254 53.243125287641064 L 1241.848558668069 53.31018401052649 L 1241.710266217112 53.37662090799334 L 1241.5705110405124 53.44242933640724 L 1241.429307113672 53.507602714980166 L 1241.2866685568652 53.572134526428584 L 1241.1426096338291 53.63601831762513 L 1240.997144750336 53.699247700243916 L 1240.8502884527531 53.76181635139937 L 1240.7020554265875 53.82371801427851 L 1240.5524604950187 53.884946498766645 L 1240.4015186174147 53.945495682066344 L 1240.249244887838 54.00535950930974 L 1240.0956545335341 54.064531994163985 L 1239.940762913411 54.123007219429915 L 1239.784585516501 54.18077933763372 L 1239.6271379604143 54.237842571611736 L 1239.468435989775 54.294191215088105 L 1239.3084954746478 54.349819633245446 L 1239.1473324089511 54.4047222632883 L 1238.9849629088571 54.45889361499941 L 1238.8214032111805 54.512328271288744 L 1238.656669671755 54.56502088873521 L 1238.490778763797 54.61696619812098 L 1238.3237470762588 54.66815900495838 L 1238.1555913121706 54.718594190009405 L 1237.9863282869683 54.76826670979758 L 1237.8159749268132 54.817171597112306 L 1237.6445482668998 54.865303961505624 L 1237.472065449751 54.912658989781185 L 1237.2985437235045 54.95923194647564 L 1237.1240004401889 55.00501817433212 L 1236.948453053987 55.050013094766 L 1236.7719191194903 55.09421220832273 L 1236.5944162899464 55.137611095127795 L 1236.4159623154892 55.180205415328665 L 1236.2365750413683 55.22199090952882 L 1236.056272406161 55.26296339921367 L 1235.875072439981 55.30311878716838 L 1235.6929932626736 55.342453057887624 L 1235.510053082005 55.3809622779771 L 1235.3262701918409 55.418642596546896 L 1235.141662970317 55.45549024559656 L 1234.9562498780015 55.49150154039188 L 1234.7700494560493 55.5266728798334 L 1234.5830803243473 55.56100074681648 L 1234.395361179653 55.594481708583025 L 1234.2069107937245 55.627112417064765 L 1234.017748011443 55.658889609218036 L 1233.8278917489297 55.689810107350105 L 1233.637360991652 55.719870819436935 L 1233.4461747925272 55.74906873943235 L 1233.2543522700157 55.77740094756871 L 1233.0619126062102 55.80486461064878 L 1232.8688750449164 55.83145698232916 L 1232.6752588897298 55.857175403394834 L 1232.4810835021044 55.88201730202513 L 1232.2863682994173 55.90598019405088 L 1232.0911327530264 55.92906168320286 L 1231.8953963863235 55.95125946135139 L 1231.6991787727825 55.972571308737145 L 1231.502499534001 55.99299509419315 L 1231.305378337739 56.01252877535787 L 1231.107834895952 56.03117039887948 L 1230.9098889628194 56.04891810061116 L 1230.7115603327695 56.065770105797526 L 1230.5128688385005 56.081724729252095 L 1230.3138343489957 56.096780375525825 L 1230.1144767675382 56.11093553906663 L 1229.9148160297204 56.12418880436996 L 1229.7148721014496 56.13653884612032 L 1229.5146649769517 56.14798442932383 L 1229.3142146767727 56.158524409431706 L 1229.1135412457752 56.16815773245473 L 1228.9126647511355 56.17688343506861 L 1228.7116052803353 56.184700644710375 L 1228.5103829391544 56.19160857966556 L 1228.309017849659 56.197606549146435 L 1228.1075301481903 56.20269395336105 L 1227.9059399833507 56.20687028357321 L 1227.7042675139887 56.21013512215339 L 1227.5025329071827 56.212488142620444 L 1227.300756336226 56.2139291096743 L 1227.098957978607 56.21445787921943 L 1226.8971580139935 56.21407439837934 L 1226.6953766222139 56.21277870550178 L 1226.4936339812389 56.21057093015497 L 1226.2919502651648 56.2074512931146 L 1226.090345642195 56.203420106341774 L 1225.8888402726236 56.19847777295181 L 1225.6874543068202 56.192624787173926 L 1225.486207883213 56.18586173430183 L 1225.2851211262769 56.17818929063517 L 1225.08421414452 56.16960822341191 L 1224.8835070284729 56.16011939073163 L 1224.6830198486803 56.14972374146969 L 1224.4827726536928 56.13842231518235 L 1224.2827854680631 56.12621624200283 L 1224.083078290343 56.113106742528274 L 1223.8836710910844 56.099095127697694 L 1223.6845838108402 56.084182798660905 L 1223.4858363581732 56.06837124663838 L 1223.2874486076626 56.051662052772144 L 1223.0894403979185 56.034056887967665 L 1222.8918315295966 56.01555751272676 L 1222.6946417634192 55.996165776971516 L 1222.4978908181986 55.97588361985936 L 1222.3015983688651 55.954713069589104 L 1222.1057840445005 55.93265624319813 L 1221.9104674263738 55.9097153463507 L 1221.7156680459839 55.885892673117375 L 1221.5214053831066 55.861190605745634 L 1221.3276988638468 55.835611614421616 L 1221.1345678586943 55.80915825702316 L 1220.942031680589 55.781833178863934 L 1220.7501095829882 55.753639112429 L 1220.5588207579417 55.72457887710151 L 1220.3681843341726 55.69465537888076 L 1220.1782193751646 55.66387161009166 L 1219.9889448772553 55.63223064908542 L 1219.8003797677363 55.59973565993178 L 1219.6125429029619 55.56638989210258 L 1219.425453066462 55.5321966801468 L 1219.239128967064 55.497159443357155 L 1219.053589237023 55.46128168542812 L 1218.868852430157 55.4245669941056 L 1218.684937019993 55.387019040828115 L 1218.5018613979187 55.34864158035972 L 1218.3196438713437 55.30943845041446 L 1218.138302661869 55.269413571272686 L 1217.957855903464 55.22857094538894 L 1217.7783216406544 55.18691465699178 L 1217.599717826717 55.14444887167533 L 1217.4220623218844 55.10117783598274 L 1217.2453728915589 55.05710587698152 L 1217.069667204536 55.01223740183083 L 1216.8949628312384 54.96657689734081 L 1216.721277241958 54.92012892952385 L 1216.5486278051085 54.87289814313803 L 1216.3770317854899 54.82488926122262 L 1216.206506342561 54.77610708462583 L 1216.0370685287244 54.72655649152463 L 1215.86873528762 54.67624243693707 L 1215.7015234524315 54.62516995222667 L 1215.5354497442036 54.57334414459934 L 1215.3705307701682 54.52077019659265 L 1215.2067830220853 54.467453365557596 L 1215.0442228745937 54.41339898313285 L 1214.8828665835724 54.358612454711604 L 1214.7227302845158 54.30309925890105 L 1214.5638299909208 54.24686494697451 L 1214.406181592684 54.18991514231631 L 1214.2498008545142 54.13225553985946 L 1214.0947034143546 54.073891905516156 L 1213.9409047818199 54.014830075601196 L 1213.7884203366455 53.95507595624835 L 1213.6372653271487 53.89463552281976 L 1213.4874548687044 53.83351481930841 L 1213.3390039422338 53.77171995773371 L 1213.1919273927056 53.70925711753032 L 1213.0462399276523 53.64613254493022 L 1212.9019561156992 53.582352552338044 L 1212.759090385107 53.51792351769993 L 1212.6176570223297 53.45285188386562 L 1212.4776701705857 53.3871441579443 L 1212.3391438284439 53.320806910653786 L 1212.2020918484225 53.25384677566353 L 1212.0665279356058 53.186270448931246 L 1211.9324656462718 53.11808468803328 L 1211.7999183865377 53.049296311488895 L 1211.6688994110193 52.97991219807844 L 1211.5394218215047 52.909939286155414 L 1211.4114985656452 52.83938457295272 L 1211.2851424356595 52.76825511388287 L 1211.1603660670553 52.6965580218325 L 1211.0371819373659 52.62430046645107 L 1210.9156023649011 52.5514896734339 L 1210.7956395075173 52.47813292379962 L 1210.6773053613997 52.40423755316206 L 1210.560611759865 52.3298109509967 L 1210.4455703721756 52.25486055990175 L 1210.3321927023744 52.179393874853844 L 1210.220490088134 52.103418442458604 L 1210.110473699623 52.02694186019596 L 1210.0021545383884 51.94997177566041 L 1209.8955434362558 51.87251588579626 L 1209.790651054247 51.79458193612795 L 1209.6874878815124 51.7161777199855 L 1209.5860642342836 51.6373110777252 L 1209.4863902548404 51.55798989594554 L 1209.3884759104983 51.47822210669861 L 1209.2923309926098 51.398015686696844 L 1209.1979651155864 51.31737865651542 L 1209.1053877159372 51.23631907979016 L 1209.0146080513255 51.15484506241117 L 1208.9256351996414 51.072964751712306 L 1208.8384780580966 50.990686335656406 L 1208.7531453423321 50.9080180420165 L 1208.6696455855488 50.82496813755307 L 1208.5879871376524 50.74154492718736 L 1208.5081781644199 50.65775675317087 L 1208.430226646682 50.573611994251195 L 1208.3541403795255 50.4891190648341 L 1208.2799269715138 50.40428641414212 L 1208.2075938439257 50.31912252536962 L 1208.137148230014 50.233635914834515 L 1208.068597174281 50.14783513112663 L 1208.0019475317754 50.06172875425281 L 1207.9372059674058 49.975325394779006 L 1207.8743789552748 49.888633692969165 L 1207.8134727780312 49.80166231792121 L 1207.754493526242 49.71441996670019 L 1207.697447097783 49.626915363468505 L 1207.6423391972498 49.53915725861357 L 1207.5891753353862 49.45115442787274 L 1207.5379608285346 49.362915671455745 L 1207.4887007981026 49.27444981316471 L 1207.4414001700522 49.18576569951172 L 1207.396063674407 49.09687219883425 L 1207.3526958447787 49.007778200408296 L 1207.311301017914 48.918492613559444 L 1207.2718833332613 48.82902436677198 L 1207.234446732556 48.73938240679603 L 1207.1989949594272 48.64957569775289 L 1207.1655315590224 48.55961322023861 L 1207.134059877654 48.46950397042599 L 1207.1045830624637 48.37925695916492 L 1207.0771040611087 48.28888121108131 L 1207.051625621466 48.198385763674665 L 1207.0281502913585 48.1077796664143 L 1207.0066804182995 48.017071979834455 L 1206.9872181492588 47.92627177462819 L 1206.9697654304464 47.835388130740355 L 1206.9543240071202 47.744430136459606 L 1206.9408954234095 47.65340688750957 L 1206.9294810221613 47.562327486139296 L 1206.9200819448065 47.47120104021301 L 1206.912699131245 47.38003666229938 L 1206.9073333197518 47.28884346876023 L 1206.9039850469037 47.1976305788389 L 1206.902654647525 47.10640711374838" stroke-miterlimit="10" stroke-width="2.3497561670000002" stroke-dasharray=""/></g><g><g/><text fill="black" stroke="none" font-family="sans-serif" font-size="8pt" font-style="normal" font-weight="normal" text-decoration="normal" x="1220.9652121182085" y="71.045568814" text-anchor="start" dominant-baseline="alphabetic" xml:space="preserve">db</text></g></g><g><path fill="white" stroke="black" paint-order="fill stroke markers" d=" M 174.81928422291668 120.80511117400002 L 188.6413793229167 120.80511117400002 L 188.6413793229167 1034.1138670015998 L 174.81928422291668 1034.1138670015998 L 174.81928422291668 120.80511117400002" stroke-miterlimit="10" stroke-width="1.1518412583333333" stroke-dasharray=""/><path fill="white" stroke="black" paint-order="fill stroke markers" d=" M 357.75656198333337 159.50697745400004 L 371.5786570833333 159.50697745400004 L 371.5786570833333 995.4120007215998 L 357.75656198333337 995.4120007215998 L 357.75656198333337 159.50697745400004" stroke-miterlimit="10" stroke-width="1.1518412583333333" stroke-dasharray=""/><path fill="white" stroke="black" paint-order="fill stroke markers" d=" M 580.019438075 198.20884373400003 L 593.8415331750001 198.20884373400003 L 593.8415331750001 611.1577569415999 L 580.019438075 611.1577569415999 L 580.019438075 198.20884373400003" stroke-miterlimit="10" stroke-width="1.1518412583333333" stroke-dasharray=""/><path fill="white" stroke="black" paint-order="fill stroke markers" d=" M 788.4602190666667 236.91071001400002 L 802.2823141666668 236.91071001400002 L 802.2823141666668 572.4558906615999 L 788.4602190666667 572.4558906615999 L 788.4602190666667 236.91071001400002" stroke-miterlimit="10" stroke-width="1.1518412583333333" stroke-dasharray=""/><path fill="white" stroke="black" paint-order="fill stroke markers" d=" M 1394.0266287216043 474.31901545159997 L 1407.8487238216042 474.31901545159997 L 1407.8487238216042 513.0208817316 L 1394.0266287216043 513.0208817316 L 1394.0266287216043 474.31901545159997" stroke-miterlimit="10" stroke-width="1.1518412583333333" stroke-dasharray=""/><path fill="white" stroke="black" paint-order="fill stroke markers" d=" M 364.66760953333335 667.8283468515999 L 378.4897046333333 667.8283468515999 L 378.4897046333333 938.7414108115998 L 364.66760953333335 938.7414108115998 L 364.66760953333335 667.8283468515999" stroke-miterlimit="10" stroke-width="1.1518412583333333" stroke-dasharray=""/><path fill="white" stroke="black" paint-order="fill stroke markers" d=" M 181.73033177291668 706.5302131315999 L 195.5524268729167 706.5302131315999 L 195.5524268729167 900.0395445315999 L 181.73033177291668 900.0395445315999 L 181.73033177291668 706.5302131315999" stroke-miterlimit="10" stroke-width="1.1518412583333333" stroke-dasharray=""/><path fill="white" stroke="black" paint-order="fill stroke markers" d=" M 371.5786570833334 745.2320794115999 L 385.40075218333334 745.2320794115999 L 385.40075218333334 783.9339456915999 L 371.5786570833334 783.9339456915999 L 371.5786570833334 745.2320794115999" stroke-miterlimit="10" stroke-width="1.1518412583333333" stroke-dasharray=""/><path fill="white" stroke="black" paint-order="fill stroke markers" d=" M 371.5786570833334 822.6358119715999 L 385.40075218333334 822.6358119715999 L 385.40075218333334 861.3376782515999 L 371.5786570833334 861.3376782515999 L 371.5786570833334 822.6358119715999" stroke-miterlimit="10" stroke-width="1.1518412583333333" stroke-dasharray=""/><g><g><rect fill="white" stroke="none" x="34.48203716833333" y="102.83638754400002" width="123.98110118625" height="17.96872363"/></g><text fill="black" stroke="none" font-family="sans-serif" font-size="8pt" font-style="normal" font-weight="normal" text-decoration="normal" x="36.55535143333333" y="115.27627313400002" text-anchor="start" dominant-baseline="alphabetic" xml:space="preserve">submit(date:LocalDate)</text></g><g><path fill="none" stroke="black" paint-order="fill stroke markers" d=" M 18.1258913 120.80511117400002 L 163.43909259058336 120.80511117400002" stroke-miterlimit="10" stroke-width="1.1518412583333333" stroke-dasharray=""/><g transform="translate(174.81928422291668,120.80511117400002) translate(-174.81928422291668,-120.80511117400002)"><path fill="black" stroke="none" paint-order="stroke fill markers" d=" M 163.30087163958333 115.04590488233335 L 174.81928422291668 120.80511117400002 L 163.30087163958333 126.56431746566669 Z"/></g></g><g><g><rect fill="white" stroke="none" x="208.45304896625" y="141.53825382400004" width="129.49184337375" height="17.96872363"/></g><text fill="black" stroke="none" font-family="sans-serif" font-size="8pt" font-style="normal" font-weight="normal" text-decoration="normal" x="210.52636323125" y="153.97813941400005" text-anchor="start" dominant-baseline="alphabetic" xml:space="preserve">setDate(date:LocalDate)</text></g><g><path fill="none" stroke="black" paint-order="fill stroke markers" d=" M 188.6413793229167 159.50697745400004 L 346.37637035100005 159.50697745400004" stroke-miterlimit="10" stroke-width="1.1518412583333333" stroke-dasharray=""/><g transform="translate(357.75656198333337,159.50697745400004) translate(-357.75656198333337,-159.50697745400004)"><path fill="black" stroke="none" paint-order="stroke fill markers" d=" M 346.23814940000005 153.74777116233338 L 357.75656198333337 159.50697745400004 L 346.23814940000005 165.2661837456667 Z"/></g></g><g><g><rect fill="white" stroke="none" x="394.84585050166663" y="180.24012010400003" width="161.906394155" height="17.96872363"/></g><text fill="black" stroke="none" font-family="sans-serif" font-size="8pt" font-style="normal" font-weight="normal" text-decoration="normal" x="396.91916476666665" y="192.68000569400004" text-anchor="start" dominant-baseline="alphabetic" xml:space="preserve">getScreenings(date:LocalDate)</text></g><g><path fill="none" stroke="black" paint-order="fill stroke markers" d=" M 371.5786570833333 198.20884373400003 L 568.6392464426667 198.20884373400003" stroke-miterlimit="10" stroke-width="1.1518412583333333" stroke-dasharray=""/><g transform="translate(580.019438075,198.20884373400003) translate(-580.019438075,-198.20884373400003)"><path fill="black" stroke="none" paint-order="stroke fill markers" d=" M 568.5010254916667 192.44963744233337 L 580.019438075 198.20884373400003 L 568.5010254916667 203.96805002566668 Z"/></g></g><g><g><rect fill="white" stroke="none" x="610.1976790433333" y="218.94198638400002" width="161.906394155" height="17.96872363"/></g><text fill="black" stroke="none" font-family="sans-serif" font-size="8pt" font-style="normal" font-weight="normal" text-decoration="normal" x="612.2709933083333" y="231.38187197400003" text-anchor="start" dominant-baseline="alphabetic" xml:space="preserve">getScreenings(date:LocalDate)</text></g><g><path fill="none" stroke="black" paint-order="fill stroke markers" d=" M 593.8415331750001 236.91071001400002 L 777.0800274343334 236.91071001400002" stroke-miterlimit="10" stroke-width="1.1518412583333333" stroke-dasharray=""/><g transform="translate(788.4602190666667,236.91071001400002) translate(-788.4602190666667,-236.91071001400002)"><path fill="black" stroke="none" paint-order="stroke fill markers" d=" M 776.9418064833334 231.15150372233336 L 788.4602190666667 236.91071001400002 L 776.9418064833334 242.66991630566667 Z"/></g></g><g><g><rect fill="white" stroke="none" x="963.7001070805626" y="257.643852664" width="101.964987905" height="17.96872363"/></g><text fill="black" stroke="none" font-family="sans-serif" font-size="8pt" font-style="normal" font-weight="normal" text-decoration="normal" x="965.7734213455626" y="270.083738254" text-anchor="start" dominant-baseline="alphabetic" xml:space="preserve">execute(sql:String)</text></g><g><path fill="none" stroke="black" paint-order="fill stroke markers" d=" M 802.2823141666668 275.612576294 L 1215.702696267125 275.612576294" stroke-miterlimit="10" stroke-width="1.1518412583333333" stroke-dasharray=""/><g transform="translate(1227.0828878994585,275.612576294) translate(-1227.0828878994585,-275.612576294)"><path fill="black" stroke="none" paint-order="stroke fill markers" d=" M 1215.564475316125 269.85337000233335 L 1227.0828878994585 275.612576294 L 1215.564475316125 281.37178258566666 Z"/></g></g><g><g><rect fill="white" stroke="none" x="818.6384600350001" y="333.665375714" width="189.0948707175" height="17.96872363"/></g><text fill="black" stroke="none" font-family="sans-serif" font-size="8pt" font-style="normal" font-weight="normal" text-decoration="normal" x="820.7117743000001" y="346.105261304" text-anchor="start" dominant-baseline="alphabetic" xml:space="preserve">s:=getScreenforOid(screen:Integer)</text></g><g><path fill="none" stroke="black" paint-order="fill stroke markers" d=" M 802.2823141666668 351.634099344 L 1012.7092849885001 351.634099344" stroke-miterlimit="10" stroke-width="1.1518412583333333" stroke-dasharray=""/><g transform="translate(1024.0894766208335,351.634099344) translate(-1024.0894766208335,-351.634099344)"><path fill="black" stroke="none" paint-order="stroke fill markers" d=" M 1012.5710640375002 345.87489305233333 L 1024.0894766208335 351.634099344 L 1012.5710640375002 357.39330563566665 Z"/></g></g><g><g><rect fill="white" stroke="none" x="876.1729456122501" y="372.367241994" width="187.23647228" height="17.96872363"/></g><text fill="black" stroke="none" font-family="sans-serif" font-size="8pt" font-style="normal" font-weight="normal" text-decoration="normal" x="878.2462598772502" y="384.807127584" text-anchor="start" dominant-baseline="alphabetic" xml:space="preserve">m:=getMovieForOid(movie:Integer)</text></g><g><path fill="none" stroke="black" paint-order="fill stroke markers" d=" M 802.2823141666668 390.335965624 L 1125.9198577055001 390.335965624" stroke-miterlimit="10" stroke-width="1.1518412583333333" stroke-dasharray=""/><g transform="translate(1137.3000493378336,390.335965624) translate(-1137.3000493378336,-390.335965624)"><path fill="black" stroke="none" paint-order="stroke fill markers" d=" M 1125.7816367545001 384.5767593323333 L 1137.3000493378336 390.335965624 L 1125.7816367545001 396.09517191566664 Z"/></g></g><g><path fill="white" stroke="black" paint-order="fill stroke markers" d=" M 1421.4634874951043 431.5949194975 A 20.5258112235 20.5258112235 0 1 1 1421.4634772321995 431.57439368969744 M 1379.236986964604 454.00053565459996 L 1422.6383655786044 454.00053565459996" stroke-miterlimit="10" stroke-width="2.3497561670000002" stroke-dasharray=""/></g><g><g/><text fill="black" stroke="none" font-family="sans-serif" font-size="8pt" font-style="normal" font-weight="normal" text-decoration="normal" x="1351.7169731466042" y="468.9975088381" text-anchor="start" dominant-baseline="alphabetic" xml:space="preserve">PersistentScreening</text></g><g><g><rect fill="white" stroke="none" x="849.5256946260105" y="424.72533823279997" width="454.94789806125" height="17.96872363"/></g><text fill="black" stroke="none" font-family="sans-serif" font-size="8pt" font-style="normal" font-weight="normal" text-decoration="normal" x="851.5990088910105" y="437.1652238228" text-anchor="start" dominant-baseline="alphabetic" xml:space="preserve">PersistentScreening(oid:Integer,date:LocalDate,s:Screen,m:Movie,stime:LocalTime)</text></g><g><path fill="none" stroke="black" paint-order="fill stroke markers" d=" M 802.2823141666668 442.69406186279997 L 1340.3367815142708 442.69406186279997" stroke-miterlimit="10" stroke-width="1.1518412583333333" stroke-dasharray=""/><g transform="translate(1351.7169731466042,442.69406186279997) translate(-1351.7169731466042,-442.69406186279997)"><path fill="black" stroke="none" paint-order="stroke fill markers" d=" M 1340.1985605632708 436.9348555711333 L 1351.7169731466042 442.69406186279997 L 1340.1985605632708 448.4532681544666 Z"/></g></g><g><g><rect fill="white" stroke="none" x="1096.0811571791357" y="495.05215810159996" width="4.14662853" height="17.96872363"/></g><text fill="black" stroke="none" font-family="sans-serif" font-size="8pt" font-style="normal" font-weight="normal" text-decoration="normal" x="1098.1544714441357" y="507.4920436916" text-anchor="start" dominant-baseline="alphabetic" xml:space="preserve"></text></g><g><path fill="none" stroke="black" paint-order="fill stroke markers" d=" M 1394.0266287216043 513.0208817316 L 813.6625057990001 513.0208817316" stroke-miterlimit="10" stroke-width="1.1518412583333333" stroke-dasharray="5.52883804"/><g transform="translate(802.2823141666668,513.0208817316) translate(-802.2823141666668,-513.0208817316)"><path fill="black" stroke="none" paint-order="stroke fill markers" d=" M 813.8007267500001 507.2616754399333 L 802.2823141666668 513.0208817316 L 813.8007267500001 518.7800880232667 Z"/></g></g><g><g><rect fill="white" stroke="none" x="646.5841536527083" y="554.4871670315999" width="89.13344493625" height="17.96872363"/></g><text fill="black" stroke="none" font-family="sans-serif" font-size="8pt" font-style="normal" font-weight="normal" text-decoration="normal" x="648.6574679177083" y="566.9270526215998" text-anchor="start" dominant-baseline="alphabetic" xml:space="preserve">returnscreenings</text></g><g><path fill="none" stroke="black" paint-order="fill stroke markers" d=" M 788.4602190666667 572.4558906615999 L 605.2217248073334 572.4558906615999" stroke-miterlimit="10" stroke-width="1.1518412583333333" stroke-dasharray="5.52883804"/><g transform="translate(593.8415331750001,572.4558906615999) translate(-593.8415331750001,-572.4558906615999)"><path fill="black" stroke="none" paint-order="stroke fill markers" d=" M 605.3599457583334 566.6966843699332 L 593.8415331750001 572.4558906615999 L 605.3599457583334 578.2150969532667 Z"/></g></g><g><g><rect fill="white" stroke="none" x="431.23232511104163" y="593.1890333115999" width="89.13344493625" height="17.96872363"/></g><text fill="black" stroke="none" font-family="sans-serif" font-size="8pt" font-style="normal" font-weight="normal" text-decoration="normal" x="433.30563937604165" y="605.6289189015998" text-anchor="start" dominant-baseline="alphabetic" xml:space="preserve">returnscreenings</text></g><g><path fill="none" stroke="black" paint-order="fill stroke markers" d=" M 580.019438075 611.1577569415999 L 382.95884871566665 611.1577569415999" stroke-miterlimit="10" stroke-width="1.1518412583333333" stroke-dasharray="5.52883804"/><g transform="translate(371.5786570833333,611.1577569415999) translate(-371.5786570833333,-611.1577569415999)"><path fill="black" stroke="none" paint-order="stroke fill markers" d=" M 383.09706966666664 605.3985506499332 L 371.5786570833333 611.1577569415999 L 383.09706966666664 616.9169632332666 Z"/></g></g><g><g><rect fill="white" stroke="none" x="394.84585050166663" y="631.8908995915999" width="88.49965587375" height="17.96872363"/></g><text fill="black" stroke="none" font-family="sans-serif" font-size="8pt" font-style="normal" font-weight="normal" text-decoration="normal" x="396.91916476666665" y="644.3307851815998" text-anchor="start" dominant-baseline="alphabetic" xml:space="preserve">notifyObservers()</text></g><g><path fill="none" stroke="black" paint-order="fill stroke markers" d=" M 371.5786570833333 649.8596232215999 L 433.77808503333335 649.8596232215999 L 433.77808503333335 667.8283468515999 L 389.8698962656667 667.8283468515999" stroke-miterlimit="10" stroke-width="1.1518412583333333" stroke-dasharray=""/><g transform="translate(378.48970463333336,667.8283468515999) translate(-378.48970463333336,-667.8283468515999)"><path fill="black" stroke="none" paint-order="stroke fill markers" d=" M 390.0081172166667 662.0691405599332 L 378.48970463333336 667.8283468515999 L 390.0081172166667 673.5875531432666 Z"/></g></g><g><g><rect fill="white" stroke="none" x="257.551352375625" y="688.5614895015999" width="45.117331655" height="17.96872363"/></g><text fill="black" stroke="none" font-family="sans-serif" font-size="8pt" font-style="normal" font-weight="normal" text-decoration="normal" x="259.62466664062504" y="701.0013750915998" text-anchor="start" dominant-baseline="alphabetic" xml:space="preserve">update()</text></g><g><path fill="none" stroke="black" paint-order="fill stroke markers" d=" M 364.66760953333335 706.5302131315999 L 206.93261850525002 706.5302131315999" stroke-miterlimit="10" stroke-width="1.1518412583333333" stroke-dasharray=""/><g transform="translate(195.5524268729167,706.5302131315999) translate(-195.5524268729167,-706.5302131315999)"><path fill="black" stroke="none" paint-order="stroke fill markers" d=" M 207.07083945625004 700.7710068399332 L 195.5524268729167 706.5302131315999 L 207.07083945625004 712.2894194232666 Z"/></g></g><g><g><rect fill="white" stroke="none" x="258.56571404125" y="727.2633557815999" width="49.99965587375" height="17.96872363"/></g><text fill="black" stroke="none" font-family="sans-serif" font-size="8pt" font-style="normal" font-weight="normal" text-decoration="normal" x="260.63902830625" y="739.7032413715998" text-anchor="start" dominant-baseline="alphabetic" xml:space="preserve">getDate()</text></g><g><path fill="none" stroke="black" paint-order="fill stroke markers" d=" M 195.5524268729167 745.2320794115999 L 360.198465451 745.2320794115999" stroke-miterlimit="10" stroke-width="1.1518412583333333" stroke-dasharray=""/><g transform="translate(371.5786570833333,745.2320794115999) translate(-371.5786570833333,-745.2320794115999)"><path fill="black" stroke="none" paint-order="stroke fill markers" d=" M 360.0602445 739.4728731199332 L 371.5786570833333 745.2320794115999 L 360.0602445 750.9912857032666 Z"/></g></g><g><g><rect fill="white" stroke="none" x="254.89188591625" y="765.9652220615999" width="57.34731212375" height="17.96872363"/></g><text fill="black" stroke="none" font-family="sans-serif" font-size="8pt" font-style="normal" font-weight="normal" text-decoration="normal" x="256.96520018125" y="778.4051076515998" text-anchor="start" dominant-baseline="alphabetic" xml:space="preserve">returndate</text></g><g><path fill="none" stroke="black" paint-order="fill stroke markers" d=" M 371.5786570833333 783.9339456915999 L 206.93261850525002 783.9339456915999" stroke-miterlimit="10" stroke-width="1.1518412583333333" stroke-dasharray="5.52883804"/><g transform="translate(195.5524268729167,783.9339456915999) translate(-195.5524268729167,-783.9339456915999)"><path fill="black" stroke="none" paint-order="stroke fill markers" d=" M 207.07083945625004 778.1747393999332 L 195.5524268729167 783.9339456915999 L 207.07083945625004 789.6931519832666 Z"/></g></g><g><g><rect fill="white" stroke="none" x="242.66727654125" y="804.6670883415999" width="81.79653087375" height="17.96872363"/></g><text fill="black" stroke="none" font-family="sans-serif" font-size="8pt" font-style="normal" font-weight="normal" text-decoration="normal" x="244.74059080625" y="817.1069739315998" text-anchor="start" dominant-baseline="alphabetic" xml:space="preserve">getScreenings()</text></g><g><path fill="none" stroke="black" paint-order="fill stroke markers" d=" M 195.5524268729167 822.6358119715999 L 360.198465451 822.6358119715999" stroke-miterlimit="10" stroke-width="1.1518412583333333" stroke-dasharray=""/><g transform="translate(371.5786570833333,822.6358119715999) translate(-371.5786570833333,-822.6358119715999)"><path fill="black" stroke="none" paint-order="stroke fill markers" d=" M 360.0602445 816.8766056799332 L 371.5786570833333 822.6358119715999 L 360.0602445 828.3950182632666 Z"/></g></g><g><g><rect fill="white" stroke="none" x="238.99881951" y="843.3689546215999" width="89.13344493625" height="17.96872363"/></g><text fill="black" stroke="none" font-family="sans-serif" font-size="8pt" font-style="normal" font-weight="normal" text-decoration="normal" x="241.072133775" y="855.8088402115998" text-anchor="start" dominant-baseline="alphabetic" xml:space="preserve">returnscreenings</text></g><g><path fill="none" stroke="black" paint-order="fill stroke markers" d=" M 371.5786570833333 861.3376782515999 L 206.93261850525002 861.3376782515999" stroke-miterlimit="10" stroke-width="1.1518412583333333" stroke-dasharray="5.52883804"/><g transform="translate(195.5524268729167,861.3376782515999) translate(-195.5524268729167,-861.3376782515999)"><path fill="black" stroke="none" paint-order="stroke fill markers" d=" M 207.07083945625004 855.5784719599332 L 195.5524268729167 861.3376782515999 L 207.07083945625004 867.0968845432666 Z"/></g></g><g><g><rect fill="white" stroke="none" x="278.036703938125" y="882.0708209015999" width="4.14662853" height="17.96872363"/></g><text fill="black" stroke="none" font-family="sans-serif" font-size="8pt" font-style="normal" font-weight="normal" text-decoration="normal" x="280.11001820312504" y="894.5107064915998" text-anchor="start" dominant-baseline="alphabetic" xml:space="preserve"></text></g><g><path fill="none" stroke="black" paint-order="fill stroke markers" d=" M 195.5524268729167 900.0395445315999 L 353.287417901 900.0395445315999" stroke-miterlimit="10" stroke-width="1.1518412583333333" stroke-dasharray="5.52883804"/><g transform="translate(364.66760953333335,900.0395445315999) translate(-364.66760953333335,-900.0395445315999)"><path fill="black" stroke="none" paint-order="stroke fill markers" d=" M 353.14919695000003 894.2803382399331 L 364.66760953333335 900.0395445315999 L 353.14919695000003 905.7987508232666 Z"/></g></g><g><g><rect fill="white" stroke="none" x="394.84585050166663" y="920.7726871815998" width="4.14662853" height="17.96872363"/></g><text fill="black" stroke="none" font-family="sans-serif" font-size="8pt" font-style="normal" font-weight="normal" text-decoration="normal" x="396.91916476666665" y="933.2125727715998" text-anchor="start" dominant-baseline="alphabetic" xml:space="preserve"></text></g><g><path fill="none" stroke="black" paint-order="fill stroke markers" d=" M 378.48970463333336 938.7414108115998 L 433.77808503333335 938.7414108115998 L 433.77808503333335 956.7101344415998 L 382.9588487156667 956.7101344415998" stroke-miterlimit="10" stroke-width="1.1518412583333333" stroke-dasharray="5.52883804"/><g transform="translate(371.5786570833334,956.7101344415998) translate(-371.5786570833334,-956.7101344415998)"><path fill="black" stroke="none" paint-order="stroke fill markers" d=" M 383.0970696666667 950.9509281499331 L 371.5786570833334 956.7101344415998 L 383.0970696666667 962.4693407332666 Z"/></g></g><g><g><rect fill="white" stroke="none" x="271.125656388125" y="977.4432770915998" width="4.14662853" height="17.96872363"/></g><text fill="black" stroke="none" font-family="sans-serif" font-size="8pt" font-style="normal" font-weight="normal" text-decoration="normal" x="273.198970653125" y="989.8831626815997" text-anchor="start" dominant-baseline="alphabetic" xml:space="preserve"></text></g><g><path fill="none" stroke="black" paint-order="fill stroke markers" d=" M 357.75656198333337 995.4120007215998 L 200.02157095525 995.4120007215998" stroke-miterlimit="10" stroke-width="1.1518412583333333" stroke-dasharray="5.52883804"/><g transform="translate(188.6413793229167,995.4120007215998) translate(-188.6413793229167,-995.4120007215998)"><path fill="black" stroke="none" paint-order="stroke fill markers" d=" M 200.15979190625004 989.6527944299331 L 188.6413793229167 995.4120007215998 L 200.15979190625004 1001.1712070132666 Z"/></g></g><g><g><rect fill="white" stroke="none" x="94.39927349645833" y="1016.1451433715998" width="4.14662853" height="17.96872363"/></g><text fill="black" stroke="none" font-family="sans-serif" font-size="8pt" font-style="normal" font-weight="normal" text-decoration="normal" x="96.47258776145833" y="1028.5850289615998" text-anchor="start" dominant-baseline="alphabetic" xml:space="preserve"></text></g><g><path fill="none" stroke="black" paint-order="fill stroke markers" d=" M 174.81928422291668 1034.1138670015998 L 29.506082932333335 1034.1138670015998" stroke-miterlimit="10" stroke-width="1.1518412583333333" stroke-dasharray="5.52883804"/><g transform="translate(18.1258913,1034.1138670015998) translate(-18.1258913,-1034.1138670015998)"><path fill="black" stroke="none" paint-order="stroke fill markers" d=" M 29.644303883333333 1028.3546607099331 L 18.1258913 1034.1138670015998 L 29.644303883333333 1039.8730732932665 Z"/></g></g><g><g/><path fill="none" stroke="black" paint-order="fill stroke markers" d=" M 740.0828862166667 296.345718944 L 1457.0694269466042 296.345718944 L 1457.0694269466042 533.7540243816 L 740.0828862166667 533.7540243816 L 740.0828862166667 296.345718944 Z" stroke-miterlimit="10" stroke-width="1.9745850142857144" stroke-dasharray=""/><path fill="white" stroke="black" paint-order="fill stroke markers" d=" M 740.0828862166667 296.345718944 L 740.0828862166667 312.932233064 L 786.7202404791667 312.932233064 L 795.0134975391667 304.63897600399997 L 795.0134975391667 296.345718944 L 740.0828862166667 296.345718944" stroke-miterlimit="10" stroke-width="1.9745850142857144" stroke-dasharray=""/><text fill="black" stroke="none" font-family="sans-serif" font-size="6.4pt" font-style="normal" font-weight="bold" text-decoration="normal" x="753.9049813166666" y="307.403395024" text-anchor="start" dominant-baseline="alphabetic" xml:space="preserve">loop</text><text fill="black" stroke="none" font-family="sans-serif" font-size="6.4pt" font-style="normal" font-weight="bold" text-decoration="normal" x="808.8355926391666" y="307.403395024" text-anchor="start" dominant-baseline="alphabetic" xml:space="preserve">[foreveryrowreturnedforreservations]</text></g></g><g/><g/><g/><g/><g/><g/><g/><g/></g></svg>