<svg version="1.1" xmlns="http://www.w3.org/2000/svg" xmlns:xlink="http://www.w3.org/1999/xlink" width="2331" height="1869"><desc>actor%20Staff%0Aboundary%20MovieDialog%0Aboundary%20StaffUI%0A%0Acontrol%20ManagementSystem%0Aparticipant%20Cinema%0Aparticipant%20MovieMapper%0A%0A%0A%0Adatabase%20Database%0Aentity%20Movie%0A%0AStaff-%3EStaffUI%3AaddMovie()%0Aactivate%20StaffUI%0A%0AStaffUI-%3E*MovieDialog%3AMovieDialog()%0Aactivate%20MovieDialog%0AMovieDialog--%3EStaffUI%3A%0Adeactivate%20MovieDialog%0A%0AStaffUI-%3EMovieDialog%3AshowAndWait()%0Aactivate%20MovieDialog%0AMovieDialog-%3EStaff%3A%0Aactivate%20Staff%0AStaff--%3EMovieDialog%3A%0Adeactivate%20Staff%0AMovieDialog-%3EStaffUI%3Areturn%20m%20%3A%20MovieInfo%0Adeactivate%20MovieDialog%0A%0AStaffUI-%3EManagementSystem%3AaddMovie(title%20%3A%20String%2C%20runningTime%20%3A%20int%2C%20year%20%3A%20int)%0Aactivate%20ManagementSystem%0A%0A%0Aexpandable-%20see%20diagram%2002%20-%20Add%20Movie%20ECE%20(double%20added%20movie)%0AManagementSystem-%3EManagementSystem%3AcheckDoubleAdded(title%20%3A%20String%2C%20runningTime%20%3A%20Integer%2C%20year%20%3A%20Integer)%0Aend%20%0A%0AManagementSystem-%3ECinema%3AaddMovie(title%20%3A%20String%2C%20runningTime%20%3A%20int%2C%20year%20%3A%20int)%0Aactivate%20Cinema%0A%0A%0A%0ACinema-%3EMovieMapper%3AaddMovie(title%20%3A%20String%2C%20runningTime%20%3A%20int%2C%20year%20%3A%20int)%0Aactivate%20MovieMapper%0AMovieMapper-%3EDatabase%3Aoid%20%3A%3D%20getId()%0AMovieMapper-%3EMovieMapper%3AperformUpdate(sql%20%3A%20String)%0Aactivate%20MovieMapper%0A%0A%0AMovieMapper-%3EDatabase%3AexecuteUpdate(sql%20%3A%20String)%0AMovieMapper--%3EMovieMapper%3A%0Adeactivate%20MovieMapper%0A%0A%0AMovieMapper-%3E*Movie%3APersistentMovie(title%20%3A%20String%2C%20runningTime%20%3A%20int%2C%20year%20%3A%20int)%0Aactivate%20Movie%0AMovie--%3EMovieMapper%3A%0Adeactivate%20Movie%0A%0AMovieMapper-%3EMovieMapper%3AaddToCache(Movie%20%3A%20PersistentMovie)%0A%0AMovieMapper--%3ECinema%3A%0Adeactivate%20MovieMapper%0ACinema--%3EManagementSystem%3A%0Adeactivate%20Cinema%0A%0AManagementSystem-%3EManagementSystem%3AnotifyObservers()%0Aactivate%20ManagementSystem%0A%0AManagementSystem-%3EStaffUI%3Aupdate()%0Aactivate%20StaffUI%0A%0AStaffUI-%3EManagementSystem%3AgetMovies()%0Aactivate%20ManagementSystem%0AManagementSystem--%3EStaffUI%3Areturn%20movies%0Adeactivate%20ManagementSystem%0A%0AStaffUI--%3EManagementSystem%3A%0Adeactivate%20StaffUI%0A%0AManagementSystem--%3EManagementSystem%3A%0A%0Adeactivate%20ManagementSystem%0AManagementSystem--%3EStaffUI%3A%0Adeactivate%20ManagementSystem%0AStaffUI--%3EStaff%3A%0Adeactivate%20StaffUI%0A</desc><defs/><g><g/><g/><g/><g/><g/><g/><g/><g/><g/><g/><g/><g/><g/><g/><g/><g/><g/><g/><g/><g/><g/><g/><g/><g/><g/><g/><g/><g/><g/><g/><g><rect fill="white" stroke="none" x="0" y="0" width="2331" height="1869"/></g><g/><g><path fill="none" stroke="black" paint-order="fill stroke markers" d=" M 24.636958411914062 95.699160256 L 24.636958411914062 1869.2297742943995" stroke-miterlimit="10" stroke-width="1.4659797833333332" stroke-dasharray="13.532121076923076,5.863919133333333"/><path fill="none" stroke="black" paint-order="fill stroke markers" d=" M 105.78820551663412 258.246998632 L 105.78820551663412 1869.2297742943995" stroke-miterlimit="10" stroke-width="1.4659797833333332" stroke-dasharray="13.532121076923076,5.863919133333333"/><path fill="none" stroke="black" paint-order="fill stroke markers" d=" M 314.67928595400394 95.699160256 L 314.67928595400394 1869.2297742943995" stroke-miterlimit="10" stroke-width="1.4659797833333332" stroke-dasharray="13.532121076923076,5.863919133333333"/><path fill="none" stroke="black" paint-order="fill stroke markers" d=" M 744.7641637925456 95.699160256 L 744.7641637925456 1869.2297742943995" stroke-miterlimit="10" stroke-width="1.4659797833333332" stroke-dasharray="13.532121076923076,5.863919133333333"/><path fill="none" stroke="black" paint-order="fill stroke markers" d=" M 1316.626989761035 95.699160256 L 1316.626989761035 1869.2297742943995" stroke-miterlimit="10" stroke-width="1.4659797833333332" stroke-dasharray="13.532121076923076,5.863919133333333"/><path fill="none" stroke="black" paint-order="fill stroke markers" d=" M 1737.9159888995766 95.699160256 L 1737.9159888995766 1869.2297742943995" stroke-miterlimit="10" stroke-width="1.4659797833333332" stroke-dasharray="13.532121076923076,5.863919133333333"/><path fill="none" stroke="black" paint-order="fill stroke markers" d=" M 2050.4579404489255 95.699160256 L 2050.4579404489255 1869.2297742943995" stroke-miterlimit="10" stroke-width="1.4659797833333332" stroke-dasharray="13.532121076923076,5.863919133333333"/><path fill="none" stroke="black" paint-order="fill stroke markers" d=" M 2295.4989141572746 1147.9677208944 L 2295.4989141572746 1869.2297742943995" stroke-miterlimit="10" stroke-width="1.4659797833333332" stroke-dasharray="13.532121076923076,5.863919133333333"/></g><g><g><path fill="white" stroke="black" paint-order="fill stroke markers" d=" M 34.66426012991406 21.286026454 A 10.027301717999999 10.027301717999999 0 1 1 34.66425511626362 21.27599915395321 M 24.636958411914062 31.313328172000002 L 24.636958411914062 52.7752722 M 11.970893083914063 39.053701428000004 L 37.30302373991406 39.053701428000004 M 24.636958411914062 52.7752722 L 11.970893083914063 72.829875636 M 24.636958411914062 52.7752722 L 37.30302373991406 72.829875636" stroke-miterlimit="10" stroke-width="2.990598758" stroke-dasharray=""/></g><g><g/><text fill="black" stroke="none" font-family="sans-serif" font-size="11pt" font-style="normal" font-weight="normal" text-decoration="normal" x="8.7958787" y="90.421633036" text-anchor="start" dominant-baseline="alphabetic" xml:space="preserve">Staff</text></g><g><path fill="white" stroke="black" paint-order="fill stroke markers" d=" M 349.5989243930039 45.210816517999994 A 26.123759739 26.123759739 0 1 1 349.5989113311252 45.18469276261494 M 281.254946894004 17.591757399999995 L 281.254946894004 72.829875636 M 279.75964751500396 45.210816517999994 L 297.35140491500397 45.210816517999994" stroke-miterlimit="10" stroke-width="2.990598758" stroke-dasharray=""/></g><g><g/><text fill="black" stroke="none" font-family="sans-serif" font-size="11pt" font-style="normal" font-weight="normal" text-decoration="normal" x="291.21114630556644" y="90.421633036" text-anchor="start" dominant-baseline="alphabetic" xml:space="preserve">StaffUI</text></g><g><path fill="white" stroke="black" paint-order="fill stroke markers" d=" M 770.8879235315455 45.210816517999994 A 26.123759739 26.123759739 0 1 1 770.8879104696667 45.18469276261494 M 741.2458123125456 19.087056778999994 L 751.8008667525456 10.291178078999994 M 741.2458123125456 19.087056778999994 L 751.8008667525456 27.882935478999993" stroke-miterlimit="10" stroke-width="2.990598758" stroke-dasharray=""/></g><g><g/><text fill="black" stroke="none" font-family="sans-serif" font-size="11pt" font-style="normal" font-weight="normal" text-decoration="normal" x="672.8421896104167" y="90.421633036" text-anchor="start" dominant-baseline="alphabetic" xml:space="preserve">ManagementSystem</text></g><path fill="none" stroke="none"/><g><path fill="white" stroke="black" paint-order="fill stroke markers" d=" M 1271.0903937974647 48.201415276000006 L 1362.1635857246054 48.201415276000006 L 1362.1635857246054 95.699160256 L 1271.0903937974647 95.699160256 L 1271.0903937974647 48.201415276000006 Z" stroke-miterlimit="10" stroke-width="2.814681184" stroke-dasharray=""/></g><g><g/><text fill="black" stroke="none" font-family="sans-serif" font-size="11pt" font-style="normal" font-weight="normal" text-decoration="normal" x="1290.1774505764647" y="78.107402856" text-anchor="start" dominant-baseline="alphabetic" xml:space="preserve">Cinema</text></g><path fill="none" stroke="none"/><g><path fill="white" stroke="black" paint-order="fill stroke markers" d=" M 1669.5161116860063 48.201415276000006 L 1806.315866113147 48.201415276000006 L 1806.315866113147 95.699160256 L 1669.5161116860063 95.699160256 L 1669.5161116860063 48.201415276000006 Z" stroke-miterlimit="10" stroke-width="2.814681184" stroke-dasharray=""/></g><g><g/><text fill="black" stroke="none" font-family="sans-serif" font-size="11pt" font-style="normal" font-weight="normal" text-decoration="normal" x="1688.6031684650063" y="78.107402856" text-anchor="start" dominant-baseline="alphabetic" xml:space="preserve">MovieMapper</text></g><g><path fill="white" stroke="black" paint-order="fill stroke markers" d=" M 2024.7739746449254 61.219315752 L 2024.7739746449254 24.276625212000003 L 2076.1419062529253 24.276625212000003 L 2076.1419062529253 61.219315752" stroke-miterlimit="10" stroke-width="2.990598758" stroke-dasharray=""/><path fill="white" stroke="black" paint-order="fill stroke markers" d=" M 2076.1419062529253 22.992426921800003 L 2076.140622065337 23.108530585556366 L 2076.136769630989 23.224622639043105 L 2076.1303493351215 23.34069147315161 L 2076.1213618197594 23.45672548109521 L 2076.109807983646 23.572713059569786 L 2076.0956889821555 23.688642609914158 L 2076.0790062271767 23.804502539269897 L 2076.059761386971 23.920281261740616 L 2076.037956386006 24.03596719955055 L 2076.013593404764 24.151548784202323 L 2075.9866748795225 24.26701445763379 L 2075.957203502112 24.382352673373823 L 2075.9251822196456 24.497551897696965 L 2075.890614234225 24.612600610776788 L 2075.853503002619 24.72748730783785 L 2075.813852235921 24.84220050030619 L 2075.771665899174 24.956728716958153 L 2075.726948210977 25.07106050506751 L 2075.6797036430607 25.18518443155073 L 2075.629936919843 25.299089084110268 L 2075.5776530179555 25.412763072375785 L 2075.5228571657435 25.526195029043187 L 2075.4655548427477 25.63937361101133 L 2075.4057517791516 25.75228750051633 L 2075.3434539552127 25.86492540626334 L 2075.278667600661 25.97727606455564 L 2075.2113991940773 26.089328240421032 L 2075.1416554622474 26.201070728735306 L 2075.069443379486 26.312492355342748 L 2074.9947701669407 26.423581978173544 L 2074.917643291871 26.53432848835799 L 2074.8380704669007 26.644720811337358 L 2074.7560596492444 26.754747907971336 L 2074.671619039917 26.864398775641956 L 2074.5847570829083 26.973662449353824 L 2074.495482464342 27.08252800283062 L 2074.403804111605 27.190984549607727 L 2074.3097311924566 27.29902124412083 L 2074.2132731141105 27.406627282790524 L 2074.1144395222937 27.513791905102604 L 2074.0132403002835 27.620504394684144 L 2073.909685567917 27.726754080375116 L 2073.803785680582 27.83253033729549 L 2073.6955512281793 27.93782258790772 L 2073.5849930340623 28.04262030307449 L 2073.47212215396 28.14691300311161 L 2073.356949874865 28.25069025883599 L 2073.2394877139104 28.353941692608544 L 2073.119747417213 28.456656979371925 L 2072.9977409587045 28.55882584768306 L 2072.8734805389277 28.660438080740256 L 2072.7469785838216 28.761483517404887 L 2072.618247743476 28.861952053217486 L 2072.487300890868 28.961833641408198 L 2072.354151120573 29.061118293901444 L 2072.2188117474584 29.1597960823147 L 2072.081296305347 29.257857138951366 L 2071.9416185456703 29.355291657787486 L 2071.7997924360866 29.452089895452378 L 2071.6558321590887 29.54824217220294 L 2071.509752110585 29.643738872891625 L 2071.3615668984585 29.73857044792794 L 2071.211291341106 29.83272741423341 L 2071.058940465959 29.92620035618987 L 2070.9045295079777 30.018979926581018 L 2070.7480739081293 30.111056847527124 L 2070.5895893118436 30.20242191141283 L 2070.429091567448 30.293065981807885 L 2070.2665967245825 30.382979994380786 L 2070.1021210325966 30.472154957805202 L 2069.935680938923 30.560581954659103 L 2069.7672930874314 30.648252142316494 L 2069.596974316767 30.735156753831664 L 2069.4247416586654 30.821287098815887 L 2069.250612336248 30.906634564306433 L 2069.0746037623026 30.991190615627882 L 2068.8967335375396 31.074946797245563 L 2068.7170194488335 31.15789473361111 L 2068.535479467443 31.24002613000001 L 2068.3521317472155 31.321332773341062 L 2068.16699462277 31.4018065330377 L 2067.980086607664 31.481439361781 L 2067.7914263925445 31.560223296354458 L 2067.601032843275 31.638150458430268 L 2067.4089249990516 31.715213055357157 L 2067.215122070499 31.791403380939656 L 2067.019643437749 31.8667138162087 L 2066.8225086485013 31.941136830183517 L 2066.6237374160705 32.01466498062472 L 2066.4233496174147 32.08729091477856 L 2066.2213652911464 32.15900737011212 L 2066.01780463553 32.22980717503965 L 2065.8126880064615 32.29968324963964 L 2065.606035915433 32.368628606362876 L 2065.3978690274807 32.43663635073112 L 2065.188208159121 32.50369968202662 L 2064.9770742762653 32.569811893972144 L 2064.764488492126 32.63496637540157 L 2064.5504720651043 32.69915661092105 L 2064.335046396665 32.76237618156054 L 2064.1182330291954 32.82461876541566 L 2063.9000536438507 32.88587813827987 L 2063.6805300583887 32.94614817426695 L 2063.4596842249844 33.005422846423535 L 2063.237538228037 33.06369622733178 L 2063.0141142819616 33.12096248970218 L 2062.789434728966 33.1772159069562 L 2062.563522036819 33.232450853798994 L 2062.336398796601 33.28666180678192 L 2062.108087720447 33.339843344854856 L 2061.8786116392744 33.391990149908295 L 2061.6479935004995 33.4430970073052 L 2061.4162563657446 33.49315880640242 L 2061.1834234085304 33.54217054106175 L 2060.9495179119576 33.590127310150585 L 2060.7145632663814 33.637024318031976 L 2060.478582967071 33.68285687504421 L 2060.241600611859 33.72762039796977 L 2060.003639898784 33.77131041049369 L 2059.7647246237184 33.81392254365112 L 2059.524878677991 33.85545253626423 L 2059.284126045997 33.8958962353684 L 2059.042490802798 33.9352495966274 L 2058.7999971117174 33.9735086847379 L 2058.556669221922 34.01066967382299 L 2058.3125314659983 34.046728847814705 L 2058.0676082575187 34.081682600825715 L 2057.821924088599 34.11552743750983 L 2057.575503527453 34.1482599734116 L 2057.3283712159296 34.179876935304705 L 2057.080551867055 34.210375161519295 L 2056.8320702625574 34.23975160225818 L 2056.58295125039 34.26800331990176 L 2056.333219742247 34.295127489301805 L 2056.0829007110706 34.321121398063994 L 2055.832019188555 34.34598244681909 L 2055.5806002626446 34.36970814948297 L 2055.328669075021 34.3922961335051 L 2055.076250818594 34.413744140105926 L 2054.8233707349787 34.43405002450265 L 2054.5700541119727 34.453211756123764 L 2054.316326281027 34.47122741881206 L 2054.0622126147136 34.4880952110163 L 2053.807738524187 34.5038134459713 L 2053.552929456644 34.518380551866684 L 2053.29781089278 34.53179507200398 L 2053.0424083442376 34.54405566494237 L 2052.78674735106 34.555161104632774 L 2052.5308534791325 34.565110280540466 L 2052.2747523176295 34.573902197756155 L 2052.0184694764534 34.58153597709545 L 2051.7620305836754 34.58801085518677 L 2051.5054612829704 34.59332618454771 L 2051.248787231055 34.59748143364976 L 2050.9920340951203 34.60047618697147 L 2050.735227550266 34.60231014504 L 2050.478393276933 34.60298312446108 L 2050.2215569583336 34.60249505793733 L 2049.964744277887 34.600845994274984 L 2049.707980916646 34.59803609837904 L 2049.4512925507333 34.594065651236754 L 2049.194704848772 34.58893504988952 L 2048.9382434693175 34.5826448073932 L 2048.6819340582947 34.57519555276681 L 2048.425802246431 34.566588030929594 L 2048.169873646694 34.556823102626566 L 2047.914173851731 34.545901744342416 L 2047.6587284313075 34.53382504820388 L 2047.4035629297532 34.52059422187051 L 2047.1487028634056 34.5062105884139 L 2046.8941737180587 34.49067558618542 L 2046.640000946415 34.47399076867234 L 2046.38620996554 34.45615780434251 L 2046.1328261543204 34.4371784764775 L 2045.879874850926 34.41705468299429 L 2045.6273813502762 34.395788436255444 L 2045.375370901511 34.37338186286793 L 2045.123868705465 34.34983720347041 L 2044.8728999121483 34.32515681250919 L 2044.622489618231 34.29934315800281 L 2044.372662864534 34.27239882129521 L 2044.1234446335243 34.24432649679761 L 2043.8748598468176 34.21512899171906 L 2043.6269333626851 34.18480922578574 L 2043.3796899735687 34.15337023094897 L 2043.1331544036013 34.12081515108205 L 2042.8873513061346 34.08714724166582 L 2042.6423052612733 34.05236986946318 L 2042.3980407734177 34.016486512182354 L 2042.1545822688133 33.97950075812918 L 2041.9119540931072 33.94141630584823 L 2041.670180508915 33.90223696375301 L 2041.4292856933941 33.86196664974507 L 2041.1892937358245 33.820609390822256 L 2040.9502286352026 33.77816932267599 L 2040.712114297839 33.734650689277736 L 2040.4749745349689 33.69005784245455 L 2040.2388330603712 33.644395241453964 L 2040.0037134879965 33.59766745249802 L 2039.7696393296058 33.54987914832668 L 2039.5366339924203 33.50103510773054 L 2039.3047207767795 33.45114021507295 L 2039.0739228738114 33.40019945980159 L 2038.8442633631144 33.34821793594955 L 2038.6157652104478 33.29520084162589 L 2038.3884512654365 33.24115347849587 L 2038.1623442592859 33.18608125125075 L 2037.9374668025077 33.12998966706737 L 2037.7138413826606 33.07288433505741 L 2037.4914903621002 33.01477096570647 L 2037.2704359757429 32.95565537030307 L 2037.0507003288435 32.89554346035748 L 2036.8323053947834 32.8344412470106 L 2036.6152730128742 32.772354840432854 L 2036.399624886173 32.709290449213164 L 2036.1853825793128 32.645254379738084 L 2035.9725675163459 32.580253035561206 L 2035.761200978601 32.514292916762784 L 2035.551304102556 32.44738061929973 L 2035.3428978777233 32.37952283434602 L 2035.1360031445522 32.310726347623614 L 2034.930640592343 32.24099803872385 L 2034.7268307571803 32.17034488041951 L 2034.5245940198774 32.09877393796755 L 2034.32395060394 32.026292368402565 L 2034.1249205735419 31.952907419821116 L 2033.9275238315204 31.87862643065691 L 2033.7317801173856 31.803456828946963 L 2033.5377090053453 31.727406131588797 L 2033.3453299023495 31.65048194358878 L 2033.1546620461477 31.572691957301604 L 2032.9657245033668 31.494043951661077 L 2032.7785361676038 31.41454579140222 L 2032.593115757536 31.334205426274806 L 2032.40948181505 31.25303089024841 L 2032.227652703387 31.171030300708985 L 2032.047646605307 31.088211857647146 L 2031.8694815212693 31.004583842838187 L 2031.6931752676342 30.9201546190139 L 2031.5187454748798 30.834932629026305 L 2031.3462095858401 30.748926395003394 L 2031.1755848539606 30.662144517496888 L 2031.0068883415718 30.574595674622223 L 2030.8401369181847 30.486288621190724 L 2030.6753472588025 30.397232187834156 L 2030.512535842254 30.307435280121634 L 2030.3517189495449 30.216906877669096 L 2030.1929126622306 30.125656033241356 L 2030.0361328608076 30.033691871846806 L 2029.8813952231253 29.941023589824955 L 2029.7287152228184 29.84766045392678 L 2029.5781081277598 29.753611800388065 L 2029.4295889985337 29.658887033995796 L 2029.283172686929 29.563495627147667 L 2029.138873834455 29.467447118904882 L 2028.9967068708763 29.370751114038217 L 2028.8566860127714 29.27341728206758 L 2028.718825262109 29.175455356295057 L 2028.5831384048495 29.07687513283159 L 2028.4496390095653 28.977686469617378 L 2028.3183404260851 28.877899285436083 L 2028.1892557841575 28.777523558922972 L 2028.062397992139 28.67656932756704 L 2027.9377797357035 28.575046686707307 L 2027.8154134765725 28.472965788523247 L 2027.69531145127 28.37033684101962 L 2027.5774856698986 28.267170107005644 L 2027.461947914938 28.16347590306875 L 2027.3487097400675 28.059264598542924 L 2027.2377824690104 27.954546614471777 L 2027.129177194401 27.849332422566448 L 2027.0229047766768 27.743632544158448 L 2026.9189758429904 27.637457549147538 L 2026.8174007861492 27.53081805494474 L 2026.7181897635735 27.423724725410608 L 2026.6213526962836 27.316188269788846 L 2026.526899267905 27.208219441635414 L 2026.434838923702 27.099829037743145 L 2026.3451808696325 26.991027897062104 L 2026.257934071427 26.881826899615692 L 2026.1731072536925 26.77223696541266 L 2026.0907088990405 26.662269053355093 L 2026.0107472472373 26.55193416014256 L 2025.9332302943817 26.441243319172447 L 2025.8581657921045 26.330207599436594 L 2025.7855612467931 26.218838104414456 L 2025.7154239188417 26.10714597096272 L 2025.6477608219245 25.99514236820166 L 2025.582578722295 25.882838496398215 L 2025.5198841381089 25.770245585845977 L 2025.459683338772 25.657374895742176 L 2025.4019823443145 25.544237713061765 L 2025.3467869247877 25.43084535142873 L 2025.2941025996872 25.317209149984738 L 2025.2439346374017 25.203340472255242 L 2025.196288054686 25.08925070501312 L 2025.1511676161583 24.974951257140024 L 2025.108577833825 24.860453558485496 L 2025.0685229666287 24.74576905872398 L 2025.031007020023 24.630909226209884 L 2024.9960337455711 24.515885546830745 L 2024.9636066405715 24.40070952285865 L 2024.9337289477073 24.28539267180001 L 2024.9064036547234 24.169946525243844 L 2024.8816334941257 24.05438262770859 L 2024.8594209429102 23.93871253548771 L 2024.839768222313 23.82294781549403 L 2024.8226772975904 23.707100044103075 L 2024.8081498778201 23.591180805995453 L 2024.7961874157322 23.47520169299837 L 2024.7867911075627 23.359174302926476 L 2024.779961892935 23.243110238422094 L 2024.7757004547648 23.12702110579495 L 2024.774007219192 23.01091851386157 L 2024.774882355539 22.894814072784392 L 2024.7783257762928 22.77871939291077 L 2024.7843371371143 22.66264608361195 L 2024.7929158368725 22.546605752122133 L 2024.8040610177043 22.430610002377765 L 2024.817771565101 22.314670433857163 L 2024.8340461080195 22.19879864042056 L 2024.852883019019 22.08300620915074 L 2024.874280414424 21.967304719194335 L 2024.8982361545127 21.851705740603922 L 2024.924747843731 21.736220833181036 L 2024.9538128309325 21.620861545320174 L 2024.9854282096424 21.505639412853995 L 2025.019590818349 21.390565957899724 L 2025.0562972408202 21.275652687706962 L 2025.0955438064443 21.16091109350697 L 2025.1373265905972 21.046352649363552 L 2025.1816414150358 20.93198881102565 L 2025.2284838483142 20.817831014781802 L 2025.277849206228 20.703890676316497 L 2025.3297325522828 20.590179189568637 L 2025.3841286981874 20.47670792559213 L 2025.441032204372 20.36348823141882 L 2025.5004373805339 20.25053142892377 L 2025.5623382862045 20.137848813693108 L 2025.6267287313453 20.025451653894443 L 2025.6936022769653 19.913351189150102 L 2025.7629522357656 19.801558629413137 L 2025.834771672808 19.69008515384636 L 2025.909053406209 19.57894190970444 L 2025.9857900078568 19.468140011219166 L 2026.0649738041552 19.357690538488054 L 2026.146596876791 19.24760453636634 L 2026.2306510635242 19.13789301336249 L 2026.317127959007 19.028566940537385 L 2026.4060189156212 18.9196372504072 L 2026.4973150443457 18.811114835850173 L 2026.5910072156435 18.703010549017325 L 2026.6870860603756 18.595335200247256 L 2026.7855419707375 18.488099556985112 L 2026.8863651012205 18.381314342705853 L 2026.9895453695951 18.274990235841926 L 2027.0950724579209 18.169137868715406 L 2027.2029358135767 18.063767826474802 L 2027.313124650317 17.95889064603653 L 2027.4256279493497 17.854516815031236 L 2027.540434460439 17.750656770755036 L 2027.6575327030291 17.647320899125816 L 2027.7769109673936 17.544519533644625 L 2027.8985573158056 17.44226295436234 L 2028.0224595837315 17.34056138685168 L 2028.1486053810474 17.239425001184642 L 2028.2769820932795 17.13886391091551 L 2028.4075768828627 17.038888172069516 L 2028.5403766904276 16.939507782137227 L 2028.6753682361036 16.840732679074826 L 2028.8125380208487 16.742572740310298 L 2028.951872327799 16.645037781755725 L 2029.0933572236397 16.548137556825687 L 2029.2369785599992 16.45188175546192 L 2029.3827219748634 16.35628000316435 L 2029.5305728940125 16.261341860028544 L 2029.6805165324777 16.167076819789692 L 2029.8325378960199 16.073494308873272 L 2029.9866217826298 15.980603685452383 L 2030.142752784047 15.888414238511963 L 2030.3009152873012 15.79693518691988 L 2030.461093476274 15.706175678505064 L 2030.6232713332804 15.61614478914272 L 2030.7874326406695 15.526851521846762 L 2030.9535609824472 15.438304805869507 L 2031.1216397459182 15.350513495808762 L 2031.2916521233458 15.26348637072238 L 2031.463581113634 15.177232133250339 L 2031.6374095240274 15.091759408744515 L 2031.8131199718293 15.00707674440613 L 2031.990694886142 14.923192608431044 L 2032.1701165096213 14.840115389162959 L 2032.3513669002548 14.757853394254566 L 2032.5344279331546 14.676414849836805 L 2032.7192813023696 14.595807899696254 L 2032.905908522717 14.516040604460756 L 2033.0942909316304 14.437120940793358 L 2033.284409691026 14.359056800594665 L 2033.4762457891861 14.281855990213637 L 2033.669780042661 14.205526229666987 L 2033.8649930981862 14.130075151867153 L 2034.061865434619 14.055510301859046 L 2034.26037736489 13.981839136065528 L 2034.4605090379716 13.909069021541786 L 2034.6622404408631 13.837207235238628 L 2034.8655514005923 13.766260963274803 L 2035.0704215862327 13.696237300218385 L 2035.2768305109364 13.627143248377326 L 2035.4847575339832 13.558985717099231 L 2035.6941818628438 13.491771522080432 L 2035.90508255526 13.425507384684419 L 2036.117438521338 13.360199931269712 L 2036.3312285256586 13.295855692527226 L 2036.546431189399 13.23248110282722 L 2036.7630249924728 13.170082499575852 L 2036.9809882756797 13.108666122581443 L 2037.2002992428734 13.04823811343052 L 2037.4209359631395 12.988804514873634 L 2037.64287637299 12.930371270221118 L 2037.8660982785689 12.87294422274874 L 2038.0905793578718 12.816529115113394 L 2038.3162971629777 12.76113158877883 L 2038.5432291222942 12.706757183451517 L 2038.7713525428144 12.653411336526675 L 2039.0006446123864 12.601099382544545 L 2039.2310824019944 12.549826552656928 L 2039.4626428680513 12.499597974104088 L 2039.6953028547036 12.450418669702023 L 2039.9290390961467 12.402293557340188 L 2040.1638282189508 12.35522744948972 L 2040.3996467443994 12.309225052722176 L 2040.636471090837 12.264290967238905 L 2040.8742775760254 12.220429686411006 L 2041.113042419515 12.17764559633001 L 2041.35274174502 12.135942975369273 L 2041.5933515828078 12.09532599375614 L 2041.8348478720952 12.055798713154925 L 2042.0772064634543 12.017365086260746 L 2042.320403121228 11.980028956404269 L 2042.5644135259533 11.943794057167361 L 2042.809213276793 11.908664012009755 L 2043.0547778939758 11.874642333906689 L 2043.301082821245 11.841732424997623 L 2043.548103428313 11.809937576246021 L 2043.7958150133247 11.779260967110266 L 2044.0441928053283 11.749705665225706 L 2044.2932119667514 11.7212746260979 L 2044.5428475958856 11.693970692807069 L 2044.7930747293758 11.667796595723788 L 2045.043868344717 11.642754952235952 L 2045.2952033627573 11.618848266487047 L 2045.5470546502038 11.59607892912572 L 2045.7993970221378 11.57444921706674 L 2046.0522052445324 11.55396129326328 L 2046.305454036776 11.534617206490651 L 2046.5591180742003 11.51641889114141 L 2046.8131719906132 11.499368167031927 L 2047.0675903808346 11.483466739220404 L 2047.3223478032376 11.46871619783637 L 2047.577418782292 11.455118017921672 L 2047.8327778111127 11.44267355928297 L 2048.0883993540097 11.431384066355758 L 2048.3442578490412 11.421250668079919 L 2048.6003277105715 11.412274377786838 L 2048.856583331828 11.404456093098062 L 2049.1129990874615 11.397796595835548 L 2049.36954933611 11.392296551943469 L 2049.6262084229634 11.387956511421633 L 2049.882950682326 11.384776908270476 L 2050.1397504401857 11.382758060447662 L 2050.396582016782 11.38190016983629 L 2050.6534197291694 11.38220332222471 L 2050.9102378937923 11.38366748729793 L 2051.1670108290473 11.38629251864067 L 2051.4237128578557 11.390078153751977 L 2051.6803183102274 11.395024014071499 L 2051.936801525832 11.40112960501732 L 2052.193136856561 11.40839431603544 L 2052.4492986690957 11.41681742066081 L 2052.7052613474675 11.42639807658998 L 2052.960999295622 11.437135325765349 L 2053.216486939978 11.449028094470941 L 2053.471698731984 11.462075193439802 L 2053.7266091506726 11.476275317972902 L 2053.981192705215 11.491627048069626 L 2054.235423937468 11.508128848569752 L 2054.48927742452 11.525779069306987 L 2054.742727781234 11.544575945273964 L 2054.995749662785 11.564517596798748 L 2055.2483177671966 11.585602029732806 L 2055.500406837868 11.607827135650416 L 2055.7519916661026 11.631190692059505 L 2056.003047093627 11.655690362623902 L 2056.253548015108 11.68132369739697 L 2056.5034693806624 11.708088133066587 L 2056.7527861983613 11.735980993211495 L 2057.001473536731 11.764999488568922 L 2057.249506527244 11.795140717313513 L 2057.49686036681 11.826401665347511 L 2057.7435103202492 11.858779206602165 L 2057.989431722773 11.89227010335033 L 2058.2345999824456 11.92687100653024 L 2058.478990582645 11.962578456080411 L 2058.7225790845155 11.999388881285645 L 2058.9653411294094 12.037298601134095 L 2059.207252441325 12.076303824685368 L 2059.4482888293323 12.116400651449613 L 2059.6884261899936 12.15758507177757 L 2059.9276405097726 12.199852967261522 L 2060.1659078674375 12.243200111147148 L 2060.40320443645 12.28762216875618 L 2060.6395064873514 12.333114697919875 L 2060.8747903901335 12.379673149423226 L 2061.1090326166022 12.427292867459885 L 2061.34220974273 12.47596909009773 L 2061.574298450999 12.525696949755057 L 2061.8052755327312 12.576471473687343 L 2062.035117890411 12.628287584484506 L 2062.2638025399942 12.681140100578647 L 2062.4913066132067 12.735023736762198 L 2062.7176073598303 12.789933104716448 L 2062.9426821499796 12.845862713550355 L 2063.166508476362 12.902806970349646 L 2063.389063956533 12.960760180736091 L 2063.6103263351283 13.01971654943695 L 2063.830273486096 13.07967018086448 L 2064.048883414903 13.140615079705501 L 2064.2661342607394 13.202545151520916 L 2064.482004298701 13.265454203355151 L 2064.696471941965 13.329335944355446 L 2064.9095157439447 13.394183986400938 L 2065.121114400438 13.459991844741461 L 2065.331246751755 13.52675293864602 L 2065.5398917848365 13.594460592060857 L 2065.7470286353523 13.663108034277055 L 2065.9526365897905 13.732688400607602 L 2066.156695087527 13.803194733073843 L 2066.359183722882 13.87461998110129 L 2066.56008224716 13.946957002224657 L 2066.759370570677 14.020198562802118 L 2066.957028764766 14.094337338738645 L 2067.1530370637734 14.16936591621843 L 2067.347375867031 14.245276792446244 L 2067.540025740822 14.322062376397728 L 2067.730967420318 14.399714989578472 L 2067.9201818115116 14.478226866791868 L 2068.1076499931205 14.557590156915623 L 2068.293353218483 14.637796923686858 L 2068.4772729174315 14.718839146495737 L 2068.6593906981493 14.800708721187512 L 2068.83968834901 14.88339746087294 L 2069.0181478403983 14.966897096746958 L 2069.1947513265145 15.051199278915561 L 2069.3694811471573 15.136295577230786 L 2069.5423198294893 15.222177482133715 L 2069.713250089787 15.30883640550542 L 2069.882254835167 15.396263681525788 L 2070.0493171652947 15.484450567540065 L 2070.2144203740772 15.573388244933145 L 2070.3775479513306 15.663067820011399 L 2070.538683584434 15.753480324892053 L 2070.697811159957 15.844616718399962 L 2070.8549147652757 15.936467886971723 L 2071.00997869016 16.02902464556702 L 2071.162987428347 16.122277738587123 L 2071.3139256790905 16.216217840800443 L 2071.4627783486903 16.31083555827504 L 2071.6095305520043 16.40612142931802 L 2071.7541676139344 16.502065925421675 L 2071.896675070895 16.59865945221635 L 2072.037038672259 16.695892350429865 L 2072.1752443817827 16.793754896853418 L 2072.3112783790107 16.892237305313927 L 2072.4451270606573 16.991329727652605 L 2072.576777041965 17.091022254709806 L 2072.706215158046 17.191304917315893 L 2072.833428465196 17.292167687288174 L 2072.95840424219 17.393600478433708 L 2073.081129991556 17.495593147557905 L 2073.20159344082 17.59813549547885 L 2073.319782543738 17.701217268047195 L 2073.4356854814973 17.80482815717159 L 2073.549290663902 17.90895780184946 L 2073.6605867305275 18.01359578920312 L 2073.7695625518604 18.118731655521024 L 2073.87620723041 18.22435488730416 L 2073.9805101017955 18.330454922317365 L 2074.0824607358186 18.437021150645553 L 2074.1820489374995 18.544042915754694 L 2074.279264748102 18.65150951555747 L 2074.3740984461256 18.75941020348345 L 2074.466540548279 18.86773418955376 L 2074.5565818104305 18.97647064146006 L 2074.6442132285274 19.085608685647777 L 2074.7294260395015 19.19513740840344 L 2074.812211722143 19.305045856946045 L 2074.892561997952 19.415323040522324 L 2074.970468831968 19.525957931505822 L 2075.0459244335734 19.636939466499637 L 2075.11892125727 19.74825654744275 L 2075.189452003436 19.859898042719834 L 2075.2575096190567 19.97185278827439 L 2075.3230872984263 20.084109588725166 L 2075.386178483832 20.196657218485658 L 2075.4467768662075 20.309484422886683 L 2075.504876385766 20.422579919301818 L 2075.560471232602 20.535932398275673 L 2075.613555847279 20.649530524654807 L 2075.664124921379 20.76336293872125 L 2075.712173398037 20.877418257328454 L 2075.757696472445 20.991685075039605 L 2075.8006895923336 21.10615196526815 L 2075.841148458427 21.220807481420458 L 2075.879069024872 21.33564015804046 L 2075.9144474996438 21.450638511956186 L 2075.947280344924 21.565791043428078 L 2075.9775642774553 21.68108623729895 L 2076.0052962688706 21.796512564145488 L 2076.030473545993 21.9120584814312 L 2076.053093591116 22.027712434660646 L 2076.073154142254 22.14346285853488 L 2076.090653193369 22.259298178107972 L 2076.1055889945696 22.375206809944494 L 2076.117960052289 22.491177163277854 L 2076.1277651294313 22.60719764116936 L 2076.1350032454966 22.723256641667906 L 2076.13967367668 22.839342558970156 L 2076.141775955942 22.95544378458112 M 2076.1419062529253 59.9351174618 L 2076.140622065337 60.05122112555636 L 2076.136769630989 60.1673131790431 L 2076.1303493351215 60.28338201315161 L 2076.1213618197594 60.3994160210952 L 2076.109807983646 60.51540359956978 L 2076.0956889821555 60.631333149914155 L 2076.0790062271767 60.74719307926989 L 2076.059761386971 60.86297180174061 L 2076.037956386006 60.97865773955054 L 2076.013593404764 61.09423932420232 L 2075.9866748795225 61.209704997633786 L 2075.957203502112 61.32504321337382 L 2075.9251822196456 61.44024243769696 L 2075.890614234225 61.55529115077678 L 2075.853503002619 61.67017784783785 L 2075.813852235921 61.784891040306185 L 2075.771665899174 61.89941925695815 L 2075.726948210977 62.01375104506751 L 2075.6797036430607 62.127874971550725 L 2075.629936919843 62.241779624110265 L 2075.5776530179555 62.35545361237578 L 2075.5228571657435 62.46888556904318 L 2075.4655548427477 62.58206415101132 L 2075.4057517791516 62.694978040516325 L 2075.3434539552127 62.80761594626333 L 2075.278667600661 62.91996660455563 L 2075.2113991940773 63.032018780421026 L 2075.1416554622474 63.1437612687353 L 2075.069443379486 63.25518289534274 L 2074.9947701669407 63.36627251817354 L 2074.917643291871 63.47701902835799 L 2074.8380704669007 63.58741135133735 L 2074.7560596492444 63.69743844797133 L 2074.671619039917 63.80708931564195 L 2074.5847570829083 63.91635298935382 L 2074.495482464342 64.02521854283061 L 2074.403804111605 64.13367508960772 L 2074.3097311924566 64.24171178412082 L 2074.2132731141105 64.34931782279051 L 2074.1144395222937 64.4564824451026 L 2074.0132403002835 64.56319493468413 L 2073.909685567917 64.66944462037512 L 2073.803785680582 64.77522087729548 L 2073.6955512281793 64.88051312790772 L 2073.5849930340623 64.98531084307449 L 2073.47212215396 65.08960354311161 L 2073.356949874865 65.19338079883599 L 2073.2394877139104 65.29663223260853 L 2073.119747417213 65.39934751937191 L 2072.9977409587045 65.50151638768305 L 2072.8734805389277 65.60312862074025 L 2072.7469785838216 65.70417405740488 L 2072.618247743476 65.80464259321748 L 2072.487300890868 65.90452418140819 L 2072.354151120573 66.00380883390143 L 2072.2188117474584 66.1024866223147 L 2072.081296305347 66.20054767895135 L 2071.9416185456703 66.29798219778748 L 2071.7997924360866 66.39478043545238 L 2071.6558321590887 66.49093271220293 L 2071.509752110585 66.58642941289162 L 2071.3615668984585 66.68126098792794 L 2071.211291341106 66.7754179542334 L 2071.058940465959 66.86889089618987 L 2070.9045295079777 66.96167046658101 L 2070.7480739081293 67.05374738752711 L 2070.5895893118436 67.14511245141283 L 2070.429091567448 67.23575652180789 L 2070.2665967245825 67.32567053438078 L 2070.1021210325966 67.4148454978052 L 2069.935680938923 67.5032724946591 L 2069.7672930874314 67.59094268231648 L 2069.596974316767 67.67784729383166 L 2069.4247416586654 67.76397763881587 L 2069.250612336248 67.84932510430643 L 2069.0746037623026 67.93388115562787 L 2068.8967335375396 68.01763733724556 L 2068.7170194488335 68.1005852736111 L 2068.535479467443 68.18271667 L 2068.3521317472155 68.26402331334106 L 2068.16699462277 68.34449707303769 L 2067.980086607664 68.42412990178099 L 2067.7914263925445 68.50291383635445 L 2067.601032843275 68.58084099843026 L 2067.4089249990516 68.65790359535715 L 2067.215122070499 68.73409392093966 L 2067.019643437749 68.80940435620869 L 2066.8225086485013 68.88382737018351 L 2066.6237374160705 68.95735552062472 L 2066.4233496174147 69.02998145477855 L 2066.2213652911464 69.10169791011212 L 2066.01780463553 69.17249771503964 L 2065.8126880064615 69.24237378963963 L 2065.606035915433 69.31131914636286 L 2065.3978690274807 69.37932689073111 L 2065.188208159121 69.44639022202662 L 2064.9770742762653 69.51250243397213 L 2064.764488492126 69.57765691540156 L 2064.5504720651043 69.64184715092105 L 2064.335046396665 69.70506672156054 L 2064.1182330291954 69.76730930541565 L 2063.9000536438507 69.82856867827986 L 2063.6805300583887 69.88883871426695 L 2063.4596842249844 69.94811338642353 L 2063.237538228037 70.00638676733178 L 2063.0141142819616 70.06365302970217 L 2062.789434728966 70.1199064469562 L 2062.563522036819 70.175141393799 L 2062.336398796601 70.22935234678192 L 2062.108087720447 70.28253388485484 L 2061.8786116392744 70.33468068990828 L 2061.6479935004995 70.3857875473052 L 2061.4162563657446 70.4358493464024 L 2061.1834234085304 70.48486108106175 L 2060.9495179119576 70.53281785015058 L 2060.7145632663814 70.57971485803196 L 2060.478582967071 70.6255474150442 L 2060.241600611859 70.67031093796977 L 2060.003639898784 70.71400095049368 L 2059.7647246237184 70.7566130836511 L 2059.524878677991 70.79814307626422 L 2059.284126045997 70.83858677536838 L 2059.042490802798 70.87794013662739 L 2058.7999971117174 70.9161992247379 L 2058.556669221922 70.95336021382298 L 2058.3125314659983 70.9894193878147 L 2058.0676082575187 71.0243731408257 L 2057.821924088599 71.05821797750983 L 2057.575503527453 71.0909505134116 L 2057.3283712159296 71.12256747530469 L 2057.080551867055 71.1530657015193 L 2056.8320702625574 71.18244214225817 L 2056.58295125039 71.21069385990175 L 2056.333219742247 71.2378180293018 L 2056.0829007110706 71.26381193806398 L 2055.832019188555 71.2886729868191 L 2055.5806002626446 71.31239868948296 L 2055.328669075021 71.3349866735051 L 2055.076250818594 71.35643468010592 L 2054.8233707349787 71.37674056450265 L 2054.5700541119727 71.39590229612375 L 2054.316326281027 71.41391795881206 L 2054.0622126147136 71.43078575101629 L 2053.807738524187 71.4465039859713 L 2053.552929456644 71.46107109186667 L 2053.29781089278 71.47448561200397 L 2053.0424083442376 71.48674620494236 L 2052.78674735106 71.49785164463276 L 2052.5308534791325 71.50780082054045 L 2052.2747523176295 71.51659273775616 L 2052.0184694764534 71.52422651709544 L 2051.7620305836754 71.53070139518677 L 2051.5054612829704 71.53601672454771 L 2051.248787231055 71.54017197364975 L 2050.9920340951203 71.54316672697146 L 2050.735227550266 71.54500068504 L 2050.478393276933 71.54567366446108 L 2050.2215569583336 71.54518559793732 L 2049.964744277887 71.54353653427498 L 2049.707980916646 71.54072663837904 L 2049.4512925507333 71.53675619123675 L 2049.194704848772 71.53162558988952 L 2048.9382434693175 71.5253353473932 L 2048.6819340582947 71.5178860927668 L 2048.425802246431 71.50927857092958 L 2048.169873646694 71.49951364262655 L 2047.914173851731 71.48859228434242 L 2047.6587284313075 71.47651558820388 L 2047.4035629297532 71.4632847618705 L 2047.1487028634056 71.4489011284139 L 2046.8941737180587 71.4333661261854 L 2046.640000946415 71.41668130867232 L 2046.38620996554 71.3988483443425 L 2046.1328261543204 71.3798690164775 L 2045.879874850926 71.35974522299428 L 2045.6273813502762 71.33847897625544 L 2045.375370901511 71.31607240286793 L 2045.123868705465 71.2925277434704 L 2044.8728999121483 71.26784735250918 L 2044.622489618231 71.24203369800281 L 2044.372662864534 71.21508936129521 L 2044.1234446335243 71.18701703679761 L 2043.8748598468176 71.15781953171906 L 2043.6269333626851 71.12749976578573 L 2043.3796899735687 71.09606077094897 L 2043.1331544036013 71.06350569108204 L 2042.8873513061346 71.02983778166582 L 2042.6423052612733 70.99506040946316 L 2042.3980407734177 70.95917705218234 L 2042.1545822688133 70.92219129812916 L 2041.9119540931072 70.88410684584822 L 2041.670180508915 70.844927503753 L 2041.4292856933941 70.80465718974506 L 2041.1892937358245 70.76329993082226 L 2040.9502286352026 70.720859862676 L 2040.712114297839 70.67734122927773 L 2040.4749745349689 70.63274838245455 L 2040.2388330603712 70.58708578145396 L 2040.0037134879965 70.54035799249802 L 2039.7696393296058 70.49256968832668 L 2039.5366339924203 70.44372564773053 L 2039.3047207767795 70.39383075507294 L 2039.0739228738114 70.34288999980159 L 2038.8442633631144 70.29090847594955 L 2038.6157652104478 70.23789138162589 L 2038.3884512654365 70.18384401849586 L 2038.1623442592859 70.12877179125074 L 2037.9374668025077 70.07268020706736 L 2037.7138413826606 70.0155748750574 L 2037.4914903621002 69.95746150570646 L 2037.2704359757429 69.89834591030306 L 2037.0507003288435 69.83823400035747 L 2036.8323053947834 69.7771317870106 L 2036.6152730128742 69.71504538043285 L 2036.399624886173 69.65198098921316 L 2036.1853825793128 69.58794491973808 L 2035.9725675163459 69.5229435755612 L 2035.761200978601 69.45698345676277 L 2035.551304102556 69.39007115929972 L 2035.3428978777233 69.32221337434602 L 2035.1360031445522 69.25341688762362 L 2034.930640592343 69.18368857872385 L 2034.7268307571803 69.11303542041951 L 2034.5245940198774 69.04146447796754 L 2034.32395060394 68.96898290840255 L 2034.1249205735419 68.89559795982112 L 2033.9275238315204 68.82131697065691 L 2033.7317801173856 68.74614736894696 L 2033.5377090053453 68.6700966715888 L 2033.3453299023495 68.59317248358877 L 2033.1546620461477 68.5153824973016 L 2032.9657245033668 68.43673449166107 L 2032.7785361676038 68.3572363314022 L 2032.593115757536 68.27689596627481 L 2032.40948181505 68.19572143024841 L 2032.227652703387 68.11372084070898 L 2032.047646605307 68.03090239764714 L 2031.8694815212693 67.94727438283817 L 2031.6931752676342 67.86284515901389 L 2031.5187454748798 67.7776231690263 L 2031.3462095858401 67.69161693500338 L 2031.1755848539606 67.60483505749689 L 2031.0068883415718 67.51728621462222 L 2030.8401369181847 67.42897916119072 L 2030.6753472588025 67.33992272783415 L 2030.512535842254 67.25012582012162 L 2030.3517189495449 67.15959741766909 L 2030.1929126622306 67.06834657324134 L 2030.0361328608076 66.9763824118468 L 2029.8813952231253 66.88371412982495 L 2029.7287152228184 66.79035099392678 L 2029.5781081277598 66.69630234038806 L 2029.4295889985337 66.60157757399578 L 2029.283172686929 66.50618616714766 L 2029.138873834455 66.41013765890487 L 2028.9967068708763 66.31344165403821 L 2028.8566860127714 66.21610782206757 L 2028.718825262109 66.11814589629505 L 2028.5831384048495 66.01956567283159 L 2028.4496390095653 65.92037700961737 L 2028.3183404260851 65.82058982543607 L 2028.1892557841575 65.72021409892297 L 2028.062397992139 65.61925986756704 L 2027.9377797357035 65.5177372267073 L 2027.8154134765725 65.41565632852324 L 2027.69531145127 65.31302738101961 L 2027.5774856698986 65.20986064700564 L 2027.461947914938 65.10616644306874 L 2027.3487097400675 65.00195513854293 L 2027.2377824690104 64.89723715447177 L 2027.129177194401 64.79202296256643 L 2027.0229047766768 64.68632308415845 L 2026.9189758429904 64.58014808914753 L 2026.8174007861492 64.47350859494473 L 2026.7181897635735 64.3664152654106 L 2026.6213526962836 64.25887880978884 L 2026.526899267905 64.15090998163541 L 2026.434838923702 64.04251957774314 L 2026.3451808696325 63.9337184370621 L 2026.257934071427 63.82451743961569 L 2026.1731072536925 63.71492750541265 L 2026.0907088990405 63.60495959335508 L 2026.0107472472373 63.49462470014256 L 2025.9332302943817 63.38393385917244 L 2025.8581657921045 63.272898139436585 L 2025.7855612467931 63.161528644414446 L 2025.7154239188417 63.04983651096271 L 2025.6477608219245 62.937832908201656 L 2025.582578722295 62.82552903639821 L 2025.5198841381089 62.71293612584597 L 2025.459683338772 62.600065435742174 L 2025.4019823443145 62.486928253061755 L 2025.3467869247877 62.37353589142872 L 2025.2941025996872 62.259899689984735 L 2025.2439346374017 62.146031012255236 L 2025.196288054686 62.031941245013115 L 2025.1511676161583 61.91764179714002 L 2025.108577833825 61.80314409848549 L 2025.0685229666287 61.68845959872397 L 2025.031007020023 61.57359976620988 L 2024.9960337455711 61.45857608683074 L 2024.9636066405715 61.34340006285864 L 2024.9337289477073 61.228083211800005 L 2024.9064036547234 61.11263706524384 L 2024.8816334941257 60.997073167708585 L 2024.8594209429102 60.881403075487704 L 2024.839768222313 60.765638355494026 L 2024.8226772975904 60.64979058410307 L 2024.8081498778201 60.53387134599544 L 2024.7961874157322 60.41789223299836 L 2024.7867911075627 60.30186484292647 L 2024.779961892935 60.185800778422085 L 2024.7757004547648 60.069711645794946 L 2024.774007219192 59.95360905386156" stroke-miterlimit="10" stroke-width="2.990598758" stroke-dasharray=""/></g><g><g/><text fill="black" stroke="none" font-family="sans-serif" font-size="11pt" font-style="normal" font-weight="normal" text-decoration="normal" x="2017.8595288888669" y="90.421633036" text-anchor="start" dominant-baseline="alphabetic" xml:space="preserve">Database</text></g></g><g><path fill="white" stroke="black" paint-order="fill stroke markers" d=" M 305.88340725400394 153.751959676 L 323.47516465400395 153.751959676 L 323.47516465400395 1807.6586233943995 L 305.88340725400394 1807.6586233943995 L 305.88340725400394 153.751959676" stroke-miterlimit="10" stroke-width="1.4659797833333332" stroke-dasharray=""/><path fill="white" stroke="black" paint-order="fill stroke markers" d=" M 96.99232681663412 258.246998632 L 114.58408421663412 258.246998632 L 114.58408421663412 307.50391935199997 L 96.99232681663412 307.50391935199997 L 96.99232681663412 258.246998632" stroke-miterlimit="10" stroke-width="1.4659797833333332" stroke-dasharray=""/><path fill="white" stroke="black" paint-order="fill stroke markers" d=" M 96.99232681663412 356.76084007199995 L 114.58408421663412 356.76084007199995 L 114.58408421663412 504.5316022319999 L 96.99232681663412 504.5316022319999 L 96.99232681663412 356.76084007199995" stroke-miterlimit="10" stroke-width="1.4659797833333332" stroke-dasharray=""/><path fill="white" stroke="black" paint-order="fill stroke markers" d=" M 15.841079711914062 406.01776079199993 L 33.43283711191406 406.01776079199993 L 33.43283711191406 455.2746815119999 L 15.841079711914062 455.2746815119999 L 15.841079711914062 406.01776079199993" stroke-miterlimit="10" stroke-width="1.4659797833333332" stroke-dasharray=""/><path fill="white" stroke="black" paint-order="fill stroke markers" d=" M 735.9682850925456 553.7885229519999 L 753.5600424925456 553.7885229519999 L 753.5600424925456 1758.4017026743995 L 735.9682850925456 1758.4017026743995 L 735.9682850925456 553.7885229519999" stroke-miterlimit="10" stroke-width="1.4659797833333332" stroke-dasharray=""/><path fill="white" stroke="black" paint-order="fill stroke markers" d=" M 1307.831111061035 749.0570300919999 L 1325.422868461035 749.0570300919999 L 1325.422868461035 1367.8646883943998 L 1307.831111061035 1367.8646883943998 L 1307.831111061035 749.0570300919999" stroke-miterlimit="10" stroke-width="1.4659797833333332" stroke-dasharray=""/><path fill="white" stroke="black" paint-order="fill stroke markers" d=" M 1729.1201101995766 798.3139508119999 L 1746.7118675995766 798.3139508119999 L 1746.7118675995766 1318.6077676743998 L 1729.1201101995766 1318.6077676743998 L 1729.1201101995766 798.3139508119999" stroke-miterlimit="10" stroke-width="1.4659797833333332" stroke-dasharray=""/><path fill="white" stroke="black" paint-order="fill stroke markers" d=" M 1737.9159888995766 919.6970768719999 L 1755.5077462995766 919.6970768719999 L 1755.5077462995766 1018.210918312 L 1737.9159888995766 1018.210918312 L 1737.9159888995766 919.6970768719999" stroke-miterlimit="10" stroke-width="1.4659797833333332" stroke-dasharray=""/><path fill="white" stroke="black" paint-order="fill stroke markers" d=" M 2286.703035457275 1147.9677208944 L 2304.2947928572744 1147.9677208944 L 2304.2947928572744 1197.2246416143998 L 2286.703035457275 1197.2246416143998 L 2286.703035457275 1147.9677208944" stroke-miterlimit="10" stroke-width="1.4659797833333332" stroke-dasharray=""/><path fill="white" stroke="black" paint-order="fill stroke markers" d=" M 744.7641637925456 1439.9908937343998 L 762.3559211925456 1439.9908937343998 L 762.3559211925456 1686.2754973343997 L 744.7641637925456 1686.2754973343997 L 744.7641637925456 1439.9908937343998" stroke-miterlimit="10" stroke-width="1.4659797833333332" stroke-dasharray=""/><path fill="white" stroke="black" paint-order="fill stroke markers" d=" M 314.67928595400394 1489.2478144543998 L 332.27104335400395 1489.2478144543998 L 332.27104335400395 1637.0185766143995 L 314.67928595400394 1637.0185766143995 L 314.67928595400394 1489.2478144543998" stroke-miterlimit="10" stroke-width="1.4659797833333332" stroke-dasharray=""/><path fill="white" stroke="black" paint-order="fill stroke markers" d=" M 753.5600424925456 1538.5047351743997 L 771.1517998925456 1538.5047351743997 L 771.1517998925456 1587.7616558943996 L 753.5600424925456 1587.7616558943996 L 753.5600424925456 1538.5047351743997" stroke-miterlimit="10" stroke-width="1.4659797833333332" stroke-dasharray=""/><g><g><rect fill="white" stroke="none" x="122.51760605157229" y="130.882675056" width="85.48515356277343" height="22.86928462"/></g><text fill="black" stroke="none" font-family="sans-serif" font-size="11pt" font-style="normal" font-weight="normal" text-decoration="normal" x="125.15636966157228" y="146.71525671600003" text-anchor="start" dominant-baseline="alphabetic" xml:space="preserve">addMovie()</text></g><g><path fill="none" stroke="black" paint-order="fill stroke markers" d=" M 24.636958411914062 153.751959676 L 291.3995269946706 153.751959676" stroke-miterlimit="10" stroke-width="1.4659797833333332" stroke-dasharray=""/><g transform="translate(305.88340725400394,153.751959676) translate(-305.88340725400394,-153.751959676)"><path fill="black" stroke="none" paint-order="stroke fill markers" d=" M 291.2236094206706 146.42206075933333 L 305.88340725400394 153.751959676 L 291.2236094206706 161.0818585926667 Z"/></g></g><g><path fill="white" stroke="black" paint-order="fill stroke markers" d=" M 140.70784395563413 206.26335551499997 A 26.123759739 26.123759739 0 1 1 140.70783089375533 206.23723175961493 M 72.36386645663411 178.64429639699998 L 72.36386645663411 233.88241463299997 M 70.86856707763411 206.26335551499997 L 88.46032447763412 206.26335551499997" stroke-miterlimit="10" stroke-width="2.990598758" stroke-dasharray=""/></g><g><g/><text fill="black" stroke="none" font-family="sans-serif" font-size="11pt" font-style="normal" font-weight="normal" text-decoration="normal" x="61.12462366848959" y="251.47417203299997" text-anchor="start" dominant-baseline="alphabetic" xml:space="preserve">MovieDialog</text></g><g><g><rect fill="white" stroke="none" x="175.96904213444986" y="196.32401258399997" width="104.39711034988281" height="22.86928462"/></g><text fill="black" stroke="none" font-family="sans-serif" font-size="11pt" font-style="normal" font-weight="normal" text-decoration="normal" x="178.60780574444988" y="212.156594244" text-anchor="start" dominant-baseline="alphabetic" xml:space="preserve">MovieDialog()</text></g><g><path fill="none" stroke="black" paint-order="fill stroke markers" d=" M 305.88340725400394 219.19329720399998 L 164.935667624112 219.19329720399998" stroke-miterlimit="10" stroke-width="1.4659797833333332" stroke-dasharray=""/><g transform="translate(150.45178736477865,219.19329720399998) translate(-150.45178736477865,-219.19329720399998)"><path fill="black" stroke="none" paint-order="stroke fill markers" d=" M 165.11158519811198 211.8633982873333 L 150.45178736477865 219.19329720399998 L 165.11158519811198 226.52319612066665 Z"/></g></g><g><g><rect fill="white" stroke="none" x="207.594982125319" y="284.634634732" width="5.27752722" height="22.86928462"/></g><text fill="black" stroke="none" font-family="sans-serif" font-size="11pt" font-style="normal" font-weight="normal" text-decoration="normal" x="210.23374573531902" y="300.467216392" text-anchor="start" dominant-baseline="alphabetic" xml:space="preserve"></text></g><g><path fill="none" stroke="black" paint-order="fill stroke markers" d=" M 114.58408421663412 307.50391935199997 L 291.3995269946706 307.50391935199997" stroke-miterlimit="10" stroke-width="1.4659797833333332" stroke-dasharray="7.0367029599999995"/><g transform="translate(305.88340725400394,307.50391935199997) translate(-305.88340725400394,-307.50391935199997)"><path fill="black" stroke="none" paint-order="stroke fill markers" d=" M 291.2236094206706 300.1740204353333 L 305.88340725400394 307.50391935199997 L 291.2236094206706 314.8338182686666 Z"/></g></g><g><g><rect fill="white" stroke="none" x="154.0838737268815" y="333.891555452" width="112.299744016875" height="22.86928462"/></g><text fill="black" stroke="none" font-family="sans-serif" font-size="11pt" font-style="normal" font-weight="normal" text-decoration="normal" x="156.72263733688152" y="349.724137112" text-anchor="start" dominant-baseline="alphabetic" xml:space="preserve">showAndWait()</text></g><g><path fill="none" stroke="black" paint-order="fill stroke markers" d=" M 305.88340725400394 356.76084007199995 L 129.06796447596747 356.76084007199995" stroke-miterlimit="10" stroke-width="1.4659797833333332" stroke-dasharray=""/><g transform="translate(114.58408421663412,356.76084007199995) translate(-114.58408421663412,-356.76084007199995)"><path fill="black" stroke="none" paint-order="stroke fill markers" d=" M 129.24388204996745 349.4309411553333 L 114.58408421663412 356.76084007199995 L 129.24388204996745 364.0907389886666 Z"/></g></g><g><g><rect fill="white" stroke="none" x="62.573818354274096" y="383.14847617199996" width="5.27752722" height="22.86928462"/></g><text fill="black" stroke="none" font-family="sans-serif" font-size="11pt" font-style="normal" font-weight="normal" text-decoration="normal" x="65.2125819642741" y="398.981057832" text-anchor="start" dominant-baseline="alphabetic" xml:space="preserve"></text></g><g><path fill="none" stroke="black" paint-order="fill stroke markers" d=" M 96.99232681663412 406.01776079199993 L 47.916717371247394 406.01776079199993" stroke-miterlimit="10" stroke-width="1.4659797833333332" stroke-dasharray=""/><g transform="translate(33.43283711191406,406.01776079199993) translate(-33.43283711191406,-406.01776079199993)"><path fill="black" stroke="none" paint-order="stroke fill markers" d=" M 48.0926349452474 398.6878618753333 L 33.43283711191406 406.01776079199993 L 48.0926349452474 413.3476597086666 Z"/></g></g><g><g><rect fill="white" stroke="none" x="62.573818354274096" y="432.40539689199994" width="5.27752722" height="22.86928462"/></g><text fill="black" stroke="none" font-family="sans-serif" font-size="11pt" font-style="normal" font-weight="normal" text-decoration="normal" x="65.2125819642741" y="448.23797855199996" text-anchor="start" dominant-baseline="alphabetic" xml:space="preserve"></text></g><g><path fill="none" stroke="black" paint-order="fill stroke markers" d=" M 33.43283711191406 455.2746815119999 L 82.50844655730079 455.2746815119999" stroke-miterlimit="10" stroke-width="1.4659797833333332" stroke-dasharray="7.0367029599999995"/><g transform="translate(96.99232681663412,455.2746815119999) translate(-96.99232681663412,-455.2746815119999)"><path fill="black" stroke="none" paint-order="stroke fill markers" d=" M 82.33252898330079 447.94478259533327 L 96.99232681663412 455.2746815119999 L 82.33252898330079 462.60458042866657 Z"/></g></g><g><g><rect fill="white" stroke="none" x="135.40099713996744" y="481.6623176119999" width="149.66549719070312" height="22.86928462"/></g><text fill="black" stroke="none" font-family="sans-serif" font-size="11pt" font-style="normal" font-weight="normal" text-decoration="normal" x="138.03976074996746" y="497.49489927199994" text-anchor="start" dominant-baseline="alphabetic" xml:space="preserve">returnm:MovieInfo</text></g><g><path fill="none" stroke="black" paint-order="fill stroke markers" d=" M 114.58408421663412 504.5316022319999 L 291.3995269946706 504.5316022319999" stroke-miterlimit="10" stroke-width="1.4659797833333332" stroke-dasharray=""/><g transform="translate(305.88340725400394,504.5316022319999) translate(-305.88340725400394,-504.5316022319999)"><path fill="black" stroke="none" paint-order="stroke fill markers" d=" M 291.2236094206706 497.20170331533325 L 305.88340725400394 504.5316022319999 L 291.2236094206706 511.86150114866655 Z"/></g></g><g><g><rect fill="white" stroke="none" x="348.69001692733724" y="530.9192383319998" width="362.063415891875" height="22.86928462"/></g><text fill="black" stroke="none" font-family="sans-serif" font-size="11pt" font-style="normal" font-weight="normal" text-decoration="normal" x="351.32878053733725" y="546.7518199919998" text-anchor="start" dominant-baseline="alphabetic" xml:space="preserve">addMovie(title:String,runningTime:int,year:int)</text></g><g><path fill="none" stroke="black" paint-order="fill stroke markers" d=" M 323.47516465400395 553.7885229519999 L 721.4844048332122 553.7885229519999" stroke-miterlimit="10" stroke-width="1.4659797833333332" stroke-dasharray=""/><g transform="translate(735.9682850925456,553.7885229519999) translate(-735.9682850925456,-553.7885229519999)"><path fill="black" stroke="none" paint-order="stroke fill markers" d=" M 721.3084872592123 546.4586240353332 L 735.9682850925456 553.7885229519999 L 721.3084872592123 561.1184218686666 Z"/></g></g><g><g><rect fill="white" stroke="none" x="774.3769554158789" y="627.6739040319999" width="492.1135257551563" height="22.86928462"/></g><text fill="black" stroke="none" font-family="sans-serif" font-size="11pt" font-style="normal" font-weight="normal" text-decoration="normal" x="777.0157190258789" y="643.5064856919998" text-anchor="start" dominant-baseline="alphabetic" xml:space="preserve">checkDoubleAdded(title:String,runningTime:Integer,year:Integer)</text></g><g><path fill="none" stroke="black" paint-order="fill stroke markers" d=" M 753.5600424925456 650.5431886519998 L 823.9270720925456 650.5431886519998 L 823.9270720925456 673.4124732719998 L 768.0439227518789 673.4124732719998" stroke-miterlimit="10" stroke-width="1.4659797833333332" stroke-dasharray=""/><g transform="translate(753.5600424925456,673.4124732719998) translate(-753.5600424925456,-673.4124732719998)"><path fill="black" stroke="none" paint-order="stroke fill markers" d=" M 768.2198403258789 666.0825743553331 L 753.5600424925456 673.4124732719998 L 768.2198403258789 680.7423721886665 Z"/></g></g><g><g><rect fill="white" stroke="none" x="849.663868830853" y="726.1877454719998" width="362.063415891875" height="22.86928462"/></g><text fill="black" stroke="none" font-family="sans-serif" font-size="11pt" font-style="normal" font-weight="normal" text-decoration="normal" x="852.3026324408529" y="742.0203271319998" text-anchor="start" dominant-baseline="alphabetic" xml:space="preserve">addMovie(title:String,runningTime:int,year:int)</text></g><g><path fill="none" stroke="black" paint-order="fill stroke markers" d=" M 753.5600424925456 749.0570300919999 L 1293.3472308017017 749.0570300919999" stroke-miterlimit="10" stroke-width="1.4659797833333332" stroke-dasharray=""/><g transform="translate(1307.831111061035,749.0570300919999) translate(-1307.831111061035,-749.0570300919999)"><path fill="black" stroke="none" paint-order="stroke fill markers" d=" M 1293.1713132277016 741.7271311753332 L 1307.831111061035 749.0570300919999 L 1293.1713132277016 756.3869290086666 Z"/></g></g><g><g><rect fill="white" stroke="none" x="1346.2397813843684" y="775.4446661919999" width="362.063415891875" height="22.86928462"/></g><text fill="black" stroke="none" font-family="sans-serif" font-size="11pt" font-style="normal" font-weight="normal" text-decoration="normal" x="1348.8785449943684" y="791.2772478519998" text-anchor="start" dominant-baseline="alphabetic" xml:space="preserve">addMovie(title:String,runningTime:int,year:int)</text></g><g><path fill="none" stroke="black" paint-order="fill stroke markers" d=" M 1325.422868461035 798.3139508119999 L 1714.6362299402433 798.3139508119999" stroke-miterlimit="10" stroke-width="1.4659797833333332" stroke-dasharray=""/><g transform="translate(1729.1201101995766,798.3139508119999) translate(-1729.1201101995766,-798.3139508119999)"><path fill="black" stroke="none" paint-order="stroke fill markers" d=" M 1714.4603123662432 790.9840518953332 L 1729.1201101995766 798.3139508119999 L 1714.4603123662432 805.6438497286666 Z"/></g></g><g><g><rect fill="white" stroke="none" x="1849.7900811491143" y="824.7015869119999" width="97.58964575027343" height="22.86928462"/></g><text fill="black" stroke="none" font-family="sans-serif" font-size="11pt" font-style="normal" font-weight="normal" text-decoration="normal" x="1852.4288447591143" y="840.5341685719999" text-anchor="start" dominant-baseline="alphabetic" xml:space="preserve">oid:=getId()</text></g><g><path fill="none" stroke="black" paint-order="fill stroke markers" d=" M 1746.7118675995766 847.570871532 L 2035.9740601895921 847.570871532" stroke-miterlimit="10" stroke-width="1.4659797833333332" stroke-dasharray=""/><g transform="translate(2050.4579404489255,847.570871532) translate(-2050.4579404489255,-847.570871532)"><path fill="black" stroke="none" paint-order="stroke fill markers" d=" M 2035.798142615592 840.2409726153332 L 2050.4579404489255 847.570871532 L 2035.798142615592 854.9007704486667 Z"/></g></g><g><g><rect fill="white" stroke="none" x="1776.32465922291" y="873.958507632" width="197.3963016340625" height="22.86928462"/></g><text fill="black" stroke="none" font-family="sans-serif" font-size="11pt" font-style="normal" font-weight="normal" text-decoration="normal" x="1778.96342283291" y="889.7910892919999" text-anchor="start" dominant-baseline="alphabetic" xml:space="preserve">performUpdate(sql:String)</text></g><g><path fill="none" stroke="black" paint-order="fill stroke markers" d=" M 1746.7118675995766 896.8277922519999 L 1825.8747758995767 896.8277922519999 L 1825.8747758995767 919.6970768719999 L 1769.99162655891 919.6970768719999" stroke-miterlimit="10" stroke-width="1.4659797833333332" stroke-dasharray=""/><g transform="translate(1755.5077462995766,919.6970768719999) translate(-1755.5077462995766,-919.6970768719999)"><path fill="black" stroke="none" paint-order="stroke fill markers" d=" M 1770.16754413291 912.3671779553332 L 1755.5077462995766 919.6970768719999 L 1770.16754413291 927.0269757886666 Z"/></g></g><g><g><rect fill="white" stroke="none" x="1805.9346635655204" y="946.0847129719999" width="194.09635961746093" height="22.86928462"/></g><text fill="black" stroke="none" font-family="sans-serif" font-size="11pt" font-style="normal" font-weight="normal" text-decoration="normal" x="1808.5734271755205" y="961.9172946319999" text-anchor="start" dominant-baseline="alphabetic" xml:space="preserve">executeUpdate(sql:String)</text></g><g><path fill="none" stroke="black" paint-order="fill stroke markers" d=" M 1755.5077462995766 968.953997592 L 2035.9740601895921 968.953997592" stroke-miterlimit="10" stroke-width="1.4659797833333332" stroke-dasharray=""/><g transform="translate(2050.4579404489255,968.953997592) translate(-2050.4579404489255,-968.953997592)"><path fill="black" stroke="none" paint-order="stroke fill markers" d=" M 2035.798142615592 961.6240986753332 L 2050.4579404489255 968.953997592 L 2035.798142615592 976.2838965086667 Z"/></g></g><g><g><rect fill="white" stroke="none" x="1776.32465922291" y="995.3416336920001" width="5.27752722" height="22.86928462"/></g><text fill="black" stroke="none" font-family="sans-serif" font-size="11pt" font-style="normal" font-weight="normal" text-decoration="normal" x="1778.96342283291" y="1011.174215352" text-anchor="start" dominant-baseline="alphabetic" xml:space="preserve"></text></g><g><path fill="none" stroke="black" paint-order="fill stroke markers" d=" M 1755.5077462995766 1018.210918312 L 1825.8747758995767 1018.210918312 L 1825.8747758995767 1041.080202932 L 1761.19574785891 1041.080202932" stroke-miterlimit="10" stroke-width="1.4659797833333332" stroke-dasharray="7.0367029599999995"/><g transform="translate(1746.7118675995766,1041.080202932) translate(-1746.7118675995766,-1041.080202932)"><path fill="black" stroke="none" paint-order="stroke fill markers" d=" M 1761.37166543291 1033.7503040153333 L 1746.7118675995766 1041.080202932 L 1761.37166543291 1048.4101018486667 Z"/></g></g><g><path fill="white" stroke="black" paint-order="fill stroke markers" d=" M 2321.6226738962746 1093.591598771 A 26.123759739 26.123759739 0 1 1 2321.622660834396 1093.565475015615 M 2267.879855039275 1122.1078375164 L 2323.1179732752744 1122.1078375164" stroke-miterlimit="10" stroke-width="2.990598758" stroke-dasharray=""/></g><g><g/><text fill="black" stroke="none" font-family="sans-serif" font-size="11pt" font-style="normal" font-weight="normal" text-decoration="normal" x="2273.7200903047355" y="1141.1948942954" text-anchor="start" dominant-baseline="alphabetic" xml:space="preserve">Movie</text></g><g><g><rect fill="white" stroke="none" x="1805.6772087934098" y="1084.8484953432" width="403.2373050520313" height="22.86928462"/></g><text fill="black" stroke="none" font-family="sans-serif" font-size="11pt" font-style="normal" font-weight="normal" text-decoration="normal" x="1808.31597240341" y="1100.6810770032" text-anchor="start" dominant-baseline="alphabetic" xml:space="preserve">PersistentMovie(title:String,runningTime:int,year:int)</text></g><g><path fill="none" stroke="black" paint-order="fill stroke markers" d=" M 1746.7118675995766 1107.7177799632 L 2253.395974779941 1107.7177799632" stroke-miterlimit="10" stroke-width="1.4659797833333332" stroke-dasharray=""/><g transform="translate(2267.8798550392744,1107.7177799632) translate(-2267.8798550392744,-1107.7177799632)"><path fill="black" stroke="none" paint-order="stroke fill markers" d=" M 2253.220057205941 1100.3878810465333 L 2267.8798550392744 1107.7177799632 L 2253.220057205941 1115.0476788798667 Z"/></g></g><g><g><rect fill="white" stroke="none" x="2014.0686879184257" y="1174.3553569944" width="5.27752722" height="22.86928462"/></g><text fill="black" stroke="none" font-family="sans-serif" font-size="11pt" font-style="normal" font-weight="normal" text-decoration="normal" x="2016.7074515284257" y="1190.1879386543999" text-anchor="start" dominant-baseline="alphabetic" xml:space="preserve"></text></g><g><path fill="none" stroke="black" paint-order="fill stroke markers" d=" M 2286.703035457275 1197.2246416143998 L 1761.19574785891 1197.2246416143998" stroke-miterlimit="10" stroke-width="1.4659797833333332" stroke-dasharray="7.0367029599999995"/><g transform="translate(1746.7118675995766,1197.2246416143998) translate(-1746.7118675995766,-1197.2246416143998)"><path fill="black" stroke="none" paint-order="stroke fill markers" d=" M 1761.37166543291 1189.8947426977331 L 1746.7118675995766 1197.2246416143998 L 1761.37166543291 1204.5545405310666 Z"/></g></g><g><g><rect fill="white" stroke="none" x="1767.52878052291" y="1223.6122777143999" width="267.97616613601565" height="22.86928462"/></g><text fill="black" stroke="none" font-family="sans-serif" font-size="11pt" font-style="normal" font-weight="normal" text-decoration="normal" x="1770.16754413291" y="1239.4448593743998" text-anchor="start" dominant-baseline="alphabetic" xml:space="preserve">addToCache(Movie:PersistentMovie)</text></g><g><path fill="none" stroke="black" paint-order="fill stroke markers" d=" M 1746.7118675995766 1246.4815623344 L 1817.0788971995767 1246.4815623344 L 1817.0788971995767 1269.3508469544 L 1761.19574785891 1269.3508469544" stroke-miterlimit="10" stroke-width="1.4659797833333332" stroke-dasharray=""/><g transform="translate(1746.7118675995766,1269.3508469544) translate(-1746.7118675995766,-1269.3508469544)"><path fill="black" stroke="none" paint-order="stroke fill markers" d=" M 1761.37166543291 1262.0209480377332 L 1746.7118675995766 1269.3508469544 L 1761.37166543291 1276.6807458710666 Z"/></g></g><g><g><rect fill="white" stroke="none" x="1524.6327257203059" y="1295.7384830544" width="5.27752722" height="22.86928462"/></g><text fill="black" stroke="none" font-family="sans-serif" font-size="11pt" font-style="normal" font-weight="normal" text-decoration="normal" x="1527.271489330306" y="1311.5710647143999" text-anchor="start" dominant-baseline="alphabetic" xml:space="preserve"></text></g><g><path fill="none" stroke="black" paint-order="fill stroke markers" d=" M 1729.1201101995766 1318.6077676743998 L 1339.9067487203683 1318.6077676743998" stroke-miterlimit="10" stroke-width="1.4659797833333332" stroke-dasharray="7.0367029599999995"/><g transform="translate(1325.422868461035,1318.6077676743998) translate(-1325.422868461035,-1318.6077676743998)"><path fill="black" stroke="none" paint-order="stroke fill markers" d=" M 1340.0826662943684 1311.2778687577331 L 1325.422868461035 1318.6077676743998 L 1340.0826662943684 1325.9376665910665 Z"/></g></g><g><g><rect fill="white" stroke="none" x="1028.0568131667903" y="1344.9954037743998" width="5.27752722" height="22.86928462"/></g><text fill="black" stroke="none" font-family="sans-serif" font-size="11pt" font-style="normal" font-weight="normal" text-decoration="normal" x="1030.6955767767904" y="1360.8279854343998" text-anchor="start" dominant-baseline="alphabetic" xml:space="preserve"></text></g><g><path fill="none" stroke="black" paint-order="fill stroke markers" d=" M 1307.831111061035 1367.8646883943998 L 768.0439227518789 1367.8646883943998" stroke-miterlimit="10" stroke-width="1.4659797833333332" stroke-dasharray="7.0367029599999995"/><g transform="translate(753.5600424925456,1367.8646883943998) translate(-753.5600424925456,-1367.8646883943998)"><path fill="black" stroke="none" paint-order="stroke fill markers" d=" M 768.2198403258789 1360.534789477733 L 753.5600424925456 1367.8646883943998 L 768.2198403258789 1375.1945873110665 Z"/></g></g><g><g><rect fill="white" stroke="none" x="783.1728341158789" y="1394.2523244943998" width="126.94535864089843" height="22.86928462"/></g><text fill="black" stroke="none" font-family="sans-serif" font-size="11pt" font-style="normal" font-weight="normal" text-decoration="normal" x="785.8115977258789" y="1410.0849061543997" text-anchor="start" dominant-baseline="alphabetic" xml:space="preserve">notifyObservers()</text></g><g><path fill="none" stroke="black" paint-order="fill stroke markers" d=" M 753.5600424925456 1417.1216091144 L 832.7229507925456 1417.1216091144 L 832.7229507925456 1439.9908937343998 L 776.8398014518789 1439.9908937343998" stroke-miterlimit="10" stroke-width="1.4659797833333332" stroke-dasharray=""/><g transform="translate(762.3559211925456,1439.9908937343998) translate(-762.3559211925456,-1439.9908937343998)"><path fill="black" stroke="none" paint-order="stroke fill markers" d=" M 777.0157190258789 1432.6609948177331 L 762.3559211925456 1439.9908937343998 L 777.0157190258789 1447.3207926510665 Z"/></g></g><g><g><rect fill="white" stroke="none" x="506.2152810033138" y="1466.3785298343998" width="64.60464513992187" height="22.86928462"/></g><text fill="black" stroke="none" font-family="sans-serif" font-size="11pt" font-style="normal" font-weight="normal" text-decoration="normal" x="508.8540446133138" y="1482.2111114943998" text-anchor="start" dominant-baseline="alphabetic" xml:space="preserve">update()</text></g><g><path fill="none" stroke="black" paint-order="fill stroke markers" d=" M 744.7641637925456 1489.2478144543998 L 346.75492361333727 1489.2478144543998" stroke-miterlimit="10" stroke-width="1.4659797833333332" stroke-dasharray=""/><g transform="translate(332.27104335400395,1489.2478144543998) translate(-332.27104335400395,-1489.2478144543998)"><path fill="black" stroke="none" paint-order="stroke fill markers" d=" M 346.9308411873373 1481.917915537733 L 332.27104335400395 1489.2478144543998 L 346.9308411873373 1496.5777133710665 Z"/></g></g><g><g><rect fill="white" stroke="none" x="498.6303788616146" y="1515.6354505543998" width="88.57032812332031" height="22.86928462"/></g><text fill="black" stroke="none" font-family="sans-serif" font-size="11pt" font-style="normal" font-weight="normal" text-decoration="normal" x="501.2691424716146" y="1531.4680322143997" text-anchor="start" dominant-baseline="alphabetic" xml:space="preserve">getMovies()</text></g><g><path fill="none" stroke="black" paint-order="fill stroke markers" d=" M 332.27104335400395 1538.5047351743997 L 739.0761622332122 1538.5047351743997" stroke-miterlimit="10" stroke-width="1.4659797833333332" stroke-dasharray=""/><g transform="translate(753.5600424925456,1538.5047351743997) translate(-753.5600424925456,-1538.5047351743997)"><path fill="black" stroke="none" paint-order="stroke fill markers" d=" M 738.9002446592123 1531.174836257733 L 753.5600424925456 1538.5047351743997 L 738.9002446592123 1545.8346340910664 Z"/></g></g><g><g><rect fill="white" stroke="none" x="491.82653822440756" y="1564.8923712743997" width="102.17800939773437" height="22.86928462"/></g><text fill="black" stroke="none" font-family="sans-serif" font-size="11pt" font-style="normal" font-weight="normal" text-decoration="normal" x="494.46530183440757" y="1580.7249529343997" text-anchor="start" dominant-baseline="alphabetic" xml:space="preserve">returnmovies</text></g><g><path fill="none" stroke="black" paint-order="fill stroke markers" d=" M 753.5600424925456 1587.7616558943996 L 346.75492361333727 1587.7616558943996" stroke-miterlimit="10" stroke-width="1.4659797833333332" stroke-dasharray="7.0367029599999995"/><g transform="translate(332.27104335400395,1587.7616558943996) translate(-332.27104335400395,-1587.7616558943996)"><path fill="black" stroke="none" paint-order="stroke fill markers" d=" M 346.9308411873373 1580.431756977733 L 332.27104335400395 1587.7616558943996 L 346.9308411873373 1595.0915548110663 Z"/></g></g><g><g><rect fill="white" stroke="none" x="535.8788399632748" y="1614.1492919943996" width="5.27752722" height="22.86928462"/></g><text fill="black" stroke="none" font-family="sans-serif" font-size="11pt" font-style="normal" font-weight="normal" text-decoration="normal" x="538.5176035732748" y="1629.9818736543996" text-anchor="start" dominant-baseline="alphabetic" xml:space="preserve"></text></g><g><path fill="none" stroke="black" paint-order="fill stroke markers" d=" M 332.27104335400395 1637.0185766143995 L 730.2802835332122 1637.0185766143995" stroke-miterlimit="10" stroke-width="1.4659797833333332" stroke-dasharray="7.0367029599999995"/><g transform="translate(744.7641637925456,1637.0185766143995) translate(-744.7641637925456,-1637.0185766143995)"><path fill="black" stroke="none" paint-order="stroke fill markers" d=" M 730.1043659592123 1629.6886776977328 L 744.7641637925456 1637.0185766143995 L 730.1043659592123 1644.3484755310662 Z"/></g></g><g><g><rect fill="white" stroke="none" x="783.1728341158789" y="1663.4062127143995" width="5.27752722" height="22.86928462"/></g><text fill="black" stroke="none" font-family="sans-serif" font-size="11pt" font-style="normal" font-weight="normal" text-decoration="normal" x="785.8115977258789" y="1679.2387943743995" text-anchor="start" dominant-baseline="alphabetic" xml:space="preserve"></text></g><g><path fill="none" stroke="black" paint-order="fill stroke markers" d=" M 762.3559211925456 1686.2754973343997 L 832.7229507925456 1686.2754973343997 L 832.7229507925456 1709.1447819543996 L 768.0439227518789 1709.1447819543996" stroke-miterlimit="10" stroke-width="1.4659797833333332" stroke-dasharray="7.0367029599999995"/><g transform="translate(753.5600424925456,1709.1447819543996) translate(-753.5600424925456,-1709.1447819543996)"><path fill="black" stroke="none" paint-order="stroke fill markers" d=" M 768.2198403258789 1701.814883037733 L 753.5600424925456 1709.1447819543996 L 768.2198403258789 1716.4746808710663 Z"/></g></g><g><g><rect fill="white" stroke="none" x="527.0829612632748" y="1735.5324180543996" width="5.27752722" height="22.86928462"/></g><text fill="black" stroke="none" font-family="sans-serif" font-size="11pt" font-style="normal" font-weight="normal" text-decoration="normal" x="529.7217248732748" y="1751.3649997143996" text-anchor="start" dominant-baseline="alphabetic" xml:space="preserve"></text></g><g><path fill="none" stroke="black" paint-order="fill stroke markers" d=" M 735.9682850925456 1758.4017026743995 L 337.95904491333727 1758.4017026743995" stroke-miterlimit="10" stroke-width="1.4659797833333332" stroke-dasharray="7.0367029599999995"/><g transform="translate(323.47516465400395,1758.4017026743995) translate(-323.47516465400395,-1758.4017026743995)"><path fill="black" stroke="none" paint-order="stroke fill markers" d=" M 338.1349624873373 1751.0718037577328 L 323.47516465400395 1758.4017026743995 L 338.1349624873373 1765.7316015910662 Z"/></g></g><g><g><rect fill="white" stroke="none" x="162.621419222959" y="1784.7893387743995" width="5.27752722" height="22.86928462"/></g><text fill="black" stroke="none" font-family="sans-serif" font-size="11pt" font-style="normal" font-weight="normal" text-decoration="normal" x="165.260182832959" y="1800.6219204343995" text-anchor="start" dominant-baseline="alphabetic" xml:space="preserve"></text></g><g><path fill="none" stroke="black" paint-order="fill stroke markers" d=" M 305.88340725400394 1807.6586233943995 L 39.1208386712474 1807.6586233943995" stroke-miterlimit="10" stroke-width="1.4659797833333332" stroke-dasharray="7.0367029599999995"/><g transform="translate(24.636958411914062,1807.6586233943995) translate(-24.636958411914062,-1807.6586233943995)"><path fill="black" stroke="none" paint-order="stroke fill markers" d=" M 39.296756245247394 1800.3287244777327 L 24.636958411914062 1807.6586233943995 L 39.296756245247394 1814.9885223110662 Z"/></g></g><g><g/><path fill="none" stroke="black" paint-order="fill stroke markers" d=" M 683.1930128925455 580.1761590519999 L 1272.647596261035 580.1761590519999 L 1272.647596261035 699.8001093719998 L 683.1930128925455 699.8001093719998 L 683.1930128925455 580.1761590519999 Z" stroke-miterlimit="10" stroke-width="2.5131082" stroke-dasharray=""/><path fill="white" stroke="black" paint-order="fill stroke markers" d=" M 683.1930128925455 580.1761590519999 L 683.1930128925455 601.2862679319999 L 791.9180468575846 601.2862679319999 L 802.4731012975847 590.7312134919999 L 802.4731012975847 580.1761590519999 L 683.1930128925455 580.1761590519999" stroke-miterlimit="10" stroke-width="2.5131082" stroke-dasharray=""/><text fill="black" stroke="none" font-family="sans-serif" font-size="8.8pt" font-style="normal" font-weight="bold" text-decoration="normal" x="700.7847702925455" y="594.2495649719999" text-anchor="start" dominant-baseline="alphabetic" xml:space="preserve">expandable-</text><text fill="black" stroke="none" font-family="sans-serif" font-size="8.8pt" font-style="normal" font-weight="bold" text-decoration="normal" x="820.0648586975847" y="594.2495649719999" text-anchor="start" dominant-baseline="alphabetic" xml:space="preserve">[seediagram02-AddMovieECE(doubleaddedmovie)]</text></g></g><g/><g/><g/><g/><g/><g/></g></svg>