<svg version="1.1" xmlns="http://www.w3.org/2000/svg" xmlns:xlink="http://www.w3.org/1999/xlink" width="1627" height="1538"><desc>actor%20Staff%0Aboundary%20Alert%0Aboundary%20MovieDialog%0Aboundary%20StaffUI%0Acontrol%20ManagementSystem%0Aparticipant%20Cinema%0Aentity%20MovieMapper%0Adatabase%20db%0A%0A%0AStaff-%3EStaffUI%3AaddMovie()%0Aactivate%20StaffUI%0A%0AStaffUI-%3E*MovieDialog%3AMovieDialog()%0Aactivate%20MovieDialog%0AMovieDialog--%3EStaffUI%3A%0Adeactivate%20MovieDialog%0A%0AStaffUI-%3EMovieDialog%3AshowAndWait()%0Aactivate%20MovieDialog%0AMovieDialog-%3EStaff%3A%0Aactivate%20Staff%0AStaff--%3EMovieDialog%3A%0Adeactivate%20Staff%0AMovieDialog-%3EStaffUI%3Areturn%20m%20%3A%20MovieInfo%0Adeactivate%20MovieDialog%0A%0AStaffUI-%3EManagementSystem%3AaddMovie(title%20%3A%20String%2C%20runningTime%20%3A%20int%2C%20year%20%3A%20int)%0Aactivate%20ManagementSystem%0A%0A%0AManagementSystem-%3EManagementSystem%3AcheckDoubleAdded(title%20%3A%20String%2C%20runningTime%20%3A%20Integer%2C%20year%20%3A%20Integer)%0A%0Aactivate%20ManagementSystem%0AManagementSystem-%3ECinema%3AcheckExistedMovie(title%20%3A%20String%2C%20runningTime%20%3A%20Integer%2C%20year%20%3A%20Integer)%0Aactivate%20Cinema%0ACinema-%3EMovieMapper%3AcheckExistedMovie(title%20%3A%20String%2C%20runningTime%20%3A%20Integer%2C%20year%20%3A%20Integer)%0Aactivate%20MovieMapper%0AMovieMapper-%3EMovieMapper%3AperformSelect(sql%20%3A%20String)%0Aactivate%20MovieMapper%0AMovieMapper-%3Edb%3Aexecute(sql%20%3A%20String)%0Aactivate%20db%0Adb--%3EMovieMapper%3A%0Adeactivate%20db%0AMovieMapper--%3EMovieMapper%3Areturn%20true%0Adeactivate%20MovieMapper%0AMovieMapper--%3ECinema%3Areturn%20true%0Adeactivate%20MovieMapper%0ACinema--%3EManagementSystem%3Areturn%20true%0Adeactivate%20Cinema%0Anote%20over%20ManagementSystem%3Aanother%20movie%20is%20found%20that%20overlaps%20with%20this%0A%0AManagementSystem-%3EManagementSystem%3AobserverMessage(message%20%3A%20String%2C%20false%20%3A%20Boolean)%0Aactivate%20ManagementSystem%0A%0AManagementSystem-%3EStaffUI%3Amessage(message%20%3A%20String%2C%20false%20%3A%20Boolean)%0A%0Aactivate%20StaffUI%0AStaffUI-%3E*Alert%3AAlert(%20warning%20%3A%20AlertType)%0A%0Aactivate%20Alert%0AAlert--%3EStaffUI%3A%0Adeactivate%20Alert%0A%0AStaffUI-%3EAlert%3AshowAndWait()%3B%0A%0Aactivate%20Alert%0AAlert-%3EStaff%3A%0Aactivate%20Staff%0AStaff--%3EAlert%3A%0Adeactivate%20Staff%0AAlert--%3EStaffUI%3Areturn%20result%0Adeactivate%20Alert%0A%0AStaffUI--%3EManagementSystem%3Areturn%20false%0Adeactivate%20StaffUI%0A%0AManagementSystem--%3EManagementSystem%3Areturn%20false%0Adeactivate%20ManagementSystem%0A%0AManagementSystem--%3EManagementSystem%3Areturn%20false%0Adeactivate%20ManagementSystem%0A%0AManagementSystem--%3EStaffUI%3Areturn%20false%0A%0Adeactivate%20ManagementSystem%0AStaffUI--%3EStaff%3A%0Adeactivate%20StaffUI%0A</desc><defs/><g><g/><g/><g/><g/><g/><g/><g/><g/><g/><g/><g/><g/><g/><g/><g/><g/><g/><g/><g/><g/><g/><g/><g/><g/><g/><g/><g/><g/><g/><g/><g/><g><rect fill="white" stroke="none" x="0" y="0" width="1627" height="1538"/></g><g/><g><path fill="none" stroke="black" paint-order="fill stroke markers" d=" M 18.1258913 75.19219734400001 L 18.1258913 1538.6756265320007" stroke-miterlimit="10" stroke-width="1.1518412583333333" stroke-dasharray="10.632380846153845,4.607365033333333"/><path fill="none" stroke="black" paint-order="fill stroke markers" d=" M 68.80690666666666 1067.342183622 L 68.80690666666666 1538.6756265320007" stroke-miterlimit="10" stroke-width="1.1518412583333333" stroke-dasharray="10.632380846153845,4.607365033333333"/><path fill="none" stroke="black" paint-order="fill stroke markers" d=" M 177.216890706625 202.90835606800002 L 177.216890706625 1538.6756265320007" stroke-miterlimit="10" stroke-width="1.1518412583333333" stroke-dasharray="10.632380846153845,4.607365033333333"/><path fill="none" stroke="black" paint-order="fill stroke markers" d=" M 326.01436115141667 75.19219734400001 L 326.01436115141667 1538.6756265320007" stroke-miterlimit="10" stroke-width="1.1518412583333333" stroke-dasharray="10.632380846153845,4.607365033333333"/><path fill="none" stroke="black" paint-order="fill stroke markers" d=" M 629.5810334430834 75.19219734400001 L 629.5810334430834 1538.6756265320007" stroke-miterlimit="10" stroke-width="1.1518412583333333" stroke-dasharray="10.632380846153845,4.607365033333333"/><path fill="none" stroke="black" paint-order="fill stroke markers" d=" M 1031.168616566 75.19219734400001 L 1031.168616566 1538.6756265320007" stroke-miterlimit="10" stroke-width="1.1518412583333333" stroke-dasharray="10.632380846153845,4.607365033333333"/><path fill="none" stroke="black" paint-order="fill stroke markers" d=" M 1418.9341045889169 75.19219734400001 L 1418.9341045889169 1538.6756265320007" stroke-miterlimit="10" stroke-width="1.1518412583333333" stroke-dasharray="10.632380846153845,4.607365033333333"/><path fill="none" stroke="black" paint-order="fill stroke markers" d=" M 1592.7699619535001 75.19219734400001 L 1592.7699619535001 1538.6756265320007" stroke-miterlimit="10" stroke-width="1.1518412583333333" stroke-dasharray="10.632380846153845,4.607365033333333"/></g><g><g><path fill="white" stroke="black" paint-order="fill stroke markers" d=" M 26.004485507 16.724735071000005 A 7.878594207 7.878594207 0 1 1 26.004481567703223 16.7168564781061 M 18.1258913 24.603329278000004 L 18.1258913 41.4662853 M 8.173982828 30.685051122000004 L 28.077799772 30.685051122000004 M 18.1258913 41.4662853 L 8.173982828 57.22347371400001 M 18.1258913 41.4662853 L 28.077799772 57.22347371400001" stroke-miterlimit="10" stroke-width="2.3497561670000002" stroke-dasharray=""/></g><g><g/><text fill="black" stroke="none" font-family="sans-serif" font-size="8pt" font-style="normal" font-weight="normal" text-decoration="normal" x="6.911047549999999" y="71.045568814" text-anchor="start" dominant-baseline="alphabetic" xml:space="preserve">Staff</text></g><g><path fill="white" stroke="black" paint-order="fill stroke markers" d=" M 353.45121992491664 35.52278440700001 A 20.5258112235 20.5258112235 0 1 1 353.4512096620119 35.50225859919747 M 299.7523804614167 13.822095100000011 L 299.7523804614167 57.22347371400001 M 298.5775023779167 35.52278440700001 L 312.39959747791664 35.52278440700001" stroke-miterlimit="10" stroke-width="2.3497561670000002" stroke-dasharray=""/></g><g><g/><text fill="black" stroke="none" font-family="sans-serif" font-size="8pt" font-style="normal" font-weight="normal" text-decoration="normal" x="309.29951740141667" y="71.045568814" text-anchor="start" dominant-baseline="alphabetic" xml:space="preserve">StaffUI</text></g><g><path fill="white" stroke="black" paint-order="fill stroke markers" d=" M 650.1068446665834 35.52278440700001 A 20.5258112235 20.5258112235 0 1 1 650.1068344036786 35.50225859919747 M 626.8166144230834 14.99697318350001 L 635.1098714830833 8.085925633500011 M 626.8166144230834 14.99697318350001 L 635.1098714830833 21.90802073350001" stroke-miterlimit="10" stroke-width="2.3497561670000002" stroke-dasharray=""/></g><g><g/><text fill="black" stroke="none" font-family="sans-serif" font-size="8pt" font-style="normal" font-weight="normal" text-decoration="normal" x="579.1410920368334" y="71.045568814" text-anchor="start" dominant-baseline="alphabetic" xml:space="preserve">ManagementSystem</text></g><path fill="none" stroke="none"/><g><path fill="white" stroke="black" paint-order="fill stroke markers" d=" M 997.2197390856251 37.87254057400001 L 1065.117494046375 37.87254057400001 L 1065.117494046375 75.19219734400001 L 997.2197390856251 75.19219734400001 L 997.2197390856251 37.87254057400001 Z" stroke-miterlimit="10" stroke-width="2.211535216" stroke-dasharray=""/></g><g><g/><text fill="black" stroke="none" font-family="sans-serif" font-size="8pt" font-style="normal" font-weight="normal" text-decoration="normal" x="1012.2167122691251" y="61.370102243999995" text-anchor="start" dominant-baseline="alphabetic" xml:space="preserve">Cinema</text></g><g><path fill="white" stroke="black" paint-order="fill stroke markers" d=" M 1439.459915812417 33.64297947340001 A 20.5258112235 20.5258112235 0 1 1 1439.459905549512 33.62245366559747 M 1397.2334152819167 56.04859563050001 L 1440.634793895917 56.04859563050001" stroke-miterlimit="10" stroke-width="2.3497561670000002" stroke-dasharray=""/></g><g><g/><text fill="black" stroke="none" font-family="sans-serif" font-size="8pt" font-style="normal" font-weight="normal" text-decoration="normal" x="1385.6145245107919" y="71.045568814" text-anchor="start" dominant-baseline="alphabetic" xml:space="preserve">MovieMapper</text></g><g><path fill="white" stroke="black" paint-order="fill stroke markers" d=" M 1572.5897031075 48.10089094800001 L 1572.5897031075 19.074491238000007 L 1612.9502207995001 19.074491238000007 L 1612.9502207995001 48.10089094800001" stroke-miterlimit="10" stroke-width="2.3497561670000002" stroke-dasharray=""/><path fill="white" stroke="black" paint-order="fill stroke markers" d=" M 1612.9502207995001 18.065478295700007 L 1612.9492117949662 18.15670260293715 L 1612.946184882264 18.247917787819585 L 1612.9411403640827 18.339114728904843 L 1612.9340787448696 18.430284306574812 L 1612.9250007307805 18.521417403947694 L 1612.9139072296095 18.612504907789702 L 1612.9007993506975 18.703537709426353 L 1612.8856784048214 18.794506705653347 L 1612.8685459040632 18.885402799646865 L 1612.8494035616588 18.976216901873258 L 1612.8282532918263 19.066939930997982 L 1612.8050972095753 19.15756281479372 L 1612.7799376304945 19.248076491047623 L 1612.752777070521 19.338471908467483 L 1612.723618245688 19.42874002758689 L 1612.6924640718537 19.518871821669155 L 1612.6593176644096 19.608858277609983 L 1612.624182337969 19.698690396838764 L 1612.587061606035 19.788359196218437 L 1612.5479591806497 19.877855708943788 L 1612.5068789720235 19.967170985438123 L 1612.4638250881428 20.05629609424822 L 1612.4188018343602 20.145222122937476 L 1612.3718137129636 20.23394017897712 L 1612.3228654227257 20.322441390635486 L 1612.271961858435 20.41071690786515 L 1612.2191081104052 20.498757903187958 L 1612.1643094639674 20.586555572577744 L 1612.1075713989405 20.674101136340735 L 1612.0488995890837 20.7613858399935 L 1611.988299901529 20.848400955138427 L 1611.9257783961948 20.935137780336497 L 1611.8613413251794 21.021587641977483 L 1611.7949951321364 21.107741895147257 L 1611.7267464516294 21.193591924492296 L 1611.65660210847 21.279129145081207 L 1611.5845691170339 21.364345003263217 L 1611.5106546805603 21.449230977523516 L 1611.4348661904312 21.533778579335415 L 1611.3572112254324 21.617979354009194 L 1611.2776975509958 21.701824881537547 L 1611.1963331184224 21.785306777437597 L 1611.1131260640877 21.868416693589317 L 1611.028084708628 21.951146319070357 L 1610.9412175561079 22.033487380987104 L 1610.85253329317 22.115431645301985 L 1610.762040788167 22.196970917656856 L 1610.6697490902739 22.278097044192428 L 1610.5756674285835 22.35880191236366 L 1610.4798052111837 22.43907745175098 L 1610.3821720242163 22.518915634867348 L 1610.2827776309184 22.598308477960988 L 1610.181631970647 22.677248041813744 L 1610.0787451578835 22.75572643253502 L 1609.9741274812234 22.83373580235114 L 1609.8677894023474 22.911268350390124 L 1609.7597415549744 22.988316323461788 L 1609.6499947437997 23.06487201683303 L 1609.5385599434123 23.140927774998303 L 1609.4254482972 23.216475992445172 L 1609.3106711162327 23.291509114414854 L 1609.194239878133 23.366019637657672 L 1609.0761662259279 23.4400001111834 L 1608.9564619668836 23.51344313700633 L 1608.835139071327 23.586341370885087 L 1608.712209671446 23.658687523057033 L 1608.5876860600786 23.73047435896723 L 1608.4615806894817 23.801694699991916 L 1608.3339061700876 23.872341424156335 L 1608.204675269242 23.942407466846948 L 1608.0739009099268 24.011885821517872 L 1607.9415961694692 24.080769540391536 L 1607.807774278233 24.149051735153456 L 1607.6724486182957 24.216725577641057 L 1607.5356327221107 24.283784300526488 L 1607.3973402711536 24.350221197993342 L 1607.257585094554 24.416029626407234 L 1607.1163811677136 24.481203004980163 L 1606.9737426109068 24.54573481642858 L 1606.8296836878708 24.609618607625126 L 1606.6842188043777 24.67284799024391 L 1606.5373625067948 24.73541664139936 L 1606.3891294806292 24.797318304278505 L 1606.2395345490604 24.858546788766642 L 1606.0885926714564 24.919095972066344 L 1605.9363189418796 24.978959799309735 L 1605.7827285875758 25.038132284163982 L 1605.6278369674526 25.09660750942991 L 1605.4716595705427 25.154379627633716 L 1605.314212014456 25.21144286161173 L 1605.1555100438165 25.267791505088102 L 1604.9955695286894 25.323419923245446 L 1604.8344064629928 25.378322553288296 L 1604.6720369628988 25.432493904999404 L 1604.5084772652222 25.48592856128874 L 1604.3437437257967 25.53862117873521 L 1604.1778528178386 25.59056648812097 L 1604.0108211303004 25.641759294958376 L 1603.8426653662123 25.692194480009405 L 1603.67340234101 25.741866999797576 L 1603.5030489808548 25.790771887112307 L 1603.3316223209415 25.838904251505618 L 1603.1591395037926 25.886259279781186 L 1602.9856177775462 25.932832236475637 L 1602.8110744942305 25.978618464332122 L 1602.6355271080286 26.023613384766 L 1602.458993173532 26.06781249832273 L 1602.281490343988 26.11121138512779 L 1602.1030363695309 26.153805705328658 L 1601.92364909541 26.195591199528817 L 1601.7433464602027 26.236563689213664 L 1601.5621464940227 26.276719077168373 L 1601.3800673167152 26.316053347887618 L 1601.1971271360467 26.354562567977098 L 1601.0133442458825 26.392242886546896 L 1600.8287370243586 26.429090535596558 L 1600.6433239320431 26.46510183039188 L 1600.457123510091 26.5002731698334 L 1600.270154378389 26.534601036816476 L 1600.0824352336947 26.568081998583022 L 1599.8939848477662 26.60071270706476 L 1599.7048220654847 26.63248989921803 L 1599.5149658029713 26.663410397350102 L 1599.3244350456937 26.693471109436928 L 1599.133248846569 26.722669029432353 L 1598.9414263240574 26.7510012375687 L 1598.7489866602518 26.77846490064878 L 1598.555949098958 26.805057272329158 L 1598.3623329437714 26.830775693394834 L 1598.168157556146 26.855617592025126 L 1597.973442353459 26.879580484050884 L 1597.778206807068 26.90266197320286 L 1597.5824704403651 26.924859751351384 L 1597.3862528268241 26.946171598737138 L 1597.1895735880425 26.96659538419314 L 1596.9924523917807 26.986129065357865 L 1596.7949089499937 27.00477068887948 L 1596.596963016861 27.022518390611154 L 1596.3986343868112 27.03937039579752 L 1596.1999428925421 27.055325019252088 L 1596.0009084030373 27.070380665525818 L 1595.80155082158 27.084535829066628 L 1595.601890083762 27.097789094369954 L 1595.4019461554913 27.110139136120317 L 1595.2017390309934 27.121584719323828 L 1595.0012887308144 27.132124699431706 L 1594.8006152998169 27.141758022454724 L 1594.5997388051771 27.15048372506861 L 1594.398679334377 27.15830093471037 L 1594.197456993196 27.165208869665555 L 1593.9960919037007 27.17120683914643 L 1593.794604202232 27.176294243361042 L 1593.5930140373923 27.180470573573206 L 1593.3913415680304 27.18373541215339 L 1593.1896069612244 27.186088432620444 L 1592.9878303902676 27.18752939967429 L 1592.7860320326486 27.188058169219428 L 1592.5842320680351 27.187674688379335 L 1592.3824506762555 27.186378995501777 L 1592.1807080352805 27.184171220154965 L 1591.9790243192065 27.181051583114595 L 1591.7774196962366 27.17702039634177 L 1591.5759143266653 27.172078062951805 L 1591.3745283608619 27.166225077173927 L 1591.1732819372546 27.159462024301828 L 1590.9721951803185 27.15178958063516 L 1590.7712881985617 27.143208513411906 L 1590.5705810825145 27.13371968073163 L 1590.370093902722 27.12332403146969 L 1590.1698467077345 27.112022605182354 L 1589.9698595221048 27.099816532002833 L 1589.7701523443848 27.086707032528267 L 1589.570745145126 27.072695417697688 L 1589.3716578648819 27.057783088660898 L 1589.1729104122148 27.041971536638375 L 1588.9745226617042 27.025262342772145 L 1588.77651445196 27.007657177967666 L 1588.5789055836383 26.98915780272675 L 1588.3817158174609 26.96976606697151 L 1588.1849648722402 26.94948390985936 L 1587.9886724229068 26.928313359589104 L 1587.7928580985422 26.906256533198132 L 1587.5975414804154 26.883315636350694 L 1587.4027421000255 26.859492963117372 L 1587.2084794371483 26.834790895745627 L 1587.0147729178884 26.809211904421616 L 1586.821641912736 26.78275854702315 L 1586.6291057346307 26.755433468863927 L 1586.4371836370299 26.727239402428996 L 1586.2458948119834 26.6981791671015 L 1586.0552583882143 26.668255668880757 L 1585.8652934292063 26.637471900091654 L 1585.676018931297 26.605830939085415 L 1585.487453821778 26.573335949931778 L 1585.2996169570035 26.53999018210257 L 1585.1125271205037 26.505796970146797 L 1584.9262030211057 26.470759733357152 L 1584.7406632910647 26.43488197542812 L 1584.5559264841986 26.398167284105593 L 1584.3720110740346 26.360619330828115 L 1584.1889354519603 26.32224187035971 L 1584.0067179253854 26.28303874041446 L 1583.8253767159106 26.243013861272683 L 1583.6449299575056 26.20217123538894 L 1583.465395694696 26.160514946991775 L 1583.2867918807588 26.11804916167533 L 1583.109136375926 26.07477812598274 L 1582.9324469456005 26.03070616698151 L 1582.7567412585777 25.985837691830824 L 1582.58203688528 25.940177187340804 L 1582.4083512959996 25.893729219523845 L 1582.2357018591501 25.846498433138024 L 1582.0641058395315 25.798489551222623 L 1581.8935803966026 25.74970737462582 L 1581.724142582766 25.700156781524633 L 1581.5558093416616 25.64984272693707 L 1581.3885975064732 25.59877024222667 L 1581.2225237982452 25.546944434599336 L 1581.0576048242099 25.49437048659265 L 1580.893857076127 25.441053655557596 L 1580.7312969286354 25.386999273132844 L 1580.569940637614 25.3322127447116 L 1580.4098043385575 25.27669954890105 L 1580.2509040449625 25.220465236974505 L 1580.0932556467258 25.163515432316306 L 1579.9368749085559 25.105855829859454 L 1579.7817774683963 25.04749219551615 L 1579.6279788358615 24.98843036560119 L 1579.4754943906871 24.928676246248344 L 1579.3243393811904 24.86823581281976 L 1579.174528922746 24.807115109308405 L 1579.0260779962755 24.74532024773371 L 1578.8790014467472 24.68285740753032 L 1578.733313981694 24.61973283493021 L 1578.589030169741 24.555952842338044 L 1578.4461644391486 24.49152380769992 L 1578.3047310763714 24.42645217386562 L 1578.1647442246274 24.360744447944292 L 1578.0262178824855 24.294407200653783 L 1577.8891659024641 24.227447065663533 L 1577.7536019896474 24.159870738931243 L 1577.6195397003135 24.09168497803327 L 1577.4869924405793 24.022896601488892 L 1577.355973465061 23.95351248807843 L 1577.2264958755463 23.883539576155414 L 1577.0985726196868 23.812984862952717 L 1576.9722164897012 23.741855403882866 L 1576.847440121097 23.6701583118325 L 1576.7242559914075 23.597900756451068 L 1576.6026764189428 23.5250899634339 L 1576.482713561559 23.451733213799617 L 1576.3643794154414 23.377837843162055 L 1576.2476858139066 23.303411240996702 L 1576.1326444262172 23.228460849901744 L 1576.019266756416 23.15299416485384 L 1575.9075641421757 23.077018732458605 L 1575.7975477536647 23.00054215019596 L 1575.68922859243 22.923572065660405 L 1575.5826174902975 22.846116175796254 L 1575.4777251082887 22.768182226127944 L 1575.374561935554 22.6897780099855 L 1575.2731382883253 22.610911367725194 L 1575.173464308882 22.53159018594554 L 1575.07554996454 22.451822396698603 L 1574.9794050466514 22.37161597669684 L 1574.885039169628 22.29097894651542 L 1574.792461769979 22.209919369790153 L 1574.7016821053671 22.128445352411166 L 1574.612709253683 22.046565041712302 L 1574.5255521121383 21.9642866256564 L 1574.4402193963738 21.881618332016497 L 1574.3567196395904 21.79856842755307 L 1574.275061191694 21.715145217187356 L 1574.1952522184615 21.631357043170873 L 1574.1173007007237 21.547212284251195 L 1574.0412144335671 21.4627193548341 L 1573.9670010255554 21.377886704142114 L 1573.8946678979673 21.29272281536962 L 1573.8242222840556 21.207236204834516 L 1573.7556712283226 21.12143542112662 L 1573.689021585817 21.03532904425281 L 1573.6242800214475 20.948925684779006 L 1573.5614530093164 20.862233982969162 L 1573.5005468320728 20.77526260792121 L 1573.4415675802836 20.688020256700185 L 1573.3845211518246 20.600515653468506 L 1573.3294132512915 20.51275754861357 L 1573.276249389428 20.424754717872737 L 1573.2250348825762 20.336515961455746 L 1573.1757748521443 20.2480501031647 L 1573.128474224094 20.159365989511716 L 1573.0831377284487 20.07047248883425 L 1573.0397698988204 19.98137849040829 L 1572.9983750719557 19.89209290355944 L 1572.958957387303 19.80262465677198 L 1572.9215207865977 19.712982696796026 L 1572.8860690134688 19.62317598775288 L 1572.852605613064 19.533213510238607 L 1572.8211339316956 19.443104260425986 L 1572.7916571165053 19.352857249164913 L 1572.7641781151503 19.262481501081304 L 1572.7386996755076 19.171986053674658 L 1572.7152243454002 19.0813799564143 L 1572.6937544723412 18.99067226983445 L 1572.6742922033004 18.899872064628184 L 1572.656839484488 18.80898842074035 L 1572.641398061162 18.7180304264596 L 1572.6279694774512 18.627007177509565 L 1572.616555076203 18.53592777613929 L 1572.6071559988482 18.44480133021301 L 1572.5997731852867 18.35363695229938 L 1572.5944073737935 18.26244375876022 L 1572.5910591009454 18.171230868838894 L 1572.5897287015666 18.08000740374838 L 1572.5904163086964 17.98878248575917 L 1572.5931218535745 17.89756523728704 L 1572.5978450656485 17.80636477998082 L 1572.6045854726012 17.71519023381025 L 1572.6133424003979 17.624050716153963 L 1572.6241149733523 17.532955340887774 L 1572.636902114217 17.4419132174733 L 1572.651702544288 17.350933450047012 L 1572.6685147835346 17.26002513650984 L 1572.6873371507472 17.16919736761737 L 1572.7081677637045 17.07845922607082 L 1572.7310045393626 16.987819785608714 L 1572.7558451940633 16.897288110099574 L 1572.7826872437615 16.8068732526355 L 1572.8115280042746 16.716584254626905 L 1572.8423645915507 16.62643014489834 L 1572.8751939219567 16.536419938785652 L 1572.9100127125869 16.446562637234447 L 1572.946817481591 16.356867225899993 L 1572.9856045485235 16.26734267424868 L 1573.0263700347095 16.177997934661075 L 1573.0691098636344 16.08884194153668 L 1573.113819761351 15.999883610400506 L 1573.1604952569066 15.911131837011538 L 1573.209131682791 15.82259549647316 L 1573.2597241754015 15.734283442345639 L 1573.3122676755315 15.6462045057608 L 1573.3667569288746 15.558367494538897 L 1573.4231864865508 15.47078119230786 L 1573.4815507056514 15.383454357624922 L 1573.5418437498033 15.296395723100778 L 1573.604059589752 15.209613994526332 L 1573.6681920039657 15.123117850002128 L 1573.7342345792563 15.036915939070532 L 1573.8021807114212 14.951016881850805 L 1573.872023605904 14.865429268177088 L 1573.943756278473 14.780161656739425 L 1574.0173715559215 14.695222574227904 L 1574.0928620767825 14.610620514479992 L 1574.1702202920667 14.526363937631164 L 1574.2494384660176 14.44246126926889 L 1574.3305086768835 14.358920899590089 L 1574.4134228177106 14.27575118256211 L 1574.4981725971545 14.19296043508735 L 1574.5847495403077 14.110556936171564 L 1574.6731449895476 14.028548926095976 L 1574.7633501054036 13.946944605593249 L 1574.8553558674387 13.865752135027433 L 1574.9491530751536 13.784979633577926 L 1575.0447323489059 13.704635178427559 L 1575.1420841308477 13.624726803954896 L 1575.2411986858817 13.545262500930793 L 1575.3420661026353 13.466250215719334 L 1575.4446762944508 13.387697849483194 L 1575.5490190003945 13.30961325739354 L 1575.6550837862828 13.23200424784451 L 1575.7628600457256 13.154878581672381 L 1575.8723370011865 13.078243971379504 L 1575.9835037050614 13.002108080363044 L 1576.0963490407723 12.926478522148656 L 1576.21086172388 12.851362859629138 L 1576.3270303032114 12.776768604308145 L 1576.4448431620053 12.702703215549048 L 1576.5642885190744 12.629174099829003 L 1576.685354429982 12.556188609998305 L 1576.8080287882383 12.483754044545117 L 1576.9322993265096 12.411877646865625 L 1577.0581536178456 12.340566604539697 L 1577.1855790769218 12.26982804861214 L 1577.314562961299 12.199669052879603 L 1577.4450923726959 12.130096633183188 L 1577.5771542582802 12.06111774670689 L 1577.7107354119732 11.992739291281874 L 1577.8458224757712 11.924968104696699 L 1577.9824019410803 11.857810964013552 L 1578.1204601500676 11.791274584890534 L 1578.2599832970272 11.725365620910111 L 1578.400957429761 11.660090662913756 L 1578.5433684509733 11.595456238342878 L 1578.68720211968 11.531468810586066 L 1578.8324440526349 11.468134778332775 L 1578.979079725765 11.405460474933456 L 1579.1270944756254 11.343452167766216 L 1579.2764735008648 11.282116057610097 L 1579.427201863705 11.221458278025008 L 1579.5792644914352 11.16148489473835 L 1579.7326461779192 11.10220190503848 L 1579.8873315851165 11.043615237174969 L 1580.043305244615 10.985730749765775 L 1580.2005515591793 10.928554231211407 L 1580.3590548043082 10.87209139911607 L 1580.5187991298096 10.816347899715922 L 1580.6797685613844 10.76132930731445 L 1580.841947002223 10.707041123725045 L 1581.0053182346169 10.653488777720831 L 1581.1698659215788 10.600677624491773 L 1581.3355736084773 10.548612945109191 L 1581.5024247246813 10.497299945997636 L 1581.6704025852189 10.446743758414254 L 1581.8394903924436 10.396949437935678 L 1582.009671237716 10.347921963952459 L 1582.1809281030928 10.299666239171138 L 1582.3532438630305 10.252187089123984 L 1582.5266012860968 10.20548926168643 L 1582.7009830366937 10.159577426602311 L 1582.8763716767915 10.114456175016873 L 1583.0527496676723 10.070130019017672 L 1583.230099371684 10.026603391183372 L 1583.408403054004 9.983880644140482 L 1583.5876428844128 9.941966050128107 L 1583.7678009390766 9.900863800570718 L 1583.94885920234 9.86057800565902 L 1584.1307995685277 9.82111269393893 L 1584.3136038437544 9.782471811908737 L 1584.4972537477454 9.744659223624438 L 1584.681730915663 9.707678710313356 L 1584.867016899944 9.671533969996 L 1585.0530931721448 9.636228617116288 L 1585.239941124793 9.60176618218008 L 1585.427542073249 9.568150111402154 L 1585.6158772575745 9.535383766361576 L 1585.8049278444078 9.503470423665544 L 1585.9946749288479 9.472413274621731 L 1586.1850995363443 9.442215424919162 L 1586.376182624595 9.412879894317644 L 1586.5679050854505 9.384409616345788 L 1586.7602477468247 9.35680743800767 L 1586.9531913746112 9.330076119498116 L 1587.1467166746083 9.304218333926707 L 1587.3408042944475 9.27923666705045 L 1587.535434825528 9.255133617015213 L 1587.7305888049596 9.231911594105915 L 1587.9262467175063 9.209572920505497 L 1588.1223889975402 9.1881198300627 L 1588.3189960309967 9.167554468068694 L 1588.5160481573364 9.147878891042538 L 1588.713525671511 9.129095066525542 L 1588.9114088259332 9.1112048728845 L 1589.1096778324527 9.09421009912387 L 1589.308312864334 9.078112444706866 L 1589.5072940582397 9.062913519385516 L 1589.706601516216 9.048614843039683 L 1589.9062153076834 9.03521784552509 L 1590.1061154714287 9.022723866530322 L 1590.3062820176024 9.011134155442866 L 1590.5066949297166 9.000449871224175 L 1590.7073341666471 8.990672082293766 L 1590.9081796646376 8.981801766422386 L 1591.1092113393054 8.973839810634226 L 1591.3104090876507 8.966787011118234 L 1591.5117527900663 8.960644073148481 L 1591.7132223123497 8.955411611013648 L 1591.9147975077167 8.951090147955588 L 1592.1164582188155 8.947680116117002 L 1592.3181842797433 8.945181856498236 L 1592.5199555180618 8.943595618923167 L 1592.7217517568158 8.942921562014233 L 1592.923552816549 8.94315975317656 L 1593.125338517324 8.944310168591237 L 1593.3270886807388 8.946372693217674 L 1593.5287831319451 8.949347120805129 L 1593.730401701666 8.953233153913324 L 1593.9319242282124 8.958030403942185 L 1594.1333305594997 8.963738391170708 L 1594.3346005550625 8.970356544804925 L 1594.5357140880687 8.97788420303499 L 1594.7366510473332 8.98632061310135 L 1594.9373913393272 8.99566493137003 L 1595.1379148901888 9.00591622341699 L 1595.33820164773 9.017073464121571 L 1595.538231583442 9.029135537768996 L 1595.7379846944978 9.042101238161953 L 1595.937441005753 9.055969268741208 L 1596.1365805717423 9.070738242715262 L 1596.3353834786756 9.086406683199021 L 1596.5338298464274 9.102973023361494 L 1596.7318998305263 9.120435606582474 L 1596.9295736241393 9.138792686618187 L 1597.1268314600513 9.158042427775927 L 1597.3236536126437 9.178182905097621 L 1597.5200203998647 9.199212104552322 L 1597.7159121851996 9.221127923237606 L 1597.9113093796327 9.243928169589871 L 1598.1061924436078 9.267610563603478 L 1598.3005418889807 9.292172737058763 L 1598.4943382809688 9.317612233758847 L 1598.6875622400946 9.343926509775264 L 1598.880194444123 9.371112933702335 L 1599.0722156299942 9.399168786920328 L 1599.2636065957495 9.428091263867296 L 1599.454348202452 9.45787747231965 L 1599.6444213761 9.488524433681365 L 1599.833807109534 9.520029083281843 L 1600.0224864643394 9.55238827068238 L 1600.2104405727373 9.585598759991202 L 1600.3976506394736 9.619657230187048 L 1600.5840979436978 9.654560275451288 L 1600.7697638408347 9.690304405508478 L 1600.9546297644492 9.726886045975398 L 1601.1386772281035 9.764301538718486 L 1601.321887827204 9.802547142219648 L 1601.5042432408436 9.841619031950406 L 1601.685725233633 9.881513300754346 L 1601.8663156575244 9.92222595923783 L 1602.0459964536258 9.963752936168941 L 1602.224749654007 10.00609007888459 L 1602.402557383497 10.049233153705785 L 1602.579401861471 10.093177846360998 L 1602.755265403629 10.137919762417582 L 1602.930130423763 10.18345442772122 L 1603.1039794355167 10.229777288843323 L 1603.2767950541338 10.276883713536382 L 1603.4485599981967 10.324768991197185 L 1603.6192570913538 10.373428333337866 L 1603.788869264038 10.422856874064767 L 1603.957379555174 10.473049670564997 L 1604.1247711138722 10.52400170360074 L 1604.2910272011168 10.575707878011151 L 1604.4561311914376 10.628163023221877 L 1604.620066574573 10.681361893762105 L 1604.7828169571212 10.73529916978912 L 1604.9443660641798 10.789969457620263 L 1605.1046977409728 10.84536729027231 L 1605.2637959544659 10.90148712800816 L 1605.4216447949702 10.958323358890807 L 1605.5782284777335 11.015870299344526 L 1605.733531344518 11.074122194723225 L 1605.8875378651662 11.133073219885913 L 1606.0402326391545 11.192717479779198 L 1606.1916003971328 11.253049010026789 L 1606.3416260024514 11.314061777525946 L 1606.490294452675 11.375749681050758 L 1606.637590881082 11.43810655186228 L 1606.7835005581526 11.501126154325393 L 1606.9280088930407 11.564802186532368 L 1607.0711014350331 11.629128280933049 L 1607.212763874995 11.6940980049716 L 1607.3529820468002 11.759704861729757 L 1607.4917419287488 11.825942290576517 L 1607.6290296449679 11.892803667824193 L 1607.7648314668004 11.96028230739078 L 1607.899133814177 12.02837146146855 L 1608.0319232569755 12.097064321198838 L 1608.1631865163617 12.166354017352914 L 1608.2929104661193 12.236233621018904 L 1608.4210821339614 12.306696144294676 L 1608.547688702828 12.377734540986618 L 1608.6727175121678 12.449341707314261 L 1608.796156059204 12.521510482620645 L 1608.9179920001845 12.594233650088377 L 1609.0382131516171 12.667503937461316 L 1609.1568074914867 12.741314017771781 L 1609.2737631604582 12.815656510073252 L 1609.3890684630621 12.890523980178447 L 1609.5027118688645 12.965908941402748 L 1609.614682013619 13.04180385531285 L 1609.7249677004047 13.11820113248061 L 1609.833557900745 13.195093133241976 L 1609.94044175571 13.272472168460947 L 1610.0456085770036 13.350330500298481 L 1610.1490478480312 13.42866034298628 L 1610.2507492249517 13.507453863605349 L 1610.3507025377126 13.586703182869286 L 1610.4488977910655 13.666400375912204 L 1610.545325165567 13.746537473081217 L 1610.63997501856 13.827106460733386 L 1610.7328378851382 13.908099282037085 L 1610.8239044790923 13.989507837777682 L 1610.9131656938387 14.071323987167439 L 1611.0006126033304 14.1535395486596 L 1611.0862364629493 14.236146300766524 L 1611.1700287103806 14.319135982881845 L 1611.2519809664695 14.402500296106505 L 1611.332085036059 14.486230904078653 L 1611.4103329088084 14.570319433807267 L 1611.486716759996 14.654757476509447 L 1611.5612289513 14.739536588451287 L 1611.633862031564 14.824648291792245 L 1611.7046087375397 14.910084075432911 L 1611.773461994616 14.995835395866116 L 1611.8404149175242 15.081893678031278 L 1611.905460811028 15.168250316171896 L 1611.9685931705922 15.254896674696116 L 1612.0298056830336 15.341824089040294 L 1612.089092227152 15.429023866535433 L 1612.146446874342 15.516487287276451 L 1612.201863889187 15.604205604994158 L 1612.2553377300317 15.692170047929883 L 1612.3068630495366 15.780371819712634 L 1612.3564346952126 15.868802100238737 L 1612.404047709936 15.957452046553826 L 1612.449697332446 16.046312793737147 L 1612.4933789978174 16.135375455788033 L 1612.5350883379208 16.2246311265145 L 1612.5748211818566 16.314070880423845 L 1612.6125735563733 16.40368577361522 L 1612.6483416862654 16.49346684467398 L 1612.6821219947494 16.583405115567835 L 1612.7139111038227 16.67349159254465 L 1612.7437058346009 16.763717267031794 L 1612.7715032076358 16.85407311653701 L 1612.797300443213 16.944550105550636 L 1612.8210949616307 17.03513918644918 L 1612.842884383457 17.12583130040003 L 1612.8626665297675 17.216617378267376 L 1612.8804394223641 17.307488341519083 L 1612.8962012839727 17.398435103134553 L 1612.90995053842 17.48944856851341 L 1612.921685810792 17.580519636384963 L 1612.9314059275714 17.67163919971832 L 1612.9391099167547 17.762798146633074 L 1612.9447970079489 17.8539873613105 L 1612.9484666324502 17.945197724905128 L 1612.9501184232988 18.0364201164566 M 1612.9502207995001 47.09187800570001 L 1612.9492117949662 47.18310231293715 L 1612.946184882264 47.27431749781959 L 1612.9411403640827 47.365514438904846 L 1612.9340787448696 47.45668401657481 L 1612.9250007307805 47.547817113947694 L 1612.9139072296095 47.638904617789706 L 1612.9007993506975 47.729937419426356 L 1612.8856784048214 47.82090641565335 L 1612.8685459040632 47.91180250964687 L 1612.8494035616588 48.002616611873265 L 1612.8282532918263 48.09333964099798 L 1612.8050972095753 48.18396252479373 L 1612.7799376304945 48.27447620104763 L 1612.752777070521 48.36487161846748 L 1612.723618245688 48.45513973758689 L 1612.6924640718537 48.54527153166916 L 1612.6593176644096 48.63525798760998 L 1612.624182337969 48.72509010683876 L 1612.587061606035 48.81475890621844 L 1612.5479591806497 48.90425541894379 L 1612.5068789720235 48.99357069543812 L 1612.4638250881428 49.082695804248225 L 1612.4188018343602 49.17162183293748 L 1612.3718137129636 49.26033988897713 L 1612.3228654227257 49.34884110063549 L 1612.271961858435 49.43711661786516 L 1612.2191081104052 49.525157613187965 L 1612.1643094639674 49.61295528257775 L 1612.1075713989405 49.70050084634074 L 1612.0488995890837 49.78778554999351 L 1611.988299901529 49.87480066513843 L 1611.9257783961948 49.961537490336504 L 1611.8613413251794 50.04798735197749 L 1611.7949951321364 50.134141605147256 L 1611.7267464516294 50.2199916344923 L 1611.65660210847 50.305528855081214 L 1611.5845691170339 50.39074471326322 L 1611.5106546805603 50.47563068752352 L 1611.4348661904312 50.56017828933542 L 1611.3572112254324 50.64437906400919 L 1611.2776975509958 50.72822459153755 L 1611.1963331184224 50.8117064874376 L 1611.1131260640877 50.894816403589324 L 1611.028084708628 50.97754602907036 L 1610.9412175561079 51.059887090987104 L 1610.85253329317 51.14183135530199 L 1610.762040788167 51.22337062765686 L 1610.6697490902739 51.304496754192435 L 1610.5756674285835 51.38520162236367 L 1610.4798052111837 51.46547716175098 L 1610.3821720242163 51.545315344867355 L 1610.2827776309184 51.62470818796099 L 1610.181631970647 51.70364775181375 L 1610.0787451578835 51.78212614253502 L 1609.9741274812234 51.86013551235114 L 1609.8677894023474 51.93766806039013 L 1609.7597415549744 52.014716033461795 L 1609.6499947437997 52.09127172683303 L 1609.5385599434123 52.1673274849983 L 1609.4254482972 52.242875702445176 L 1609.3106711162327 52.31790882441486 L 1609.194239878133 52.39241934765768 L 1609.0761662259279 52.4663998211834 L 1608.9564619668836 52.539842847006334 L 1608.835139071327 52.612741080885094 L 1608.712209671446 52.68508723305703 L 1608.5876860600786 52.756874068967235 L 1608.4615806894817 52.82809440999192 L 1608.3339061700876 52.89874113415634 L 1608.204675269242 52.96880717684695 L 1608.0739009099268 53.03828553151787 L 1607.9415961694692 53.107169250391536 L 1607.807774278233 53.175451445153456 L 1607.6724486182957 53.243125287641064 L 1607.5356327221107 53.31018401052649 L 1607.3973402711536 53.37662090799334 L 1607.257585094554 53.44242933640724 L 1607.1163811677136 53.507602714980166 L 1606.9737426109068 53.572134526428584 L 1606.8296836878708 53.63601831762513 L 1606.6842188043777 53.699247700243916 L 1606.5373625067948 53.76181635139937 L 1606.3891294806292 53.82371801427851 L 1606.2395345490604 53.884946498766645 L 1606.0885926714564 53.945495682066344 L 1605.9363189418796 54.00535950930974 L 1605.7827285875758 54.064531994163985 L 1605.6278369674526 54.123007219429915 L 1605.4716595705427 54.18077933763372 L 1605.314212014456 54.237842571611736 L 1605.1555100438165 54.294191215088105 L 1604.9955695286894 54.349819633245446 L 1604.8344064629928 54.4047222632883 L 1604.6720369628988 54.45889361499941 L 1604.5084772652222 54.512328271288744 L 1604.3437437257967 54.56502088873521 L 1604.1778528178386 54.61696619812098 L 1604.0108211303004 54.66815900495838 L 1603.8426653662123 54.718594190009405 L 1603.67340234101 54.76826670979758 L 1603.5030489808548 54.817171597112306 L 1603.3316223209415 54.865303961505624 L 1603.1591395037926 54.912658989781185 L 1602.9856177775462 54.95923194647564 L 1602.8110744942305 55.00501817433212 L 1602.6355271080286 55.050013094766 L 1602.458993173532 55.09421220832273 L 1602.281490343988 55.137611095127795 L 1602.1030363695309 55.180205415328665 L 1601.92364909541 55.22199090952882 L 1601.7433464602027 55.26296339921367 L 1601.5621464940227 55.30311878716838 L 1601.3800673167152 55.342453057887624 L 1601.1971271360467 55.3809622779771 L 1601.0133442458825 55.418642596546896 L 1600.8287370243586 55.45549024559656 L 1600.6433239320431 55.49150154039188 L 1600.457123510091 55.5266728798334 L 1600.270154378389 55.56100074681648 L 1600.0824352336947 55.594481708583025 L 1599.8939848477662 55.627112417064765 L 1599.7048220654847 55.658889609218036 L 1599.5149658029713 55.689810107350105 L 1599.3244350456937 55.719870819436935 L 1599.133248846569 55.74906873943235 L 1598.9414263240574 55.77740094756871 L 1598.7489866602518 55.80486461064878 L 1598.555949098958 55.83145698232916 L 1598.3623329437714 55.857175403394834 L 1598.168157556146 55.88201730202513 L 1597.973442353459 55.90598019405088 L 1597.778206807068 55.92906168320286 L 1597.5824704403651 55.95125946135139 L 1597.3862528268241 55.972571308737145 L 1597.1895735880425 55.99299509419315 L 1596.9924523917807 56.01252877535787 L 1596.7949089499937 56.03117039887948 L 1596.596963016861 56.04891810061116 L 1596.3986343868112 56.065770105797526 L 1596.1999428925421 56.081724729252095 L 1596.0009084030373 56.096780375525825 L 1595.80155082158 56.11093553906663 L 1595.601890083762 56.12418880436996 L 1595.4019461554913 56.13653884612032 L 1595.2017390309934 56.14798442932383 L 1595.0012887308144 56.158524409431706 L 1594.8006152998169 56.16815773245473 L 1594.5997388051771 56.17688343506861 L 1594.398679334377 56.184700644710375 L 1594.197456993196 56.19160857966556 L 1593.9960919037007 56.197606549146435 L 1593.794604202232 56.20269395336105 L 1593.5930140373923 56.20687028357321 L 1593.3913415680304 56.21013512215339 L 1593.1896069612244 56.212488142620444 L 1592.9878303902676 56.2139291096743 L 1592.7860320326486 56.21445787921943 L 1592.5842320680351 56.21407439837934 L 1592.3824506762555 56.21277870550178 L 1592.1807080352805 56.21057093015497 L 1591.9790243192065 56.2074512931146 L 1591.7774196962366 56.203420106341774 L 1591.5759143266653 56.19847777295181 L 1591.3745283608619 56.192624787173926 L 1591.1732819372546 56.18586173430183 L 1590.9721951803185 56.17818929063517 L 1590.7712881985617 56.16960822341191 L 1590.5705810825145 56.16011939073163 L 1590.370093902722 56.14972374146969 L 1590.1698467077345 56.13842231518235 L 1589.9698595221048 56.12621624200283 L 1589.7701523443848 56.113106742528274 L 1589.570745145126 56.099095127697694 L 1589.3716578648819 56.084182798660905 L 1589.1729104122148 56.06837124663838 L 1588.9745226617042 56.051662052772144 L 1588.77651445196 56.034056887967665 L 1588.5789055836383 56.01555751272676 L 1588.3817158174609 55.996165776971516 L 1588.1849648722402 55.97588361985936 L 1587.9886724229068 55.954713069589104 L 1587.7928580985422 55.93265624319813 L 1587.5975414804154 55.9097153463507 L 1587.4027421000255 55.885892673117375 L 1587.2084794371483 55.861190605745634 L 1587.0147729178884 55.835611614421616 L 1586.821641912736 55.80915825702316 L 1586.6291057346307 55.781833178863934 L 1586.4371836370299 55.753639112429 L 1586.2458948119834 55.72457887710151 L 1586.0552583882143 55.69465537888076 L 1585.8652934292063 55.66387161009166 L 1585.676018931297 55.63223064908542 L 1585.487453821778 55.59973565993178 L 1585.2996169570035 55.56638989210258 L 1585.1125271205037 55.5321966801468 L 1584.9262030211057 55.497159443357155 L 1584.7406632910647 55.46128168542812 L 1584.5559264841986 55.4245669941056 L 1584.3720110740346 55.387019040828115 L 1584.1889354519603 55.34864158035972 L 1584.0067179253854 55.30943845041446 L 1583.8253767159106 55.269413571272686 L 1583.6449299575056 55.22857094538894 L 1583.465395694696 55.18691465699178 L 1583.2867918807588 55.14444887167533 L 1583.109136375926 55.10117783598274 L 1582.9324469456005 55.05710587698152 L 1582.7567412585777 55.01223740183083 L 1582.58203688528 54.96657689734081 L 1582.4083512959996 54.92012892952385 L 1582.2357018591501 54.87289814313803 L 1582.0641058395315 54.82488926122262 L 1581.8935803966026 54.77610708462583 L 1581.724142582766 54.72655649152463 L 1581.5558093416616 54.67624243693707 L 1581.3885975064732 54.62516995222667 L 1581.2225237982452 54.57334414459934 L 1581.0576048242099 54.52077019659265 L 1580.893857076127 54.467453365557596 L 1580.7312969286354 54.41339898313285 L 1580.569940637614 54.358612454711604 L 1580.4098043385575 54.30309925890105 L 1580.2509040449625 54.24686494697451 L 1580.0932556467258 54.18991514231631 L 1579.9368749085559 54.13225553985946 L 1579.7817774683963 54.073891905516156 L 1579.6279788358615 54.014830075601196 L 1579.4754943906871 53.95507595624835 L 1579.3243393811904 53.89463552281976 L 1579.174528922746 53.83351481930841 L 1579.0260779962755 53.77171995773371 L 1578.8790014467472 53.70925711753032 L 1578.733313981694 53.64613254493022 L 1578.589030169741 53.582352552338044 L 1578.4461644391486 53.51792351769993 L 1578.3047310763714 53.45285188386562 L 1578.1647442246274 53.3871441579443 L 1578.0262178824855 53.320806910653786 L 1577.8891659024641 53.25384677566353 L 1577.7536019896474 53.186270448931246 L 1577.6195397003135 53.11808468803328 L 1577.4869924405793 53.049296311488895 L 1577.355973465061 52.97991219807844 L 1577.2264958755463 52.909939286155414 L 1577.0985726196868 52.83938457295272 L 1576.9722164897012 52.76825511388287 L 1576.847440121097 52.6965580218325 L 1576.7242559914075 52.62430046645107 L 1576.6026764189428 52.5514896734339 L 1576.482713561559 52.47813292379962 L 1576.3643794154414 52.40423755316206 L 1576.2476858139066 52.3298109509967 L 1576.1326444262172 52.25486055990175 L 1576.019266756416 52.179393874853844 L 1575.9075641421757 52.103418442458604 L 1575.7975477536647 52.02694186019596 L 1575.68922859243 51.94997177566041 L 1575.5826174902975 51.87251588579626 L 1575.4777251082887 51.79458193612795 L 1575.374561935554 51.7161777199855 L 1575.2731382883253 51.6373110777252 L 1575.173464308882 51.55798989594554 L 1575.07554996454 51.47822210669861 L 1574.9794050466514 51.398015686696844 L 1574.885039169628 51.31737865651542 L 1574.792461769979 51.23631907979016 L 1574.7016821053671 51.15484506241117 L 1574.612709253683 51.072964751712306 L 1574.5255521121383 50.990686335656406 L 1574.4402193963738 50.9080180420165 L 1574.3567196395904 50.82496813755307 L 1574.275061191694 50.74154492718736 L 1574.1952522184615 50.65775675317087 L 1574.1173007007237 50.573611994251195 L 1574.0412144335671 50.4891190648341 L 1573.9670010255554 50.40428641414212 L 1573.8946678979673 50.31912252536962 L 1573.8242222840556 50.233635914834515 L 1573.7556712283226 50.14783513112663 L 1573.689021585817 50.06172875425281 L 1573.6242800214475 49.975325394779006 L 1573.5614530093164 49.888633692969165 L 1573.5005468320728 49.80166231792121 L 1573.4415675802836 49.71441996670019 L 1573.3845211518246 49.626915363468505 L 1573.3294132512915 49.53915725861357 L 1573.276249389428 49.45115442787274 L 1573.2250348825762 49.362915671455745 L 1573.1757748521443 49.27444981316471 L 1573.128474224094 49.18576569951172 L 1573.0831377284487 49.09687219883425 L 1573.0397698988204 49.007778200408296 L 1572.9983750719557 48.918492613559444 L 1572.958957387303 48.82902436677198 L 1572.9215207865977 48.73938240679603 L 1572.8860690134688 48.64957569775289 L 1572.852605613064 48.55961322023861 L 1572.8211339316956 48.46950397042599 L 1572.7916571165053 48.37925695916492 L 1572.7641781151503 48.28888121108131 L 1572.7386996755076 48.198385763674665 L 1572.7152243454002 48.1077796664143 L 1572.6937544723412 48.017071979834455 L 1572.6742922033004 47.92627177462819 L 1572.656839484488 47.835388130740355 L 1572.641398061162 47.744430136459606 L 1572.6279694774512 47.65340688750957 L 1572.616555076203 47.562327486139296 L 1572.6071559988482 47.47120104021301 L 1572.5997731852867 47.38003666229938 L 1572.5944073737935 47.28884346876023 L 1572.5910591009454 47.1976305788389 L 1572.5897287015666 47.10640711374838" stroke-miterlimit="10" stroke-width="2.3497561670000002" stroke-dasharray=""/></g><g><g/><text fill="black" stroke="none" font-family="sans-serif" font-size="8pt" font-style="normal" font-weight="normal" text-decoration="normal" x="1586.6522861722501" y="71.045568814" text-anchor="start" dominant-baseline="alphabetic" xml:space="preserve">db</text></g></g><g><path fill="white" stroke="black" paint-order="fill stroke markers" d=" M 319.1033136014167 120.80511117400002 L 332.92540870141664 120.80511117400002 L 332.92540870141664 1490.2982936820008 L 319.1033136014167 1490.2982936820008 L 319.1033136014167 120.80511117400002" stroke-miterlimit="10" stroke-width="1.1518412583333333" stroke-dasharray=""/><path fill="white" stroke="black" paint-order="fill stroke markers" d=" M 170.305843156625 202.90835606800002 L 184.12793825662501 202.90835606800002 L 184.12793825662501 241.61022234800004 L 170.305843156625 241.61022234800004 L 170.305843156625 202.90835606800002" stroke-miterlimit="10" stroke-width="1.1518412583333333" stroke-dasharray=""/><path fill="white" stroke="black" paint-order="fill stroke markers" d=" M 170.305843156625 280.312088628 L 184.12793825662501 280.312088628 L 184.12793825662501 396.417687468 L 170.305843156625 396.417687468 L 170.305843156625 280.312088628" stroke-miterlimit="10" stroke-width="1.1518412583333333" stroke-dasharray=""/><path fill="white" stroke="black" paint-order="fill stroke markers" d=" M 11.21484375 319.013954908 L 25.03693885 319.013954908 L 25.03693885 357.715821188 L 11.21484375 357.715821188 L 11.21484375 319.013954908" stroke-miterlimit="10" stroke-width="1.1518412583333333" stroke-dasharray=""/><path fill="white" stroke="black" paint-order="fill stroke markers" d=" M 622.6699858930833 435.119553748 L 636.4920809930834 435.119553748 L 636.4920809930834 1451.5964274020007 L 622.6699858930833 1451.5964274020007 L 622.6699858930833 435.119553748" stroke-miterlimit="10" stroke-width="1.1518412583333333" stroke-dasharray=""/><path fill="white" stroke="black" paint-order="fill stroke markers" d=" M 629.5810334430834 491.790143658 L 643.4031285430834 491.790143658 L 643.4031285430834 1394.9258374920005 L 629.5810334430834 1394.9258374920005 L 629.5810334430834 491.790143658" stroke-miterlimit="10" stroke-width="1.1518412583333333" stroke-dasharray=""/><path fill="white" stroke="black" paint-order="fill stroke markers" d=" M 1024.2575690160002 530.492009938 L 1038.079664116 530.492009938 L 1038.079664116 837.342521158 L 1024.2575690160002 837.342521158 L 1024.2575690160002 530.492009938" stroke-miterlimit="10" stroke-width="1.1518412583333333" stroke-dasharray=""/><path fill="white" stroke="black" paint-order="fill stroke markers" d=" M 1412.023057038917 569.193876218 L 1425.8451521389168 569.193876218 L 1425.8451521389168 798.640654878 L 1412.023057038917 798.640654878 L 1412.023057038917 569.193876218" stroke-miterlimit="10" stroke-width="1.1518412583333333" stroke-dasharray=""/><path fill="white" stroke="black" paint-order="fill stroke markers" d=" M 1418.9341045889169 625.864466128 L 1432.7561996889167 625.864466128 L 1432.7561996889167 741.970064968 L 1418.9341045889169 741.970064968 L 1418.9341045889169 625.864466128" stroke-miterlimit="10" stroke-width="1.1518412583333333" stroke-dasharray=""/><path fill="white" stroke="black" paint-order="fill stroke markers" d=" M 1585.8589144035002 664.566332408 L 1599.6810095035 664.566332408 L 1599.6810095035 703.268198688 L 1585.8589144035002 703.268198688 L 1585.8589144035002 664.566332408" stroke-miterlimit="10" stroke-width="1.1518412583333333" stroke-dasharray=""/><path fill="white" stroke="black" paint-order="fill stroke markers" d=" M 636.4920809930833 946.5370724479999 L 650.3141760930833 946.5370724479999 L 650.3141760930833 1338.2552475820007 L 636.4920809930833 1338.2552475820007 L 636.4920809930833 946.5370724479999" stroke-miterlimit="10" stroke-width="1.1518412583333333" stroke-dasharray=""/><path fill="white" stroke="black" paint-order="fill stroke markers" d=" M 326.01436115141667 985.2389387279999 L 339.8364562514166 985.2389387279999 L 339.8364562514166 1299.5533813020006 L 326.01436115141667 1299.5533813020006 L 326.01436115141667 985.2389387279999" stroke-miterlimit="10" stroke-width="1.1518412583333333" stroke-dasharray=""/><path fill="white" stroke="black" paint-order="fill stroke markers" d=" M 61.895859116666664 1067.342183622 L 75.71795421666667 1067.342183622 L 75.71795421666667 1106.044049902 L 61.895859116666664 1106.044049902 L 61.895859116666664 1067.342183622" stroke-miterlimit="10" stroke-width="1.1518412583333333" stroke-dasharray=""/><path fill="white" stroke="black" paint-order="fill stroke markers" d=" M 61.895859116666664 1144.7459161820002 L 75.71795421666667 1144.7459161820002 L 75.71795421666667 1260.8515150220005 L 61.895859116666664 1260.8515150220005 L 61.895859116666664 1144.7459161820002" stroke-miterlimit="10" stroke-width="1.1518412583333333" stroke-dasharray=""/><path fill="white" stroke="black" paint-order="fill stroke markers" d=" M 11.21484375 1183.4477824620003 L 25.03693885 1183.4477824620003 L 25.03693885 1222.1496487420004 L 11.21484375 1222.1496487420004 L 11.21484375 1183.4477824620003" stroke-miterlimit="10" stroke-width="1.1518412583333333" stroke-dasharray=""/><g><g><rect fill="white" stroke="none" x="139.03054599820837" y="102.83638754400002" width="59.168112905" height="17.96872363"/></g><text fill="black" stroke="none" font-family="sans-serif" font-size="8pt" font-style="normal" font-weight="normal" text-decoration="normal" x="141.10386026320836" y="115.27627313400002" text-anchor="start" dominant-baseline="alphabetic" xml:space="preserve">addMovie()</text></g><g><path fill="none" stroke="black" paint-order="fill stroke markers" d=" M 18.1258913 120.80511117400002 L 307.72312196908337 120.80511117400002" stroke-miterlimit="10" stroke-width="1.1518412583333333" stroke-dasharray=""/><g transform="translate(319.1033136014167,120.80511117400002) translate(-319.1033136014167,-120.80511117400002)"><path fill="black" stroke="none" paint-order="stroke fill markers" d=" M 307.5849010180834 115.04590488233335 L 319.1033136014167 120.80511117400002 L 307.5849010180834 126.56431746566669 Z"/></g></g><g><path fill="white" stroke="black" paint-order="fill stroke markers" d=" M 204.65374948012501 162.06406504749998 A 20.5258112235 20.5258112235 0 1 1 204.65373921722025 162.04353923969742 M 150.954910016625 140.36337574049998 L 150.954910016625 183.76475435449998 M 149.780031933125 162.06406504749998 L 163.60212703312502 162.06406504749998" stroke-miterlimit="10" stroke-width="2.3497561670000002" stroke-dasharray=""/></g><g><g/><text fill="black" stroke="none" font-family="sans-serif" font-size="8pt" font-style="normal" font-weight="normal" text-decoration="normal" x="146.95346297225" y="197.5868494545" text-anchor="start" dominant-baseline="alphabetic" xml:space="preserve">MovieDialog</text></g><g><g><rect fill="white" stroke="none" x="227.29198808433333" y="154.254581316" width="71.99965587375" height="17.96872363"/></g><text fill="black" stroke="none" font-family="sans-serif" font-size="8pt" font-style="normal" font-weight="normal" text-decoration="normal" x="229.36530234933332" y="166.69446690600003" text-anchor="start" dominant-baseline="alphabetic" xml:space="preserve">MovieDialog()</text></g><g><path fill="none" stroke="black" paint-order="fill stroke markers" d=" M 319.1033136014167 172.223304946 L 218.86051007333333 172.223304946" stroke-miterlimit="10" stroke-width="1.1518412583333333" stroke-dasharray=""/><g transform="translate(207.480318441,172.223304946) translate(-207.480318441,-172.223304946)"><path fill="black" stroke="none" paint-order="stroke fill markers" d=" M 218.99873102433335 166.46409865433336 L 207.480318441 172.223304946 L 218.99873102433335 177.98251123766667 Z"/></g></g><g><g><rect fill="white" stroke="none" x="249.54231166402084" y="223.64149871800004" width="4.14662853" height="17.96872363"/></g><text fill="black" stroke="none" font-family="sans-serif" font-size="8pt" font-style="normal" font-weight="normal" text-decoration="normal" x="251.61562592902084" y="236.08138430800005" text-anchor="start" dominant-baseline="alphabetic" xml:space="preserve"></text></g><g><path fill="none" stroke="black" paint-order="fill stroke markers" d=" M 184.12793825662501 241.61022234800004 L 307.72312196908337 241.61022234800004" stroke-miterlimit="10" stroke-width="1.1518412583333333" stroke-dasharray="5.52883804"/><g transform="translate(319.1033136014167,241.61022234800004) translate(-319.1033136014167,-241.61022234800004)"><path fill="black" stroke="none" paint-order="stroke fill markers" d=" M 307.5849010180834 235.85101605633338 L 319.1033136014167 241.61022234800004 L 307.5849010180834 247.3694286396667 Z"/></g></g><g><g><rect fill="white" stroke="none" x="212.45490932027084" y="262.343364998" width="78.3214332175" height="17.96872363"/></g><text fill="black" stroke="none" font-family="sans-serif" font-size="8pt" font-style="normal" font-weight="normal" text-decoration="normal" x="214.52822358527084" y="274.78325058800004" text-anchor="start" dominant-baseline="alphabetic" xml:space="preserve">showAndWait()</text></g><g><path fill="none" stroke="black" paint-order="fill stroke markers" d=" M 319.1033136014167 280.312088628 L 195.50812988895834 280.312088628" stroke-miterlimit="10" stroke-width="1.1518412583333333" stroke-dasharray=""/><g transform="translate(184.12793825662501,280.312088628) translate(-184.12793825662501,-280.312088628)"><path fill="black" stroke="none" paint-order="stroke fill markers" d=" M 195.64635083995836 274.55288233633337 L 184.12793825662501 280.312088628 L 195.64635083995836 286.0712949196667 Z"/></g></g><g><g><rect fill="white" stroke="none" x="95.59807673831251" y="301.045231278" width="4.14662853" height="17.96872363"/></g><text fill="black" stroke="none" font-family="sans-serif" font-size="8pt" font-style="normal" font-weight="normal" text-decoration="normal" x="97.67139100331251" y="313.48511686800003" text-anchor="start" dominant-baseline="alphabetic" xml:space="preserve"></text></g><g><path fill="none" stroke="black" paint-order="fill stroke markers" d=" M 170.305843156625 319.013954908 L 36.417130482333334 319.013954908" stroke-miterlimit="10" stroke-width="1.1518412583333333" stroke-dasharray=""/><g transform="translate(25.03693885,319.013954908) translate(-25.03693885,-319.013954908)"><path fill="black" stroke="none" paint-order="stroke fill markers" d=" M 36.55535143333333 313.25474861633336 L 25.03693885 319.013954908 L 36.55535143333333 324.7731611996667 Z"/></g></g><g><g><rect fill="white" stroke="none" x="95.59807673831251" y="339.747097558" width="4.14662853" height="17.96872363"/></g><text fill="black" stroke="none" font-family="sans-serif" font-size="8pt" font-style="normal" font-weight="normal" text-decoration="normal" x="97.67139100331251" y="352.186983148" text-anchor="start" dominant-baseline="alphabetic" xml:space="preserve"></text></g><g><path fill="none" stroke="black" paint-order="fill stroke markers" d=" M 25.03693885 357.715821188 L 158.92565152429168 357.715821188" stroke-miterlimit="10" stroke-width="1.1518412583333333" stroke-dasharray="5.52883804"/><g transform="translate(170.305843156625,357.715821188) translate(-170.305843156625,-357.715821188)"><path fill="black" stroke="none" paint-order="stroke fill markers" d=" M 158.78743057329166 351.95661489633335 L 170.305843156625 357.715821188 L 158.78743057329166 363.47502747966666 Z"/></g></g><g><g><rect fill="white" stroke="none" x="200.63581752339584" y="378.448963838" width="101.95961681125" height="17.96872363"/></g><text fill="black" stroke="none" font-family="sans-serif" font-size="8pt" font-style="normal" font-weight="normal" text-decoration="normal" x="202.70913178839584" y="390.888849428" text-anchor="start" dominant-baseline="alphabetic" xml:space="preserve">returnm:MovieInfo</text></g><g><path fill="none" stroke="black" paint-order="fill stroke markers" d=" M 184.12793825662501 396.417687468 L 307.72312196908337 396.417687468" stroke-miterlimit="10" stroke-width="1.1518412583333333" stroke-dasharray=""/><g transform="translate(319.1033136014167,396.417687468) translate(-319.1033136014167,-396.417687468)"><path fill="black" stroke="none" paint-order="stroke fill markers" d=" M 307.5849010180834 390.65848117633334 L 319.1033136014167 396.417687468 L 307.5849010180834 402.17689375966665 Z"/></g></g><g><g><rect fill="white" stroke="none" x="352.73707834475" y="417.150830118" width="250.121237905" height="17.96872363"/></g><text fill="black" stroke="none" font-family="sans-serif" font-size="8pt" font-style="normal" font-weight="normal" text-decoration="normal" x="354.81039260975" y="429.590715708" text-anchor="start" dominant-baseline="alphabetic" xml:space="preserve">addMovie(title:String,runningTime:int,year:int)</text></g><g><path fill="none" stroke="black" paint-order="fill stroke markers" d=" M 332.92540870141664 435.119553748 L 611.28979426075 435.119553748" stroke-miterlimit="10" stroke-width="1.1518412583333333" stroke-dasharray=""/><g transform="translate(622.6699858930833,435.119553748) translate(-622.6699858930833,-435.119553748)"><path fill="black" stroke="none" paint-order="stroke fill markers" d=" M 611.15157330975 429.36034745633333 L 622.6699858930833 435.119553748 L 611.15157330975 440.87876003966664 Z"/></g></g><g><g><rect fill="white" stroke="none" x="659.7592744114166" y="455.852696398" width="342.48256603" height="17.96872363"/></g><text fill="black" stroke="none" font-family="sans-serif" font-size="8pt" font-style="normal" font-weight="normal" text-decoration="normal" x="661.8325886764167" y="468.292581988" text-anchor="start" dominant-baseline="alphabetic" xml:space="preserve">checkDoubleAdded(title:String,runningTime:Integer,year:Integer)</text></g><g><path fill="none" stroke="black" paint-order="fill stroke markers" d=" M 636.4920809930834 473.821420028 L 698.6915089430834 473.821420028 L 698.6915089430834 491.790143658 L 654.7833201754166 491.790143658" stroke-miterlimit="10" stroke-width="1.1518412583333333" stroke-dasharray=""/><g transform="translate(643.4031285430833,491.790143658) translate(-643.4031285430833,-491.790143658)"><path fill="black" stroke="none" paint-order="stroke fill markers" d=" M 654.9215411264166 486.0309373663333 L 643.4031285430833 491.790143658 L 654.9215411264166 497.54934994966663 Z"/></g></g><g><g><rect fill="white" stroke="none" x="663.2147981864167" y="512.523286308" width="341.23110118625" height="17.96872363"/></g><text fill="black" stroke="none" font-family="sans-serif" font-size="8pt" font-style="normal" font-weight="normal" text-decoration="normal" x="665.2881124514167" y="524.963171898" text-anchor="start" dominant-baseline="alphabetic" xml:space="preserve">checkExistedMovie(title:String,runningTime:Integer,year:Integer)</text></g><g><path fill="none" stroke="black" paint-order="fill stroke markers" d=" M 643.4031285430833 530.492009938 L 1012.8773773836668 530.492009938" stroke-miterlimit="10" stroke-width="1.1518412583333333" stroke-dasharray=""/><g transform="translate(1024.2575690160002,530.492009938) translate(-1024.2575690160002,-530.492009938)"><path fill="black" stroke="none" paint-order="stroke fill markers" d=" M 1012.7391564326668 524.7328036463333 L 1024.2575690160002 530.492009938 L 1012.7391564326668 536.2512162296667 Z"/></g></g><g><g><rect fill="white" stroke="none" x="1054.4358099843337" y="551.225152588" width="341.23110118625" height="17.96872363"/></g><text fill="black" stroke="none" font-family="sans-serif" font-size="8pt" font-style="normal" font-weight="normal" text-decoration="normal" x="1056.5091242493336" y="563.6650381779999" text-anchor="start" dominant-baseline="alphabetic" xml:space="preserve">checkExistedMovie(title:String,runningTime:Integer,year:Integer)</text></g><g><path fill="none" stroke="black" paint-order="fill stroke markers" d=" M 1038.079664116 569.193876218 L 1400.6428654065835 569.193876218" stroke-miterlimit="10" stroke-width="1.1518412583333333" stroke-dasharray=""/><g transform="translate(1412.023057038917,569.193876218) translate(-1412.023057038917,-569.193876218)"><path fill="black" stroke="none" paint-order="stroke fill markers" d=" M 1400.5046444555835 563.4346699263333 L 1412.023057038917 569.193876218 L 1400.5046444555835 574.9530825096667 Z"/></g></g><g><g><rect fill="white" stroke="none" x="1449.1123455572504" y="589.927018868" width="131.90883556125" height="17.96872363"/></g><text fill="black" stroke="none" font-family="sans-serif" font-size="8pt" font-style="normal" font-weight="normal" text-decoration="normal" x="1451.1856598222503" y="602.3669044579999" text-anchor="start" dominant-baseline="alphabetic" xml:space="preserve">performSelect(sql:String)</text></g><g><path fill="none" stroke="black" paint-order="fill stroke markers" d=" M 1425.8451521389168 607.895742498 L 1488.044580088917 607.895742498 L 1488.044580088917 625.864466128 L 1444.1363913212504 625.864466128" stroke-miterlimit="10" stroke-width="1.1518412583333333" stroke-dasharray=""/><g transform="translate(1432.756199688917,625.864466128) translate(-1432.756199688917,-625.864466128)"><path fill="black" stroke="none" paint-order="stroke fill markers" d=" M 1444.2746122722504 620.1052598363333 L 1432.756199688917 625.864466128 L 1444.2746122722504 631.6236724196667 Z"/></g></g><g><g><rect fill="white" stroke="none" x="1458.3250630937086" y="646.597608778" width="101.964987905" height="17.96872363"/></g><text fill="black" stroke="none" font-family="sans-serif" font-size="8pt" font-style="normal" font-weight="normal" text-decoration="normal" x="1460.3983773587086" y="659.0374943679999" text-anchor="start" dominant-baseline="alphabetic" xml:space="preserve">execute(sql:String)</text></g><g><path fill="none" stroke="black" paint-order="fill stroke markers" d=" M 1432.756199688917 664.566332408 L 1574.4787227711668 664.566332408" stroke-miterlimit="10" stroke-width="1.1518412583333333" stroke-dasharray=""/><g transform="translate(1585.8589144035002,664.566332408) translate(-1585.8589144035002,-664.566332408)"><path fill="black" stroke="none" paint-order="stroke fill markers" d=" M 1574.3405018201668 658.8071261163333 L 1585.8589144035002 664.566332408 L 1574.3405018201668 670.3255386996667 Z"/></g></g><g><g><rect fill="white" stroke="none" x="1507.2342427812086" y="685.299475058" width="4.14662853" height="17.96872363"/></g><text fill="black" stroke="none" font-family="sans-serif" font-size="8pt" font-style="normal" font-weight="normal" text-decoration="normal" x="1509.3075570462086" y="697.7393606479999" text-anchor="start" dominant-baseline="alphabetic" xml:space="preserve"></text></g><g><path fill="none" stroke="black" paint-order="fill stroke markers" d=" M 1585.8589144035002 703.268198688 L 1444.1363913212504 703.268198688" stroke-miterlimit="10" stroke-width="1.1518412583333333" stroke-dasharray="5.52883804"/><g transform="translate(1432.756199688917,703.268198688) translate(-1432.756199688917,-703.268198688)"><path fill="black" stroke="none" paint-order="stroke fill markers" d=" M 1444.2746122722504 697.5089923963333 L 1432.756199688917 703.268198688 L 1444.2746122722504 709.0274049796667 Z"/></g></g><g><g><rect fill="white" stroke="none" x="1449.1123455572504" y="724.001341338" width="54.89272228" height="17.96872363"/></g><text fill="black" stroke="none" font-family="sans-serif" font-size="8pt" font-style="normal" font-weight="normal" text-decoration="normal" x="1451.1856598222503" y="736.4412269279999" text-anchor="start" dominant-baseline="alphabetic" xml:space="preserve">returntrue</text></g><g><path fill="none" stroke="black" paint-order="fill stroke markers" d=" M 1432.756199688917 741.970064968 L 1488.044580088917 741.970064968 L 1488.044580088917 759.938788598 L 1437.2253437712504 759.938788598" stroke-miterlimit="10" stroke-width="1.1518412583333333" stroke-dasharray="5.52883804"/><g transform="translate(1425.845152138917,759.938788598) translate(-1425.845152138917,-759.938788598)"><path fill="black" stroke="none" paint-order="stroke fill markers" d=" M 1437.3635647222504 754.1795823063333 L 1425.845152138917 759.938788598 L 1437.3635647222504 765.6979948896667 Z"/></g></g><g><g><rect fill="white" stroke="none" x="1197.6049994374587" y="780.671931248" width="54.89272228" height="17.96872363"/></g><text fill="black" stroke="none" font-family="sans-serif" font-size="8pt" font-style="normal" font-weight="normal" text-decoration="normal" x="1199.6783137024586" y="793.1118168379999" text-anchor="start" dominant-baseline="alphabetic" xml:space="preserve">returntrue</text></g><g><path fill="none" stroke="black" paint-order="fill stroke markers" d=" M 1412.023057038917 798.640654878 L 1049.4598557483334 798.640654878" stroke-miterlimit="10" stroke-width="1.1518412583333333" stroke-dasharray="5.52883804"/><g transform="translate(1038.079664116,798.640654878) translate(-1038.079664116,-798.640654878)"><path fill="black" stroke="none" paint-order="stroke fill markers" d=" M 1049.5980766993334 792.8814485863332 L 1038.079664116 798.640654878 L 1049.5980766993334 804.3998611696667 Z"/></g></g><g><g><rect fill="white" stroke="none" x="806.3839876395417" y="819.373797528" width="54.89272228" height="17.96872363"/></g><text fill="black" stroke="none" font-family="sans-serif" font-size="8pt" font-style="normal" font-weight="normal" text-decoration="normal" x="808.4573019045417" y="831.8136831179999" text-anchor="start" dominant-baseline="alphabetic" xml:space="preserve">returntrue</text></g><g><path fill="none" stroke="black" paint-order="fill stroke markers" d=" M 1024.2575690160002 837.342521158 L 654.7833201754166 837.342521158" stroke-miterlimit="10" stroke-width="1.1518412583333333" stroke-dasharray="5.52883804"/><g transform="translate(643.4031285430833,837.342521158) translate(-643.4031285430833,-837.342521158)"><path fill="black" stroke="none" paint-order="stroke fill markers" d=" M 654.9215411264166 831.5833148663332 L 643.4031285430833 837.342521158 L 654.9215411264166 843.1017274496667 Z"/></g></g><path fill="white" stroke="black" paint-order="fill stroke markers" d=" M 500.17101827183336 858.075663808 L 746.5511630243333 858.075663808 L 758.9910486143333 870.515549398 L 758.9910486143333 889.8664825379999 L 500.17101827183336 889.8664825379999 L 500.17101827183336 858.075663808 M 746.5511630243333 858.075663808 L 746.5511630243333 870.515549398 L 758.9910486143333 870.515549398" stroke-miterlimit="10" stroke-width="1.1518412583333333" stroke-dasharray=""/><g><text fill="black" stroke="none" font-family="sans-serif" font-size="8pt" font-style="normal" font-weight="normal" text-decoration="normal" x="519.5219514118334" y="877.4265969479998" text-anchor="start" dominant-baseline="alphabetic" xml:space="preserve">anothermovieisfoundthatoverlapswiththis</text></g><g><g><rect fill="white" stroke="none" x="666.6703219614167" y="910.5996251879999" width="260.32631603" height="17.96872363"/></g><text fill="black" stroke="none" font-family="sans-serif" font-size="8pt" font-style="normal" font-weight="normal" text-decoration="normal" x="668.7436362264167" y="923.0395107779998" text-anchor="start" dominant-baseline="alphabetic" xml:space="preserve">observerMessage(message:String,false:Boolean)</text></g><g><path fill="none" stroke="black" paint-order="fill stroke markers" d=" M 643.4031285430833 928.5683488179999 L 705.6025564930834 928.5683488179999 L 705.6025564930834 946.5370724479999 L 661.6943677254167 946.5370724479999" stroke-miterlimit="10" stroke-width="1.1518412583333333" stroke-dasharray=""/><g transform="translate(650.3141760930833,946.5370724479999) translate(-650.3141760930833,-946.5370724479999)"><path fill="black" stroke="none" paint-order="stroke fill markers" d=" M 661.8325886764167 940.7778661563332 L 650.3141760930833 946.5370724479999 L 661.8325886764167 952.2962787396666 Z"/></g></g><g><g><rect fill="white" stroke="none" x="379.39954810725" y="967.2702150979999" width="217.52944103" height="17.96872363"/></g><text fill="black" stroke="none" font-family="sans-serif" font-size="8pt" font-style="normal" font-weight="normal" text-decoration="normal" x="381.47286237225" y="979.7101006879998" text-anchor="start" dominant-baseline="alphabetic" xml:space="preserve">message(message:String,false:Boolean)</text></g><g><path fill="none" stroke="black" paint-order="fill stroke markers" d=" M 636.4920809930834 985.2389387279999 L 351.21664788375 985.2389387279999" stroke-miterlimit="10" stroke-width="1.1518412583333333" stroke-dasharray=""/><g transform="translate(339.8364562514167,985.2389387279999) translate(-339.8364562514167,-985.2389387279999)"><path fill="black" stroke="none" paint-order="stroke fill markers" d=" M 351.35486883475 979.4797324363332 L 339.8364562514167 985.2389387279999 L 351.35486883475 990.9981450196666 Z"/></g></g><g><path fill="white" stroke="black" paint-order="fill stroke markers" d=" M 96.24376544016667 1026.4978926014996 A 20.5258112235 20.5258112235 0 1 1 96.24375517726192 1026.477366793697 M 42.54492597666666 1004.7972032944997 L 42.54492597666666 1048.1985819084998 M 41.370047893166664 1026.4978926014996 L 55.19214299316666 1026.4978926014996" stroke-miterlimit="10" stroke-width="2.3497561670000002" stroke-dasharray=""/></g><g><g/><text fill="black" stroke="none" font-family="sans-serif" font-size="8pt" font-style="normal" font-weight="normal" text-decoration="normal" x="57.49806877604166" y="1062.0206770085" text-anchor="start" dominant-baseline="alphabetic" xml:space="preserve">Alert</text></g><g><g><rect fill="white" stroke="none" x="144.33510391941667" y="1018.68840887" width="131.30727306125" height="17.96872363"/></g><text fill="black" stroke="none" font-family="sans-serif" font-size="8pt" font-style="normal" font-weight="normal" text-decoration="normal" x="146.40841818441666" y="1031.12829446" text-anchor="start" dominant-baseline="alphabetic" xml:space="preserve">Alert(warning:AlertType)</text></g><g><path fill="none" stroke="black" paint-order="fill stroke markers" d=" M 326.01436115141667 1036.6571325 L 105.34331138099999 1036.6571325" stroke-miterlimit="10" stroke-width="1.1518412583333333" stroke-dasharray=""/><g transform="translate(93.96311974866666,1036.6571325) translate(-93.96311974866666,-1036.6571325)"><path fill="black" stroke="none" paint-order="stroke fill markers" d=" M 105.48153233199999 1030.8979262083333 L 93.96311974866666 1036.6571325 L 105.48153233199999 1042.4163387916667 Z"/></g></g><g><g><rect fill="white" stroke="none" x="198.79284341904167" y="1088.075326272" width="4.14662853" height="17.96872363"/></g><text fill="black" stroke="none" font-family="sans-serif" font-size="8pt" font-style="normal" font-weight="normal" text-decoration="normal" x="200.86615768404167" y="1100.5152118620001" text-anchor="start" dominant-baseline="alphabetic" xml:space="preserve"></text></g><g><path fill="none" stroke="black" paint-order="fill stroke markers" d=" M 75.71795421666667 1106.044049902 L 314.63416951908334 1106.044049902" stroke-miterlimit="10" stroke-width="1.1518412583333333" stroke-dasharray="5.52883804"/><g transform="translate(326.01436115141667,1106.044049902) translate(-326.01436115141667,-1106.044049902)"><path fill="black" stroke="none" paint-order="stroke fill markers" d=" M 314.49594856808335 1100.2848436103334 L 326.01436115141667 1106.044049902 L 314.49594856808335 1111.8032561936668 Z"/></g></g><g><g><rect fill="white" stroke="none" x="160.17736490341667" y="1126.777192552" width="81.37758556125" height="17.96872363"/></g><text fill="black" stroke="none" font-family="sans-serif" font-size="8pt" font-style="normal" font-weight="normal" text-decoration="normal" x="162.25067916841667" y="1139.2170781420002" text-anchor="start" dominant-baseline="alphabetic" xml:space="preserve">showAndWait();</text></g><g><path fill="none" stroke="black" paint-order="fill stroke markers" d=" M 326.01436115141667 1144.7459161820002 L 87.098145849 1144.7459161820002" stroke-miterlimit="10" stroke-width="1.1518412583333333" stroke-dasharray=""/><g transform="translate(75.71795421666667,1144.7459161820002) translate(-75.71795421666667,-1144.7459161820002)"><path fill="black" stroke="none" paint-order="stroke fill markers" d=" M 87.2363668 1138.9867098903335 L 75.71795421666667 1144.7459161820002 L 87.2363668 1150.505122473667 Z"/></g></g><g><g><rect fill="white" stroke="none" x="41.393084718333334" y="1165.4790588320002" width="4.14662853" height="17.96872363"/></g><text fill="black" stroke="none" font-family="sans-serif" font-size="8pt" font-style="normal" font-weight="normal" text-decoration="normal" x="43.466398983333335" y="1177.9189444220003" text-anchor="start" dominant-baseline="alphabetic" xml:space="preserve"></text></g><g><path fill="none" stroke="black" paint-order="fill stroke markers" d=" M 61.895859116666664 1183.4477824620003 L 36.417130482333334 1183.4477824620003" stroke-miterlimit="10" stroke-width="1.1518412583333333" stroke-dasharray=""/><g transform="translate(25.03693885,1183.4477824620003) translate(-25.03693885,-1183.4477824620003)"><path fill="black" stroke="none" paint-order="stroke fill markers" d=" M 36.55535143333333 1177.6885761703336 L 25.03693885 1183.4477824620003 L 36.55535143333333 1189.206988753667 Z"/></g></g><g><g><rect fill="white" stroke="none" x="41.393084718333334" y="1204.1809251120003" width="4.14662853" height="17.96872363"/></g><text fill="black" stroke="none" font-family="sans-serif" font-size="8pt" font-style="normal" font-weight="normal" text-decoration="normal" x="43.466398983333335" y="1216.6208107020004" text-anchor="start" dominant-baseline="alphabetic" xml:space="preserve"></text></g><g><path fill="none" stroke="black" paint-order="fill stroke markers" d=" M 25.03693885 1222.1496487420004 L 50.51566748433333 1222.1496487420004" stroke-miterlimit="10" stroke-width="1.1518412583333333" stroke-dasharray="5.52883804"/><g transform="translate(61.895859116666664,1222.1496487420004) translate(-61.895859116666664,-1222.1496487420004)"><path fill="black" stroke="none" paint-order="stroke fill markers" d=" M 50.37744653333333 1216.3904424503337 L 61.895859116666664 1222.1496487420004 L 50.37744653333333 1227.9088550336671 Z"/></g></g><g><g><rect fill="white" stroke="none" x="169.44787271591667" y="1242.8827913920004" width="62.83656993625" height="17.96872363"/></g><text fill="black" stroke="none" font-family="sans-serif" font-size="8pt" font-style="normal" font-weight="normal" text-decoration="normal" x="171.52118698091667" y="1255.3226769820005" text-anchor="start" dominant-baseline="alphabetic" xml:space="preserve">returnresult</text></g><g><path fill="none" stroke="black" paint-order="fill stroke markers" d=" M 75.71795421666667 1260.8515150220005 L 314.63416951908334 1260.8515150220005" stroke-miterlimit="10" stroke-width="1.1518412583333333" stroke-dasharray="5.52883804"/><g transform="translate(326.01436115141667,1260.8515150220005) translate(-326.01436115141667,-1260.8515150220005)"><path fill="black" stroke="none" paint-order="stroke fill markers" d=" M 314.49594856808335 1255.0923087303338 L 326.01436115141667 1260.8515150220005 L 314.49594856808335 1266.6107213136672 Z"/></g></g><g><g><rect fill="white" stroke="none" x="458.577526622875" y="1281.5846576720005" width="59.17348399875" height="17.96872363"/></g><text fill="black" stroke="none" font-family="sans-serif" font-size="8pt" font-style="normal" font-weight="normal" text-decoration="normal" x="460.650840887875" y="1294.0245432620006" text-anchor="start" dominant-baseline="alphabetic" xml:space="preserve">returnfalse</text></g><g><path fill="none" stroke="black" paint-order="fill stroke markers" d=" M 339.8364562514167 1299.5533813020006 L 625.1118893607501 1299.5533813020006" stroke-miterlimit="10" stroke-width="1.1518412583333333" stroke-dasharray="5.52883804"/><g transform="translate(636.4920809930834,1299.5533813020006) translate(-636.4920809930834,-1299.5533813020006)"><path fill="black" stroke="none" paint-order="stroke fill markers" d=" M 624.9736684097501 1293.794175010334 L 636.4920809930834 1299.5533813020006 L 624.9736684097501 1305.3125875936673 Z"/></g></g><g><g><rect fill="white" stroke="none" x="666.6703219614167" y="1320.2865239520006" width="59.17348399875" height="17.96872363"/></g><text fill="black" stroke="none" font-family="sans-serif" font-size="8pt" font-style="normal" font-weight="normal" text-decoration="normal" x="668.7436362264167" y="1332.7264095420007" text-anchor="start" dominant-baseline="alphabetic" xml:space="preserve">returnfalse</text></g><g><path fill="none" stroke="black" paint-order="fill stroke markers" d=" M 650.3141760930833 1338.2552475820007 L 705.6025564930834 1338.2552475820007 L 705.6025564930834 1356.2239712120006 L 654.7833201754166 1356.2239712120006" stroke-miterlimit="10" stroke-width="1.1518412583333333" stroke-dasharray="5.52883804"/><g transform="translate(643.4031285430833,1356.2239712120006) translate(-643.4031285430833,-1356.2239712120006)"><path fill="black" stroke="none" paint-order="stroke fill markers" d=" M 654.9215411264166 1350.464764920334 L 643.4031285430833 1356.2239712120006 L 654.9215411264166 1361.9831775036673 Z"/></g></g><g><g><rect fill="white" stroke="none" x="659.7592744114166" y="1376.9571138620006" width="59.17348399875" height="17.96872363"/></g><text fill="black" stroke="none" font-family="sans-serif" font-size="8pt" font-style="normal" font-weight="normal" text-decoration="normal" x="661.8325886764167" y="1389.3969994520007" text-anchor="start" dominant-baseline="alphabetic" xml:space="preserve">returnfalse</text></g><g><path fill="none" stroke="black" paint-order="fill stroke markers" d=" M 643.4031285430833 1394.9258374920005 L 698.6915089430834 1394.9258374920005 L 698.6915089430834 1412.8945611220006 L 647.8722726254166 1412.8945611220006" stroke-miterlimit="10" stroke-width="1.1518412583333333" stroke-dasharray="5.52883804"/><g transform="translate(636.4920809930833,1412.8945611220006) translate(-636.4920809930833,-1412.8945611220006)"><path fill="black" stroke="none" paint-order="stroke fill markers" d=" M 648.0104935764166 1407.1353548303339 L 636.4920809930833 1412.8945611220006 L 648.0104935764166 1418.6537674136673 Z"/></g></g><g><g><rect fill="white" stroke="none" x="448.210955297875" y="1433.6277037720006" width="59.17348399875" height="17.96872363"/></g><text fill="black" stroke="none" font-family="sans-serif" font-size="8pt" font-style="normal" font-weight="normal" text-decoration="normal" x="450.284269562875" y="1446.0675893620007" text-anchor="start" dominant-baseline="alphabetic" xml:space="preserve">returnfalse</text></g><g><path fill="none" stroke="black" paint-order="fill stroke markers" d=" M 622.6699858930833 1451.5964274020007 L 344.30560033374996 1451.5964274020007" stroke-miterlimit="10" stroke-width="1.1518412583333333" stroke-dasharray="5.52883804"/><g transform="translate(332.92540870141664,1451.5964274020007) translate(-332.92540870141664,-1451.5964274020007)"><path fill="black" stroke="none" paint-order="stroke fill markers" d=" M 344.44382128474996 1445.837221110334 L 332.92540870141664 1451.5964274020007 L 344.44382128474996 1457.3556336936674 Z"/></g></g><g><g><rect fill="white" stroke="none" x="166.54128818570837" y="1472.3295700520007" width="4.14662853" height="17.96872363"/></g><text fill="black" stroke="none" font-family="sans-serif" font-size="8pt" font-style="normal" font-weight="normal" text-decoration="normal" x="168.61460245070836" y="1484.7694556420008" text-anchor="start" dominant-baseline="alphabetic" xml:space="preserve"></text></g><g><path fill="none" stroke="black" paint-order="fill stroke markers" d=" M 319.1033136014167 1490.2982936820008 L 29.506082932333335 1490.2982936820008" stroke-miterlimit="10" stroke-width="1.1518412583333333" stroke-dasharray="5.52883804"/><g transform="translate(18.1258913,1490.2982936820008) translate(-18.1258913,-1490.2982936820008)"><path fill="black" stroke="none" paint-order="stroke fill markers" d=" M 29.644303883333333 1484.539087390334 L 18.1258913 1490.2982936820008 L 29.644303883333333 1496.0574999736675 Z"/></g></g></g><g/><g/><g/><g/><g/><g/></g></svg>