<svg version="1.1" xmlns="http://www.w3.org/2000/svg" xmlns:xlink="http://www.w3.org/1999/xlink" width="1323" height="1155"><desc>title%20getMovie%20Expanded%0Aparticipant%20Cinema%0Aparticipant%20MovieMapper%0Adatabase%20Database%0Aentity%20m%0A%0Aalt%20movie%20already%20in%20cache%0ACinema-%3EMovieMapper%3AgetMovie(title%20%3A%20String%2C%20runningTime%20%3A%20int%2C%20year%20%3A%20int)%0Aactivate%20MovieMapper%0AMovieMapper-%3EMovieMapper%3AgetFromCacheByDetails(title%20%3A%20String%2C%20runningTime%20%3A%20int%2C%20year%20%3A%20int)%0Anote%20left%20of%20MovieMapper%3AMovie%20found%20in%20cache%0AMovieMapper--%3ECinema%3Areturn%20m%20%3A%20Movie%0Adeactivate%20MovieMapper%0Aelse%20movie%20not%20already%20in%20cache%0ACinema-%3EMovieMapper%3AgetMovie(title%20%3A%20String%2C%20runningTime%20%3A%20int%2C%20year%20%3A%20int)%0Aactivate%20MovieMapper%0AMovieMapper-%3EMovieMapper%3AgetFromCacheByDetails(title%20%3A%20String%2C%20runningTime%20%3A%20int%2C%20year%20%3A%20int)%0Anote%20left%20of%20MovieMapper%3AMovie%20not%20found%20in%20cache%0A%0AMovieMapper-%3EMovieMapper%3AgetMovie(sql%20%3A%20String)%0Aactivate%20MovieMapper%0AMovieMapper-%3EDatabase%3AexecuteQuery(sql%20%3A%20String)%0AMovieMapper-%3E*m%3APersistentMovie(title%20%3A%20String%2C%20runningTime%20%3A%20int%2C%20year%20%3A%20int)%0Aactivate%20m%0Am--%3EMovieMapper%3A%0Adeactivate%20m%0AMovieMapper--%3EMovieMapper%3Areturn%20m%0Adeactivate%20MovieMapper%0A%0AMovieMapper--%3ECinema%3Areturn%20m%20%3A%20Movie%0Adeactivate%20MovieMapper%0A%0Aend</desc><defs/><g><g/><g/><g/><g/><g/><g/><g/><g/><g/><g/><g/><g/><g/><g><rect fill="white" stroke="none" x="0" y="0" width="1323" height="1155"/></g><g><text fill="black" stroke="none" font-family="sans-serif" font-size="16.5pt" font-style="normal" font-weight="normal" text-decoration="normal" x="556.902871352612" y="26.3876361" text-anchor="start" dominant-baseline="alphabetic" xml:space="preserve">getMovie Expanded</text></g><g/><g><path fill="none" stroke="black" paint-order="fill stroke markers" d=" M 79.1629083 138.798965886 L 79.1629083 1155.1803414284" stroke-miterlimit="10" stroke-width="1.4659797833333332" stroke-dasharray="13.532121076923076,5.863919133333333"/><path fill="none" stroke="black" paint-order="fill stroke markers" d=" M 487.9552841096354 138.798965886 L 487.9552841096354 1155.1803414284" stroke-miterlimit="10" stroke-width="1.4659797833333332" stroke-dasharray="13.532121076923076,5.863919133333333"/><path fill="none" stroke="black" paint-order="fill stroke markers" d=" M 990.7620366843751 138.798965886 L 990.7620366843751 1155.1803414284" stroke-miterlimit="10" stroke-width="1.4659797833333332" stroke-dasharray="13.532121076923076,5.863919133333333"/><path fill="none" stroke="black" paint-order="fill stroke markers" d=" M 1235.803010392724 896.5815076483999 L 1235.803010392724 1155.1803414284" stroke-miterlimit="10" stroke-width="1.4659797833333332" stroke-dasharray="13.532121076923076,5.863919133333333"/></g><g><path fill="none" stroke="none"/><g><path fill="white" stroke="black" paint-order="fill stroke markers" d=" M 33.626312336429685 91.301220906 L 124.6995042635703 91.301220906 L 124.6995042635703 138.798965886 L 33.626312336429685 138.798965886 L 33.626312336429685 91.301220906 Z" stroke-miterlimit="10" stroke-width="2.814681184" stroke-dasharray=""/></g><g><g/><text fill="black" stroke="none" font-family="sans-serif" font-size="11pt" font-style="normal" font-weight="normal" text-decoration="normal" x="52.713369115429686" y="121.207208486" text-anchor="start" dominant-baseline="alphabetic" xml:space="preserve">Cinema</text></g><path fill="none" stroke="none"/><g><path fill="white" stroke="black" paint-order="fill stroke markers" d=" M 419.55540689606505 91.301220906 L 556.3551613232057 91.301220906 L 556.3551613232057 138.798965886 L 419.55540689606505 138.798965886 L 419.55540689606505 91.301220906 Z" stroke-miterlimit="10" stroke-width="2.814681184" stroke-dasharray=""/></g><g><g/><text fill="black" stroke="none" font-family="sans-serif" font-size="11pt" font-style="normal" font-weight="normal" text-decoration="normal" x="438.6424636750651" y="121.207208486" text-anchor="start" dominant-baseline="alphabetic" xml:space="preserve">MovieMapper</text></g><g><path fill="white" stroke="black" paint-order="fill stroke markers" d=" M 965.0780708803751 104.31912138199999 L 965.0780708803751 67.37643084199999 L 1016.446002488375 67.37643084199999 L 1016.446002488375 104.31912138199999" stroke-miterlimit="10" stroke-width="2.990598758" stroke-dasharray=""/><path fill="white" stroke="black" paint-order="fill stroke markers" d=" M 1016.446002488375 66.0922325518 L 1016.4447183007865 66.20833621555636 L 1016.4408658664385 66.3244282690431 L 1016.4344455705711 66.4404971031516 L 1016.4254580552088 66.5565311110952 L 1016.4139042190955 66.67251868956978 L 1016.3997852176052 66.78844823991415 L 1016.3831024626263 66.9043081692699 L 1016.3638576224204 67.0200868917406 L 1016.3420526214554 67.13577282955055 L 1016.3176896402134 67.25135441420231 L 1016.2907711149721 67.36682008763378 L 1016.2612997375617 67.48215830337381 L 1016.2292784550951 67.59735752769696 L 1016.1947104696742 67.71240624077679 L 1016.1575992380685 67.82729293783784 L 1016.1179484713705 67.94200613030618 L 1016.0757621346236 68.05653434695814 L 1016.0310444464262 68.1708661350675 L 1015.9837998785102 68.28499006155073 L 1015.9340331552928 68.39889471411026 L 1015.8817492534049 68.51256870237577 L 1015.8269534011931 68.62600065904317 L 1015.7696510781971 68.73917924101131 L 1015.7098480146012 68.85209313051632 L 1015.6475501906621 68.96473103626333 L 1015.5827638361102 69.07708169455563 L 1015.515495429527 69.18913387042103 L 1015.4457516976971 69.3008763587353 L 1015.3735396149356 69.41229798534273 L 1015.2988664023906 69.52338760817354 L 1015.221739527321 69.63413411835798 L 1015.1421667023501 69.74452644133734 L 1015.0601558846942 69.85455353797133 L 1014.9757152753666 69.96420440564195 L 1014.8888533183579 70.07346807935382 L 1014.7995786997914 70.18233363283062 L 1014.7079003470545 70.29079017960771 L 1014.6138274279062 70.39882687412083 L 1014.5173693495601 70.50643291279052 L 1014.4185357577434 70.6135975351026 L 1014.317336535733 70.72031002468414 L 1014.2137818033669 70.82655971037511 L 1014.107881916032 70.93233596729549 L 1013.9996474636288 71.03762821790771 L 1013.889089269512 71.14242593307448 L 1013.7762183894095 71.2467186331116 L 1013.6610461103147 71.35049588883598 L 1013.5435839493598 71.45374732260854 L 1013.423843652663 71.55646260937192 L 1013.3018371941541 71.65863147768304 L 1013.1775767743774 71.76024371074024 L 1013.0510748192711 71.86128914740488 L 1012.9223439789256 71.96175768321748 L 1012.7913971263174 72.0616392714082 L 1012.6582473560228 72.16092392390144 L 1012.5229079829079 72.25960171231469 L 1012.385392540797 72.35766276895136 L 1012.2457147811199 72.45509728778748 L 1012.1038886715362 72.55189552545237 L 1011.9599283945386 72.64804780220294 L 1011.8138483460348 72.74354450289161 L 1011.6656631339079 72.83837607792793 L 1011.5153875765557 72.93253304423341 L 1011.3630367014086 73.02600598618986 L 1011.2086257434274 73.118785556581 L 1011.052170143579 73.21086247752712 L 1010.8936855472931 73.30222754141282 L 1010.7331878028972 73.39287161180788 L 1010.570692960032 73.48278562438078 L 1010.4062172680464 73.5719605878052 L 1010.2397771743725 73.66038758465909 L 1010.071389322881 73.74805777231649 L 1009.9010705522169 73.83496238383165 L 1009.7288378941149 73.92109272881588 L 1009.5547085716977 74.00644019430642 L 1009.3786999977523 74.09099624562788 L 1009.2008297729892 74.17475242724555 L 1009.021115684283 74.2577003636111 L 1008.8395757028927 74.33983176 L 1008.656227982665 74.42113840334106 L 1008.4710908582193 74.50161216303769 L 1008.2841828431137 74.58124499178099 L 1008.095522627994 74.66002892635444 L 1007.9051290787244 74.73795608843025 L 1007.7130212345013 74.81501868535715 L 1007.5192183059489 74.89120901093965 L 1007.3237396731986 74.9665194462087 L 1007.1266048839509 75.0409424601835 L 1006.9278336515202 75.11447061062472 L 1006.7274458528643 75.18709654477856 L 1006.525461526596 75.25881300011211 L 1006.3219008709797 75.32961280503964 L 1006.1167842419112 75.39948887963963 L 1005.9101321508824 75.46843423636287 L 1005.7019652629305 75.53644198073111 L 1005.4923043945706 75.60350531202661 L 1005.2811705117148 75.66961752397214 L 1005.0685847275755 75.73477200540155 L 1004.8545683005541 75.79896224092104 L 1004.6391426321147 75.86218181156053 L 1004.4223292646448 75.92442439541566 L 1004.2041498793003 75.98568376827987 L 1003.9846262938381 76.04595380426694 L 1003.7637804604338 76.10522847642352 L 1003.5416344634866 76.16350185733178 L 1003.3182105174111 76.22076811970217 L 1003.0935309644158 76.27702153695618 L 1002.8676182722686 76.33225648379899 L 1002.6404950320507 76.38646743678191 L 1002.4121839558966 76.43964897485485 L 1002.1827078747239 76.49179577990829 L 1001.9520897359491 76.54290263730519 L 1001.7203526011945 76.59296443640241 L 1001.4875196439799 76.64197617106174 L 1001.2536141474072 76.68993294015058 L 1001.0186595018312 76.73682994803197 L 1000.7826792025206 76.7826625050442 L 1000.5456968473087 76.82742602796976 L 1000.3077361342336 76.87111604049369 L 1000.0688208591681 76.91372817365111 L 999.8289749134409 76.95525816626423 L 999.5882222814464 76.99570186536839 L 999.3465870382474 77.03505522662739 L 999.1040933471668 77.0733143147379 L 998.8607654573716 77.11047530382298 L 998.616627701448 77.1465344778147 L 998.3717044929682 77.1814882308257 L 998.1260203240489 77.21533306750982 L 997.8795997629022 77.24806560341159 L 997.632467451379 77.2796825653047 L 997.3846481025045 77.31018079151929 L 997.1361664980068 77.33955723225817 L 996.8870474858396 77.36780894990176 L 996.6373159776965 77.3949331193018 L 996.3869969465201 77.42092702806399 L 996.1361154240049 77.44578807681908 L 995.8846964980941 77.46951377948295 L 995.6327653104707 77.49210176350509 L 995.3803470540438 77.51354977010593 L 995.1274669704284 77.53385565450264 L 994.8741503474223 77.55301738612376 L 994.6204225164767 77.57103304881205 L 994.366308850163 77.58790084101629 L 994.1118347596364 77.6036190759713 L 993.8570256920938 77.61818618186668 L 993.6019071282295 77.63160070200398 L 993.3465045796875 77.64386129494237 L 993.0908435865094 77.65496673463277 L 992.8349497145821 77.66491591054046 L 992.578848553079 77.67370782775615 L 992.322565711903 77.68134160709545 L 992.0661268191247 77.68781648518677 L 991.8095575184199 77.6931318145477 L 991.5528834665043 77.69728706364975 L 991.2961303305698 77.70028181697145 L 991.0393237857155 77.70211577504 L 990.7824895123823 77.70278875446107 L 990.5256531937833 77.70230068793732 L 990.2688405133364 77.70065162427498 L 990.0120771520956 77.69784172837903 L 989.7553887861831 77.69387128123674 L 989.4988010842214 77.68874067988952 L 989.2423397047671 77.68245043739319 L 988.9860302937444 77.6750011827668 L 988.7298984818808 77.66639366092959 L 988.4739698821439 77.65662873262656 L 988.2182700871806 77.64570737434241 L 987.9628246667571 77.63363067820387 L 987.7076591652028 77.6203998518705 L 987.452799098855 77.60601621841388 L 987.1982699535082 77.59048121618541 L 986.9440971818647 77.57379639867233 L 986.6903062009898 77.5559634343425 L 986.4369223897701 77.53698410647749 L 986.1839710863755 77.51686031299428 L 985.9314775857259 77.49559406625544 L 985.6794671369606 77.47318749286792 L 985.4279649409145 77.44964283347039 L 985.1769961475978 77.42496244250918 L 984.9265858536806 77.3991487880028 L 984.6767590999835 77.3722044512952 L 984.427540868974 77.3441321267976 L 984.1789560822672 77.31493462171906 L 983.9310295981346 77.28461485578573 L 983.6837862090183 77.25317586094897 L 983.437250639051 77.22062078108203 L 983.1914475415842 77.18695287166581 L 982.946401496723 77.15217549946317 L 982.7021370088673 77.11629214218235 L 982.4586785042628 77.07930638812917 L 982.2160503285569 77.04122193584823 L 981.9742767443648 77.002042593753 L 981.7333819288436 76.96177227974506 L 981.4933899712743 76.92041502082225 L 981.2543248706522 76.87797495267598 L 981.0162105332886 76.83445631927773 L 980.7790707704186 76.78986347245454 L 980.5429292958208 76.74420087145396 L 980.307809723446 76.69747308249802 L 980.0737355650555 76.64968477832667 L 979.8407302278699 76.60084073773052 L 979.6088170122291 76.55094584507293 L 979.378019109261 76.50000508980158 L 979.148359598564 76.44802356594954 L 978.9198614458974 76.39500647162588 L 978.6925475008861 76.34095910849587 L 978.4664404947354 76.28588688125075 L 978.2415630379573 76.22979529706737 L 978.0179376181103 76.1726899650574 L 977.7955865975497 76.11457659570647 L 977.5745322111926 76.05546100030305 L 977.3547965642931 75.99534909035746 L 977.1364016302331 75.9342468770106 L 976.9193692483237 75.87216047043285 L 976.7037211216225 75.80909607921315 L 976.4894788147624 75.74506000973807 L 976.2766637517955 75.6800586655612 L 976.0652972140506 75.61409854676278 L 975.8554003380056 75.54718624929971 L 975.646994113173 75.47932846434601 L 975.4400993800018 75.4105319776236 L 975.2347368277927 75.34080366872384 L 975.0309269926299 75.2701505104195 L 974.8286902553272 75.19857956796754 L 974.6280468393895 75.12609799840256 L 974.4290168089914 75.05271304982111 L 974.2316200669701 74.9784320606569 L 974.0358763528351 74.90326245894695 L 973.841805240795 74.82721176158879 L 973.649426137799 74.75028757358876 L 973.4587582815972 74.67249758730159 L 973.2698207388164 74.59384958166106 L 973.0826324030533 74.51435142140221 L 972.8972119929855 74.4340110562748 L 972.7135780504996 74.3528365202484 L 972.5317489388367 74.27083593070897 L 972.3517428407565 74.18801748764713 L 972.1735777567189 74.10438947283818 L 971.9972715030837 74.01996024901389 L 971.8228417103294 73.9347382590263 L 971.6503058212897 73.84873202500339 L 971.4796810894102 73.76195014749688 L 971.3109845770215 73.67440130462221 L 971.1442331536343 73.58609425119072 L 970.9794434942521 73.49703781783415 L 970.8166320777035 73.40724091012163 L 970.6558151849945 73.3167125076691 L 970.4970088976802 73.22546166324135 L 970.3402290962572 73.1334975018468 L 970.1854914585748 73.04082921982494 L 970.032811458268 72.94746608392677 L 969.8822043632094 72.85341743038806 L 969.7336852339834 72.75869266399579 L 969.5872689223786 72.66330125714767 L 969.4429700699045 72.56725274890488 L 969.3008031063259 72.4705567440382 L 969.1607822482209 72.37322291206758 L 969.0229214975586 72.27526098629505 L 968.8872346402991 72.17668076283158 L 968.753735245015 72.07749209961737 L 968.6224366615346 71.97770491543608 L 968.493352019607 71.87732918892296 L 968.3664942275886 71.77637495756703 L 968.241875971153 71.6748523167073 L 968.1195097120221 71.57277141852325 L 967.9994076867197 71.47014247101961 L 967.8815819053482 71.36697573700563 L 967.7660441503876 71.26328153306875 L 967.6528059755171 71.15907022854292 L 967.54187870446 71.05435224447177 L 967.4332734298507 70.94913805256644 L 967.3270010121264 70.84343817415844 L 967.22307207844 70.73726317914753 L 967.1214970215987 70.63062368494474 L 967.0222859990232 70.5235303554106 L 966.9254489317331 70.41599389978884 L 966.8309955033545 70.3080250716354 L 966.7389351591517 70.19963466774314 L 966.6492771050821 70.0908335270621 L 966.5620303068765 69.98163252961568 L 966.4772034891422 69.87204259541265 L 966.39480513449 69.76207468335508 L 966.3148434826868 69.65173979014256 L 966.2373265298313 69.54104894917243 L 966.162262027554 69.43001322943658 L 966.0896574822426 69.31864373441445 L 966.0195201542913 69.20695160096271 L 965.9518570573741 69.09494799820165 L 965.8866749577447 68.98264412639821 L 965.8239803735585 68.87005121584596 L 965.7637795742218 68.75718052574217 L 965.7060785797642 68.64404334306175 L 965.6508831602372 68.53065098142872 L 965.5981988351367 68.41701477998473 L 965.5480308728514 68.30314610225523 L 965.5003842901356 68.1890563350131 L 965.4552638516079 68.07475688714001 L 965.4126740692747 67.96025918848548 L 965.3726192020785 67.84557468872397 L 965.3351032554727 67.73071485620987 L 965.3001299810209 67.61569117683074 L 965.2677028760211 67.50051515285864 L 965.2378251831569 67.3851983018 L 965.2104998901729 67.26975215524384 L 965.1857297295753 67.15418825770858 L 965.1635171783597 67.0385181654877 L 965.1438644577627 66.92275344549402 L 965.12677353304 66.80690567410306 L 965.1122461132697 66.69098643599544 L 965.1002836511818 66.57500732299836 L 965.0908873430125 66.45897993292647 L 965.0840581283848 66.34291586842208 L 965.0797966902144 66.22682673579494 L 965.0781034546416 66.11072414386156 L 965.0789785909885 65.99461970278438 L 965.0824220117424 65.87852502291076 L 965.0884333725639 65.76245171361194 L 965.0970120723221 65.64641138212212 L 965.1081572531539 65.53041563237775 L 965.1218678005507 65.41447606385715 L 965.1381423434692 65.29860427042055 L 965.1569792544686 65.18281183915073 L 965.1783766498735 65.06711034919432 L 965.2023323899622 64.95151137060391 L 965.2288440791807 64.83602646318103 L 965.257909066382 64.72066717532017 L 965.2895244450918 64.60544504285399 L 965.3236870537986 64.49037158789972 L 965.3603934762698 64.37545831770696 L 965.3996400418939 64.26071672350696 L 965.441422826047 64.14615827936355 L 965.4857376504854 64.03179444102564 L 965.5325800837637 63.917636644781794 L 965.5819454416776 63.80369630631649 L 965.6338287877325 63.68998481956863 L 965.6882249336369 63.57651355559212 L 965.7451284398215 63.46329386141881 L 965.8045336159834 63.35033705892376 L 965.8664345216542 63.237654443693096 L 965.930824966795 63.125257283894435 L 965.9976985124149 63.0131568191501 L 966.0670484712152 62.90136425941313 L 966.1388679082577 62.78989078384635 L 966.2131496416586 62.67874753970443 L 966.2898862433063 62.56794564121916 L 966.3690700396049 62.45749616848805 L 966.4506931122405 62.34741016636633 L 966.5347472989739 62.23769864336248 L 966.6212241944565 62.12837257053737 L 966.7101151510709 62.01944288040719 L 966.8014112797953 61.91092046585016 L 966.8951034510931 61.80281617901732 L 966.9911822958252 61.69514083024725 L 967.0896382061871 61.587905186985104 L 967.19046133667 61.48111997270585 L 967.2936416050447 61.37479586584192 L 967.3991686933704 61.2689434987154 L 967.5070320490262 61.16357345647479 L 967.6172208857664 61.05869627603652 L 967.7297241847992 60.954322445031224 L 967.8445306958885 60.85046240075503 L 967.9616289384787 60.74712652912581 L 968.0810072028434 60.644325163644616 L 968.2026535512553 60.54206858436233 L 968.326555819181 60.440367016851674 L 968.4527016164972 60.339230631184634 L 968.5810783287291 60.2386695409155 L 968.7116731183124 60.13869380206951 L 968.8444729258771 60.03931341213722 L 968.9794644715531 59.94053830907482 L 969.1166342562983 59.84237837031029 L 969.2559685632486 59.74484341175572 L 969.3974534590893 59.64794318682568 L 969.5410747954488 59.55168738546191 L 969.686818210313 59.45608563316434 L 969.8346691294621 59.361147490028536 L 969.9846127679273 59.266882449789684 L 970.1366341314696 59.173299938873264 L 970.2907180180794 59.08040931545237 L 970.4468490194964 58.988219868511955 L 970.6050115227508 58.89674081691987 L 970.7651897117238 58.805981308505054 L 970.9273675687301 58.715950419142715 L 971.0915288761191 58.62665715184676 L 971.2576572178968 58.5381104358695 L 971.4257359813678 58.450319125808754 L 971.5957483587954 58.36329200072237 L 971.7676773490837 58.277037763250334 L 971.941505759477 58.19156503874451 L 972.1172162072791 58.10688237440612 L 972.2947911215915 58.022998238431036 L 972.4742127450709 57.93992101916295 L 972.6554631357045 57.85765902425456 L 972.8385241686041 57.776220479836795 L 973.0233775378191 57.695613529696246 L 973.2100047581666 57.61584623446075 L 973.3983871670802 57.53692657079335 L 973.5885059264757 57.45886243059466 L 973.7803420246358 57.38166162021363 L 973.9738762781105 57.30533185966698 L 974.1690893336358 57.229880781867145 L 974.3659616700687 57.155315931859036 L 974.5644736003397 57.08164476606552 L 974.7646052734212 57.008874651541774 L 974.9663366763126 56.93701286523862 L 975.1696476360419 56.866066593274795 L 975.3745178216823 56.79604293021838 L 975.580926746386 56.726948878377314 L 975.7888537694328 56.658791347099225 L 975.9982780982933 56.591577152080426 L 976.2091787907094 56.525313014684414 L 976.4215347567877 56.4600055612697 L 976.6353247611081 56.39566132252722 L 976.8505274248488 56.332286732827214 L 977.0671212279225 56.26988812957585 L 977.2850845111294 56.20847175258143 L 977.5043954783229 56.14804374343051 L 977.725032198589 56.08861014487363 L 977.9469726084396 56.03017690022111 L 978.1701945140186 55.972749852748734 L 978.3946755933214 55.91633474511339 L 978.6203933984273 55.86093721877882 L 978.8473253577437 55.80656281345151 L 979.0754487782639 55.753216966526665 L 979.304740847836 55.70090501254454 L 979.5351786374439 55.649632182656916 L 979.7667391035009 55.59940360410408 L 979.9993990901532 55.550224299702016 L 980.2331353315961 55.50209918734018 L 980.4679244544003 55.45503307948971 L 980.7037429798492 55.40903068272217 L 980.9405673262864 55.3640965972389 L 981.178373811475 55.320235316411 L 981.4171386549646 55.27745122633 L 981.6568379804697 55.23574860536927 L 981.8974478182575 55.19513162375613 L 982.1389441075448 55.15560434315492 L 982.3813026989039 55.11717071626074 L 982.6244993566777 55.07983458640426 L 982.868509761403 55.04359968716735 L 983.1133095122426 55.00846964200974 L 983.3588741294255 54.974447963906684 L 983.6051790566946 54.941538054997615 L 983.8521996637626 54.90974320624601 L 984.0999112487743 54.87906659711026 L 984.3482890407779 54.849511295225696 L 984.597308202201 54.82108025609789 L 984.8469438313351 54.79377632280706 L 985.0971709648253 54.76760222572378 L 985.3479645801668 54.742560582235946 L 985.5992995982069 54.71865389648704 L 985.8511508856534 54.695884559125716 L 986.1034932575874 54.674254847066734 L 986.356301479982 54.65376692326327 L 986.6095502722255 54.63442283649064 L 986.86321430965 54.616224521141405 L 987.1172682260628 54.599173797031916 L 987.3716866162841 54.583272369220396 L 987.626444038687 54.56852182783636 L 987.8815150177415 54.55492364792166 L 988.1368740465623 54.54247918928296 L 988.3924955894591 54.53118969635575 L 988.648354084491 54.52105629807991 L 988.9044239460213 54.51208000778683 L 989.1606795672775 54.504261723098054 L 989.4170953229109 54.497602225835536 L 989.6736455715597 54.49210218194346 L 989.9303046584129 54.487762141421626 L 990.1870469177754 54.484582538270466 L 990.4438466756354 54.482563690447655 L 990.7006782522312 54.481705799836284 L 990.9575159646191 54.4820089522247 L 991.2143341292419 54.48347311729792 L 991.4711070644971 54.486098148640664 L 991.7278090933052 54.48988378375197 L 991.9844145456772 54.49482964407149 L 992.2408977612816 54.50093523501731 L 992.4972330920108 54.50819994603543 L 992.7533949045452 54.5166230506608 L 993.0093575829171 54.52620370658997 L 993.2650955310719 54.53694095576534 L 993.5205831754278 54.54883372447093 L 993.7757949674334 54.56188082343979 L 994.0307053861222 54.5760809479729 L 994.2852889406647 54.591432678069616 L 994.5395201729176 54.607934478569746 L 994.7933736599696 54.62558469930698 L 995.0468240166834 54.644381575273954 L 995.2998458982346 54.66432322679874 L 995.552414002646 54.685407659732796 L 995.8045030733175 54.70763276565041 L 996.0560879015521 54.7309963220595 L 996.3071433290767 54.75549599262389 L 996.5576442505577 54.78112932739696 L 996.8075656161118 54.80789376306658 L 997.0568824338106 54.83578662321149 L 997.3055697721802 54.86480511856891 L 997.5536027626939 54.89494634731351 L 997.8009566022595 54.9262072953475 L 998.047606555699 54.95858483660216 L 998.2935279582225 54.99207573335032 L 998.538696217895 55.02667663653023 L 998.7830868180947 55.0623840860804 L 999.0266753199651 55.09919451128564 L 999.2694373648592 55.13710423113409 L 999.5113486767747 55.17610945468536 L 999.752385064782 55.2162062814496 L 999.9925224254432 55.25739070177756 L 1000.2317367452224 55.29965859726151 L 1000.4700041028868 55.34300574114714 L 1000.7073006718994 55.38742779875617 L 1000.9436027228008 55.43292032791987 L 1001.1788866255831 55.47947877942322 L 1001.413128852052 55.527098497459875 L 1001.64630597818 55.57577472009772 L 1001.8783946864487 55.62550257975505 L 1002.1093717681808 55.67627710368733 L 1002.3392141258606 55.728093214484495 L 1002.567898775444 55.78094573057864 L 1002.7954028486563 55.83482936676219 L 1003.0217035952801 55.88973873471644 L 1003.246778385429 55.945668343550345 L 1003.4706047118119 56.002612600349636 L 1003.6931601919824 56.06056581073608 L 1003.914422570578 56.11952217943694 L 1004.1343697215453 56.179475810864474 L 1004.3529796503525 56.24042070970549 L 1004.5702304961889 56.30235078152091 L 1004.7861005341507 56.36525983335514 L 1005.0005681774144 56.42914157435544 L 1005.213611979394 56.49398961640093 L 1005.4252106358872 56.55979747474145 L 1005.6353429872046 56.62655856864601 L 1005.8439880202859 56.69426622206085 L 1006.0511248708019 56.76291366427705 L 1006.2567328252402 56.83249403060759 L 1006.4607913229765 56.903000363073836 L 1006.6632799583314 56.97442561110128 L 1006.8641784826098 57.04676263222465 L 1007.0634668061267 57.120004192802114 L 1007.261125000216 57.19414296873864 L 1007.4571332992228 57.26917154621842 L 1007.6514721024807 57.34508242244624 L 1007.8441219762714 57.421868006397716 L 1008.0350636557678 57.49952061957846 L 1008.2242780469612 57.57803249679186 L 1008.4117462285701 57.657395786915615 L 1008.5974494539328 57.73760255368685 L 1008.7813691528812 57.81864477649573 L 1008.9634869335989 57.9005143511875 L 1009.1437845844595 57.983203090872934 L 1009.3222440758481 58.06670272674695 L 1009.4988475619643 58.15100490891555 L 1009.6735773826067 58.23610120723078 L 1009.8464160649389 58.32198311213371 L 1010.0173463252368 58.40864203550541 L 1010.1863510706164 58.49606931152578 L 1010.3534134007443 58.58425619754006 L 1010.5185166095267 58.67319387493313 L 1010.6816441867803 58.76287345001139 L 1010.8427798198833 58.853285954892044 L 1011.0019073954065 58.944422348399954 L 1011.1590110007253 59.03627351697172 L 1011.3140749256097 59.12883027556701 L 1011.4670836637968 59.222083368587114 L 1011.6180219145399 59.31602347080043 L 1011.76687458414 59.41064118827504 L 1011.9136267874542 59.50592705931801 L 1012.0582638493842 59.60187155542167 L 1012.2007713063446 59.698465082216345 L 1012.3411349077082 59.79569798042986 L 1012.4793406172322 59.89356052685341 L 1012.6153746144605 59.99204293531392 L 1012.7492232961068 60.0911353576526 L 1012.8808732774146 60.1908278847098 L 1013.0103113934954 60.29111054731588 L 1013.1375247006455 60.39197331728817 L 1013.2625004776401 60.4934061084337 L 1013.3852262270057 60.5953987775579 L 1013.5056896762695 60.69794112547884 L 1013.6238787791873 60.80102289804719 L 1013.7397817169469 60.90463378717158 L 1013.8533868993514 61.00876343184945 L 1013.9646829659772 61.113401419203115 L 1014.0736587873103 61.218537285521016 L 1014.1803034658593 61.32416051730415 L 1014.2846063372454 61.43026055231736 L 1014.3865569712682 61.53682678064554 L 1014.4861451729494 61.643848545754686 L 1014.5833609835516 61.75131514555746 L 1014.6781946815752 61.85921583348345 L 1014.770636783729 61.96753981955375 L 1014.8606780458799 62.07627627146005 L 1014.9483094639769 62.18541431564777 L 1015.0335222749511 62.29494303840343 L 1015.1163079575923 62.404851486946036 L 1015.1966582334014 62.515128670522316 L 1015.2745650674177 62.62576356150581 L 1015.3500206690228 62.736745096499625 L 1015.4230174927193 62.84806217744274 L 1015.4935482388858 62.959703672719826 L 1015.5616058545063 63.07165841827438 L 1015.627183533876 63.18391521872516 L 1015.6902747192817 63.29646284848565 L 1015.7508731016572 63.409290052886675 L 1015.8089726212152 63.52238554930181 L 1015.8645674680517 63.63573802827567 L 1015.9176520827286 63.7493361546548 L 1015.9682211568286 63.86316856872124 L 1016.0162696334864 63.97722388732845 L 1016.0617927078945 64.09149070503959 L 1016.1047858277833 64.20595759526815 L 1016.1452446938766 64.32061311142046 L 1016.1831652603216 64.43544578804045 L 1016.2185437350931 64.55044414195618 L 1016.2513765803734 64.66559667342807 L 1016.281660512905 64.78089186729893 L 1016.30939250432 64.89631819414548 L 1016.3345697814425 65.0118641114312 L 1016.3571898265657 65.12751806466063 L 1016.3772503777037 65.24326848853487 L 1016.3947494288185 65.35910380810796 L 1016.4096852300194 65.47501243994449 L 1016.4220562877385 65.59098279327785 L 1016.4318613648808 65.70700327116936 L 1016.4390994809463 65.8230622716679 L 1016.4437699121297 65.93914818897015 L 1016.4458721913917 66.05524941458111 M 1016.446002488375 103.0349230918 L 1016.4447183007865 103.15102675555636 L 1016.4408658664385 103.2671188090431 L 1016.4344455705711 103.3831876431516 L 1016.4254580552088 103.4992216510952 L 1016.4139042190955 103.61520922956979 L 1016.3997852176052 103.73113877991415 L 1016.3831024626263 103.8469987092699 L 1016.3638576224204 103.9627774317406 L 1016.3420526214554 104.07846336955055 L 1016.3176896402134 104.19404495420231 L 1016.2907711149721 104.30951062763378 L 1016.2612997375617 104.42484884337381 L 1016.2292784550951 104.54004806769696 L 1016.1947104696742 104.65509678077679 L 1016.1575992380685 104.76998347783784 L 1016.1179484713705 104.88469667030618 L 1016.0757621346236 104.99922488695815 L 1016.0310444464262 105.1135566750675 L 1015.9837998785102 105.22768060155073 L 1015.9340331552928 105.34158525411026 L 1015.8817492534049 105.45525924237577 L 1015.8269534011931 105.56869119904317 L 1015.7696510781971 105.68186978101132 L 1015.7098480146012 105.79478367051632 L 1015.6475501906621 105.90742157626333 L 1015.5827638361102 106.01977223455563 L 1015.515495429527 106.13182441042103 L 1015.4457516976971 106.2435668987353 L 1015.3735396149356 106.35498852534273 L 1015.2988664023906 106.46607814817354 L 1015.221739527321 106.57682465835798 L 1015.1421667023501 106.68721698133734 L 1015.0601558846942 106.79724407797133 L 1014.9757152753666 106.90689494564195 L 1014.8888533183579 107.01615861935382 L 1014.7995786997914 107.12502417283062 L 1014.7079003470545 107.23348071960771 L 1014.6138274279062 107.34151741412083 L 1014.5173693495601 107.44912345279052 L 1014.4185357577434 107.5562880751026 L 1014.317336535733 107.66300056468414 L 1014.2137818033669 107.76925025037511 L 1014.107881916032 107.87502650729549 L 1013.9996474636288 107.98031875790771 L 1013.889089269512 108.08511647307448 L 1013.7762183894095 108.1894091731116 L 1013.6610461103147 108.29318642883598 L 1013.5435839493598 108.39643786260854 L 1013.423843652663 108.49915314937192 L 1013.3018371941541 108.60132201768305 L 1013.1775767743774 108.70293425074024 L 1013.0510748192711 108.80397968740488 L 1012.9223439789256 108.90444822321749 L 1012.7913971263174 109.0043298114082 L 1012.6582473560228 109.10361446390144 L 1012.5229079829079 109.20229225231469 L 1012.385392540797 109.30035330895136 L 1012.2457147811199 109.39778782778748 L 1012.1038886715362 109.49458606545237 L 1011.9599283945386 109.59073834220294 L 1011.8138483460348 109.68623504289161 L 1011.6656631339079 109.78106661792793 L 1011.5153875765557 109.87522358423341 L 1011.3630367014086 109.96869652618986 L 1011.2086257434274 110.061476096581 L 1011.052170143579 110.15355301752712 L 1010.8936855472931 110.24491808141282 L 1010.7331878028972 110.33556215180788 L 1010.570692960032 110.42547616438078 L 1010.4062172680464 110.5146511278052 L 1010.2397771743725 110.60307812465909 L 1010.071389322881 110.69074831231649 L 1009.9010705522169 110.77765292383165 L 1009.7288378941149 110.86378326881588 L 1009.5547085716977 110.94913073430642 L 1009.3786999977523 111.03368678562788 L 1009.2008297729892 111.11744296724555 L 1009.021115684283 111.2003909036111 L 1008.8395757028927 111.2825223 L 1008.656227982665 111.36382894334106 L 1008.4710908582193 111.44430270303769 L 1008.2841828431137 111.52393553178099 L 1008.095522627994 111.60271946635444 L 1007.9051290787244 111.68064662843025 L 1007.7130212345013 111.75770922535715 L 1007.5192183059489 111.83389955093965 L 1007.3237396731986 111.9092099862087 L 1007.1266048839509 111.9836330001835 L 1006.9278336515202 112.05716115062472 L 1006.7274458528643 112.12978708477856 L 1006.525461526596 112.20150354011211 L 1006.3219008709797 112.27230334503965 L 1006.1167842419112 112.34217941963963 L 1005.9101321508824 112.41112477636287 L 1005.7019652629305 112.47913252073111 L 1005.4923043945706 112.54619585202661 L 1005.2811705117148 112.61230806397214 L 1005.0685847275755 112.67746254540155 L 1004.8545683005541 112.74165278092104 L 1004.6391426321147 112.80487235156053 L 1004.4223292646448 112.86711493541566 L 1004.2041498793003 112.92837430827987 L 1003.9846262938381 112.98864434426694 L 1003.7637804604338 113.04791901642352 L 1003.5416344634866 113.10619239733178 L 1003.3182105174111 113.16345865970217 L 1003.0935309644158 113.21971207695618 L 1002.8676182722686 113.27494702379899 L 1002.6404950320507 113.32915797678191 L 1002.4121839558966 113.38233951485485 L 1002.1827078747239 113.43448631990829 L 1001.9520897359491 113.48559317730519 L 1001.7203526011945 113.53565497640241 L 1001.4875196439799 113.58466671106174 L 1001.2536141474072 113.63262348015058 L 1001.0186595018312 113.67952048803197 L 1000.7826792025206 113.7253530450442 L 1000.5456968473087 113.77011656796977 L 1000.3077361342336 113.81380658049369 L 1000.0688208591681 113.85641871365111 L 999.8289749134409 113.89794870626423 L 999.5882222814464 113.93839240536839 L 999.3465870382474 113.9777457666274 L 999.1040933471668 114.0160048547379 L 998.8607654573716 114.05316584382298 L 998.616627701448 114.0892250178147 L 998.3717044929682 114.12417877082571 L 998.1260203240489 114.15802360750982 L 997.8795997629022 114.19075614341159 L 997.632467451379 114.2223731053047 L 997.3846481025045 114.25287133151929 L 997.1361664980068 114.28224777225817 L 996.8870474858396 114.31049948990176 L 996.6373159776965 114.3376236593018 L 996.3869969465201 114.36361756806399 L 996.1361154240049 114.38847861681909 L 995.8846964980941 114.41220431948295 L 995.6327653104707 114.43479230350509 L 995.3803470540438 114.45624031010593 L 995.1274669704284 114.47654619450265 L 994.8741503474223 114.49570792612376 L 994.6204225164767 114.51372358881206 L 994.366308850163 114.5305913810163 L 994.1118347596364 114.5463096159713 L 993.8570256920938 114.56087672186668 L 993.6019071282295 114.57429124200398 L 993.3465045796875 114.58655183494237 L 993.0908435865094 114.59765727463277 L 992.8349497145821 114.60760645054046 L 992.578848553079 114.61639836775615 L 992.322565711903 114.62403214709545 L 992.0661268191247 114.63050702518677 L 991.8095575184199 114.6358223545477 L 991.5528834665043 114.63997760364975 L 991.2961303305698 114.64297235697146 L 991.0393237857155 114.64480631504 L 990.7824895123823 114.64547929446107 L 990.5256531937833 114.64499122793733 L 990.2688405133364 114.64334216427498 L 990.0120771520956 114.64053226837903 L 989.7553887861831 114.63656182123674 L 989.4988010842214 114.63143121988952 L 989.2423397047671 114.62514097739319 L 988.9860302937444 114.6176917227668 L 988.7298984818808 114.60908420092959 L 988.4739698821439 114.59931927262656 L 988.2182700871806 114.58839791434241 L 987.9628246667571 114.57632121820387 L 987.7076591652028 114.5630903918705 L 987.452799098855 114.54870675841389 L 987.1982699535082 114.53317175618541 L 986.9440971818647 114.51648693867233 L 986.6903062009898 114.4986539743425 L 986.4369223897701 114.47967464647749 L 986.1839710863755 114.45955085299428 L 985.9314775857259 114.43828460625544 L 985.6794671369606 114.41587803286792 L 985.4279649409145 114.3923333734704 L 985.1769961475978 114.36765298250918 L 984.9265858536806 114.3418393280028 L 984.6767590999835 114.3148949912952 L 984.427540868974 114.2868226667976 L 984.1789560822672 114.25762516171906 L 983.9310295981346 114.22730539578573 L 983.6837862090183 114.19586640094897 L 983.437250639051 114.16331132108203 L 983.1914475415842 114.12964341166581 L 982.946401496723 114.09486603946317 L 982.7021370088673 114.05898268218235 L 982.4586785042628 114.02199692812917 L 982.2160503285569 113.98391247584823 L 981.9742767443648 113.944733133753 L 981.7333819288436 113.90446281974506 L 981.4933899712743 113.86310556082225 L 981.2543248706522 113.82066549267599 L 981.0162105332886 113.77714685927774 L 980.7790707704186 113.73255401245454 L 980.5429292958208 113.68689141145396 L 980.307809723446 113.64016362249802 L 980.0737355650555 113.59237531832667 L 979.8407302278699 113.54353127773052 L 979.6088170122291 113.49363638507293 L 979.378019109261 113.44269562980158 L 979.148359598564 113.39071410594954 L 978.9198614458974 113.33769701162588 L 978.6925475008861 113.28364964849587 L 978.4664404947354 113.22857742125075 L 978.2415630379573 113.17248583706737 L 978.0179376181103 113.1153805050574 L 977.7955865975497 113.05726713570647 L 977.5745322111926 112.99815154030306 L 977.3547965642931 112.93803963035747 L 977.1364016302331 112.8769374170106 L 976.9193692483237 112.81485101043285 L 976.7037211216225 112.75178661921315 L 976.4894788147624 112.68775054973807 L 976.2766637517955 112.6227492055612 L 976.0652972140506 112.55678908676278 L 975.8554003380056 112.48987678929971 L 975.646994113173 112.42201900434601 L 975.4400993800018 112.3532225176236 L 975.2347368277927 112.28349420872384 L 975.0309269926299 112.2128410504195 L 974.8286902553272 112.14127010796754 L 974.6280468393895 112.06878853840256 L 974.4290168089914 111.99540358982111 L 974.2316200669701 111.9211226006569 L 974.0358763528351 111.84595299894696 L 973.841805240795 111.76990230158879 L 973.649426137799 111.69297811358877 L 973.4587582815972 111.6151881273016 L 973.2698207388164 111.53654012166106 L 973.0826324030533 111.45704196140221 L 972.8972119929855 111.3767015962748 L 972.7135780504996 111.2955270602484 L 972.5317489388367 111.21352647070897 L 972.3517428407565 111.13070802764713 L 972.1735777567189 111.04708001283818 L 971.9972715030837 110.96265078901389 L 971.8228417103294 110.8774287990263 L 971.6503058212897 110.79142256500339 L 971.4796810894102 110.70464068749688 L 971.3109845770215 110.61709184462221 L 971.1442331536343 110.52878479119072 L 970.9794434942521 110.43972835783416 L 970.8166320777035 110.34993145012163 L 970.6558151849945 110.2594030476691 L 970.4970088976802 110.16815220324135 L 970.3402290962572 110.0761880418468 L 970.1854914585748 109.98351975982494 L 970.032811458268 109.89015662392677 L 969.8822043632094 109.79610797038806 L 969.7336852339834 109.70138320399579 L 969.5872689223786 109.60599179714767 L 969.4429700699045 109.50994328890488 L 969.3008031063259 109.4132472840382 L 969.1607822482209 109.31591345206758 L 969.0229214975586 109.21795152629505 L 968.8872346402991 109.11937130283158 L 968.753735245015 109.02018263961737 L 968.6224366615346 108.92039545543608 L 968.493352019607 108.82001972892296 L 968.3664942275886 108.71906549756703 L 968.241875971153 108.6175428567073 L 968.1195097120221 108.51546195852325 L 967.9994076867197 108.41283301101961 L 967.8815819053482 108.30966627700563 L 967.7660441503876 108.20597207306875 L 967.6528059755171 108.10176076854292 L 967.54187870446 107.99704278447177 L 967.4332734298507 107.89182859256644 L 967.3270010121264 107.78612871415844 L 967.22307207844 107.67995371914753 L 967.1214970215987 107.57331422494474 L 967.0222859990232 107.4662208954106 L 966.9254489317331 107.35868443978885 L 966.8309955033545 107.2507156116354 L 966.7389351591517 107.14232520774314 L 966.6492771050821 107.0335240670621 L 966.5620303068765 106.92432306961568 L 966.4772034891422 106.81473313541265 L 966.39480513449 106.70476522335508 L 966.3148434826868 106.59443033014256 L 966.2373265298313 106.48373948917244 L 966.162262027554 106.37270376943658 L 966.0896574822426 106.26133427441445 L 966.0195201542913 106.14964214096271 L 965.9518570573741 106.03763853820165 L 965.8866749577447 105.92533466639821 L 965.8239803735585 105.81274175584596 L 965.7637795742218 105.69987106574217 L 965.7060785797642 105.58673388306175 L 965.6508831602372 105.47334152142872 L 965.5981988351367 105.35970531998473 L 965.5480308728514 105.24583664225523 L 965.5003842901356 105.1317468750131 L 965.4552638516079 105.01744742714001 L 965.4126740692747 104.90294972848548 L 965.3726192020785 104.78826522872397 L 965.3351032554727 104.67340539620987 L 965.3001299810209 104.55838171683074 L 965.2677028760211 104.44320569285864 L 965.2378251831569 104.3278888418 L 965.2104998901729 104.21244269524384 L 965.1857297295753 104.09687879770858 L 965.1635171783597 103.9812087054877 L 965.1438644577627 103.86544398549403 L 965.12677353304 103.74959621410306 L 965.1122461132697 103.63367697599544 L 965.1002836511818 103.51769786299836 L 965.0908873430125 103.40167047292647 L 965.0840581283848 103.28560640842208 L 965.0797966902144 103.16951727579495 L 965.0781034546416 103.05341468386156" stroke-miterlimit="10" stroke-width="2.990598758" stroke-dasharray=""/></g><g><g/><text fill="black" stroke="none" font-family="sans-serif" font-size="11pt" font-style="normal" font-weight="normal" text-decoration="normal" x="958.1636251243165" y="133.521438666" text-anchor="start" dominant-baseline="alphabetic" xml:space="preserve">Database</text></g></g><g><path fill="white" stroke="black" paint-order="fill stroke markers" d=" M 479.1594054096354 244.349510286 L 496.7511628096354 244.349510286 L 496.7511628096354 432.581314466 L 479.1594054096354 432.581314466 L 479.1594054096354 244.349510286" stroke-miterlimit="10" stroke-width="1.4659797833333332" stroke-dasharray=""/><path fill="white" stroke="black" paint-order="fill stroke markers" d=" M 479.1594054096354 529.335980166 L 496.7511628096354 529.335980166 L 496.7511628096354 1067.2215544284 L 479.1594054096354 1067.2215544284 L 479.1594054096354 529.335980166" stroke-miterlimit="10" stroke-width="1.4659797833333332" stroke-dasharray=""/><path fill="white" stroke="black" paint-order="fill stroke markers" d=" M 487.9552841096354 740.4370689659999 L 505.5470415096354 740.4370689659999 L 505.5470415096354 995.0953490883999 L 487.9552841096354 995.0953490883999 L 487.9552841096354 740.4370689659999" stroke-miterlimit="10" stroke-width="1.4659797833333332" stroke-dasharray=""/><path fill="white" stroke="black" paint-order="fill stroke markers" d=" M 1227.007131692724 896.5815076483999 L 1244.598889092724 896.5815076483999 L 1244.598889092724 945.8384283684 L 1227.007131692724 945.8384283684 L 1227.007131692724 896.5815076483999" stroke-miterlimit="10" stroke-width="1.4659797833333332" stroke-dasharray=""/><g><g><rect fill="white" stroke="none" x="99.97982122333333" y="221.480225666" width="358.3626712629688" height="22.86928462"/></g><text fill="black" stroke="none" font-family="sans-serif" font-size="11pt" font-style="normal" font-weight="normal" text-decoration="normal" x="102.61858483333333" y="237.312807326" text-anchor="start" dominant-baseline="alphabetic" xml:space="preserve">getMovie(title : String, runningTime : int, year : int)</text></g><g><path fill="none" stroke="black" paint-order="fill stroke markers" d=" M 79.1629083 244.349510286 L 464.67552515030206 244.349510286" stroke-miterlimit="10" stroke-width="1.4659797833333332" stroke-dasharray=""/><g transform="translate(479.1594054096354,244.349510286) translate(-479.1594054096354,-244.349510286)"><path fill="black" stroke="none" paint-order="stroke fill markers" d=" M 464.499607576302 237.01961136933332 L 479.1594054096354 244.349510286 L 464.499607576302 251.67940920266668 Z"/></g></g><g><g><rect fill="white" stroke="none" x="517.5680757329687" y="270.737146386" width="458.2409671614063" height="22.86928462"/></g><text fill="black" stroke="none" font-family="sans-serif" font-size="11pt" font-style="normal" font-weight="normal" text-decoration="normal" x="520.2068393429687" y="286.569728046" text-anchor="start" dominant-baseline="alphabetic" xml:space="preserve">getFromCacheByDetails(title : String, runningTime : int, year : int)</text></g><g><path fill="none" stroke="black" paint-order="fill stroke markers" d=" M 496.7511628096354 293.60643100600004 L 567.1181924096354 293.60643100600004 L 567.1181924096354 316.475715626 L 511.2350430689687 316.475715626" stroke-miterlimit="10" stroke-width="1.4659797833333332" stroke-dasharray=""/><g transform="translate(496.7511628096354,316.475715626) translate(-496.7511628096354,-316.475715626)"><path fill="black" stroke="none" paint-order="stroke fill markers" d=" M 511.41096064296875 309.14581670933336 L 496.7511628096354 316.475715626 L 511.41096064296875 323.80561454266666 Z"/></g></g><path fill="white" stroke="black" paint-order="fill stroke markers" d=" M 479.1594054096354 363.093872736 L 470.3635267096354 363.093872736 M 269.603355867565 342.863351726 L 454.53094504963536 342.863351726 L 470.3635267096354 358.69593338600004 L 470.3635267096354 383.324393746 L 269.603355867565 383.324393746 L 269.603355867565 342.863351726 M 454.53094504963536 342.863351726 L 454.53094504963536 358.69593338600004 L 470.3635267096354 358.69593338600004" stroke-miterlimit="10" stroke-width="1.4659797833333332" stroke-dasharray=""/><g><text fill="black" stroke="none" font-family="sans-serif" font-size="11pt" font-style="normal" font-weight="normal" text-decoration="normal" x="294.23181622756505" y="367.491812086" text-anchor="start" dominant-baseline="alphabetic" xml:space="preserve">Movie found in cache</text></g><g><g><rect fill="white" stroke="none" x="218.20099737079425" y="409.712029846" width="121.92031896804687" height="22.86928462"/></g><text fill="black" stroke="none" font-family="sans-serif" font-size="11pt" font-style="normal" font-weight="normal" text-decoration="normal" x="220.83976098079427" y="425.544611506" text-anchor="start" dominant-baseline="alphabetic" xml:space="preserve">return m : Movie</text></g><g><path fill="none" stroke="black" paint-order="fill stroke markers" d=" M 479.1594054096354 432.581314466 L 93.64678855933333 432.581314466" stroke-miterlimit="10" stroke-width="1.4659797833333332" stroke-dasharray="7.0367029599999995"/><g transform="translate(79.1629083,432.581314466) translate(-79.1629083,-432.581314466)"><path fill="black" stroke="none" paint-order="stroke fill markers" d=" M 93.82270613333333 425.25141554933333 L 79.1629083 432.581314466 L 93.82270613333333 439.91121338266663 Z"/></g></g><g><g><rect fill="white" stroke="none" x="99.97982122333333" y="506.46669554600004" width="358.3626712629688" height="22.86928462"/></g><text fill="black" stroke="none" font-family="sans-serif" font-size="11pt" font-style="normal" font-weight="normal" text-decoration="normal" x="102.61858483333333" y="522.299277206" text-anchor="start" dominant-baseline="alphabetic" xml:space="preserve">getMovie(title : String, runningTime : int, year : int)</text></g><g><path fill="none" stroke="black" paint-order="fill stroke markers" d=" M 79.1629083 529.335980166 L 464.67552515030206 529.335980166" stroke-miterlimit="10" stroke-width="1.4659797833333332" stroke-dasharray=""/><g transform="translate(479.1594054096354,529.335980166) translate(-479.1594054096354,-529.335980166)"><path fill="black" stroke="none" paint-order="stroke fill markers" d=" M 464.499607576302 522.0060812493333 L 479.1594054096354 529.335980166 L 464.499607576302 536.6658790826667 Z"/></g></g><g><g><rect fill="white" stroke="none" x="517.5680757329687" y="555.723616266" width="458.2409671614063" height="22.86928462"/></g><text fill="black" stroke="none" font-family="sans-serif" font-size="11pt" font-style="normal" font-weight="normal" text-decoration="normal" x="520.2068393429687" y="571.556197926" text-anchor="start" dominant-baseline="alphabetic" xml:space="preserve">getFromCacheByDetails(title : String, runningTime : int, year : int)</text></g><g><path fill="none" stroke="black" paint-order="fill stroke markers" d=" M 496.7511628096354 578.5929008859999 L 567.1181924096354 578.5929008859999 L 567.1181924096354 601.462185506 L 511.2350430689687 601.462185506" stroke-miterlimit="10" stroke-width="1.4659797833333332" stroke-dasharray=""/><g transform="translate(496.7511628096354,601.462185506) translate(-496.7511628096354,-601.462185506)"><path fill="black" stroke="none" paint-order="stroke fill markers" d=" M 511.41096064296875 594.1322865893333 L 496.7511628096354 601.462185506 L 511.41096064296875 608.7920844226667 Z"/></g></g><path fill="white" stroke="black" paint-order="fill stroke markers" d=" M 479.1594054096354 648.0803426159999 L 470.3635267096354 648.0803426159999 M 241.45017288416662 627.8498216059999 L 454.53094504963536 627.8498216059999 L 470.3635267096354 643.6824032659998 L 470.3635267096354 668.3108636259999 L 241.45017288416662 668.3108636259999 L 241.45017288416662 627.8498216059999 M 454.53094504963536 627.8498216059999 L 454.53094504963536 643.6824032659998 L 470.3635267096354 643.6824032659998" stroke-miterlimit="10" stroke-width="1.4659797833333332" stroke-dasharray=""/><g><text fill="black" stroke="none" font-family="sans-serif" font-size="11pt" font-style="normal" font-weight="normal" text-decoration="normal" x="266.0786332441666" y="652.4782819659999" text-anchor="start" dominant-baseline="alphabetic" xml:space="preserve">Movie not found in cache</text></g><g><g><rect fill="white" stroke="none" x="526.3639544329687" y="694.6984997259999" width="155.3777469465625" height="22.86928462"/></g><text fill="black" stroke="none" font-family="sans-serif" font-size="11pt" font-style="normal" font-weight="normal" text-decoration="normal" x="529.0027180429687" y="710.5310813859999" text-anchor="start" dominant-baseline="alphabetic" xml:space="preserve">getMovie(sql : String)</text></g><g><path fill="none" stroke="black" paint-order="fill stroke markers" d=" M 496.7511628096354 717.5677843459998 L 575.9140711096354 717.5677843459998 L 575.9140711096354 740.4370689659999 L 520.0309217689687 740.4370689659999" stroke-miterlimit="10" stroke-width="1.4659797833333332" stroke-dasharray=""/><g transform="translate(505.5470415096354,740.4370689659999) translate(-505.5470415096354,-740.4370689659999)"><path fill="black" stroke="none" paint-order="stroke fill markers" d=" M 520.2068393429687 733.1071700493331 L 505.5470415096354 740.4370689659999 L 520.2068393429687 747.7669678826666 Z"/></g></g><g><g><rect fill="white" stroke="none" x="655.1829431505795" y="766.8247050659999" width="185.94319189285156" height="22.86928462"/></g><text fill="black" stroke="none" font-family="sans-serif" font-size="11pt" font-style="normal" font-weight="normal" text-decoration="normal" x="657.8217067605794" y="782.6572867259998" text-anchor="start" dominant-baseline="alphabetic" xml:space="preserve">executeQuery(sql : String)</text></g><g><path fill="none" stroke="black" paint-order="fill stroke markers" d=" M 505.5470415096354 789.6939896859999 L 976.2781564250417 789.6939896859999" stroke-miterlimit="10" stroke-width="1.4659797833333332" stroke-dasharray=""/><g transform="translate(990.7620366843751,789.6939896859999) translate(-990.7620366843751,-789.6939896859999)"><path fill="black" stroke="none" paint-order="stroke fill markers" d=" M 976.1022388510418 782.3640907693332 L 990.7620366843751 789.6939896859999 L 976.1022388510418 797.0238886026666 Z"/></g></g><g><path fill="white" stroke="black" paint-order="fill stroke markers" d=" M 1261.926770131724 842.2053855249999 A 26.123759739 26.123759739 0 1 1 1261.9267570698453 842.1792617696149 M 1208.183951274724 870.7216242703998 L 1263.422069510724 870.7216242703998" stroke-miterlimit="10" stroke-width="2.990598758" stroke-dasharray=""/></g><g><g/><text fill="black" stroke="none" font-family="sans-serif" font-size="11pt" font-style="normal" font-weight="normal" text-decoration="normal" x="1228.934716630517" y="889.8086810493999" text-anchor="start" dominant-baseline="alphabetic" xml:space="preserve">m</text></g><g><g><rect fill="white" stroke="none" x="655.2468438661641" y="833.4622820971998" width="403.2373050520313" height="22.86928462"/></g><text fill="black" stroke="none" font-family="sans-serif" font-size="11pt" font-style="normal" font-weight="normal" text-decoration="normal" x="657.8856074761641" y="849.2948637571998" text-anchor="start" dominant-baseline="alphabetic" xml:space="preserve">PersistentMovie(title : String, runningTime : int, year : int)</text></g><g><path fill="none" stroke="black" paint-order="fill stroke markers" d=" M 505.5470415096354 856.3315667171998 L 1193.7000710153907 856.3315667171998" stroke-miterlimit="10" stroke-width="1.4659797833333332" stroke-dasharray=""/><g transform="translate(1208.183951274724,856.3315667171998) translate(-1208.183951274724,-856.3315667171998)"><path fill="black" stroke="none" paint-order="stroke fill markers" d=" M 1193.5241534413906 849.0016678005331 L 1208.183951274724 856.3315667171998 L 1193.5241534413906 863.6614656338666 Z"/></g></g><g><g><rect fill="white" stroke="none" x="863.6383229911797" y="922.9691437483999" width="5.27752722" height="22.86928462"/></g><text fill="black" stroke="none" font-family="sans-serif" font-size="11pt" font-style="normal" font-weight="normal" text-decoration="normal" x="866.2770866011797" y="938.8017254083999" text-anchor="start" dominant-baseline="alphabetic" xml:space="preserve"></text></g><g><path fill="none" stroke="black" paint-order="fill stroke markers" d=" M 1227.007131692724 945.8384283684 L 520.0309217689687 945.8384283684" stroke-miterlimit="10" stroke-width="1.4659797833333332" stroke-dasharray="7.0367029599999995"/><g transform="translate(505.5470415096354,945.8384283684) translate(-505.5470415096354,-945.8384283684)"><path fill="black" stroke="none" paint-order="stroke fill markers" d=" M 520.2068393429687 938.5085294517332 L 505.5470415096354 945.8384283684 L 520.2068393429687 953.1683272850667 Z"/></g></g><g><g><rect fill="white" stroke="none" x="526.3639544329687" y="972.2260644684" width="66.15795934890625" height="22.86928462"/></g><text fill="black" stroke="none" font-family="sans-serif" font-size="11pt" font-style="normal" font-weight="normal" text-decoration="normal" x="529.0027180429687" y="988.0586461283999" text-anchor="start" dominant-baseline="alphabetic" xml:space="preserve">return m</text></g><g><path fill="none" stroke="black" paint-order="fill stroke markers" d=" M 505.5470415096354 995.0953490883999 L 575.9140711096354 995.0953490883999 L 575.9140711096354 1017.9646337083999 L 511.2350430689687 1017.9646337083999" stroke-miterlimit="10" stroke-width="1.4659797833333332" stroke-dasharray="7.0367029599999995"/><g transform="translate(496.7511628096354,1017.9646337083999) translate(-496.7511628096354,-1017.9646337083999)"><path fill="black" stroke="none" paint-order="stroke fill markers" d=" M 511.41096064296875 1010.6347347917332 L 496.7511628096354 1017.9646337083999 L 511.41096064296875 1025.2945326250665 Z"/></g></g><g><g><rect fill="white" stroke="none" x="218.20099737079425" y="1044.3522698084" width="121.92031896804687" height="22.86928462"/></g><text fill="black" stroke="none" font-family="sans-serif" font-size="11pt" font-style="normal" font-weight="normal" text-decoration="normal" x="220.83976098079427" y="1060.1848514684" text-anchor="start" dominant-baseline="alphabetic" xml:space="preserve">return m : Movie</text></g><g><path fill="none" stroke="black" paint-order="fill stroke markers" d=" M 479.1594054096354 1067.2215544284 L 93.64678855933333 1067.2215544284" stroke-miterlimit="10" stroke-width="1.4659797833333332" stroke-dasharray="7.0367029599999995"/><g transform="translate(79.1629083,1067.2215544284) translate(-79.1629083,-1067.2215544284)"><path fill="black" stroke="none" paint-order="stroke fill markers" d=" M 93.82270613333333 1059.8916555117332 L 79.1629083 1067.2215544284 L 93.82270613333333 1074.5514533450666 Z"/></g></g><g><g/><path fill="none" stroke="black" paint-order="fill stroke markers" d=" M 17.591757400000006 173.98248068599997 L 1297.374161292724 173.98248068599997 L 1297.374161292724 1093.6091905284 L 17.591757400000006 1093.6091905284 L 17.591757400000006 173.98248068599997 Z" stroke-miterlimit="10" stroke-width="2.5131082" stroke-dasharray=""/><path fill="white" stroke="black" paint-order="fill stroke markers" d=" M 17.591757400000006 173.98248068599997 L 17.591757400000006 195.09258956599996 L 67.87877256621094 195.09258956599996 L 78.43382700621095 184.53753512599997 L 78.43382700621095 173.98248068599997 L 17.591757400000006 173.98248068599997" stroke-miterlimit="10" stroke-width="2.5131082" stroke-dasharray=""/><text fill="black" stroke="none" font-family="sans-serif" font-size="8.8pt" font-style="normal" font-weight="bold" text-decoration="normal" x="35.183514800000005" y="188.05588660599994" text-anchor="start" dominant-baseline="alphabetic" xml:space="preserve">alt</text><text fill="black" stroke="none" font-family="sans-serif" font-size="8.8pt" font-style="normal" font-weight="bold" text-decoration="normal" x="96.02558440621095" y="188.05588660599994" text-anchor="start" dominant-baseline="alphabetic" xml:space="preserve">[movie already in cache]</text><g><path fill="none" stroke="black" paint-order="fill stroke markers" d=" M 17.591757400000006 458.968950566 L 1297.374161292724 458.968950566" stroke-miterlimit="10" stroke-width="2.5131082" stroke-dasharray="4.39793935"/></g><g/><text fill="black" stroke="none" font-family="sans-serif" font-size="8.8pt" font-style="normal" font-weight="bold" text-decoration="normal" x="96.02558440621095" y="473.04235648599996" text-anchor="start" dominant-baseline="alphabetic" xml:space="preserve">[movie not already in cache]</text></g><g/></g><g/><g/><g/></g></svg>