<svg version="1.1" xmlns="http://www.w3.org/2000/svg" xmlns:xlink="http://www.w3.org/1999/xlink" width="2102" height="1847"><desc>actor%20Staff%0Aboundary%20ScreeningDialog%0Aboundary%20StaffUI%0A%0Acontrol%20ManagementSystem%0Aparticipant%20Cinema%0Aparticipant%20ScreenMapper%0Aparticipant%20MovieMapper%0Aparticipant%20ScreeningMapper%0Adatabase%20Database%0Aentity%20s%20(Screen)%0Aentity%20m%20(Movie)%0Aentity%20PersistentScreening%0A%0AStaff-%3EStaffUI%3AscheduleScreening()%0Aactivate%20StaffUI%0A%0AStaffUI-%3E*ScreeningDialog%3AScreeningDialog()%0Aactivate%20ScreeningDialog%0AScreeningDialog--%3EStaffUI%3A%0Adeactivate%20ScreeningDialog%0A%0AStaffUI-%3EScreeningDialog%3AshowAndWait()%0Aactivate%20ScreeningDialog%0AScreeningDialog-%3EStaff%3A%0Aactivate%20Staff%0AStaff--%3EScreeningDialog%3A%0Adeactivate%20Staff%0AScreeningDialog-%3EStaffUI%3Areturn%20sgi%20%3A%20ScreeningInfo%0Adeactivate%20ScreeningDialog%0A%0AStaffUI-%3EManagementSystem%3AscheduleScreening(date%20%3A%20LocalDate%2C%20%5Cntime%20%3A%20LocalTime%2C%20title%20%3A%20String%2C%20%5Cnyear%20%3A%20int%2C%20screenName%20%3A%20String)%0Aactivate%20ManagementSystem%0A%0Aexpandable-%20see%20diagram%2003%20-%20Schedule%20Screening%20ECE%20(double%20screening)%0A%0AManagementSystem-%3EManagementSystem%3AcheckDoubleScreening(time%20%3A%20LocalTime%2C%20screenName%20%3A%20String%2C%20sg%20%3A%20Screening)%0Aend%20%0A%0Aexpandable-%20see%20diagrams%2003%20-%20Schedule%20Screening%20ACE%20(running%20time%20of%20movie%20is%20longer%20than%20available%20time)%0A%0A%09ManagementSystem-%3EManagementSystem%3AcheckTimeAvailable()%20%20%20%20%20%20%20%20%20%20%20%20%20%20%20%20%20%20%20%20%20%20%20%20%20%20%20%20%20%20%20%20%20%20%20%20%20%20%20%20%20%20%20%20%20%20%20%20%20%20%20%20%20%20%20%20%20%20%20%20%20%20%20%20%20%20%20%20%20%20%20%20%20%20%20%20%20%20%20%20%20%20%20%20%20%20%20%20%20%20%20%20%20%20%20%20%20%20%20%20%20%20%20%20%20%20%20%20%20%20%20%20%20%20%20%20%20%20%20%20%20%20%20%20%20%20%20%20%20%20%20%20%20%20%20%20%20%0Aend%20%0A%0AManagementSystem-%3ECinema%3AscheduleScreening(date%20%3A%20LocalDate%2C%20%5Cntime%20%3A%20LocalTime%2C%20title%20%3A%20String%2C%20%5Cnyear%20%3A%20int%2C%20screenName%20%3A%20String)%0Aactivate%20Cinema%0A%0ACinema-%3EScreenMapper%3AgetScreen(screenName%20%3A%20String)%0Aactivate%20ScreenMapper%0AScreenMapper-%3EScreenMapper%3AgetFromCacheByName(screenName)%0AScreenMapper--%3ECinema%3Areturn%20s%20%3A%20Screen%0Adeactivate%20ScreenMapper%0A%0Aexpandable-%20%5Bsee%2003%20-%20getMovie%20Expanded%20for%20details%20of%20the%20getMovie%20functionality%5D%0A%0ACinema-%3EMovieMapper%3Am%20%3A%3D%20getMovie(title%20%3A%20String%2C%20runningTime%20%3A%20int%2C%20year%20%3A%20int)%0Aend%20%0A%0A%0A%0ACinema-%3EScreeningMapper%3AscheduleScreening(date%20%3A%20LocalDate%2C%20m%20%3A%20Movie%2C%20s%20%3A%20Screen%2C%20time%20%3A%20LocalTime)%0Aactivate%20ScreeningMapper%0AScreeningMapper-%3EDatabase%3Aoid%20%3A%3D%20getId()%0AScreeningMapper-%3EScreeningMapper%3AperformUpdate(sql%20%3A%20String)%0Aactivate%20ScreeningMapper%0A%0A%0AScreeningMapper-%3EDatabase%3Aexecute(sql%20%3A%20String)%0AScreeningMapper--%3EScreeningMapper%3A%0Adeactivate%20ScreeningMapper%0A%0A%0AScreeningMapper-%3E*PersistentScreening%3APersistentScreening(oid%20%3A%20Integer%2C%5Cndate%20%3A%20LocalDate%2C%20m%20%3A%20Movie%2C%20%5Cns%20%3A%20Screen%2C%20time%20%3A%20LocalTime)%0Aactivate%20PersistentScreening%0APersistentScreening--%3EScreeningMapper%3A%0Adeactivate%20PersistentScreening%0AScreeningMapper--%3ECinema%3A%0Adeactivate%20ScreeningMapper%0ACinema--%3EManagementSystem%3A%0Adeactivate%20Cinema%0AManagementSystem-%3EManagementSystem%3AnotifyObservers()%0Aactivate%20ManagementSystem%0AManagementSystem-%3EStaffUI%3Aupdate()%0Aactivate%20StaffUI%0AStaffUI-%3EManagementSystem%3AgetDate()%0Aactivate%20ManagementSystem%0AManagementSystem--%3EStaffUI%3Areturn%20date%0Adeactivate%20ManagementSystem%0AStaffUI-%3EManagementSystem%3AgetScreenings()%0Aactivate%20ManagementSystem%0AManagementSystem--%3EStaffUI%3Areturn%20screenings%0Adeactivate%20ManagementSystem%0AStaffUI--%3EManagementSystem%3A%0Adeactivate%20StaffUI%0Adeactivateafter%20ManagementSystem%0A%0A%0AManagementSystem--%3EStaffUI%3A%0Adeactivate%20ManagementSystem%0AStaffUI--%3EStaff%3A%0Adeactivate%20StaffUI</desc><defs/><g><g/><g/><g/><g/><g/><g/><g/><g/><g/><g/><g/><g/><g/><g/><g/><g/><g/><g/><g/><g/><g/><g/><g/><g/><g/><g/><g/><g/><g/><g/><g/><g/><g/><g/><g/><g/><g/><g/><g/><g/><g/><g/><g/><g/><g/><g><rect fill="white" stroke="none" x="0" y="0" width="2102" height="1847"/></g><g/><g><path fill="none" stroke="black" paint-order="fill stroke markers" d=" M 18.1258913 75.19219734400001 L 18.1258913 1847.5718078268014" stroke-miterlimit="10" stroke-width="1.1518412583333333" stroke-dasharray="10.632380846153845,4.607365033333333"/><path fill="none" stroke="black" paint-order="fill stroke markers" d=" M 100.82275903333334 202.90835606800002 L 100.82275903333334 1847.5718078268014" stroke-miterlimit="10" stroke-width="1.1518412583333333" stroke-dasharray="10.632380846153845,4.607365033333333"/><path fill="none" stroke="black" paint-order="fill stroke markers" d=" M 279.9051415875 75.19219734400001 L 279.9051415875 1847.5718078268014" stroke-miterlimit="10" stroke-width="1.1518412583333333" stroke-dasharray="10.632380846153845,4.607365033333333"/><path fill="none" stroke="black" paint-order="fill stroke markers" d=" M 520.9469115354167 75.19219734400001 L 520.9469115354167 1847.5718078268014" stroke-miterlimit="10" stroke-width="1.1518412583333333" stroke-dasharray="10.632380846153845,4.607365033333333"/><path fill="none" stroke="black" paint-order="fill stroke markers" d=" M 1110.99491545625 75.19219734400001 L 1110.99491545625 1847.5718078268014" stroke-miterlimit="10" stroke-width="1.1518412583333333" stroke-dasharray="10.632380846153845,4.607365033333333"/><path fill="none" stroke="black" paint-order="fill stroke markers" d=" M 1319.4088409791668 75.19219734400001 L 1319.4088409791668 1847.5718078268014" stroke-miterlimit="10" stroke-width="1.1518412583333333" stroke-dasharray="10.632380846153845,4.607365033333333"/><path fill="none" stroke="black" paint-order="fill stroke markers" d=" M 1536.2756305875002 75.19219734400001 L 1536.2756305875002 1847.5718078268014" stroke-miterlimit="10" stroke-width="1.1518412583333333" stroke-dasharray="10.632380846153845,4.607365033333333"/><path fill="none" stroke="black" paint-order="fill stroke markers" d=" M 1656.8258029138751 75.19219734400001 L 1656.8258029138751 1847.5718078268014" stroke-miterlimit="10" stroke-width="1.1518412583333333" stroke-dasharray="10.632380846153845,4.607365033333333"/><path fill="none" stroke="black" paint-order="fill stroke markers" d=" M 1828.6490502284585 75.19219734400001 L 1828.6490502284585 1847.5718078268014" stroke-miterlimit="10" stroke-width="1.1518412583333333" stroke-dasharray="10.632380846153845,4.607365033333333"/><path fill="none" stroke="black" paint-order="fill stroke markers" d=" M 1895.4830113097084 75.19219734400001 L 1895.4830113097084 1847.5718078268014" stroke-miterlimit="10" stroke-width="1.1518412583333333" stroke-dasharray="10.632380846153845,4.607365033333333"/><path fill="none" stroke="black" paint-order="fill stroke markers" d=" M 1959.1166298472085 75.19219734400001 L 1959.1166298472085 1847.5718078268014" stroke-miterlimit="10" stroke-width="1.1518412583333333" stroke-dasharray="10.632380846153845,4.607365033333333"/><path fill="none" stroke="black" paint-order="fill stroke markers" d=" M 2046.6032757284586 1316.8033559868004 L 2046.6032757284586 1847.5718078268014" stroke-miterlimit="10" stroke-width="1.1518412583333333" stroke-dasharray="10.632380846153845,4.607365033333333"/></g><g><g><path fill="white" stroke="black" paint-order="fill stroke markers" d=" M 26.004485507 16.724735071000005 A 7.878594207 7.878594207 0 1 1 26.004481567703223 16.7168564781061 M 18.1258913 24.603329278000004 L 18.1258913 41.4662853 M 8.173982828 30.685051122000004 L 28.077799772 30.685051122000004 M 18.1258913 41.4662853 L 8.173982828 57.22347371400001 M 18.1258913 41.4662853 L 28.077799772 57.22347371400001" stroke-miterlimit="10" stroke-width="2.3497561670000002" stroke-dasharray=""/></g><g><g/><text fill="black" stroke="none" font-family="sans-serif" font-size="8pt" font-style="normal" font-weight="normal" text-decoration="normal" x="6.911047549999999" y="71.045568814" text-anchor="start" dominant-baseline="alphabetic" xml:space="preserve">Staff</text></g><g><path fill="white" stroke="black" paint-order="fill stroke markers" d=" M 307.342000361 35.52278440700001 A 20.5258112235 20.5258112235 0 1 1 307.3419900980952 35.50225859919747 M 253.6431608975 13.822095100000011 L 253.6431608975 57.22347371400001 M 252.468282814 35.52278440700001 L 266.290377914 35.52278440700001" stroke-miterlimit="10" stroke-width="2.3497561670000002" stroke-dasharray=""/></g><g><g/><text fill="black" stroke="none" font-family="sans-serif" font-size="8pt" font-style="normal" font-weight="normal" text-decoration="normal" x="263.1902978375" y="71.045568814" text-anchor="start" dominant-baseline="alphabetic" xml:space="preserve">StaffUI</text></g><g><path fill="white" stroke="black" paint-order="fill stroke markers" d=" M 541.4727227589167 35.52278440700001 A 20.5258112235 20.5258112235 0 1 1 541.4727124960119 35.50225859919747 M 518.1824925154167 14.99697318350001 L 526.4757495754167 8.085925633500011 M 518.1824925154167 14.99697318350001 L 526.4757495754167 21.90802073350001" stroke-miterlimit="10" stroke-width="2.3497561670000002" stroke-dasharray=""/></g><g><g/><text fill="black" stroke="none" font-family="sans-serif" font-size="8pt" font-style="normal" font-weight="normal" text-decoration="normal" x="470.5069701291667" y="71.045568814" text-anchor="start" dominant-baseline="alphabetic" xml:space="preserve">ManagementSystem</text></g><path fill="none" stroke="none"/><g><path fill="white" stroke="black" paint-order="fill stroke markers" d=" M 1077.0460379758752 37.87254057400001 L 1144.9437929366252 37.87254057400001 L 1144.9437929366252 75.19219734400001 L 1077.0460379758752 75.19219734400001 L 1077.0460379758752 37.87254057400001 Z" stroke-miterlimit="10" stroke-width="2.211535216" stroke-dasharray=""/></g><g><g/><text fill="black" stroke="none" font-family="sans-serif" font-size="8pt" font-style="normal" font-weight="normal" text-decoration="normal" x="1092.043011159375" y="61.370102243999995" text-anchor="start" dominant-baseline="alphabetic" xml:space="preserve">Cinema</text></g><path fill="none" stroke="none"/><g><path fill="white" stroke="black" paint-order="fill stroke markers" d=" M 1268.336916623792 37.87254057400001 L 1370.480765334542 37.87254057400001 L 1370.480765334542 75.19219734400001 L 1268.336916623792 75.19219734400001 L 1268.336916623792 37.87254057400001 Z" stroke-miterlimit="10" stroke-width="2.211535216" stroke-dasharray=""/></g><g><g/><text fill="black" stroke="none" font-family="sans-serif" font-size="8pt" font-style="normal" font-weight="normal" text-decoration="normal" x="1283.3338898072918" y="61.370102243999995" text-anchor="start" dominant-baseline="alphabetic" xml:space="preserve">ScreenMapper</text></g><path fill="none" stroke="none"/><g><path fill="white" stroke="black" paint-order="fill stroke markers" d=" M 1487.9590773258753 37.87254057400001 L 1584.5921838491254 37.87254057400001 L 1584.5921838491254 75.19219734400001 L 1487.9590773258753 75.19219734400001 L 1487.9590773258753 37.87254057400001 Z" stroke-miterlimit="10" stroke-width="2.211535216" stroke-dasharray=""/></g><g><g/><text fill="black" stroke="none" font-family="sans-serif" font-size="8pt" font-style="normal" font-weight="normal" text-decoration="normal" x="1502.9560505093752" y="61.370102243999995" text-anchor="start" dominant-baseline="alphabetic" xml:space="preserve">MovieMapper</text></g><path fill="none" stroke="none"/><g><path fill="white" stroke="black" paint-order="fill stroke markers" d=" M 1598.4142789491252 37.87254057400001 L 1715.2373268786253 37.87254057400001 L 1715.2373268786253 75.19219734400001 L 1598.4142789491252 75.19219734400001 L 1598.4142789491252 37.87254057400001 Z" stroke-miterlimit="10" stroke-width="2.211535216" stroke-dasharray=""/></g><g><g/><text fill="black" stroke="none" font-family="sans-serif" font-size="8pt" font-style="normal" font-weight="normal" text-decoration="normal" x="1613.4112521326251" y="61.370102243999995" text-anchor="start" dominant-baseline="alphabetic" xml:space="preserve">ScreeningMapper</text></g><g><path fill="white" stroke="black" paint-order="fill stroke markers" d=" M 1808.4687913824584 48.10089094800001 L 1808.4687913824584 19.074491238000007 L 1848.8293090744585 19.074491238000007 L 1848.8293090744585 48.10089094800001" stroke-miterlimit="10" stroke-width="2.3497561670000002" stroke-dasharray=""/><path fill="white" stroke="black" paint-order="fill stroke markers" d=" M 1848.8293090744585 18.065478295700007 L 1848.8283000699246 18.15670260293715 L 1848.8252731572225 18.247917787819585 L 1848.820228639041 18.339114728904843 L 1848.813167019828 18.430284306574812 L 1848.804089005739 18.521417403947694 L 1848.792995504568 18.612504907789702 L 1848.7798876256559 18.703537709426353 L 1848.7647666797798 18.794506705653347 L 1848.7476341790216 18.885402799646865 L 1848.7284918366172 18.976216901873258 L 1848.7073415667846 19.066939930997982 L 1848.6841854845336 19.15756281479372 L 1848.6590259054528 19.248076491047623 L 1848.6318653454791 19.338471908467483 L 1848.6027065206463 19.42874002758689 L 1848.571552346812 19.518871821669155 L 1848.538405939368 19.608858277609983 L 1848.5032706129273 19.698690396838764 L 1848.4661498809933 19.788359196218437 L 1848.427047455608 19.877855708943788 L 1848.3859672469819 19.967170985438123 L 1848.3429133631012 20.05629609424822 L 1848.2978901093186 20.145222122937476 L 1848.250901987922 20.23394017897712 L 1848.201953697684 20.322441390635486 L 1848.1510501333933 20.41071690786515 L 1848.0981963853635 20.498757903187958 L 1848.0433977389257 20.586555572577744 L 1847.9866596738989 20.674101136340735 L 1847.927987864042 20.7613858399935 L 1847.8673881764873 20.848400955138427 L 1847.8048666711531 20.935137780336497 L 1847.7404296001378 21.021587641977483 L 1847.6740834070947 21.107741895147257 L 1847.6058347265878 21.193591924492296 L 1847.5356903834283 21.279129145081207 L 1847.4636573919922 21.364345003263217 L 1847.3897429555186 21.449230977523516 L 1847.3139544653895 21.533778579335415 L 1847.2362995003907 21.617979354009194 L 1847.156785825954 21.701824881537547 L 1847.0754213933808 21.785306777437597 L 1846.992214339046 21.868416693589317 L 1846.9071729835864 21.951146319070357 L 1846.8203058310662 22.033487380987104 L 1846.7316215681283 22.115431645301985 L 1846.6411290631254 22.196970917656856 L 1846.5488373652322 22.278097044192428 L 1846.4547557035419 22.35880191236366 L 1846.358893486142 22.43907745175098 L 1846.2612602991746 22.518915634867348 L 1846.1618659058768 22.598308477960988 L 1846.0607202456054 22.677248041813744 L 1845.9578334328417 22.75572643253502 L 1845.8532157561817 22.83373580235114 L 1845.7468776773057 22.911268350390124 L 1845.6388298299328 22.988316323461788 L 1845.529083018758 23.06487201683303 L 1845.4176482183707 23.140927774998303 L 1845.3045365721584 23.216475992445172 L 1845.189759391191 23.291509114414854 L 1845.0733281530913 23.366019637657672 L 1844.9552545008862 23.4400001111834 L 1844.835550241842 23.51344313700633 L 1844.7142273462853 23.586341370885087 L 1844.5912979464044 23.658687523057033 L 1844.466774335037 23.73047435896723 L 1844.34066896444 23.801694699991916 L 1844.212994445046 23.872341424156335 L 1844.0837635442003 23.942407466846948 L 1843.9529891848852 24.011885821517872 L 1843.8206844444276 24.080769540391536 L 1843.6868625531913 24.149051735153456 L 1843.551536893254 24.216725577641057 L 1843.414720997069 24.283784300526488 L 1843.276428546112 24.350221197993342 L 1843.1366733695124 24.416029626407234 L 1842.995469442672 24.481203004980163 L 1842.8528308858652 24.54573481642858 L 1842.7087719628291 24.609618607625126 L 1842.563307079336 24.67284799024391 L 1842.4164507817532 24.73541664139936 L 1842.2682177555876 24.797318304278505 L 1842.1186228240188 24.858546788766642 L 1841.9676809464147 24.919095972066344 L 1841.815407216838 24.978959799309735 L 1841.6618168625341 25.038132284163982 L 1841.506925242411 25.09660750942991 L 1841.350747845501 25.154379627633716 L 1841.1933002894143 25.21144286161173 L 1841.034598318775 25.267791505088102 L 1840.8746578036478 25.323419923245446 L 1840.7134947379511 25.378322553288296 L 1840.5511252378571 25.432493904999404 L 1840.3875655401805 25.48592856128874 L 1840.222832000755 25.53862117873521 L 1840.056941092797 25.59056648812097 L 1839.8899094052588 25.641759294958376 L 1839.7217536411706 25.692194480009405 L 1839.5524906159683 25.741866999797576 L 1839.3821372558132 25.790771887112307 L 1839.2107105958999 25.838904251505618 L 1839.038227778751 25.886259279781186 L 1838.8647060525045 25.932832236475637 L 1838.6901627691889 25.978618464332122 L 1838.514615382987 26.023613384766 L 1838.3380814484904 26.06781249832273 L 1838.1605786189464 26.11121138512779 L 1837.9821246444892 26.153805705328658 L 1837.8027373703683 26.195591199528817 L 1837.622434735161 26.236563689213664 L 1837.441234768981 26.276719077168373 L 1837.2591555916736 26.316053347887618 L 1837.076215411005 26.354562567977098 L 1836.8924325208409 26.392242886546896 L 1836.707825299317 26.429090535596558 L 1836.5224122070015 26.46510183039188 L 1836.3362117850493 26.5002731698334 L 1836.1492426533473 26.534601036816476 L 1835.961523508653 26.568081998583022 L 1835.7730731227246 26.60071270706476 L 1835.583910340443 26.63248989921803 L 1835.3940540779297 26.663410397350102 L 1835.203523320652 26.693471109436928 L 1835.0123371215273 26.722669029432353 L 1834.8205145990157 26.7510012375687 L 1834.6280749352102 26.77846490064878 L 1834.4350373739164 26.805057272329158 L 1834.2414212187298 26.830775693394834 L 1834.0472458311044 26.855617592025126 L 1833.8525306284173 26.879580484050884 L 1833.6572950820264 26.90266197320286 L 1833.4615587153235 26.924859751351384 L 1833.2653411017825 26.946171598737138 L 1833.068661863001 26.96659538419314 L 1832.871540666739 26.986129065357865 L 1832.673997224952 27.00477068887948 L 1832.4760512918194 27.022518390611154 L 1832.2777226617695 27.03937039579752 L 1832.0790311675005 27.055325019252088 L 1831.8799966779957 27.070380665525818 L 1831.6806390965382 27.084535829066628 L 1831.4809783587204 27.097789094369954 L 1831.2810344304496 27.110139136120317 L 1831.0808273059517 27.121584719323828 L 1830.8803770057727 27.132124699431706 L 1830.6797035747752 27.141758022454724 L 1830.4788270801355 27.15048372506861 L 1830.2777676093353 27.15830093471037 L 1830.0765452681544 27.165208869665555 L 1829.875180178659 27.17120683914643 L 1829.6736924771903 27.176294243361042 L 1829.4721023123507 27.180470573573206 L 1829.2704298429887 27.18373541215339 L 1829.0686952361827 27.186088432620444 L 1828.866918665226 27.18752939967429 L 1828.665120307607 27.188058169219428 L 1828.4633203429935 27.187674688379335 L 1828.2615389512139 27.186378995501777 L 1828.0597963102389 27.184171220154965 L 1827.8581125941648 27.181051583114595 L 1827.656507971195 27.17702039634177 L 1827.4550026016236 27.172078062951805 L 1827.2536166358202 27.166225077173927 L 1827.052370212213 27.159462024301828 L 1826.8512834552769 27.15178958063516 L 1826.65037647352 27.143208513411906 L 1826.4496693574729 27.13371968073163 L 1826.2491821776803 27.12332403146969 L 1826.0489349826928 27.112022605182354 L 1825.8489477970631 27.099816532002833 L 1825.6492406193431 27.086707032528267 L 1825.4498334200844 27.072695417697688 L 1825.2507461398402 27.057783088660898 L 1825.0519986871732 27.041971536638375 L 1824.8536109366628 27.025262342772145 L 1824.6556027269185 27.007657177967666 L 1824.4579938585966 26.98915780272675 L 1824.2608040924192 26.96976606697151 L 1824.0640531471986 26.94948390985936 L 1823.8677606978652 26.928313359589104 L 1823.6719463735005 26.906256533198132 L 1823.4766297553738 26.883315636350694 L 1823.2818303749839 26.859492963117372 L 1823.0875677121066 26.834790895745627 L 1822.8938611928468 26.809211904421616 L 1822.7007301876943 26.78275854702315 L 1822.508194009589 26.755433468863927 L 1822.3162719119882 26.727239402428996 L 1822.1249830869417 26.6981791671015 L 1821.9343466631726 26.668255668880757 L 1821.7443817041647 26.637471900091654 L 1821.5551072062553 26.605830939085415 L 1821.3665420967363 26.573335949931778 L 1821.1787052319619 26.53999018210257 L 1820.991615395462 26.505796970146797 L 1820.805291296064 26.470759733357152 L 1820.619751566023 26.43488197542812 L 1820.435014759157 26.398167284105593 L 1820.251099348993 26.360619330828115 L 1820.0680237269187 26.32224187035971 L 1819.8858062003437 26.28303874041446 L 1819.704464990869 26.243013861272683 L 1819.524018232464 26.20217123538894 L 1819.3444839696544 26.160514946991775 L 1819.165880155717 26.11804916167533 L 1818.9882246508844 26.07477812598274 L 1818.8115352205589 26.03070616698151 L 1818.635829533536 25.985837691830824 L 1818.4611251602385 25.940177187340804 L 1818.287439570958 25.893729219523845 L 1818.1147901341085 25.846498433138024 L 1817.9431941144899 25.798489551222623 L 1817.772668671561 25.74970737462582 L 1817.6032308577244 25.700156781524633 L 1817.43489761662 25.64984272693707 L 1817.2676857814315 25.59877024222667 L 1817.1016120732036 25.546944434599336 L 1816.9366930991682 25.49437048659265 L 1816.7729453510854 25.441053655557596 L 1816.6103852035938 25.386999273132844 L 1816.4490289125724 25.3322127447116 L 1816.2888926135158 25.27669954890105 L 1816.1299923199208 25.220465236974505 L 1815.9723439216841 25.163515432316306 L 1815.8159631835142 25.105855829859454 L 1815.6608657433546 25.04749219551615 L 1815.50706711082 24.98843036560119 L 1815.3545826656455 24.928676246248344 L 1815.2034276561487 24.86823581281976 L 1815.0536171977044 24.807115109308405 L 1814.9051662712338 24.74532024773371 L 1814.7580897217056 24.68285740753032 L 1814.6124022566523 24.61973283493021 L 1814.4681184446993 24.555952842338044 L 1814.325252714107 24.49152380769992 L 1814.1838193513297 24.42645217386562 L 1814.0438324995857 24.360744447944292 L 1813.9053061574439 24.294407200653783 L 1813.7682541774225 24.227447065663533 L 1813.6326902646058 24.159870738931243 L 1813.4986279752718 24.09168497803327 L 1813.3660807155377 24.022896601488892 L 1813.2350617400193 23.95351248807843 L 1813.1055841505047 23.883539576155414 L 1812.9776608946452 23.812984862952717 L 1812.8513047646595 23.741855403882866 L 1812.7265283960553 23.6701583118325 L 1812.6033442663659 23.597900756451068 L 1812.4817646939011 23.5250899634339 L 1812.3618018365173 23.451733213799617 L 1812.2434676903997 23.377837843162055 L 1812.126774088865 23.303411240996702 L 1812.0117327011756 23.228460849901744 L 1811.8983550313744 23.15299416485384 L 1811.786652417134 23.077018732458605 L 1811.676636028623 23.00054215019596 L 1811.5683168673884 22.923572065660405 L 1811.4617057652558 22.846116175796254 L 1811.356813383247 22.768182226127944 L 1811.2536502105124 22.6897780099855 L 1811.1522265632836 22.610911367725194 L 1811.0525525838405 22.53159018594554 L 1810.9546382394983 22.451822396698603 L 1810.8584933216098 22.37161597669684 L 1810.7641274445864 22.29097894651542 L 1810.6715500449372 22.209919369790153 L 1810.5807703803255 22.128445352411166 L 1810.4917975286414 22.046565041712302 L 1810.4046403870966 21.9642866256564 L 1810.3193076713321 21.881618332016497 L 1810.2358079145488 21.79856842755307 L 1810.1541494666524 21.715145217187356 L 1810.0743404934199 21.631357043170873 L 1809.996388975682 21.547212284251195 L 1809.9203027085255 21.4627193548341 L 1809.8460893005138 21.377886704142114 L 1809.7737561729257 21.29272281536962 L 1809.703310559014 21.207236204834516 L 1809.634759503281 21.12143542112662 L 1809.5681098607754 21.03532904425281 L 1809.5033682964058 20.948925684779006 L 1809.4405412842748 20.862233982969162 L 1809.3796351070312 20.77526260792121 L 1809.320655855242 20.688020256700185 L 1809.263609426783 20.600515653468506 L 1809.2085015262498 20.51275754861357 L 1809.1553376643863 20.424754717872737 L 1809.1041231575346 20.336515961455746 L 1809.0548631271026 20.2480501031647 L 1809.0075624990523 20.159365989511716 L 1808.962226003407 20.07047248883425 L 1808.9188581737787 19.98137849040829 L 1808.877463346914 19.89209290355944 L 1808.8380456622613 19.80262465677198 L 1808.800609061556 19.712982696796026 L 1808.7651572884272 19.62317598775288 L 1808.7316938880224 19.533213510238607 L 1808.700222206654 19.443104260425986 L 1808.6707453914637 19.352857249164913 L 1808.6432663901087 19.262481501081304 L 1808.617787950466 19.171986053674658 L 1808.5943126203586 19.0813799564143 L 1808.5728427472995 18.99067226983445 L 1808.5533804782588 18.899872064628184 L 1808.5359277594464 18.80898842074035 L 1808.5204863361203 18.7180304264596 L 1808.5070577524095 18.627007177509565 L 1808.4956433511613 18.53592777613929 L 1808.4862442738065 18.44480133021301 L 1808.478861460245 18.35363695229938 L 1808.4734956487519 18.26244375876022 L 1808.4701473759037 18.171230868838894 L 1808.468816976525 18.08000740374838 L 1808.4695045836547 17.98878248575917 L 1808.4722101285329 17.89756523728704 L 1808.4769333406068 17.80636477998082 L 1808.4836737475596 17.71519023381025 L 1808.4924306753562 17.624050716153963 L 1808.5032032483107 17.532955340887774 L 1808.5159903891754 17.4419132174733 L 1808.5307908192462 17.350933450047012 L 1808.547603058493 17.26002513650984 L 1808.5664254257056 17.16919736761737 L 1808.5872560386629 17.07845922607082 L 1808.610092814321 16.987819785608714 L 1808.6349334690217 16.897288110099574 L 1808.6617755187199 16.8068732526355 L 1808.690616279233 16.716584254626905 L 1808.721452866509 16.62643014489834 L 1808.754282196915 16.536419938785652 L 1808.7891009875452 16.446562637234447 L 1808.8259057565494 16.356867225899993 L 1808.8646928234818 16.26734267424868 L 1808.905458309668 16.177997934661075 L 1808.9481981385927 16.08884194153668 L 1808.9929080363092 15.999883610400506 L 1809.039583531865 15.911131837011538 L 1809.0882199577493 15.82259549647316 L 1809.1388124503599 15.734283442345639 L 1809.1913559504899 15.6462045057608 L 1809.245845203833 15.558367494538897 L 1809.3022747615091 15.47078119230786 L 1809.3606389806098 15.383454357624922 L 1809.4209320247617 15.296395723100778 L 1809.4831478647104 15.209613994526332 L 1809.547280278924 15.123117850002128 L 1809.6133228542146 15.036915939070532 L 1809.6812689863796 14.951016881850805 L 1809.7511118808623 14.865429268177088 L 1809.8228445534314 14.780161656739425 L 1809.8964598308798 14.695222574227904 L 1809.9719503517408 14.610620514479992 L 1810.049308567025 14.526363937631164 L 1810.128526740976 14.44246126926889 L 1810.2095969518418 14.358920899590089 L 1810.292511092669 14.27575118256211 L 1810.3772608721129 14.19296043508735 L 1810.463837815266 14.110556936171564 L 1810.552233264506 14.028548926095976 L 1810.642438380362 13.946944605593249 L 1810.734444142397 13.865752135027433 L 1810.828241350112 13.784979633577926 L 1810.9238206238642 13.704635178427559 L 1811.021172405806 13.624726803954896 L 1811.12028696084 13.545262500930793 L 1811.2211543775936 13.466250215719334 L 1811.3237645694091 13.387697849483194 L 1811.4281072753529 13.30961325739354 L 1811.5341720612412 13.23200424784451 L 1811.641948320684 13.154878581672381 L 1811.7514252761448 13.078243971379504 L 1811.8625919800197 13.002108080363044 L 1811.9754373157307 12.926478522148656 L 1812.0899499988384 12.851362859629138 L 1812.2061185781697 12.776768604308145 L 1812.3239314369637 12.702703215549048 L 1812.4433767940327 12.629174099829003 L 1812.5644427049403 12.556188609998305 L 1812.6871170631966 12.483754044545117 L 1812.811387601468 12.411877646865625 L 1812.937241892804 12.340566604539697 L 1813.0646673518802 12.26982804861214 L 1813.1936512362574 12.199669052879603 L 1813.3241806476542 12.130096633183188 L 1813.4562425332385 12.06111774670689 L 1813.5898236869316 11.992739291281874 L 1813.7249107507296 11.924968104696699 L 1813.8614902160386 11.857810964013552 L 1813.999548425026 11.791274584890534 L 1814.1390715719856 11.725365620910111 L 1814.2800457047194 11.660090662913756 L 1814.4224567259316 11.595456238342878 L 1814.5662903946384 11.531468810586066 L 1814.711532327593 11.468134778332775 L 1814.8581680007233 11.405460474933456 L 1815.0061827505838 11.343452167766216 L 1815.1555617758231 11.282116057610097 L 1815.3062901386634 11.221458278025008 L 1815.4583527663935 11.16148489473835 L 1815.6117344528775 11.10220190503848 L 1815.7664198600748 11.043615237174969 L 1815.9223935195735 10.985730749765775 L 1816.0796398341377 10.928554231211407 L 1816.2381430792666 10.87209139911607 L 1816.397887404768 10.816347899715922 L 1816.5588568363428 10.76132930731445 L 1816.7210352771813 10.707041123725045 L 1816.8844065095752 10.653488777720831 L 1817.0489541965371 10.600677624491773 L 1817.2146618834354 10.548612945109191 L 1817.3815129996397 10.497299945997636 L 1817.5494908601772 10.446743758414254 L 1817.718578667402 10.396949437935678 L 1817.8887595126744 10.347921963952459 L 1818.0600163780512 10.299666239171138 L 1818.2323321379888 10.252187089123984 L 1818.4056895610552 10.20548926168643 L 1818.580071311652 10.159577426602311 L 1818.7554599517498 10.114456175016873 L 1818.9318379426306 10.070130019017672 L 1819.1091876466423 10.026603391183372 L 1819.2874913289625 9.983880644140482 L 1819.4667311593712 9.941966050128107 L 1819.646889214035 9.900863800570718 L 1819.8279474772983 9.86057800565902 L 1820.009887843486 9.82111269393893 L 1820.1926921187128 9.782471811908737 L 1820.3763420227037 9.744659223624438 L 1820.5608191906213 9.707678710313356 L 1820.7461051749024 9.671533969996 L 1820.9321814471032 9.636228617116288 L 1821.1190293997513 9.60176618218008 L 1821.3066303482074 9.568150111402154 L 1821.494965532533 9.535383766361576 L 1821.684016119366 9.503470423665544 L 1821.8737632038062 9.472413274621731 L 1822.0641878113026 9.442215424919162 L 1822.2552708995534 9.412879894317644 L 1822.446993360409 9.384409616345788 L 1822.639336021783 9.35680743800767 L 1822.8322796495695 9.330076119498116 L 1823.0258049495667 9.304218333926707 L 1823.2198925694058 9.27923666705045 L 1823.4145231004863 9.255133617015213 L 1823.609677079918 9.231911594105915 L 1823.8053349924646 9.209572920505497 L 1824.0014772724985 9.1881198300627 L 1824.198084305955 9.167554468068694 L 1824.3951364322947 9.147878891042538 L 1824.5926139464693 9.129095066525542 L 1824.7904971008916 9.1112048728845 L 1824.988766107411 9.09421009912387 L 1825.1874011392924 9.078112444706866 L 1825.386382333198 9.062913519385516 L 1825.5856897911744 9.048614843039683 L 1825.7853035826417 9.03521784552509 L 1825.985203746387 9.022723866530322 L 1826.1853702925607 9.011134155442866 L 1826.385783204675 9.000449871224175 L 1826.5864224416055 8.990672082293766 L 1826.787267939596 8.981801766422386 L 1826.9882996142637 8.973839810634226 L 1827.189497362609 8.966787011118234 L 1827.3908410650247 8.960644073148481 L 1827.592310587308 8.955411611013648 L 1827.793885782675 8.951090147955588 L 1827.9955464937739 8.947680116117002 L 1828.1972725547016 8.945181856498236 L 1828.3990437930202 8.943595618923167 L 1828.6008400317742 8.942921562014233 L 1828.8026410915074 8.94315975317656 L 1829.0044267922824 8.944310168591237 L 1829.2061769556972 8.946372693217674 L 1829.4078714069035 8.949347120805129 L 1829.6094899766244 8.953233153913324 L 1829.8110125031708 8.958030403942185 L 1830.012418834458 8.963738391170708 L 1830.2136888300208 8.970356544804925 L 1830.414802363027 8.97788420303499 L 1830.6157393222916 8.98632061310135 L 1830.8164796142855 8.99566493137003 L 1831.0170031651471 9.00591622341699 L 1831.2172899226885 9.017073464121571 L 1831.4173198584003 9.029135537768996 L 1831.617072969456 9.042101238161953 L 1831.8165292807114 9.055969268741208 L 1832.0156688467007 9.070738242715262 L 1832.214471753634 9.086406683199021 L 1832.4129181213857 9.102973023361494 L 1832.6109881054847 9.120435606582474 L 1832.8086618990976 9.138792686618187 L 1833.0059197350097 9.158042427775927 L 1833.202741887602 9.178182905097621 L 1833.399108674823 9.199212104552322 L 1833.595000460158 9.221127923237606 L 1833.790397654591 9.243928169589871 L 1833.9852807185662 9.267610563603478 L 1834.179630163939 9.292172737058763 L 1834.3734265559272 9.317612233758847 L 1834.566650515053 9.343926509775264 L 1834.7592827190813 9.371112933702335 L 1834.9513039049525 9.399168786920328 L 1835.1426948707078 9.428091263867296 L 1835.3334364774103 9.45787747231965 L 1835.5235096510582 9.488524433681365 L 1835.7128953844924 9.520029083281843 L 1835.9015747392978 9.55238827068238 L 1836.0895288476956 9.585598759991202 L 1836.276738914432 9.619657230187048 L 1836.4631862186561 9.654560275451288 L 1836.648852115793 9.690304405508478 L 1836.8337180394076 9.726886045975398 L 1837.0177655030618 9.764301538718486 L 1837.2009761021623 9.802547142219648 L 1837.383331515802 9.841619031950406 L 1837.5648135085914 9.881513300754346 L 1837.7454039324828 9.92222595923783 L 1837.9250847285841 9.963752936168941 L 1838.1038379289653 10.00609007888459 L 1838.2816456584553 10.049233153705785 L 1838.4584901364294 10.093177846360998 L 1838.6343536785873 10.137919762417582 L 1838.8092186987215 10.18345442772122 L 1838.983067710475 10.229777288843323 L 1839.1558833290921 10.276883713536382 L 1839.327648273155 10.324768991197185 L 1839.4983453663122 10.373428333337866 L 1839.6679575389965 10.422856874064767 L 1839.8364678301323 10.473049670564997 L 1840.0038593888305 10.52400170360074 L 1840.1701154760751 10.575707878011151 L 1840.335219466396 10.628163023221877 L 1840.4991548495314 10.681361893762105 L 1840.6619052320796 10.73529916978912 L 1840.8234543391382 10.789969457620263 L 1840.9837860159312 10.84536729027231 L 1841.1428842294242 10.90148712800816 L 1841.3007330699286 10.958323358890807 L 1841.457316752692 11.015870299344526 L 1841.6126196194764 11.074122194723225 L 1841.7666261401246 11.133073219885913 L 1841.9193209141129 11.192717479779198 L 1842.0706886720911 11.253049010026789 L 1842.2207142774098 11.314061777525946 L 1842.3693827276334 11.375749681050758 L 1842.5166791560403 11.43810655186228 L 1842.662588833111 11.501126154325393 L 1842.807097167999 11.564802186532368 L 1842.9501897099915 11.629128280933049 L 1843.0918521499534 11.6940980049716 L 1843.2320703217586 11.759704861729757 L 1843.370830203707 11.825942290576517 L 1843.5081179199262 11.892803667824193 L 1843.6439197417587 11.96028230739078 L 1843.7782220891354 12.02837146146855 L 1843.9110115319338 12.097064321198838 L 1844.04227479132 12.166354017352914 L 1844.1719987410777 12.236233621018904 L 1844.3001704089197 12.306696144294676 L 1844.4267769777864 12.377734540986618 L 1844.551805787126 12.449341707314261 L 1844.6752443341622 12.521510482620645 L 1844.797080275143 12.594233650088377 L 1844.9173014265755 12.667503937461316 L 1845.035895766445 12.741314017771781 L 1845.1528514354166 12.815656510073252 L 1845.2681567380205 12.890523980178447 L 1845.3818001438228 12.965908941402748 L 1845.4937702885773 13.04180385531285 L 1845.604055975363 13.11820113248061 L 1845.7126461757034 13.195093133241976 L 1845.8195300306684 13.272472168460947 L 1845.924696851962 13.350330500298481 L 1846.0281361229895 13.42866034298628 L 1846.12983749991 13.507453863605349 L 1846.229790812671 13.586703182869286 L 1846.3279860660239 13.666400375912204 L 1846.4244134405253 13.746537473081217 L 1846.5190632935185 13.827106460733386 L 1846.6119261600966 13.908099282037085 L 1846.7029927540507 13.989507837777682 L 1846.792253968797 14.071323987167439 L 1846.8797008782888 14.1535395486596 L 1846.9653247379076 14.236146300766524 L 1847.049116985339 14.319135982881845 L 1847.131069241428 14.402500296106505 L 1847.2111733110173 14.486230904078653 L 1847.2894211837668 14.570319433807267 L 1847.3658050349543 14.654757476509447 L 1847.4403172262585 14.739536588451287 L 1847.5129503065223 14.824648291792245 L 1847.583697012498 14.910084075432911 L 1847.6525502695742 14.995835395866116 L 1847.7195031924825 15.081893678031278 L 1847.7845490859863 15.168250316171896 L 1847.8476814455507 15.254896674696116 L 1847.908893957992 15.341824089040294 L 1847.9681805021103 15.429023866535433 L 1848.0255351493004 15.516487287276451 L 1848.0809521641454 15.604205604994158 L 1848.13442600499 15.692170047929883 L 1848.185951324495 15.780371819712634 L 1848.235522970171 15.868802100238737 L 1848.2831359848944 15.957452046553826 L 1848.3287856074044 16.046312793737147 L 1848.3724672727758 16.135375455788033 L 1848.4141766128791 16.2246311265145 L 1848.453909456815 16.314070880423845 L 1848.4916618313316 16.40368577361522 L 1848.5274299612238 16.49346684467398 L 1848.5612102697078 16.583405115567835 L 1848.592999378781 16.67349159254465 L 1848.6227941095592 16.763717267031794 L 1848.650591482594 16.85407311653701 L 1848.6763887181714 16.944550105550636 L 1848.700183236589 17.03513918644918 L 1848.7219726584153 17.12583130040003 L 1848.7417548047258 17.216617378267376 L 1848.7595276973225 17.307488341519083 L 1848.775289558931 17.398435103134553 L 1848.7890388133783 17.48944856851341 L 1848.8007740857504 17.580519636384963 L 1848.8104942025298 17.67163919971832 L 1848.818198191713 17.762798146633074 L 1848.8238852829072 17.8539873613105 L 1848.8275549074085 17.945197724905128 L 1848.8292066982572 18.0364201164566 M 1848.8293090744585 47.09187800570001 L 1848.8283000699246 47.18310231293715 L 1848.8252731572225 47.27431749781959 L 1848.820228639041 47.365514438904846 L 1848.813167019828 47.45668401657481 L 1848.804089005739 47.547817113947694 L 1848.792995504568 47.638904617789706 L 1848.7798876256559 47.729937419426356 L 1848.7647666797798 47.82090641565335 L 1848.7476341790216 47.91180250964687 L 1848.7284918366172 48.002616611873265 L 1848.7073415667846 48.09333964099798 L 1848.6841854845336 48.18396252479373 L 1848.6590259054528 48.27447620104763 L 1848.6318653454791 48.36487161846748 L 1848.6027065206463 48.45513973758689 L 1848.571552346812 48.54527153166916 L 1848.538405939368 48.63525798760998 L 1848.5032706129273 48.72509010683876 L 1848.4661498809933 48.81475890621844 L 1848.427047455608 48.90425541894379 L 1848.3859672469819 48.99357069543812 L 1848.3429133631012 49.082695804248225 L 1848.2978901093186 49.17162183293748 L 1848.250901987922 49.26033988897713 L 1848.201953697684 49.34884110063549 L 1848.1510501333933 49.43711661786516 L 1848.0981963853635 49.525157613187965 L 1848.0433977389257 49.61295528257775 L 1847.9866596738989 49.70050084634074 L 1847.927987864042 49.78778554999351 L 1847.8673881764873 49.87480066513843 L 1847.8048666711531 49.961537490336504 L 1847.7404296001378 50.04798735197749 L 1847.6740834070947 50.134141605147256 L 1847.6058347265878 50.2199916344923 L 1847.5356903834283 50.305528855081214 L 1847.4636573919922 50.39074471326322 L 1847.3897429555186 50.47563068752352 L 1847.3139544653895 50.56017828933542 L 1847.2362995003907 50.64437906400919 L 1847.156785825954 50.72822459153755 L 1847.0754213933808 50.8117064874376 L 1846.992214339046 50.894816403589324 L 1846.9071729835864 50.97754602907036 L 1846.8203058310662 51.059887090987104 L 1846.7316215681283 51.14183135530199 L 1846.6411290631254 51.22337062765686 L 1846.5488373652322 51.304496754192435 L 1846.4547557035419 51.38520162236367 L 1846.358893486142 51.46547716175098 L 1846.2612602991746 51.545315344867355 L 1846.1618659058768 51.62470818796099 L 1846.0607202456054 51.70364775181375 L 1845.9578334328417 51.78212614253502 L 1845.8532157561817 51.86013551235114 L 1845.7468776773057 51.93766806039013 L 1845.6388298299328 52.014716033461795 L 1845.529083018758 52.09127172683303 L 1845.4176482183707 52.1673274849983 L 1845.3045365721584 52.242875702445176 L 1845.189759391191 52.31790882441486 L 1845.0733281530913 52.39241934765768 L 1844.9552545008862 52.4663998211834 L 1844.835550241842 52.539842847006334 L 1844.7142273462853 52.612741080885094 L 1844.5912979464044 52.68508723305703 L 1844.466774335037 52.756874068967235 L 1844.34066896444 52.82809440999192 L 1844.212994445046 52.89874113415634 L 1844.0837635442003 52.96880717684695 L 1843.9529891848852 53.03828553151787 L 1843.8206844444276 53.107169250391536 L 1843.6868625531913 53.175451445153456 L 1843.551536893254 53.243125287641064 L 1843.414720997069 53.31018401052649 L 1843.276428546112 53.37662090799334 L 1843.1366733695124 53.44242933640724 L 1842.995469442672 53.507602714980166 L 1842.8528308858652 53.572134526428584 L 1842.7087719628291 53.63601831762513 L 1842.563307079336 53.699247700243916 L 1842.4164507817532 53.76181635139937 L 1842.2682177555876 53.82371801427851 L 1842.1186228240188 53.884946498766645 L 1841.9676809464147 53.945495682066344 L 1841.815407216838 54.00535950930974 L 1841.6618168625341 54.064531994163985 L 1841.506925242411 54.123007219429915 L 1841.350747845501 54.18077933763372 L 1841.1933002894143 54.237842571611736 L 1841.034598318775 54.294191215088105 L 1840.8746578036478 54.349819633245446 L 1840.7134947379511 54.4047222632883 L 1840.5511252378571 54.45889361499941 L 1840.3875655401805 54.512328271288744 L 1840.222832000755 54.56502088873521 L 1840.056941092797 54.61696619812098 L 1839.8899094052588 54.66815900495838 L 1839.7217536411706 54.718594190009405 L 1839.5524906159683 54.76826670979758 L 1839.3821372558132 54.817171597112306 L 1839.2107105958999 54.865303961505624 L 1839.038227778751 54.912658989781185 L 1838.8647060525045 54.95923194647564 L 1838.6901627691889 55.00501817433212 L 1838.514615382987 55.050013094766 L 1838.3380814484904 55.09421220832273 L 1838.1605786189464 55.137611095127795 L 1837.9821246444892 55.180205415328665 L 1837.8027373703683 55.22199090952882 L 1837.622434735161 55.26296339921367 L 1837.441234768981 55.30311878716838 L 1837.2591555916736 55.342453057887624 L 1837.076215411005 55.3809622779771 L 1836.8924325208409 55.418642596546896 L 1836.707825299317 55.45549024559656 L 1836.5224122070015 55.49150154039188 L 1836.3362117850493 55.5266728798334 L 1836.1492426533473 55.56100074681648 L 1835.961523508653 55.594481708583025 L 1835.7730731227246 55.627112417064765 L 1835.583910340443 55.658889609218036 L 1835.3940540779297 55.689810107350105 L 1835.203523320652 55.719870819436935 L 1835.0123371215273 55.74906873943235 L 1834.8205145990157 55.77740094756871 L 1834.6280749352102 55.80486461064878 L 1834.4350373739164 55.83145698232916 L 1834.2414212187298 55.857175403394834 L 1834.0472458311044 55.88201730202513 L 1833.8525306284173 55.90598019405088 L 1833.6572950820264 55.92906168320286 L 1833.4615587153235 55.95125946135139 L 1833.2653411017825 55.972571308737145 L 1833.068661863001 55.99299509419315 L 1832.871540666739 56.01252877535787 L 1832.673997224952 56.03117039887948 L 1832.4760512918194 56.04891810061116 L 1832.2777226617695 56.065770105797526 L 1832.0790311675005 56.081724729252095 L 1831.8799966779957 56.096780375525825 L 1831.6806390965382 56.11093553906663 L 1831.4809783587204 56.12418880436996 L 1831.2810344304496 56.13653884612032 L 1831.0808273059517 56.14798442932383 L 1830.8803770057727 56.158524409431706 L 1830.6797035747752 56.16815773245473 L 1830.4788270801355 56.17688343506861 L 1830.2777676093353 56.184700644710375 L 1830.0765452681544 56.19160857966556 L 1829.875180178659 56.197606549146435 L 1829.6736924771903 56.20269395336105 L 1829.4721023123507 56.20687028357321 L 1829.2704298429887 56.21013512215339 L 1829.0686952361827 56.212488142620444 L 1828.866918665226 56.2139291096743 L 1828.665120307607 56.21445787921943 L 1828.4633203429935 56.21407439837934 L 1828.2615389512139 56.21277870550178 L 1828.0597963102389 56.21057093015497 L 1827.8581125941648 56.2074512931146 L 1827.656507971195 56.203420106341774 L 1827.4550026016236 56.19847777295181 L 1827.2536166358202 56.192624787173926 L 1827.052370212213 56.18586173430183 L 1826.8512834552769 56.17818929063517 L 1826.65037647352 56.16960822341191 L 1826.4496693574729 56.16011939073163 L 1826.2491821776803 56.14972374146969 L 1826.0489349826928 56.13842231518235 L 1825.8489477970631 56.12621624200283 L 1825.6492406193431 56.113106742528274 L 1825.4498334200844 56.099095127697694 L 1825.2507461398402 56.084182798660905 L 1825.0519986871732 56.06837124663838 L 1824.8536109366628 56.051662052772144 L 1824.6556027269185 56.034056887967665 L 1824.4579938585966 56.01555751272676 L 1824.2608040924192 55.996165776971516 L 1824.0640531471986 55.97588361985936 L 1823.8677606978652 55.954713069589104 L 1823.6719463735005 55.93265624319813 L 1823.4766297553738 55.9097153463507 L 1823.2818303749839 55.885892673117375 L 1823.0875677121066 55.861190605745634 L 1822.8938611928468 55.835611614421616 L 1822.7007301876943 55.80915825702316 L 1822.508194009589 55.781833178863934 L 1822.3162719119882 55.753639112429 L 1822.1249830869417 55.72457887710151 L 1821.9343466631726 55.69465537888076 L 1821.7443817041647 55.66387161009166 L 1821.5551072062553 55.63223064908542 L 1821.3665420967363 55.59973565993178 L 1821.1787052319619 55.56638989210258 L 1820.991615395462 55.5321966801468 L 1820.805291296064 55.497159443357155 L 1820.619751566023 55.46128168542812 L 1820.435014759157 55.4245669941056 L 1820.251099348993 55.387019040828115 L 1820.0680237269187 55.34864158035972 L 1819.8858062003437 55.30943845041446 L 1819.704464990869 55.269413571272686 L 1819.524018232464 55.22857094538894 L 1819.3444839696544 55.18691465699178 L 1819.165880155717 55.14444887167533 L 1818.9882246508844 55.10117783598274 L 1818.8115352205589 55.05710587698152 L 1818.635829533536 55.01223740183083 L 1818.4611251602385 54.96657689734081 L 1818.287439570958 54.92012892952385 L 1818.1147901341085 54.87289814313803 L 1817.9431941144899 54.82488926122262 L 1817.772668671561 54.77610708462583 L 1817.6032308577244 54.72655649152463 L 1817.43489761662 54.67624243693707 L 1817.2676857814315 54.62516995222667 L 1817.1016120732036 54.57334414459934 L 1816.9366930991682 54.52077019659265 L 1816.7729453510854 54.467453365557596 L 1816.6103852035938 54.41339898313285 L 1816.4490289125724 54.358612454711604 L 1816.2888926135158 54.30309925890105 L 1816.1299923199208 54.24686494697451 L 1815.9723439216841 54.18991514231631 L 1815.8159631835142 54.13225553985946 L 1815.6608657433546 54.073891905516156 L 1815.50706711082 54.014830075601196 L 1815.3545826656455 53.95507595624835 L 1815.2034276561487 53.89463552281976 L 1815.0536171977044 53.83351481930841 L 1814.9051662712338 53.77171995773371 L 1814.7580897217056 53.70925711753032 L 1814.6124022566523 53.64613254493022 L 1814.4681184446993 53.582352552338044 L 1814.325252714107 53.51792351769993 L 1814.1838193513297 53.45285188386562 L 1814.0438324995857 53.3871441579443 L 1813.9053061574439 53.320806910653786 L 1813.7682541774225 53.25384677566353 L 1813.6326902646058 53.186270448931246 L 1813.4986279752718 53.11808468803328 L 1813.3660807155377 53.049296311488895 L 1813.2350617400193 52.97991219807844 L 1813.1055841505047 52.909939286155414 L 1812.9776608946452 52.83938457295272 L 1812.8513047646595 52.76825511388287 L 1812.7265283960553 52.6965580218325 L 1812.6033442663659 52.62430046645107 L 1812.4817646939011 52.5514896734339 L 1812.3618018365173 52.47813292379962 L 1812.2434676903997 52.40423755316206 L 1812.126774088865 52.3298109509967 L 1812.0117327011756 52.25486055990175 L 1811.8983550313744 52.179393874853844 L 1811.786652417134 52.103418442458604 L 1811.676636028623 52.02694186019596 L 1811.5683168673884 51.94997177566041 L 1811.4617057652558 51.87251588579626 L 1811.356813383247 51.79458193612795 L 1811.2536502105124 51.7161777199855 L 1811.1522265632836 51.6373110777252 L 1811.0525525838405 51.55798989594554 L 1810.9546382394983 51.47822210669861 L 1810.8584933216098 51.398015686696844 L 1810.7641274445864 51.31737865651542 L 1810.6715500449372 51.23631907979016 L 1810.5807703803255 51.15484506241117 L 1810.4917975286414 51.072964751712306 L 1810.4046403870966 50.990686335656406 L 1810.3193076713321 50.9080180420165 L 1810.2358079145488 50.82496813755307 L 1810.1541494666524 50.74154492718736 L 1810.0743404934199 50.65775675317087 L 1809.996388975682 50.573611994251195 L 1809.9203027085255 50.4891190648341 L 1809.8460893005138 50.40428641414212 L 1809.7737561729257 50.31912252536962 L 1809.703310559014 50.233635914834515 L 1809.634759503281 50.14783513112663 L 1809.5681098607754 50.06172875425281 L 1809.5033682964058 49.975325394779006 L 1809.4405412842748 49.888633692969165 L 1809.3796351070312 49.80166231792121 L 1809.320655855242 49.71441996670019 L 1809.263609426783 49.626915363468505 L 1809.2085015262498 49.53915725861357 L 1809.1553376643863 49.45115442787274 L 1809.1041231575346 49.362915671455745 L 1809.0548631271026 49.27444981316471 L 1809.0075624990523 49.18576569951172 L 1808.962226003407 49.09687219883425 L 1808.9188581737787 49.007778200408296 L 1808.877463346914 48.918492613559444 L 1808.8380456622613 48.82902436677198 L 1808.800609061556 48.73938240679603 L 1808.7651572884272 48.64957569775289 L 1808.7316938880224 48.55961322023861 L 1808.700222206654 48.46950397042599 L 1808.6707453914637 48.37925695916492 L 1808.6432663901087 48.28888121108131 L 1808.617787950466 48.198385763674665 L 1808.5943126203586 48.1077796664143 L 1808.5728427472995 48.017071979834455 L 1808.5533804782588 47.92627177462819 L 1808.5359277594464 47.835388130740355 L 1808.5204863361203 47.744430136459606 L 1808.5070577524095 47.65340688750957 L 1808.4956433511613 47.562327486139296 L 1808.4862442738065 47.47120104021301 L 1808.478861460245 47.38003666229938 L 1808.4734956487519 47.28884346876023 L 1808.4701473759037 47.1976305788389 L 1808.468816976525 47.10640711374838" stroke-miterlimit="10" stroke-width="2.3497561670000002" stroke-dasharray=""/></g><g><g/><text fill="black" stroke="none" font-family="sans-serif" font-size="8pt" font-style="normal" font-weight="normal" text-decoration="normal" x="1805.1048607753335" y="71.045568814" text-anchor="start" dominant-baseline="alphabetic" xml:space="preserve">Database</text></g><g><path fill="white" stroke="black" paint-order="fill stroke markers" d=" M 1916.0088225332083 33.64297947340001 A 20.5258112235 20.5258112235 0 1 1 1916.0088122703037 33.62245366559747 M 1873.7823220027085 56.04859563050001 L 1917.1837006167084 56.04859563050001" stroke-miterlimit="10" stroke-width="2.3497561670000002" stroke-dasharray=""/></g><g><g/><text fill="black" stroke="none" font-family="sans-serif" font-size="8pt" font-style="normal" font-weight="normal" text-decoration="normal" x="1870.1153355284584" y="71.045568814" text-anchor="start" dominant-baseline="alphabetic" xml:space="preserve">s(Screen)</text></g><g><path fill="white" stroke="black" paint-order="fill stroke markers" d=" M 1979.6424410707086 33.64297947340001 A 20.5258112235 20.5258112235 0 1 1 1979.6424308078037 33.62245366559747 M 1937.4159405402083 56.04859563050001 L 1980.8173191542087 56.04859563050001" stroke-miterlimit="10" stroke-width="2.3497561670000002" stroke-dasharray=""/></g><g><g/><text fill="black" stroke="none" font-family="sans-serif" font-size="8pt" font-style="normal" font-weight="normal" text-decoration="normal" x="1934.6727821909585" y="71.045568814" text-anchor="start" dominant-baseline="alphabetic" xml:space="preserve">m(Movie)</text></g></g><g><path fill="white" stroke="black" paint-order="fill stroke markers" d=" M 272.9940940375 120.80511117400002 L 286.8161891375 120.80511117400002 L 286.8161891375 1799.1944749768015 L 272.9940940375 1799.1944749768015 L 272.9940940375 120.80511117400002" stroke-miterlimit="10" stroke-width="1.1518412583333333" stroke-dasharray=""/><path fill="white" stroke="black" paint-order="fill stroke markers" d=" M 93.91171148333333 202.90835606800002 L 107.73380658333335 202.90835606800002 L 107.73380658333335 241.61022234800004 L 93.91171148333333 241.61022234800004 L 93.91171148333333 202.90835606800002" stroke-miterlimit="10" stroke-width="1.1518412583333333" stroke-dasharray=""/><path fill="white" stroke="black" paint-order="fill stroke markers" d=" M 93.91171148333333 280.312088628 L 107.73380658333335 280.312088628 L 107.73380658333335 396.417687468 L 93.91171148333333 396.417687468 L 93.91171148333333 280.312088628" stroke-miterlimit="10" stroke-width="1.1518412583333333" stroke-dasharray=""/><path fill="white" stroke="black" paint-order="fill stroke markers" d=" M 11.21484375 319.013954908 L 25.03693885 319.013954908 L 25.03693885 357.715821188 L 11.21484375 357.715821188 L 11.21484375 319.013954908" stroke-miterlimit="10" stroke-width="1.1518412583333333" stroke-dasharray=""/><path fill="white" stroke="black" paint-order="fill stroke markers" d=" M 514.0358639854167 462.763743948 L 527.8579590854167 462.763743948 L 527.8579590854167 1760.4926086968014 L 514.0358639854167 1760.4926086968014 L 514.0358639854167 462.763743948" stroke-miterlimit="10" stroke-width="1.1518412583333333" stroke-dasharray=""/><path fill="white" stroke="black" paint-order="fill stroke markers" d=" M 1104.0838679062501 758.556579088 L 1117.90596300625 758.556579088 L 1117.90596300625 1432.9089548268007 L 1104.0838679062501 1432.9089548268007 L 1104.0838679062501 758.556579088" stroke-miterlimit="10" stroke-width="1.1518412583333333" stroke-dasharray=""/><path fill="white" stroke="black" paint-order="fill stroke markers" d=" M 1312.497793429167 797.258445368 L 1326.3198885291667 797.258445368 L 1326.3198885291667 892.630901558 L 1312.497793429167 892.630901558 L 1312.497793429167 797.258445368" stroke-miterlimit="10" stroke-width="1.1518412583333333" stroke-dasharray=""/><path fill="white" stroke="black" paint-order="fill stroke markers" d=" M 1649.9147553638752 1028.0874335380001 L 1663.736850463875 1028.0874335380001 L 1663.736850463875 1394.2070885468006 L 1649.9147553638752 1394.2070885468006 L 1649.9147553638752 1028.0874335380001" stroke-miterlimit="10" stroke-width="1.1518412583333333" stroke-dasharray=""/><path fill="white" stroke="black" paint-order="fill stroke markers" d=" M 1656.8258029138751 1123.4598897280002 L 1670.647898013875 1123.4598897280002 L 1670.647898013875 1200.8636222880004 L 1656.8258029138751 1200.8636222880004 L 1656.8258029138751 1123.4598897280002" stroke-miterlimit="10" stroke-width="1.1518412583333333" stroke-dasharray=""/><path fill="white" stroke="black" paint-order="fill stroke markers" d=" M 2039.6922281784587 1316.8033559868004 L 2053.5143232784585 1316.8033559868004 L 2053.5143232784585 1355.5052222668005 L 2039.6922281784587 1355.5052222668005 L 2039.6922281784587 1316.8033559868004" stroke-miterlimit="10" stroke-width="1.1518412583333333" stroke-dasharray=""/><path fill="white" stroke="black" paint-order="fill stroke markers" d=" M 520.9469115354167 1489.5795447368007 L 534.7690066354168 1489.5795447368007 L 534.7690066354168 1731.4662089868013 L 520.9469115354167 1731.4662089868013 L 520.9469115354167 1489.5795447368007" stroke-miterlimit="10" stroke-width="1.1518412583333333" stroke-dasharray=""/><path fill="white" stroke="black" paint-order="fill stroke markers" d=" M 279.9051415875 1528.2814110168008 L 293.72723668749995 1528.2814110168008 L 293.72723668749995 1721.7907424168013 L 279.9051415875 1721.7907424168013 L 279.9051415875 1528.2814110168008" stroke-miterlimit="10" stroke-width="1.1518412583333333" stroke-dasharray=""/><path fill="white" stroke="black" paint-order="fill stroke markers" d=" M 527.8579590854166 1566.983277296801 L 541.6800541854167 1566.983277296801 L 541.6800541854167 1605.685143576801 L 527.8579590854166 1605.685143576801 L 527.8579590854166 1566.983277296801" stroke-miterlimit="10" stroke-width="1.1518412583333333" stroke-dasharray=""/><path fill="white" stroke="black" paint-order="fill stroke markers" d=" M 527.8579590854166 1644.3870098568011 L 541.6800541854167 1644.3870098568011 L 541.6800541854167 1683.0888761368012 L 527.8579590854166 1683.0888761368012 L 527.8579590854166 1644.3870098568011" stroke-miterlimit="10" stroke-width="1.1518412583333333" stroke-dasharray=""/><g><g><rect fill="white" stroke="none" x="93.04136590375" y="102.83638754400002" width="105.03725353" height="17.96872363"/></g><text fill="black" stroke="none" font-family="sans-serif" font-size="8pt" font-style="normal" font-weight="normal" text-decoration="normal" x="95.11468016875" y="115.27627313400002" text-anchor="start" dominant-baseline="alphabetic" xml:space="preserve">scheduleScreening()</text></g><g><path fill="none" stroke="black" paint-order="fill stroke markers" d=" M 18.1258913 120.80511117400002 L 261.6139024051667 120.80511117400002" stroke-miterlimit="10" stroke-width="1.1518412583333333" stroke-dasharray=""/><g transform="translate(272.9940940375,120.80511117400002) translate(-272.9940940375,-120.80511117400002)"><path fill="black" stroke="none" paint-order="stroke fill markers" d=" M 261.4756814541667 115.04590488233335 L 272.9940940375 120.80511117400002 L 261.4756814541667 126.56431746566669 Z"/></g></g><g><path fill="white" stroke="black" paint-order="fill stroke markers" d=" M 128.25961780683335 162.06406504749998 A 20.5258112235 20.5258112235 0 1 1 128.25960754392858 162.04353923969742 M 74.56077834333334 140.36337574049998 L 74.56077834333334 183.76475435449998 M 73.38590025983333 162.06406504749998 L 87.20799535983335 162.06406504749998" stroke-miterlimit="10" stroke-width="2.3497561670000002" stroke-dasharray=""/></g><g><g/><text fill="black" stroke="none" font-family="sans-serif" font-size="8pt" font-style="normal" font-weight="normal" text-decoration="normal" x="60.46436059583334" y="197.5868494545" text-anchor="start" dominant-baseline="alphabetic" xml:space="preserve">ScreeningDialog</text></g><g><g><rect fill="white" stroke="none" x="160.9928271141667" y="154.254581316" width="92.18959728" height="17.96872363"/></g><text fill="black" stroke="none" font-family="sans-serif" font-size="8pt" font-style="normal" font-weight="normal" text-decoration="normal" x="163.06614137916668" y="166.69446690600003" text-anchor="start" dominant-baseline="alphabetic" xml:space="preserve">ScreeningDialog()</text></g><g><path fill="none" stroke="black" paint-order="fill stroke markers" d=" M 272.9940940375 172.223304946 L 152.56134910316666 172.223304946" stroke-miterlimit="10" stroke-width="1.1518412583333333" stroke-dasharray=""/><g transform="translate(141.18115747083334,172.223304946) translate(-141.18115747083334,-172.223304946)"><path fill="black" stroke="none" paint-order="stroke fill markers" d=" M 152.69957005416668 166.46409865433336 L 141.18115747083334 172.223304946 L 152.69957005416668 177.98251123766667 Z"/></g></g><g><g><rect fill="white" stroke="none" x="188.29063604541668" y="223.64149871800004" width="4.14662853" height="17.96872363"/></g><text fill="black" stroke="none" font-family="sans-serif" font-size="8pt" font-style="normal" font-weight="normal" text-decoration="normal" x="190.36395031041667" y="236.08138430800005" text-anchor="start" dominant-baseline="alphabetic" xml:space="preserve"></text></g><g><path fill="none" stroke="black" paint-order="fill stroke markers" d=" M 107.73380658333335 241.61022234800004 L 261.6139024051667 241.61022234800004" stroke-miterlimit="10" stroke-width="1.1518412583333333" stroke-dasharray="5.52883804"/><g transform="translate(272.9940940375,241.61022234800004) translate(-272.9940940375,-241.61022234800004)"><path fill="black" stroke="none" paint-order="stroke fill markers" d=" M 261.4756814541667 235.85101605633338 L 272.9940940375 241.61022234800004 L 261.4756814541667 247.3694286396667 Z"/></g></g><g><g><rect fill="white" stroke="none" x="151.20323370166668" y="262.343364998" width="78.3214332175" height="17.96872363"/></g><text fill="black" stroke="none" font-family="sans-serif" font-size="8pt" font-style="normal" font-weight="normal" text-decoration="normal" x="153.27654796666667" y="274.78325058800004" text-anchor="start" dominant-baseline="alphabetic" xml:space="preserve">showAndWait()</text></g><g><path fill="none" stroke="black" paint-order="fill stroke markers" d=" M 272.9940940375 280.312088628 L 119.11399821566668 280.312088628" stroke-miterlimit="10" stroke-width="1.1518412583333333" stroke-dasharray=""/><g transform="translate(107.73380658333335,280.312088628) translate(-107.73380658333335,-280.312088628)"><path fill="black" stroke="none" paint-order="stroke fill markers" d=" M 119.25221916666668 274.55288233633337 L 107.73380658333335 280.312088628 L 119.25221916666668 286.0712949196667 Z"/></g></g><g><g><rect fill="white" stroke="none" x="57.401010901666666" y="301.045231278" width="4.14662853" height="17.96872363"/></g><text fill="black" stroke="none" font-family="sans-serif" font-size="8pt" font-style="normal" font-weight="normal" text-decoration="normal" x="59.47432516666667" y="313.48511686800003" text-anchor="start" dominant-baseline="alphabetic" xml:space="preserve"></text></g><g><path fill="none" stroke="black" paint-order="fill stroke markers" d=" M 93.91171148333333 319.013954908 L 36.417130482333334 319.013954908" stroke-miterlimit="10" stroke-width="1.1518412583333333" stroke-dasharray=""/><g transform="translate(25.03693885,319.013954908) translate(-25.03693885,-319.013954908)"><path fill="black" stroke="none" paint-order="stroke fill markers" d=" M 36.55535143333333 313.25474861633336 L 25.03693885 319.013954908 L 36.55535143333333 324.7731611996667 Z"/></g></g><g><g><rect fill="white" stroke="none" x="57.401010901666666" y="339.747097558" width="4.14662853" height="17.96872363"/></g><text fill="black" stroke="none" font-family="sans-serif" font-size="8pt" font-style="normal" font-weight="normal" text-decoration="normal" x="59.47432516666667" y="352.186983148" text-anchor="start" dominant-baseline="alphabetic" xml:space="preserve"></text></g><g><path fill="none" stroke="black" paint-order="fill stroke markers" d=" M 25.03693885 357.715821188 L 82.531519851 357.715821188" stroke-miterlimit="10" stroke-width="1.1518412583333333" stroke-dasharray="5.52883804"/><g transform="translate(93.91171148333333,357.715821188) translate(-93.91171148333333,-357.715821188)"><path fill="black" stroke="none" paint-order="stroke fill markers" d=" M 82.3932989 351.95661489633335 L 93.91171148333333 357.715821188 L 82.3932989 363.47502747966666 Z"/></g></g><g><g><rect fill="white" stroke="none" x="126.83995245166668" y="378.448963838" width="127.0479957175" height="17.96872363"/></g><text fill="black" stroke="none" font-family="sans-serif" font-size="8pt" font-style="normal" font-weight="normal" text-decoration="normal" x="128.91326671666667" y="390.888849428" text-anchor="start" dominant-baseline="alphabetic" xml:space="preserve">returnsgi:ScreeningInfo</text></g><g><path fill="none" stroke="black" paint-order="fill stroke markers" d=" M 107.73380658333335 396.417687468 L 261.6139024051667 396.417687468" stroke-miterlimit="10" stroke-width="1.1518412583333333" stroke-dasharray=""/><g transform="translate(272.9940940375,396.417687468) translate(-272.9940940375,-396.417687468)"><path fill="black" stroke="none" paint-order="stroke fill markers" d=" M 261.4756814541667 390.65848117633334 L 272.9940940375 396.417687468 L 261.4756814541667 402.17689375966665 Z"/></g></g><g><g><rect fill="white" stroke="none" x="306.6278587808333" y="417.150830118" width="187.59633556125" height="17.96872363"/></g><g><rect fill="white" stroke="none" x="306.6278587808333" y="430.972925218" width="151.679831655" height="17.96872363"/></g><g><rect fill="white" stroke="none" x="306.6278587808333" y="444.795020318" width="156.36879649875" height="17.96872363"/></g><text fill="black" stroke="none" font-family="sans-serif" font-size="8pt" font-style="normal" font-weight="normal" text-decoration="normal" x="308.70117304583334" y="429.590715708" text-anchor="start" dominant-baseline="alphabetic" xml:space="preserve">scheduleScreening(date:LocalDate,</text><text fill="black" stroke="none" font-family="sans-serif" font-size="8pt" font-style="normal" font-weight="normal" text-decoration="normal" x="308.70117304583334" y="443.412810808" text-anchor="start" dominant-baseline="alphabetic" xml:space="preserve">time:LocalTime,title:String,</text><text fill="black" stroke="none" font-family="sans-serif" font-size="8pt" font-style="normal" font-weight="normal" text-decoration="normal" x="308.70117304583334" y="457.23490590800003" text-anchor="start" dominant-baseline="alphabetic" xml:space="preserve">year:int,screenName:String)</text></g><g><path fill="none" stroke="black" paint-order="fill stroke markers" d=" M 286.8161891375 462.763743948 L 502.65567235308333 462.763743948" stroke-miterlimit="10" stroke-width="1.1518412583333333" stroke-dasharray=""/><g transform="translate(514.0358639854167,462.763743948) translate(-514.0358639854167,-462.763743948)"><path fill="black" stroke="none" paint-order="stroke fill markers" d=" M 502.51745140208334 457.00453765633335 L 514.0358639854167 462.763743948 L 502.51745140208334 468.52295023966667 Z"/></g></g><g><g><rect fill="white" stroke="none" x="544.21410495375" y="520.816543368" width="387.69106212375" height="17.96872363"/></g><text fill="black" stroke="none" font-family="sans-serif" font-size="8pt" font-style="normal" font-weight="normal" text-decoration="normal" x="546.2874192187501" y="533.2564289579999" text-anchor="start" dominant-baseline="alphabetic" xml:space="preserve">checkDoubleScreening(time:LocalTime,screenName:String,sg:Screening)</text></g><g><path fill="none" stroke="black" paint-order="fill stroke markers" d=" M 527.8579590854167 538.785266998 L 583.1463394854168 538.785266998 L 583.1463394854168 556.753990628 L 539.23815071775 556.753990628" stroke-miterlimit="10" stroke-width="1.1518412583333333" stroke-dasharray=""/><g transform="translate(527.8579590854167,556.753990628) translate(-527.8579590854167,-556.753990628)"><path fill="black" stroke="none" paint-order="stroke fill markers" d=" M 539.37637166875 550.9947843363333 L 527.8579590854167 556.753990628 L 539.37637166875 562.5131969196667 Z"/></g></g><g><g><rect fill="white" stroke="none" x="544.21410495375" y="635.539932698" width="527.3878394675" height="17.96872363"/></g><text fill="black" stroke="none" font-family="sans-serif" font-size="8pt" font-style="normal" font-weight="normal" text-decoration="normal" x="546.2874192187501" y="647.9798182879999" text-anchor="start" dominant-baseline="alphabetic" xml:space="preserve">checkTimeAvailable()</text></g><g><path fill="none" stroke="black" paint-order="fill stroke markers" d=" M 527.8579590854167 653.508656328 L 583.1463394854168 653.508656328 L 583.1463394854168 671.477379958 L 539.23815071775 671.477379958" stroke-miterlimit="10" stroke-width="1.1518412583333333" stroke-dasharray=""/><g transform="translate(527.8579590854167,671.477379958) translate(-527.8579590854167,-671.477379958)"><path fill="black" stroke="none" paint-order="stroke fill markers" d=" M 539.37637166875 665.7181736663333 L 527.8579590854167 671.477379958 L 539.37637166875 677.2365862496667 Z"/></g></g><g><g><rect fill="white" stroke="none" x="722.1727457152084" y="712.943665258" width="187.59633556125" height="17.96872363"/></g><g><rect fill="white" stroke="none" x="722.1727457152084" y="726.765760358" width="151.679831655" height="17.96872363"/></g><g><rect fill="white" stroke="none" x="722.1727457152084" y="740.5878554579999" width="156.36879649875" height="17.96872363"/></g><text fill="black" stroke="none" font-family="sans-serif" font-size="8pt" font-style="normal" font-weight="normal" text-decoration="normal" x="724.2460599802084" y="725.3835508479999" text-anchor="start" dominant-baseline="alphabetic" xml:space="preserve">scheduleScreening(date:LocalDate,</text><text fill="black" stroke="none" font-family="sans-serif" font-size="8pt" font-style="normal" font-weight="normal" text-decoration="normal" x="724.2460599802084" y="739.2056459479999" text-anchor="start" dominant-baseline="alphabetic" xml:space="preserve">time:LocalTime,title:String,</text><text fill="black" stroke="none" font-family="sans-serif" font-size="8pt" font-style="normal" font-weight="normal" text-decoration="normal" x="724.2460599802084" y="753.0277410479998" text-anchor="start" dominant-baseline="alphabetic" xml:space="preserve">year:int,screenName:String)</text></g><g><path fill="none" stroke="black" paint-order="fill stroke markers" d=" M 527.8579590854167 758.556579088 L 1092.7036762739167 758.556579088" stroke-miterlimit="10" stroke-width="1.1518412583333333" stroke-dasharray=""/><g transform="translate(1104.0838679062501,758.556579088) translate(-1104.0838679062501,-758.556579088)"><path fill="black" stroke="none" paint-order="stroke fill markers" d=" M 1092.5654553229167 752.7973727963333 L 1104.0838679062501 758.556579088 L 1092.5654553229167 764.3157853796667 Z"/></g></g><g><g><rect fill="white" stroke="none" x="1134.2621088745834" y="779.289721738" width="161.87953868625" height="17.96872363"/></g><text fill="black" stroke="none" font-family="sans-serif" font-size="8pt" font-style="normal" font-weight="normal" text-decoration="normal" x="1136.3354231395833" y="791.7296073279999" text-anchor="start" dominant-baseline="alphabetic" xml:space="preserve">getScreen(screenName:String)</text></g><g><path fill="none" stroke="black" paint-order="fill stroke markers" d=" M 1117.90596300625 797.258445368 L 1301.1176017968335 797.258445368" stroke-miterlimit="10" stroke-width="1.1518412583333333" stroke-dasharray=""/><g transform="translate(1312.497793429167,797.258445368) translate(-1312.497793429167,-797.258445368)"><path fill="black" stroke="none" paint-order="stroke fill markers" d=" M 1300.9793808458335 791.4992390763333 L 1312.497793429167 797.258445368 L 1300.9793808458335 803.0176516596667 Z"/></g></g><g><g><rect fill="white" stroke="none" x="1342.6760343975002" y="817.991588018" width="188.761862905" height="17.96872363"/></g><text fill="black" stroke="none" font-family="sans-serif" font-size="8pt" font-style="normal" font-weight="normal" text-decoration="normal" x="1344.7493486625" y="830.4314736079999" text-anchor="start" dominant-baseline="alphabetic" xml:space="preserve">getFromCacheByName(screenName)</text></g><g><path fill="none" stroke="black" paint-order="fill stroke markers" d=" M 1326.3198885291667 835.960311648 L 1381.6082689291668 835.960311648 L 1381.6082689291668 853.929035278 L 1337.7000801615002 853.929035278" stroke-miterlimit="10" stroke-width="1.1518412583333333" stroke-dasharray=""/><g transform="translate(1326.3198885291667,853.929035278) translate(-1326.3198885291667,-853.929035278)"><path fill="black" stroke="none" paint-order="stroke fill markers" d=" M 1337.8383011125002 848.1698289863333 L 1326.3198885291667 853.929035278 L 1337.8383011125002 859.6882415696667 Z"/></g></g><g><g><rect fill="white" stroke="none" x="1172.4720698120834" y="874.662177928" width="85.45961681125" height="17.96872363"/></g><text fill="black" stroke="none" font-family="sans-serif" font-size="8pt" font-style="normal" font-weight="normal" text-decoration="normal" x="1174.5453840770833" y="887.1020635179999" text-anchor="start" dominant-baseline="alphabetic" xml:space="preserve">returns:Screen</text></g><g><path fill="none" stroke="black" paint-order="fill stroke markers" d=" M 1312.497793429167 892.630901558 L 1129.2861546385834 892.630901558" stroke-miterlimit="10" stroke-width="1.1518412583333333" stroke-dasharray="5.52883804"/><g transform="translate(1117.90596300625,892.630901558) translate(-1117.90596300625,-892.630901558)"><path fill="black" stroke="none" paint-order="stroke fill markers" d=" M 1129.4243755895834 886.8716952663333 L 1117.90596300625 892.630901558 L 1129.4243755895834 898.3901078496667 Z"/></g></g><g><g><rect fill="white" stroke="none" x="1191.1832540162502" y="950.683700978" width="271.81508556125" height="17.96872363"/></g><text fill="black" stroke="none" font-family="sans-serif" font-size="8pt" font-style="normal" font-weight="normal" text-decoration="normal" x="1193.25656828125" y="963.123586568" text-anchor="start" dominant-baseline="alphabetic" xml:space="preserve">m:=getMovie(title:String,runningTime:int,year:int)</text></g><g><path fill="none" stroke="black" paint-order="fill stroke markers" d=" M 1117.90596300625 968.652424608 L 1524.8954389551668 968.652424608" stroke-miterlimit="10" stroke-width="1.1518412583333333" stroke-dasharray=""/><g transform="translate(1536.2756305875002,968.652424608) translate(-1536.2756305875002,-968.652424608)"><path fill="black" stroke="none" paint-order="stroke fill markers" d=" M 1524.7572180041668 962.8932183163333 L 1536.2756305875002 968.652424608 L 1524.7572180041668 974.4116308996668 Z"/></g></g><g><g><rect fill="white" stroke="none" x="1193.4271328106877" y="1010.1187099080001" width="380.96645274875" height="17.96872363"/></g><text fill="black" stroke="none" font-family="sans-serif" font-size="8pt" font-style="normal" font-weight="normal" text-decoration="normal" x="1195.5004470756876" y="1022.558595498" text-anchor="start" dominant-baseline="alphabetic" xml:space="preserve">scheduleScreening(date:LocalDate,m:Movie,s:Screen,time:LocalTime)</text></g><g><path fill="none" stroke="black" paint-order="fill stroke markers" d=" M 1117.90596300625 1028.0874335380001 L 1638.5345637315418 1028.0874335380001" stroke-miterlimit="10" stroke-width="1.1518412583333333" stroke-dasharray=""/><g transform="translate(1649.9147553638752,1028.0874335380001) translate(-1649.9147553638752,-1028.0874335380001)"><path fill="black" stroke="none" paint-order="stroke fill markers" d=" M 1638.3963427805418 1022.3282272463334 L 1649.9147553638752 1028.0874335380001 L 1638.3963427805418 1033.8466398296669 Z"/></g></g><g><g><rect fill="white" stroke="none" x="1713.0881419405418" y="1048.8205761880004" width="66.20961681125" height="17.96872363"/></g><text fill="black" stroke="none" font-family="sans-serif" font-size="8pt" font-style="normal" font-weight="normal" text-decoration="normal" x="1715.1614562055418" y="1061.2604617780005" text-anchor="start" dominant-baseline="alphabetic" xml:space="preserve">oid:=getId()</text></g><g><path fill="none" stroke="black" paint-order="fill stroke markers" d=" M 1663.736850463875 1066.7892998180002 L 1817.268858596125 1066.7892998180002" stroke-miterlimit="10" stroke-width="1.1518412583333333" stroke-dasharray=""/><g transform="translate(1828.6490502284585,1066.7892998180002) translate(-1828.6490502284585,-1066.7892998180002)"><path fill="black" stroke="none" paint-order="stroke fill markers" d=" M 1817.130637645125 1061.0300935263335 L 1828.6490502284585 1066.7892998180002 L 1817.130637645125 1072.548506109667 Z"/></g></g><g><g><rect fill="white" stroke="none" x="1687.0040438822086" y="1087.5224424680002" width="136.80727306125" height="17.96872363"/></g><text fill="black" stroke="none" font-family="sans-serif" font-size="8pt" font-style="normal" font-weight="normal" text-decoration="normal" x="1689.0773581472085" y="1099.9623280580004" text-anchor="start" dominant-baseline="alphabetic" xml:space="preserve">performUpdate(sql:String)</text></g><g><path fill="none" stroke="black" paint-order="fill stroke markers" d=" M 1663.736850463875 1105.4911660980001 L 1725.9362784138752 1105.4911660980001 L 1725.9362784138752 1123.4598897280002 L 1682.0280896462086 1123.4598897280002" stroke-miterlimit="10" stroke-width="1.1518412583333333" stroke-dasharray=""/><g transform="translate(1670.6478980138752,1123.4598897280002) translate(-1670.6478980138752,-1123.4598897280002)"><path fill="black" stroke="none" paint-order="stroke fill markers" d=" M 1682.1663105972086 1117.7006834363335 L 1670.6478980138752 1123.4598897280002 L 1682.1663105972086 1129.219096019667 Z"/></g></g><g><g><rect fill="white" stroke="none" x="1698.665980168667" y="1144.1930323780002" width="101.964987905" height="17.96872363"/></g><text fill="black" stroke="none" font-family="sans-serif" font-size="8pt" font-style="normal" font-weight="normal" text-decoration="normal" x="1700.7392944336668" y="1156.6329179680004" text-anchor="start" dominant-baseline="alphabetic" xml:space="preserve">execute(sql:String)</text></g><g><path fill="none" stroke="black" paint-order="fill stroke markers" d=" M 1670.6478980138752 1162.1617560080003 L 1817.268858596125 1162.1617560080003" stroke-miterlimit="10" stroke-width="1.1518412583333333" stroke-dasharray=""/><g transform="translate(1828.6490502284585,1162.1617560080003) translate(-1828.6490502284585,-1162.1617560080003)"><path fill="black" stroke="none" paint-order="stroke fill markers" d=" M 1817.130637645125 1156.4025497163336 L 1828.6490502284585 1162.1617560080003 L 1817.130637645125 1167.920962299667 Z"/></g></g><g><g><rect fill="white" stroke="none" x="1687.0040438822086" y="1182.8948986580003" width="4.14662853" height="17.96872363"/></g><text fill="black" stroke="none" font-family="sans-serif" font-size="8pt" font-style="normal" font-weight="normal" text-decoration="normal" x="1689.0773581472085" y="1195.3347842480005" text-anchor="start" dominant-baseline="alphabetic" xml:space="preserve"></text></g><g><path fill="none" stroke="black" paint-order="fill stroke markers" d=" M 1670.6478980138752 1200.8636222880004 L 1725.9362784138752 1200.8636222880004 L 1725.9362784138752 1218.8323459180003 L 1675.1170420962087 1218.8323459180003" stroke-miterlimit="10" stroke-width="1.1518412583333333" stroke-dasharray="5.52883804"/><g transform="translate(1663.7368504638753,1218.8323459180003) translate(-1663.7368504638753,-1218.8323459180003)"><path fill="black" stroke="none" paint-order="stroke fill markers" d=" M 1675.2552630472087 1213.0731396263336 L 1663.7368504638753 1218.8323459180003 L 1675.2552630472087 1224.591552209667 Z"/></g></g><g><path fill="white" stroke="black" paint-order="fill stroke markers" d=" M 2067.1290869519585 1274.0792600327 A 20.5258112235 20.5258112235 0 1 1 2067.129076689054 1274.0587342248973 M 2024.9025864214586 1296.4848761898002 L 2068.3039650354585 1296.4848761898002" stroke-miterlimit="10" stroke-width="2.3497561670000002" stroke-dasharray=""/></g><g><g/><text fill="black" stroke="none" font-family="sans-serif" font-size="8pt" font-style="normal" font-weight="normal" text-decoration="normal" x="1997.3825726034586" y="1311.4818493733003" text-anchor="start" dominant-baseline="alphabetic" xml:space="preserve">PersistentScreening</text></g><g><g><rect fill="white" stroke="none" x="1747.159981253042" y="1239.5654885680003" width="166.79946056125" height="17.96872363"/></g><g><rect fill="white" stroke="none" x="1747.159981253042" y="1253.3875836680004" width="144.15492931125" height="17.96872363"/></g><g><rect fill="white" stroke="none" x="1747.159981253042" y="1267.2096787680005" width="143.730612905" height="17.96872363"/></g><text fill="black" stroke="none" font-family="sans-serif" font-size="8pt" font-style="normal" font-weight="normal" text-decoration="normal" x="1749.2332955180418" y="1252.0053741580004" text-anchor="start" dominant-baseline="alphabetic" xml:space="preserve">PersistentScreening(oid:Integer,</text><text fill="black" stroke="none" font-family="sans-serif" font-size="8pt" font-style="normal" font-weight="normal" text-decoration="normal" x="1749.2332955180418" y="1265.8274692580005" text-anchor="start" dominant-baseline="alphabetic" xml:space="preserve">date:LocalDate,m:Movie,</text><text fill="black" stroke="none" font-family="sans-serif" font-size="8pt" font-style="normal" font-weight="normal" text-decoration="normal" x="1749.2332955180418" y="1279.6495643580006" text-anchor="start" dominant-baseline="alphabetic" xml:space="preserve">s:Screen,time:LocalTime)</text></g><g><path fill="none" stroke="black" paint-order="fill stroke markers" d=" M 1663.736850463875 1285.1784023980003 L 1986.0023809711251 1285.1784023980003" stroke-miterlimit="10" stroke-width="1.1518412583333333" stroke-dasharray=""/><g transform="translate(1997.3825726034586,1285.1784023980003) translate(-1997.3825726034586,-1285.1784023980003)"><path fill="black" stroke="none" paint-order="stroke fill markers" d=" M 1985.8641600201252 1279.4191961063336 L 1997.3825726034586 1285.1784023980003 L 1985.8641600201252 1290.937608689667 Z"/></g></g><g><g><rect fill="white" stroke="none" x="1849.6412250561668" y="1337.5364986368004" width="4.14662853" height="17.96872363"/></g><text fill="black" stroke="none" font-family="sans-serif" font-size="8pt" font-style="normal" font-weight="normal" text-decoration="normal" x="1851.7145393211667" y="1349.9763842268005" text-anchor="start" dominant-baseline="alphabetic" xml:space="preserve"></text></g><g><path fill="none" stroke="black" paint-order="fill stroke markers" d=" M 2039.6922281784587 1355.5052222668005 L 1675.1170420962085 1355.5052222668005" stroke-miterlimit="10" stroke-width="1.1518412583333333" stroke-dasharray="5.52883804"/><g transform="translate(1663.736850463875,1355.5052222668005) translate(-1663.736850463875,-1355.5052222668005)"><path fill="black" stroke="none" paint-order="stroke fill markers" d=" M 1675.2552630472085 1349.7460159751338 L 1663.736850463875 1355.5052222668005 L 1675.2552630472085 1361.2644285584672 Z"/></g></g><g><g><rect fill="white" stroke="none" x="1381.8370449200627" y="1376.2383649168005" width="4.14662853" height="17.96872363"/></g><text fill="black" stroke="none" font-family="sans-serif" font-size="8pt" font-style="normal" font-weight="normal" text-decoration="normal" x="1383.9103591850626" y="1388.6782505068006" text-anchor="start" dominant-baseline="alphabetic" xml:space="preserve"></text></g><g><path fill="none" stroke="black" paint-order="fill stroke markers" d=" M 1649.9147553638752 1394.2070885468006 L 1129.2861546385834 1394.2070885468006" stroke-miterlimit="10" stroke-width="1.1518412583333333" stroke-dasharray="5.52883804"/><g transform="translate(1117.90596300625,1394.2070885468006) translate(-1117.90596300625,-1394.2070885468006)"><path fill="black" stroke="none" paint-order="stroke fill markers" d=" M 1129.4243755895834 1388.447882255134 L 1117.90596300625 1394.2070885468006 L 1129.4243755895834 1399.9662948384673 Z"/></g></g><g><g><rect fill="white" stroke="none" x="813.8975992308334" y="1414.9402311968006" width="4.14662853" height="17.96872363"/></g><text fill="black" stroke="none" font-family="sans-serif" font-size="8pt" font-style="normal" font-weight="normal" text-decoration="normal" x="815.9709134958334" y="1427.3801167868007" text-anchor="start" dominant-baseline="alphabetic" xml:space="preserve"></text></g><g><path fill="none" stroke="black" paint-order="fill stroke markers" d=" M 1104.0838679062501 1432.9089548268007 L 539.23815071775 1432.9089548268007" stroke-miterlimit="10" stroke-width="1.1518412583333333" stroke-dasharray="5.52883804"/><g transform="translate(527.8579590854167,1432.9089548268007) translate(-527.8579590854167,-1432.9089548268007)"><path fill="black" stroke="none" paint-order="stroke fill markers" d=" M 539.37637166875 1427.149748535134 L 527.8579590854167 1432.9089548268007 L 539.37637166875 1438.6681611184674 Z"/></g></g><g><g><rect fill="white" stroke="none" x="551.12515250375" y="1453.6420974768007" width="88.49965587375" height="17.96872363"/></g><text fill="black" stroke="none" font-family="sans-serif" font-size="8pt" font-style="normal" font-weight="normal" text-decoration="normal" x="553.19846676875" y="1466.0819830668008" text-anchor="start" dominant-baseline="alphabetic" xml:space="preserve">notifyObservers()</text></g><g><path fill="none" stroke="black" paint-order="fill stroke markers" d=" M 527.8579590854167 1471.6108211068008 L 590.0573870354167 1471.6108211068008 L 590.0573870354167 1489.5795447368007 L 546.14919826775 1489.5795447368007" stroke-miterlimit="10" stroke-width="1.1518412583333333" stroke-dasharray=""/><g transform="translate(534.7690066354166,1489.5795447368007) translate(-534.7690066354166,-1489.5795447368007)"><path fill="black" stroke="none" paint-order="stroke fill markers" d=" M 546.28741921875 1483.820338445134 L 534.7690066354166 1489.5795447368007 L 546.28741921875 1495.3387510284674 Z"/></g></g><g><g><rect fill="white" stroke="none" x="384.77840828395836" y="1510.312687386801" width="45.117331655" height="17.96872363"/></g><text fill="black" stroke="none" font-family="sans-serif" font-size="8pt" font-style="normal" font-weight="normal" text-decoration="normal" x="386.8517225489584" y="1522.752572976801" text-anchor="start" dominant-baseline="alphabetic" xml:space="preserve">update()</text></g><g><path fill="none" stroke="black" paint-order="fill stroke markers" d=" M 520.9469115354167 1528.2814110168008 L 305.10742831983333 1528.2814110168008" stroke-miterlimit="10" stroke-width="1.1518412583333333" stroke-dasharray=""/><g transform="translate(293.7272366875,1528.2814110168008) translate(-293.7272366875,-1528.2814110168008)"><path fill="black" stroke="none" paint-order="stroke fill markers" d=" M 305.2456492708333 1522.522204725134 L 293.7272366875 1528.2814110168008 L 305.2456492708333 1534.0406173084675 Z"/></g></g><g><g><rect fill="white" stroke="none" x="385.7927699495833" y="1549.014553666801" width="49.99965587375" height="17.96872363"/></g><text fill="black" stroke="none" font-family="sans-serif" font-size="8pt" font-style="normal" font-weight="normal" text-decoration="normal" x="387.86608421458334" y="1561.4544392568012" text-anchor="start" dominant-baseline="alphabetic" xml:space="preserve">getDate()</text></g><g><path fill="none" stroke="black" paint-order="fill stroke markers" d=" M 293.7272366875 1566.983277296801 L 516.4777674530834 1566.983277296801" stroke-miterlimit="10" stroke-width="1.1518412583333333" stroke-dasharray=""/><g transform="translate(527.8579590854167,1566.983277296801) translate(-527.8579590854167,-1566.983277296801)"><path fill="black" stroke="none" paint-order="stroke fill markers" d=" M 516.3395465020834 1561.2240710051342 L 527.8579590854167 1566.983277296801 L 516.3395465020834 1572.7424835884676 Z"/></g></g><g><g><rect fill="white" stroke="none" x="382.1189418245833" y="1587.7164199468011" width="57.34731212375" height="17.96872363"/></g><text fill="black" stroke="none" font-family="sans-serif" font-size="8pt" font-style="normal" font-weight="normal" text-decoration="normal" x="384.19225608958334" y="1600.1563055368013" text-anchor="start" dominant-baseline="alphabetic" xml:space="preserve">returndate</text></g><g><path fill="none" stroke="black" paint-order="fill stroke markers" d=" M 527.8579590854167 1605.685143576801 L 305.10742831983333 1605.685143576801" stroke-miterlimit="10" stroke-width="1.1518412583333333" stroke-dasharray="5.52883804"/><g transform="translate(293.7272366875,1605.685143576801) translate(-293.7272366875,-1605.685143576801)"><path fill="black" stroke="none" paint-order="stroke fill markers" d=" M 305.2456492708333 1599.9259372851343 L 293.7272366875 1605.685143576801 L 305.2456492708333 1611.4443498684677 Z"/></g></g><g><g><rect fill="white" stroke="none" x="369.8943324495833" y="1626.4182862268012" width="81.79653087375" height="17.96872363"/></g><text fill="black" stroke="none" font-family="sans-serif" font-size="8pt" font-style="normal" font-weight="normal" text-decoration="normal" x="371.96764671458334" y="1638.8581718168014" text-anchor="start" dominant-baseline="alphabetic" xml:space="preserve">getScreenings()</text></g><g><path fill="none" stroke="black" paint-order="fill stroke markers" d=" M 293.7272366875 1644.3870098568011 L 516.4777674530834 1644.3870098568011" stroke-miterlimit="10" stroke-width="1.1518412583333333" stroke-dasharray=""/><g transform="translate(527.8579590854167,1644.3870098568011) translate(-527.8579590854167,-1644.3870098568011)"><path fill="black" stroke="none" paint-order="stroke fill markers" d=" M 516.3395465020834 1638.6278035651344 L 527.8579590854167 1644.3870098568011 L 516.3395465020834 1650.1462161484678 Z"/></g></g><g><g><rect fill="white" stroke="none" x="366.2258754183333" y="1665.1201525068013" width="89.13344493625" height="17.96872363"/></g><text fill="black" stroke="none" font-family="sans-serif" font-size="8pt" font-style="normal" font-weight="normal" text-decoration="normal" x="368.29918968333334" y="1677.5600380968015" text-anchor="start" dominant-baseline="alphabetic" xml:space="preserve">returnscreenings</text></g><g><path fill="none" stroke="black" paint-order="fill stroke markers" d=" M 527.8579590854167 1683.0888761368012 L 305.10742831983333 1683.0888761368012" stroke-miterlimit="10" stroke-width="1.1518412583333333" stroke-dasharray="5.52883804"/><g transform="translate(293.7272366875,1683.0888761368012) translate(-293.7272366875,-1683.0888761368012)"><path fill="black" stroke="none" paint-order="stroke fill markers" d=" M 305.2456492708333 1677.3296698451345 L 293.7272366875 1683.0888761368012 L 305.2456492708333 1688.848082428468 Z"/></g></g><g><g><rect fill="white" stroke="none" x="405.26375984645836" y="1703.8220187868014" width="4.14662853" height="17.96872363"/></g><text fill="black" stroke="none" font-family="sans-serif" font-size="8pt" font-style="normal" font-weight="normal" text-decoration="normal" x="407.3370741114584" y="1716.2619043768016" text-anchor="start" dominant-baseline="alphabetic" xml:space="preserve"></text></g><g><path fill="none" stroke="black" paint-order="fill stroke markers" d=" M 293.7272366875 1721.7907424168013 L 509.56671990308337 1721.7907424168013" stroke-miterlimit="10" stroke-width="1.1518412583333333" stroke-dasharray="5.52883804"/><g transform="translate(520.9469115354167,1721.7907424168013) translate(-520.9469115354167,-1721.7907424168013)"><path fill="black" stroke="none" paint-order="stroke fill markers" d=" M 509.4284989520834 1716.0315361251346 L 520.9469115354167 1721.7907424168013 L 509.4284989520834 1727.549948708468 Z"/></g></g><g><g><rect fill="white" stroke="none" x="398.3527122964583" y="1742.5238850668015" width="4.14662853" height="17.96872363"/></g><text fill="black" stroke="none" font-family="sans-serif" font-size="8pt" font-style="normal" font-weight="normal" text-decoration="normal" x="400.42602656145834" y="1754.9637706568017" text-anchor="start" dominant-baseline="alphabetic" xml:space="preserve"></text></g><g><path fill="none" stroke="black" paint-order="fill stroke markers" d=" M 514.0358639854167 1760.4926086968014 L 298.1963807698333 1760.4926086968014" stroke-miterlimit="10" stroke-width="1.1518412583333333" stroke-dasharray="5.52883804"/><g transform="translate(286.8161891375,1760.4926086968014) translate(-286.8161891375,-1760.4926086968014)"><path fill="black" stroke="none" paint-order="stroke fill markers" d=" M 298.3346017208333 1754.7334024051347 L 286.8161891375 1760.4926086968014 L 298.3346017208333 1766.2518149884681 Z"/></g></g><g><g><rect fill="white" stroke="none" x="143.48667840375" y="1781.2257513468016" width="4.14662853" height="17.96872363"/></g><text fill="black" stroke="none" font-family="sans-serif" font-size="8pt" font-style="normal" font-weight="normal" text-decoration="normal" x="145.55999266875" y="1793.6656369368018" text-anchor="start" dominant-baseline="alphabetic" xml:space="preserve"></text></g><g><path fill="none" stroke="black" paint-order="fill stroke markers" d=" M 272.9940940375 1799.1944749768015 L 29.506082932333335 1799.1944749768015" stroke-miterlimit="10" stroke-width="1.1518412583333333" stroke-dasharray="5.52883804"/><g transform="translate(18.1258913,1799.1944749768015) translate(-18.1258913,-1799.1944749768015)"><path fill="black" stroke="none" paint-order="stroke fill markers" d=" M 29.644303883333333 1793.4352686851348 L 18.1258913 1799.1944749768015 L 29.644303883333333 1804.9536812684682 Z"/></g></g><g><g/><path fill="none" stroke="black" paint-order="fill stroke markers" d=" M 472.5695786854167 483.496886598 L 936.7429003625 483.496886598 L 936.7429003625 577.487133278 L 472.5695786854167 577.487133278 L 472.5695786854167 483.496886598 Z" stroke-miterlimit="10" stroke-width="1.9745850142857144" stroke-dasharray=""/><path fill="white" stroke="black" paint-order="fill stroke markers" d=" M 472.5695786854167 483.496886598 L 472.5695786854167 500.083400718 L 552.7284173229167 500.083400718 L 561.0216743829167 491.790143658 L 561.0216743829167 483.496886598 L 472.5695786854167 483.496886598" stroke-miterlimit="10" stroke-width="1.9745850142857144" stroke-dasharray=""/><text fill="black" stroke="none" font-family="sans-serif" font-size="6.4pt" font-style="normal" font-weight="bold" text-decoration="normal" x="486.3916737854167" y="494.554562678" text-anchor="start" dominant-baseline="alphabetic" xml:space="preserve">expandable-</text><text fill="black" stroke="none" font-family="sans-serif" font-size="6.4pt" font-style="normal" font-weight="bold" text-decoration="normal" x="574.8437694829166" y="494.554562678" text-anchor="start" dominant-baseline="alphabetic" xml:space="preserve">[seediagram03-ScheduleScreeningECE(doublescreening)]</text></g><g><g/><path fill="none" stroke="black" paint-order="fill stroke markers" d=" M 472.5695786854167 598.2202759280001 L 1076.43967770625 598.2202759280001 L 1076.43967770625 692.210522608 L 472.5695786854167 692.210522608 L 472.5695786854167 598.2202759280001 Z" stroke-miterlimit="10" stroke-width="1.9745850142857144" stroke-dasharray=""/><path fill="white" stroke="black" paint-order="fill stroke markers" d=" M 472.5695786854167 598.2202759280001 L 472.5695786854167 614.806790048 L 552.7284173229167 614.806790048 L 561.0216743829167 606.5135329880001 L 561.0216743829167 598.2202759280001 L 472.5695786854167 598.2202759280001" stroke-miterlimit="10" stroke-width="1.9745850142857144" stroke-dasharray=""/><text fill="black" stroke="none" font-family="sans-serif" font-size="6.4pt" font-style="normal" font-weight="bold" text-decoration="normal" x="486.3916737854167" y="609.277952008" text-anchor="start" dominant-baseline="alphabetic" xml:space="preserve">expandable-</text><text fill="black" stroke="none" font-family="sans-serif" font-size="6.4pt" font-style="normal" font-weight="bold" text-decoration="normal" x="574.8437694829166" y="609.277952008" text-anchor="start" dominant-baseline="alphabetic" xml:space="preserve">[seediagrams03-ScheduleScreeningACE(runningtimeofmovieislongerthanavailabletime)]</text></g><g><g/><path fill="none" stroke="black" paint-order="fill stroke markers" d=" M 1062.6175826062502 913.3640442080001 L 1584.6529634375001 913.3640442080001 L 1584.6529634375001 989.385567258 L 1062.6175826062502 989.385567258 L 1062.6175826062502 913.3640442080001 Z" stroke-miterlimit="10" stroke-width="1.9745850142857144" stroke-dasharray=""/><path fill="white" stroke="black" paint-order="fill stroke markers" d=" M 1062.6175826062502 913.3640442080001 L 1062.6175826062502 929.950558328 L 1142.77642124375 929.950558328 L 1151.0696783037502 921.6573012680001 L 1151.0696783037502 913.3640442080001 L 1062.6175826062502 913.3640442080001" stroke-miterlimit="10" stroke-width="1.9745850142857144" stroke-dasharray=""/><text fill="black" stroke="none" font-family="sans-serif" font-size="6.4pt" font-style="normal" font-weight="bold" text-decoration="normal" x="1076.4396777062502" y="924.4217202880001" text-anchor="start" dominant-baseline="alphabetic" xml:space="preserve">expandable-</text><text fill="black" stroke="none" font-family="sans-serif" font-size="6.4pt" font-style="normal" font-weight="bold" text-decoration="normal" x="1164.8917734037502" y="924.4217202880001" text-anchor="start" dominant-baseline="alphabetic" xml:space="preserve">[[see03-getMovieExpandedfordetailsofthegetMoviefunctionality]]</text></g></g><g/><g/><g/><g/><g/><g/><g/><g/><g/><g/></g></svg>