<svg version="1.1" xmlns="http://www.w3.org/2000/svg" xmlns:xlink="http://www.w3.org/1999/xlink" width="1411" height="1935"><desc>actor%20Staff%0Aboundary%20Alert%0Aboundary%20StaffUI%0A%0Acontrol%20ManagementSystem%0Aparticipant%20Cinema%0Aentity%20Screening%20(current)%0Aentity%20Screening%20(selected)%0Aparticipant%20ScreeningMapper%0Adatabase%20Database%0AStaff-%3EStaffUI%3AmousePressed(x%20%3A%20Integer%2C%20y%20%3A%20Integer)%0Aactivate%20StaffUI%0A%0AStaffUI-%3EStaffUI%3Asn%20%3A%3D%20yToScreen(y%20%3A%20Integer)%0AStaffUI-%3EStaffUI%3Atime%20%3A%3D%20xToTime(x%20%3A%20Integer)%0AStaffUI-%3EManagementSystem%3AselectScreening(sn%20%3A%20String%2C%20time%20%3A%20LocalTime)%0Aactivate%20ManagementSystem%0A%0Aloop%20for%20each%20current%20Screening%0AManagementSystem-%3EScreening%20(current)%3AgetScreenName()%0AManagementSystem-%3EScreening%20(current)%3AgetTime()%0Aend%0AManagementSystem-%3EManagementSystem%3AnotifyObservers()%0Aactivate%20ManagementSystem%0AManagementSystem-%3EStaffUI%3Aupdate()%0Adeactivate%20ManagementSystem%0A%0AManagementSystem--%3EStaffUI%3A%0Adeactivate%20ManagementSystem%0AStaffUI--%3EStaff%3A%0Adeactivate%20StaffUI%0Aactivate%20Staff%0AStaff-%3EStaffUI%3AcancelScreening()%0Adeactivate%20Staff%0Aactivate%20StaffUI%0AStaffUI-%3EManagementSystem%3AcancelSelected()%0Aactivate%20ManagementSystem%0A%0AManagementSystem-%3EManagementSystem%3AobserverMessage(s%20%3A%20String%2C%20true%20%3A%20Boolean)%0Aactivate%20ManagementSystem%0AManagementSystem-%3EStaffUI%3Amessage(message%20%3A%20String%2C%20true%20%3A%20Boolean)%0Aactivate%20StaffUI%0AStaffUI-%3E*Alert%3AAlert(%20confirmation%20%3A%20AlertType)%0Aactivate%20Alert%0AAlert--%3EStaffUI%3A%0Adeactivate%20Alert%0A%0AStaffUI-%3EAlert%3AshowAndWait()%3B%0Aactivate%20Alert%0AAlert-%3EStaff%3A%0Aactivate%20Staff%0AStaff--%3EAlert%3A%0Adeactivate%20Staff%0Anote%20over%20Alert%3Auser%20selects%20OK%0AAlert--%3EStaffUI%3Areturn%20true%0Adeactivate%20Alert%0AStaffUI--%3EManagementSystem%3Areturn%20true%0Adeactivate%20StaffUI%0AManagementSystem--%3EManagementSystem%3Areturn%20true%0Adeactivate%20ManagementSystem%0A%0AManagementSystem-%3EManagementSystem%3AcheckSold(sg%20%3A%20Screening)%0A%0Aactivate%20ManagementSystem%0Anote%20over%20ManagementSystem%3Afound%20the%20screening%20has%20been%20sold%0A%0AManagementSystem-%3EManagementSystem%3AobserverMessage(message%20%3A%20String%2C%20false%20%3A%20Boolean)%0Aactivate%20ManagementSystem%0AManagementSystem-%3EStaffUI%3Amessage(message%20%3A%20String%2C%20false%20%3A%20Boolean)%0Aactivate%20StaffUI%0AStaffUI-%3E*Alert%3AAlert(%20warning%20%3A%20AlertType)%0Aactivate%20Alert%0AAlert--%3EStaffUI%3A%0Adeactivate%20Alert%0AStaffUI-%3EAlert%3AshowAndWait()%3B%0AAlert-%3EStaff%3A%0Aactivate%20Staff%0AStaff--%3EAlert%3A%0Adeactivate%20Staff%0AAlert--%3EStaffUI%3Areturn%20result%0AStaffUI--%3EManagementSystem%3Areturn%20false%0Adeactivate%20StaffUI%0AManagementSystem--%3EManagementSystem%3Areturn%20false%0Adeactivate%20ManagementSystem%0AManagementSystem--%3EManagementSystem%3Areturn%20false%0Adeactivate%20ManagementSystem%0AManagementSystem--%3EStaffUI%3Areturn%20false%0Adeactivate%20ManagementSystem%0AStaffUI--%3EStaff%3A%0Adeactivate%20StaffUI%0A%0A</desc><defs/><g><g/><g/><g/><g/><g/><g/><g/><g/><g/><g/><g/><g/><g/><g/><g/><g/><g/><g/><g/><g/><g/><g/><g/><g/><g/><g/><g/><g/><g/><g/><g/><g/><g/><g/><g/><g/><g/><g/><g><rect fill="white" stroke="none" x="0" y="0" width="1411" height="1935"/></g><g/><g><path fill="none" stroke="black" paint-order="fill stroke markers" d=" M 18.1258913 75.19219734400001 L 18.1258913 1935.3697559020009" stroke-miterlimit="10" stroke-width="1.1518412583333333" stroke-dasharray="10.632380846153845,4.607365033333333"/><path fill="none" stroke="black" paint-order="fill stroke markers" d=" M 142.39502465833334 835.9603116479999 L 142.39502465833334 1935.3697559020009" stroke-miterlimit="10" stroke-width="1.1518412583333333" stroke-dasharray="10.632380846153845,4.607365033333333"/><path fill="none" stroke="black" paint-order="fill stroke markers" d=" M 142.39502465833334 1464.0363129920001 L 142.39502465833334 1935.3697559020009" stroke-miterlimit="10" stroke-width="1.1518412583333333" stroke-dasharray="10.632380846153845,4.607365033333333"/><path fill="none" stroke="black" paint-order="fill stroke markers" d=" M 366.7859640445 75.19219734400001 L 366.7859640445 1935.3697559020009" stroke-miterlimit="10" stroke-width="1.1518412583333333" stroke-dasharray="10.632380846153845,4.607365033333333"/><path fill="none" stroke="black" paint-order="fill stroke markers" d=" M 645.8926753986666 75.19219734400001 L 645.8926753986666 1935.3697559020009" stroke-miterlimit="10" stroke-width="1.1518412583333333" stroke-dasharray="10.632380846153845,4.607365033333333"/><path fill="none" stroke="black" paint-order="fill stroke markers" d=" M 948.1460132319999 75.19219734400001 L 948.1460132319999 1935.3697559020009" stroke-miterlimit="10" stroke-width="1.1518412583333333" stroke-dasharray="10.632380846153845,4.607365033333333"/><path fill="none" stroke="black" paint-order="fill stroke markers" d=" M 1042.9919369842498 75.19219734400001 L 1042.9919369842498 1935.3697559020009" stroke-miterlimit="10" stroke-width="1.1518412583333333" stroke-dasharray="10.632380846153845,4.607365033333333"/><path fill="none" stroke="black" paint-order="fill stroke markers" d=" M 1154.33161020925 75.19219734400001 L 1154.33161020925 1935.3697559020009" stroke-miterlimit="10" stroke-width="1.1518412583333333" stroke-dasharray="10.632380846153845,4.607365033333333"/><path fill="none" stroke="black" paint-order="fill stroke markers" d=" M 1277.0078562271249 75.19219734400001 L 1277.0078562271249 1935.3697559020009" stroke-miterlimit="10" stroke-width="1.1518412583333333" stroke-dasharray="10.632380846153845,4.607365033333333"/><path fill="none" stroke="black" paint-order="fill stroke markers" d=" M 1376.885665491875 75.19219734400001 L 1376.885665491875 1935.3697559020009" stroke-miterlimit="10" stroke-width="1.1518412583333333" stroke-dasharray="10.632380846153845,4.607365033333333"/></g><g><g><path fill="white" stroke="black" paint-order="fill stroke markers" d=" M 26.004485507 16.724735071000005 A 7.878594207 7.878594207 0 1 1 26.004481567703223 16.7168564781061 M 18.1258913 24.603329278000004 L 18.1258913 41.4662853 M 8.173982828 30.685051122000004 L 28.077799772 30.685051122000004 M 18.1258913 41.4662853 L 8.173982828 57.22347371400001 M 18.1258913 41.4662853 L 28.077799772 57.22347371400001" stroke-miterlimit="10" stroke-width="2.3497561670000002" stroke-dasharray=""/></g><g><g/><text fill="black" stroke="none" font-family="sans-serif" font-size="8pt" font-style="normal" font-weight="normal" text-decoration="normal" x="6.911047549999999" y="71.045568814" text-anchor="start" dominant-baseline="alphabetic" xml:space="preserve">Staff</text></g><g><path fill="white" stroke="black" paint-order="fill stroke markers" d=" M 394.222822818 35.52278440700001 A 20.5258112235 20.5258112235 0 1 1 394.22281255509523 35.50225859919747 M 340.52398335450005 13.822095100000011 L 340.52398335450005 57.22347371400001 M 339.34910527100004 35.52278440700001 L 353.171200371 35.52278440700001" stroke-miterlimit="10" stroke-width="2.3497561670000002" stroke-dasharray=""/></g><g><g/><text fill="black" stroke="none" font-family="sans-serif" font-size="8pt" font-style="normal" font-weight="normal" text-decoration="normal" x="350.0711202945" y="71.045568814" text-anchor="start" dominant-baseline="alphabetic" xml:space="preserve">StaffUI</text></g><g><path fill="white" stroke="black" paint-order="fill stroke markers" d=" M 666.4184866221666 35.52278440700001 A 20.5258112235 20.5258112235 0 1 1 666.4184763592618 35.50225859919747 M 643.1282563786666 14.99697318350001 L 651.4215134386666 8.085925633500011 M 643.1282563786666 14.99697318350001 L 651.4215134386666 21.90802073350001" stroke-miterlimit="10" stroke-width="2.3497561670000002" stroke-dasharray=""/></g><g><g/><text fill="black" stroke="none" font-family="sans-serif" font-size="8pt" font-style="normal" font-weight="normal" text-decoration="normal" x="595.4527339924166" y="71.045568814" text-anchor="start" dominant-baseline="alphabetic" xml:space="preserve">ManagementSystem</text></g><path fill="none" stroke="none"/><g><path fill="white" stroke="black" paint-order="fill stroke markers" d=" M 914.1971357516248 37.87254057400001 L 982.0948907123749 37.87254057400001 L 982.0948907123749 75.19219734400001 L 914.1971357516248 75.19219734400001 L 914.1971357516248 37.87254057400001 Z" stroke-miterlimit="10" stroke-width="2.211535216" stroke-dasharray=""/></g><g><g/><text fill="black" stroke="none" font-family="sans-serif" font-size="8pt" font-style="normal" font-weight="normal" text-decoration="normal" x="929.1941089351249" y="61.370102243999995" text-anchor="start" dominant-baseline="alphabetic" xml:space="preserve">Cinema</text></g><g><path fill="white" stroke="black" paint-order="fill stroke markers" d=" M 1063.5177482077497 33.64297947340001 A 20.5258112235 20.5258112235 0 1 1 1063.517737944845 33.62245366559747 M 1021.2912476772499 56.04859563050001 L 1064.6926262912498 56.04859563050001" stroke-miterlimit="10" stroke-width="2.3497561670000002" stroke-dasharray=""/></g><g><g/><text fill="black" stroke="none" font-family="sans-serif" font-size="8pt" font-style="normal" font-weight="normal" text-decoration="normal" x="995.9169858123748" y="71.045568814" text-anchor="start" dominant-baseline="alphabetic" xml:space="preserve">Screening (current)</text></g><g><path fill="white" stroke="black" paint-order="fill stroke markers" d=" M 1174.85742143275 33.64297947340001 A 20.5258112235 20.5258112235 0 1 1 1174.8574111698451 33.62245366559747 M 1132.6309209022497 56.04859563050001 L 1176.03229951625 56.04859563050001" stroke-miterlimit="10" stroke-width="2.3497561670000002" stroke-dasharray=""/></g><g><g/><text fill="black" stroke="none" font-family="sans-serif" font-size="8pt" font-style="normal" font-weight="normal" text-decoration="normal" x="1103.888983256125" y="71.045568814" text-anchor="start" dominant-baseline="alphabetic" xml:space="preserve">Screening (selected)</text></g><path fill="none" stroke="none"/><g><path fill="white" stroke="black" paint-order="fill stroke markers" d=" M 1218.596332262375 37.87254057400001 L 1335.419380191875 37.87254057400001 L 1335.419380191875 75.19219734400001 L 1218.596332262375 75.19219734400001 L 1218.596332262375 37.87254057400001 Z" stroke-miterlimit="10" stroke-width="2.211535216" stroke-dasharray=""/></g><g><g/><text fill="black" stroke="none" font-family="sans-serif" font-size="8pt" font-style="normal" font-weight="normal" text-decoration="normal" x="1233.5933054458749" y="61.370102243999995" text-anchor="start" dominant-baseline="alphabetic" xml:space="preserve">ScreeningMapper</text></g><g><path fill="white" stroke="black" paint-order="fill stroke markers" d=" M 1356.705406645875 48.10089094800001 L 1356.705406645875 19.074491238000007 L 1397.065924337875 19.074491238000007 L 1397.065924337875 48.10089094800001" stroke-miterlimit="10" stroke-width="2.3497561670000002" stroke-dasharray=""/><path fill="white" stroke="black" paint-order="fill stroke markers" d=" M 1397.065924337875 18.065478295700007 L 1397.064915333341 18.15670260293715 L 1397.061888420639 18.247917787819585 L 1397.0568439024576 18.339114728904843 L 1397.0497822832444 18.430284306574812 L 1397.0407042691554 18.521417403947694 L 1397.0296107679844 18.612504907789702 L 1397.0165028890724 18.703537709426353 L 1397.0013819431963 18.794506705653347 L 1396.984249442438 18.885402799646865 L 1396.9651071000337 18.976216901873258 L 1396.9439568302012 19.066939930997982 L 1396.9208007479501 19.15756281479372 L 1396.8956411688694 19.248076491047623 L 1396.8684806088959 19.338471908467483 L 1396.8393217840628 19.42874002758689 L 1396.8081676102286 19.518871821669155 L 1396.7750212027845 19.608858277609983 L 1396.7398858763438 19.698690396838764 L 1396.7027651444098 19.788359196218437 L 1396.6636627190246 19.877855708943788 L 1396.6225825103984 19.967170985438123 L 1396.5795286265177 20.05629609424822 L 1396.534505372735 20.145222122937476 L 1396.4875172513384 20.23394017897712 L 1396.4385689611006 20.322441390635486 L 1396.3876653968098 20.41071690786515 L 1396.33481164878 20.498757903187958 L 1396.2800130023422 20.586555572577744 L 1396.2232749373154 20.674101136340735 L 1396.1646031274586 20.7613858399935 L 1396.1040034399039 20.848400955138427 L 1396.0414819345697 20.935137780336497 L 1395.9770448635543 21.021587641977483 L 1395.9106986705112 21.107741895147257 L 1395.8424499900043 21.193591924492296 L 1395.7723056468449 21.279129145081207 L 1395.7002726554088 21.364345003263217 L 1395.6263582189351 21.449230977523516 L 1395.550569728806 21.533778579335415 L 1395.4729147638072 21.617979354009194 L 1395.3934010893706 21.701824881537547 L 1395.3120366567973 21.785306777437597 L 1395.2288296024626 21.868416693589317 L 1395.143788247003 21.951146319070357 L 1395.0569210944827 22.033487380987104 L 1394.9682368315448 22.115431645301985 L 1394.877744326542 22.196970917656856 L 1394.7854526286487 22.278097044192428 L 1394.6913709669584 22.35880191236366 L 1394.5955087495586 22.43907745175098 L 1394.4978755625912 22.518915634867348 L 1394.3984811692933 22.598308477960988 L 1394.2973355090219 22.677248041813744 L 1394.1944486962584 22.75572643253502 L 1394.0898310195983 22.83373580235114 L 1393.9834929407223 22.911268350390124 L 1393.8754450933493 22.988316323461788 L 1393.7656982821745 23.06487201683303 L 1393.6542634817872 23.140927774998303 L 1393.541151835575 23.216475992445172 L 1393.4263746546076 23.291509114414854 L 1393.3099434165078 23.366019637657672 L 1393.1918697643027 23.4400001111834 L 1393.0721655052585 23.51344313700633 L 1392.9508426097018 23.586341370885087 L 1392.827913209821 23.658687523057033 L 1392.7033895984534 23.73047435896723 L 1392.5772842278566 23.801694699991916 L 1392.4496097084625 23.872341424156335 L 1392.3203788076169 23.942407466846948 L 1392.1896044483017 24.011885821517872 L 1392.057299707844 24.080769540391536 L 1391.9234778166078 24.149051735153456 L 1391.7881521566705 24.216725577641057 L 1391.6513362604856 24.283784300526488 L 1391.5130438095284 24.350221197993342 L 1391.373288632929 24.416029626407234 L 1391.2320847060885 24.481203004980163 L 1391.0894461492817 24.54573481642858 L 1390.9453872262457 24.609618607625126 L 1390.7999223427526 24.67284799024391 L 1390.6530660451697 24.73541664139936 L 1390.504833019004 24.797318304278505 L 1390.3552380874353 24.858546788766642 L 1390.2042962098312 24.919095972066344 L 1390.0520224802544 24.978959799309735 L 1389.8984321259506 25.038132284163982 L 1389.7435405058275 25.09660750942991 L 1389.5873631089175 25.154379627633716 L 1389.4299155528308 25.21144286161173 L 1389.2712135821914 25.267791505088102 L 1389.1112730670643 25.323419923245446 L 1388.9501100013676 25.378322553288296 L 1388.7877405012737 25.432493904999404 L 1388.624180803597 25.48592856128874 L 1388.4594472641716 25.53862117873521 L 1388.2935563562135 25.59056648812097 L 1388.1265246686753 25.641759294958376 L 1387.9583689045871 25.692194480009405 L 1387.7891058793848 25.741866999797576 L 1387.6187525192297 25.790771887112307 L 1387.4473258593164 25.838904251505618 L 1387.2748430421675 25.886259279781186 L 1387.101321315921 25.932832236475637 L 1386.9267780326054 25.978618464332122 L 1386.7512306464034 26.023613384766 L 1386.5746967119069 26.06781249832273 L 1386.397193882363 26.11121138512779 L 1386.2187399079057 26.153805705328658 L 1386.0393526337848 26.195591199528817 L 1385.8590499985776 26.236563689213664 L 1385.6778500323976 26.276719077168373 L 1385.49577085509 26.316053347887618 L 1385.3128306744215 26.354562567977098 L 1385.1290477842574 26.392242886546896 L 1384.9444405627335 26.429090535596558 L 1384.759027470418 26.46510183039188 L 1384.5728270484658 26.5002731698334 L 1384.3858579167638 26.534601036816476 L 1384.1981387720696 26.568081998583022 L 1384.009688386141 26.60071270706476 L 1383.8205256038596 26.63248989921803 L 1383.6306693413462 26.663410397350102 L 1383.4401385840686 26.693471109436928 L 1383.2489523849438 26.722669029432353 L 1383.0571298624322 26.7510012375687 L 1382.8646901986267 26.77846490064878 L 1382.671652637333 26.805057272329158 L 1382.4780364821463 26.830775693394834 L 1382.283861094521 26.855617592025126 L 1382.0891458918338 26.879580484050884 L 1381.893910345443 26.90266197320286 L 1381.69817397874 26.924859751351384 L 1381.501956365199 26.946171598737138 L 1381.3052771264174 26.96659538419314 L 1381.1081559301556 26.986129065357865 L 1380.9106124883685 27.00477068887948 L 1380.712666555236 27.022518390611154 L 1380.514337925186 27.03937039579752 L 1380.315646430917 27.055325019252088 L 1380.1166119414122 27.070380665525818 L 1379.9172543599548 27.084535829066628 L 1379.717593622137 27.097789094369954 L 1379.5176496938661 27.110139136120317 L 1379.3174425693683 27.121584719323828 L 1379.1169922691893 27.132124699431706 L 1378.9163188381917 27.141758022454724 L 1378.715442343552 27.15048372506861 L 1378.5143828727519 27.15830093471037 L 1378.313160531571 27.165208869665555 L 1378.1117954420756 27.17120683914643 L 1377.9103077406069 27.176294243361042 L 1377.7087175757672 27.180470573573206 L 1377.5070451064053 27.18373541215339 L 1377.3053104995993 27.186088432620444 L 1377.1035339286425 27.18752939967429 L 1376.9017355710234 27.188058169219428 L 1376.69993560641 27.187674688379335 L 1376.4981542146304 27.186378995501777 L 1376.2964115736554 27.184171220154965 L 1376.0947278575813 27.181051583114595 L 1375.8931232346115 27.17702039634177 L 1375.6916178650401 27.172078062951805 L 1375.4902318992367 27.166225077173927 L 1375.2889854756295 27.159462024301828 L 1375.0878987186934 27.15178958063516 L 1374.8869917369366 27.143208513411906 L 1374.6862846208894 27.13371968073163 L 1374.4857974410968 27.12332403146969 L 1374.2855502461093 27.112022605182354 L 1374.0855630604797 27.099816532002833 L 1373.8858558827596 27.086707032528267 L 1373.6864486835009 27.072695417697688 L 1373.4873614032567 27.057783088660898 L 1373.2886139505897 27.041971536638375 L 1373.090226200079 27.025262342772145 L 1372.892217990335 27.007657177967666 L 1372.6946091220132 26.98915780272675 L 1372.4974193558357 26.96976606697151 L 1372.3006684106151 26.94948390985936 L 1372.1043759612817 26.928313359589104 L 1371.908561636917 26.906256533198132 L 1371.7132450187903 26.883315636350694 L 1371.5184456384004 26.859492963117372 L 1371.3241829755232 26.834790895745627 L 1371.1304764562633 26.809211904421616 L 1370.9373454511108 26.78275854702315 L 1370.7448092730056 26.755433468863927 L 1370.5528871754047 26.727239402428996 L 1370.3615983503582 26.6981791671015 L 1370.1709619265891 26.668255668880757 L 1369.9809969675812 26.637471900091654 L 1369.7917224696719 26.605830939085415 L 1369.6031573601529 26.573335949931778 L 1369.4153204953784 26.53999018210257 L 1369.2282306588786 26.505796970146797 L 1369.0419065594806 26.470759733357152 L 1368.8563668294396 26.43488197542812 L 1368.6716300225735 26.398167284105593 L 1368.4877146124095 26.360619330828115 L 1368.3046389903352 26.32224187035971 L 1368.1224214637602 26.28303874041446 L 1367.9410802542855 26.243013861272683 L 1367.7606334958805 26.20217123538894 L 1367.581099233071 26.160514946991775 L 1367.4024954191336 26.11804916167533 L 1367.224839914301 26.07477812598274 L 1367.0481504839754 26.03070616698151 L 1366.8724447969525 25.985837691830824 L 1366.697740423655 25.940177187340804 L 1366.5240548343745 25.893729219523845 L 1366.351405397525 25.846498433138024 L 1366.1798093779064 25.798489551222623 L 1366.0092839349775 25.74970737462582 L 1365.839846121141 25.700156781524633 L 1365.6715128800365 25.64984272693707 L 1365.504301044848 25.59877024222667 L 1365.33822733662 25.546944434599336 L 1365.1733083625847 25.49437048659265 L 1365.0095606145019 25.441053655557596 L 1364.8470004670103 25.386999273132844 L 1364.685644175989 25.3322127447116 L 1364.5255078769324 25.27669954890105 L 1364.3666075833373 25.220465236974505 L 1364.2089591851006 25.163515432316306 L 1364.0525784469307 25.105855829859454 L 1363.8974810067712 25.04749219551615 L 1363.7436823742364 24.98843036560119 L 1363.591197929062 24.928676246248344 L 1363.4400429195653 24.86823581281976 L 1363.290232461121 24.807115109308405 L 1363.1417815346504 24.74532024773371 L 1362.994704985122 24.68285740753032 L 1362.8490175200689 24.61973283493021 L 1362.7047337081158 24.555952842338044 L 1362.5618679775234 24.49152380769992 L 1362.4204346147462 24.42645217386562 L 1362.2804477630023 24.360744447944292 L 1362.1419214208604 24.294407200653783 L 1362.004869440839 24.227447065663533 L 1361.8693055280223 24.159870738931243 L 1361.7352432386883 24.09168497803327 L 1361.6026959789542 24.022896601488892 L 1361.4716770034358 23.95351248807843 L 1361.3421994139212 23.883539576155414 L 1361.2142761580617 23.812984862952717 L 1361.087920028076 23.741855403882866 L 1360.9631436594718 23.6701583118325 L 1360.8399595297824 23.597900756451068 L 1360.7183799573177 23.5250899634339 L 1360.5984170999338 23.451733213799617 L 1360.4800829538162 23.377837843162055 L 1360.3633893522815 23.303411240996702 L 1360.248347964592 23.228460849901744 L 1360.134970294791 23.15299416485384 L 1360.0232676805506 23.077018732458605 L 1359.9132512920396 23.00054215019596 L 1359.804932130805 22.923572065660405 L 1359.6983210286724 22.846116175796254 L 1359.5934286466636 22.768182226127944 L 1359.490265473929 22.6897780099855 L 1359.3888418267002 22.610911367725194 L 1359.289167847257 22.53159018594554 L 1359.1912535029148 22.451822396698603 L 1359.0951085850263 22.37161597669684 L 1359.000742708003 22.29097894651542 L 1358.9081653083538 22.209919369790153 L 1358.817385643742 22.128445352411166 L 1358.728412792058 22.046565041712302 L 1358.6412556505131 21.9642866256564 L 1358.5559229347487 21.881618332016497 L 1358.4724231779653 21.79856842755307 L 1358.390764730069 21.715145217187356 L 1358.3109557568364 21.631357043170873 L 1358.2330042390986 21.547212284251195 L 1358.156917971942 21.4627193548341 L 1358.0827045639303 21.377886704142114 L 1358.0103714363422 21.29272281536962 L 1357.9399258224305 21.207236204834516 L 1357.8713747666975 21.12143542112662 L 1357.804725124192 21.03532904425281 L 1357.7399835598223 20.948925684779006 L 1357.6771565476913 20.862233982969162 L 1357.6162503704477 20.77526260792121 L 1357.5572711186585 20.688020256700185 L 1357.5002246901995 20.600515653468506 L 1357.4451167896664 20.51275754861357 L 1357.3919529278028 20.424754717872737 L 1357.340738420951 20.336515961455746 L 1357.2914783905192 20.2480501031647 L 1357.2441777624688 20.159365989511716 L 1357.1988412668236 20.07047248883425 L 1357.1554734371953 19.98137849040829 L 1357.1140786103306 19.89209290355944 L 1357.0746609256778 19.80262465677198 L 1357.0372243249726 19.712982696796026 L 1357.0017725518437 19.62317598775288 L 1356.968309151439 19.533213510238607 L 1356.9368374700705 19.443104260425986 L 1356.9073606548802 19.352857249164913 L 1356.8798816535252 19.262481501081304 L 1356.8544032138825 19.171986053674658 L 1356.830927883775 19.0813799564143 L 1356.809458010716 18.99067226983445 L 1356.7899957416753 18.899872064628184 L 1356.772543022863 18.80898842074035 L 1356.7571015995368 18.7180304264596 L 1356.743673015826 18.627007177509565 L 1356.7322586145779 18.53592777613929 L 1356.722859537223 18.44480133021301 L 1356.7154767236616 18.35363695229938 L 1356.7101109121684 18.26244375876022 L 1356.7067626393202 18.171230868838894 L 1356.7054322399415 18.08000740374838 L 1356.7061198470712 17.98878248575917 L 1356.7088253919494 17.89756523728704 L 1356.7135486040233 17.80636477998082 L 1356.720289010976 17.71519023381025 L 1356.7290459387727 17.624050716153963 L 1356.7398185117272 17.532955340887774 L 1356.752605652592 17.4419132174733 L 1356.7674060826628 17.350933450047012 L 1356.7842183219095 17.26002513650984 L 1356.803040689122 17.16919736761737 L 1356.8238713020794 17.07845922607082 L 1356.8467080777375 16.987819785608714 L 1356.8715487324382 16.897288110099574 L 1356.8983907821364 16.8068732526355 L 1356.9272315426495 16.716584254626905 L 1356.9580681299256 16.62643014489834 L 1356.9908974603316 16.536419938785652 L 1357.0257162509618 16.446562637234447 L 1357.062521019966 16.356867225899993 L 1357.1013080868984 16.26734267424868 L 1357.1420735730844 16.177997934661075 L 1357.1848134020092 16.08884194153668 L 1357.2295232997258 15.999883610400506 L 1357.2761987952815 15.911131837011538 L 1357.3248352211658 15.82259549647316 L 1357.3754277137764 15.734283442345639 L 1357.4279712139064 15.6462045057608 L 1357.4824604672494 15.558367494538897 L 1357.5388900249256 15.47078119230786 L 1357.5972542440263 15.383454357624922 L 1357.6575472881782 15.296395723100778 L 1357.719763128127 15.209613994526332 L 1357.7838955423406 15.123117850002128 L 1357.8499381176312 15.036915939070532 L 1357.917884249796 14.951016881850805 L 1357.9877271442788 14.865429268177088 L 1358.059459816848 14.780161656739425 L 1358.1330750942964 14.695222574227904 L 1358.2085656151573 14.610620514479992 L 1358.2859238304416 14.526363937631164 L 1358.3651420043925 14.44246126926889 L 1358.4462122152584 14.358920899590089 L 1358.5291263560855 14.27575118256211 L 1358.6138761355294 14.19296043508735 L 1358.7004530786826 14.110556936171564 L 1358.7888485279225 14.028548926095976 L 1358.8790536437784 13.946944605593249 L 1358.9710594058135 13.865752135027433 L 1359.0648566135285 13.784979633577926 L 1359.1604358872808 13.704635178427559 L 1359.2577876692226 13.624726803954896 L 1359.3569022242566 13.545262500930793 L 1359.4577696410101 13.466250215719334 L 1359.5603798328257 13.387697849483194 L 1359.6647225387694 13.30961325739354 L 1359.7707873246577 13.23200424784451 L 1359.8785635841004 13.154878581672381 L 1359.9880405395613 13.078243971379504 L 1360.0992072434362 13.002108080363044 L 1360.2120525791472 12.926478522148656 L 1360.326565262255 12.851362859629138 L 1360.4427338415862 12.776768604308145 L 1360.5605467003802 12.702703215549048 L 1360.6799920574492 12.629174099829003 L 1360.8010579683569 12.556188609998305 L 1360.9237323266132 12.483754044545117 L 1361.0480028648844 12.411877646865625 L 1361.1738571562205 12.340566604539697 L 1361.3012826152967 12.26982804861214 L 1361.430266499674 12.199669052879603 L 1361.5607959110707 12.130096633183188 L 1361.692857796655 12.06111774670689 L 1361.8264389503481 11.992739291281874 L 1361.961526014146 11.924968104696699 L 1362.0981054794552 11.857810964013552 L 1362.2361636884425 11.791274584890534 L 1362.3756868354021 11.725365620910111 L 1362.516660968136 11.660090662913756 L 1362.6590719893481 11.595456238342878 L 1362.802905658055 11.531468810586066 L 1362.9481475910097 11.468134778332775 L 1363.0947832641398 11.405460474933456 L 1363.2427980140003 11.343452167766216 L 1363.3921770392396 11.282116057610097 L 1363.54290540208 11.221458278025008 L 1363.69496802981 11.16148489473835 L 1363.848349716294 11.10220190503848 L 1364.0030351234914 11.043615237174969 L 1364.15900878299 10.985730749765775 L 1364.3162550975542 10.928554231211407 L 1364.4747583426831 10.87209139911607 L 1364.6345026681845 10.816347899715922 L 1364.7954720997593 10.76132930731445 L 1364.9576505405978 10.707041123725045 L 1365.1210217729918 10.653488777720831 L 1365.2855694599536 10.600677624491773 L 1365.4512771468521 10.548612945109191 L 1365.6181282630562 10.497299945997636 L 1365.7861061235938 10.446743758414254 L 1365.9551939308185 10.396949437935678 L 1366.125374776091 10.347921963952459 L 1366.2966316414677 10.299666239171138 L 1366.4689474014053 10.252187089123984 L 1366.6423048244717 10.20548926168643 L 1366.8166865750686 10.159577426602311 L 1366.9920752151663 10.114456175016873 L 1367.1684532060472 10.070130019017672 L 1367.3458029100589 10.026603391183372 L 1367.524106592379 9.983880644140482 L 1367.7033464227877 9.941966050128107 L 1367.8835044774514 9.900863800570718 L 1368.0645627407148 9.86057800565902 L 1368.2465031069025 9.82111269393893 L 1368.4293073821293 9.782471811908737 L 1368.6129572861203 9.744659223624438 L 1368.7974344540378 9.707678710313356 L 1368.982720438319 9.671533969996 L 1369.1687967105197 9.636228617116288 L 1369.3556446631678 9.60176618218008 L 1369.543245611624 9.568150111402154 L 1369.7315807959494 9.535383766361576 L 1369.9206313827826 9.503470423665544 L 1370.1103784672227 9.472413274621731 L 1370.3008030747192 9.442215424919162 L 1370.4918861629699 9.412879894317644 L 1370.6836086238254 9.384409616345788 L 1370.8759512851996 9.35680743800767 L 1371.068894912986 9.330076119498116 L 1371.2624202129832 9.304218333926707 L 1371.4565078328224 9.27923666705045 L 1371.6511383639029 9.255133617015213 L 1371.8462923433344 9.231911594105915 L 1372.0419502558811 9.209572920505497 L 1372.238092535915 9.1881198300627 L 1372.4346995693716 9.167554468068694 L 1372.6317516957113 9.147878891042538 L 1372.8292292098859 9.129095066525542 L 1373.027112364308 9.1112048728845 L 1373.2253813708276 9.09421009912387 L 1373.424016402709 9.078112444706866 L 1373.6229975966146 9.062913519385516 L 1373.822305054591 9.048614843039683 L 1374.0219188460583 9.03521784552509 L 1374.2218190098035 9.022723866530322 L 1374.4219855559772 9.011134155442866 L 1374.6223984680914 9.000449871224175 L 1374.823037705022 8.990672082293766 L 1375.0238832030125 8.981801766422386 L 1375.2249148776802 8.973839810634226 L 1375.4261126260255 8.966787011118234 L 1375.6274563284412 8.960644073148481 L 1375.8289258507245 8.955411611013648 L 1376.0305010460916 8.951090147955588 L 1376.2321617571904 8.947680116117002 L 1376.4338878181181 8.945181856498236 L 1376.6356590564367 8.943595618923167 L 1376.8374552951907 8.942921562014233 L 1377.039256354924 8.94315975317656 L 1377.241042055699 8.944310168591237 L 1377.4427922191137 8.946372693217674 L 1377.64448667032 8.949347120805129 L 1377.846105240041 8.953233153913324 L 1378.0476277665873 8.958030403942185 L 1378.2490340978745 8.963738391170708 L 1378.4503040934374 8.970356544804925 L 1378.6514176264436 8.97788420303499 L 1378.852354585708 8.98632061310135 L 1379.053094877702 8.99566493137003 L 1379.2536184285636 9.00591622341699 L 1379.453905186105 9.017073464121571 L 1379.6539351218169 9.029135537768996 L 1379.8536882328726 9.042101238161953 L 1380.053144544128 9.055969268741208 L 1380.2522841101172 9.070738242715262 L 1380.4510870170504 9.086406683199021 L 1380.6495333848022 9.102973023361494 L 1380.8476033689012 9.120435606582474 L 1381.0452771625141 9.138792686618187 L 1381.2425349984262 9.158042427775927 L 1381.4393571510186 9.178182905097621 L 1381.6357239382396 9.199212104552322 L 1381.8316157235745 9.221127923237606 L 1382.0270129180076 9.243928169589871 L 1382.2218959819827 9.267610563603478 L 1382.4162454273555 9.292172737058763 L 1382.6100418193437 9.317612233758847 L 1382.8032657784695 9.343926509775264 L 1382.9958979824978 9.371112933702335 L 1383.187919168369 9.399168786920328 L 1383.3793101341244 9.428091263867296 L 1383.5700517408268 9.45787747231965 L 1383.7601249144748 9.488524433681365 L 1383.949510647909 9.520029083281843 L 1384.1381900027143 9.55238827068238 L 1384.3261441111122 9.585598759991202 L 1384.5133541778484 9.619657230187048 L 1384.6998014820726 9.654560275451288 L 1384.8854673792096 9.690304405508478 L 1385.070333302824 9.726886045975398 L 1385.2543807664783 9.764301538718486 L 1385.4375913655788 9.802547142219648 L 1385.6199467792185 9.841619031950406 L 1385.801428772008 9.881513300754346 L 1385.9820191958993 9.92222595923783 L 1386.1616999920006 9.963752936168941 L 1386.3404531923818 10.00609007888459 L 1386.5182609218718 10.049233153705785 L 1386.695105399846 10.093177846360998 L 1386.8709689420039 10.137919762417582 L 1387.045833962138 10.18345442772122 L 1387.2196829738916 10.229777288843323 L 1387.3924985925087 10.276883713536382 L 1387.5642635365716 10.324768991197185 L 1387.7349606297287 10.373428333337866 L 1387.904572802413 10.422856874064767 L 1388.0730830935488 10.473049670564997 L 1388.240474652247 10.52400170360074 L 1388.4067307394916 10.575707878011151 L 1388.5718347298125 10.628163023221877 L 1388.7357701129479 10.681361893762105 L 1388.898520495496 10.73529916978912 L 1389.0600696025547 10.789969457620263 L 1389.2204012793477 10.84536729027231 L 1389.3794994928408 10.90148712800816 L 1389.537348333345 10.958323358890807 L 1389.6939320161084 11.015870299344526 L 1389.849234882893 11.074122194723225 L 1390.003241403541 11.133073219885913 L 1390.1559361775294 11.192717479779198 L 1390.3073039355077 11.253049010026789 L 1390.4573295408263 11.314061777525946 L 1390.60599799105 11.375749681050758 L 1390.7532944194568 11.43810655186228 L 1390.8992040965275 11.501126154325393 L 1391.0437124314155 11.564802186532368 L 1391.186804973408 11.629128280933049 L 1391.32846741337 11.6940980049716 L 1391.468685585175 11.759704861729757 L 1391.6074454671236 11.825942290576517 L 1391.7447331833428 11.892803667824193 L 1391.8805350051753 11.96028230739078 L 1392.014837352552 12.02837146146855 L 1392.1476267953503 12.097064321198838 L 1392.2788900547366 12.166354017352914 L 1392.4086140044942 12.236233621018904 L 1392.5367856723362 12.306696144294676 L 1392.663392241203 12.377734540986618 L 1392.7884210505426 12.449341707314261 L 1392.9118595975788 12.521510482620645 L 1393.0336955385594 12.594233650088377 L 1393.153916689992 12.667503937461316 L 1393.2725110298616 12.741314017771781 L 1393.389466698833 12.815656510073252 L 1393.504772001437 12.890523980178447 L 1393.6184154072394 12.965908941402748 L 1393.7303855519938 13.04180385531285 L 1393.8406712387796 13.11820113248061 L 1393.94926143912 13.195093133241976 L 1394.056145294085 13.272472168460947 L 1394.1613121153785 13.350330500298481 L 1394.264751386406 13.42866034298628 L 1394.3664527633266 13.507453863605349 L 1394.4664060760874 13.586703182869286 L 1394.5646013294404 13.666400375912204 L 1394.6610287039418 13.746537473081217 L 1394.755678556935 13.827106460733386 L 1394.848541423513 13.908099282037085 L 1394.9396080174672 13.989507837777682 L 1395.0288692322135 14.071323987167439 L 1395.1163161417053 14.1535395486596 L 1395.2019400013241 14.236146300766524 L 1395.2857322487555 14.319135982881845 L 1395.3676845048444 14.402500296106505 L 1395.4477885744338 14.486230904078653 L 1395.5260364471833 14.570319433807267 L 1395.6024202983708 14.654757476509447 L 1395.676932489675 14.739536588451287 L 1395.7495655699388 14.824648291792245 L 1395.8203122759146 14.910084075432911 L 1395.8891655329908 14.995835395866116 L 1395.956118455899 15.081893678031278 L 1396.0211643494029 15.168250316171896 L 1396.084296708967 15.254896674696116 L 1396.1455092214085 15.341824089040294 L 1396.2047957655268 15.429023866535433 L 1396.262150412717 15.516487287276451 L 1396.317567427562 15.604205604994158 L 1396.3710412684065 15.692170047929883 L 1396.4225665879114 15.780371819712634 L 1396.4721382335874 15.868802100238737 L 1396.519751248311 15.957452046553826 L 1396.565400870821 16.046312793737147 L 1396.6090825361923 16.135375455788033 L 1396.6507918762957 16.2246311265145 L 1396.6905247202315 16.314070880423845 L 1396.7282770947481 16.40368577361522 L 1396.7640452246403 16.49346684467398 L 1396.7978255331243 16.583405115567835 L 1396.8296146421976 16.67349159254465 L 1396.8594093729757 16.763717267031794 L 1396.8872067460106 16.85407311653701 L 1396.913003981588 16.944550105550636 L 1396.9367985000056 17.03513918644918 L 1396.9585879218318 17.12583130040003 L 1396.9783700681423 17.216617378267376 L 1396.996142960739 17.307488341519083 L 1397.0119048223476 17.398435103134553 L 1397.0256540767948 17.48944856851341 L 1397.037389349167 17.580519636384963 L 1397.0471094659463 17.67163919971832 L 1397.0548134551295 17.762798146633074 L 1397.0605005463237 17.8539873613105 L 1397.064170170825 17.945197724905128 L 1397.0658219616737 18.0364201164566 M 1397.065924337875 47.09187800570001 L 1397.064915333341 47.18310231293715 L 1397.061888420639 47.27431749781959 L 1397.0568439024576 47.365514438904846 L 1397.0497822832444 47.45668401657481 L 1397.0407042691554 47.547817113947694 L 1397.0296107679844 47.638904617789706 L 1397.0165028890724 47.729937419426356 L 1397.0013819431963 47.82090641565335 L 1396.984249442438 47.91180250964687 L 1396.9651071000337 48.002616611873265 L 1396.9439568302012 48.09333964099798 L 1396.9208007479501 48.18396252479373 L 1396.8956411688694 48.27447620104763 L 1396.8684806088959 48.36487161846748 L 1396.8393217840628 48.45513973758689 L 1396.8081676102286 48.54527153166916 L 1396.7750212027845 48.63525798760998 L 1396.7398858763438 48.72509010683876 L 1396.7027651444098 48.81475890621844 L 1396.6636627190246 48.90425541894379 L 1396.6225825103984 48.99357069543812 L 1396.5795286265177 49.082695804248225 L 1396.534505372735 49.17162183293748 L 1396.4875172513384 49.26033988897713 L 1396.4385689611006 49.34884110063549 L 1396.3876653968098 49.43711661786516 L 1396.33481164878 49.525157613187965 L 1396.2800130023422 49.61295528257775 L 1396.2232749373154 49.70050084634074 L 1396.1646031274586 49.78778554999351 L 1396.1040034399039 49.87480066513843 L 1396.0414819345697 49.961537490336504 L 1395.9770448635543 50.04798735197749 L 1395.9106986705112 50.134141605147256 L 1395.8424499900043 50.2199916344923 L 1395.7723056468449 50.305528855081214 L 1395.7002726554088 50.39074471326322 L 1395.6263582189351 50.47563068752352 L 1395.550569728806 50.56017828933542 L 1395.4729147638072 50.64437906400919 L 1395.3934010893706 50.72822459153755 L 1395.3120366567973 50.8117064874376 L 1395.2288296024626 50.894816403589324 L 1395.143788247003 50.97754602907036 L 1395.0569210944827 51.059887090987104 L 1394.9682368315448 51.14183135530199 L 1394.877744326542 51.22337062765686 L 1394.7854526286487 51.304496754192435 L 1394.6913709669584 51.38520162236367 L 1394.5955087495586 51.46547716175098 L 1394.4978755625912 51.545315344867355 L 1394.3984811692933 51.62470818796099 L 1394.2973355090219 51.70364775181375 L 1394.1944486962584 51.78212614253502 L 1394.0898310195983 51.86013551235114 L 1393.9834929407223 51.93766806039013 L 1393.8754450933493 52.014716033461795 L 1393.7656982821745 52.09127172683303 L 1393.6542634817872 52.1673274849983 L 1393.541151835575 52.242875702445176 L 1393.4263746546076 52.31790882441486 L 1393.3099434165078 52.39241934765768 L 1393.1918697643027 52.4663998211834 L 1393.0721655052585 52.539842847006334 L 1392.9508426097018 52.612741080885094 L 1392.827913209821 52.68508723305703 L 1392.7033895984534 52.756874068967235 L 1392.5772842278566 52.82809440999192 L 1392.4496097084625 52.89874113415634 L 1392.3203788076169 52.96880717684695 L 1392.1896044483017 53.03828553151787 L 1392.057299707844 53.107169250391536 L 1391.9234778166078 53.175451445153456 L 1391.7881521566705 53.243125287641064 L 1391.6513362604856 53.31018401052649 L 1391.5130438095284 53.37662090799334 L 1391.373288632929 53.44242933640724 L 1391.2320847060885 53.507602714980166 L 1391.0894461492817 53.572134526428584 L 1390.9453872262457 53.63601831762513 L 1390.7999223427526 53.699247700243916 L 1390.6530660451697 53.76181635139937 L 1390.504833019004 53.82371801427851 L 1390.3552380874353 53.884946498766645 L 1390.2042962098312 53.945495682066344 L 1390.0520224802544 54.00535950930974 L 1389.8984321259506 54.064531994163985 L 1389.7435405058275 54.123007219429915 L 1389.5873631089175 54.18077933763372 L 1389.4299155528308 54.237842571611736 L 1389.2712135821914 54.294191215088105 L 1389.1112730670643 54.349819633245446 L 1388.9501100013676 54.4047222632883 L 1388.7877405012737 54.45889361499941 L 1388.624180803597 54.512328271288744 L 1388.4594472641716 54.56502088873521 L 1388.2935563562135 54.61696619812098 L 1388.1265246686753 54.66815900495838 L 1387.9583689045871 54.718594190009405 L 1387.7891058793848 54.76826670979758 L 1387.6187525192297 54.817171597112306 L 1387.4473258593164 54.865303961505624 L 1387.2748430421675 54.912658989781185 L 1387.101321315921 54.95923194647564 L 1386.9267780326054 55.00501817433212 L 1386.7512306464034 55.050013094766 L 1386.5746967119069 55.09421220832273 L 1386.397193882363 55.137611095127795 L 1386.2187399079057 55.180205415328665 L 1386.0393526337848 55.22199090952882 L 1385.8590499985776 55.26296339921367 L 1385.6778500323976 55.30311878716838 L 1385.49577085509 55.342453057887624 L 1385.3128306744215 55.3809622779771 L 1385.1290477842574 55.418642596546896 L 1384.9444405627335 55.45549024559656 L 1384.759027470418 55.49150154039188 L 1384.5728270484658 55.5266728798334 L 1384.3858579167638 55.56100074681648 L 1384.1981387720696 55.594481708583025 L 1384.009688386141 55.627112417064765 L 1383.8205256038596 55.658889609218036 L 1383.6306693413462 55.689810107350105 L 1383.4401385840686 55.719870819436935 L 1383.2489523849438 55.74906873943235 L 1383.0571298624322 55.77740094756871 L 1382.8646901986267 55.80486461064878 L 1382.671652637333 55.83145698232916 L 1382.4780364821463 55.857175403394834 L 1382.283861094521 55.88201730202513 L 1382.0891458918338 55.90598019405088 L 1381.893910345443 55.92906168320286 L 1381.69817397874 55.95125946135139 L 1381.501956365199 55.972571308737145 L 1381.3052771264174 55.99299509419315 L 1381.1081559301556 56.01252877535787 L 1380.9106124883685 56.03117039887948 L 1380.712666555236 56.04891810061116 L 1380.514337925186 56.065770105797526 L 1380.315646430917 56.081724729252095 L 1380.1166119414122 56.096780375525825 L 1379.9172543599548 56.11093553906663 L 1379.717593622137 56.12418880436996 L 1379.5176496938661 56.13653884612032 L 1379.3174425693683 56.14798442932383 L 1379.1169922691893 56.158524409431706 L 1378.9163188381917 56.16815773245473 L 1378.715442343552 56.17688343506861 L 1378.5143828727519 56.184700644710375 L 1378.313160531571 56.19160857966556 L 1378.1117954420756 56.197606549146435 L 1377.9103077406069 56.20269395336105 L 1377.7087175757672 56.20687028357321 L 1377.5070451064053 56.21013512215339 L 1377.3053104995993 56.212488142620444 L 1377.1035339286425 56.2139291096743 L 1376.9017355710234 56.21445787921943 L 1376.69993560641 56.21407439837934 L 1376.4981542146304 56.21277870550178 L 1376.2964115736554 56.21057093015497 L 1376.0947278575813 56.2074512931146 L 1375.8931232346115 56.203420106341774 L 1375.6916178650401 56.19847777295181 L 1375.4902318992367 56.192624787173926 L 1375.2889854756295 56.18586173430183 L 1375.0878987186934 56.17818929063517 L 1374.8869917369366 56.16960822341191 L 1374.6862846208894 56.16011939073163 L 1374.4857974410968 56.14972374146969 L 1374.2855502461093 56.13842231518235 L 1374.0855630604797 56.12621624200283 L 1373.8858558827596 56.113106742528274 L 1373.6864486835009 56.099095127697694 L 1373.4873614032567 56.084182798660905 L 1373.2886139505897 56.06837124663838 L 1373.090226200079 56.051662052772144 L 1372.892217990335 56.034056887967665 L 1372.6946091220132 56.01555751272676 L 1372.4974193558357 55.996165776971516 L 1372.3006684106151 55.97588361985936 L 1372.1043759612817 55.954713069589104 L 1371.908561636917 55.93265624319813 L 1371.7132450187903 55.9097153463507 L 1371.5184456384004 55.885892673117375 L 1371.3241829755232 55.861190605745634 L 1371.1304764562633 55.835611614421616 L 1370.9373454511108 55.80915825702316 L 1370.7448092730056 55.781833178863934 L 1370.5528871754047 55.753639112429 L 1370.3615983503582 55.72457887710151 L 1370.1709619265891 55.69465537888076 L 1369.9809969675812 55.66387161009166 L 1369.7917224696719 55.63223064908542 L 1369.6031573601529 55.59973565993178 L 1369.4153204953784 55.56638989210258 L 1369.2282306588786 55.5321966801468 L 1369.0419065594806 55.497159443357155 L 1368.8563668294396 55.46128168542812 L 1368.6716300225735 55.4245669941056 L 1368.4877146124095 55.387019040828115 L 1368.3046389903352 55.34864158035972 L 1368.1224214637602 55.30943845041446 L 1367.9410802542855 55.269413571272686 L 1367.7606334958805 55.22857094538894 L 1367.581099233071 55.18691465699178 L 1367.4024954191336 55.14444887167533 L 1367.224839914301 55.10117783598274 L 1367.0481504839754 55.05710587698152 L 1366.8724447969525 55.01223740183083 L 1366.697740423655 54.96657689734081 L 1366.5240548343745 54.92012892952385 L 1366.351405397525 54.87289814313803 L 1366.1798093779064 54.82488926122262 L 1366.0092839349775 54.77610708462583 L 1365.839846121141 54.72655649152463 L 1365.6715128800365 54.67624243693707 L 1365.504301044848 54.62516995222667 L 1365.33822733662 54.57334414459934 L 1365.1733083625847 54.52077019659265 L 1365.0095606145019 54.467453365557596 L 1364.8470004670103 54.41339898313285 L 1364.685644175989 54.358612454711604 L 1364.5255078769324 54.30309925890105 L 1364.3666075833373 54.24686494697451 L 1364.2089591851006 54.18991514231631 L 1364.0525784469307 54.13225553985946 L 1363.8974810067712 54.073891905516156 L 1363.7436823742364 54.014830075601196 L 1363.591197929062 53.95507595624835 L 1363.4400429195653 53.89463552281976 L 1363.290232461121 53.83351481930841 L 1363.1417815346504 53.77171995773371 L 1362.994704985122 53.70925711753032 L 1362.8490175200689 53.64613254493022 L 1362.7047337081158 53.582352552338044 L 1362.5618679775234 53.51792351769993 L 1362.4204346147462 53.45285188386562 L 1362.2804477630023 53.3871441579443 L 1362.1419214208604 53.320806910653786 L 1362.004869440839 53.25384677566353 L 1361.8693055280223 53.186270448931246 L 1361.7352432386883 53.11808468803328 L 1361.6026959789542 53.049296311488895 L 1361.4716770034358 52.97991219807844 L 1361.3421994139212 52.909939286155414 L 1361.2142761580617 52.83938457295272 L 1361.087920028076 52.76825511388287 L 1360.9631436594718 52.6965580218325 L 1360.8399595297824 52.62430046645107 L 1360.7183799573177 52.5514896734339 L 1360.5984170999338 52.47813292379962 L 1360.4800829538162 52.40423755316206 L 1360.3633893522815 52.3298109509967 L 1360.248347964592 52.25486055990175 L 1360.134970294791 52.179393874853844 L 1360.0232676805506 52.103418442458604 L 1359.9132512920396 52.02694186019596 L 1359.804932130805 51.94997177566041 L 1359.6983210286724 51.87251588579626 L 1359.5934286466636 51.79458193612795 L 1359.490265473929 51.7161777199855 L 1359.3888418267002 51.6373110777252 L 1359.289167847257 51.55798989594554 L 1359.1912535029148 51.47822210669861 L 1359.0951085850263 51.398015686696844 L 1359.000742708003 51.31737865651542 L 1358.9081653083538 51.23631907979016 L 1358.817385643742 51.15484506241117 L 1358.728412792058 51.072964751712306 L 1358.6412556505131 50.990686335656406 L 1358.5559229347487 50.9080180420165 L 1358.4724231779653 50.82496813755307 L 1358.390764730069 50.74154492718736 L 1358.3109557568364 50.65775675317087 L 1358.2330042390986 50.573611994251195 L 1358.156917971942 50.4891190648341 L 1358.0827045639303 50.40428641414212 L 1358.0103714363422 50.31912252536962 L 1357.9399258224305 50.233635914834515 L 1357.8713747666975 50.14783513112663 L 1357.804725124192 50.06172875425281 L 1357.7399835598223 49.975325394779006 L 1357.6771565476913 49.888633692969165 L 1357.6162503704477 49.80166231792121 L 1357.5572711186585 49.71441996670019 L 1357.5002246901995 49.626915363468505 L 1357.4451167896664 49.53915725861357 L 1357.3919529278028 49.45115442787274 L 1357.340738420951 49.362915671455745 L 1357.2914783905192 49.27444981316471 L 1357.2441777624688 49.18576569951172 L 1357.1988412668236 49.09687219883425 L 1357.1554734371953 49.007778200408296 L 1357.1140786103306 48.918492613559444 L 1357.0746609256778 48.82902436677198 L 1357.0372243249726 48.73938240679603 L 1357.0017725518437 48.64957569775289 L 1356.968309151439 48.55961322023861 L 1356.9368374700705 48.46950397042599 L 1356.9073606548802 48.37925695916492 L 1356.8798816535252 48.28888121108131 L 1356.8544032138825 48.198385763674665 L 1356.830927883775 48.1077796664143 L 1356.809458010716 48.017071979834455 L 1356.7899957416753 47.92627177462819 L 1356.772543022863 47.835388130740355 L 1356.7571015995368 47.744430136459606 L 1356.743673015826 47.65340688750957 L 1356.7322586145779 47.562327486139296 L 1356.722859537223 47.47120104021301 L 1356.7154767236616 47.38003666229938 L 1356.7101109121684 47.28884346876023 L 1356.7067626393202 47.1976305788389 L 1356.7054322399415 47.10640711374838" stroke-miterlimit="10" stroke-width="2.3497561670000002" stroke-dasharray=""/></g><g><g/><text fill="black" stroke="none" font-family="sans-serif" font-size="8pt" font-style="normal" font-weight="normal" text-decoration="normal" x="1353.34147603875" y="71.045568814" text-anchor="start" dominant-baseline="alphabetic" xml:space="preserve">Database</text></g></g><g><path fill="white" stroke="black" paint-order="fill stroke markers" d=" M 359.87491649450004 120.80511117400002 L 373.6970115945 120.80511117400002 L 373.6970115945 581.0808780039999 L 359.87491649450004 581.0808780039999 L 359.87491649450004 120.80511117400002" stroke-miterlimit="10" stroke-width="1.1518412583333333" stroke-dasharray=""/><path fill="white" stroke="black" paint-order="fill stroke markers" d=" M 638.9816278486666 272.848157274 L 652.8037229486666 272.848157274 L 652.8037229486666 542.379011724 L 638.9816278486666 542.379011724 L 638.9816278486666 272.848157274" stroke-miterlimit="10" stroke-width="1.1518412583333333" stroke-dasharray=""/><path fill="white" stroke="black" paint-order="fill stroke markers" d=" M 645.8926753986666 464.97527916399997 L 659.7147704986667 464.97527916399997 L 659.7147704986667 503.67714544399996 L 645.8926753986666 503.67714544399996 L 645.8926753986666 464.97527916399997" stroke-miterlimit="10" stroke-width="1.1518412583333333" stroke-dasharray=""/><path fill="white" stroke="black" paint-order="fill stroke markers" d=" M 11.21484375 581.0808780039999 L 25.03693885 581.0808780039999 L 25.03693885 619.7827442839999 L 11.21484375 619.7827442839999 L 11.21484375 581.0808780039999" stroke-miterlimit="10" stroke-width="1.1518412583333333" stroke-dasharray=""/><path fill="white" stroke="black" paint-order="fill stroke markers" d=" M 359.87491649450004 619.7827442839999 L 373.6970115945 619.7827442839999 L 373.6970115945 1886.992423052001 L 359.87491649450004 1886.992423052001 L 359.87491649450004 619.7827442839999" stroke-miterlimit="10" stroke-width="1.1518412583333333" stroke-dasharray=""/><path fill="white" stroke="black" paint-order="fill stroke markers" d=" M 638.9816278486666 658.4846105639999 L 652.8037229486666 658.4846105639999 L 652.8037229486666 1848.2905567720009 L 638.9816278486666 1848.2905567720009 L 638.9816278486666 658.4846105639999" stroke-miterlimit="10" stroke-width="1.1518412583333333" stroke-dasharray=""/><path fill="white" stroke="black" paint-order="fill stroke markers" d=" M 645.8926753986666 715.1552004739999 L 659.7147704986667 715.1552004739999 L 659.7147704986667 1159.397336988 L 645.8926753986666 1159.397336988 L 645.8926753986666 715.1552004739999" stroke-miterlimit="10" stroke-width="1.1518412583333333" stroke-dasharray=""/><path fill="white" stroke="black" paint-order="fill stroke markers" d=" M 366.7859640445 753.8570667539999 L 380.6080591445 753.8570667539999 L 380.6080591445 1120.6954707080001 L 366.7859640445 1120.6954707080001 L 366.7859640445 753.8570667539999" stroke-miterlimit="10" stroke-width="1.1518412583333333" stroke-dasharray=""/><path fill="white" stroke="black" paint-order="fill stroke markers" d=" M 135.48397710833333 835.9603116479999 L 149.30607220833335 835.9603116479999 L 149.30607220833335 874.6621779279999 L 135.48397710833333 874.6621779279999 L 135.48397710833333 835.9603116479999" stroke-miterlimit="10" stroke-width="1.1518412583333333" stroke-dasharray=""/><path fill="white" stroke="black" paint-order="fill stroke markers" d=" M 135.48397710833333 913.3640442079999 L 149.30607220833335 913.3640442079999 L 149.30607220833335 1081.993604428 L 135.48397710833333 1081.993604428 L 135.48397710833333 913.3640442079999" stroke-miterlimit="10" stroke-width="1.1518412583333333" stroke-dasharray=""/><path fill="white" stroke="black" paint-order="fill stroke markers" d=" M 11.21484375 952.0659104879999 L 25.03693885 952.0659104879999 L 25.03693885 990.7677767679999 L 11.21484375 990.7677767679999 L 11.21484375 952.0659104879999" stroke-miterlimit="10" stroke-width="1.1518412583333333" stroke-dasharray=""/><path fill="white" stroke="black" paint-order="fill stroke markers" d=" M 645.8926753986666 1234.036650528 L 659.7147704986667 1234.036650528 L 659.7147704986667 1791.6199668620006 L 645.8926753986666 1791.6199668620006 L 645.8926753986666 1234.036650528" stroke-miterlimit="10" stroke-width="1.1518412583333333" stroke-dasharray=""/><path fill="white" stroke="black" paint-order="fill stroke markers" d=" M 652.8037229486665 1343.231201818 L 666.6258180486666 1343.231201818 L 666.6258180486666 1734.9493769520009 L 652.8037229486665 1734.9493769520009 L 652.8037229486665 1343.231201818" stroke-miterlimit="10" stroke-width="1.1518412583333333" stroke-dasharray=""/><path fill="white" stroke="black" paint-order="fill stroke markers" d=" M 366.7859640445 1381.9330680980001 L 380.6080591445 1381.9330680980001 L 380.6080591445 1696.2475106720008 L 366.7859640445 1696.2475106720008 L 366.7859640445 1381.9330680980001" stroke-miterlimit="10" stroke-width="1.1518412583333333" stroke-dasharray=""/><path fill="white" stroke="black" paint-order="fill stroke markers" d=" M 135.48397710833333 1464.0363129920001 L 149.30607220833335 1464.0363129920001 L 149.30607220833335 1502.7381792720003 L 135.48397710833333 1502.7381792720003 L 135.48397710833333 1464.0363129920001" stroke-miterlimit="10" stroke-width="1.1518412583333333" stroke-dasharray=""/><path fill="white" stroke="black" paint-order="fill stroke markers" d=" M 11.21484375 1580.1419118320005 L 25.03693885 1580.1419118320005 L 25.03693885 1618.8437781120006 L 11.21484375 1618.8437781120006 L 11.21484375 1580.1419118320005" stroke-miterlimit="10" stroke-width="1.1518412583333333" stroke-dasharray=""/><g><g><rect fill="white" stroke="none" x="94.90951150725004" y="102.83638754400002" width="188.18178478" height="17.96872363"/></g><text fill="black" stroke="none" font-family="sans-serif" font-size="8pt" font-style="normal" font-weight="normal" text-decoration="normal" x="96.98282577225004" y="115.27627313400002" text-anchor="start" dominant-baseline="alphabetic" xml:space="preserve">mousePressed(x : Integer, y : Integer)</text></g><g><path fill="none" stroke="black" paint-order="fill stroke markers" d=" M 18.1258913 120.80511117400002 L 348.4947248621667 120.80511117400002" stroke-miterlimit="10" stroke-width="1.1518412583333333" stroke-dasharray=""/><g transform="translate(359.87491649450004,120.80511117400002) translate(-359.87491649450004,-120.80511117400002)"><path fill="black" stroke="none" paint-order="stroke fill markers" d=" M 348.3565039111667 115.04590488233335 L 359.87491649450004 120.80511117400002 L 348.3565039111667 126.56431746566669 Z"/></g></g><g><g><rect fill="white" stroke="none" x="390.05315746283327" y="141.53825382400004" width="139.56801524875" height="17.96872363"/></g><text fill="black" stroke="none" font-family="sans-serif" font-size="8pt" font-style="normal" font-weight="normal" text-decoration="normal" x="392.1264717278333" y="153.97813941400005" text-anchor="start" dominant-baseline="alphabetic" xml:space="preserve">sn := yToScreen(y : Integer)</text></g><g><path fill="none" stroke="black" paint-order="fill stroke markers" d=" M 373.6970115945 159.50697745400004 L 428.9853919945 159.50697745400004 L 428.9853919945 177.47570108400004 L 385.0772032268333 177.47570108400004" stroke-miterlimit="10" stroke-width="1.1518412583333333" stroke-dasharray=""/><g transform="translate(373.6970115945,177.47570108400004) translate(-373.6970115945,-177.47570108400004)"><path fill="black" stroke="none" paint-order="stroke fill markers" d=" M 385.2154241778333 171.71649479233338 L 373.6970115945 177.47570108400004 L 385.2154241778333 183.2349073756667 Z"/></g></g><g><g><rect fill="white" stroke="none" x="390.05315746283327" y="198.20884373400003" width="137.9190894675" height="17.96872363"/></g><text fill="black" stroke="none" font-family="sans-serif" font-size="8pt" font-style="normal" font-weight="normal" text-decoration="normal" x="392.1264717278333" y="210.64872932400004" text-anchor="start" dominant-baseline="alphabetic" xml:space="preserve">time := xToTime(x : Integer)</text></g><g><path fill="none" stroke="black" paint-order="fill stroke markers" d=" M 373.6970115945 216.17756736400003 L 428.9853919945 216.17756736400003 L 428.9853919945 234.14629099400003 L 385.0772032268333 234.14629099400003" stroke-miterlimit="10" stroke-width="1.1518412583333333" stroke-dasharray=""/><g transform="translate(373.6970115945,234.14629099400003) translate(-373.6970115945,-234.14629099400003)"><path fill="black" stroke="none" paint-order="stroke fill markers" d=" M 385.2154241778333 228.38708470233337 L 373.6970115945 234.14629099400003 L 385.2154241778333 239.90549728566668 Z"/></g></g><g><g><rect fill="white" stroke="none" x="393.50868123783323" y="254.87943364400002" width="225.6612769675" height="17.96872363"/></g><text fill="black" stroke="none" font-family="sans-serif" font-size="8pt" font-style="normal" font-weight="normal" text-decoration="normal" x="395.58199550283325" y="267.31931923400003" text-anchor="start" dominant-baseline="alphabetic" xml:space="preserve">selectScreening(sn : String, time : LocalTime)</text></g><g><path fill="none" stroke="black" paint-order="fill stroke markers" d=" M 373.6970115945 272.848157274 L 627.6014362163332 272.848157274" stroke-miterlimit="10" stroke-width="1.1518412583333333" stroke-dasharray=""/><g transform="translate(638.9816278486666,272.848157274) translate(-638.9816278486666,-272.848157274)"><path fill="black" stroke="none" paint-order="stroke fill markers" d=" M 627.4632152653332 267.08895098233336 L 638.9816278486666 272.848157274 L 627.4632152653332 278.6073635656667 Z"/></g></g><g><g><rect fill="white" stroke="none" x="802.4180215608332" y="330.900956694" width="90.95961681125" height="17.96872363"/></g><text fill="black" stroke="none" font-family="sans-serif" font-size="8pt" font-style="normal" font-weight="normal" text-decoration="normal" x="804.4913358258332" y="343.340842284" text-anchor="start" dominant-baseline="alphabetic" xml:space="preserve">getScreenName()</text></g><g><path fill="none" stroke="black" paint-order="fill stroke markers" d=" M 652.8037229486666 348.869680324 L 1031.6117453519164 348.869680324" stroke-miterlimit="10" stroke-width="1.1518412583333333" stroke-dasharray=""/><g transform="translate(1042.9919369842498,348.869680324) translate(-1042.9919369842498,-348.869680324)"><path fill="black" stroke="none" paint-order="stroke fill markers" d=" M 1031.4735244009164 343.11047403233334 L 1042.9919369842498 348.869680324 L 1031.4735244009164 354.62888661566666 Z"/></g></g><g><g><rect fill="white" stroke="none" x="822.4951699983332" y="369.602822974" width="50.80531993625" height="17.96872363"/></g><text fill="black" stroke="none" font-family="sans-serif" font-size="8pt" font-style="normal" font-weight="normal" text-decoration="normal" x="824.5684842633332" y="382.042708564" text-anchor="start" dominant-baseline="alphabetic" xml:space="preserve">getTime()</text></g><g><path fill="none" stroke="black" paint-order="fill stroke markers" d=" M 652.8037229486666 387.571546604 L 1031.6117453519164 387.571546604" stroke-miterlimit="10" stroke-width="1.1518412583333333" stroke-dasharray=""/><g transform="translate(1042.9919369842498,387.571546604) translate(-1042.9919369842498,-387.571546604)"><path fill="black" stroke="none" paint-order="stroke fill markers" d=" M 1031.4735244009164 381.81234031233333 L 1042.9919369842498 387.571546604 L 1031.4735244009164 393.33075289566665 Z"/></g></g><g><g><rect fill="white" stroke="none" x="676.0709163669999" y="429.037831904" width="88.49965587375" height="17.96872363"/></g><text fill="black" stroke="none" font-family="sans-serif" font-size="8pt" font-style="normal" font-weight="normal" text-decoration="normal" x="678.1442306319999" y="441.477717494" text-anchor="start" dominant-baseline="alphabetic" xml:space="preserve">notifyObservers()</text></g><g><path fill="none" stroke="black" paint-order="fill stroke markers" d=" M 652.8037229486666 447.006555534 L 715.0031508986666 447.006555534 L 715.0031508986666 464.97527916399997 L 671.0949621309999 464.97527916399997" stroke-miterlimit="10" stroke-width="1.1518412583333333" stroke-dasharray=""/><g transform="translate(659.7147704986666,464.97527916399997) translate(-659.7147704986666,-464.97527916399997)"><path fill="black" stroke="none" paint-order="stroke fill markers" d=" M 671.2331830819999 459.2160728723333 L 659.7147704986666 464.97527916399997 L 671.2331830819999 470.73448545566663 Z"/></g></g><g><g><rect fill="white" stroke="none" x="487.2361776690833" y="485.70842181399996" width="45.117331655" height="17.96872363"/></g><text fill="black" stroke="none" font-family="sans-serif" font-size="8pt" font-style="normal" font-weight="normal" text-decoration="normal" x="489.3094919340833" y="498.148307404" text-anchor="start" dominant-baseline="alphabetic" xml:space="preserve">update()</text></g><g><path fill="none" stroke="black" paint-order="fill stroke markers" d=" M 645.8926753986666 503.67714544399996 L 385.0772032268333 503.67714544399996" stroke-miterlimit="10" stroke-width="1.1518412583333333" stroke-dasharray=""/><g transform="translate(373.6970115945,503.67714544399996) translate(-373.6970115945,-503.67714544399996)"><path fill="black" stroke="none" paint-order="stroke fill markers" d=" M 385.2154241778333 497.9179391523333 L 373.6970115945 503.67714544399996 L 385.2154241778333 509.4363517356666 Z"/></g></g><g><g><rect fill="white" stroke="none" x="504.26600545658323" y="524.410288094" width="4.14662853" height="17.96872363"/></g><text fill="black" stroke="none" font-family="sans-serif" font-size="8pt" font-style="normal" font-weight="normal" text-decoration="normal" x="506.33931972158325" y="536.8501736839999" text-anchor="start" dominant-baseline="alphabetic" xml:space="preserve"></text></g><g><path fill="none" stroke="black" paint-order="fill stroke markers" d=" M 638.9816278486666 542.379011724 L 385.0772032268333 542.379011724" stroke-miterlimit="10" stroke-width="1.1518412583333333" stroke-dasharray="5.52883804"/><g transform="translate(373.6970115945,542.379011724) translate(-373.6970115945,-542.379011724)"><path fill="black" stroke="none" paint-order="stroke fill markers" d=" M 385.2154241778333 536.6198054323332 L 373.6970115945 542.379011724 L 385.2154241778333 548.1382180156667 Z"/></g></g><g><g><rect fill="white" stroke="none" x="190.38261340725003" y="563.1121543739999" width="4.14662853" height="17.96872363"/></g><text fill="black" stroke="none" font-family="sans-serif" font-size="8pt" font-style="normal" font-weight="normal" text-decoration="normal" x="192.45592767225003" y="575.5520399639998" text-anchor="start" dominant-baseline="alphabetic" xml:space="preserve"></text></g><g><path fill="none" stroke="black" paint-order="fill stroke markers" d=" M 359.87491649450004 581.0808780039999 L 36.417130482333334 581.0808780039999" stroke-miterlimit="10" stroke-width="1.1518412583333333" stroke-dasharray="5.52883804"/><g transform="translate(25.03693885,581.0808780039999) translate(-25.03693885,-581.0808780039999)"><path fill="black" stroke="none" paint-order="stroke fill markers" d=" M 36.55535143333333 575.3216717123332 L 25.03693885 581.0808780039999 L 36.55535143333333 586.8400842956667 Z"/></g></g><g><g><rect fill="white" stroke="none" x="146.05497668850003" y="601.8140206539999" width="92.8019019675" height="17.96872363"/></g><text fill="black" stroke="none" font-family="sans-serif" font-size="8pt" font-style="normal" font-weight="normal" text-decoration="normal" x="148.12829095350003" y="614.2539062439998" text-anchor="start" dominant-baseline="alphabetic" xml:space="preserve">cancelScreening()</text></g><g><path fill="none" stroke="black" paint-order="fill stroke markers" d=" M 25.03693885 619.7827442839999 L 348.4947248621667 619.7827442839999" stroke-miterlimit="10" stroke-width="1.1518412583333333" stroke-dasharray=""/><g transform="translate(359.87491649450004,619.7827442839999) translate(-359.87491649450004,-619.7827442839999)"><path fill="black" stroke="none" paint-order="stroke fill markers" d=" M 348.3565039111667 614.0235379923332 L 359.87491649450004 619.7827442839999 L 348.3565039111667 625.5419505756666 Z"/></g></g><g><g><rect fill="white" stroke="none" x="463.30067342533323" y="640.5158869339999" width="86.0772925925" height="17.96872363"/></g><text fill="black" stroke="none" font-family="sans-serif" font-size="8pt" font-style="normal" font-weight="normal" text-decoration="normal" x="465.37398769033325" y="652.9557725239998" text-anchor="start" dominant-baseline="alphabetic" xml:space="preserve">cancelSelected()</text></g><g><path fill="none" stroke="black" paint-order="fill stroke markers" d=" M 373.6970115945 658.4846105639999 L 627.6014362163332 658.4846105639999" stroke-miterlimit="10" stroke-width="1.1518412583333333" stroke-dasharray=""/><g transform="translate(638.9816278486666,658.4846105639999) translate(-638.9816278486666,-658.4846105639999)"><path fill="black" stroke="none" paint-order="stroke fill markers" d=" M 627.4632152653332 652.7254042723332 L 638.9816278486666 658.4846105639999 L 627.4632152653332 664.2438168556666 Z"/></g></g><g><g><rect fill="white" stroke="none" x="676.0709163669999" y="679.2177532139999" width="216.91176524875" height="17.96872363"/></g><text fill="black" stroke="none" font-family="sans-serif" font-size="8pt" font-style="normal" font-weight="normal" text-decoration="normal" x="678.1442306319999" y="691.6576388039998" text-anchor="start" dominant-baseline="alphabetic" xml:space="preserve">observerMessage(s : String, true : Boolean)</text></g><g><path fill="none" stroke="black" paint-order="fill stroke markers" d=" M 652.8037229486666 697.1864768439999 L 715.0031508986666 697.1864768439999 L 715.0031508986666 715.1552004739999 L 671.0949621309999 715.1552004739999" stroke-miterlimit="10" stroke-width="1.1518412583333333" stroke-dasharray=""/><g transform="translate(659.7147704986666,715.1552004739999) translate(-659.7147704986666,-715.1552004739999)"><path fill="black" stroke="none" paint-order="stroke fill markers" d=" M 671.2331830819999 709.3959941823332 L 659.7147704986666 715.1552004739999 L 671.2331830819999 720.9144067656666 Z"/></g></g><g><g><rect fill="white" stroke="none" x="406.62602761595826" y="735.8883431239999" width="213.24867931125" height="17.96872363"/></g><text fill="black" stroke="none" font-family="sans-serif" font-size="8pt" font-style="normal" font-weight="normal" text-decoration="normal" x="408.6993418809583" y="748.3282287139998" text-anchor="start" dominant-baseline="alphabetic" xml:space="preserve">message(message : String, true : Boolean)</text></g><g><path fill="none" stroke="black" paint-order="fill stroke markers" d=" M 645.8926753986666 753.8570667539999 L 391.98825077683335 753.8570667539999" stroke-miterlimit="10" stroke-width="1.1518412583333333" stroke-dasharray=""/><g transform="translate(380.60805914450003,753.8570667539999) translate(-380.60805914450003,-753.8570667539999)"><path fill="black" stroke="none" paint-order="stroke fill markers" d=" M 392.12647172783335 748.0978604623332 L 380.60805914450003 753.8570667539999 L 392.12647172783335 759.6162730456666 Z"/></g></g><g><path fill="white" stroke="black" paint-order="fill stroke markers" d=" M 169.83188343183335 795.1160206275 A 20.5258112235 20.5258112235 0 1 1 169.83187316892858 795.0954948196975 M 116.13304396833334 773.4153313205001 L 116.13304396833334 816.8167099345 M 114.95816588483333 795.1160206275 L 128.78026098483335 795.1160206275" stroke-miterlimit="10" stroke-width="2.3497561670000002" stroke-dasharray=""/></g><g><g/><text fill="black" stroke="none" font-family="sans-serif" font-size="8pt" font-style="normal" font-weight="normal" text-decoration="normal" x="131.08618676770834" y="830.6388050344999" text-anchor="start" dominant-baseline="alphabetic" xml:space="preserve">Alert</text></g><g><g><rect fill="white" stroke="none" x="190.8184311586667" y="787.3065368959999" width="152.7003394675" height="17.96872363"/></g><text fill="black" stroke="none" font-family="sans-serif" font-size="8pt" font-style="normal" font-weight="normal" text-decoration="normal" x="192.8917454236667" y="799.7464224859998" text-anchor="start" dominant-baseline="alphabetic" xml:space="preserve">Alert( confirmation : AlertType)</text></g><g><path fill="none" stroke="black" paint-order="fill stroke markers" d=" M 366.7859640445 805.2752605259999 L 178.93142937266666 805.2752605259999" stroke-miterlimit="10" stroke-width="1.1518412583333333" stroke-dasharray=""/><g transform="translate(167.55123774033333,805.2752605259999) translate(-167.55123774033333,-805.2752605259999)"><path fill="black" stroke="none" paint-order="stroke fill markers" d=" M 179.06965032366668 799.5160542343332 L 167.55123774033333 805.2752605259999 L 179.06965032366668 811.0344668176666 Z"/></g></g><g><g><rect fill="white" stroke="none" x="255.9727038614167" y="856.6934542979999" width="4.14662853" height="17.96872363"/></g><text fill="black" stroke="none" font-family="sans-serif" font-size="8pt" font-style="normal" font-weight="normal" text-decoration="normal" x="258.0460181264167" y="869.1333398879998" text-anchor="start" dominant-baseline="alphabetic" xml:space="preserve"></text></g><g><path fill="none" stroke="black" paint-order="fill stroke markers" d=" M 149.30607220833335 874.6621779279999 L 355.4057724121667 874.6621779279999" stroke-miterlimit="10" stroke-width="1.1518412583333333" stroke-dasharray="5.52883804"/><g transform="translate(366.7859640445,874.6621779279999) translate(-366.7859640445,-874.6621779279999)"><path fill="black" stroke="none" paint-order="stroke fill markers" d=" M 355.2675514611667 868.9029716363332 L 366.7859640445 874.6621779279999 L 355.2675514611667 880.4213842196666 Z"/></g></g><g><g><rect fill="white" stroke="none" x="217.3572253457917" y="895.3953205779999" width="81.37758556125" height="17.96872363"/></g><text fill="black" stroke="none" font-family="sans-serif" font-size="8pt" font-style="normal" font-weight="normal" text-decoration="normal" x="219.4305396107917" y="907.8352061679998" text-anchor="start" dominant-baseline="alphabetic" xml:space="preserve">showAndWait();</text></g><g><path fill="none" stroke="black" paint-order="fill stroke markers" d=" M 366.7859640445 913.3640442079999 L 160.68626384066667 913.3640442079999" stroke-miterlimit="10" stroke-width="1.1518412583333333" stroke-dasharray=""/><g transform="translate(149.30607220833335,913.3640442079999) translate(-149.30607220833335,-913.3640442079999)"><path fill="black" stroke="none" paint-order="stroke fill markers" d=" M 160.8244847916667 907.6048379163332 L 149.30607220833335 913.3640442079999 L 160.8244847916667 919.1232504996666 Z"/></g></g><g><g><rect fill="white" stroke="none" x="78.18714371416667" y="934.0971868579999" width="4.14662853" height="17.96872363"/></g><text fill="black" stroke="none" font-family="sans-serif" font-size="8pt" font-style="normal" font-weight="normal" text-decoration="normal" x="80.26045797916666" y="946.5370724479998" text-anchor="start" dominant-baseline="alphabetic" xml:space="preserve"></text></g><g><path fill="none" stroke="black" paint-order="fill stroke markers" d=" M 135.48397710833333 952.0659104879999 L 36.417130482333334 952.0659104879999" stroke-miterlimit="10" stroke-width="1.1518412583333333" stroke-dasharray=""/><g transform="translate(25.03693885,952.0659104879999) translate(-25.03693885,-952.0659104879999)"><path fill="black" stroke="none" paint-order="stroke fill markers" d=" M 36.55535143333333 946.3067041963332 L 25.03693885 952.0659104879999 L 36.55535143333333 957.8251167796666 Z"/></g></g><g><g><rect fill="white" stroke="none" x="78.18714371416667" y="972.7990531379999" width="4.14662853" height="17.96872363"/></g><text fill="black" stroke="none" font-family="sans-serif" font-size="8pt" font-style="normal" font-weight="normal" text-decoration="normal" x="80.26045797916666" y="985.2389387279998" text-anchor="start" dominant-baseline="alphabetic" xml:space="preserve"></text></g><g><path fill="none" stroke="black" paint-order="fill stroke markers" d=" M 25.03693885 990.7677767679999 L 124.103785476 990.7677767679999" stroke-miterlimit="10" stroke-width="1.1518412583333333" stroke-dasharray="5.52883804"/><g transform="translate(135.48397710833333,990.7677767679999) translate(-135.48397710833333,-990.7677767679999)"><path fill="black" stroke="none" paint-order="stroke fill markers" d=" M 123.965564525 985.0085704763331 L 135.48397710833333 990.7677767679999 L 123.965564525 996.5269830596666 Z"/></g></g><path fill="white" stroke="black" paint-order="fill stroke markers" d=" M 84.22451144020835 1011.500919418 L 188.12565228645835 1011.500919418 L 200.56553787645834 1023.940805008 L 200.56553787645834 1043.291738148 L 84.22451144020835 1043.291738148 L 84.22451144020835 1011.500919418 M 188.12565228645835 1011.500919418 L 188.12565228645835 1023.940805008 L 200.56553787645834 1023.940805008" stroke-miterlimit="10" stroke-width="1.1518412583333333" stroke-dasharray=""/><g><text fill="black" stroke="none" font-family="sans-serif" font-size="8pt" font-style="normal" font-weight="normal" text-decoration="normal" x="103.57544458020834" y="1030.8518525579998" text-anchor="start" dominant-baseline="alphabetic" xml:space="preserve">user selects OK</text></g><g><g><rect fill="white" stroke="none" x="230.5996569864167" y="1064.0248807980001" width="54.89272228" height="17.96872363"/></g><text fill="black" stroke="none" font-family="sans-serif" font-size="8pt" font-style="normal" font-weight="normal" text-decoration="normal" x="232.6729712514167" y="1076.4647663880003" text-anchor="start" dominant-baseline="alphabetic" xml:space="preserve">return true</text></g><g><path fill="none" stroke="black" paint-order="fill stroke markers" d=" M 149.30607220833335 1081.993604428 L 355.4057724121667 1081.993604428" stroke-miterlimit="10" stroke-width="1.1518412583333333" stroke-dasharray="5.52883804"/><g transform="translate(366.7859640445,1081.993604428) translate(-366.7859640445,-1081.993604428)"><path fill="black" stroke="none" paint-order="stroke fill markers" d=" M 355.2675514611667 1076.2343981363333 L 366.7859640445 1081.993604428 L 355.2675514611667 1087.7528107196667 Z"/></g></g><g><g><rect fill="white" stroke="none" x="485.80400613158326" y="1102.7267470780002" width="54.89272228" height="17.96872363"/></g><text fill="black" stroke="none" font-family="sans-serif" font-size="8pt" font-style="normal" font-weight="normal" text-decoration="normal" x="487.8773203965833" y="1115.1666326680004" text-anchor="start" dominant-baseline="alphabetic" xml:space="preserve">return true</text></g><g><path fill="none" stroke="black" paint-order="fill stroke markers" d=" M 380.60805914450003 1120.6954707080001 L 634.5124837663333 1120.6954707080001" stroke-miterlimit="10" stroke-width="1.1518412583333333" stroke-dasharray="5.52883804"/><g transform="translate(645.8926753986666,1120.6954707080001) translate(-645.8926753986666,-1120.6954707080001)"><path fill="black" stroke="none" paint-order="stroke fill markers" d=" M 634.3742628153333 1114.9362644163334 L 645.8926753986666 1120.6954707080001 L 634.3742628153333 1126.4546769996668 Z"/></g></g><g><g><rect fill="white" stroke="none" x="676.0709163669999" y="1141.4286133580001" width="54.89272228" height="17.96872363"/></g><text fill="black" stroke="none" font-family="sans-serif" font-size="8pt" font-style="normal" font-weight="normal" text-decoration="normal" x="678.1442306319999" y="1153.8684989480003" text-anchor="start" dominant-baseline="alphabetic" xml:space="preserve">return true</text></g><g><path fill="none" stroke="black" paint-order="fill stroke markers" d=" M 659.7147704986666 1159.397336988 L 715.0031508986666 1159.397336988 L 715.0031508986666 1177.3660606180001 L 664.1839145809998 1177.3660606180001" stroke-miterlimit="10" stroke-width="1.1518412583333333" stroke-dasharray="5.52883804"/><g transform="translate(652.8037229486665,1177.3660606180001) translate(-652.8037229486665,-1177.3660606180001)"><path fill="black" stroke="none" paint-order="stroke fill markers" d=" M 664.3221355319998 1171.6068543263334 L 652.8037229486665 1177.3660606180001 L 664.3221355319998 1183.1252669096668 Z"/></g></g><g><g><rect fill="white" stroke="none" x="676.0709163669999" y="1198.099203268" width="132.54262462375" height="17.96872363"/></g><text fill="black" stroke="none" font-family="sans-serif" font-size="8pt" font-style="normal" font-weight="normal" text-decoration="normal" x="678.1442306319999" y="1210.5390888580002" text-anchor="start" dominant-baseline="alphabetic" xml:space="preserve">checkSold(sg : Screening)</text></g><g><path fill="none" stroke="black" paint-order="fill stroke markers" d=" M 652.8037229486666 1216.0679268980002 L 715.0031508986666 1216.0679268980002 L 715.0031508986666 1234.036650528 L 671.0949621309999 1234.036650528" stroke-miterlimit="10" stroke-width="1.1518412583333333" stroke-dasharray=""/><g transform="translate(659.7147704986666,1234.036650528) translate(-659.7147704986666,-1234.036650528)"><path fill="black" stroke="none" paint-order="stroke fill markers" d=" M 671.2331830819999 1228.2774442363334 L 659.7147704986666 1234.036650528 L 671.2331830819999 1239.7958568196668 Z"/></g></g><path fill="white" stroke="black" paint-order="fill stroke markers" d=" M 542.4518985086667 1254.769793178 L 736.8935666986666 1254.769793178 L 749.3334522886666 1267.209678768 L 749.3334522886666 1286.560611908 L 542.4518985086667 1286.560611908 L 542.4518985086667 1254.769793178 M 736.8935666986666 1254.769793178 L 736.8935666986666 1267.209678768 L 749.3334522886666 1267.209678768" stroke-miterlimit="10" stroke-width="1.1518412583333333" stroke-dasharray=""/><g><text fill="black" stroke="none" font-family="sans-serif" font-size="8pt" font-style="normal" font-weight="normal" text-decoration="normal" x="561.8028316486666" y="1274.1207263180002" text-anchor="start" dominant-baseline="alphabetic" xml:space="preserve">found the screening has been sold</text></g><g><g><rect fill="white" stroke="none" x="682.9819639169999" y="1307.293754558" width="260.32631603" height="17.96872363"/></g><text fill="black" stroke="none" font-family="sans-serif" font-size="8pt" font-style="normal" font-weight="normal" text-decoration="normal" x="685.0552781819999" y="1319.7336401480002" text-anchor="start" dominant-baseline="alphabetic" xml:space="preserve">observerMessage(message : String, false : Boolean)</text></g><g><path fill="none" stroke="black" paint-order="fill stroke markers" d=" M 659.7147704986666 1325.262478188 L 721.9141984486666 1325.262478188 L 721.9141984486666 1343.231201818 L 678.0060096809999 1343.231201818" stroke-miterlimit="10" stroke-width="1.1518412583333333" stroke-dasharray=""/><g transform="translate(666.6258180486666,1343.231201818) translate(-666.6258180486666,-1343.231201818)"><path fill="black" stroke="none" paint-order="stroke fill markers" d=" M 678.1442306319999 1337.4719955263333 L 666.6258180486666 1343.231201818 L 678.1442306319999 1348.9904081096668 Z"/></g></g><g><g><rect fill="white" stroke="none" x="407.94117053158334" y="1363.964344468" width="217.52944103" height="17.96872363"/></g><text fill="black" stroke="none" font-family="sans-serif" font-size="8pt" font-style="normal" font-weight="normal" text-decoration="normal" x="410.01448479658336" y="1376.4042300580002" text-anchor="start" dominant-baseline="alphabetic" xml:space="preserve">message(message : String, false : Boolean)</text></g><g><path fill="none" stroke="black" paint-order="fill stroke markers" d=" M 652.8037229486666 1381.9330680980001 L 391.98825077683335 1381.9330680980001" stroke-miterlimit="10" stroke-width="1.1518412583333333" stroke-dasharray=""/><g transform="translate(380.60805914450003,1381.9330680980001) translate(-380.60805914450003,-1381.9330680980001)"><path fill="black" stroke="none" paint-order="stroke fill markers" d=" M 392.12647172783335 1376.1738618063334 L 380.60805914450003 1381.9330680980001 L 392.12647172783335 1387.6922743896669 Z"/></g></g><g><path fill="white" stroke="black" paint-order="fill stroke markers" d=" M 169.83188343183335 1423.1920219714998 A 20.5258112235 20.5258112235 0 1 1 169.83187316892858 1423.1714961636972 M 116.13304396833334 1401.4913326644996 L 116.13304396833334 1444.8927112785 M 114.95816588483333 1423.1920219714998 L 128.78026098483335 1423.1920219714998" stroke-miterlimit="10" stroke-width="2.3497561670000002" stroke-dasharray=""/></g><g><g/><text fill="black" stroke="none" font-family="sans-serif" font-size="8pt" font-style="normal" font-weight="normal" text-decoration="normal" x="131.08618676770834" y="1458.7148063785" text-anchor="start" dominant-baseline="alphabetic" xml:space="preserve">Alert</text></g><g><g><rect fill="white" stroke="none" x="201.5149643617917" y="1415.38253824" width="131.30727306125" height="17.96872363"/></g><text fill="black" stroke="none" font-family="sans-serif" font-size="8pt" font-style="normal" font-weight="normal" text-decoration="normal" x="203.5882786267917" y="1427.8224238300002" text-anchor="start" dominant-baseline="alphabetic" xml:space="preserve">Alert( warning : AlertType)</text></g><g><path fill="none" stroke="black" paint-order="fill stroke markers" d=" M 366.7859640445 1433.3512618700001 L 178.93142937266666 1433.3512618700001" stroke-miterlimit="10" stroke-width="1.1518412583333333" stroke-dasharray=""/><g transform="translate(167.55123774033333,1433.3512618700001) translate(-167.55123774033333,-1433.3512618700001)"><path fill="black" stroke="none" paint-order="stroke fill markers" d=" M 179.06965032366668 1427.5920555783334 L 167.55123774033333 1433.3512618700001 L 179.06965032366668 1439.1104681616669 Z"/></g></g><g><g><rect fill="white" stroke="none" x="255.9727038614167" y="1484.7694556420001" width="4.14662853" height="17.96872363"/></g><text fill="black" stroke="none" font-family="sans-serif" font-size="8pt" font-style="normal" font-weight="normal" text-decoration="normal" x="258.0460181264167" y="1497.2093412320003" text-anchor="start" dominant-baseline="alphabetic" xml:space="preserve"></text></g><g><path fill="none" stroke="black" paint-order="fill stroke markers" d=" M 149.30607220833335 1502.7381792720003 L 355.4057724121667 1502.7381792720003" stroke-miterlimit="10" stroke-width="1.1518412583333333" stroke-dasharray="5.52883804"/><g transform="translate(366.7859640445,1502.7381792720003) translate(-366.7859640445,-1502.7381792720003)"><path fill="black" stroke="none" paint-order="stroke fill markers" d=" M 355.2675514611667 1496.9789729803335 L 366.7859640445 1502.7381792720003 L 355.2675514611667 1508.497385563667 Z"/></g></g><g><g><rect fill="white" stroke="none" x="213.9017015707917" y="1523.4713219220002" width="81.37758556125" height="17.96872363"/></g><text fill="black" stroke="none" font-family="sans-serif" font-size="8pt" font-style="normal" font-weight="normal" text-decoration="normal" x="215.97501583579168" y="1535.9112075120004" text-anchor="start" dominant-baseline="alphabetic" xml:space="preserve">showAndWait();</text></g><g><path fill="none" stroke="black" paint-order="fill stroke markers" d=" M 366.7859640445 1541.4400455520004 L 153.77521629066666 1541.4400455520004" stroke-miterlimit="10" stroke-width="1.1518412583333333" stroke-dasharray=""/><g transform="translate(142.39502465833334,1541.4400455520004) translate(-142.39502465833334,-1541.4400455520004)"><path fill="black" stroke="none" paint-order="stroke fill markers" d=" M 153.91343724166668 1535.6808392603336 L 142.39502465833334 1541.4400455520004 L 153.91343724166668 1547.199251843667 Z"/></g></g><g><g><rect fill="white" stroke="none" x="81.64266748916668" y="1562.1731882020003" width="4.14662853" height="17.96872363"/></g><text fill="black" stroke="none" font-family="sans-serif" font-size="8pt" font-style="normal" font-weight="normal" text-decoration="normal" x="83.71598175416668" y="1574.6130737920005" text-anchor="start" dominant-baseline="alphabetic" xml:space="preserve"></text></g><g><path fill="none" stroke="black" paint-order="fill stroke markers" d=" M 142.39502465833334 1580.1419118320005 L 36.417130482333334 1580.1419118320005" stroke-miterlimit="10" stroke-width="1.1518412583333333" stroke-dasharray=""/><g transform="translate(25.03693885,1580.1419118320005) translate(-25.03693885,-1580.1419118320005)"><path fill="black" stroke="none" paint-order="stroke fill markers" d=" M 36.55535143333333 1574.3827055403337 L 25.03693885 1580.1419118320005 L 36.55535143333333 1585.9011181236672 Z"/></g></g><g><g><rect fill="white" stroke="none" x="81.64266748916668" y="1600.8750544820005" width="4.14662853" height="17.96872363"/></g><text fill="black" stroke="none" font-family="sans-serif" font-size="8pt" font-style="normal" font-weight="normal" text-decoration="normal" x="83.71598175416668" y="1613.3149400720006" text-anchor="start" dominant-baseline="alphabetic" xml:space="preserve"></text></g><g><path fill="none" stroke="black" paint-order="fill stroke markers" d=" M 25.03693885 1618.8437781120006 L 131.01483302600002 1618.8437781120006" stroke-miterlimit="10" stroke-width="1.1518412583333333" stroke-dasharray="5.52883804"/><g transform="translate(142.39502465833334,1618.8437781120006) translate(-142.39502465833334,-1618.8437781120006)"><path fill="black" stroke="none" paint-order="stroke fill markers" d=" M 130.876612075 1613.0845718203338 L 142.39502465833334 1618.8437781120006 L 130.876612075 1624.6029844036673 Z"/></g></g><g><g><rect fill="white" stroke="none" x="223.1722093832917" y="1639.5769207620006" width="62.83656993625" height="17.96872363"/></g><text fill="black" stroke="none" font-family="sans-serif" font-size="8pt" font-style="normal" font-weight="normal" text-decoration="normal" x="225.24552364829168" y="1652.0168063520007" text-anchor="start" dominant-baseline="alphabetic" xml:space="preserve">return result</text></g><g><path fill="none" stroke="black" paint-order="fill stroke markers" d=" M 142.39502465833334 1657.5456443920007 L 355.4057724121667 1657.5456443920007" stroke-miterlimit="10" stroke-width="1.1518412583333333" stroke-dasharray="5.52883804"/><g transform="translate(366.7859640445,1657.5456443920007) translate(-366.7859640445,-1657.5456443920007)"><path fill="black" stroke="none" paint-order="stroke fill markers" d=" M 355.2675514611667 1651.786438100334 L 366.7859640445 1657.5456443920007 L 355.2675514611667 1663.3048506836674 Z"/></g></g><g><g><rect fill="white" stroke="none" x="487.11914904720834" y="1678.2787870420007" width="59.17348399875" height="17.96872363"/></g><text fill="black" stroke="none" font-family="sans-serif" font-size="8pt" font-style="normal" font-weight="normal" text-decoration="normal" x="489.19246331220836" y="1690.7186726320008" text-anchor="start" dominant-baseline="alphabetic" xml:space="preserve">return false</text></g><g><path fill="none" stroke="black" paint-order="fill stroke markers" d=" M 380.60805914450003 1696.2475106720008 L 641.4235313163333 1696.2475106720008" stroke-miterlimit="10" stroke-width="1.1518412583333333" stroke-dasharray="5.52883804"/><g transform="translate(652.8037229486666,1696.2475106720008) translate(-652.8037229486666,-1696.2475106720008)"><path fill="black" stroke="none" paint-order="stroke fill markers" d=" M 641.2853103653333 1690.488304380334 L 652.8037229486666 1696.2475106720008 L 641.2853103653333 1702.0067169636675 Z"/></g></g><g><g><rect fill="white" stroke="none" x="682.9819639169999" y="1716.9806533220008" width="59.17348399875" height="17.96872363"/></g><text fill="black" stroke="none" font-family="sans-serif" font-size="8pt" font-style="normal" font-weight="normal" text-decoration="normal" x="685.0552781819999" y="1729.420538912001" text-anchor="start" dominant-baseline="alphabetic" xml:space="preserve">return false</text></g><g><path fill="none" stroke="black" paint-order="fill stroke markers" d=" M 666.6258180486666 1734.9493769520009 L 721.9141984486666 1734.9493769520009 L 721.9141984486666 1752.9181005820008 L 671.0949621309999 1752.9181005820008" stroke-miterlimit="10" stroke-width="1.1518412583333333" stroke-dasharray="5.52883804"/><g transform="translate(659.7147704986666,1752.9181005820008) translate(-659.7147704986666,-1752.9181005820008)"><path fill="black" stroke="none" paint-order="stroke fill markers" d=" M 671.2331830819999 1747.158894290334 L 659.7147704986666 1752.9181005820008 L 671.2331830819999 1758.6773068736675 Z"/></g></g><g><g><rect fill="white" stroke="none" x="676.0709163669999" y="1773.6512432320008" width="59.17348399875" height="17.96872363"/></g><text fill="black" stroke="none" font-family="sans-serif" font-size="8pt" font-style="normal" font-weight="normal" text-decoration="normal" x="678.1442306319999" y="1786.0911288220009" text-anchor="start" dominant-baseline="alphabetic" xml:space="preserve">return false</text></g><g><path fill="none" stroke="black" paint-order="fill stroke markers" d=" M 659.7147704986666 1791.6199668620006 L 715.0031508986666 1791.6199668620006 L 715.0031508986666 1809.5886904920008 L 664.1839145809998 1809.5886904920008" stroke-miterlimit="10" stroke-width="1.1518412583333333" stroke-dasharray="5.52883804"/><g transform="translate(652.8037229486665,1809.5886904920008) translate(-652.8037229486665,-1809.5886904920008)"><path fill="black" stroke="none" paint-order="stroke fill markers" d=" M 664.3221355319998 1803.829484200334 L 652.8037229486665 1809.5886904920008 L 664.3221355319998 1815.3478967836675 Z"/></g></g><g><g><rect fill="white" stroke="none" x="476.75257772220823" y="1830.3218331420007" width="59.17348399875" height="17.96872363"/></g><text fill="black" stroke="none" font-family="sans-serif" font-size="8pt" font-style="normal" font-weight="normal" text-decoration="normal" x="478.82589198720825" y="1842.7617187320009" text-anchor="start" dominant-baseline="alphabetic" xml:space="preserve">return false</text></g><g><path fill="none" stroke="black" paint-order="fill stroke markers" d=" M 638.9816278486666 1848.2905567720009 L 385.0772032268333 1848.2905567720009" stroke-miterlimit="10" stroke-width="1.1518412583333333" stroke-dasharray="5.52883804"/><g transform="translate(373.6970115945,1848.2905567720009) translate(-373.6970115945,-1848.2905567720009)"><path fill="black" stroke="none" paint-order="stroke fill markers" d=" M 385.2154241778333 1842.5313504803341 L 373.6970115945 1848.2905567720009 L 385.2154241778333 1854.0497630636676 Z"/></g></g><g><g><rect fill="white" stroke="none" x="186.92708963225004" y="1869.0236994220008" width="4.14662853" height="17.96872363"/></g><text fill="black" stroke="none" font-family="sans-serif" font-size="8pt" font-style="normal" font-weight="normal" text-decoration="normal" x="189.00040389725004" y="1881.463585012001" text-anchor="start" dominant-baseline="alphabetic" xml:space="preserve"></text></g><g><path fill="none" stroke="black" paint-order="fill stroke markers" d=" M 359.87491649450004 1886.992423052001 L 29.506082932333335 1886.992423052001" stroke-miterlimit="10" stroke-width="1.1518412583333333" stroke-dasharray="5.52883804"/><g transform="translate(18.1258913,1886.992423052001) translate(-18.1258913,-1886.992423052001)"><path fill="black" stroke="none" paint-order="stroke fill markers" d=" M 29.644303883333333 1881.2332167603342 L 18.1258913 1886.992423052001 L 29.644303883333333 1892.7516293436677 Z"/></g></g><g><g/><path fill="none" stroke="black" paint-order="fill stroke markers" d=" M 597.5153425486666 293.581299924 L 1091.3692698342497 293.581299924 L 1091.3692698342497 408.304689254 L 597.5153425486666 408.304689254 L 597.5153425486666 293.581299924 Z" stroke-miterlimit="10" stroke-width="1.9745850142857144" stroke-dasharray=""/><path fill="white" stroke="black" paint-order="fill stroke markers" d=" M 597.5153425486666 293.581299924 L 597.5153425486666 310.167814044 L 644.1526968111666 310.167814044 L 652.4459538711666 301.874556984 L 652.4459538711666 293.581299924 L 597.5153425486666 293.581299924" stroke-miterlimit="10" stroke-width="1.9745850142857144" stroke-dasharray=""/><text fill="black" stroke="none" font-family="sans-serif" font-size="6.4pt" font-style="normal" font-weight="bold" text-decoration="normal" x="611.3374376486665" y="304.638976004" text-anchor="start" dominant-baseline="alphabetic" xml:space="preserve">loop</text><text fill="black" stroke="none" font-family="sans-serif" font-size="6.4pt" font-style="normal" font-weight="bold" text-decoration="normal" x="666.2680489711665" y="304.638976004" text-anchor="start" dominant-baseline="alphabetic" xml:space="preserve">[for each current Screening]</text></g></g><g/><g/><g/><g/><g/><g/><g/><g/></g></svg>