<svg version="1.1" xmlns="http://www.w3.org/2000/svg" xmlns:xlink="http://www.w3.org/1999/xlink" width="1503" height="1839"><desc>actor%20Staff%0Aboundary%20Alert%0Aboundary%20StaffUI%0A%0Acontrol%20ManagementSystem%0Aparticipant%20Cinema%0Aentity%20Screening%20(current)%0Aentity%20Screening%20(selected)%0Aparticipant%20ScreeningMapper%0Adatabase%20Database%0AStaff-%3EStaffUI%3AmousePressed(x%20%3A%20Integer%2C%20y%20%3A%20Integer)%0Aactivate%20StaffUI%0A%0AStaffUI-%3EStaffUI%3Asn%20%3A%3D%20yToScreen(y%20%3A%20Integer)%0AStaffUI-%3EStaffUI%3Atime%20%3A%3D%20xToTime(x%20%3A%20Integer)%0AStaffUI-%3EManagementSystem%3AselectScreening(sn%20%3A%20String%2C%20time%20%3A%20LocalTime)%0Aactivate%20ManagementSystem%0A%0Aloop%20for%20each%20current%20Screening%0AManagementSystem-%3EScreening%20(current)%3AgetScreenName()%0AManagementSystem-%3EScreening%20(current)%3AgetTime()%0Aend%0AManagementSystem-%3EManagementSystem%3AnotifyObservers()%0Aactivate%20ManagementSystem%0AManagementSystem-%3EStaffUI%3Aupdate()%0Adeactivate%20ManagementSystem%0A%0AManagementSystem--%3EStaffUI%3A%0Adeactivate%20ManagementSystem%0AStaffUI--%3EStaff%3A%0Adeactivate%20StaffUI%0Aactivate%20Staff%0AStaff-%3EStaffUI%3AcancelScreening()%0Adeactivate%20Staff%0Aactivate%20StaffUI%0AStaffUI-%3EManagementSystem%3AcancelSelected()%0Aactivate%20ManagementSystem%0A%0AManagementSystem-%3EManagementSystem%3AobserverMessage(s%20%3A%20String%2C%20true%20%3A%20Boolean)%0Aactivate%20ManagementSystem%0AManagementSystem-%3EStaffUI%3Amessage(message%20%3A%20String%2C%20true%20%3A%20Boolean)%0Aactivate%20StaffUI%0AStaffUI-%3E*Alert%3AAlert(%20confirmation%20%3A%20AlertType)%0Aactivate%20Alert%0AAlert--%3EStaffUI%3A%0Adeactivate%20Alert%0A%0AStaffUI-%3EAlert%3AshowAndWait()%3B%0Aactivate%20Alert%0AAlert-%3EStaff%3A%0Aactivate%20Staff%0AStaff--%3EAlert%3A%0Adeactivate%20Staff%0Anote%20over%20Alert%3Auser%20selects%20OK%0AAlert--%3EStaffUI%3Areturn%20true%0Adeactivate%20Alert%0AStaffUI--%3EManagementSystem%3Areturn%20true%0Adeactivate%20StaffUI%0A%0Aexpandable-%20see%20diagram%2004%20Cancel%20Screening%20ACE%20(sold%20screening)%0A%0AManagementSystem-%3EManagementSystem%3AcheckSold(sg%20%3A%20Screening)%20%20%20%20%20%20%20%20%20%20%20%20%20%20%20%20%20%20%20%20%20%20%20%20%20%20%20%20%20%20%20%20%20%20%20%20%20%20%20%20%20%20%20%20%0Aend%20%0A%0AManagementSystem-%3ECinema%3AcancelScreening(selectedScreening%20%3A%20Screening)%0Aactivate%20Cinema%0ACinema-%3EScreeningMapper%3AdeleteScreening(sg%20%3A%20Screening)%0Aactivate%20ScreeningMapper%0AScreeningMapper-%3EScreeningMapper%3AperformUpdate(sql%20%3A%20String)%0Aactivate%20ScreeningMapper%0AScreeningMapper-%3EDatabase%3Aexecute(sql%20%3A%20String)%0AScreeningMapper--%3EScreeningMapper%3A%0Adeactivate%20ScreeningMapper%0AScreeningMapper--%3ECinema%3A%0Adeactivate%20ScreeningMapper%0ACinema--%3EManagementSystem%3A%0Adeactivate%20Cinema%0Aexpandable%E2%88%92%20see%2001%20-%20Display%20Screening%20BCE%0AManagementSystem-%3EManagementSystem%3AnotifyObservers()%20%20%20%20%20%20%20%20%20%20%20%20%20%20%20%20%20%20%20%20%20%20%20%20%0Aend%0AManagementSystem--%3EManagementSystem%3A%0Adeactivate%20ManagementSystem%0AManagementSystem--%3EStaffUI%3A%0Adeactivate%20ManagementSystem%0A%0AStaffUI--%3EStaff%3A%0Adeactivate%20StaffUI%0A</desc><defs/><g><g/><g/><g/><g/><g/><g/><g/><g/><g/><g/><g/><g/><g/><g/><g/><g/><g/><g/><g/><g/><g/><g/><g/><g/><g/><g/><g/><g/><g/><g/><g/><g/><g/><g/><g/><g/><g/><g/><g><rect fill="white" stroke="none" x="0" y="0" width="1503" height="1839"/></g><g/><g><path fill="none" stroke="black" paint-order="fill stroke markers" d=" M 18.1258913 75.19219734400001 L 18.1258913 1839.4444159080006" stroke-miterlimit="10" stroke-width="1.1518412583333333" stroke-dasharray="10.632380846153845,4.607365033333333"/><path fill="none" stroke="black" paint-order="fill stroke markers" d=" M 142.39502465833334 835.9603116479999 L 142.39502465833334 1839.4444159080006" stroke-miterlimit="10" stroke-width="1.1518412583333333" stroke-dasharray="10.632380846153845,4.607365033333333"/><path fill="none" stroke="black" paint-order="fill stroke markers" d=" M 366.7859640445 75.19219734400001 L 366.7859640445 1839.4444159080006" stroke-miterlimit="10" stroke-width="1.1518412583333333" stroke-dasharray="10.632380846153845,4.607365033333333"/><path fill="none" stroke="black" paint-order="fill stroke markers" d=" M 645.8926753986666 75.19219734400001 L 645.8926753986666 1839.4444159080006" stroke-miterlimit="10" stroke-width="1.1518412583333333" stroke-dasharray="10.632380846153845,4.607365033333333"/><path fill="none" stroke="black" paint-order="fill stroke markers" d=" M 968.6551200507499 75.19219734400001 L 968.6551200507499 1839.4444159080006" stroke-miterlimit="10" stroke-width="1.1518412583333333" stroke-dasharray="10.632380846153845,4.607365033333333"/><path fill="none" stroke="black" paint-order="fill stroke markers" d=" M 1063.501043803 75.19219734400001 L 1063.501043803 1839.4444159080006" stroke-miterlimit="10" stroke-width="1.1518412583333333" stroke-dasharray="10.632380846153845,4.607365033333333"/><path fill="none" stroke="black" paint-order="fill stroke markers" d=" M 1174.840717028 75.19219734400001 L 1174.840717028 1839.4444159080006" stroke-miterlimit="10" stroke-width="1.1518412583333333" stroke-dasharray="10.632380846153845,4.607365033333333"/><path fill="none" stroke="black" paint-order="fill stroke markers" d=" M 1297.516963045875 75.19219734400001 L 1297.516963045875 1839.4444159080006" stroke-miterlimit="10" stroke-width="1.1518412583333333" stroke-dasharray="10.632380846153845,4.607365033333333"/><path fill="none" stroke="black" paint-order="fill stroke markers" d=" M 1469.3402103604583 75.19219734400001 L 1469.3402103604583 1839.4444159080006" stroke-miterlimit="10" stroke-width="1.1518412583333333" stroke-dasharray="10.632380846153845,4.607365033333333"/></g><g><g><path fill="white" stroke="black" paint-order="fill stroke markers" d=" M 26.004485507 16.724735071000005 A 7.878594207 7.878594207 0 1 1 26.004481567703223 16.7168564781061 M 18.1258913 24.603329278000004 L 18.1258913 41.4662853 M 8.173982828 30.685051122000004 L 28.077799772 30.685051122000004 M 18.1258913 41.4662853 L 8.173982828 57.22347371400001 M 18.1258913 41.4662853 L 28.077799772 57.22347371400001" stroke-miterlimit="10" stroke-width="2.3497561670000002" stroke-dasharray=""/></g><g><g/><text fill="black" stroke="none" font-family="sans-serif" font-size="8pt" font-style="normal" font-weight="normal" text-decoration="normal" x="6.911047549999999" y="71.045568814" text-anchor="start" dominant-baseline="alphabetic" xml:space="preserve">Staff</text></g><g><path fill="white" stroke="black" paint-order="fill stroke markers" d=" M 394.222822818 35.52278440700001 A 20.5258112235 20.5258112235 0 1 1 394.22281255509523 35.50225859919747 M 340.52398335450005 13.822095100000011 L 340.52398335450005 57.22347371400001 M 339.34910527100004 35.52278440700001 L 353.171200371 35.52278440700001" stroke-miterlimit="10" stroke-width="2.3497561670000002" stroke-dasharray=""/></g><g><g/><text fill="black" stroke="none" font-family="sans-serif" font-size="8pt" font-style="normal" font-weight="normal" text-decoration="normal" x="350.0711202945" y="71.045568814" text-anchor="start" dominant-baseline="alphabetic" xml:space="preserve">StaffUI</text></g><g><path fill="white" stroke="black" paint-order="fill stroke markers" d=" M 666.4184866221666 35.52278440700001 A 20.5258112235 20.5258112235 0 1 1 666.4184763592618 35.50225859919747 M 643.1282563786666 14.99697318350001 L 651.4215134386666 8.085925633500011 M 643.1282563786666 14.99697318350001 L 651.4215134386666 21.90802073350001" stroke-miterlimit="10" stroke-width="2.3497561670000002" stroke-dasharray=""/></g><g><g/><text fill="black" stroke="none" font-family="sans-serif" font-size="8pt" font-style="normal" font-weight="normal" text-decoration="normal" x="595.4527339924166" y="71.045568814" text-anchor="start" dominant-baseline="alphabetic" xml:space="preserve">ManagementSystem</text></g><path fill="none" stroke="none"/><g><path fill="white" stroke="black" paint-order="fill stroke markers" d=" M 934.7062425703749 37.87254057400001 L 1002.603997531125 37.87254057400001 L 1002.603997531125 75.19219734400001 L 934.7062425703749 75.19219734400001 L 934.7062425703749 37.87254057400001 Z" stroke-miterlimit="10" stroke-width="2.211535216" stroke-dasharray=""/></g><g><g/><text fill="black" stroke="none" font-family="sans-serif" font-size="8pt" font-style="normal" font-weight="normal" text-decoration="normal" x="949.7032157538749" y="61.370102243999995" text-anchor="start" dominant-baseline="alphabetic" xml:space="preserve">Cinema</text></g><g><path fill="white" stroke="black" paint-order="fill stroke markers" d=" M 1084.0268550265 33.64297947340001 A 20.5258112235 20.5258112235 0 1 1 1084.0268447635951 33.62245366559747 M 1041.8003544959997 56.04859563050001 L 1085.20173311 56.04859563050001" stroke-miterlimit="10" stroke-width="2.3497561670000002" stroke-dasharray=""/></g><g><g/><text fill="black" stroke="none" font-family="sans-serif" font-size="8pt" font-style="normal" font-weight="normal" text-decoration="normal" x="1016.4260926311249" y="71.045568814" text-anchor="start" dominant-baseline="alphabetic" xml:space="preserve">Screening (current)</text></g><g><path fill="white" stroke="black" paint-order="fill stroke markers" d=" M 1195.3665282514999 33.64297947340001 A 20.5258112235 20.5258112235 0 1 1 1195.3665179885952 33.62245366559747 M 1153.140027721 56.04859563050001 L 1196.541406335 56.04859563050001" stroke-miterlimit="10" stroke-width="2.3497561670000002" stroke-dasharray=""/></g><g><g/><text fill="black" stroke="none" font-family="sans-serif" font-size="8pt" font-style="normal" font-weight="normal" text-decoration="normal" x="1124.398090074875" y="71.045568814" text-anchor="start" dominant-baseline="alphabetic" xml:space="preserve">Screening (selected)</text></g><path fill="none" stroke="none"/><g><path fill="white" stroke="black" paint-order="fill stroke markers" d=" M 1239.105439081125 37.87254057400001 L 1355.928487010625 37.87254057400001 L 1355.928487010625 75.19219734400001 L 1239.105439081125 75.19219734400001 L 1239.105439081125 37.87254057400001 Z" stroke-miterlimit="10" stroke-width="2.211535216" stroke-dasharray=""/></g><g><g/><text fill="black" stroke="none" font-family="sans-serif" font-size="8pt" font-style="normal" font-weight="normal" text-decoration="normal" x="1254.102412264625" y="61.370102243999995" text-anchor="start" dominant-baseline="alphabetic" xml:space="preserve">ScreeningMapper</text></g><g><path fill="white" stroke="black" paint-order="fill stroke markers" d=" M 1449.1599515144583 48.10089094800001 L 1449.1599515144583 19.074491238000007 L 1489.5204692064583 19.074491238000007 L 1489.5204692064583 48.10089094800001" stroke-miterlimit="10" stroke-width="2.3497561670000002" stroke-dasharray=""/><path fill="white" stroke="black" paint-order="fill stroke markers" d=" M 1489.5204692064583 18.065478295700007 L 1489.5194602019244 18.15670260293715 L 1489.5164332892223 18.247917787819585 L 1489.5113887710409 18.339114728904843 L 1489.5043271518277 18.430284306574812 L 1489.4952491377387 18.521417403947694 L 1489.4841556365677 18.612504907789702 L 1489.4710477576557 18.703537709426353 L 1489.4559268117796 18.794506705653347 L 1489.4387943110214 18.885402799646865 L 1489.419651968617 18.976216901873258 L 1489.3985016987845 19.066939930997982 L 1489.3753456165334 19.15756281479372 L 1489.3501860374527 19.248076491047623 L 1489.323025477479 19.338471908467483 L 1489.293866652646 19.42874002758689 L 1489.2627124788119 19.518871821669155 L 1489.2295660713678 19.608858277609983 L 1489.194430744927 19.698690396838764 L 1489.157310012993 19.788359196218437 L 1489.118207587608 19.877855708943788 L 1489.0771273789817 19.967170985438123 L 1489.034073495101 20.05629609424822 L 1488.9890502413184 20.145222122937476 L 1488.9420621199217 20.23394017897712 L 1488.893113829684 20.322441390635486 L 1488.842210265393 20.41071690786515 L 1488.7893565173633 20.498757903187958 L 1488.7345578709255 20.586555572577744 L 1488.6778198058987 20.674101136340735 L 1488.6191479960419 20.7613858399935 L 1488.5585483084872 20.848400955138427 L 1488.496026803153 20.935137780336497 L 1488.4315897321376 21.021587641977483 L 1488.3652435390945 21.107741895147257 L 1488.2969948585876 21.193591924492296 L 1488.2268505154282 21.279129145081207 L 1488.154817523992 21.364345003263217 L 1488.0809030875184 21.449230977523516 L 1488.0051145973894 21.533778579335415 L 1487.9274596323905 21.617979354009194 L 1487.847945957954 21.701824881537547 L 1487.7665815253806 21.785306777437597 L 1487.683374471046 21.868416693589317 L 1487.5983331155862 21.951146319070357 L 1487.511465963066 22.033487380987104 L 1487.422781700128 22.115431645301985 L 1487.3322891951252 22.196970917656856 L 1487.239997497232 22.278097044192428 L 1487.1459158355417 22.35880191236366 L 1487.0500536181419 22.43907745175098 L 1486.9524204311745 22.518915634867348 L 1486.8530260378766 22.598308477960988 L 1486.7518803776052 22.677248041813744 L 1486.6489935648415 22.75572643253502 L 1486.5443758881815 22.83373580235114 L 1486.4380378093056 22.911268350390124 L 1486.3299899619326 22.988316323461788 L 1486.2202431507578 23.06487201683303 L 1486.1088083503705 23.140927774998303 L 1485.9956967041583 23.216475992445172 L 1485.8809195231909 23.291509114414854 L 1485.7644882850911 23.366019637657672 L 1485.646414632886 23.4400001111834 L 1485.5267103738418 23.51344313700633 L 1485.405387478285 23.586341370885087 L 1485.2824580784043 23.658687523057033 L 1485.1579344670367 23.73047435896723 L 1485.0318290964399 23.801694699991916 L 1484.9041545770458 23.872341424156335 L 1484.7749236762002 23.942407466846948 L 1484.644149316885 24.011885821517872 L 1484.5118445764274 24.080769540391536 L 1484.3780226851911 24.149051735153456 L 1484.2426970252538 24.216725577641057 L 1484.1058811290688 24.283784300526488 L 1483.9675886781117 24.350221197993342 L 1483.8278335015123 24.416029626407234 L 1483.6866295746718 24.481203004980163 L 1483.543991017865 24.54573481642858 L 1483.399932094829 24.609618607625126 L 1483.2544672113359 24.67284799024391 L 1483.107610913753 24.73541664139936 L 1482.9593778875874 24.797318304278505 L 1482.8097829560186 24.858546788766642 L 1482.6588410784145 24.919095972066344 L 1482.5065673488377 24.978959799309735 L 1482.352976994534 25.038132284163982 L 1482.1980853744108 25.09660750942991 L 1482.0419079775008 25.154379627633716 L 1481.8844604214141 25.21144286161173 L 1481.7257584507747 25.267791505088102 L 1481.5658179356476 25.323419923245446 L 1481.404654869951 25.378322553288296 L 1481.242285369857 25.432493904999404 L 1481.0787256721803 25.48592856128874 L 1480.9139921327549 25.53862117873521 L 1480.7481012247968 25.59056648812097 L 1480.5810695372586 25.641759294958376 L 1480.4129137731704 25.692194480009405 L 1480.243650747968 25.741866999797576 L 1480.073297387813 25.790771887112307 L 1479.9018707278997 25.838904251505618 L 1479.7293879107508 25.886259279781186 L 1479.5558661845043 25.932832236475637 L 1479.3813229011887 25.978618464332122 L 1479.2057755149867 26.023613384766 L 1479.0292415804902 26.06781249832273 L 1478.8517387509462 26.11121138512779 L 1478.673284776489 26.153805705328658 L 1478.493897502368 26.195591199528817 L 1478.3135948671609 26.236563689213664 L 1478.132394900981 26.276719077168373 L 1477.9503157236734 26.316053347887618 L 1477.7673755430048 26.354562567977098 L 1477.5835926528407 26.392242886546896 L 1477.3989854313168 26.429090535596558 L 1477.2135723390013 26.46510183039188 L 1477.027371917049 26.5002731698334 L 1476.8404027853471 26.534601036816476 L 1476.6526836406529 26.568081998583022 L 1476.4642332547244 26.60071270706476 L 1476.2750704724428 26.63248989921803 L 1476.0852142099295 26.663410397350102 L 1475.8946834526519 26.693471109436928 L 1475.703497253527 26.722669029432353 L 1475.5116747310155 26.7510012375687 L 1475.31923506721 26.77846490064878 L 1475.1261975059163 26.805057272329158 L 1474.9325813507296 26.830775693394834 L 1474.7384059631042 26.855617592025126 L 1474.5436907604171 26.879580484050884 L 1474.3484552140262 26.90266197320286 L 1474.1527188473233 26.924859751351384 L 1473.9565012337823 26.946171598737138 L 1473.7598219950007 26.96659538419314 L 1473.562700798739 26.986129065357865 L 1473.3651573569518 27.00477068887948 L 1473.1672114238193 27.022518390611154 L 1472.9688827937694 27.03937039579752 L 1472.7701912995003 27.055325019252088 L 1472.5711568099955 27.070380665525818 L 1472.371799228538 27.084535829066628 L 1472.1721384907203 27.097789094369954 L 1471.9721945624494 27.110139136120317 L 1471.7719874379516 27.121584719323828 L 1471.5715371377726 27.132124699431706 L 1471.370863706775 27.141758022454724 L 1471.1699872121353 27.15048372506861 L 1470.9689277413352 27.15830093471037 L 1470.7677054001542 27.165208869665555 L 1470.566340310659 27.17120683914643 L 1470.3648526091902 27.176294243361042 L 1470.1632624443505 27.180470573573206 L 1469.9615899749886 27.18373541215339 L 1469.7598553681826 27.186088432620444 L 1469.5580787972258 27.18752939967429 L 1469.3562804396067 27.188058169219428 L 1469.1544804749933 27.187674688379335 L 1468.9526990832137 27.186378995501777 L 1468.7509564422387 27.184171220154965 L 1468.5492727261646 27.181051583114595 L 1468.3476681031948 27.17702039634177 L 1468.1461627336234 27.172078062951805 L 1467.94477676782 27.166225077173927 L 1467.7435303442128 27.159462024301828 L 1467.5424435872767 27.15178958063516 L 1467.3415366055199 27.143208513411906 L 1467.1408294894727 27.13371968073163 L 1466.94034230968 27.12332403146969 L 1466.7400951146926 27.112022605182354 L 1466.540107929063 27.099816532002833 L 1466.340400751343 27.086707032528267 L 1466.1409935520842 27.072695417697688 L 1465.94190627184 27.057783088660898 L 1465.743158819173 27.041971536638375 L 1465.5447710686626 27.025262342772145 L 1465.3467628589183 27.007657177967666 L 1465.1491539905965 26.98915780272675 L 1464.951964224419 26.96976606697151 L 1464.7552132791984 26.94948390985936 L 1464.558920829865 26.928313359589104 L 1464.3631065055004 26.906256533198132 L 1464.1677898873736 26.883315636350694 L 1463.9729905069837 26.859492963117372 L 1463.7787278441065 26.834790895745627 L 1463.5850213248466 26.809211904421616 L 1463.391890319694 26.78275854702315 L 1463.1993541415889 26.755433468863927 L 1463.007432043988 26.727239402428996 L 1462.8161432189415 26.6981791671015 L 1462.6255067951724 26.668255668880757 L 1462.4355418361645 26.637471900091654 L 1462.2462673382552 26.605830939085415 L 1462.0577022287362 26.573335949931778 L 1461.8698653639617 26.53999018210257 L 1461.682775527462 26.505796970146797 L 1461.496451428064 26.470759733357152 L 1461.310911698023 26.43488197542812 L 1461.1261748911568 26.398167284105593 L 1460.9422594809928 26.360619330828115 L 1460.7591838589185 26.32224187035971 L 1460.5769663323435 26.28303874041446 L 1460.3956251228688 26.243013861272683 L 1460.2151783644638 26.20217123538894 L 1460.0356441016543 26.160514946991775 L 1459.857040287717 26.11804916167533 L 1459.6793847828842 26.07477812598274 L 1459.5026953525587 26.03070616698151 L 1459.3269896655358 25.985837691830824 L 1459.1522852922383 25.940177187340804 L 1458.9785997029578 25.893729219523845 L 1458.8059502661083 25.846498433138024 L 1458.6343542464897 25.798489551222623 L 1458.4638288035608 25.74970737462582 L 1458.2943909897242 25.700156781524633 L 1458.1260577486198 25.64984272693707 L 1457.9588459134313 25.59877024222667 L 1457.7927722052034 25.546944434599336 L 1457.627853231168 25.49437048659265 L 1457.4641054830852 25.441053655557596 L 1457.3015453355936 25.386999273132844 L 1457.1401890445723 25.3322127447116 L 1456.9800527455156 25.27669954890105 L 1456.8211524519206 25.220465236974505 L 1456.663504053684 25.163515432316306 L 1456.507123315514 25.105855829859454 L 1456.3520258753545 25.04749219551615 L 1456.1982272428197 24.98843036560119 L 1456.0457427976453 24.928676246248344 L 1455.8945877881486 24.86823581281976 L 1455.7447773297042 24.807115109308405 L 1455.5963264032337 24.74532024773371 L 1455.4492498537054 24.68285740753032 L 1455.3035623886522 24.61973283493021 L 1455.159278576699 24.555952842338044 L 1455.0164128461067 24.49152380769992 L 1454.8749794833295 24.42645217386562 L 1454.7349926315856 24.360744447944292 L 1454.5964662894437 24.294407200653783 L 1454.4594143094223 24.227447065663533 L 1454.3238503966056 24.159870738931243 L 1454.1897881072716 24.09168497803327 L 1454.0572408475375 24.022896601488892 L 1453.9262218720191 23.95351248807843 L 1453.7967442825045 23.883539576155414 L 1453.668821026645 23.812984862952717 L 1453.5424648966593 23.741855403882866 L 1453.4176885280551 23.6701583118325 L 1453.2945043983657 23.597900756451068 L 1453.172924825901 23.5250899634339 L 1453.0529619685171 23.451733213799617 L 1452.9346278223995 23.377837843162055 L 1452.8179342208648 23.303411240996702 L 1452.7028928331754 23.228460849901744 L 1452.5895151633742 23.15299416485384 L 1452.477812549134 23.077018732458605 L 1452.367796160623 23.00054215019596 L 1452.2594769993882 22.923572065660405 L 1452.1528658972557 22.846116175796254 L 1452.047973515247 22.768182226127944 L 1451.9448103425123 22.6897780099855 L 1451.8433866952835 22.610911367725194 L 1451.7437127158403 22.53159018594554 L 1451.6457983714981 22.451822396698603 L 1451.5496534536096 22.37161597669684 L 1451.4552875765862 22.29097894651542 L 1451.362710176937 22.209919369790153 L 1451.2719305123253 22.128445352411166 L 1451.1829576606413 22.046565041712302 L 1451.0958005190964 21.9642866256564 L 1451.010467803332 21.881618332016497 L 1450.9269680465486 21.79856842755307 L 1450.8453095986522 21.715145217187356 L 1450.7655006254197 21.631357043170873 L 1450.687549107682 21.547212284251195 L 1450.6114628405253 21.4627193548341 L 1450.5372494325136 21.377886704142114 L 1450.4649163049255 21.29272281536962 L 1450.3944706910138 21.207236204834516 L 1450.3259196352808 21.12143542112662 L 1450.2592699927752 21.03532904425281 L 1450.1945284284056 20.948925684779006 L 1450.1317014162746 20.862233982969162 L 1450.070795239031 20.77526260792121 L 1450.0118159872418 20.688020256700185 L 1449.9547695587828 20.600515653468506 L 1449.8996616582497 20.51275754861357 L 1449.846497796386 20.424754717872737 L 1449.7952832895344 20.336515961455746 L 1449.7460232591025 20.2480501031647 L 1449.698722631052 20.159365989511716 L 1449.653386135407 20.07047248883425 L 1449.6100183057786 19.98137849040829 L 1449.5686234789139 19.89209290355944 L 1449.529205794261 19.80262465677198 L 1449.491769193556 19.712982696796026 L 1449.456317420427 19.62317598775288 L 1449.4228540200222 19.533213510238607 L 1449.3913823386538 19.443104260425986 L 1449.3619055234635 19.352857249164913 L 1449.3344265221085 19.262481501081304 L 1449.3089480824658 19.171986053674658 L 1449.2854727523584 19.0813799564143 L 1449.2640028792994 18.99067226983445 L 1449.2445406102586 18.899872064628184 L 1449.2270878914462 18.80898842074035 L 1449.21164646812 18.7180304264596 L 1449.1982178844094 18.627007177509565 L 1449.1868034831612 18.53592777613929 L 1449.1774044058063 18.44480133021301 L 1449.170021592245 18.35363695229938 L 1449.1646557807517 18.26244375876022 L 1449.1613075079035 18.171230868838894 L 1449.1599771085248 18.08000740374838 L 1449.1606647156545 17.98878248575917 L 1449.1633702605327 17.89756523728704 L 1449.1680934726066 17.80636477998082 L 1449.1748338795594 17.71519023381025 L 1449.183590807356 17.624050716153963 L 1449.1943633803105 17.532955340887774 L 1449.2071505211752 17.4419132174733 L 1449.221950951246 17.350933450047012 L 1449.2387631904928 17.26002513650984 L 1449.2575855577054 17.16919736761737 L 1449.2784161706627 17.07845922607082 L 1449.3012529463208 16.987819785608714 L 1449.3260936010215 16.897288110099574 L 1449.3529356507197 16.8068732526355 L 1449.3817764112327 16.716584254626905 L 1449.4126129985088 16.62643014489834 L 1449.4454423289149 16.536419938785652 L 1449.480261119545 16.446562637234447 L 1449.5170658885493 16.356867225899993 L 1449.5558529554817 16.26734267424868 L 1449.5966184416677 16.177997934661075 L 1449.6393582705925 16.08884194153668 L 1449.684068168309 15.999883610400506 L 1449.7307436638648 15.911131837011538 L 1449.779380089749 15.82259549647316 L 1449.8299725823597 15.734283442345639 L 1449.8825160824897 15.6462045057608 L 1449.9370053358327 15.558367494538897 L 1449.993434893509 15.47078119230786 L 1450.0517991126096 15.383454357624922 L 1450.1120921567615 15.296395723100778 L 1450.1743079967102 15.209613994526332 L 1450.2384404109239 15.123117850002128 L 1450.3044829862145 15.036915939070532 L 1450.3724291183794 14.951016881850805 L 1450.442272012862 14.865429268177088 L 1450.5140046854312 14.780161656739425 L 1450.5876199628797 14.695222574227904 L 1450.6631104837406 14.610620514479992 L 1450.7404686990249 14.526363937631164 L 1450.8196868729758 14.44246126926889 L 1450.9007570838417 14.358920899590089 L 1450.9836712246688 14.27575118256211 L 1451.0684210041127 14.19296043508735 L 1451.1549979472659 14.110556936171564 L 1451.2433933965058 14.028548926095976 L 1451.3335985123617 13.946944605593249 L 1451.4256042743968 13.865752135027433 L 1451.5194014821118 13.784979633577926 L 1451.614980755864 13.704635178427559 L 1451.7123325378059 13.624726803954896 L 1451.81144709284 13.545262500930793 L 1451.9123145095934 13.466250215719334 L 1452.014924701409 13.387697849483194 L 1452.1192674073527 13.30961325739354 L 1452.225332193241 13.23200424784451 L 1452.3331084526837 13.154878581672381 L 1452.4425854081446 13.078243971379504 L 1452.5537521120195 13.002108080363044 L 1452.6665974477305 12.926478522148656 L 1452.7811101308382 12.851362859629138 L 1452.8972787101695 12.776768604308145 L 1453.0150915689635 12.702703215549048 L 1453.1345369260325 12.629174099829003 L 1453.2556028369402 12.556188609998305 L 1453.3782771951965 12.483754044545117 L 1453.5025477334677 12.411877646865625 L 1453.6284020248038 12.340566604539697 L 1453.75582748388 12.26982804861214 L 1453.8848113682573 12.199669052879603 L 1454.015340779654 12.130096633183188 L 1454.1474026652384 12.06111774670689 L 1454.2809838189314 11.992739291281874 L 1454.4160708827294 11.924968104696699 L 1454.5526503480385 11.857810964013552 L 1454.6907085570258 11.791274584890534 L 1454.8302317039854 11.725365620910111 L 1454.9712058367193 11.660090662913756 L 1455.1136168579314 11.595456238342878 L 1455.2574505266382 11.531468810586066 L 1455.4026924595928 11.468134778332775 L 1455.549328132723 11.405460474933456 L 1455.6973428825836 11.343452167766216 L 1455.846721907823 11.282116057610097 L 1455.9974502706632 11.221458278025008 L 1456.1495128983934 11.16148489473835 L 1456.3028945848773 11.10220190503848 L 1456.4575799920747 11.043615237174969 L 1456.6135536515733 10.985730749765775 L 1456.7707999661375 10.928554231211407 L 1456.9293032112664 10.87209139911607 L 1457.0890475367678 10.816347899715922 L 1457.2500169683426 10.76132930731445 L 1457.412195409181 10.707041123725045 L 1457.575566641575 10.653488777720831 L 1457.740114328537 10.600677624491773 L 1457.9058220154352 10.548612945109191 L 1458.0726731316395 10.497299945997636 L 1458.240650992177 10.446743758414254 L 1458.4097387994018 10.396949437935678 L 1458.5799196446742 10.347921963952459 L 1458.751176510051 10.299666239171138 L 1458.9234922699886 10.252187089123984 L 1459.096849693055 10.20548926168643 L 1459.271231443652 10.159577426602311 L 1459.4466200837496 10.114456175016873 L 1459.6229980746305 10.070130019017672 L 1459.8003477786422 10.026603391183372 L 1459.9786514609623 9.983880644140482 L 1460.157891291371 9.941966050128107 L 1460.3380493460347 9.900863800570718 L 1460.519107609298 9.86057800565902 L 1460.7010479754858 9.82111269393893 L 1460.8838522507126 9.782471811908737 L 1461.0675021547036 9.744659223624438 L 1461.251979322621 9.707678710313356 L 1461.4372653069022 9.671533969996 L 1461.623341579103 9.636228617116288 L 1461.8101895317511 9.60176618218008 L 1461.9977904802072 9.568150111402154 L 1462.1861256645327 9.535383766361576 L 1462.375176251366 9.503470423665544 L 1462.564923335806 9.472413274621731 L 1462.7553479433025 9.442215424919162 L 1462.9464310315532 9.412879894317644 L 1463.1381534924087 9.384409616345788 L 1463.3304961537829 9.35680743800767 L 1463.5234397815693 9.330076119498116 L 1463.7169650815665 9.304218333926707 L 1463.9110527014057 9.27923666705045 L 1464.1056832324862 9.255133617015213 L 1464.3008372119177 9.231911594105915 L 1464.4964951244644 9.209572920505497 L 1464.6926374044983 9.1881198300627 L 1464.8892444379549 9.167554468068694 L 1465.0862965642946 9.147878891042538 L 1465.2837740784692 9.129095066525542 L 1465.4816572328914 9.1112048728845 L 1465.6799262394109 9.09421009912387 L 1465.8785612712923 9.078112444706866 L 1466.077542465198 9.062913519385516 L 1466.2768499231743 9.048614843039683 L 1466.4764637146416 9.03521784552509 L 1466.6763638783868 9.022723866530322 L 1466.8765304245605 9.011134155442866 L 1467.0769433366747 9.000449871224175 L 1467.2775825736053 8.990672082293766 L 1467.4784280715958 8.981801766422386 L 1467.6794597462635 8.973839810634226 L 1467.8806574946088 8.966787011118234 L 1468.0820011970245 8.960644073148481 L 1468.2834707193078 8.955411611013648 L 1468.4850459146749 8.951090147955588 L 1468.6867066257737 8.947680116117002 L 1468.8884326867014 8.945181856498236 L 1469.09020392502 8.943595618923167 L 1469.292000163774 8.942921562014233 L 1469.4938012235073 8.94315975317656 L 1469.6955869242822 8.944310168591237 L 1469.897337087697 8.946372693217674 L 1470.0990315389033 8.949347120805129 L 1470.3006501086243 8.953233153913324 L 1470.5021726351706 8.958030403942185 L 1470.7035789664578 8.963738391170708 L 1470.9048489620207 8.970356544804925 L 1471.105962495027 8.97788420303499 L 1471.3068994542914 8.98632061310135 L 1471.5076397462853 8.99566493137003 L 1471.708163297147 9.00591622341699 L 1471.9084500546883 9.017073464121571 L 1472.1084799904002 9.029135537768996 L 1472.308233101456 9.042101238161953 L 1472.5076894127112 9.055969268741208 L 1472.7068289787005 9.070738242715262 L 1472.9056318856337 9.086406683199021 L 1473.1040782533855 9.102973023361494 L 1473.3021482374845 9.120435606582474 L 1473.4998220310974 9.138792686618187 L 1473.6970798670095 9.158042427775927 L 1473.893902019602 9.178182905097621 L 1474.090268806823 9.199212104552322 L 1474.2861605921578 9.221127923237606 L 1474.4815577865909 9.243928169589871 L 1474.676440850566 9.267610563603478 L 1474.8707902959388 9.292172737058763 L 1475.064586687927 9.317612233758847 L 1475.2578106470528 9.343926509775264 L 1475.450442851081 9.371112933702335 L 1475.6424640369523 9.399168786920328 L 1475.8338550027077 9.428091263867296 L 1476.02459660941 9.45787747231965 L 1476.214669783058 9.488524433681365 L 1476.4040555164922 9.520029083281843 L 1476.5927348712976 9.55238827068238 L 1476.7806889796955 9.585598759991202 L 1476.9678990464317 9.619657230187048 L 1477.154346350656 9.654560275451288 L 1477.3400122477929 9.690304405508478 L 1477.5248781714074 9.726886045975398 L 1477.7089256350616 9.764301538718486 L 1477.892136234162 9.802547142219648 L 1478.0744916478018 9.841619031950406 L 1478.2559736405913 9.881513300754346 L 1478.4365640644826 9.92222595923783 L 1478.616244860584 9.963752936168941 L 1478.794998060965 10.00609007888459 L 1478.9728057904551 10.049233153705785 L 1479.1496502684292 10.093177846360998 L 1479.3255138105872 10.137919762417582 L 1479.5003788307213 10.18345442772122 L 1479.674227842475 10.229777288843323 L 1479.847043461092 10.276883713536382 L 1480.018808405155 10.324768991197185 L 1480.189505498312 10.373428333337866 L 1480.3591176709963 10.422856874064767 L 1480.527627962132 10.473049670564997 L 1480.6950195208303 10.52400170360074 L 1480.861275608075 10.575707878011151 L 1481.0263795983958 10.628163023221877 L 1481.1903149815312 10.681361893762105 L 1481.3530653640794 10.73529916978912 L 1481.514614471138 10.789969457620263 L 1481.674946147931 10.84536729027231 L 1481.834044361424 10.90148712800816 L 1481.9918932019284 10.958323358890807 L 1482.1484768846917 11.015870299344526 L 1482.3037797514762 11.074122194723225 L 1482.4577862721244 11.133073219885913 L 1482.6104810461127 11.192717479779198 L 1482.761848804091 11.253049010026789 L 1482.9118744094096 11.314061777525946 L 1483.0605428596332 11.375749681050758 L 1483.20783928804 11.43810655186228 L 1483.3537489651108 11.501126154325393 L 1483.4982572999988 11.564802186532368 L 1483.6413498419913 11.629128280933049 L 1483.7830122819532 11.6940980049716 L 1483.9232304537584 11.759704861729757 L 1484.061990335707 11.825942290576517 L 1484.199278051926 11.892803667824193 L 1484.3350798737586 11.96028230739078 L 1484.4693822211352 12.02837146146855 L 1484.6021716639336 12.097064321198838 L 1484.73343492332 12.166354017352914 L 1484.8631588730775 12.236233621018904 L 1484.9913305409195 12.306696144294676 L 1485.1179371097862 12.377734540986618 L 1485.242965919126 12.449341707314261 L 1485.366404466162 12.521510482620645 L 1485.4882404071427 12.594233650088377 L 1485.6084615585753 12.667503937461316 L 1485.7270558984449 12.741314017771781 L 1485.8440115674164 12.815656510073252 L 1485.9593168700203 12.890523980178447 L 1486.0729602758227 12.965908941402748 L 1486.184930420577 13.04180385531285 L 1486.2952161073629 13.11820113248061 L 1486.4038063077032 13.195093133241976 L 1486.5106901626682 13.272472168460947 L 1486.6158569839617 13.350330500298481 L 1486.7192962549893 13.42866034298628 L 1486.82099763191 13.507453863605349 L 1486.9209509446707 13.586703182869286 L 1487.0191461980237 13.666400375912204 L 1487.1155735725251 13.746537473081217 L 1487.2102234255183 13.827106460733386 L 1487.3030862920964 13.908099282037085 L 1487.3941528860505 13.989507837777682 L 1487.4834141007968 14.071323987167439 L 1487.5708610102886 14.1535395486596 L 1487.6564848699074 14.236146300766524 L 1487.7402771173388 14.319135982881845 L 1487.8222293734277 14.402500296106505 L 1487.9023334430171 14.486230904078653 L 1487.9805813157666 14.570319433807267 L 1488.0569651669541 14.654757476509447 L 1488.1314773582583 14.739536588451287 L 1488.204110438522 14.824648291792245 L 1488.274857144498 14.910084075432911 L 1488.343710401574 14.995835395866116 L 1488.4106633244824 15.081893678031278 L 1488.4757092179862 15.168250316171896 L 1488.5388415775506 15.254896674696116 L 1488.6000540899918 15.341824089040294 L 1488.65934063411 15.429023866535433 L 1488.7166952813002 15.516487287276451 L 1488.7721122961452 15.604205604994158 L 1488.8255861369898 15.692170047929883 L 1488.8771114564947 15.780371819712634 L 1488.9266831021707 15.868802100238737 L 1488.9742961168943 15.957452046553826 L 1489.0199457394042 16.046312793737147 L 1489.0636274047756 16.135375455788033 L 1489.105336744879 16.2246311265145 L 1489.1450695888147 16.314070880423845 L 1489.1828219633314 16.40368577361522 L 1489.2185900932236 16.49346684467398 L 1489.2523704017076 16.583405115567835 L 1489.284159510781 16.67349159254465 L 1489.313954241559 16.763717267031794 L 1489.341751614594 16.85407311653701 L 1489.3675488501713 16.944550105550636 L 1489.3913433685889 17.03513918644918 L 1489.4131327904151 17.12583130040003 L 1489.4329149367256 17.216617378267376 L 1489.4506878293223 17.307488341519083 L 1489.4664496909309 17.398435103134553 L 1489.480198945378 17.48944856851341 L 1489.4919342177502 17.580519636384963 L 1489.5016543345296 17.67163919971832 L 1489.5093583237128 17.762798146633074 L 1489.515045414907 17.8539873613105 L 1489.5187150394083 17.945197724905128 L 1489.520366830257 18.0364201164566 M 1489.5204692064583 47.09187800570001 L 1489.5194602019244 47.18310231293715 L 1489.5164332892223 47.27431749781959 L 1489.5113887710409 47.365514438904846 L 1489.5043271518277 47.45668401657481 L 1489.4952491377387 47.547817113947694 L 1489.4841556365677 47.638904617789706 L 1489.4710477576557 47.729937419426356 L 1489.4559268117796 47.82090641565335 L 1489.4387943110214 47.91180250964687 L 1489.419651968617 48.002616611873265 L 1489.3985016987845 48.09333964099798 L 1489.3753456165334 48.18396252479373 L 1489.3501860374527 48.27447620104763 L 1489.323025477479 48.36487161846748 L 1489.293866652646 48.45513973758689 L 1489.2627124788119 48.54527153166916 L 1489.2295660713678 48.63525798760998 L 1489.194430744927 48.72509010683876 L 1489.157310012993 48.81475890621844 L 1489.118207587608 48.90425541894379 L 1489.0771273789817 48.99357069543812 L 1489.034073495101 49.082695804248225 L 1488.9890502413184 49.17162183293748 L 1488.9420621199217 49.26033988897713 L 1488.893113829684 49.34884110063549 L 1488.842210265393 49.43711661786516 L 1488.7893565173633 49.525157613187965 L 1488.7345578709255 49.61295528257775 L 1488.6778198058987 49.70050084634074 L 1488.6191479960419 49.78778554999351 L 1488.5585483084872 49.87480066513843 L 1488.496026803153 49.961537490336504 L 1488.4315897321376 50.04798735197749 L 1488.3652435390945 50.134141605147256 L 1488.2969948585876 50.2199916344923 L 1488.2268505154282 50.305528855081214 L 1488.154817523992 50.39074471326322 L 1488.0809030875184 50.47563068752352 L 1488.0051145973894 50.56017828933542 L 1487.9274596323905 50.64437906400919 L 1487.847945957954 50.72822459153755 L 1487.7665815253806 50.8117064874376 L 1487.683374471046 50.894816403589324 L 1487.5983331155862 50.97754602907036 L 1487.511465963066 51.059887090987104 L 1487.422781700128 51.14183135530199 L 1487.3322891951252 51.22337062765686 L 1487.239997497232 51.304496754192435 L 1487.1459158355417 51.38520162236367 L 1487.0500536181419 51.46547716175098 L 1486.9524204311745 51.545315344867355 L 1486.8530260378766 51.62470818796099 L 1486.7518803776052 51.70364775181375 L 1486.6489935648415 51.78212614253502 L 1486.5443758881815 51.86013551235114 L 1486.4380378093056 51.93766806039013 L 1486.3299899619326 52.014716033461795 L 1486.2202431507578 52.09127172683303 L 1486.1088083503705 52.1673274849983 L 1485.9956967041583 52.242875702445176 L 1485.8809195231909 52.31790882441486 L 1485.7644882850911 52.39241934765768 L 1485.646414632886 52.4663998211834 L 1485.5267103738418 52.539842847006334 L 1485.405387478285 52.612741080885094 L 1485.2824580784043 52.68508723305703 L 1485.1579344670367 52.756874068967235 L 1485.0318290964399 52.82809440999192 L 1484.9041545770458 52.89874113415634 L 1484.7749236762002 52.96880717684695 L 1484.644149316885 53.03828553151787 L 1484.5118445764274 53.107169250391536 L 1484.3780226851911 53.175451445153456 L 1484.2426970252538 53.243125287641064 L 1484.1058811290688 53.31018401052649 L 1483.9675886781117 53.37662090799334 L 1483.8278335015123 53.44242933640724 L 1483.6866295746718 53.507602714980166 L 1483.543991017865 53.572134526428584 L 1483.399932094829 53.63601831762513 L 1483.2544672113359 53.699247700243916 L 1483.107610913753 53.76181635139937 L 1482.9593778875874 53.82371801427851 L 1482.8097829560186 53.884946498766645 L 1482.6588410784145 53.945495682066344 L 1482.5065673488377 54.00535950930974 L 1482.352976994534 54.064531994163985 L 1482.1980853744108 54.123007219429915 L 1482.0419079775008 54.18077933763372 L 1481.8844604214141 54.237842571611736 L 1481.7257584507747 54.294191215088105 L 1481.5658179356476 54.349819633245446 L 1481.404654869951 54.4047222632883 L 1481.242285369857 54.45889361499941 L 1481.0787256721803 54.512328271288744 L 1480.9139921327549 54.56502088873521 L 1480.7481012247968 54.61696619812098 L 1480.5810695372586 54.66815900495838 L 1480.4129137731704 54.718594190009405 L 1480.243650747968 54.76826670979758 L 1480.073297387813 54.817171597112306 L 1479.9018707278997 54.865303961505624 L 1479.7293879107508 54.912658989781185 L 1479.5558661845043 54.95923194647564 L 1479.3813229011887 55.00501817433212 L 1479.2057755149867 55.050013094766 L 1479.0292415804902 55.09421220832273 L 1478.8517387509462 55.137611095127795 L 1478.673284776489 55.180205415328665 L 1478.493897502368 55.22199090952882 L 1478.3135948671609 55.26296339921367 L 1478.132394900981 55.30311878716838 L 1477.9503157236734 55.342453057887624 L 1477.7673755430048 55.3809622779771 L 1477.5835926528407 55.418642596546896 L 1477.3989854313168 55.45549024559656 L 1477.2135723390013 55.49150154039188 L 1477.027371917049 55.5266728798334 L 1476.8404027853471 55.56100074681648 L 1476.6526836406529 55.594481708583025 L 1476.4642332547244 55.627112417064765 L 1476.2750704724428 55.658889609218036 L 1476.0852142099295 55.689810107350105 L 1475.8946834526519 55.719870819436935 L 1475.703497253527 55.74906873943235 L 1475.5116747310155 55.77740094756871 L 1475.31923506721 55.80486461064878 L 1475.1261975059163 55.83145698232916 L 1474.9325813507296 55.857175403394834 L 1474.7384059631042 55.88201730202513 L 1474.5436907604171 55.90598019405088 L 1474.3484552140262 55.92906168320286 L 1474.1527188473233 55.95125946135139 L 1473.9565012337823 55.972571308737145 L 1473.7598219950007 55.99299509419315 L 1473.562700798739 56.01252877535787 L 1473.3651573569518 56.03117039887948 L 1473.1672114238193 56.04891810061116 L 1472.9688827937694 56.065770105797526 L 1472.7701912995003 56.081724729252095 L 1472.5711568099955 56.096780375525825 L 1472.371799228538 56.11093553906663 L 1472.1721384907203 56.12418880436996 L 1471.9721945624494 56.13653884612032 L 1471.7719874379516 56.14798442932383 L 1471.5715371377726 56.158524409431706 L 1471.370863706775 56.16815773245473 L 1471.1699872121353 56.17688343506861 L 1470.9689277413352 56.184700644710375 L 1470.7677054001542 56.19160857966556 L 1470.566340310659 56.197606549146435 L 1470.3648526091902 56.20269395336105 L 1470.1632624443505 56.20687028357321 L 1469.9615899749886 56.21013512215339 L 1469.7598553681826 56.212488142620444 L 1469.5580787972258 56.2139291096743 L 1469.3562804396067 56.21445787921943 L 1469.1544804749933 56.21407439837934 L 1468.9526990832137 56.21277870550178 L 1468.7509564422387 56.21057093015497 L 1468.5492727261646 56.2074512931146 L 1468.3476681031948 56.203420106341774 L 1468.1461627336234 56.19847777295181 L 1467.94477676782 56.192624787173926 L 1467.7435303442128 56.18586173430183 L 1467.5424435872767 56.17818929063517 L 1467.3415366055199 56.16960822341191 L 1467.1408294894727 56.16011939073163 L 1466.94034230968 56.14972374146969 L 1466.7400951146926 56.13842231518235 L 1466.540107929063 56.12621624200283 L 1466.340400751343 56.113106742528274 L 1466.1409935520842 56.099095127697694 L 1465.94190627184 56.084182798660905 L 1465.743158819173 56.06837124663838 L 1465.5447710686626 56.051662052772144 L 1465.3467628589183 56.034056887967665 L 1465.1491539905965 56.01555751272676 L 1464.951964224419 55.996165776971516 L 1464.7552132791984 55.97588361985936 L 1464.558920829865 55.954713069589104 L 1464.3631065055004 55.93265624319813 L 1464.1677898873736 55.9097153463507 L 1463.9729905069837 55.885892673117375 L 1463.7787278441065 55.861190605745634 L 1463.5850213248466 55.835611614421616 L 1463.391890319694 55.80915825702316 L 1463.1993541415889 55.781833178863934 L 1463.007432043988 55.753639112429 L 1462.8161432189415 55.72457887710151 L 1462.6255067951724 55.69465537888076 L 1462.4355418361645 55.66387161009166 L 1462.2462673382552 55.63223064908542 L 1462.0577022287362 55.59973565993178 L 1461.8698653639617 55.56638989210258 L 1461.682775527462 55.5321966801468 L 1461.496451428064 55.497159443357155 L 1461.310911698023 55.46128168542812 L 1461.1261748911568 55.4245669941056 L 1460.9422594809928 55.387019040828115 L 1460.7591838589185 55.34864158035972 L 1460.5769663323435 55.30943845041446 L 1460.3956251228688 55.269413571272686 L 1460.2151783644638 55.22857094538894 L 1460.0356441016543 55.18691465699178 L 1459.857040287717 55.14444887167533 L 1459.6793847828842 55.10117783598274 L 1459.5026953525587 55.05710587698152 L 1459.3269896655358 55.01223740183083 L 1459.1522852922383 54.96657689734081 L 1458.9785997029578 54.92012892952385 L 1458.8059502661083 54.87289814313803 L 1458.6343542464897 54.82488926122262 L 1458.4638288035608 54.77610708462583 L 1458.2943909897242 54.72655649152463 L 1458.1260577486198 54.67624243693707 L 1457.9588459134313 54.62516995222667 L 1457.7927722052034 54.57334414459934 L 1457.627853231168 54.52077019659265 L 1457.4641054830852 54.467453365557596 L 1457.3015453355936 54.41339898313285 L 1457.1401890445723 54.358612454711604 L 1456.9800527455156 54.30309925890105 L 1456.8211524519206 54.24686494697451 L 1456.663504053684 54.18991514231631 L 1456.507123315514 54.13225553985946 L 1456.3520258753545 54.073891905516156 L 1456.1982272428197 54.014830075601196 L 1456.0457427976453 53.95507595624835 L 1455.8945877881486 53.89463552281976 L 1455.7447773297042 53.83351481930841 L 1455.5963264032337 53.77171995773371 L 1455.4492498537054 53.70925711753032 L 1455.3035623886522 53.64613254493022 L 1455.159278576699 53.582352552338044 L 1455.0164128461067 53.51792351769993 L 1454.8749794833295 53.45285188386562 L 1454.7349926315856 53.3871441579443 L 1454.5964662894437 53.320806910653786 L 1454.4594143094223 53.25384677566353 L 1454.3238503966056 53.186270448931246 L 1454.1897881072716 53.11808468803328 L 1454.0572408475375 53.049296311488895 L 1453.9262218720191 52.97991219807844 L 1453.7967442825045 52.909939286155414 L 1453.668821026645 52.83938457295272 L 1453.5424648966593 52.76825511388287 L 1453.4176885280551 52.6965580218325 L 1453.2945043983657 52.62430046645107 L 1453.172924825901 52.5514896734339 L 1453.0529619685171 52.47813292379962 L 1452.9346278223995 52.40423755316206 L 1452.8179342208648 52.3298109509967 L 1452.7028928331754 52.25486055990175 L 1452.5895151633742 52.179393874853844 L 1452.477812549134 52.103418442458604 L 1452.367796160623 52.02694186019596 L 1452.2594769993882 51.94997177566041 L 1452.1528658972557 51.87251588579626 L 1452.047973515247 51.79458193612795 L 1451.9448103425123 51.7161777199855 L 1451.8433866952835 51.6373110777252 L 1451.7437127158403 51.55798989594554 L 1451.6457983714981 51.47822210669861 L 1451.5496534536096 51.398015686696844 L 1451.4552875765862 51.31737865651542 L 1451.362710176937 51.23631907979016 L 1451.2719305123253 51.15484506241117 L 1451.1829576606413 51.072964751712306 L 1451.0958005190964 50.990686335656406 L 1451.010467803332 50.9080180420165 L 1450.9269680465486 50.82496813755307 L 1450.8453095986522 50.74154492718736 L 1450.7655006254197 50.65775675317087 L 1450.687549107682 50.573611994251195 L 1450.6114628405253 50.4891190648341 L 1450.5372494325136 50.40428641414212 L 1450.4649163049255 50.31912252536962 L 1450.3944706910138 50.233635914834515 L 1450.3259196352808 50.14783513112663 L 1450.2592699927752 50.06172875425281 L 1450.1945284284056 49.975325394779006 L 1450.1317014162746 49.888633692969165 L 1450.070795239031 49.80166231792121 L 1450.0118159872418 49.71441996670019 L 1449.9547695587828 49.626915363468505 L 1449.8996616582497 49.53915725861357 L 1449.846497796386 49.45115442787274 L 1449.7952832895344 49.362915671455745 L 1449.7460232591025 49.27444981316471 L 1449.698722631052 49.18576569951172 L 1449.653386135407 49.09687219883425 L 1449.6100183057786 49.007778200408296 L 1449.5686234789139 48.918492613559444 L 1449.529205794261 48.82902436677198 L 1449.491769193556 48.73938240679603 L 1449.456317420427 48.64957569775289 L 1449.4228540200222 48.55961322023861 L 1449.3913823386538 48.46950397042599 L 1449.3619055234635 48.37925695916492 L 1449.3344265221085 48.28888121108131 L 1449.3089480824658 48.198385763674665 L 1449.2854727523584 48.1077796664143 L 1449.2640028792994 48.017071979834455 L 1449.2445406102586 47.92627177462819 L 1449.2270878914462 47.835388130740355 L 1449.21164646812 47.744430136459606 L 1449.1982178844094 47.65340688750957 L 1449.1868034831612 47.562327486139296 L 1449.1774044058063 47.47120104021301 L 1449.170021592245 47.38003666229938 L 1449.1646557807517 47.28884346876023 L 1449.1613075079035 47.1976305788389 L 1449.1599771085248 47.10640711374838" stroke-miterlimit="10" stroke-width="2.3497561670000002" stroke-dasharray=""/></g><g><g/><text fill="black" stroke="none" font-family="sans-serif" font-size="8pt" font-style="normal" font-weight="normal" text-decoration="normal" x="1445.7960209073333" y="71.045568814" text-anchor="start" dominant-baseline="alphabetic" xml:space="preserve">Database</text></g></g><g><path fill="white" stroke="black" paint-order="fill stroke markers" d=" M 359.87491649450004 120.80511117400002 L 373.6970115945 120.80511117400002 L 373.6970115945 581.0808780039999 L 359.87491649450004 581.0808780039999 L 359.87491649450004 120.80511117400002" stroke-miterlimit="10" stroke-width="1.1518412583333333" stroke-dasharray=""/><path fill="white" stroke="black" paint-order="fill stroke markers" d=" M 638.9816278486666 272.848157274 L 652.8037229486666 272.848157274 L 652.8037229486666 542.379011724 L 638.9816278486666 542.379011724 L 638.9816278486666 272.848157274" stroke-miterlimit="10" stroke-width="1.1518412583333333" stroke-dasharray=""/><path fill="white" stroke="black" paint-order="fill stroke markers" d=" M 645.8926753986666 464.97527916399997 L 659.7147704986667 464.97527916399997 L 659.7147704986667 503.67714544399996 L 645.8926753986666 503.67714544399996 L 645.8926753986666 464.97527916399997" stroke-miterlimit="10" stroke-width="1.1518412583333333" stroke-dasharray=""/><path fill="white" stroke="black" paint-order="fill stroke markers" d=" M 11.21484375 581.0808780039999 L 25.03693885 581.0808780039999 L 25.03693885 619.7827442839999 L 11.21484375 619.7827442839999 L 11.21484375 581.0808780039999" stroke-miterlimit="10" stroke-width="1.1518412583333333" stroke-dasharray=""/><path fill="white" stroke="black" paint-order="fill stroke markers" d=" M 359.87491649450004 619.7827442839999 L 373.6970115945 619.7827442839999 L 373.6970115945 1791.0670830580007 L 359.87491649450004 1791.0670830580007 L 359.87491649450004 619.7827442839999" stroke-miterlimit="10" stroke-width="1.1518412583333333" stroke-dasharray=""/><path fill="white" stroke="black" paint-order="fill stroke markers" d=" M 638.9816278486666 658.4846105639999 L 652.8037229486666 658.4846105639999 L 652.8037229486666 1752.3652167780006 L 638.9816278486666 1752.3652167780006 L 638.9816278486666 658.4846105639999" stroke-miterlimit="10" stroke-width="1.1518412583333333" stroke-dasharray=""/><path fill="white" stroke="black" paint-order="fill stroke markers" d=" M 645.8926753986666 715.1552004739999 L 659.7147704986667 715.1552004739999 L 659.7147704986667 1695.6946268680003 L 645.8926753986666 1695.6946268680003 L 645.8926753986666 715.1552004739999" stroke-miterlimit="10" stroke-width="1.1518412583333333" stroke-dasharray=""/><path fill="white" stroke="black" paint-order="fill stroke markers" d=" M 366.7859640445 753.8570667539999 L 380.6080591445 753.8570667539999 L 380.6080591445 1120.6954707080001 L 366.7859640445 1120.6954707080001 L 366.7859640445 753.8570667539999" stroke-miterlimit="10" stroke-width="1.1518412583333333" stroke-dasharray=""/><path fill="white" stroke="black" paint-order="fill stroke markers" d=" M 135.48397710833333 835.9603116479999 L 149.30607220833335 835.9603116479999 L 149.30607220833335 874.6621779279999 L 135.48397710833333 874.6621779279999 L 135.48397710833333 835.9603116479999" stroke-miterlimit="10" stroke-width="1.1518412583333333" stroke-dasharray=""/><path fill="white" stroke="black" paint-order="fill stroke markers" d=" M 135.48397710833333 913.3640442079999 L 149.30607220833335 913.3640442079999 L 149.30607220833335 1081.993604428 L 135.48397710833333 1081.993604428 L 135.48397710833333 913.3640442079999" stroke-miterlimit="10" stroke-width="1.1518412583333333" stroke-dasharray=""/><path fill="white" stroke="black" paint-order="fill stroke markers" d=" M 11.21484375 952.0659104879999 L 25.03693885 952.0659104879999 L 25.03693885 990.7677767679999 L 11.21484375 990.7677767679999 L 11.21484375 952.0659104879999" stroke-miterlimit="10" stroke-width="1.1518412583333333" stroke-dasharray=""/><path fill="white" stroke="black" paint-order="fill stroke markers" d=" M 961.7440725007499 1274.1207263180002 L 975.56616760075 1274.1207263180002 L 975.56616760075 1542.2693712580005 L 961.7440725007499 1542.2693712580005 L 961.7440725007499 1274.1207263180002" stroke-miterlimit="10" stroke-width="1.1518412583333333" stroke-dasharray=""/><path fill="white" stroke="black" paint-order="fill stroke markers" d=" M 1290.605915495875 1312.8225925980003 L 1304.4280105958749 1312.8225925980003 L 1304.4280105958749 1503.5675049780004 L 1290.605915495875 1503.5675049780004 L 1290.605915495875 1312.8225925980003" stroke-miterlimit="10" stroke-width="1.1518412583333333" stroke-dasharray=""/><path fill="white" stroke="black" paint-order="fill stroke markers" d=" M 1297.516963045875 1369.4931825080002 L 1311.3390581458748 1369.4931825080002 L 1311.3390581458748 1446.8969150680005 L 1297.516963045875 1446.8969150680005 L 1297.516963045875 1369.4931825080002" stroke-miterlimit="10" stroke-width="1.1518412583333333" stroke-dasharray=""/><g><g><rect fill="white" stroke="none" x="94.90951150725004" y="102.83638754400002" width="188.18178478" height="17.96872363"/></g><text fill="black" stroke="none" font-family="sans-serif" font-size="8pt" font-style="normal" font-weight="normal" text-decoration="normal" x="96.98282577225004" y="115.27627313400002" text-anchor="start" dominant-baseline="alphabetic" xml:space="preserve">mousePressed(x : Integer, y : Integer)</text></g><g><path fill="none" stroke="black" paint-order="fill stroke markers" d=" M 18.1258913 120.80511117400002 L 348.4947248621667 120.80511117400002" stroke-miterlimit="10" stroke-width="1.1518412583333333" stroke-dasharray=""/><g transform="translate(359.87491649450004,120.80511117400002) translate(-359.87491649450004,-120.80511117400002)"><path fill="black" stroke="none" paint-order="stroke fill markers" d=" M 348.3565039111667 115.04590488233335 L 359.87491649450004 120.80511117400002 L 348.3565039111667 126.56431746566669 Z"/></g></g><g><g><rect fill="white" stroke="none" x="390.05315746283327" y="141.53825382400004" width="139.56801524875" height="17.96872363"/></g><text fill="black" stroke="none" font-family="sans-serif" font-size="8pt" font-style="normal" font-weight="normal" text-decoration="normal" x="392.1264717278333" y="153.97813941400005" text-anchor="start" dominant-baseline="alphabetic" xml:space="preserve">sn := yToScreen(y : Integer)</text></g><g><path fill="none" stroke="black" paint-order="fill stroke markers" d=" M 373.6970115945 159.50697745400004 L 428.9853919945 159.50697745400004 L 428.9853919945 177.47570108400004 L 385.0772032268333 177.47570108400004" stroke-miterlimit="10" stroke-width="1.1518412583333333" stroke-dasharray=""/><g transform="translate(373.6970115945,177.47570108400004) translate(-373.6970115945,-177.47570108400004)"><path fill="black" stroke="none" paint-order="stroke fill markers" d=" M 385.2154241778333 171.71649479233338 L 373.6970115945 177.47570108400004 L 385.2154241778333 183.2349073756667 Z"/></g></g><g><g><rect fill="white" stroke="none" x="390.05315746283327" y="198.20884373400003" width="137.9190894675" height="17.96872363"/></g><text fill="black" stroke="none" font-family="sans-serif" font-size="8pt" font-style="normal" font-weight="normal" text-decoration="normal" x="392.1264717278333" y="210.64872932400004" text-anchor="start" dominant-baseline="alphabetic" xml:space="preserve">time := xToTime(x : Integer)</text></g><g><path fill="none" stroke="black" paint-order="fill stroke markers" d=" M 373.6970115945 216.17756736400003 L 428.9853919945 216.17756736400003 L 428.9853919945 234.14629099400003 L 385.0772032268333 234.14629099400003" stroke-miterlimit="10" stroke-width="1.1518412583333333" stroke-dasharray=""/><g transform="translate(373.6970115945,234.14629099400003) translate(-373.6970115945,-234.14629099400003)"><path fill="black" stroke="none" paint-order="stroke fill markers" d=" M 385.2154241778333 228.38708470233337 L 373.6970115945 234.14629099400003 L 385.2154241778333 239.90549728566668 Z"/></g></g><g><g><rect fill="white" stroke="none" x="393.50868123783323" y="254.87943364400002" width="225.6612769675" height="17.96872363"/></g><text fill="black" stroke="none" font-family="sans-serif" font-size="8pt" font-style="normal" font-weight="normal" text-decoration="normal" x="395.58199550283325" y="267.31931923400003" text-anchor="start" dominant-baseline="alphabetic" xml:space="preserve">selectScreening(sn : String, time : LocalTime)</text></g><g><path fill="none" stroke="black" paint-order="fill stroke markers" d=" M 373.6970115945 272.848157274 L 627.6014362163332 272.848157274" stroke-miterlimit="10" stroke-width="1.1518412583333333" stroke-dasharray=""/><g transform="translate(638.9816278486666,272.848157274) translate(-638.9816278486666,-272.848157274)"><path fill="black" stroke="none" paint-order="stroke fill markers" d=" M 627.4632152653332 267.08895098233336 L 638.9816278486666 272.848157274 L 627.4632152653332 278.6073635656667 Z"/></g></g><g><g><rect fill="white" stroke="none" x="812.6725749702083" y="330.900956694" width="90.95961681125" height="17.96872363"/></g><text fill="black" stroke="none" font-family="sans-serif" font-size="8pt" font-style="normal" font-weight="normal" text-decoration="normal" x="814.7458892352083" y="343.340842284" text-anchor="start" dominant-baseline="alphabetic" xml:space="preserve">getScreenName()</text></g><g><path fill="none" stroke="black" paint-order="fill stroke markers" d=" M 652.8037229486666 348.869680324 L 1052.1208521706665 348.869680324" stroke-miterlimit="10" stroke-width="1.1518412583333333" stroke-dasharray=""/><g transform="translate(1063.501043803,348.869680324) translate(-1063.501043803,-348.869680324)"><path fill="black" stroke="none" paint-order="stroke fill markers" d=" M 1051.9826312196665 343.11047403233334 L 1063.501043803 348.869680324 L 1051.9826312196665 354.62888661566666 Z"/></g></g><g><g><rect fill="white" stroke="none" x="832.7497234077083" y="369.602822974" width="50.80531993625" height="17.96872363"/></g><text fill="black" stroke="none" font-family="sans-serif" font-size="8pt" font-style="normal" font-weight="normal" text-decoration="normal" x="834.8230376727083" y="382.042708564" text-anchor="start" dominant-baseline="alphabetic" xml:space="preserve">getTime()</text></g><g><path fill="none" stroke="black" paint-order="fill stroke markers" d=" M 652.8037229486666 387.571546604 L 1052.1208521706665 387.571546604" stroke-miterlimit="10" stroke-width="1.1518412583333333" stroke-dasharray=""/><g transform="translate(1063.501043803,387.571546604) translate(-1063.501043803,-387.571546604)"><path fill="black" stroke="none" paint-order="stroke fill markers" d=" M 1051.9826312196665 381.81234031233333 L 1063.501043803 387.571546604 L 1051.9826312196665 393.33075289566665 Z"/></g></g><g><g><rect fill="white" stroke="none" x="676.0709163669999" y="429.037831904" width="88.49965587375" height="17.96872363"/></g><text fill="black" stroke="none" font-family="sans-serif" font-size="8pt" font-style="normal" font-weight="normal" text-decoration="normal" x="678.1442306319999" y="441.477717494" text-anchor="start" dominant-baseline="alphabetic" xml:space="preserve">notifyObservers()</text></g><g><path fill="none" stroke="black" paint-order="fill stroke markers" d=" M 652.8037229486666 447.006555534 L 715.0031508986666 447.006555534 L 715.0031508986666 464.97527916399997 L 671.0949621309999 464.97527916399997" stroke-miterlimit="10" stroke-width="1.1518412583333333" stroke-dasharray=""/><g transform="translate(659.7147704986666,464.97527916399997) translate(-659.7147704986666,-464.97527916399997)"><path fill="black" stroke="none" paint-order="stroke fill markers" d=" M 671.2331830819999 459.2160728723333 L 659.7147704986666 464.97527916399997 L 671.2331830819999 470.73448545566663 Z"/></g></g><g><g><rect fill="white" stroke="none" x="487.2361776690833" y="485.70842181399996" width="45.117331655" height="17.96872363"/></g><text fill="black" stroke="none" font-family="sans-serif" font-size="8pt" font-style="normal" font-weight="normal" text-decoration="normal" x="489.3094919340833" y="498.148307404" text-anchor="start" dominant-baseline="alphabetic" xml:space="preserve">update()</text></g><g><path fill="none" stroke="black" paint-order="fill stroke markers" d=" M 645.8926753986666 503.67714544399996 L 385.0772032268333 503.67714544399996" stroke-miterlimit="10" stroke-width="1.1518412583333333" stroke-dasharray=""/><g transform="translate(373.6970115945,503.67714544399996) translate(-373.6970115945,-503.67714544399996)"><path fill="black" stroke="none" paint-order="stroke fill markers" d=" M 385.2154241778333 497.9179391523333 L 373.6970115945 503.67714544399996 L 385.2154241778333 509.4363517356666 Z"/></g></g><g><g><rect fill="white" stroke="none" x="504.26600545658323" y="524.410288094" width="4.14662853" height="17.96872363"/></g><text fill="black" stroke="none" font-family="sans-serif" font-size="8pt" font-style="normal" font-weight="normal" text-decoration="normal" x="506.33931972158325" y="536.8501736839999" text-anchor="start" dominant-baseline="alphabetic" xml:space="preserve"></text></g><g><path fill="none" stroke="black" paint-order="fill stroke markers" d=" M 638.9816278486666 542.379011724 L 385.0772032268333 542.379011724" stroke-miterlimit="10" stroke-width="1.1518412583333333" stroke-dasharray="5.52883804"/><g transform="translate(373.6970115945,542.379011724) translate(-373.6970115945,-542.379011724)"><path fill="black" stroke="none" paint-order="stroke fill markers" d=" M 385.2154241778333 536.6198054323332 L 373.6970115945 542.379011724 L 385.2154241778333 548.1382180156667 Z"/></g></g><g><g><rect fill="white" stroke="none" x="190.38261340725003" y="563.1121543739999" width="4.14662853" height="17.96872363"/></g><text fill="black" stroke="none" font-family="sans-serif" font-size="8pt" font-style="normal" font-weight="normal" text-decoration="normal" x="192.45592767225003" y="575.5520399639998" text-anchor="start" dominant-baseline="alphabetic" xml:space="preserve"></text></g><g><path fill="none" stroke="black" paint-order="fill stroke markers" d=" M 359.87491649450004 581.0808780039999 L 36.417130482333334 581.0808780039999" stroke-miterlimit="10" stroke-width="1.1518412583333333" stroke-dasharray="5.52883804"/><g transform="translate(25.03693885,581.0808780039999) translate(-25.03693885,-581.0808780039999)"><path fill="black" stroke="none" paint-order="stroke fill markers" d=" M 36.55535143333333 575.3216717123332 L 25.03693885 581.0808780039999 L 36.55535143333333 586.8400842956667 Z"/></g></g><g><g><rect fill="white" stroke="none" x="146.05497668850003" y="601.8140206539999" width="92.8019019675" height="17.96872363"/></g><text fill="black" stroke="none" font-family="sans-serif" font-size="8pt" font-style="normal" font-weight="normal" text-decoration="normal" x="148.12829095350003" y="614.2539062439998" text-anchor="start" dominant-baseline="alphabetic" xml:space="preserve">cancelScreening()</text></g><g><path fill="none" stroke="black" paint-order="fill stroke markers" d=" M 25.03693885 619.7827442839999 L 348.4947248621667 619.7827442839999" stroke-miterlimit="10" stroke-width="1.1518412583333333" stroke-dasharray=""/><g transform="translate(359.87491649450004,619.7827442839999) translate(-359.87491649450004,-619.7827442839999)"><path fill="black" stroke="none" paint-order="stroke fill markers" d=" M 348.3565039111667 614.0235379923332 L 359.87491649450004 619.7827442839999 L 348.3565039111667 625.5419505756666 Z"/></g></g><g><g><rect fill="white" stroke="none" x="463.30067342533323" y="640.5158869339999" width="86.0772925925" height="17.96872363"/></g><text fill="black" stroke="none" font-family="sans-serif" font-size="8pt" font-style="normal" font-weight="normal" text-decoration="normal" x="465.37398769033325" y="652.9557725239998" text-anchor="start" dominant-baseline="alphabetic" xml:space="preserve">cancelSelected()</text></g><g><path fill="none" stroke="black" paint-order="fill stroke markers" d=" M 373.6970115945 658.4846105639999 L 627.6014362163332 658.4846105639999" stroke-miterlimit="10" stroke-width="1.1518412583333333" stroke-dasharray=""/><g transform="translate(638.9816278486666,658.4846105639999) translate(-638.9816278486666,-658.4846105639999)"><path fill="black" stroke="none" paint-order="stroke fill markers" d=" M 627.4632152653332 652.7254042723332 L 638.9816278486666 658.4846105639999 L 627.4632152653332 664.2438168556666 Z"/></g></g><g><g><rect fill="white" stroke="none" x="676.0709163669999" y="679.2177532139999" width="216.91176524875" height="17.96872363"/></g><text fill="black" stroke="none" font-family="sans-serif" font-size="8pt" font-style="normal" font-weight="normal" text-decoration="normal" x="678.1442306319999" y="691.6576388039998" text-anchor="start" dominant-baseline="alphabetic" xml:space="preserve">observerMessage(s : String, true : Boolean)</text></g><g><path fill="none" stroke="black" paint-order="fill stroke markers" d=" M 652.8037229486666 697.1864768439999 L 715.0031508986666 697.1864768439999 L 715.0031508986666 715.1552004739999 L 671.0949621309999 715.1552004739999" stroke-miterlimit="10" stroke-width="1.1518412583333333" stroke-dasharray=""/><g transform="translate(659.7147704986666,715.1552004739999) translate(-659.7147704986666,-715.1552004739999)"><path fill="black" stroke="none" paint-order="stroke fill markers" d=" M 671.2331830819999 709.3959941823332 L 659.7147704986666 715.1552004739999 L 671.2331830819999 720.9144067656666 Z"/></g></g><g><g><rect fill="white" stroke="none" x="406.62602761595826" y="735.8883431239999" width="213.24867931125" height="17.96872363"/></g><text fill="black" stroke="none" font-family="sans-serif" font-size="8pt" font-style="normal" font-weight="normal" text-decoration="normal" x="408.6993418809583" y="748.3282287139998" text-anchor="start" dominant-baseline="alphabetic" xml:space="preserve">message(message : String, true : Boolean)</text></g><g><path fill="none" stroke="black" paint-order="fill stroke markers" d=" M 645.8926753986666 753.8570667539999 L 391.98825077683335 753.8570667539999" stroke-miterlimit="10" stroke-width="1.1518412583333333" stroke-dasharray=""/><g transform="translate(380.60805914450003,753.8570667539999) translate(-380.60805914450003,-753.8570667539999)"><path fill="black" stroke="none" paint-order="stroke fill markers" d=" M 392.12647172783335 748.0978604623332 L 380.60805914450003 753.8570667539999 L 392.12647172783335 759.6162730456666 Z"/></g></g><g><path fill="white" stroke="black" paint-order="fill stroke markers" d=" M 169.83188343183335 795.1160206275 A 20.5258112235 20.5258112235 0 1 1 169.83187316892858 795.0954948196975 M 116.13304396833334 773.4153313205001 L 116.13304396833334 816.8167099345 M 114.95816588483333 795.1160206275 L 128.78026098483335 795.1160206275" stroke-miterlimit="10" stroke-width="2.3497561670000002" stroke-dasharray=""/></g><g><g/><text fill="black" stroke="none" font-family="sans-serif" font-size="8pt" font-style="normal" font-weight="normal" text-decoration="normal" x="131.08618676770834" y="830.6388050344999" text-anchor="start" dominant-baseline="alphabetic" xml:space="preserve">Alert</text></g><g><g><rect fill="white" stroke="none" x="190.8184311586667" y="787.3065368959999" width="152.7003394675" height="17.96872363"/></g><text fill="black" stroke="none" font-family="sans-serif" font-size="8pt" font-style="normal" font-weight="normal" text-decoration="normal" x="192.8917454236667" y="799.7464224859998" text-anchor="start" dominant-baseline="alphabetic" xml:space="preserve">Alert( confirmation : AlertType)</text></g><g><path fill="none" stroke="black" paint-order="fill stroke markers" d=" M 366.7859640445 805.2752605259999 L 178.93142937266666 805.2752605259999" stroke-miterlimit="10" stroke-width="1.1518412583333333" stroke-dasharray=""/><g transform="translate(167.55123774033333,805.2752605259999) translate(-167.55123774033333,-805.2752605259999)"><path fill="black" stroke="none" paint-order="stroke fill markers" d=" M 179.06965032366668 799.5160542343332 L 167.55123774033333 805.2752605259999 L 179.06965032366668 811.0344668176666 Z"/></g></g><g><g><rect fill="white" stroke="none" x="255.9727038614167" y="856.6934542979999" width="4.14662853" height="17.96872363"/></g><text fill="black" stroke="none" font-family="sans-serif" font-size="8pt" font-style="normal" font-weight="normal" text-decoration="normal" x="258.0460181264167" y="869.1333398879998" text-anchor="start" dominant-baseline="alphabetic" xml:space="preserve"></text></g><g><path fill="none" stroke="black" paint-order="fill stroke markers" d=" M 149.30607220833335 874.6621779279999 L 355.4057724121667 874.6621779279999" stroke-miterlimit="10" stroke-width="1.1518412583333333" stroke-dasharray="5.52883804"/><g transform="translate(366.7859640445,874.6621779279999) translate(-366.7859640445,-874.6621779279999)"><path fill="black" stroke="none" paint-order="stroke fill markers" d=" M 355.2675514611667 868.9029716363332 L 366.7859640445 874.6621779279999 L 355.2675514611667 880.4213842196666 Z"/></g></g><g><g><rect fill="white" stroke="none" x="217.3572253457917" y="895.3953205779999" width="81.37758556125" height="17.96872363"/></g><text fill="black" stroke="none" font-family="sans-serif" font-size="8pt" font-style="normal" font-weight="normal" text-decoration="normal" x="219.4305396107917" y="907.8352061679998" text-anchor="start" dominant-baseline="alphabetic" xml:space="preserve">showAndWait();</text></g><g><path fill="none" stroke="black" paint-order="fill stroke markers" d=" M 366.7859640445 913.3640442079999 L 160.68626384066667 913.3640442079999" stroke-miterlimit="10" stroke-width="1.1518412583333333" stroke-dasharray=""/><g transform="translate(149.30607220833335,913.3640442079999) translate(-149.30607220833335,-913.3640442079999)"><path fill="black" stroke="none" paint-order="stroke fill markers" d=" M 160.8244847916667 907.6048379163332 L 149.30607220833335 913.3640442079999 L 160.8244847916667 919.1232504996666 Z"/></g></g><g><g><rect fill="white" stroke="none" x="78.18714371416667" y="934.0971868579999" width="4.14662853" height="17.96872363"/></g><text fill="black" stroke="none" font-family="sans-serif" font-size="8pt" font-style="normal" font-weight="normal" text-decoration="normal" x="80.26045797916666" y="946.5370724479998" text-anchor="start" dominant-baseline="alphabetic" xml:space="preserve"></text></g><g><path fill="none" stroke="black" paint-order="fill stroke markers" d=" M 135.48397710833333 952.0659104879999 L 36.417130482333334 952.0659104879999" stroke-miterlimit="10" stroke-width="1.1518412583333333" stroke-dasharray=""/><g transform="translate(25.03693885,952.0659104879999) translate(-25.03693885,-952.0659104879999)"><path fill="black" stroke="none" paint-order="stroke fill markers" d=" M 36.55535143333333 946.3067041963332 L 25.03693885 952.0659104879999 L 36.55535143333333 957.8251167796666 Z"/></g></g><g><g><rect fill="white" stroke="none" x="78.18714371416667" y="972.7990531379999" width="4.14662853" height="17.96872363"/></g><text fill="black" stroke="none" font-family="sans-serif" font-size="8pt" font-style="normal" font-weight="normal" text-decoration="normal" x="80.26045797916666" y="985.2389387279998" text-anchor="start" dominant-baseline="alphabetic" xml:space="preserve"></text></g><g><path fill="none" stroke="black" paint-order="fill stroke markers" d=" M 25.03693885 990.7677767679999 L 124.103785476 990.7677767679999" stroke-miterlimit="10" stroke-width="1.1518412583333333" stroke-dasharray="5.52883804"/><g transform="translate(135.48397710833333,990.7677767679999) translate(-135.48397710833333,-990.7677767679999)"><path fill="black" stroke="none" paint-order="stroke fill markers" d=" M 123.965564525 985.0085704763331 L 135.48397710833333 990.7677767679999 L 123.965564525 996.5269830596666 Z"/></g></g><path fill="white" stroke="black" paint-order="fill stroke markers" d=" M 84.22451144020835 1011.500919418 L 188.12565228645835 1011.500919418 L 200.56553787645834 1023.940805008 L 200.56553787645834 1043.291738148 L 84.22451144020835 1043.291738148 L 84.22451144020835 1011.500919418 M 188.12565228645835 1011.500919418 L 188.12565228645835 1023.940805008 L 200.56553787645834 1023.940805008" stroke-miterlimit="10" stroke-width="1.1518412583333333" stroke-dasharray=""/><g><text fill="black" stroke="none" font-family="sans-serif" font-size="8pt" font-style="normal" font-weight="normal" text-decoration="normal" x="103.57544458020834" y="1030.8518525579998" text-anchor="start" dominant-baseline="alphabetic" xml:space="preserve">user selects OK</text></g><g><g><rect fill="white" stroke="none" x="230.5996569864167" y="1064.0248807980001" width="54.89272228" height="17.96872363"/></g><text fill="black" stroke="none" font-family="sans-serif" font-size="8pt" font-style="normal" font-weight="normal" text-decoration="normal" x="232.6729712514167" y="1076.4647663880003" text-anchor="start" dominant-baseline="alphabetic" xml:space="preserve">return true</text></g><g><path fill="none" stroke="black" paint-order="fill stroke markers" d=" M 149.30607220833335 1081.993604428 L 355.4057724121667 1081.993604428" stroke-miterlimit="10" stroke-width="1.1518412583333333" stroke-dasharray="5.52883804"/><g transform="translate(366.7859640445,1081.993604428) translate(-366.7859640445,-1081.993604428)"><path fill="black" stroke="none" paint-order="stroke fill markers" d=" M 355.2675514611667 1076.2343981363333 L 366.7859640445 1081.993604428 L 355.2675514611667 1087.7528107196667 Z"/></g></g><g><g><rect fill="white" stroke="none" x="485.80400613158326" y="1102.7267470780002" width="54.89272228" height="17.96872363"/></g><text fill="black" stroke="none" font-family="sans-serif" font-size="8pt" font-style="normal" font-weight="normal" text-decoration="normal" x="487.8773203965833" y="1115.1666326680004" text-anchor="start" dominant-baseline="alphabetic" xml:space="preserve">return true</text></g><g><path fill="none" stroke="black" paint-order="fill stroke markers" d=" M 380.60805914450003 1120.6954707080001 L 634.5124837663333 1120.6954707080001" stroke-miterlimit="10" stroke-width="1.1518412583333333" stroke-dasharray="5.52883804"/><g transform="translate(645.8926753986666,1120.6954707080001) translate(-645.8926753986666,-1120.6954707080001)"><path fill="black" stroke="none" paint-order="stroke fill markers" d=" M 634.3742628153333 1114.9362644163334 L 645.8926753986666 1120.6954707080001 L 634.3742628153333 1126.4546769996668 Z"/></g></g><g><g><rect fill="white" stroke="none" x="676.0709163669999" y="1178.748270128" width="267.01332774875" height="17.96872363"/></g><text fill="black" stroke="none" font-family="sans-serif" font-size="8pt" font-style="normal" font-weight="normal" text-decoration="normal" x="678.1442306319999" y="1191.1881557180002" text-anchor="start" dominant-baseline="alphabetic" xml:space="preserve">checkSold(sg : Screening)                                            </text></g><g><path fill="none" stroke="black" paint-order="fill stroke markers" d=" M 659.7147704986666 1196.7169937580002 L 715.0031508986666 1196.7169937580002 L 715.0031508986666 1214.685717388 L 671.0949621309999 1214.685717388" stroke-miterlimit="10" stroke-width="1.1518412583333333" stroke-dasharray=""/><g transform="translate(659.7147704986666,1214.685717388) translate(-659.7147704986666,-1214.685717388)"><path fill="black" stroke="none" paint-order="stroke fill markers" d=" M 671.2331830819999 1208.9265110963333 L 659.7147704986666 1214.685717388 L 671.2331830819999 1220.4449236796668 Z"/></g></g><g><g><rect fill="white" stroke="none" x="689.7266638753332" y="1256.1520026880003" width="242.00551524875" height="17.96872363"/></g><text fill="black" stroke="none" font-family="sans-serif" font-size="8pt" font-style="normal" font-weight="normal" text-decoration="normal" x="691.7999781403332" y="1268.5918882780004" text-anchor="start" dominant-baseline="alphabetic" xml:space="preserve">cancelScreening(selectedScreening : Screening)</text></g><g><path fill="none" stroke="black" paint-order="fill stroke markers" d=" M 659.7147704986666 1274.1207263180002 L 950.3638808684166 1274.1207263180002" stroke-miterlimit="10" stroke-width="1.1518412583333333" stroke-dasharray=""/><g transform="translate(961.7440725007499,1274.1207263180002) translate(-961.7440725007499,-1274.1207263180002)"><path fill="black" stroke="none" paint-order="stroke fill markers" d=" M 950.2256599174166 1268.3615200263334 L 961.7440725007499 1274.1207263180002 L 950.2256599174166 1279.8799326096669 Z"/></g></g><g><g><rect fill="white" stroke="none" x="1052.4389968145626" y="1294.8538689680004" width="161.2940894675" height="17.96872363"/></g><text fill="black" stroke="none" font-family="sans-serif" font-size="8pt" font-style="normal" font-weight="normal" text-decoration="normal" x="1054.5123110795626" y="1307.2937545580005" text-anchor="start" dominant-baseline="alphabetic" xml:space="preserve">deleteScreening(sg : Screening)</text></g><g><path fill="none" stroke="black" paint-order="fill stroke markers" d=" M 975.56616760075 1312.8225925980003 L 1279.2257238635416 1312.8225925980003" stroke-miterlimit="10" stroke-width="1.1518412583333333" stroke-dasharray=""/><g transform="translate(1290.605915495875,1312.8225925980003) translate(-1290.605915495875,-1312.8225925980003)"><path fill="black" stroke="none" paint-order="stroke fill markers" d=" M 1279.0875029125416 1307.0633863063335 L 1290.605915495875 1312.8225925980003 L 1279.0875029125416 1318.581798889667 Z"/></g></g><g><g><rect fill="white" stroke="none" x="1327.6952040142085" y="1333.5557352480002" width="136.80727306125" height="17.96872363"/></g><text fill="black" stroke="none" font-family="sans-serif" font-size="8pt" font-style="normal" font-weight="normal" text-decoration="normal" x="1329.7685182792084" y="1345.9956208380004" text-anchor="start" dominant-baseline="alphabetic" xml:space="preserve">performUpdate(sql : String)</text></g><g><path fill="none" stroke="black" paint-order="fill stroke markers" d=" M 1304.4280105958749 1351.5244588780001 L 1366.627438545875 1351.5244588780001 L 1366.627438545875 1369.4931825080002 L 1322.7192497782085 1369.4931825080002" stroke-miterlimit="10" stroke-width="1.1518412583333333" stroke-dasharray=""/><g transform="translate(1311.339058145875,1369.4931825080002) translate(-1311.339058145875,-1369.4931825080002)"><path fill="black" stroke="none" paint-order="stroke fill markers" d=" M 1322.8574707292084 1363.7339762163335 L 1311.339058145875 1369.4931825080002 L 1322.8574707292084 1375.252388799667 Z"/></g></g><g><g><rect fill="white" stroke="none" x="1339.3571403006667" y="1390.2263251580002" width="101.964987905" height="17.96872363"/></g><text fill="black" stroke="none" font-family="sans-serif" font-size="8pt" font-style="normal" font-weight="normal" text-decoration="normal" x="1341.4304545656667" y="1402.6662107480004" text-anchor="start" dominant-baseline="alphabetic" xml:space="preserve">execute(sql : String)</text></g><g><path fill="none" stroke="black" paint-order="fill stroke markers" d=" M 1311.339058145875 1408.1950487880003 L 1457.9600187281249 1408.1950487880003" stroke-miterlimit="10" stroke-width="1.1518412583333333" stroke-dasharray=""/><g transform="translate(1469.3402103604583,1408.1950487880003) translate(-1469.3402103604583,-1408.1950487880003)"><path fill="black" stroke="none" paint-order="stroke fill markers" d=" M 1457.8217977771249 1402.4358424963336 L 1469.3402103604583 1408.1950487880003 L 1457.8217977771249 1413.954255079667 Z"/></g></g><g><g><rect fill="white" stroke="none" x="1327.6952040142085" y="1428.9281914380003" width="4.14662853" height="17.96872363"/></g><text fill="black" stroke="none" font-family="sans-serif" font-size="8pt" font-style="normal" font-weight="normal" text-decoration="normal" x="1329.7685182792084" y="1441.3680770280005" text-anchor="start" dominant-baseline="alphabetic" xml:space="preserve"></text></g><g><path fill="none" stroke="black" paint-order="fill stroke markers" d=" M 1311.339058145875 1446.8969150680005 L 1366.627438545875 1446.8969150680005 L 1366.627438545875 1464.8656386980003 L 1315.8082022282085 1464.8656386980003" stroke-miterlimit="10" stroke-width="1.1518412583333333" stroke-dasharray="5.52883804"/><g transform="translate(1304.428010595875,1464.8656386980003) translate(-1304.428010595875,-1464.8656386980003)"><path fill="black" stroke="none" paint-order="stroke fill markers" d=" M 1315.9464231792085 1459.1064324063336 L 1304.428010595875 1464.8656386980003 L 1315.9464231792085 1470.624844989667 Z"/></g></g><g><g><rect fill="white" stroke="none" x="1131.0127272833126" y="1485.5987813480006" width="4.14662853" height="17.96872363"/></g><text fill="black" stroke="none" font-family="sans-serif" font-size="8pt" font-style="normal" font-weight="normal" text-decoration="normal" x="1133.0860415483126" y="1498.0386669380007" text-anchor="start" dominant-baseline="alphabetic" xml:space="preserve"></text></g><g><path fill="none" stroke="black" paint-order="fill stroke markers" d=" M 1290.605915495875 1503.5675049780004 L 986.9463592330833 1503.5675049780004" stroke-miterlimit="10" stroke-width="1.1518412583333333" stroke-dasharray="5.52883804"/><g transform="translate(975.56616760075,1503.5675049780004) translate(-975.56616760075,-1503.5675049780004)"><path fill="black" stroke="none" paint-order="stroke fill markers" d=" M 987.0845801840833 1497.8082986863337 L 975.56616760075 1503.5675049780004 L 987.0845801840833 1509.3267112696672 Z"/></g></g><g><g><rect fill="white" stroke="none" x="808.6561072347082" y="1524.3006476280007" width="4.14662853" height="17.96872363"/></g><text fill="black" stroke="none" font-family="sans-serif" font-size="8pt" font-style="normal" font-weight="normal" text-decoration="normal" x="810.7294214997082" y="1536.7405332180008" text-anchor="start" dominant-baseline="alphabetic" xml:space="preserve"></text></g><g><path fill="none" stroke="black" paint-order="fill stroke markers" d=" M 961.7440725007499 1542.2693712580005 L 671.0949621309999 1542.2693712580005" stroke-miterlimit="10" stroke-width="1.1518412583333333" stroke-dasharray="5.52883804"/><g transform="translate(659.7147704986666,1542.2693712580005) translate(-659.7147704986666,-1542.2693712580005)"><path fill="black" stroke="none" paint-order="stroke fill markers" d=" M 671.2331830819999 1536.5101649663338 L 659.7147704986666 1542.2693712580005 L 671.2331830819999 1548.0285775496673 Z"/></g></g><g><g><rect fill="white" stroke="none" x="676.0709163669999" y="1600.3221706780005" width="161.84731212375" height="17.96872363"/></g><text fill="black" stroke="none" font-family="sans-serif" font-size="8pt" font-style="normal" font-weight="normal" text-decoration="normal" x="678.1442306319999" y="1612.7620562680006" text-anchor="start" dominant-baseline="alphabetic" xml:space="preserve">notifyObservers()                        </text></g><g><path fill="none" stroke="black" paint-order="fill stroke markers" d=" M 659.7147704986666 1618.2908943080006 L 715.0031508986666 1618.2908943080006 L 715.0031508986666 1636.2596179380005 L 671.0949621309999 1636.2596179380005" stroke-miterlimit="10" stroke-width="1.1518412583333333" stroke-dasharray=""/><g transform="translate(659.7147704986666,1636.2596179380005) translate(-659.7147704986666,-1636.2596179380005)"><path fill="black" stroke="none" paint-order="stroke fill markers" d=" M 671.2331830819999 1630.5004116463338 L 659.7147704986666 1636.2596179380005 L 671.2331830819999 1642.0188242296672 Z"/></g></g><g><g><rect fill="white" stroke="none" x="676.0709163669999" y="1677.7259032380005" width="4.14662853" height="17.96872363"/></g><text fill="black" stroke="none" font-family="sans-serif" font-size="8pt" font-style="normal" font-weight="normal" text-decoration="normal" x="678.1442306319999" y="1690.1657888280006" text-anchor="start" dominant-baseline="alphabetic" xml:space="preserve"></text></g><g><path fill="none" stroke="black" paint-order="fill stroke markers" d=" M 659.7147704986666 1695.6946268680003 L 715.0031508986666 1695.6946268680003 L 715.0031508986666 1713.6633504980005 L 664.1839145809998 1713.6633504980005" stroke-miterlimit="10" stroke-width="1.1518412583333333" stroke-dasharray="5.52883804"/><g transform="translate(652.8037229486665,1713.6633504980005) translate(-652.8037229486665,-1713.6633504980005)"><path fill="black" stroke="none" paint-order="stroke fill markers" d=" M 664.3221355319998 1707.9041442063337 L 652.8037229486665 1713.6633504980005 L 664.3221355319998 1719.4225567896672 Z"/></g></g><g><g><rect fill="white" stroke="none" x="504.26600545658323" y="1734.3964931480004" width="4.14662853" height="17.96872363"/></g><text fill="black" stroke="none" font-family="sans-serif" font-size="8pt" font-style="normal" font-weight="normal" text-decoration="normal" x="506.33931972158325" y="1746.8363787380006" text-anchor="start" dominant-baseline="alphabetic" xml:space="preserve"></text></g><g><path fill="none" stroke="black" paint-order="fill stroke markers" d=" M 638.9816278486666 1752.3652167780006 L 385.0772032268333 1752.3652167780006" stroke-miterlimit="10" stroke-width="1.1518412583333333" stroke-dasharray="5.52883804"/><g transform="translate(373.6970115945,1752.3652167780006) translate(-373.6970115945,-1752.3652167780006)"><path fill="black" stroke="none" paint-order="stroke fill markers" d=" M 385.2154241778333 1746.6060104863338 L 373.6970115945 1752.3652167780006 L 385.2154241778333 1758.1244230696673 Z"/></g></g><g><g><rect fill="white" stroke="none" x="186.92708963225004" y="1773.0983594280005" width="4.14662853" height="17.96872363"/></g><text fill="black" stroke="none" font-family="sans-serif" font-size="8pt" font-style="normal" font-weight="normal" text-decoration="normal" x="189.00040389725004" y="1785.5382450180007" text-anchor="start" dominant-baseline="alphabetic" xml:space="preserve"></text></g><g><path fill="none" stroke="black" paint-order="fill stroke markers" d=" M 359.87491649450004 1791.0670830580007 L 29.506082932333335 1791.0670830580007" stroke-miterlimit="10" stroke-width="1.1518412583333333" stroke-dasharray="5.52883804"/><g transform="translate(18.1258913,1791.0670830580007) translate(-18.1258913,-1791.0670830580007)"><path fill="black" stroke="none" paint-order="stroke fill markers" d=" M 29.644303883333333 1785.307876766334 L 18.1258913 1791.0670830580007 L 29.644303883333333 1796.8262893496674 Z"/></g></g><g><g/><path fill="none" stroke="black" paint-order="fill stroke markers" d=" M 597.5153425486666 293.581299924 L 1111.8783766529998 293.581299924 L 1111.8783766529998 408.304689254 L 597.5153425486666 408.304689254 L 597.5153425486666 293.581299924 Z" stroke-miterlimit="10" stroke-width="1.9745850142857144" stroke-dasharray=""/><path fill="white" stroke="black" paint-order="fill stroke markers" d=" M 597.5153425486666 293.581299924 L 597.5153425486666 310.167814044 L 644.1526968111666 310.167814044 L 652.4459538711666 301.874556984 L 652.4459538711666 293.581299924 L 597.5153425486666 293.581299924" stroke-miterlimit="10" stroke-width="1.9745850142857144" stroke-dasharray=""/><text fill="black" stroke="none" font-family="sans-serif" font-size="6.4pt" font-style="normal" font-weight="bold" text-decoration="normal" x="611.3374376486665" y="304.638976004" text-anchor="start" dominant-baseline="alphabetic" xml:space="preserve">loop</text><text fill="black" stroke="none" font-family="sans-serif" font-size="6.4pt" font-style="normal" font-weight="bold" text-decoration="normal" x="666.2680489711665" y="304.638976004" text-anchor="start" dominant-baseline="alphabetic" xml:space="preserve">[for each current Screening]</text></g><g><g/><path fill="none" stroke="black" paint-order="fill stroke markers" d=" M 597.5153425486666 1141.4286133580001 L 947.9219774007498 1141.4286133580001 L 947.9219774007498 1235.418860038 L 597.5153425486666 1235.418860038 L 597.5153425486666 1141.4286133580001 Z" stroke-miterlimit="10" stroke-width="1.9745850142857144" stroke-dasharray=""/><path fill="white" stroke="black" paint-order="fill stroke markers" d=" M 597.5153425486666 1141.4286133580001 L 597.5153425486666 1158.015127478 L 677.6741811861666 1158.015127478 L 685.9674382461666 1149.7218704180002 L 685.9674382461666 1141.4286133580001 L 597.5153425486666 1141.4286133580001" stroke-miterlimit="10" stroke-width="1.9745850142857144" stroke-dasharray=""/><text fill="black" stroke="none" font-family="sans-serif" font-size="6.4pt" font-style="normal" font-weight="bold" text-decoration="normal" x="611.3374376486665" y="1152.486289438" text-anchor="start" dominant-baseline="alphabetic" xml:space="preserve">expandable-</text><text fill="black" stroke="none" font-family="sans-serif" font-size="6.4pt" font-style="normal" font-weight="bold" text-decoration="normal" x="699.7895333461665" y="1152.486289438" text-anchor="start" dominant-baseline="alphabetic" xml:space="preserve">[see diagram 04 Cancel Screening ACE (sold screening)]</text></g><g><g/><path fill="none" stroke="black" paint-order="fill stroke markers" d=" M 597.5153425486666 1563.0025139080005 L 842.7559617757499 1563.0025139080005 L 842.7559617757499 1656.9927605880005 L 597.5153425486666 1656.9927605880005 L 597.5153425486666 1563.0025139080005 Z" stroke-miterlimit="10" stroke-width="1.9745850142857144" stroke-dasharray=""/><path fill="white" stroke="black" paint-order="fill stroke markers" d=" M 597.5153425486666 1563.0025139080005 L 597.5153425486666 1579.5890280280005 L 679.9329702486666 1579.5890280280005 L 688.2262273086666 1571.2957709680006 L 688.2262273086666 1563.0025139080005 L 597.5153425486666 1563.0025139080005" stroke-miterlimit="10" stroke-width="1.9745850142857144" stroke-dasharray=""/><text fill="black" stroke="none" font-family="sans-serif" font-size="6.4pt" font-style="normal" font-weight="bold" text-decoration="normal" x="611.3374376486665" y="1574.0601899880005" text-anchor="start" dominant-baseline="alphabetic" xml:space="preserve">expandable−</text><text fill="black" stroke="none" font-family="sans-serif" font-size="6.4pt" font-style="normal" font-weight="bold" text-decoration="normal" x="702.0483224086665" y="1574.0601899880005" text-anchor="start" dominant-baseline="alphabetic" xml:space="preserve">[see 01 - Display Screening BCE]</text></g></g><g/><g/><g/><g/><g/><g/><g/><g/></g></svg>