<svg version="1.1" xmlns="http://www.w3.org/2000/svg" xmlns:xlink="http://www.w3.org/1999/xlink" width="1589" height="1971"><desc>actor%20Staff%0Aboundary%20StaffUI%0A%0Acontrol%20ManagementSystem%0Aparticipant%20Cinema%0Aentity%20Screening%20(current)%0Aentity%20Screening%20(selected)%0Aparticipant%20ScreeningMapper%0Adatabase%20Database%0AStaff-%3EStaffUI%3AmousePressed(x%20%3A%20Integer%2C%20y%20%3A%20Integer)%0Aactivate%20StaffUI%0A%0AStaffUI-%3EStaffUI%3Asn%20%3A%3D%20yToScreen(y%20%3A%20Integer)%0AStaffUI-%3EStaffUI%3Atime%20%3A%3D%20xToTime(x%20%3A%20Integer)%0AStaffUI-%3EManagementSystem%3AselectScreening(sn%20%3A%20String%2C%20time%20%3A%20LocalTime)%0Aactivate%20ManagementSystem%0A%0Aloop%20for%20each%20current%20Screening%0AManagementSystem-%3EScreening%20(current)%3AgetScreenName()%0AManagementSystem-%3EScreening%20(current)%3AgetTime()%0Aend%0AManagementSystem-%3EManagementSystem%3AnotifyObservers()%0Aactivate%20ManagementSystem%0AManagementSystem-%3EStaffUI%3Aupdate()%0Adeactivate%20ManagementSystem%0AManagementSystem--%3EStaffUI%3A%0Adeactivate%20ManagementSystem%0AStaffUI--%3EStaff%3A%0Adeactivate%20StaffUI%0A%0A%0Aloop%20for%20every%20time%20the%20mouse%20is%20moved%0AStaff-%3EStaffUI%3AmouseMoved(x%20%3A%20integer%2C%20y%20%3A%20integer)%0Aactivate%20StaffUI%0AStaffUI-%3EStaffUI%3Aupdate()%0AStaffUI--%3EStaff%3A%0Adeactivate%20StaffUI%0Aend%0A%0AStaff-%3EStaffUI%3AmouseReleased(x%20%3A%20Integer%2C%20y%20%3A%20Integer)%0Aactivate%20StaffUI%0AStaffUI-%3EStaffUI%3Asn%20%3A%3D%20yToScreen(y%20%3A%20Integer)%0AStaffUI-%3EStaffUI%3Atime%20%3A%3D%20xToTime(x%20%3A%20Integer)%0AStaffUI-%3EManagementSystem%3AchangeSelected(time%20%3A%20LocalTime%2C%20sn%20%3A%20ScreenName)%0Aactivate%20ManagementSystem%0A%0Aexpandable-%20see%20diagram%2004%20-%20Cancel%20Screening%20ACE%20(sold%20screening)%0AManagementSystem-%3EManagementSystem%3AcheckSold(sg%20%3A%20Screening)%20%20%20%20%20%20%20%20%20%20%20%20%20%20%20%20%20%20%20%20%20%20%20%20%20%20%20%20%20%20%20%20%20%20%20%20%20%20%20%20%20%20%20%20%20%20%20%20%20%20%20%20%20%20%20%20%20%20%20%20%20%20%20%20%20%20%20%20%20%20%20%20%20%20%20%20%20%20%20%20%20%20%20%20%20%0Aend%20%0A%0Aexpandable-%20see%20diagram%2003%20-%20schedule%20Screening%20ECE%20(double%20screening)%0A%0AManagementSystem-%3EManagementSystem%3AcheckDoubleScreening(time%20%3A%20LocalTime%2C%20screenName%20%3A%20String%2C%20sg%20%3A%20Screening)%20%20%0Aend%20%0A%0Aexpandable-%20see%20diagrams%2003%20-%20Update%20Screening%20ACE%20(not%20available)%0A%0AManagementSystem-%3EManagementSystem%3AcheckTimeAvailable()%20%20%20%20%20%20%20%20%20%20%20%20%20%20%20%20%20%20%20%20%20%20%20%20%20%20%20%20%20%20%20%20%20%20%20%20%20%20%20%20%20%20%20%20%20%20%20%20%20%20%20%20%20%20%20%0Aend%20%0A%0AManagementSystem-%3ECinema%3Ascreen%20%3A%3D%20getScreen(sn%20%3A%20String)%0AManagementSystem-%3EScreening%20(selected)%3AsetTime(time%20%3A%20LocalTime)%0AManagementSystem-%3EScreening%20(selected)%3AsetScreen(screen%20%3A%20Screen)%0AManagementSystem-%3ECinema%3AupdateScreening(selected%20%3A%20Screening)%0Aactivate%20Cinema%0ACinema-%3EScreeningMapper%3AupdateScreening(sg%20%3A%20Screening)%0Aactivate%20ScreeningMapper%0AScreeningMapper-%3EScreeningMapper%3AperformUpdate(sql%20%3A%20String)%0Aactivate%20ScreeningMapper%0AScreeningMapper-%3EDatabase%3Aexecute(sql%20%3A%20String)%0AScreeningMapper--%3EScreeningMapper%3A%0Adeactivate%20ScreeningMapper%0AScreeningMapper--%3ECinema%3A%0A%0A%0ACinema--%3EManagementSystem%3A%0Adeactivate%20Cinema%0Aexpandable-%20see%2001%20-%20Display%20Date%20BCE%0AManagementSystem-%3EManagementSystem%3AnotifyObservers()%20%20%20%20%20%20%20%20%20%20%20%20%20%20%20%20%20%20%20%20%0Aend%0AManagementSystem--%3EStaffUI%3A%0Adeactivate%20ManagementSystem%0A%0AStaffUI--%3EStaff%3A%0Adeactivate%20StaffUI%0A</desc><defs/><g><g/><g/><g/><g/><g/><g/><g/><g/><g/><g/><g/><g/><g/><g/><g/><g/><g/><g/><g/><g/><g/><g/><g/><g/><g/><g/><g/><g/><g/><g/><g/><g/><g/><g/><g/><g/><g/><g/><g/><g/><g/><g><rect fill="white" stroke="none" x="0" y="0" width="1589" height="1971"/></g><g/><g><path fill="none" stroke="black" paint-order="fill stroke markers" d=" M 62.19942795 75.19219734400001 L 62.19942795 1971.5836450640006" stroke-miterlimit="10" stroke-width="1.1518412583333333" stroke-dasharray="10.632380846153845,4.607365033333333"/><path fill="none" stroke="black" paint-order="fill stroke markers" d=" M 296.1275988916667 75.19219734400001 L 296.1275988916667 1971.5836450640006" stroke-miterlimit="10" stroke-width="1.1518412583333333" stroke-dasharray="10.632380846153845,4.607365033333333"/><path fill="none" stroke="black" paint-order="fill stroke markers" d=" M 604.4116416020834 75.19219734400001 L 604.4116416020834 1971.5836450640006" stroke-miterlimit="10" stroke-width="1.1518412583333333" stroke-dasharray="10.632380846153845,4.607365033333333"/><path fill="none" stroke="black" paint-order="fill stroke markers" d=" M 1053.9641253166667 75.19219734400001 L 1053.9641253166667 1971.5836450640006" stroke-miterlimit="10" stroke-width="1.1518412583333333" stroke-dasharray="10.632380846153845,4.607365033333333"/><path fill="none" stroke="black" paint-order="fill stroke markers" d=" M 1148.8100490689167 75.19219734400001 L 1148.8100490689167 1971.5836450640006" stroke-miterlimit="10" stroke-width="1.1518412583333333" stroke-dasharray="10.632380846153845,4.607365033333333"/><path fill="none" stroke="black" paint-order="fill stroke markers" d=" M 1260.1497222939167 75.19219734400001 L 1260.1497222939167 1971.5836450640006" stroke-miterlimit="10" stroke-width="1.1518412583333333" stroke-dasharray="10.632380846153845,4.607365033333333"/><path fill="none" stroke="black" paint-order="fill stroke markers" d=" M 1382.8259683117917 75.19219734400001 L 1382.8259683117917 1971.5836450640006" stroke-miterlimit="10" stroke-width="1.1518412583333333" stroke-dasharray="10.632380846153845,4.607365033333333"/><path fill="none" stroke="black" paint-order="fill stroke markers" d=" M 1554.649215626375 75.19219734400001 L 1554.649215626375 1971.5836450640006" stroke-miterlimit="10" stroke-width="1.1518412583333333" stroke-dasharray="10.632380846153845,4.607365033333333"/></g><g><g><path fill="white" stroke="black" paint-order="fill stroke markers" d=" M 70.078022157 16.724735071000005 A 7.878594207 7.878594207 0 1 1 70.07801821770323 16.7168564781061 M 62.19942795 24.603329278000004 L 62.19942795 41.4662853 M 52.247519478 30.685051122000004 L 72.151336422 30.685051122000004 M 62.19942795 41.4662853 L 52.247519478 57.22347371400001 M 62.19942795 41.4662853 L 72.151336422 57.22347371400001" stroke-miterlimit="10" stroke-width="2.3497561670000002" stroke-dasharray=""/></g><g><g/><text fill="black" stroke="none" font-family="sans-serif" font-size="8pt" font-style="normal" font-weight="normal" text-decoration="normal" x="50.9845842" y="71.045568814" text-anchor="start" dominant-baseline="alphabetic" xml:space="preserve">Staff</text></g><g><path fill="white" stroke="black" paint-order="fill stroke markers" d=" M 323.5644576651667 35.52278440700001 A 20.5258112235 20.5258112235 0 1 1 323.5644474022619 35.50225859919747 M 269.86561820166673 13.822095100000011 L 269.86561820166673 57.22347371400001 M 268.69074011816673 35.52278440700001 L 282.5128352181667 35.52278440700001" stroke-miterlimit="10" stroke-width="2.3497561670000002" stroke-dasharray=""/></g><g><g/><text fill="black" stroke="none" font-family="sans-serif" font-size="8pt" font-style="normal" font-weight="normal" text-decoration="normal" x="279.4127551416667" y="71.045568814" text-anchor="start" dominant-baseline="alphabetic" xml:space="preserve">StaffUI</text></g><g><path fill="white" stroke="black" paint-order="fill stroke markers" d=" M 624.9374528255834 35.52278440700001 A 20.5258112235 20.5258112235 0 1 1 624.9374425626786 35.50225859919747 M 601.6472225820834 14.99697318350001 L 609.9404796420833 8.085925633500011 M 601.6472225820834 14.99697318350001 L 609.9404796420833 21.90802073350001" stroke-miterlimit="10" stroke-width="2.3497561670000002" stroke-dasharray=""/></g><g><g/><text fill="black" stroke="none" font-family="sans-serif" font-size="8pt" font-style="normal" font-weight="normal" text-decoration="normal" x="553.9717001958334" y="71.045568814" text-anchor="start" dominant-baseline="alphabetic" xml:space="preserve">ManagementSystem</text></g><path fill="none" stroke="none"/><g><path fill="white" stroke="black" paint-order="fill stroke markers" d=" M 1020.0152478362917 37.87254057400001 L 1087.9130027970416 37.87254057400001 L 1087.9130027970416 75.19219734400001 L 1020.0152478362917 75.19219734400001 L 1020.0152478362917 37.87254057400001 Z" stroke-miterlimit="10" stroke-width="2.211535216" stroke-dasharray=""/></g><g><g/><text fill="black" stroke="none" font-family="sans-serif" font-size="8pt" font-style="normal" font-weight="normal" text-decoration="normal" x="1035.0122210197917" y="61.370102243999995" text-anchor="start" dominant-baseline="alphabetic" xml:space="preserve">Cinema</text></g><g><path fill="white" stroke="black" paint-order="fill stroke markers" d=" M 1169.3358602924168 33.64297947340001 A 20.5258112235 20.5258112235 0 1 1 1169.335850029512 33.62245366559747 M 1127.1093597619165 56.04859563050001 L 1170.5107383759168 56.04859563050001" stroke-miterlimit="10" stroke-width="2.3497561670000002" stroke-dasharray=""/></g><g><g/><text fill="black" stroke="none" font-family="sans-serif" font-size="8pt" font-style="normal" font-weight="normal" text-decoration="normal" x="1101.7350978970417" y="71.045568814" text-anchor="start" dominant-baseline="alphabetic" xml:space="preserve">Screening (current)</text></g><g><path fill="white" stroke="black" paint-order="fill stroke markers" d=" M 1280.6755335174166 33.64297947340001 A 20.5258112235 20.5258112235 0 1 1 1280.675523254512 33.62245366559747 M 1238.4490329869168 56.04859563050001 L 1281.8504116009167 56.04859563050001" stroke-miterlimit="10" stroke-width="2.3497561670000002" stroke-dasharray=""/></g><g><g/><text fill="black" stroke="none" font-family="sans-serif" font-size="8pt" font-style="normal" font-weight="normal" text-decoration="normal" x="1209.7070953407917" y="71.045568814" text-anchor="start" dominant-baseline="alphabetic" xml:space="preserve">Screening (selected)</text></g><path fill="none" stroke="none"/><g><path fill="white" stroke="black" paint-order="fill stroke markers" d=" M 1324.4144443470418 37.87254057400001 L 1441.2374922765418 37.87254057400001 L 1441.2374922765418 75.19219734400001 L 1324.4144443470418 75.19219734400001 L 1324.4144443470418 37.87254057400001 Z" stroke-miterlimit="10" stroke-width="2.211535216" stroke-dasharray=""/></g><g><g/><text fill="black" stroke="none" font-family="sans-serif" font-size="8pt" font-style="normal" font-weight="normal" text-decoration="normal" x="1339.4114175305417" y="61.370102243999995" text-anchor="start" dominant-baseline="alphabetic" xml:space="preserve">ScreeningMapper</text></g><g><path fill="white" stroke="black" paint-order="fill stroke markers" d=" M 1534.468956780375 48.10089094800001 L 1534.468956780375 19.074491238000007 L 1574.829474472375 19.074491238000007 L 1574.829474472375 48.10089094800001" stroke-miterlimit="10" stroke-width="2.3497561670000002" stroke-dasharray=""/><path fill="white" stroke="black" paint-order="fill stroke markers" d=" M 1574.829474472375 18.065478295700007 L 1574.8284654678412 18.15670260293715 L 1574.825438555139 18.247917787819585 L 1574.8203940369576 18.339114728904843 L 1574.8133324177445 18.430284306574812 L 1574.8042544036555 18.521417403947694 L 1574.7931609024845 18.612504907789702 L 1574.7800530235725 18.703537709426353 L 1574.7649320776964 18.794506705653347 L 1574.7477995769382 18.885402799646865 L 1574.7286572345338 18.976216901873258 L 1574.7075069647012 19.066939930997982 L 1574.6843508824502 19.15756281479372 L 1574.6591913033694 19.248076491047623 L 1574.6320307433957 19.338471908467483 L 1574.6028719185629 19.42874002758689 L 1574.5717177447286 19.518871821669155 L 1574.5385713372846 19.608858277609983 L 1574.5034360108439 19.698690396838764 L 1574.4663152789099 19.788359196218437 L 1574.4272128535247 19.877855708943788 L 1574.3861326448985 19.967170985438123 L 1574.3430787610178 20.05629609424822 L 1574.2980555072352 20.145222122937476 L 1574.2510673858385 20.23394017897712 L 1574.2021190956007 20.322441390635486 L 1574.1512155313098 20.41071690786515 L 1574.09836178328 20.498757903187958 L 1574.0435631368423 20.586555572577744 L 1573.9868250718155 20.674101136340735 L 1573.9281532619586 20.7613858399935 L 1573.867553574404 20.848400955138427 L 1573.8050320690697 20.935137780336497 L 1573.7405949980543 21.021587641977483 L 1573.6742488050113 21.107741895147257 L 1573.6060001245044 21.193591924492296 L 1573.535855781345 21.279129145081207 L 1573.4638227899088 21.364345003263217 L 1573.3899083534352 21.449230977523516 L 1573.3141198633061 21.533778579335415 L 1573.2364648983073 21.617979354009194 L 1573.1569512238707 21.701824881537547 L 1573.0755867912974 21.785306777437597 L 1572.9923797369627 21.868416693589317 L 1572.907338381503 21.951146319070357 L 1572.8204712289828 22.033487380987104 L 1572.7317869660449 22.115431645301985 L 1572.641294461042 22.196970917656856 L 1572.5490027631488 22.278097044192428 L 1572.4549211014585 22.35880191236366 L 1572.3590588840586 22.43907745175098 L 1572.2614256970912 22.518915634867348 L 1572.1620313037934 22.598308477960988 L 1572.060885643522 22.677248041813744 L 1571.9579988307582 22.75572643253502 L 1571.8533811540983 22.83373580235114 L 1571.7470430752223 22.911268350390124 L 1571.6389952278494 22.988316323461788 L 1571.5292484166746 23.06487201683303 L 1571.4178136162873 23.140927774998303 L 1571.304701970075 23.216475992445172 L 1571.1899247891076 23.291509114414854 L 1571.073493551008 23.366019637657672 L 1570.9554198988028 23.4400001111834 L 1570.8357156397585 23.51344313700633 L 1570.7143927442019 23.586341370885087 L 1570.591463344321 23.658687523057033 L 1570.4669397329535 23.73047435896723 L 1570.3408343623566 23.801694699991916 L 1570.2131598429626 23.872341424156335 L 1570.083928942117 23.942407466846948 L 1569.9531545828017 24.011885821517872 L 1569.8208498423442 24.080769540391536 L 1569.687027951108 24.149051735153456 L 1569.5517022911706 24.216725577641057 L 1569.4148863949856 24.283784300526488 L 1569.2765939440285 24.350221197993342 L 1569.136838767429 24.416029626407234 L 1568.9956348405885 24.481203004980163 L 1568.8529962837817 24.54573481642858 L 1568.7089373607457 24.609618607625126 L 1568.5634724772526 24.67284799024391 L 1568.4166161796697 24.73541664139936 L 1568.2683831535041 24.797318304278505 L 1568.1187882219353 24.858546788766642 L 1567.9678463443313 24.919095972066344 L 1567.8155726147545 24.978959799309735 L 1567.6619822604507 25.038132284163982 L 1567.5070906403275 25.09660750942991 L 1567.3509132434176 25.154379627633716 L 1567.193465687331 25.21144286161173 L 1567.0347637166915 25.267791505088102 L 1566.8748232015644 25.323419923245446 L 1566.7136601358677 25.378322553288296 L 1566.5512906357737 25.432493904999404 L 1566.387730938097 25.48592856128874 L 1566.2229973986716 25.53862117873521 L 1566.0571064907135 25.59056648812097 L 1565.8900748031754 25.641759294958376 L 1565.7219190390872 25.692194480009405 L 1565.5526560138849 25.741866999797576 L 1565.3823026537298 25.790771887112307 L 1565.2108759938164 25.838904251505618 L 1565.0383931766676 25.886259279781186 L 1564.864871450421 25.932832236475637 L 1564.6903281671055 25.978618464332122 L 1564.5147807809035 26.023613384766 L 1564.338246846407 26.06781249832273 L 1564.160744016863 26.11121138512779 L 1563.9822900424058 26.153805705328658 L 1563.8029027682849 26.195591199528817 L 1563.6226001330776 26.236563689213664 L 1563.4414001668977 26.276719077168373 L 1563.2593209895902 26.316053347887618 L 1563.0763808089216 26.354562567977098 L 1562.8925979187575 26.392242886546896 L 1562.7079906972335 26.429090535596558 L 1562.522577604918 26.46510183039188 L 1562.3363771829659 26.5002731698334 L 1562.149408051264 26.534601036816476 L 1561.9616889065696 26.568081998583022 L 1561.7732385206411 26.60071270706476 L 1561.5840757383596 26.63248989921803 L 1561.3942194758463 26.663410397350102 L 1561.2036887185686 26.693471109436928 L 1561.0125025194438 26.722669029432353 L 1560.8206799969323 26.7510012375687 L 1560.6282403331268 26.77846490064878 L 1560.435202771833 26.805057272329158 L 1560.2415866166464 26.830775693394834 L 1560.047411229021 26.855617592025126 L 1559.852696026334 26.879580484050884 L 1559.657460479943 26.90266197320286 L 1559.46172411324 26.924859751351384 L 1559.265506499699 26.946171598737138 L 1559.0688272609175 26.96659538419314 L 1558.8717060646557 26.986129065357865 L 1558.6741626228686 27.00477068887948 L 1558.476216689736 27.022518390611154 L 1558.2778880596861 27.03937039579752 L 1558.079196565417 27.055325019252088 L 1557.8801620759123 27.070380665525818 L 1557.6808044944548 27.084535829066628 L 1557.481143756637 27.097789094369954 L 1557.2811998283662 27.110139136120317 L 1557.0809927038683 27.121584719323828 L 1556.8805424036893 27.132124699431706 L 1556.6798689726918 27.141758022454724 L 1556.478992478052 27.15048372506861 L 1556.277933007252 27.15830093471037 L 1556.076710666071 27.165208869665555 L 1555.8753455765757 27.17120683914643 L 1555.673857875107 27.176294243361042 L 1555.4722677102673 27.180470573573206 L 1555.2705952409053 27.18373541215339 L 1555.0688606340993 27.186088432620444 L 1554.8670840631426 27.18752939967429 L 1554.6652857055235 27.188058169219428 L 1554.46348574091 27.187674688379335 L 1554.2617043491305 27.186378995501777 L 1554.0599617081555 27.184171220154965 L 1553.8582779920814 27.181051583114595 L 1553.6566733691116 27.17702039634177 L 1553.4551679995402 27.172078062951805 L 1553.2537820337368 27.166225077173927 L 1553.0525356101296 27.159462024301828 L 1552.8514488531935 27.15178958063516 L 1552.6505418714366 27.143208513411906 L 1552.4498347553895 27.13371968073163 L 1552.2493475755969 27.12332403146969 L 1552.0491003806094 27.112022605182354 L 1551.8491131949797 27.099816532002833 L 1551.6494060172597 27.086707032528267 L 1551.449998818001 27.072695417697688 L 1551.2509115377568 27.057783088660898 L 1551.0521640850898 27.041971536638375 L 1550.8537763345794 27.025262342772145 L 1550.655768124835 27.007657177967666 L 1550.4581592565132 26.98915780272675 L 1550.2609694903358 26.96976606697151 L 1550.0642185451152 26.94948390985936 L 1549.8679260957817 26.928313359589104 L 1549.6721117714171 26.906256533198132 L 1549.4767951532904 26.883315636350694 L 1549.2819957729005 26.859492963117372 L 1549.0877331100232 26.834790895745627 L 1548.8940265907634 26.809211904421616 L 1548.7008955856109 26.78275854702315 L 1548.5083594075056 26.755433468863927 L 1548.3164373099048 26.727239402428996 L 1548.1251484848583 26.6981791671015 L 1547.9345120610892 26.668255668880757 L 1547.7445471020812 26.637471900091654 L 1547.555272604172 26.605830939085415 L 1547.366707494653 26.573335949931778 L 1547.1788706298785 26.53999018210257 L 1546.9917807933787 26.505796970146797 L 1546.8054566939807 26.470759733357152 L 1546.6199169639397 26.43488197542812 L 1546.4351801570735 26.398167284105593 L 1546.2512647469096 26.360619330828115 L 1546.0681891248353 26.32224187035971 L 1545.8859715982603 26.28303874041446 L 1545.7046303887855 26.243013861272683 L 1545.5241836303805 26.20217123538894 L 1545.344649367571 26.160514946991775 L 1545.1660455536337 26.11804916167533 L 1544.988390048801 26.07477812598274 L 1544.8117006184755 26.03070616698151 L 1544.6359949314526 25.985837691830824 L 1544.461290558155 25.940177187340804 L 1544.2876049688746 25.893729219523845 L 1544.114955532025 25.846498433138024 L 1543.9433595124065 25.798489551222623 L 1543.7728340694775 25.74970737462582 L 1543.603396255641 25.700156781524633 L 1543.4350630145366 25.64984272693707 L 1543.267851179348 25.59877024222667 L 1543.1017774711202 25.546944434599336 L 1542.9368584970848 25.49437048659265 L 1542.773110749002 25.441053655557596 L 1542.6105506015103 25.386999273132844 L 1542.449194310489 25.3322127447116 L 1542.2890580114324 25.27669954890105 L 1542.1301577178374 25.220465236974505 L 1541.9725093196007 25.163515432316306 L 1541.8161285814308 25.105855829859454 L 1541.6610311412712 25.04749219551615 L 1541.5072325087365 24.98843036560119 L 1541.354748063562 24.928676246248344 L 1541.2035930540653 24.86823581281976 L 1541.053782595621 24.807115109308405 L 1540.9053316691504 24.74532024773371 L 1540.7582551196222 24.68285740753032 L 1540.612567654569 24.61973283493021 L 1540.4682838426158 24.555952842338044 L 1540.3254181120235 24.49152380769992 L 1540.1839847492463 24.42645217386562 L 1540.0439978975023 24.360744447944292 L 1539.9054715553605 24.294407200653783 L 1539.768419575339 24.227447065663533 L 1539.6328556625224 24.159870738931243 L 1539.4987933731884 24.09168497803327 L 1539.3662461134543 24.022896601488892 L 1539.235227137936 23.95351248807843 L 1539.1057495484213 23.883539576155414 L 1538.9778262925618 23.812984862952717 L 1538.851470162576 23.741855403882866 L 1538.726693793972 23.6701583118325 L 1538.6035096642825 23.597900756451068 L 1538.4819300918177 23.5250899634339 L 1538.361967234434 23.451733213799617 L 1538.2436330883163 23.377837843162055 L 1538.1269394867816 23.303411240996702 L 1538.0118980990922 23.228460849901744 L 1537.898520429291 23.15299416485384 L 1537.7868178150507 23.077018732458605 L 1537.6768014265397 23.00054215019596 L 1537.568482265305 22.923572065660405 L 1537.4618711631724 22.846116175796254 L 1537.3569787811637 22.768182226127944 L 1537.253815608429 22.6897780099855 L 1537.1523919612002 22.610911367725194 L 1537.052717981757 22.53159018594554 L 1536.954803637415 22.451822396698603 L 1536.8586587195264 22.37161597669684 L 1536.764292842503 22.29097894651542 L 1536.6717154428538 22.209919369790153 L 1536.580935778242 22.128445352411166 L 1536.491962926558 22.046565041712302 L 1536.4048057850132 21.9642866256564 L 1536.3194730692487 21.881618332016497 L 1536.2359733124654 21.79856842755307 L 1536.154314864569 21.715145217187356 L 1536.0745058913365 21.631357043170873 L 1535.9965543735987 21.547212284251195 L 1535.920468106442 21.4627193548341 L 1535.8462546984304 21.377886704142114 L 1535.7739215708423 21.29272281536962 L 1535.7034759569306 21.207236204834516 L 1535.6349249011976 21.12143542112662 L 1535.568275258692 21.03532904425281 L 1535.5035336943224 20.948925684779006 L 1535.4407066821914 20.862233982969162 L 1535.3798005049478 20.77526260792121 L 1535.3208212531586 20.688020256700185 L 1535.2637748246996 20.600515653468506 L 1535.2086669241664 20.51275754861357 L 1535.1555030623028 20.424754717872737 L 1535.1042885554511 20.336515961455746 L 1535.0550285250192 20.2480501031647 L 1535.0077278969688 20.159365989511716 L 1534.9623914013237 20.07047248883425 L 1534.9190235716953 19.98137849040829 L 1534.8776287448306 19.89209290355944 L 1534.8382110601779 19.80262465677198 L 1534.8007744594727 19.712982696796026 L 1534.7653226863438 19.62317598775288 L 1534.731859285939 19.533213510238607 L 1534.7003876045706 19.443104260425986 L 1534.6709107893803 19.352857249164913 L 1534.6434317880253 19.262481501081304 L 1534.6179533483826 19.171986053674658 L 1534.5944780182751 19.0813799564143 L 1534.5730081452161 18.99067226983445 L 1534.5535458761753 18.899872064628184 L 1534.536093157363 18.80898842074035 L 1534.5206517340368 18.7180304264596 L 1534.5072231503261 18.627007177509565 L 1534.495808749078 18.53592777613929 L 1534.486409671723 18.44480133021301 L 1534.4790268581617 18.35363695229938 L 1534.4736610466684 18.26244375876022 L 1534.4703127738203 18.171230868838894 L 1534.4689823744416 18.08000740374838 L 1534.4696699815713 17.98878248575917 L 1534.4723755264495 17.89756523728704 L 1534.4770987385234 17.80636477998082 L 1534.4838391454762 17.71519023381025 L 1534.4925960732728 17.624050716153963 L 1534.5033686462273 17.532955340887774 L 1534.516155787092 17.4419132174733 L 1534.5309562171628 17.350933450047012 L 1534.5477684564096 17.26002513650984 L 1534.5665908236222 17.16919736761737 L 1534.5874214365795 17.07845922607082 L 1534.6102582122376 16.987819785608714 L 1534.6350988669383 16.897288110099574 L 1534.6619409166365 16.8068732526355 L 1534.6907816771495 16.716584254626905 L 1534.7216182644256 16.62643014489834 L 1534.7544475948316 16.536419938785652 L 1534.7892663854618 16.446562637234447 L 1534.826071154466 16.356867225899993 L 1534.8648582213984 16.26734267424868 L 1534.9056237075845 16.177997934661075 L 1534.9483635365093 16.08884194153668 L 1534.9930734342258 15.999883610400506 L 1535.0397489297816 15.911131837011538 L 1535.0883853556659 15.82259549647316 L 1535.1389778482765 15.734283442345639 L 1535.1915213484065 15.6462045057608 L 1535.2460106017495 15.558367494538897 L 1535.3024401594257 15.47078119230786 L 1535.3608043785264 15.383454357624922 L 1535.4210974226783 15.296395723100778 L 1535.483313262627 15.209613994526332 L 1535.5474456768407 15.123117850002128 L 1535.6134882521312 15.036915939070532 L 1535.6814343842962 14.951016881850805 L 1535.7512772787788 14.865429268177088 L 1535.823009951348 14.780161656739425 L 1535.8966252287964 14.695222574227904 L 1535.9721157496574 14.610620514479992 L 1536.0494739649416 14.526363937631164 L 1536.1286921388926 14.44246126926889 L 1536.2097623497584 14.358920899590089 L 1536.2926764905856 14.27575118256211 L 1536.3774262700294 14.19296043508735 L 1536.4640032131827 14.110556936171564 L 1536.5523986624225 14.028548926095976 L 1536.6426037782785 13.946944605593249 L 1536.7346095403136 13.865752135027433 L 1536.8284067480286 13.784979633577926 L 1536.9239860217808 13.704635178427559 L 1537.0213378037226 13.624726803954896 L 1537.1204523587567 13.545262500930793 L 1537.2213197755102 13.466250215719334 L 1537.3239299673257 13.387697849483194 L 1537.4282726732695 13.30961325739354 L 1537.5343374591578 13.23200424784451 L 1537.6421137186005 13.154878581672381 L 1537.7515906740614 13.078243971379504 L 1537.8627573779363 13.002108080363044 L 1537.9756027136473 12.926478522148656 L 1538.090115396755 12.851362859629138 L 1538.2062839760863 12.776768604308145 L 1538.3240968348803 12.702703215549048 L 1538.4435421919493 12.629174099829003 L 1538.564608102857 12.556188609998305 L 1538.6872824611132 12.483754044545117 L 1538.8115529993845 12.411877646865625 L 1538.9374072907206 12.340566604539697 L 1539.0648327497968 12.26982804861214 L 1539.193816634174 12.199669052879603 L 1539.3243460455708 12.130096633183188 L 1539.4564079311551 12.06111774670689 L 1539.5899890848482 11.992739291281874 L 1539.7250761486462 11.924968104696699 L 1539.8616556139552 11.857810964013552 L 1539.9997138229426 11.791274584890534 L 1540.1392369699022 11.725365620910111 L 1540.280211102636 11.660090662913756 L 1540.4226221238482 11.595456238342878 L 1540.566455792555 11.531468810586066 L 1540.7116977255096 11.468134778332775 L 1540.8583333986398 11.405460474933456 L 1541.0063481485004 11.343452167766216 L 1541.1557271737397 11.282116057610097 L 1541.30645553658 11.221458278025008 L 1541.4585181643101 11.16148489473835 L 1541.611899850794 11.10220190503848 L 1541.7665852579914 11.043615237174969 L 1541.92255891749 10.985730749765775 L 1542.0798052320542 10.928554231211407 L 1542.2383084771832 10.87209139911607 L 1542.3980528026846 10.816347899715922 L 1542.5590222342594 10.76132930731445 L 1542.7212006750979 10.707041123725045 L 1542.8845719074918 10.653488777720831 L 1543.0491195944537 10.600677624491773 L 1543.214827281352 10.548612945109191 L 1543.3816783975562 10.497299945997636 L 1543.5496562580938 10.446743758414254 L 1543.7187440653186 10.396949437935678 L 1543.888924910591 10.347921963952459 L 1544.0601817759677 10.299666239171138 L 1544.2324975359054 10.252187089123984 L 1544.4058549589718 10.20548926168643 L 1544.5802367095687 10.159577426602311 L 1544.7556253496664 10.114456175016873 L 1544.9320033405472 10.070130019017672 L 1545.109353044559 10.026603391183372 L 1545.287656726879 9.983880644140482 L 1545.4668965572878 9.941966050128107 L 1545.6470546119515 9.900863800570718 L 1545.8281128752149 9.86057800565902 L 1546.0100532414026 9.82111269393893 L 1546.1928575166294 9.782471811908737 L 1546.3765074206203 9.744659223624438 L 1546.5609845885378 9.707678710313356 L 1546.746270572819 9.671533969996 L 1546.9323468450198 9.636228617116288 L 1547.119194797668 9.60176618218008 L 1547.306795746124 9.568150111402154 L 1547.4951309304495 9.535383766361576 L 1547.6841815172827 9.503470423665544 L 1547.8739286017228 9.472413274621731 L 1548.0643532092192 9.442215424919162 L 1548.25543629747 9.412879894317644 L 1548.4471587583255 9.384409616345788 L 1548.6395014196996 9.35680743800767 L 1548.832445047486 9.330076119498116 L 1549.0259703474833 9.304218333926707 L 1549.2200579673224 9.27923666705045 L 1549.414688498403 9.255133617015213 L 1549.6098424778345 9.231911594105915 L 1549.8055003903812 9.209572920505497 L 1550.001642670415 9.1881198300627 L 1550.1982497038716 9.167554468068694 L 1550.3953018302113 9.147878891042538 L 1550.592779344386 9.129095066525542 L 1550.7906624988082 9.1112048728845 L 1550.9889315053276 9.09421009912387 L 1551.187566537209 9.078112444706866 L 1551.3865477311147 9.062913519385516 L 1551.585855189091 9.048614843039683 L 1551.7854689805583 9.03521784552509 L 1551.9853691443036 9.022723866530322 L 1552.1855356904773 9.011134155442866 L 1552.3859486025915 9.000449871224175 L 1552.586587839522 8.990672082293766 L 1552.7874333375125 8.981801766422386 L 1552.9884650121803 8.973839810634226 L 1553.1896627605256 8.966787011118234 L 1553.3910064629413 8.960644073148481 L 1553.5924759852246 8.955411611013648 L 1553.7940511805916 8.951090147955588 L 1553.9957118916905 8.947680116117002 L 1554.1974379526182 8.945181856498236 L 1554.3992091909367 8.943595618923167 L 1554.6010054296908 8.942921562014233 L 1554.802806489424 8.94315975317656 L 1555.004592190199 8.944310168591237 L 1555.2063423536138 8.946372693217674 L 1555.40803680482 8.949347120805129 L 1555.609655374541 8.953233153913324 L 1555.8111779010874 8.958030403942185 L 1556.0125842323746 8.963738391170708 L 1556.2138542279374 8.970356544804925 L 1556.4149677609437 8.97788420303499 L 1556.6159047202082 8.98632061310135 L 1556.8166450122021 8.99566493137003 L 1557.0171685630637 9.00591622341699 L 1557.217455320605 9.017073464121571 L 1557.417485256317 9.029135537768996 L 1557.6172383673727 9.042101238161953 L 1557.816694678628 9.055969268741208 L 1558.0158342446173 9.070738242715262 L 1558.2146371515505 9.086406683199021 L 1558.4130835193023 9.102973023361494 L 1558.6111535034013 9.120435606582474 L 1558.8088272970142 9.138792686618187 L 1559.0060851329263 9.158042427775927 L 1559.2029072855187 9.178182905097621 L 1559.3992740727397 9.199212104552322 L 1559.5951658580746 9.221127923237606 L 1559.7905630525077 9.243928169589871 L 1559.9854461164828 9.267610563603478 L 1560.1797955618556 9.292172737058763 L 1560.3735919538437 9.317612233758847 L 1560.5668159129696 9.343926509775264 L 1560.7594481169979 9.371112933702335 L 1560.951469302869 9.399168786920328 L 1561.1428602686244 9.428091263867296 L 1561.3336018753268 9.45787747231965 L 1561.5236750489748 9.488524433681365 L 1561.713060782409 9.520029083281843 L 1561.9017401372143 9.55238827068238 L 1562.0896942456122 9.585598759991202 L 1562.2769043123485 9.619657230187048 L 1562.4633516165727 9.654560275451288 L 1562.6490175137096 9.690304405508478 L 1562.8338834373242 9.726886045975398 L 1563.0179309009784 9.764301538718486 L 1563.2011415000788 9.802547142219648 L 1563.3834969137185 9.841619031950406 L 1563.564978906508 9.881513300754346 L 1563.7455693303993 9.92222595923783 L 1563.9252501265007 9.963752936168941 L 1564.1040033268819 10.00609007888459 L 1564.281811056372 10.049233153705785 L 1564.458655534346 10.093177846360998 L 1564.634519076504 10.137919762417582 L 1564.809384096638 10.18345442772122 L 1564.9832331083917 10.229777288843323 L 1565.1560487270087 10.276883713536382 L 1565.3278136710717 10.324768991197185 L 1565.4985107642287 10.373428333337866 L 1565.668122936913 10.422856874064767 L 1565.8366332280489 10.473049670564997 L 1566.004024786747 10.52400170360074 L 1566.1702808739917 10.575707878011151 L 1566.3353848643126 10.628163023221877 L 1566.499320247448 10.681361893762105 L 1566.6620706299962 10.73529916978912 L 1566.8236197370547 10.789969457620263 L 1566.9839514138478 10.84536729027231 L 1567.1430496273408 10.90148712800816 L 1567.3008984678452 10.958323358890807 L 1567.4574821506085 11.015870299344526 L 1567.612785017393 11.074122194723225 L 1567.7667915380412 11.133073219885913 L 1567.9194863120294 11.192717479779198 L 1568.0708540700077 11.253049010026789 L 1568.2208796753264 11.314061777525946 L 1568.36954812555 11.375749681050758 L 1568.5168445539568 11.43810655186228 L 1568.6627542310275 11.501126154325393 L 1568.8072625659156 11.564802186532368 L 1568.950355107908 11.629128280933049 L 1569.09201754787 11.6940980049716 L 1569.2322357196751 11.759704861729757 L 1569.3709956016237 11.825942290576517 L 1569.5082833178428 11.892803667824193 L 1569.6440851396753 11.96028230739078 L 1569.778387487052 12.02837146146855 L 1569.9111769298504 12.097064321198838 L 1570.0424401892367 12.166354017352914 L 1570.1721641389943 12.236233621018904 L 1570.3003358068363 12.306696144294676 L 1570.426942375703 12.377734540986618 L 1570.5519711850427 12.449341707314261 L 1570.6754097320788 12.521510482620645 L 1570.7972456730595 12.594233650088377 L 1570.917466824492 12.667503937461316 L 1571.0360611643616 12.741314017771781 L 1571.1530168333331 12.815656510073252 L 1571.268322135937 12.890523980178447 L 1571.3819655417394 12.965908941402748 L 1571.4939356864938 13.04180385531285 L 1571.6042213732796 13.11820113248061 L 1571.71281157362 13.195093133241976 L 1571.819695428585 13.272472168460947 L 1571.9248622498785 13.350330500298481 L 1572.028301520906 13.42866034298628 L 1572.1300028978267 13.507453863605349 L 1572.2299562105875 13.586703182869286 L 1572.3281514639405 13.666400375912204 L 1572.424578838442 13.746537473081217 L 1572.519228691435 13.827106460733386 L 1572.6120915580132 13.908099282037085 L 1572.7031581519673 13.989507837777682 L 1572.7924193667136 14.071323987167439 L 1572.8798662762053 14.1535395486596 L 1572.9654901358242 14.236146300766524 L 1573.0492823832556 14.319135982881845 L 1573.1312346393445 14.402500296106505 L 1573.211338708934 14.486230904078653 L 1573.2895865816834 14.570319433807267 L 1573.3659704328709 14.654757476509447 L 1573.440482624175 14.739536588451287 L 1573.5131157044389 14.824648291792245 L 1573.5838624104147 14.910084075432911 L 1573.6527156674908 14.995835395866116 L 1573.7196685903991 15.081893678031278 L 1573.784714483903 15.168250316171896 L 1573.8478468434673 15.254896674696116 L 1573.9090593559085 15.341824089040294 L 1573.9683459000269 15.429023866535433 L 1574.025700547217 15.516487287276451 L 1574.081117562062 15.604205604994158 L 1574.1345914029066 15.692170047929883 L 1574.1861167224115 15.780371819712634 L 1574.2356883680875 15.868802100238737 L 1574.283301382811 15.957452046553826 L 1574.328951005321 16.046312793737147 L 1574.3726326706924 16.135375455788033 L 1574.4143420107957 16.2246311265145 L 1574.4540748547315 16.314070880423845 L 1574.4918272292482 16.40368577361522 L 1574.5275953591404 16.49346684467398 L 1574.5613756676244 16.583405115567835 L 1574.5931647766977 16.67349159254465 L 1574.6229595074758 16.763717267031794 L 1574.6507568805107 16.85407311653701 L 1574.676554116088 16.944550105550636 L 1574.7003486345056 17.03513918644918 L 1574.722138056332 17.12583130040003 L 1574.7419202026424 17.216617378267376 L 1574.759693095239 17.307488341519083 L 1574.7754549568476 17.398435103134553 L 1574.7892042112949 17.48944856851341 L 1574.800939483667 17.580519636384963 L 1574.8106596004463 17.67163919971832 L 1574.8183635896296 17.762798146633074 L 1574.8240506808238 17.8539873613105 L 1574.827720305325 17.945197724905128 L 1574.8293720961738 18.0364201164566 M 1574.829474472375 47.09187800570001 L 1574.8284654678412 47.18310231293715 L 1574.825438555139 47.27431749781959 L 1574.8203940369576 47.365514438904846 L 1574.8133324177445 47.45668401657481 L 1574.8042544036555 47.547817113947694 L 1574.7931609024845 47.638904617789706 L 1574.7800530235725 47.729937419426356 L 1574.7649320776964 47.82090641565335 L 1574.7477995769382 47.91180250964687 L 1574.7286572345338 48.002616611873265 L 1574.7075069647012 48.09333964099798 L 1574.6843508824502 48.18396252479373 L 1574.6591913033694 48.27447620104763 L 1574.6320307433957 48.36487161846748 L 1574.6028719185629 48.45513973758689 L 1574.5717177447286 48.54527153166916 L 1574.5385713372846 48.63525798760998 L 1574.5034360108439 48.72509010683876 L 1574.4663152789099 48.81475890621844 L 1574.4272128535247 48.90425541894379 L 1574.3861326448985 48.99357069543812 L 1574.3430787610178 49.082695804248225 L 1574.2980555072352 49.17162183293748 L 1574.2510673858385 49.26033988897713 L 1574.2021190956007 49.34884110063549 L 1574.1512155313098 49.43711661786516 L 1574.09836178328 49.525157613187965 L 1574.0435631368423 49.61295528257775 L 1573.9868250718155 49.70050084634074 L 1573.9281532619586 49.78778554999351 L 1573.867553574404 49.87480066513843 L 1573.8050320690697 49.961537490336504 L 1573.7405949980543 50.04798735197749 L 1573.6742488050113 50.134141605147256 L 1573.6060001245044 50.2199916344923 L 1573.535855781345 50.305528855081214 L 1573.4638227899088 50.39074471326322 L 1573.3899083534352 50.47563068752352 L 1573.3141198633061 50.56017828933542 L 1573.2364648983073 50.64437906400919 L 1573.1569512238707 50.72822459153755 L 1573.0755867912974 50.8117064874376 L 1572.9923797369627 50.894816403589324 L 1572.907338381503 50.97754602907036 L 1572.8204712289828 51.059887090987104 L 1572.7317869660449 51.14183135530199 L 1572.641294461042 51.22337062765686 L 1572.5490027631488 51.304496754192435 L 1572.4549211014585 51.38520162236367 L 1572.3590588840586 51.46547716175098 L 1572.2614256970912 51.545315344867355 L 1572.1620313037934 51.62470818796099 L 1572.060885643522 51.70364775181375 L 1571.9579988307582 51.78212614253502 L 1571.8533811540983 51.86013551235114 L 1571.7470430752223 51.93766806039013 L 1571.6389952278494 52.014716033461795 L 1571.5292484166746 52.09127172683303 L 1571.4178136162873 52.1673274849983 L 1571.304701970075 52.242875702445176 L 1571.1899247891076 52.31790882441486 L 1571.073493551008 52.39241934765768 L 1570.9554198988028 52.4663998211834 L 1570.8357156397585 52.539842847006334 L 1570.7143927442019 52.612741080885094 L 1570.591463344321 52.68508723305703 L 1570.4669397329535 52.756874068967235 L 1570.3408343623566 52.82809440999192 L 1570.2131598429626 52.89874113415634 L 1570.083928942117 52.96880717684695 L 1569.9531545828017 53.03828553151787 L 1569.8208498423442 53.107169250391536 L 1569.687027951108 53.175451445153456 L 1569.5517022911706 53.243125287641064 L 1569.4148863949856 53.31018401052649 L 1569.2765939440285 53.37662090799334 L 1569.136838767429 53.44242933640724 L 1568.9956348405885 53.507602714980166 L 1568.8529962837817 53.572134526428584 L 1568.7089373607457 53.63601831762513 L 1568.5634724772526 53.699247700243916 L 1568.4166161796697 53.76181635139937 L 1568.2683831535041 53.82371801427851 L 1568.1187882219353 53.884946498766645 L 1567.9678463443313 53.945495682066344 L 1567.8155726147545 54.00535950930974 L 1567.6619822604507 54.064531994163985 L 1567.5070906403275 54.123007219429915 L 1567.3509132434176 54.18077933763372 L 1567.193465687331 54.237842571611736 L 1567.0347637166915 54.294191215088105 L 1566.8748232015644 54.349819633245446 L 1566.7136601358677 54.4047222632883 L 1566.5512906357737 54.45889361499941 L 1566.387730938097 54.512328271288744 L 1566.2229973986716 54.56502088873521 L 1566.0571064907135 54.61696619812098 L 1565.8900748031754 54.66815900495838 L 1565.7219190390872 54.718594190009405 L 1565.5526560138849 54.76826670979758 L 1565.3823026537298 54.817171597112306 L 1565.2108759938164 54.865303961505624 L 1565.0383931766676 54.912658989781185 L 1564.864871450421 54.95923194647564 L 1564.6903281671055 55.00501817433212 L 1564.5147807809035 55.050013094766 L 1564.338246846407 55.09421220832273 L 1564.160744016863 55.137611095127795 L 1563.9822900424058 55.180205415328665 L 1563.8029027682849 55.22199090952882 L 1563.6226001330776 55.26296339921367 L 1563.4414001668977 55.30311878716838 L 1563.2593209895902 55.342453057887624 L 1563.0763808089216 55.3809622779771 L 1562.8925979187575 55.418642596546896 L 1562.7079906972335 55.45549024559656 L 1562.522577604918 55.49150154039188 L 1562.3363771829659 55.5266728798334 L 1562.149408051264 55.56100074681648 L 1561.9616889065696 55.594481708583025 L 1561.7732385206411 55.627112417064765 L 1561.5840757383596 55.658889609218036 L 1561.3942194758463 55.689810107350105 L 1561.2036887185686 55.719870819436935 L 1561.0125025194438 55.74906873943235 L 1560.8206799969323 55.77740094756871 L 1560.6282403331268 55.80486461064878 L 1560.435202771833 55.83145698232916 L 1560.2415866166464 55.857175403394834 L 1560.047411229021 55.88201730202513 L 1559.852696026334 55.90598019405088 L 1559.657460479943 55.92906168320286 L 1559.46172411324 55.95125946135139 L 1559.265506499699 55.972571308737145 L 1559.0688272609175 55.99299509419315 L 1558.8717060646557 56.01252877535787 L 1558.6741626228686 56.03117039887948 L 1558.476216689736 56.04891810061116 L 1558.2778880596861 56.065770105797526 L 1558.079196565417 56.081724729252095 L 1557.8801620759123 56.096780375525825 L 1557.6808044944548 56.11093553906663 L 1557.481143756637 56.12418880436996 L 1557.2811998283662 56.13653884612032 L 1557.0809927038683 56.14798442932383 L 1556.8805424036893 56.158524409431706 L 1556.6798689726918 56.16815773245473 L 1556.478992478052 56.17688343506861 L 1556.277933007252 56.184700644710375 L 1556.076710666071 56.19160857966556 L 1555.8753455765757 56.197606549146435 L 1555.673857875107 56.20269395336105 L 1555.4722677102673 56.20687028357321 L 1555.2705952409053 56.21013512215339 L 1555.0688606340993 56.212488142620444 L 1554.8670840631426 56.2139291096743 L 1554.6652857055235 56.21445787921943 L 1554.46348574091 56.21407439837934 L 1554.2617043491305 56.21277870550178 L 1554.0599617081555 56.21057093015497 L 1553.8582779920814 56.2074512931146 L 1553.6566733691116 56.203420106341774 L 1553.4551679995402 56.19847777295181 L 1553.2537820337368 56.192624787173926 L 1553.0525356101296 56.18586173430183 L 1552.8514488531935 56.17818929063517 L 1552.6505418714366 56.16960822341191 L 1552.4498347553895 56.16011939073163 L 1552.2493475755969 56.14972374146969 L 1552.0491003806094 56.13842231518235 L 1551.8491131949797 56.12621624200283 L 1551.6494060172597 56.113106742528274 L 1551.449998818001 56.099095127697694 L 1551.2509115377568 56.084182798660905 L 1551.0521640850898 56.06837124663838 L 1550.8537763345794 56.051662052772144 L 1550.655768124835 56.034056887967665 L 1550.4581592565132 56.01555751272676 L 1550.2609694903358 55.996165776971516 L 1550.0642185451152 55.97588361985936 L 1549.8679260957817 55.954713069589104 L 1549.6721117714171 55.93265624319813 L 1549.4767951532904 55.9097153463507 L 1549.2819957729005 55.885892673117375 L 1549.0877331100232 55.861190605745634 L 1548.8940265907634 55.835611614421616 L 1548.7008955856109 55.80915825702316 L 1548.5083594075056 55.781833178863934 L 1548.3164373099048 55.753639112429 L 1548.1251484848583 55.72457887710151 L 1547.9345120610892 55.69465537888076 L 1547.7445471020812 55.66387161009166 L 1547.555272604172 55.63223064908542 L 1547.366707494653 55.59973565993178 L 1547.1788706298785 55.56638989210258 L 1546.9917807933787 55.5321966801468 L 1546.8054566939807 55.497159443357155 L 1546.6199169639397 55.46128168542812 L 1546.4351801570735 55.4245669941056 L 1546.2512647469096 55.387019040828115 L 1546.0681891248353 55.34864158035972 L 1545.8859715982603 55.30943845041446 L 1545.7046303887855 55.269413571272686 L 1545.5241836303805 55.22857094538894 L 1545.344649367571 55.18691465699178 L 1545.1660455536337 55.14444887167533 L 1544.988390048801 55.10117783598274 L 1544.8117006184755 55.05710587698152 L 1544.6359949314526 55.01223740183083 L 1544.461290558155 54.96657689734081 L 1544.2876049688746 54.92012892952385 L 1544.114955532025 54.87289814313803 L 1543.9433595124065 54.82488926122262 L 1543.7728340694775 54.77610708462583 L 1543.603396255641 54.72655649152463 L 1543.4350630145366 54.67624243693707 L 1543.267851179348 54.62516995222667 L 1543.1017774711202 54.57334414459934 L 1542.9368584970848 54.52077019659265 L 1542.773110749002 54.467453365557596 L 1542.6105506015103 54.41339898313285 L 1542.449194310489 54.358612454711604 L 1542.2890580114324 54.30309925890105 L 1542.1301577178374 54.24686494697451 L 1541.9725093196007 54.18991514231631 L 1541.8161285814308 54.13225553985946 L 1541.6610311412712 54.073891905516156 L 1541.5072325087365 54.014830075601196 L 1541.354748063562 53.95507595624835 L 1541.2035930540653 53.89463552281976 L 1541.053782595621 53.83351481930841 L 1540.9053316691504 53.77171995773371 L 1540.7582551196222 53.70925711753032 L 1540.612567654569 53.64613254493022 L 1540.4682838426158 53.582352552338044 L 1540.3254181120235 53.51792351769993 L 1540.1839847492463 53.45285188386562 L 1540.0439978975023 53.3871441579443 L 1539.9054715553605 53.320806910653786 L 1539.768419575339 53.25384677566353 L 1539.6328556625224 53.186270448931246 L 1539.4987933731884 53.11808468803328 L 1539.3662461134543 53.049296311488895 L 1539.235227137936 52.97991219807844 L 1539.1057495484213 52.909939286155414 L 1538.9778262925618 52.83938457295272 L 1538.851470162576 52.76825511388287 L 1538.726693793972 52.6965580218325 L 1538.6035096642825 52.62430046645107 L 1538.4819300918177 52.5514896734339 L 1538.361967234434 52.47813292379962 L 1538.2436330883163 52.40423755316206 L 1538.1269394867816 52.3298109509967 L 1538.0118980990922 52.25486055990175 L 1537.898520429291 52.179393874853844 L 1537.7868178150507 52.103418442458604 L 1537.6768014265397 52.02694186019596 L 1537.568482265305 51.94997177566041 L 1537.4618711631724 51.87251588579626 L 1537.3569787811637 51.79458193612795 L 1537.253815608429 51.7161777199855 L 1537.1523919612002 51.6373110777252 L 1537.052717981757 51.55798989594554 L 1536.954803637415 51.47822210669861 L 1536.8586587195264 51.398015686696844 L 1536.764292842503 51.31737865651542 L 1536.6717154428538 51.23631907979016 L 1536.580935778242 51.15484506241117 L 1536.491962926558 51.072964751712306 L 1536.4048057850132 50.990686335656406 L 1536.3194730692487 50.9080180420165 L 1536.2359733124654 50.82496813755307 L 1536.154314864569 50.74154492718736 L 1536.0745058913365 50.65775675317087 L 1535.9965543735987 50.573611994251195 L 1535.920468106442 50.4891190648341 L 1535.8462546984304 50.40428641414212 L 1535.7739215708423 50.31912252536962 L 1535.7034759569306 50.233635914834515 L 1535.6349249011976 50.14783513112663 L 1535.568275258692 50.06172875425281 L 1535.5035336943224 49.975325394779006 L 1535.4407066821914 49.888633692969165 L 1535.3798005049478 49.80166231792121 L 1535.3208212531586 49.71441996670019 L 1535.2637748246996 49.626915363468505 L 1535.2086669241664 49.53915725861357 L 1535.1555030623028 49.45115442787274 L 1535.1042885554511 49.362915671455745 L 1535.0550285250192 49.27444981316471 L 1535.0077278969688 49.18576569951172 L 1534.9623914013237 49.09687219883425 L 1534.9190235716953 49.007778200408296 L 1534.8776287448306 48.918492613559444 L 1534.8382110601779 48.82902436677198 L 1534.8007744594727 48.73938240679603 L 1534.7653226863438 48.64957569775289 L 1534.731859285939 48.55961322023861 L 1534.7003876045706 48.46950397042599 L 1534.6709107893803 48.37925695916492 L 1534.6434317880253 48.28888121108131 L 1534.6179533483826 48.198385763674665 L 1534.5944780182751 48.1077796664143 L 1534.5730081452161 48.017071979834455 L 1534.5535458761753 47.92627177462819 L 1534.536093157363 47.835388130740355 L 1534.5206517340368 47.744430136459606 L 1534.5072231503261 47.65340688750957 L 1534.495808749078 47.562327486139296 L 1534.486409671723 47.47120104021301 L 1534.4790268581617 47.38003666229938 L 1534.4736610466684 47.28884346876023 L 1534.4703127738203 47.1976305788389 L 1534.4689823744416 47.10640711374838" stroke-miterlimit="10" stroke-width="2.3497561670000002" stroke-dasharray=""/></g><g><g/><text fill="black" stroke="none" font-family="sans-serif" font-size="8pt" font-style="normal" font-weight="normal" text-decoration="normal" x="1531.10502617325" y="71.045568814" text-anchor="start" dominant-baseline="alphabetic" xml:space="preserve">Database</text></g></g><g><path fill="white" stroke="black" paint-order="fill stroke markers" d=" M 289.21655134166673 120.80511117400002 L 303.0386464416667 120.80511117400002 L 303.0386464416667 581.0808780039999 L 289.21655134166673 581.0808780039999 L 289.21655134166673 120.80511117400002" stroke-miterlimit="10" stroke-width="1.1518412583333333" stroke-dasharray=""/><path fill="white" stroke="black" paint-order="fill stroke markers" d=" M 597.5005940520833 272.848157274 L 611.3226891520834 272.848157274 L 611.3226891520834 542.379011724 L 597.5005940520833 542.379011724 L 597.5005940520833 272.848157274" stroke-miterlimit="10" stroke-width="1.1518412583333333" stroke-dasharray=""/><path fill="white" stroke="black" paint-order="fill stroke markers" d=" M 604.4116416020834 464.97527916399997 L 618.2337367020834 464.97527916399997 L 618.2337367020834 503.67714544399996 L 604.4116416020834 503.67714544399996 L 604.4116416020834 464.97527916399997" stroke-miterlimit="10" stroke-width="1.1518412583333333" stroke-dasharray=""/><path fill="white" stroke="black" paint-order="fill stroke markers" d=" M 289.21655134166673 657.102401054 L 303.0386464416667 657.102401054 L 303.0386464416667 752.474857244 L 289.21655134166673 752.474857244 L 289.21655134166673 657.102401054" stroke-miterlimit="10" stroke-width="1.1518412583333333" stroke-dasharray=""/><path fill="white" stroke="black" paint-order="fill stroke markers" d=" M 289.21655134166673 811.909866174 L 303.0386464416667 811.909866174 L 303.0386464416667 1923.2063122140007 L 289.21655134166673 1923.2063122140007 L 289.21655134166673 811.909866174" stroke-miterlimit="10" stroke-width="1.1518412583333333" stroke-dasharray=""/><path fill="white" stroke="black" paint-order="fill stroke markers" d=" M 597.5005940520833 963.9529122739999 L 611.3226891520834 963.9529122739999 L 611.3226891520834 1884.5044459340006 L 597.5005940520833 1884.5044459340006 L 597.5005940520833 963.9529122739999" stroke-miterlimit="10" stroke-width="1.1518412583333333" stroke-dasharray=""/><path fill="white" stroke="black" paint-order="fill stroke markers" d=" M 1047.0530777666668 1462.9305453840002 L 1060.8751728666666 1462.9305453840002 L 1060.8751728666666 1731.0791903240006 L 1047.0530777666668 1731.0791903240006 L 1047.0530777666668 1462.9305453840002" stroke-miterlimit="10" stroke-width="1.1518412583333333" stroke-dasharray=""/><path fill="white" stroke="black" paint-order="fill stroke markers" d=" M 1375.9149207617918 1501.6324116640003 L 1389.7370158617916 1501.6324116640003 L 1389.7370158617916 1957.7615499640006 L 1375.9149207617918 1957.7615499640006 L 1375.9149207617918 1501.6324116640003" stroke-miterlimit="10" stroke-width="1.1518412583333333" stroke-dasharray=""/><path fill="white" stroke="black" paint-order="fill stroke markers" d=" M 1382.8259683117917 1558.3030015740003 L 1396.6480634117916 1558.3030015740003 L 1396.6480634117916 1635.7067341340003 L 1382.8259683117917 1635.7067341340003 L 1382.8259683117917 1558.3030015740003" stroke-miterlimit="10" stroke-width="1.1518412583333333" stroke-dasharray=""/><g><g><rect fill="white" stroke="none" x="81.61709725583339" y="102.83638754400002" width="188.18178478" height="17.96872363"/></g><text fill="black" stroke="none" font-family="sans-serif" font-size="8pt" font-style="normal" font-weight="normal" text-decoration="normal" x="83.69041152083338" y="115.27627313400002" text-anchor="start" dominant-baseline="alphabetic" xml:space="preserve">mousePressed(x : Integer, y : Integer)</text></g><g><path fill="none" stroke="black" paint-order="fill stroke markers" d=" M 62.19942795 120.80511117400002 L 277.8363597093334 120.80511117400002" stroke-miterlimit="10" stroke-width="1.1518412583333333" stroke-dasharray=""/><g transform="translate(289.21655134166673,120.80511117400002) translate(-289.21655134166673,-120.80511117400002)"><path fill="black" stroke="none" paint-order="stroke fill markers" d=" M 277.6981387583334 115.04590488233335 L 289.21655134166673 120.80511117400002 L 277.6981387583334 126.56431746566669 Z"/></g></g><g><g><rect fill="white" stroke="none" x="319.39479230999996" y="141.53825382400004" width="139.56801524875" height="17.96872363"/></g><text fill="black" stroke="none" font-family="sans-serif" font-size="8pt" font-style="normal" font-weight="normal" text-decoration="normal" x="321.468106575" y="153.97813941400005" text-anchor="start" dominant-baseline="alphabetic" xml:space="preserve">sn := yToScreen(y : Integer)</text></g><g><path fill="none" stroke="black" paint-order="fill stroke markers" d=" M 303.0386464416667 159.50697745400004 L 358.3270268416667 159.50697745400004 L 358.3270268416667 177.47570108400004 L 314.418838074 177.47570108400004" stroke-miterlimit="10" stroke-width="1.1518412583333333" stroke-dasharray=""/><g transform="translate(303.0386464416667,177.47570108400004) translate(-303.0386464416667,-177.47570108400004)"><path fill="black" stroke="none" paint-order="stroke fill markers" d=" M 314.557059025 171.71649479233338 L 303.0386464416667 177.47570108400004 L 314.557059025 183.2349073756667 Z"/></g></g><g><g><rect fill="white" stroke="none" x="319.39479230999996" y="198.20884373400003" width="137.9190894675" height="17.96872363"/></g><text fill="black" stroke="none" font-family="sans-serif" font-size="8pt" font-style="normal" font-weight="normal" text-decoration="normal" x="321.468106575" y="210.64872932400004" text-anchor="start" dominant-baseline="alphabetic" xml:space="preserve">time := xToTime(x : Integer)</text></g><g><path fill="none" stroke="black" paint-order="fill stroke markers" d=" M 303.0386464416667 216.17756736400003 L 358.3270268416667 216.17756736400003 L 358.3270268416667 234.14629099400003 L 314.418838074 234.14629099400003" stroke-miterlimit="10" stroke-width="1.1518412583333333" stroke-dasharray=""/><g transform="translate(303.0386464416667,234.14629099400003) translate(-303.0386464416667,-234.14629099400003)"><path fill="black" stroke="none" paint-order="stroke fill markers" d=" M 314.557059025 228.38708470233337 L 303.0386464416667 234.14629099400003 L 314.557059025 239.90549728566668 Z"/></g></g><g><g><rect fill="white" stroke="none" x="337.43898176312496" y="254.87943364400002" width="225.6612769675" height="17.96872363"/></g><text fill="black" stroke="none" font-family="sans-serif" font-size="8pt" font-style="normal" font-weight="normal" text-decoration="normal" x="339.512296028125" y="267.31931923400003" text-anchor="start" dominant-baseline="alphabetic" xml:space="preserve">selectScreening(sn : String, time : LocalTime)</text></g><g><path fill="none" stroke="black" paint-order="fill stroke markers" d=" M 303.0386464416667 272.848157274 L 586.12040241975 272.848157274" stroke-miterlimit="10" stroke-width="1.1518412583333333" stroke-dasharray=""/><g transform="translate(597.5005940520833,272.848157274) translate(-597.5005940520833,-272.848157274)"><path fill="black" stroke="none" paint-order="stroke fill markers" d=" M 585.98218146875 267.08895098233336 L 597.5005940520833 272.848157274 L 585.98218146875 278.6073635656667 Z"/></g></g><g><g><rect fill="white" stroke="none" x="834.5865607048751" y="330.900956694" width="90.95961681125" height="17.96872363"/></g><text fill="black" stroke="none" font-family="sans-serif" font-size="8pt" font-style="normal" font-weight="normal" text-decoration="normal" x="836.6598749698751" y="343.340842284" text-anchor="start" dominant-baseline="alphabetic" xml:space="preserve">getScreenName()</text></g><g><path fill="none" stroke="black" paint-order="fill stroke markers" d=" M 611.3226891520834 348.869680324 L 1137.4298574365832 348.869680324" stroke-miterlimit="10" stroke-width="1.1518412583333333" stroke-dasharray=""/><g transform="translate(1148.8100490689167,348.869680324) translate(-1148.8100490689167,-348.869680324)"><path fill="black" stroke="none" paint-order="stroke fill markers" d=" M 1137.2916364855832 343.11047403233334 L 1148.8100490689167 348.869680324 L 1137.2916364855832 354.62888661566666 Z"/></g></g><g><g><rect fill="white" stroke="none" x="854.6637091423751" y="369.602822974" width="50.80531993625" height="17.96872363"/></g><text fill="black" stroke="none" font-family="sans-serif" font-size="8pt" font-style="normal" font-weight="normal" text-decoration="normal" x="856.7370234073751" y="382.042708564" text-anchor="start" dominant-baseline="alphabetic" xml:space="preserve">getTime()</text></g><g><path fill="none" stroke="black" paint-order="fill stroke markers" d=" M 611.3226891520834 387.571546604 L 1137.4298574365832 387.571546604" stroke-miterlimit="10" stroke-width="1.1518412583333333" stroke-dasharray=""/><g transform="translate(1148.8100490689167,387.571546604) translate(-1148.8100490689167,-387.571546604)"><path fill="black" stroke="none" paint-order="stroke fill markers" d=" M 1137.2916364855832 381.81234031233333 L 1148.8100490689167 387.571546604 L 1137.2916364855832 393.33075289566665 Z"/></g></g><g><g><rect fill="white" stroke="none" x="634.5898825704166" y="429.037831904" width="88.49965587375" height="17.96872363"/></g><text fill="black" stroke="none" font-family="sans-serif" font-size="8pt" font-style="normal" font-weight="normal" text-decoration="normal" x="636.6631968354167" y="441.477717494" text-anchor="start" dominant-baseline="alphabetic" xml:space="preserve">notifyObservers()</text></g><g><path fill="none" stroke="black" paint-order="fill stroke markers" d=" M 611.3226891520834 447.006555534 L 673.5221171020834 447.006555534 L 673.5221171020834 464.97527916399997 L 629.6139283344166 464.97527916399997" stroke-miterlimit="10" stroke-width="1.1518412583333333" stroke-dasharray=""/><g transform="translate(618.2337367020833,464.97527916399997) translate(-618.2337367020833,-464.97527916399997)"><path fill="black" stroke="none" paint-order="stroke fill markers" d=" M 629.7521492854166 459.2160728723333 L 618.2337367020833 464.97527916399997 L 629.7521492854166 470.73448545566663 Z"/></g></g><g><g><rect fill="white" stroke="none" x="431.16647819437503" y="485.70842181399996" width="45.117331655" height="17.96872363"/></g><text fill="black" stroke="none" font-family="sans-serif" font-size="8pt" font-style="normal" font-weight="normal" text-decoration="normal" x="433.23979245937505" y="498.148307404" text-anchor="start" dominant-baseline="alphabetic" xml:space="preserve">update()</text></g><g><path fill="none" stroke="black" paint-order="fill stroke markers" d=" M 604.4116416020834 503.67714544399996 L 314.418838074 503.67714544399996" stroke-miterlimit="10" stroke-width="1.1518412583333333" stroke-dasharray=""/><g transform="translate(303.0386464416667,503.67714544399996) translate(-303.0386464416667,-503.67714544399996)"><path fill="black" stroke="none" paint-order="stroke fill markers" d=" M 314.557059025 497.9179391523333 L 303.0386464416667 503.67714544399996 L 314.557059025 509.4363517356666 Z"/></g></g><g><g><rect fill="white" stroke="none" x="448.19630598187496" y="524.410288094" width="4.14662853" height="17.96872363"/></g><text fill="black" stroke="none" font-family="sans-serif" font-size="8pt" font-style="normal" font-weight="normal" text-decoration="normal" x="450.269620246875" y="536.8501736839999" text-anchor="start" dominant-baseline="alphabetic" xml:space="preserve"></text></g><g><path fill="none" stroke="black" paint-order="fill stroke markers" d=" M 597.5005940520833 542.379011724 L 314.418838074 542.379011724" stroke-miterlimit="10" stroke-width="1.1518412583333333" stroke-dasharray="5.52883804"/><g transform="translate(303.0386464416667,542.379011724) translate(-303.0386464416667,-542.379011724)"><path fill="black" stroke="none" paint-order="stroke fill markers" d=" M 314.557059025 536.6198054323332 L 303.0386464416667 542.379011724 L 314.557059025 548.1382180156667 Z"/></g></g><g><g><rect fill="white" stroke="none" x="173.6346753808334" y="563.1121543739999" width="4.14662853" height="17.96872363"/></g><text fill="black" stroke="none" font-family="sans-serif" font-size="8pt" font-style="normal" font-weight="normal" text-decoration="normal" x="175.70798964583338" y="575.5520399639998" text-anchor="start" dominant-baseline="alphabetic" xml:space="preserve"></text></g><g><path fill="none" stroke="black" paint-order="fill stroke markers" d=" M 289.21655134166673 581.0808780039999 L 73.57961958233334 581.0808780039999" stroke-miterlimit="10" stroke-width="1.1518412583333333" stroke-dasharray="5.52883804"/><g transform="translate(62.19942795,581.0808780039999) translate(-62.19942795,-581.0808780039999)"><path fill="black" stroke="none" paint-order="stroke fill markers" d=" M 73.71784053333333 575.3216717123332 L 62.19942795 581.0808780039999 L 73.71784053333333 586.8400842956667 Z"/></g></g><g><g><rect fill="white" stroke="none" x="85.89785897458339" y="639.133677424" width="179.6202613425" height="17.96872363"/></g><text fill="black" stroke="none" font-family="sans-serif" font-size="8pt" font-style="normal" font-weight="normal" text-decoration="normal" x="87.97117323958338" y="651.5735630139999" text-anchor="start" dominant-baseline="alphabetic" xml:space="preserve">mouseMoved(x : integer, y : integer)</text></g><g><path fill="none" stroke="black" paint-order="fill stroke markers" d=" M 62.19942795 657.102401054 L 277.8363597093334 657.102401054" stroke-miterlimit="10" stroke-width="1.1518412583333333" stroke-dasharray=""/><g transform="translate(289.21655134166673,657.102401054) translate(-289.21655134166673,-657.102401054)"><path fill="black" stroke="none" paint-order="stroke fill markers" d=" M 277.6981387583334 651.3431947623333 L 289.21655134166673 657.102401054 L 277.6981387583334 662.8616073456667 Z"/></g></g><g><g><rect fill="white" stroke="none" x="319.39479230999996" y="677.835543704" width="45.117331655" height="17.96872363"/></g><text fill="black" stroke="none" font-family="sans-serif" font-size="8pt" font-style="normal" font-weight="normal" text-decoration="normal" x="321.468106575" y="690.2754292939999" text-anchor="start" dominant-baseline="alphabetic" xml:space="preserve">update()</text></g><g><path fill="none" stroke="black" paint-order="fill stroke markers" d=" M 303.0386464416667 695.804267334 L 358.3270268416667 695.804267334 L 358.3270268416667 713.772990964 L 314.418838074 713.772990964" stroke-miterlimit="10" stroke-width="1.1518412583333333" stroke-dasharray=""/><g transform="translate(303.0386464416667,713.772990964) translate(-303.0386464416667,-713.772990964)"><path fill="black" stroke="none" paint-order="stroke fill markers" d=" M 314.557059025 708.0137846723333 L 303.0386464416667 713.772990964 L 314.557059025 719.5321972556667 Z"/></g></g><g><g><rect fill="white" stroke="none" x="173.6346753808334" y="734.506133614" width="4.14662853" height="17.96872363"/></g><text fill="black" stroke="none" font-family="sans-serif" font-size="8pt" font-style="normal" font-weight="normal" text-decoration="normal" x="175.70798964583338" y="746.9460192039999" text-anchor="start" dominant-baseline="alphabetic" xml:space="preserve"></text></g><g><path fill="none" stroke="black" paint-order="fill stroke markers" d=" M 289.21655134166673 752.474857244 L 73.57961958233334 752.474857244" stroke-miterlimit="10" stroke-width="1.1518412583333333" stroke-dasharray="5.52883804"/><g transform="translate(62.19942795,752.474857244) translate(-62.19942795,-752.474857244)"><path fill="black" stroke="none" paint-order="stroke fill markers" d=" M 73.71784053333333 746.7156509523332 L 62.19942795 752.474857244 L 73.71784053333333 758.2340635356667 Z"/></g></g><g><g><rect fill="white" stroke="none" x="78.55557381833339" y="793.941142544" width="194.304831655" height="17.96872363"/></g><text fill="black" stroke="none" font-family="sans-serif" font-size="8pt" font-style="normal" font-weight="normal" text-decoration="normal" x="80.62888808333338" y="806.3810281339998" text-anchor="start" dominant-baseline="alphabetic" xml:space="preserve">mouseReleased(x : Integer, y : Integer)</text></g><g><path fill="none" stroke="black" paint-order="fill stroke markers" d=" M 62.19942795 811.909866174 L 277.8363597093334 811.909866174" stroke-miterlimit="10" stroke-width="1.1518412583333333" stroke-dasharray=""/><g transform="translate(289.21655134166673,811.909866174) translate(-289.21655134166673,-811.909866174)"><path fill="black" stroke="none" paint-order="stroke fill markers" d=" M 277.6981387583334 806.1506598823332 L 289.21655134166673 811.909866174 L 277.6981387583334 817.6690724656667 Z"/></g></g><g><g><rect fill="white" stroke="none" x="319.39479230999996" y="832.6430088239999" width="139.56801524875" height="17.96872363"/></g><text fill="black" stroke="none" font-family="sans-serif" font-size="8pt" font-style="normal" font-weight="normal" text-decoration="normal" x="321.468106575" y="845.0828944139998" text-anchor="start" dominant-baseline="alphabetic" xml:space="preserve">sn := yToScreen(y : Integer)</text></g><g><path fill="none" stroke="black" paint-order="fill stroke markers" d=" M 303.0386464416667 850.6117324539999 L 358.3270268416667 850.6117324539999 L 358.3270268416667 868.5804560839999 L 314.418838074 868.5804560839999" stroke-miterlimit="10" stroke-width="1.1518412583333333" stroke-dasharray=""/><g transform="translate(303.0386464416667,868.5804560839999) translate(-303.0386464416667,-868.5804560839999)"><path fill="black" stroke="none" paint-order="stroke fill markers" d=" M 314.557059025 862.8212497923332 L 303.0386464416667 868.5804560839999 L 314.557059025 874.3396623756666 Z"/></g></g><g><g><rect fill="white" stroke="none" x="319.39479230999996" y="889.3135987339999" width="137.9190894675" height="17.96872363"/></g><text fill="black" stroke="none" font-family="sans-serif" font-size="8pt" font-style="normal" font-weight="normal" text-decoration="normal" x="321.468106575" y="901.7534843239998" text-anchor="start" dominant-baseline="alphabetic" xml:space="preserve">time := xToTime(x : Integer)</text></g><g><path fill="none" stroke="black" paint-order="fill stroke markers" d=" M 303.0386464416667 907.2823223639999 L 358.3270268416667 907.2823223639999 L 358.3270268416667 925.2510459939999 L 314.418838074 925.2510459939999" stroke-miterlimit="10" stroke-width="1.1518412583333333" stroke-dasharray=""/><g transform="translate(303.0386464416667,925.2510459939999) translate(-303.0386464416667,-925.2510459939999)"><path fill="black" stroke="none" paint-order="stroke fill markers" d=" M 314.557059025 919.4918397023332 L 303.0386464416667 925.2510459939999 L 314.557059025 931.0102522856666 Z"/></g></g><g><g><rect fill="white" stroke="none" x="319.39479230999996" y="945.9841886439999" width="261.74965587375" height="17.96872363"/></g><text fill="black" stroke="none" font-family="sans-serif" font-size="8pt" font-style="normal" font-weight="normal" text-decoration="normal" x="321.468106575" y="958.4240742339998" text-anchor="start" dominant-baseline="alphabetic" xml:space="preserve">changeSelected(time : LocalTime, sn : ScreenName)</text></g><g><path fill="none" stroke="black" paint-order="fill stroke markers" d=" M 303.0386464416667 963.9529122739999 L 586.12040241975 963.9529122739999" stroke-miterlimit="10" stroke-width="1.1518412583333333" stroke-dasharray=""/><g transform="translate(597.5005940520833,963.9529122739999) translate(-597.5005940520833,-963.9529122739999)"><path fill="black" stroke="none" paint-order="stroke fill markers" d=" M 585.98218146875 958.1937059823332 L 597.5005940520833 963.9529122739999 L 585.98218146875 969.7121185656666 Z"/></g></g><g><g><rect fill="white" stroke="none" x="627.6788350204167" y="1022.005711694" width="392.3155738425" height="17.96872363"/></g><text fill="black" stroke="none" font-family="sans-serif" font-size="8pt" font-style="normal" font-weight="normal" text-decoration="normal" x="629.7521492854167" y="1034.4455972839999" text-anchor="start" dominant-baseline="alphabetic" xml:space="preserve">checkSold(sg : Screening)                                                                                     </text></g><g><path fill="none" stroke="black" paint-order="fill stroke markers" d=" M 611.3226891520834 1039.9744353239998 L 666.6110695520834 1039.9744353239998 L 666.6110695520834 1057.943158954 L 622.7028807844167 1057.943158954" stroke-miterlimit="10" stroke-width="1.1518412583333333" stroke-dasharray=""/><g transform="translate(611.3226891520834,1057.943158954) translate(-611.3226891520834,-1057.943158954)"><path fill="black" stroke="none" paint-order="stroke fill markers" d=" M 622.8411017354167 1052.1839526623332 L 611.3226891520834 1057.943158954 L 622.8411017354167 1063.7023652456667 Z"/></g></g><g><g><rect fill="white" stroke="none" x="627.6788350204167" y="1136.7291010239999" width="393.80336681125" height="17.96872363"/></g><text fill="black" stroke="none" font-family="sans-serif" font-size="8pt" font-style="normal" font-weight="normal" text-decoration="normal" x="629.7521492854167" y="1149.168986614" text-anchor="start" dominant-baseline="alphabetic" xml:space="preserve">checkDoubleScreening(time : LocalTime, screenName : String, sg : Screening)  </text></g><g><path fill="none" stroke="black" paint-order="fill stroke markers" d=" M 611.3226891520834 1154.6978246539998 L 666.6110695520834 1154.6978246539998 L 666.6110695520834 1172.6665482839999 L 622.7028807844167 1172.6665482839999" stroke-miterlimit="10" stroke-width="1.1518412583333333" stroke-dasharray=""/><g transform="translate(611.3226891520834,1172.6665482839999) translate(-611.3226891520834,-1172.6665482839999)"><path fill="black" stroke="none" paint-order="stroke fill markers" d=" M 622.8411017354167 1166.9073419923332 L 611.3226891520834 1172.6665482839999 L 622.8411017354167 1178.4257545756666 Z"/></g></g><g><g><rect fill="white" stroke="none" x="627.6788350204167" y="1251.4524903539998" width="276.78334728" height="17.96872363"/></g><text fill="black" stroke="none" font-family="sans-serif" font-size="8pt" font-style="normal" font-weight="normal" text-decoration="normal" x="629.7521492854167" y="1263.892375944" text-anchor="start" dominant-baseline="alphabetic" xml:space="preserve">checkTimeAvailable()                                                       </text></g><g><path fill="none" stroke="black" paint-order="fill stroke markers" d=" M 611.3226891520834 1269.4212139839997 L 666.6110695520834 1269.4212139839997 L 666.6110695520834 1287.3899376139998 L 622.7028807844167 1287.3899376139998" stroke-miterlimit="10" stroke-width="1.1518412583333333" stroke-dasharray=""/><g transform="translate(611.3226891520834,1287.3899376139998) translate(-611.3226891520834,-1287.3899376139998)"><path fill="black" stroke="none" paint-order="stroke fill markers" d=" M 622.8411017354167 1281.630731322333 L 611.3226891520834 1287.3899376139998 L 622.8411017354167 1293.1491439056665 Z"/></g></g><g><g><rect fill="white" stroke="none" x="752.769800000625" y="1328.8562229139998" width="159.7472144675" height="17.96872363"/></g><text fill="black" stroke="none" font-family="sans-serif" font-size="8pt" font-style="normal" font-weight="normal" text-decoration="normal" x="754.843114265625" y="1341.296108504" text-anchor="start" dominant-baseline="alphabetic" xml:space="preserve">screen := getScreen(sn : String)</text></g><g><path fill="none" stroke="black" paint-order="fill stroke markers" d=" M 611.3226891520834 1346.8249465439999 L 1042.5839336843333 1346.8249465439999" stroke-miterlimit="10" stroke-width="1.1518412583333333" stroke-dasharray=""/><g transform="translate(1053.9641253166667,1346.8249465439999) translate(-1053.9641253166667,-1346.8249465439999)"><path fill="black" stroke="none" paint-order="stroke fill markers" d=" M 1042.4457127333333 1341.0657402523332 L 1053.9641253166667 1346.8249465439999 L 1042.4457127333333 1352.5841528356666 Z"/></g></g><g><g><rect fill="white" stroke="none" x="870.498828958" y="1367.5580891939999" width="130.47475353" height="17.96872363"/></g><text fill="black" stroke="none" font-family="sans-serif" font-size="8pt" font-style="normal" font-weight="normal" text-decoration="normal" x="872.572143223" y="1379.997974784" text-anchor="start" dominant-baseline="alphabetic" xml:space="preserve">setTime(time : LocalTime)</text></g><g><path fill="none" stroke="black" paint-order="fill stroke markers" d=" M 611.3226891520834 1385.526812824 L 1248.7695306615833 1385.526812824" stroke-miterlimit="10" stroke-width="1.1518412583333333" stroke-dasharray=""/><g transform="translate(1260.1497222939167,1385.526812824) translate(-1260.1497222939167,-1385.526812824)"><path fill="black" stroke="none" paint-order="stroke fill markers" d=" M 1248.6313097105833 1379.7676065323333 L 1260.1497222939167 1385.526812824 L 1248.6313097105833 1391.2860191156667 Z"/></g></g><g><g><rect fill="white" stroke="none" x="866.717578958" y="1406.259955474" width="138.03725353" height="17.96872363"/></g><text fill="black" stroke="none" font-family="sans-serif" font-size="8pt" font-style="normal" font-weight="normal" text-decoration="normal" x="868.790893223" y="1418.699841064" text-anchor="start" dominant-baseline="alphabetic" xml:space="preserve">setScreen(screen : Screen)</text></g><g><path fill="none" stroke="black" paint-order="fill stroke markers" d=" M 611.3226891520834 1424.228679104 L 1248.7695306615833 1424.228679104" stroke-miterlimit="10" stroke-width="1.1518412583333333" stroke-dasharray=""/><g transform="translate(1260.1497222939167,1424.228679104) translate(-1260.1497222939167,-1424.228679104)"><path fill="black" stroke="none" paint-order="stroke fill markers" d=" M 1248.6313097105833 1418.4694728123334 L 1260.1497222939167 1424.228679104 L 1248.6313097105833 1429.9878853956668 Z"/></g></g><g><g><rect fill="white" stroke="none" x="732.0274109912501" y="1444.961821754" width="194.32094493625" height="17.96872363"/></g><text fill="black" stroke="none" font-family="sans-serif" font-size="8pt" font-style="normal" font-weight="normal" text-decoration="normal" x="734.1007252562501" y="1457.4017073440002" text-anchor="start" dominant-baseline="alphabetic" xml:space="preserve">updateScreening(selected : Screening)</text></g><g><path fill="none" stroke="black" paint-order="fill stroke markers" d=" M 611.3226891520834 1462.9305453840002 L 1035.6728861343333 1462.9305453840002" stroke-miterlimit="10" stroke-width="1.1518412583333333" stroke-dasharray=""/><g transform="translate(1047.0530777666668,1462.9305453840002) translate(-1047.0530777666668,-1462.9305453840002)"><path fill="black" stroke="none" paint-order="stroke fill markers" d=" M 1035.5346651833333 1457.1713390923335 L 1047.0530777666668 1462.9305453840002 L 1035.5346651833333 1468.689751675667 Z"/></g></g><g><g><rect fill="white" stroke="none" x="1135.9110880179794" y="1483.6636880340002" width="164.9679175925" height="17.96872363"/></g><text fill="black" stroke="none" font-family="sans-serif" font-size="8pt" font-style="normal" font-weight="normal" text-decoration="normal" x="1137.9844022829793" y="1496.1035736240003" text-anchor="start" dominant-baseline="alphabetic" xml:space="preserve">updateScreening(sg : Screening)</text></g><g><path fill="none" stroke="black" paint-order="fill stroke markers" d=" M 1060.8751728666666 1501.6324116640003 L 1364.5347291294584 1501.6324116640003" stroke-miterlimit="10" stroke-width="1.1518412583333333" stroke-dasharray=""/><g transform="translate(1375.9149207617918,1501.6324116640003) translate(-1375.9149207617918,-1501.6324116640003)"><path fill="black" stroke="none" paint-order="stroke fill markers" d=" M 1364.3965081784584 1495.8732053723336 L 1375.9149207617918 1501.6324116640003 L 1364.3965081784584 1507.391617955667 Z"/></g></g><g><g><rect fill="white" stroke="none" x="1413.0042092801252" y="1522.3655543140003" width="136.80727306125" height="17.96872363"/></g><text fill="black" stroke="none" font-family="sans-serif" font-size="8pt" font-style="normal" font-weight="normal" text-decoration="normal" x="1415.0775235451251" y="1534.8054399040004" text-anchor="start" dominant-baseline="alphabetic" xml:space="preserve">performUpdate(sql : String)</text></g><g><path fill="none" stroke="black" paint-order="fill stroke markers" d=" M 1389.7370158617916 1540.3342779440004 L 1451.9364438117918 1540.3342779440004 L 1451.9364438117918 1558.3030015740003 L 1408.0282550441252 1558.3030015740003" stroke-miterlimit="10" stroke-width="1.1518412583333333" stroke-dasharray=""/><g transform="translate(1396.6480634117918,1558.3030015740003) translate(-1396.6480634117918,-1558.3030015740003)"><path fill="black" stroke="none" paint-order="stroke fill markers" d=" M 1408.1664759951252 1552.5437952823336 L 1396.6480634117918 1558.3030015740003 L 1408.1664759951252 1564.062207865667 Z"/></g></g><g><g><rect fill="white" stroke="none" x="1424.6661455665835" y="1579.0361442240005" width="101.964987905" height="17.96872363"/></g><text fill="black" stroke="none" font-family="sans-serif" font-size="8pt" font-style="normal" font-weight="normal" text-decoration="normal" x="1426.7394598315834" y="1591.4760298140006" text-anchor="start" dominant-baseline="alphabetic" xml:space="preserve">execute(sql : String)</text></g><g><path fill="none" stroke="black" paint-order="fill stroke markers" d=" M 1396.6480634117918 1597.0048678540004 L 1543.2690239940416 1597.0048678540004" stroke-miterlimit="10" stroke-width="1.1518412583333333" stroke-dasharray=""/><g transform="translate(1554.649215626375,1597.0048678540004) translate(-1554.649215626375,-1597.0048678540004)"><path fill="black" stroke="none" paint-order="stroke fill markers" d=" M 1543.1308030430416 1591.2456615623337 L 1554.649215626375 1597.0048678540004 L 1543.1308030430416 1602.764074145667 Z"/></g></g><g><g><rect fill="white" stroke="none" x="1413.0042092801252" y="1617.7380105040004" width="4.14662853" height="17.96872363"/></g><text fill="black" stroke="none" font-family="sans-serif" font-size="8pt" font-style="normal" font-weight="normal" text-decoration="normal" x="1415.0775235451251" y="1630.1778960940005" text-anchor="start" dominant-baseline="alphabetic" xml:space="preserve"></text></g><g><path fill="none" stroke="black" paint-order="fill stroke markers" d=" M 1396.6480634117918 1635.7067341340003 L 1451.9364438117918 1635.7067341340003 L 1451.9364438117918 1653.6754577640004 L 1401.1172074941253 1653.6754577640004" stroke-miterlimit="10" stroke-width="1.1518412583333333" stroke-dasharray="5.52883804"/><g transform="translate(1389.7370158617919,1653.6754577640004) translate(-1389.7370158617919,-1653.6754577640004)"><path fill="black" stroke="none" paint-order="stroke fill markers" d=" M 1401.2554284451253 1647.9162514723337 L 1389.7370158617919 1653.6754577640004 L 1401.2554284451253 1659.434664055667 Z"/></g></g><g><g><rect fill="white" stroke="none" x="1216.3217325492294" y="1674.4086004140004" width="4.14662853" height="17.96872363"/></g><text fill="black" stroke="none" font-family="sans-serif" font-size="8pt" font-style="normal" font-weight="normal" text-decoration="normal" x="1218.3950468142293" y="1686.8484860040005" text-anchor="start" dominant-baseline="alphabetic" xml:space="preserve"></text></g><g><path fill="none" stroke="black" paint-order="fill stroke markers" d=" M 1375.9149207617918 1692.3773240440005 L 1072.255364499 1692.3773240440005" stroke-miterlimit="10" stroke-width="1.1518412583333333" stroke-dasharray="5.52883804"/><g transform="translate(1060.8751728666666,1692.3773240440005) translate(-1060.8751728666666,-1692.3773240440005)"><path fill="black" stroke="none" paint-order="stroke fill markers" d=" M 1072.39358545 1686.6181177523338 L 1060.8751728666666 1692.3773240440005 L 1072.39358545 1698.1365303356672 Z"/></g></g><g><g><rect fill="white" stroke="none" x="827.1145691943751" y="1713.1104666940005" width="4.14662853" height="17.96872363"/></g><text fill="black" stroke="none" font-family="sans-serif" font-size="8pt" font-style="normal" font-weight="normal" text-decoration="normal" x="829.1878834593751" y="1725.5503522840006" text-anchor="start" dominant-baseline="alphabetic" xml:space="preserve"></text></g><g><path fill="none" stroke="black" paint-order="fill stroke markers" d=" M 1047.0530777666668 1731.0791903240006 L 622.7028807844167 1731.0791903240006" stroke-miterlimit="10" stroke-width="1.1518412583333333" stroke-dasharray="5.52883804"/><g transform="translate(611.3226891520834,1731.0791903240006) translate(-611.3226891520834,-1731.0791903240006)"><path fill="black" stroke="none" paint-order="stroke fill markers" d=" M 622.8411017354167 1725.3199840323339 L 611.3226891520834 1731.0791903240006 L 622.8411017354167 1736.8383966156673 Z"/></g></g><g><g><rect fill="white" stroke="none" x="627.6788350204167" y="1789.1319897440005" width="149.62270274875" height="17.96872363"/></g><text fill="black" stroke="none" font-family="sans-serif" font-size="8pt" font-style="normal" font-weight="normal" text-decoration="normal" x="629.7521492854167" y="1801.5718753340007" text-anchor="start" dominant-baseline="alphabetic" xml:space="preserve">notifyObservers()                    </text></g><g><path fill="none" stroke="black" paint-order="fill stroke markers" d=" M 611.3226891520834 1807.1007133740004 L 666.6110695520834 1807.1007133740004 L 666.6110695520834 1825.0694370040005 L 622.7028807844167 1825.0694370040005" stroke-miterlimit="10" stroke-width="1.1518412583333333" stroke-dasharray=""/><g transform="translate(611.3226891520834,1825.0694370040005) translate(-611.3226891520834,-1825.0694370040005)"><path fill="black" stroke="none" paint-order="stroke fill markers" d=" M 622.8411017354167 1819.3102307123338 L 611.3226891520834 1825.0694370040005 L 622.8411017354167 1830.8286432956672 Z"/></g></g><g><g><rect fill="white" stroke="none" x="448.19630598187496" y="1866.5357223040005" width="4.14662853" height="17.96872363"/></g><text fill="black" stroke="none" font-family="sans-serif" font-size="8pt" font-style="normal" font-weight="normal" text-decoration="normal" x="450.269620246875" y="1878.9756078940006" text-anchor="start" dominant-baseline="alphabetic" xml:space="preserve"></text></g><g><path fill="none" stroke="black" paint-order="fill stroke markers" d=" M 597.5005940520833 1884.5044459340006 L 314.418838074 1884.5044459340006" stroke-miterlimit="10" stroke-width="1.1518412583333333" stroke-dasharray="5.52883804"/><g transform="translate(303.0386464416667,1884.5044459340006) translate(-303.0386464416667,-1884.5044459340006)"><path fill="black" stroke="none" paint-order="stroke fill markers" d=" M 314.557059025 1878.745239642334 L 303.0386464416667 1884.5044459340006 L 314.557059025 1890.2636522256673 Z"/></g></g><g><g><rect fill="white" stroke="none" x="173.6346753808334" y="1905.2375885840006" width="4.14662853" height="17.96872363"/></g><text fill="black" stroke="none" font-family="sans-serif" font-size="8pt" font-style="normal" font-weight="normal" text-decoration="normal" x="175.70798964583338" y="1917.6774741740007" text-anchor="start" dominant-baseline="alphabetic" xml:space="preserve"></text></g><g><path fill="none" stroke="black" paint-order="fill stroke markers" d=" M 289.21655134166673 1923.2063122140007 L 73.57961958233334 1923.2063122140007" stroke-miterlimit="10" stroke-width="1.1518412583333333" stroke-dasharray="5.52883804"/><g transform="translate(62.19942795,1923.2063122140007) translate(-62.19942795,-1923.2063122140007)"><path fill="black" stroke="none" paint-order="stroke fill markers" d=" M 73.71784053333333 1917.447105922334 L 62.19942795 1923.2063122140007 L 73.71784053333333 1928.9655185056674 Z"/></g></g><g><g/><path fill="none" stroke="black" paint-order="fill stroke markers" d=" M 556.0343087520833 293.581299924 L 1197.1873819189166 293.581299924 L 1197.1873819189166 408.304689254 L 556.0343087520833 408.304689254 L 556.0343087520833 293.581299924 Z" stroke-miterlimit="10" stroke-width="1.9745850142857144" stroke-dasharray=""/><path fill="white" stroke="black" paint-order="fill stroke markers" d=" M 556.0343087520833 293.581299924 L 556.0343087520833 310.167814044 L 602.6716630145834 310.167814044 L 610.9649200745833 301.874556984 L 610.9649200745833 293.581299924 L 556.0343087520833 293.581299924" stroke-miterlimit="10" stroke-width="1.9745850142857144" stroke-dasharray=""/><text fill="black" stroke="none" font-family="sans-serif" font-size="6.4pt" font-style="normal" font-weight="bold" text-decoration="normal" x="569.8564038520833" y="304.638976004" text-anchor="start" dominant-baseline="alphabetic" xml:space="preserve">loop</text><text fill="black" stroke="none" font-family="sans-serif" font-size="6.4pt" font-style="normal" font-weight="bold" text-decoration="normal" x="624.7870151745833" y="304.638976004" text-anchor="start" dominant-baseline="alphabetic" xml:space="preserve">[for each current Screening]</text></g><g><g/><path fill="none" stroke="black" paint-order="fill stroke markers" d=" M 13.822095099999999 601.814020654 L 369.34985725 601.814020654 L 369.34985725 773.207999894 L 13.822095099999999 773.207999894 L 13.822095099999999 601.814020654 Z" stroke-miterlimit="10" stroke-width="1.9745850142857144" stroke-dasharray=""/><path fill="white" stroke="black" paint-order="fill stroke markers" d=" M 13.822095099999999 601.814020654 L 13.822095099999999 618.400534774 L 60.459449362499996 618.400534774 L 68.7527064225 610.107277714 L 68.7527064225 601.814020654 L 13.822095099999999 601.814020654" stroke-miterlimit="10" stroke-width="1.9745850142857144" stroke-dasharray=""/><text fill="black" stroke="none" font-family="sans-serif" font-size="6.4pt" font-style="normal" font-weight="bold" text-decoration="normal" x="27.644190199999997" y="612.871696734" text-anchor="start" dominant-baseline="alphabetic" xml:space="preserve">loop</text><text fill="black" stroke="none" font-family="sans-serif" font-size="6.4pt" font-style="normal" font-weight="bold" text-decoration="normal" x="82.5748015225" y="612.871696734" text-anchor="start" dominant-baseline="alphabetic" xml:space="preserve">[for every time the mouse is moved]</text></g><g><g/><path fill="none" stroke="black" paint-order="fill stroke markers" d=" M 556.0343087520833 984.686054924 L 1024.8321421479166 984.686054924 L 1024.8321421479166 1078.676301604 L 556.0343087520833 1078.676301604 L 556.0343087520833 984.686054924 Z" stroke-miterlimit="10" stroke-width="1.9745850142857144" stroke-dasharray=""/><path fill="white" stroke="black" paint-order="fill stroke markers" d=" M 556.0343087520833 984.686054924 L 556.0343087520833 1001.272569044 L 636.1931473895834 1001.272569044 L 644.4864044495833 992.979311984 L 644.4864044495833 984.686054924 L 556.0343087520833 984.686054924" stroke-miterlimit="10" stroke-width="1.9745850142857144" stroke-dasharray=""/><text fill="black" stroke="none" font-family="sans-serif" font-size="6.4pt" font-style="normal" font-weight="bold" text-decoration="normal" x="569.8564038520833" y="995.743731004" text-anchor="start" dominant-baseline="alphabetic" xml:space="preserve">expandable-</text><text fill="black" stroke="none" font-family="sans-serif" font-size="6.4pt" font-style="normal" font-weight="bold" text-decoration="normal" x="658.3084995495833" y="995.743731004" text-anchor="start" dominant-baseline="alphabetic" xml:space="preserve">[see diagram 04 - Cancel Screening ACE (sold screening)]</text></g><g><g/><path fill="none" stroke="black" paint-order="fill stroke markers" d=" M 556.0343087520833 1099.409444254 L 1026.3199351166666 1099.409444254 L 1026.3199351166666 1193.3996909339999 L 556.0343087520833 1193.3996909339999 L 556.0343087520833 1099.409444254 Z" stroke-miterlimit="10" stroke-width="1.9745850142857144" stroke-dasharray=""/><path fill="white" stroke="black" paint-order="fill stroke markers" d=" M 556.0343087520833 1099.409444254 L 556.0343087520833 1115.9959583739999 L 636.1931473895834 1115.9959583739999 L 644.4864044495833 1107.702701314 L 644.4864044495833 1099.409444254 L 556.0343087520833 1099.409444254" stroke-miterlimit="10" stroke-width="1.9745850142857144" stroke-dasharray=""/><text fill="black" stroke="none" font-family="sans-serif" font-size="6.4pt" font-style="normal" font-weight="bold" text-decoration="normal" x="569.8564038520833" y="1110.467120334" text-anchor="start" dominant-baseline="alphabetic" xml:space="preserve">expandable-</text><text fill="black" stroke="none" font-family="sans-serif" font-size="6.4pt" font-style="normal" font-weight="bold" text-decoration="normal" x="658.3084995495833" y="1110.467120334" text-anchor="start" dominant-baseline="alphabetic" xml:space="preserve">[see diagram 03 - schedule Screening ECE (double screening)]</text></g><g><g/><path fill="none" stroke="black" paint-order="fill stroke markers" d=" M 556.0343087520833 1214.1328335839999 L 909.2999155854167 1214.1328335839999 L 909.2999155854167 1308.1230802639998 L 556.0343087520833 1308.1230802639998 L 556.0343087520833 1214.1328335839999 Z" stroke-miterlimit="10" stroke-width="1.9745850142857144" stroke-dasharray=""/><path fill="white" stroke="black" paint-order="fill stroke markers" d=" M 556.0343087520833 1214.1328335839999 L 556.0343087520833 1230.7193477039998 L 636.1931473895834 1230.7193477039998 L 644.4864044495833 1222.426090644 L 644.4864044495833 1214.1328335839999 L 556.0343087520833 1214.1328335839999" stroke-miterlimit="10" stroke-width="1.9745850142857144" stroke-dasharray=""/><text fill="black" stroke="none" font-family="sans-serif" font-size="6.4pt" font-style="normal" font-weight="bold" text-decoration="normal" x="569.8564038520833" y="1225.1905096639998" text-anchor="start" dominant-baseline="alphabetic" xml:space="preserve">expandable-</text><text fill="black" stroke="none" font-family="sans-serif" font-size="6.4pt" font-style="normal" font-weight="bold" text-decoration="normal" x="658.3084995495833" y="1225.1905096639998" text-anchor="start" dominant-baseline="alphabetic" xml:space="preserve">[see diagrams 03 - Update Screening ACE (not available)]</text></g><g><g/><path fill="none" stroke="black" paint-order="fill stroke markers" d=" M 556.0343087520833 1751.8123329740006 L 782.1392710541668 1751.8123329740006 L 782.1392710541668 1845.8025796540005 L 556.0343087520833 1845.8025796540005 L 556.0343087520833 1751.8123329740006 Z" stroke-miterlimit="10" stroke-width="1.9745850142857144" stroke-dasharray=""/><path fill="white" stroke="black" paint-order="fill stroke markers" d=" M 556.0343087520833 1751.8123329740006 L 556.0343087520833 1768.3988470940005 L 636.1931473895834 1768.3988470940005 L 644.4864044495833 1760.1055900340007 L 644.4864044495833 1751.8123329740006 L 556.0343087520833 1751.8123329740006" stroke-miterlimit="10" stroke-width="1.9745850142857144" stroke-dasharray=""/><text fill="black" stroke="none" font-family="sans-serif" font-size="6.4pt" font-style="normal" font-weight="bold" text-decoration="normal" x="569.8564038520833" y="1762.8700090540005" text-anchor="start" dominant-baseline="alphabetic" xml:space="preserve">expandable-</text><text fill="black" stroke="none" font-family="sans-serif" font-size="6.4pt" font-style="normal" font-weight="bold" text-decoration="normal" x="658.3084995495833" y="1762.8700090540005" text-anchor="start" dominant-baseline="alphabetic" xml:space="preserve">[see 01 - Display Date BCE]</text></g></g><g/><g/><g/><g/><g/><g/><g/><g/></g></svg>