<svg version="1.1" xmlns="http://www.w3.org/2000/svg" xmlns:xlink="http://www.w3.org/1999/xlink" width="1576" height="1808"><desc>actor%20Staff%0Aboundary%20Alert%0Aboundary%20TicketDialog%0Aboundary%20StaffUI%0A%0Acontrol%20ManagementSystem%0Aparticipant%20Cinema%0Aentity%20Screening%20(current)%0Aentity%20Screening%20(selected)%0Aentity%20%22sc%20%3A%20Screen%22%20as%20sc%0Aparticipant%20ScreeningMapper%0Adatabase%20Database%0AStaff-%3EStaffUI%3AmousePressed(x%20%3A%20Integer%2C%20y%20%3A%20Integer)%0Aactivate%20StaffUI%0A%0AStaffUI-%3EStaffUI%3Asn%20%3A%3D%20yToScreen(y%20%3A%20Integer)%0AStaffUI-%3EStaffUI%3Atime%20%3A%3D%20xToTime(x%20%3A%20Integer)%0AStaffUI-%3EManagementSystem%3AselectScreening(sn%20%3A%20String%2C%20time%20%3A%20LocalTime)%0Aactivate%20ManagementSystem%0A%0Aloop%20for%20each%20current%20Screening%0AManagementSystem-%3EScreening%20(current)%3AgetScreenName()%0AManagementSystem-%3EScreening%20(current)%3AgetTime()%0Aend%0AManagementSystem-%3EManagementSystem%3AnotifyObservers()%0AManagementSystem-%3EStaffUI%3Aupdate()%0A%0AManagementSystem--%3EStaffUI%3A%0Adeactivate%20ManagementSystem%0AStaffUI--%3EStaff%3A%0Adeactivate%20StaffUI%0A%0AStaff-%3EStaffUI%3AsellTickets()%0Aactivate%20StaffUI%0A%0AStaffUI-%3E*TicketDialog%3ATicketDialog()%0Aactivate%20TicketDialog%0ATicketDialog--%3EStaffUI%3A%0Adeactivate%20TicketDialog%0A%0AStaffUI-%3ETicketDialog%3AshowAndWait()%0Aactivate%20TicketDialog%0ATicketDialog-%3EStaff%3A%0Aactivate%20Staff%0AStaff--%3ETicketDialog%3A%0Adeactivate%20Staff%0ATicketDialog--%3EStaffUI%3Areturn%20tn%20%3A%20TicketNumber%0Adeactivate%20TicketDialog%0A%0AStaffUI-%3EManagementSystem%3AsellTickets(tn%20%3A%20int%2C%20sg%20%3A%20Screening)%0Aactivate%20ManagementSystem%0A%0AManagementSystem-%3EScreening%20(selected)%3Ants%20%3A%3D%20getNumberTicketsSold()%0AManagementSystem-%3EScreening%20(selected)%3Asc%20%3A%3D%20getScreen()%0AManagementSystem-%3Esc%3Acp%20%3A%3D%20getCapacity()%0A%0AManagementSystem-%3EManagementSystem%3AcheckTicketOverSold(tn%20%3A%20int%2C%20cp%20%3A%20int%2C%20nts%20%3A%20int)%20%20%20%20%20%20%20%20%20%20%20%20%20%20%20%20%20%20%20%20%20%20%20%20%20%20%20%20%20%20%20%20%20%20%20%20%20%0Aactivate%20ManagementSystem%0Anote%20over%20ManagementSystem%3Afound%20the%20left%20ticket%20number%20is%20less%20the%20required%20ticket%20number%0A%0AManagementSystem-%3EManagementSystem%3AobserverMessage(message%20%3A%20String%2C%20false%20%3A%20Boolean)%0Aactivate%20ManagementSystem%0AManagementSystem-%3EStaffUI%3Amessage(message%20%3A%20String%2C%20false%20%3A%20Boolean)%0Aactivate%20StaffUI%0AStaffUI-%3E*Alert%3AAlert(%20warning%20%3A%20AlertType)%0Aactivate%20Alert%0AAlert--%3EStaffUI%3A%0Adeactivate%20Alert%0AStaffUI-%3EAlert%3AshowAndWait()%3B%0AAlert-%3EStaff%3A%0Aactivate%20Staff%0AStaff--%3EAlert%3A%0Adeactivate%20Staff%0AAlert--%3EStaffUI%3Areturn%20result%0AStaffUI--%3EManagementSystem%3Areturn%20false%0Adeactivate%20StaffUI%0AManagementSystem--%3EManagementSystem%3Areturn%20false%0Adeactivate%20ManagementSystem%0AManagementSystem--%3EManagementSystem%3Areturn%20false%0Adeactivate%20ManagementSystem%0AManagementSystem--%3EStaffUI%3Areturn%20false%0Adeactivate%20ManagementSystem%0AStaffUI--%3EStaff%3A%0Adeactivate%20StaffUI%0A%0A</desc><defs/><g><g/><g/><g/><g/><g/><g/><g/><g/><g/><g/><g/><g/><g/><g/><g/><g/><g/><g/><g/><g/><g/><g/><g/><g/><g/><g/><g/><g/><g/><g/><g/><g/><g/><g/><g/><g/><g/><g><rect fill="white" stroke="none" x="0" y="0" width="1576" height="1808"/></g><g/><g><path fill="none" stroke="black" paint-order="fill stroke markers" d=" M 18.1258913 75.19219734400001 L 18.1258913 1808.2064809820006" stroke-miterlimit="10" stroke-width="1.1518412583333333" stroke-dasharray="10.632380846153845,4.607365033333333"/><path fill="none" stroke="black" paint-order="fill stroke markers" d=" M 107.87620748139585 1336.8730380719999 L 107.87620748139585 1808.2064809820006" stroke-miterlimit="10" stroke-width="1.1518412583333333" stroke-dasharray="10.632380846153845,4.607365033333333"/><path fill="none" stroke="black" paint-order="fill stroke markers" d=" M 216.2861915213542 701.8859891779999 L 216.2861915213542 1808.2064809820006" stroke-miterlimit="10" stroke-width="1.1518412583333333" stroke-dasharray="10.632380846153845,4.607365033333333"/><path fill="none" stroke="black" paint-order="fill stroke markers" d=" M 385.1581248567709 75.19219734400001 L 385.1581248567709 1808.2064809820006" stroke-miterlimit="10" stroke-width="1.1518412583333333" stroke-dasharray="10.632380846153845,4.607365033333333"/><path fill="none" stroke="black" paint-order="fill stroke markers" d=" M 664.2648362109376 75.19219734400001 L 664.2648362109376 1808.2064809820006" stroke-miterlimit="10" stroke-width="1.1518412583333333" stroke-dasharray="10.632380846153845,4.607365033333333"/><path fill="none" stroke="black" paint-order="fill stroke markers" d=" M 1044.3130959192708 75.19219734400001 L 1044.3130959192708 1808.2064809820006" stroke-miterlimit="10" stroke-width="1.1518412583333333" stroke-dasharray="10.632380846153845,4.607365033333333"/><path fill="none" stroke="black" paint-order="fill stroke markers" d=" M 1139.1590196715208 75.19219734400001 L 1139.1590196715208 1808.2064809820006" stroke-miterlimit="10" stroke-width="1.1518412583333333" stroke-dasharray="10.632380846153845,4.607365033333333"/><path fill="none" stroke="black" paint-order="fill stroke markers" d=" M 1250.4986928965209 75.19219734400001 L 1250.4986928965209 1808.2064809820006" stroke-miterlimit="10" stroke-width="1.1518412583333333" stroke-dasharray="10.632380846153845,4.607365033333333"/><path fill="none" stroke="black" paint-order="fill stroke markers" d=" M 1342.274157137146 75.19219734400001 L 1342.274157137146 1808.2064809820006" stroke-miterlimit="10" stroke-width="1.1518412583333333" stroke-dasharray="10.632380846153845,4.607365033333333"/><path fill="none" stroke="black" paint-order="fill stroke markers" d=" M 1442.018518389396 75.19219734400001 L 1442.018518389396 1808.2064809820006" stroke-miterlimit="10" stroke-width="1.1518412583333333" stroke-dasharray="10.632380846153845,4.607365033333333"/><path fill="none" stroke="black" paint-order="fill stroke markers" d=" M 1541.8963276541458 75.19219734400001 L 1541.8963276541458 1808.2064809820006" stroke-miterlimit="10" stroke-width="1.1518412583333333" stroke-dasharray="10.632380846153845,4.607365033333333"/></g><g><g><path fill="white" stroke="black" paint-order="fill stroke markers" d=" M 26.004485507 16.724735071000005 A 7.878594207 7.878594207 0 1 1 26.004481567703223 16.7168564781061 M 18.1258913 24.603329278000004 L 18.1258913 41.4662853 M 8.173982828 30.685051122000004 L 28.077799772 30.685051122000004 M 18.1258913 41.4662853 L 8.173982828 57.22347371400001 M 18.1258913 41.4662853 L 28.077799772 57.22347371400001" stroke-miterlimit="10" stroke-width="2.3497561670000002" stroke-dasharray=""/></g><g><g/><text fill="black" stroke="none" font-family="sans-serif" font-size="8pt" font-style="normal" font-weight="normal" text-decoration="normal" x="6.911047549999999" y="71.045568814" text-anchor="start" dominant-baseline="alphabetic" xml:space="preserve">Staff</text></g><g><path fill="white" stroke="black" paint-order="fill stroke markers" d=" M 412.59498363027086 35.52278440700001 A 20.5258112235 20.5258112235 0 1 1 412.5949733673661 35.50225859919747 M 358.8961441667709 13.822095100000011 L 358.8961441667709 57.22347371400001 M 357.7212660832709 35.52278440700001 L 371.54336118327086 35.52278440700001" stroke-miterlimit="10" stroke-width="2.3497561670000002" stroke-dasharray=""/></g><g><g/><text fill="black" stroke="none" font-family="sans-serif" font-size="8pt" font-style="normal" font-weight="normal" text-decoration="normal" x="368.4432811067709" y="71.045568814" text-anchor="start" dominant-baseline="alphabetic" xml:space="preserve">StaffUI</text></g><g><path fill="white" stroke="black" paint-order="fill stroke markers" d=" M 684.7906474344376 35.52278440700001 A 20.5258112235 20.5258112235 0 1 1 684.7906371715328 35.50225859919747 M 661.5004171909376 14.99697318350001 L 669.7936742509376 8.085925633500011 M 661.5004171909376 14.99697318350001 L 669.7936742509376 21.90802073350001" stroke-miterlimit="10" stroke-width="2.3497561670000002" stroke-dasharray=""/></g><g><g/><text fill="black" stroke="none" font-family="sans-serif" font-size="8pt" font-style="normal" font-weight="normal" text-decoration="normal" x="613.8248948046876" y="71.045568814" text-anchor="start" dominant-baseline="alphabetic" xml:space="preserve">ManagementSystem</text></g><path fill="none" stroke="none"/><g><path fill="white" stroke="black" paint-order="fill stroke markers" d=" M 1010.3642184388958 37.87254057400001 L 1078.2619733996457 37.87254057400001 L 1078.2619733996457 75.19219734400001 L 1010.3642184388958 75.19219734400001 L 1010.3642184388958 37.87254057400001 Z" stroke-miterlimit="10" stroke-width="2.211535216" stroke-dasharray=""/></g><g><g/><text fill="black" stroke="none" font-family="sans-serif" font-size="8pt" font-style="normal" font-weight="normal" text-decoration="normal" x="1025.3611916223958" y="61.370102243999995" text-anchor="start" dominant-baseline="alphabetic" xml:space="preserve">Cinema</text></g><g><path fill="white" stroke="black" paint-order="fill stroke markers" d=" M 1159.6848308950207 33.64297947340001 A 20.5258112235 20.5258112235 0 1 1 1159.684820632116 33.62245366559747 M 1117.4583303645209 56.04859563050001 L 1160.8597089785208 56.04859563050001" stroke-miterlimit="10" stroke-width="2.3497561670000002" stroke-dasharray=""/></g><g><g/><text fill="black" stroke="none" font-family="sans-serif" font-size="8pt" font-style="normal" font-weight="normal" text-decoration="normal" x="1092.0840684996458" y="71.045568814" text-anchor="start" dominant-baseline="alphabetic" xml:space="preserve">Screening (current)</text></g><g><path fill="white" stroke="black" paint-order="fill stroke markers" d=" M 1271.024504120021 33.64297947340001 A 20.5258112235 20.5258112235 0 1 1 1271.024493857116 33.62245366559747 M 1228.7980035895207 56.04859563050001 L 1272.199382203521 56.04859563050001" stroke-miterlimit="10" stroke-width="2.3497561670000002" stroke-dasharray=""/></g><g><g/><text fill="black" stroke="none" font-family="sans-serif" font-size="8pt" font-style="normal" font-weight="normal" text-decoration="normal" x="1200.0560659433959" y="71.045568814" text-anchor="start" dominant-baseline="alphabetic" xml:space="preserve">Screening (selected)</text></g><g><path fill="white" stroke="black" paint-order="fill stroke markers" d=" M 1362.7999683606458 33.64297947340001 A 20.5258112235 20.5258112235 0 1 1 1362.7999580977412 33.62245366559747 M 1320.573467830146 56.04859563050001 L 1363.974846444146 56.04859563050001" stroke-miterlimit="10" stroke-width="2.3497561670000002" stroke-dasharray=""/></g><g><text fill="black" stroke="none" font-family="sans-serif" font-size="8pt" font-style="normal" font-weight="normal" text-decoration="normal" x="1314.763414949646" y="71.045568814" text-anchor="start" dominant-baseline="alphabetic" xml:space="preserve">sc : Screen</text></g><path fill="none" stroke="none"/><g><path fill="white" stroke="black" paint-order="fill stroke markers" d=" M 1383.606994424646 37.87254057400001 L 1500.430042354146 37.87254057400001 L 1500.430042354146 75.19219734400001 L 1383.606994424646 75.19219734400001 L 1383.606994424646 37.87254057400001 Z" stroke-miterlimit="10" stroke-width="2.211535216" stroke-dasharray=""/></g><g><g/><text fill="black" stroke="none" font-family="sans-serif" font-size="8pt" font-style="normal" font-weight="normal" text-decoration="normal" x="1398.603967608146" y="61.370102243999995" text-anchor="start" dominant-baseline="alphabetic" xml:space="preserve">ScreeningMapper</text></g><g><path fill="white" stroke="black" paint-order="fill stroke markers" d=" M 1521.7160688081458 48.10089094800001 L 1521.7160688081458 19.074491238000007 L 1562.0765865001458 19.074491238000007 L 1562.0765865001458 48.10089094800001" stroke-miterlimit="10" stroke-width="2.3497561670000002" stroke-dasharray=""/><path fill="white" stroke="black" paint-order="fill stroke markers" d=" M 1562.0765865001458 18.065478295700007 L 1562.075577495612 18.15670260293715 L 1562.0725505829098 18.247917787819585 L 1562.0675060647284 18.339114728904843 L 1562.0604444455153 18.430284306574812 L 1562.0513664314262 18.521417403947694 L 1562.0402729302552 18.612504907789702 L 1562.0271650513432 18.703537709426353 L 1562.012044105467 18.794506705653347 L 1561.994911604709 18.885402799646865 L 1561.9757692623045 18.976216901873258 L 1561.954618992472 19.066939930997982 L 1561.931462910221 19.15756281479372 L 1561.9063033311402 19.248076491047623 L 1561.8791427711667 19.338471908467483 L 1561.8499839463336 19.42874002758689 L 1561.8188297724994 19.518871821669155 L 1561.7856833650553 19.608858277609983 L 1561.7505480386146 19.698690396838764 L 1561.7134273066806 19.788359196218437 L 1561.6743248812954 19.877855708943788 L 1561.6332446726692 19.967170985438123 L 1561.5901907887885 20.05629609424822 L 1561.545167535006 20.145222122937476 L 1561.4981794136093 20.23394017897712 L 1561.4492311233714 20.322441390635486 L 1561.3983275590806 20.41071690786515 L 1561.3454738110509 20.498757903187958 L 1561.290675164613 20.586555572577744 L 1561.2339370995862 20.674101136340735 L 1561.1752652897294 20.7613858399935 L 1561.1146656021747 20.848400955138427 L 1561.0521440968405 20.935137780336497 L 1560.987707025825 21.021587641977483 L 1560.921360832782 21.107741895147257 L 1560.8531121522751 21.193591924492296 L 1560.7829678091157 21.279129145081207 L 1560.7109348176796 21.364345003263217 L 1560.637020381206 21.449230977523516 L 1560.561231891077 21.533778579335415 L 1560.483576926078 21.617979354009194 L 1560.4040632516414 21.701824881537547 L 1560.3226988190681 21.785306777437597 L 1560.2394917647334 21.868416693589317 L 1560.1544504092737 21.951146319070357 L 1560.0675832567536 22.033487380987104 L 1559.9788989938156 22.115431645301985 L 1559.8884064888127 22.196970917656856 L 1559.7961147909195 22.278097044192428 L 1559.7020331292292 22.35880191236366 L 1559.6061709118294 22.43907745175098 L 1559.508537724862 22.518915634867348 L 1559.409143331564 22.598308477960988 L 1559.3079976712927 22.677248041813744 L 1559.2051108585292 22.75572643253502 L 1559.100493181869 22.83373580235114 L 1558.994155102993 22.911268350390124 L 1558.8861072556201 22.988316323461788 L 1558.7763604444453 23.06487201683303 L 1558.664925644058 23.140927774998303 L 1558.5518139978458 23.216475992445172 L 1558.4370368168784 23.291509114414854 L 1558.3206055787787 23.366019637657672 L 1558.2025319265736 23.4400001111834 L 1558.0828276675293 23.51344313700633 L 1557.9615047719726 23.586341370885087 L 1557.8385753720918 23.658687523057033 L 1557.7140517607243 23.73047435896723 L 1557.5879463901274 23.801694699991916 L 1557.4602718707333 23.872341424156335 L 1557.3310409698877 23.942407466846948 L 1557.2002666105725 24.011885821517872 L 1557.067961870115 24.080769540391536 L 1556.9341399788786 24.149051735153456 L 1556.7988143189414 24.216725577641057 L 1556.6619984227564 24.283784300526488 L 1556.5237059717992 24.350221197993342 L 1556.3839507951998 24.416029626407234 L 1556.2427468683593 24.481203004980163 L 1556.1001083115525 24.54573481642858 L 1555.9560493885165 24.609618607625126 L 1555.8105845050234 24.67284799024391 L 1555.6637282074405 24.73541664139936 L 1555.515495181275 24.797318304278505 L 1555.365900249706 24.858546788766642 L 1555.214958372102 24.919095972066344 L 1555.0626846425253 24.978959799309735 L 1554.9090942882215 25.038132284163982 L 1554.7542026680983 25.09660750942991 L 1554.5980252711884 25.154379627633716 L 1554.4405777151017 25.21144286161173 L 1554.2818757444622 25.267791505088102 L 1554.1219352293351 25.323419923245446 L 1553.9607721636385 25.378322553288296 L 1553.7984026635445 25.432493904999404 L 1553.6348429658678 25.48592856128874 L 1553.4701094264424 25.53862117873521 L 1553.3042185184843 25.59056648812097 L 1553.1371868309461 25.641759294958376 L 1552.969031066858 25.692194480009405 L 1552.7997680416556 25.741866999797576 L 1552.6294146815005 25.790771887112307 L 1552.4579880215872 25.838904251505618 L 1552.2855052044383 25.886259279781186 L 1552.1119834781919 25.932832236475637 L 1551.9374401948762 25.978618464332122 L 1551.7618928086742 26.023613384766 L 1551.5853588741777 26.06781249832273 L 1551.4078560446337 26.11121138512779 L 1551.2294020701765 26.153805705328658 L 1551.0500147960556 26.195591199528817 L 1550.8697121608484 26.236563689213664 L 1550.6885121946684 26.276719077168373 L 1550.506433017361 26.316053347887618 L 1550.3234928366924 26.354562567977098 L 1550.1397099465282 26.392242886546896 L 1549.9551027250043 26.429090535596558 L 1549.7696896326888 26.46510183039188 L 1549.5834892107366 26.5002731698334 L 1549.3965200790346 26.534601036816476 L 1549.2088009343404 26.568081998583022 L 1549.020350548412 26.60071270706476 L 1548.8311877661304 26.63248989921803 L 1548.641331503617 26.663410397350102 L 1548.4508007463394 26.693471109436928 L 1548.2596145472146 26.722669029432353 L 1548.067792024703 26.7510012375687 L 1547.8753523608975 26.77846490064878 L 1547.6823147996038 26.805057272329158 L 1547.4886986444171 26.830775693394834 L 1547.2945232567918 26.855617592025126 L 1547.0998080541046 26.879580484050884 L 1546.9045725077137 26.90266197320286 L 1546.7088361410108 26.924859751351384 L 1546.5126185274698 26.946171598737138 L 1546.3159392886882 26.96659538419314 L 1546.1188180924264 26.986129065357865 L 1545.9212746506394 27.00477068887948 L 1545.7233287175068 27.022518390611154 L 1545.5250000874569 27.03937039579752 L 1545.3263085931878 27.055325019252088 L 1545.127274103683 27.070380665525818 L 1544.9279165222256 27.084535829066628 L 1544.7282557844078 27.097789094369954 L 1544.528311856137 27.110139136120317 L 1544.328104731639 27.121584719323828 L 1544.12765443146 27.132124699431706 L 1543.9269810004625 27.141758022454724 L 1543.7261045058228 27.15048372506861 L 1543.5250450350227 27.15830093471037 L 1543.3238226938417 27.165208869665555 L 1543.1224576043464 27.17120683914643 L 1542.9209699028777 27.176294243361042 L 1542.719379738038 27.180470573573206 L 1542.517707268676 27.18373541215339 L 1542.31597266187 27.186088432620444 L 1542.1141960909133 27.18752939967429 L 1541.9123977332943 27.188058169219428 L 1541.7105977686808 27.187674688379335 L 1541.5088163769012 27.186378995501777 L 1541.3070737359262 27.184171220154965 L 1541.1053900198522 27.181051583114595 L 1540.9037853968823 27.17702039634177 L 1540.702280027311 27.172078062951805 L 1540.5008940615076 27.166225077173927 L 1540.2996476379003 27.159462024301828 L 1540.0985608809642 27.15178958063516 L 1539.8976538992074 27.143208513411906 L 1539.6969467831602 27.13371968073163 L 1539.4964596033676 27.12332403146969 L 1539.2962124083801 27.112022605182354 L 1539.0962252227505 27.099816532002833 L 1538.8965180450305 27.086707032528267 L 1538.6971108457717 27.072695417697688 L 1538.4980235655275 27.057783088660898 L 1538.2992761128605 27.041971536638375 L 1538.10088836235 27.025262342772145 L 1537.9028801526058 27.007657177967666 L 1537.705271284284 26.98915780272675 L 1537.5080815181066 26.96976606697151 L 1537.311330572886 26.94948390985936 L 1537.1150381235525 26.928313359589104 L 1536.9192237991879 26.906256533198132 L 1536.7239071810611 26.883315636350694 L 1536.5291078006712 26.859492963117372 L 1536.334845137794 26.834790895745627 L 1536.1411386185341 26.809211904421616 L 1535.9480076133816 26.78275854702315 L 1535.7554714352764 26.755433468863927 L 1535.5635493376756 26.727239402428996 L 1535.372260512629 26.6981791671015 L 1535.18162408886 26.668255668880757 L 1534.991659129852 26.637471900091654 L 1534.8023846319427 26.605830939085415 L 1534.6138195224237 26.573335949931778 L 1534.4259826576492 26.53999018210257 L 1534.2388928211494 26.505796970146797 L 1534.0525687217514 26.470759733357152 L 1533.8670289917104 26.43488197542812 L 1533.6822921848443 26.398167284105593 L 1533.4983767746803 26.360619330828115 L 1533.315301152606 26.32224187035971 L 1533.133083626031 26.28303874041446 L 1532.9517424165563 26.243013861272683 L 1532.7712956581513 26.20217123538894 L 1532.5917613953418 26.160514946991775 L 1532.4131575814044 26.11804916167533 L 1532.2355020765717 26.07477812598274 L 1532.0588126462462 26.03070616698151 L 1531.8831069592234 25.985837691830824 L 1531.7084025859258 25.940177187340804 L 1531.5347169966453 25.893729219523845 L 1531.3620675597958 25.846498433138024 L 1531.1904715401772 25.798489551222623 L 1531.0199460972483 25.74970737462582 L 1530.8505082834117 25.700156781524633 L 1530.6821750423073 25.64984272693707 L 1530.5149632071189 25.59877024222667 L 1530.348889498891 25.546944434599336 L 1530.1839705248556 25.49437048659265 L 1530.0202227767727 25.441053655557596 L 1529.857662629281 25.386999273132844 L 1529.6963063382598 25.3322127447116 L 1529.5361700392032 25.27669954890105 L 1529.3772697456081 25.220465236974505 L 1529.2196213473715 25.163515432316306 L 1529.0632406092016 25.105855829859454 L 1528.908143169042 25.04749219551615 L 1528.7543445365072 24.98843036560119 L 1528.6018600913328 24.928676246248344 L 1528.450705081836 24.86823581281976 L 1528.3008946233917 24.807115109308405 L 1528.1524436969212 24.74532024773371 L 1528.005367147393 24.68285740753032 L 1527.8596796823397 24.61973283493021 L 1527.7153958703866 24.555952842338044 L 1527.5725301397943 24.49152380769992 L 1527.431096777017 24.42645217386562 L 1527.291109925273 24.360744447944292 L 1527.1525835831312 24.294407200653783 L 1527.0155316031098 24.227447065663533 L 1526.8799676902931 24.159870738931243 L 1526.7459054009591 24.09168497803327 L 1526.613358141225 24.022896601488892 L 1526.4823391657067 23.95351248807843 L 1526.352861576192 23.883539576155414 L 1526.2249383203325 23.812984862952717 L 1526.0985821903469 23.741855403882866 L 1525.9738058217426 23.6701583118325 L 1525.8506216920532 23.597900756451068 L 1525.7290421195885 23.5250899634339 L 1525.6090792622047 23.451733213799617 L 1525.490745116087 23.377837843162055 L 1525.3740515145523 23.303411240996702 L 1525.259010126863 23.228460849901744 L 1525.1456324570618 23.15299416485384 L 1525.0339298428214 23.077018732458605 L 1524.9239134543104 23.00054215019596 L 1524.8155942930757 22.923572065660405 L 1524.7089831909432 22.846116175796254 L 1524.6040908089344 22.768182226127944 L 1524.5009276361998 22.6897780099855 L 1524.399503988971 22.610911367725194 L 1524.2998300095278 22.53159018594554 L 1524.2019156651857 22.451822396698603 L 1524.1057707472971 22.37161597669684 L 1524.0114048702737 22.29097894651542 L 1523.9188274706246 22.209919369790153 L 1523.8280478060128 22.128445352411166 L 1523.7390749543288 22.046565041712302 L 1523.651917812784 21.9642866256564 L 1523.5665850970195 21.881618332016497 L 1523.4830853402361 21.79856842755307 L 1523.4014268923397 21.715145217187356 L 1523.3216179191072 21.631357043170873 L 1523.2436664013694 21.547212284251195 L 1523.1675801342128 21.4627193548341 L 1523.093366726201 21.377886704142114 L 1523.021033598613 21.29272281536962 L 1522.9505879847013 21.207236204834516 L 1522.8820369289683 21.12143542112662 L 1522.8153872864627 21.03532904425281 L 1522.7506457220932 20.948925684779006 L 1522.6878187099621 20.862233982969162 L 1522.6269125327185 20.77526260792121 L 1522.5679332809293 20.688020256700185 L 1522.5108868524703 20.600515653468506 L 1522.4557789519372 20.51275754861357 L 1522.4026150900736 20.424754717872737 L 1522.351400583222 20.336515961455746 L 1522.30214055279 20.2480501031647 L 1522.2548399247396 20.159365989511716 L 1522.2095034290944 20.07047248883425 L 1522.166135599466 19.98137849040829 L 1522.1247407726014 19.89209290355944 L 1522.0853230879486 19.80262465677198 L 1522.0478864872434 19.712982696796026 L 1522.0124347141145 19.62317598775288 L 1521.9789713137097 19.533213510238607 L 1521.9474996323413 19.443104260425986 L 1521.918022817151 19.352857249164913 L 1521.890543815796 19.262481501081304 L 1521.8650653761533 19.171986053674658 L 1521.841590046046 19.0813799564143 L 1521.820120172987 18.99067226983445 L 1521.800657903946 18.899872064628184 L 1521.7832051851337 18.80898842074035 L 1521.7677637618076 18.7180304264596 L 1521.7543351780969 18.627007177509565 L 1521.7429207768487 18.53592777613929 L 1521.7335216994938 18.44480133021301 L 1521.7261388859324 18.35363695229938 L 1521.7207730744392 18.26244375876022 L 1521.717424801591 18.171230868838894 L 1521.7160944022123 18.08000740374838 L 1521.716782009342 17.98878248575917 L 1521.7194875542202 17.89756523728704 L 1521.7242107662942 17.80636477998082 L 1521.730951173247 17.71519023381025 L 1521.7397081010436 17.624050716153963 L 1521.750480673998 17.532955340887774 L 1521.7632678148627 17.4419132174733 L 1521.7780682449336 17.350933450047012 L 1521.7948804841803 17.26002513650984 L 1521.813702851393 17.16919736761737 L 1521.8345334643502 17.07845922607082 L 1521.8573702400083 16.987819785608714 L 1521.882210894709 16.897288110099574 L 1521.9090529444072 16.8068732526355 L 1521.9378937049203 16.716584254626905 L 1521.9687302921964 16.62643014489834 L 1522.0015596226024 16.536419938785652 L 1522.0363784132326 16.446562637234447 L 1522.0731831822368 16.356867225899993 L 1522.1119702491692 16.26734267424868 L 1522.1527357353552 16.177997934661075 L 1522.19547556428 16.08884194153668 L 1522.2401854619966 15.999883610400506 L 1522.2868609575523 15.911131837011538 L 1522.3354973834366 15.82259549647316 L 1522.3860898760472 15.734283442345639 L 1522.4386333761772 15.6462045057608 L 1522.4931226295203 15.558367494538897 L 1522.5495521871965 15.47078119230786 L 1522.6079164062971 15.383454357624922 L 1522.668209450449 15.296395723100778 L 1522.7304252903978 15.209613994526332 L 1522.7945577046114 15.123117850002128 L 1522.860600279902 15.036915939070532 L 1522.928546412067 14.951016881850805 L 1522.9983893065496 14.865429268177088 L 1523.0701219791188 14.780161656739425 L 1523.1437372565672 14.695222574227904 L 1523.2192277774282 14.610620514479992 L 1523.2965859927124 14.526363937631164 L 1523.3758041666633 14.44246126926889 L 1523.4568743775292 14.358920899590089 L 1523.5397885183563 14.27575118256211 L 1523.6245382978002 14.19296043508735 L 1523.7111152409534 14.110556936171564 L 1523.7995106901933 14.028548926095976 L 1523.8897158060493 13.946944605593249 L 1523.9817215680844 13.865752135027433 L 1524.0755187757993 13.784979633577926 L 1524.1710980495516 13.704635178427559 L 1524.2684498314934 13.624726803954896 L 1524.3675643865274 13.545262500930793 L 1524.468431803281 13.466250215719334 L 1524.5710419950965 13.387697849483194 L 1524.6753847010402 13.30961325739354 L 1524.7814494869285 13.23200424784451 L 1524.8892257463713 13.154878581672381 L 1524.9987027018321 13.078243971379504 L 1525.109869405707 13.002108080363044 L 1525.222714741418 12.926478522148656 L 1525.3372274245257 12.851362859629138 L 1525.453396003857 12.776768604308145 L 1525.571208862651 12.702703215549048 L 1525.69065421972 12.629174099829003 L 1525.8117201306277 12.556188609998305 L 1525.934394488884 12.483754044545117 L 1526.0586650271553 12.411877646865625 L 1526.1845193184913 12.340566604539697 L 1526.3119447775675 12.26982804861214 L 1526.4409286619448 12.199669052879603 L 1526.5714580733415 12.130096633183188 L 1526.7035199589259 12.06111774670689 L 1526.837101112619 11.992739291281874 L 1526.972188176417 11.924968104696699 L 1527.108767641726 11.857810964013552 L 1527.2468258507133 11.791274584890534 L 1527.386348997673 11.725365620910111 L 1527.5273231304068 11.660090662913756 L 1527.669734151619 11.595456238342878 L 1527.8135678203257 11.531468810586066 L 1527.9588097532805 11.468134778332775 L 1528.1054454264106 11.405460474933456 L 1528.2534601762711 11.343452167766216 L 1528.4028392015105 11.282116057610097 L 1528.5535675643507 11.221458278025008 L 1528.705630192081 11.16148489473835 L 1528.8590118785648 11.10220190503848 L 1529.0136972857622 11.043615237174969 L 1529.1696709452608 10.985730749765775 L 1529.326917259825 10.928554231211407 L 1529.485420504954 10.87209139911607 L 1529.6451648304553 10.816347899715922 L 1529.8061342620301 10.76132930731445 L 1529.9683127028686 10.707041123725045 L 1530.1316839352626 10.653488777720831 L 1530.2962316222245 10.600677624491773 L 1530.461939309123 10.548612945109191 L 1530.628790425327 10.497299945997636 L 1530.7967682858646 10.446743758414254 L 1530.9658560930893 10.396949437935678 L 1531.1360369383617 10.347921963952459 L 1531.3072938037385 10.299666239171138 L 1531.4796095636761 10.252187089123984 L 1531.6529669867425 10.20548926168643 L 1531.8273487373394 10.159577426602311 L 1532.0027373774371 10.114456175016873 L 1532.179115368318 10.070130019017672 L 1532.3564650723297 10.026603391183372 L 1532.5347687546498 9.983880644140482 L 1532.7140085850585 9.941966050128107 L 1532.8941666397222 9.900863800570718 L 1533.0752249029856 9.86057800565902 L 1533.2571652691734 9.82111269393893 L 1533.4399695444001 9.782471811908737 L 1533.623619448391 9.744659223624438 L 1533.8080966163086 9.707678710313356 L 1533.9933826005897 9.671533969996 L 1534.1794588727905 9.636228617116288 L 1534.3663068254386 9.60176618218008 L 1534.5539077738947 9.568150111402154 L 1534.7422429582202 9.535383766361576 L 1534.9312935450534 9.503470423665544 L 1535.1210406294936 9.472413274621731 L 1535.31146523699 9.442215424919162 L 1535.5025483252407 9.412879894317644 L 1535.6942707860962 9.384409616345788 L 1535.8866134474704 9.35680743800767 L 1536.0795570752568 9.330076119498116 L 1536.273082375254 9.304218333926707 L 1536.4671699950932 9.27923666705045 L 1536.6618005261737 9.255133617015213 L 1536.8569545056052 9.231911594105915 L 1537.052612418152 9.209572920505497 L 1537.2487546981858 9.1881198300627 L 1537.4453617316424 9.167554468068694 L 1537.642413857982 9.147878891042538 L 1537.8398913721567 9.129095066525542 L 1538.037774526579 9.1112048728845 L 1538.2360435330984 9.09421009912387 L 1538.4346785649798 9.078112444706866 L 1538.6336597588854 9.062913519385516 L 1538.8329672168618 9.048614843039683 L 1539.032581008329 9.03521784552509 L 1539.2324811720744 9.022723866530322 L 1539.432647718248 9.011134155442866 L 1539.6330606303623 9.000449871224175 L 1539.8336998672928 8.990672082293766 L 1540.0345453652833 8.981801766422386 L 1540.235577039951 8.973839810634226 L 1540.4367747882964 8.966787011118234 L 1540.638118490712 8.960644073148481 L 1540.8395880129954 8.955411611013648 L 1541.0411632083624 8.951090147955588 L 1541.2428239194612 8.947680116117002 L 1541.444549980389 8.945181856498236 L 1541.6463212187075 8.943595618923167 L 1541.8481174574615 8.942921562014233 L 1542.0499185171948 8.94315975317656 L 1542.2517042179697 8.944310168591237 L 1542.4534543813845 8.946372693217674 L 1542.6551488325908 8.949347120805129 L 1542.8567674023118 8.953233153913324 L 1543.0582899288581 8.958030403942185 L 1543.2596962601453 8.963738391170708 L 1543.4609662557082 8.970356544804925 L 1543.6620797887144 8.97788420303499 L 1543.863016747979 8.98632061310135 L 1544.0637570399729 8.99566493137003 L 1544.2642805908345 9.00591622341699 L 1544.4645673483758 9.017073464121571 L 1544.6645972840877 9.029135537768996 L 1544.8643503951434 9.042101238161953 L 1545.0638067063987 9.055969268741208 L 1545.262946272388 9.070738242715262 L 1545.4617491793213 9.086406683199021 L 1545.660195547073 9.102973023361494 L 1545.858265531172 9.120435606582474 L 1546.055939324785 9.138792686618187 L 1546.253197160697 9.158042427775927 L 1546.4500193132894 9.178182905097621 L 1546.6463861005104 9.199212104552322 L 1546.8422778858453 9.221127923237606 L 1547.0376750802784 9.243928169589871 L 1547.2325581442535 9.267610563603478 L 1547.4269075896264 9.292172737058763 L 1547.6207039816145 9.317612233758847 L 1547.8139279407403 9.343926509775264 L 1548.0065601447686 9.371112933702335 L 1548.1985813306399 9.399168786920328 L 1548.3899722963952 9.428091263867296 L 1548.5807139030976 9.45787747231965 L 1548.7707870767456 9.488524433681365 L 1548.9601728101798 9.520029083281843 L 1549.148852164985 9.55238827068238 L 1549.336806273383 9.585598759991202 L 1549.5240163401193 9.619657230187048 L 1549.7104636443435 9.654560275451288 L 1549.8961295414804 9.690304405508478 L 1550.080995465095 9.726886045975398 L 1550.2650429287492 9.764301538718486 L 1550.4482535278496 9.802547142219648 L 1550.6306089414893 9.841619031950406 L 1550.8120909342788 9.881513300754346 L 1550.99268135817 9.92222595923783 L 1551.1723621542715 9.963752936168941 L 1551.3511153546526 10.00609007888459 L 1551.5289230841427 10.049233153705785 L 1551.7057675621168 10.093177846360998 L 1551.8816311042747 10.137919762417582 L 1552.0564961244088 10.18345442772122 L 1552.2303451361624 10.229777288843323 L 1552.4031607547795 10.276883713536382 L 1552.5749256988424 10.324768991197185 L 1552.7456227919995 10.373428333337866 L 1552.9152349646838 10.422856874064767 L 1553.0837452558196 10.473049670564997 L 1553.2511368145178 10.52400170360074 L 1553.4173929017625 10.575707878011151 L 1553.5824968920833 10.628163023221877 L 1553.7464322752187 10.681361893762105 L 1553.909182657767 10.73529916978912 L 1554.0707317648255 10.789969457620263 L 1554.2310634416185 10.84536729027231 L 1554.3901616551116 10.90148712800816 L 1554.548010495616 10.958323358890807 L 1554.7045941783792 11.015870299344526 L 1554.8598970451637 11.074122194723225 L 1555.013903565812 11.133073219885913 L 1555.1665983398002 11.192717479779198 L 1555.3179660977785 11.253049010026789 L 1555.4679917030971 11.314061777525946 L 1555.6166601533207 11.375749681050758 L 1555.7639565817276 11.43810655186228 L 1555.9098662587983 11.501126154325393 L 1556.0543745936864 11.564802186532368 L 1556.1974671356788 11.629128280933049 L 1556.3391295756408 11.6940980049716 L 1556.479347747446 11.759704861729757 L 1556.6181076293944 11.825942290576517 L 1556.7553953456136 11.892803667824193 L 1556.891197167446 11.96028230739078 L 1557.0254995148227 12.02837146146855 L 1557.1582889576212 12.097064321198838 L 1557.2895522170074 12.166354017352914 L 1557.419276166765 12.236233621018904 L 1557.547447834607 12.306696144294676 L 1557.6740544034737 12.377734540986618 L 1557.7990832128135 12.449341707314261 L 1557.9225217598496 12.521510482620645 L 1558.0443577008302 12.594233650088377 L 1558.1645788522628 12.667503937461316 L 1558.2831731921324 12.741314017771781 L 1558.400128861104 12.815656510073252 L 1558.5154341637078 12.890523980178447 L 1558.6290775695102 12.965908941402748 L 1558.7410477142646 13.04180385531285 L 1558.8513334010504 13.11820113248061 L 1558.9599236013908 13.195093133241976 L 1559.0668074563557 13.272472168460947 L 1559.1719742776493 13.350330500298481 L 1559.2754135486769 13.42866034298628 L 1559.3771149255974 13.507453863605349 L 1559.4770682383582 13.586703182869286 L 1559.5752634917112 13.666400375912204 L 1559.6716908662127 13.746537473081217 L 1559.7663407192058 13.827106460733386 L 1559.859203585784 13.908099282037085 L 1559.950270179738 13.989507837777682 L 1560.0395313944844 14.071323987167439 L 1560.126978303976 14.1535395486596 L 1560.212602163595 14.236146300766524 L 1560.2963944110263 14.319135982881845 L 1560.3783466671152 14.402500296106505 L 1560.4584507367047 14.486230904078653 L 1560.536698609454 14.570319433807267 L 1560.6130824606416 14.654757476509447 L 1560.6875946519458 14.739536588451287 L 1560.7602277322096 14.824648291792245 L 1560.8309744381854 14.910084075432911 L 1560.8998276952616 14.995835395866116 L 1560.9667806181699 15.081893678031278 L 1561.0318265116737 15.168250316171896 L 1561.0949588712378 15.254896674696116 L 1561.1561713836793 15.341824089040294 L 1561.2154579277976 15.429023866535433 L 1561.2728125749877 15.516487287276451 L 1561.3282295898327 15.604205604994158 L 1561.3817034306774 15.692170047929883 L 1561.4332287501823 15.780371819712634 L 1561.4828003958582 15.868802100238737 L 1561.5304134105818 15.957452046553826 L 1561.5760630330917 16.046312793737147 L 1561.6197446984631 16.135375455788033 L 1561.6614540385665 16.2246311265145 L 1561.7011868825023 16.314070880423845 L 1561.738939257019 16.40368577361522 L 1561.7747073869111 16.49346684467398 L 1561.8084876953951 16.583405115567835 L 1561.8402768044684 16.67349159254465 L 1561.8700715352466 16.763717267031794 L 1561.8978689082815 16.85407311653701 L 1561.9236661438588 16.944550105550636 L 1561.9474606622764 17.03513918644918 L 1561.9692500841027 17.12583130040003 L 1561.9890322304132 17.216617378267376 L 1562.0068051230098 17.307488341519083 L 1562.0225669846184 17.398435103134553 L 1562.0363162390656 17.48944856851341 L 1562.0480515114377 17.580519636384963 L 1562.057771628217 17.67163919971832 L 1562.0654756174004 17.762798146633074 L 1562.0711627085946 17.8539873613105 L 1562.0748323330959 17.945197724905128 L 1562.0764841239445 18.0364201164566 M 1562.0765865001458 47.09187800570001 L 1562.075577495612 47.18310231293715 L 1562.0725505829098 47.27431749781959 L 1562.0675060647284 47.365514438904846 L 1562.0604444455153 47.45668401657481 L 1562.0513664314262 47.547817113947694 L 1562.0402729302552 47.638904617789706 L 1562.0271650513432 47.729937419426356 L 1562.012044105467 47.82090641565335 L 1561.994911604709 47.91180250964687 L 1561.9757692623045 48.002616611873265 L 1561.954618992472 48.09333964099798 L 1561.931462910221 48.18396252479373 L 1561.9063033311402 48.27447620104763 L 1561.8791427711667 48.36487161846748 L 1561.8499839463336 48.45513973758689 L 1561.8188297724994 48.54527153166916 L 1561.7856833650553 48.63525798760998 L 1561.7505480386146 48.72509010683876 L 1561.7134273066806 48.81475890621844 L 1561.6743248812954 48.90425541894379 L 1561.6332446726692 48.99357069543812 L 1561.5901907887885 49.082695804248225 L 1561.545167535006 49.17162183293748 L 1561.4981794136093 49.26033988897713 L 1561.4492311233714 49.34884110063549 L 1561.3983275590806 49.43711661786516 L 1561.3454738110509 49.525157613187965 L 1561.290675164613 49.61295528257775 L 1561.2339370995862 49.70050084634074 L 1561.1752652897294 49.78778554999351 L 1561.1146656021747 49.87480066513843 L 1561.0521440968405 49.961537490336504 L 1560.987707025825 50.04798735197749 L 1560.921360832782 50.134141605147256 L 1560.8531121522751 50.2199916344923 L 1560.7829678091157 50.305528855081214 L 1560.7109348176796 50.39074471326322 L 1560.637020381206 50.47563068752352 L 1560.561231891077 50.56017828933542 L 1560.483576926078 50.64437906400919 L 1560.4040632516414 50.72822459153755 L 1560.3226988190681 50.8117064874376 L 1560.2394917647334 50.894816403589324 L 1560.1544504092737 50.97754602907036 L 1560.0675832567536 51.059887090987104 L 1559.9788989938156 51.14183135530199 L 1559.8884064888127 51.22337062765686 L 1559.7961147909195 51.304496754192435 L 1559.7020331292292 51.38520162236367 L 1559.6061709118294 51.46547716175098 L 1559.508537724862 51.545315344867355 L 1559.409143331564 51.62470818796099 L 1559.3079976712927 51.70364775181375 L 1559.2051108585292 51.78212614253502 L 1559.100493181869 51.86013551235114 L 1558.994155102993 51.93766806039013 L 1558.8861072556201 52.014716033461795 L 1558.7763604444453 52.09127172683303 L 1558.664925644058 52.1673274849983 L 1558.5518139978458 52.242875702445176 L 1558.4370368168784 52.31790882441486 L 1558.3206055787787 52.39241934765768 L 1558.2025319265736 52.4663998211834 L 1558.0828276675293 52.539842847006334 L 1557.9615047719726 52.612741080885094 L 1557.8385753720918 52.68508723305703 L 1557.7140517607243 52.756874068967235 L 1557.5879463901274 52.82809440999192 L 1557.4602718707333 52.89874113415634 L 1557.3310409698877 52.96880717684695 L 1557.2002666105725 53.03828553151787 L 1557.067961870115 53.107169250391536 L 1556.9341399788786 53.175451445153456 L 1556.7988143189414 53.243125287641064 L 1556.6619984227564 53.31018401052649 L 1556.5237059717992 53.37662090799334 L 1556.3839507951998 53.44242933640724 L 1556.2427468683593 53.507602714980166 L 1556.1001083115525 53.572134526428584 L 1555.9560493885165 53.63601831762513 L 1555.8105845050234 53.699247700243916 L 1555.6637282074405 53.76181635139937 L 1555.515495181275 53.82371801427851 L 1555.365900249706 53.884946498766645 L 1555.214958372102 53.945495682066344 L 1555.0626846425253 54.00535950930974 L 1554.9090942882215 54.064531994163985 L 1554.7542026680983 54.123007219429915 L 1554.5980252711884 54.18077933763372 L 1554.4405777151017 54.237842571611736 L 1554.2818757444622 54.294191215088105 L 1554.1219352293351 54.349819633245446 L 1553.9607721636385 54.4047222632883 L 1553.7984026635445 54.45889361499941 L 1553.6348429658678 54.512328271288744 L 1553.4701094264424 54.56502088873521 L 1553.3042185184843 54.61696619812098 L 1553.1371868309461 54.66815900495838 L 1552.969031066858 54.718594190009405 L 1552.7997680416556 54.76826670979758 L 1552.6294146815005 54.817171597112306 L 1552.4579880215872 54.865303961505624 L 1552.2855052044383 54.912658989781185 L 1552.1119834781919 54.95923194647564 L 1551.9374401948762 55.00501817433212 L 1551.7618928086742 55.050013094766 L 1551.5853588741777 55.09421220832273 L 1551.4078560446337 55.137611095127795 L 1551.2294020701765 55.180205415328665 L 1551.0500147960556 55.22199090952882 L 1550.8697121608484 55.26296339921367 L 1550.6885121946684 55.30311878716838 L 1550.506433017361 55.342453057887624 L 1550.3234928366924 55.3809622779771 L 1550.1397099465282 55.418642596546896 L 1549.9551027250043 55.45549024559656 L 1549.7696896326888 55.49150154039188 L 1549.5834892107366 55.5266728798334 L 1549.3965200790346 55.56100074681648 L 1549.2088009343404 55.594481708583025 L 1549.020350548412 55.627112417064765 L 1548.8311877661304 55.658889609218036 L 1548.641331503617 55.689810107350105 L 1548.4508007463394 55.719870819436935 L 1548.2596145472146 55.74906873943235 L 1548.067792024703 55.77740094756871 L 1547.8753523608975 55.80486461064878 L 1547.6823147996038 55.83145698232916 L 1547.4886986444171 55.857175403394834 L 1547.2945232567918 55.88201730202513 L 1547.0998080541046 55.90598019405088 L 1546.9045725077137 55.92906168320286 L 1546.7088361410108 55.95125946135139 L 1546.5126185274698 55.972571308737145 L 1546.3159392886882 55.99299509419315 L 1546.1188180924264 56.01252877535787 L 1545.9212746506394 56.03117039887948 L 1545.7233287175068 56.04891810061116 L 1545.5250000874569 56.065770105797526 L 1545.3263085931878 56.081724729252095 L 1545.127274103683 56.096780375525825 L 1544.9279165222256 56.11093553906663 L 1544.7282557844078 56.12418880436996 L 1544.528311856137 56.13653884612032 L 1544.328104731639 56.14798442932383 L 1544.12765443146 56.158524409431706 L 1543.9269810004625 56.16815773245473 L 1543.7261045058228 56.17688343506861 L 1543.5250450350227 56.184700644710375 L 1543.3238226938417 56.19160857966556 L 1543.1224576043464 56.197606549146435 L 1542.9209699028777 56.20269395336105 L 1542.719379738038 56.20687028357321 L 1542.517707268676 56.21013512215339 L 1542.31597266187 56.212488142620444 L 1542.1141960909133 56.2139291096743 L 1541.9123977332943 56.21445787921943 L 1541.7105977686808 56.21407439837934 L 1541.5088163769012 56.21277870550178 L 1541.3070737359262 56.21057093015497 L 1541.1053900198522 56.2074512931146 L 1540.9037853968823 56.203420106341774 L 1540.702280027311 56.19847777295181 L 1540.5008940615076 56.192624787173926 L 1540.2996476379003 56.18586173430183 L 1540.0985608809642 56.17818929063517 L 1539.8976538992074 56.16960822341191 L 1539.6969467831602 56.16011939073163 L 1539.4964596033676 56.14972374146969 L 1539.2962124083801 56.13842231518235 L 1539.0962252227505 56.12621624200283 L 1538.8965180450305 56.113106742528274 L 1538.6971108457717 56.099095127697694 L 1538.4980235655275 56.084182798660905 L 1538.2992761128605 56.06837124663838 L 1538.10088836235 56.051662052772144 L 1537.9028801526058 56.034056887967665 L 1537.705271284284 56.01555751272676 L 1537.5080815181066 55.996165776971516 L 1537.311330572886 55.97588361985936 L 1537.1150381235525 55.954713069589104 L 1536.9192237991879 55.93265624319813 L 1536.7239071810611 55.9097153463507 L 1536.5291078006712 55.885892673117375 L 1536.334845137794 55.861190605745634 L 1536.1411386185341 55.835611614421616 L 1535.9480076133816 55.80915825702316 L 1535.7554714352764 55.781833178863934 L 1535.5635493376756 55.753639112429 L 1535.372260512629 55.72457887710151 L 1535.18162408886 55.69465537888076 L 1534.991659129852 55.66387161009166 L 1534.8023846319427 55.63223064908542 L 1534.6138195224237 55.59973565993178 L 1534.4259826576492 55.56638989210258 L 1534.2388928211494 55.5321966801468 L 1534.0525687217514 55.497159443357155 L 1533.8670289917104 55.46128168542812 L 1533.6822921848443 55.4245669941056 L 1533.4983767746803 55.387019040828115 L 1533.315301152606 55.34864158035972 L 1533.133083626031 55.30943845041446 L 1532.9517424165563 55.269413571272686 L 1532.7712956581513 55.22857094538894 L 1532.5917613953418 55.18691465699178 L 1532.4131575814044 55.14444887167533 L 1532.2355020765717 55.10117783598274 L 1532.0588126462462 55.05710587698152 L 1531.8831069592234 55.01223740183083 L 1531.7084025859258 54.96657689734081 L 1531.5347169966453 54.92012892952385 L 1531.3620675597958 54.87289814313803 L 1531.1904715401772 54.82488926122262 L 1531.0199460972483 54.77610708462583 L 1530.8505082834117 54.72655649152463 L 1530.6821750423073 54.67624243693707 L 1530.5149632071189 54.62516995222667 L 1530.348889498891 54.57334414459934 L 1530.1839705248556 54.52077019659265 L 1530.0202227767727 54.467453365557596 L 1529.857662629281 54.41339898313285 L 1529.6963063382598 54.358612454711604 L 1529.5361700392032 54.30309925890105 L 1529.3772697456081 54.24686494697451 L 1529.2196213473715 54.18991514231631 L 1529.0632406092016 54.13225553985946 L 1528.908143169042 54.073891905516156 L 1528.7543445365072 54.014830075601196 L 1528.6018600913328 53.95507595624835 L 1528.450705081836 53.89463552281976 L 1528.3008946233917 53.83351481930841 L 1528.1524436969212 53.77171995773371 L 1528.005367147393 53.70925711753032 L 1527.8596796823397 53.64613254493022 L 1527.7153958703866 53.582352552338044 L 1527.5725301397943 53.51792351769993 L 1527.431096777017 53.45285188386562 L 1527.291109925273 53.3871441579443 L 1527.1525835831312 53.320806910653786 L 1527.0155316031098 53.25384677566353 L 1526.8799676902931 53.186270448931246 L 1526.7459054009591 53.11808468803328 L 1526.613358141225 53.049296311488895 L 1526.4823391657067 52.97991219807844 L 1526.352861576192 52.909939286155414 L 1526.2249383203325 52.83938457295272 L 1526.0985821903469 52.76825511388287 L 1525.9738058217426 52.6965580218325 L 1525.8506216920532 52.62430046645107 L 1525.7290421195885 52.5514896734339 L 1525.6090792622047 52.47813292379962 L 1525.490745116087 52.40423755316206 L 1525.3740515145523 52.3298109509967 L 1525.259010126863 52.25486055990175 L 1525.1456324570618 52.179393874853844 L 1525.0339298428214 52.103418442458604 L 1524.9239134543104 52.02694186019596 L 1524.8155942930757 51.94997177566041 L 1524.7089831909432 51.87251588579626 L 1524.6040908089344 51.79458193612795 L 1524.5009276361998 51.7161777199855 L 1524.399503988971 51.6373110777252 L 1524.2998300095278 51.55798989594554 L 1524.2019156651857 51.47822210669861 L 1524.1057707472971 51.398015686696844 L 1524.0114048702737 51.31737865651542 L 1523.9188274706246 51.23631907979016 L 1523.8280478060128 51.15484506241117 L 1523.7390749543288 51.072964751712306 L 1523.651917812784 50.990686335656406 L 1523.5665850970195 50.9080180420165 L 1523.4830853402361 50.82496813755307 L 1523.4014268923397 50.74154492718736 L 1523.3216179191072 50.65775675317087 L 1523.2436664013694 50.573611994251195 L 1523.1675801342128 50.4891190648341 L 1523.093366726201 50.40428641414212 L 1523.021033598613 50.31912252536962 L 1522.9505879847013 50.233635914834515 L 1522.8820369289683 50.14783513112663 L 1522.8153872864627 50.06172875425281 L 1522.7506457220932 49.975325394779006 L 1522.6878187099621 49.888633692969165 L 1522.6269125327185 49.80166231792121 L 1522.5679332809293 49.71441996670019 L 1522.5108868524703 49.626915363468505 L 1522.4557789519372 49.53915725861357 L 1522.4026150900736 49.45115442787274 L 1522.351400583222 49.362915671455745 L 1522.30214055279 49.27444981316471 L 1522.2548399247396 49.18576569951172 L 1522.2095034290944 49.09687219883425 L 1522.166135599466 49.007778200408296 L 1522.1247407726014 48.918492613559444 L 1522.0853230879486 48.82902436677198 L 1522.0478864872434 48.73938240679603 L 1522.0124347141145 48.64957569775289 L 1521.9789713137097 48.55961322023861 L 1521.9474996323413 48.46950397042599 L 1521.918022817151 48.37925695916492 L 1521.890543815796 48.28888121108131 L 1521.8650653761533 48.198385763674665 L 1521.841590046046 48.1077796664143 L 1521.820120172987 48.017071979834455 L 1521.800657903946 47.92627177462819 L 1521.7832051851337 47.835388130740355 L 1521.7677637618076 47.744430136459606 L 1521.7543351780969 47.65340688750957 L 1521.7429207768487 47.562327486139296 L 1521.7335216994938 47.47120104021301 L 1521.7261388859324 47.38003666229938 L 1521.7207730744392 47.28884346876023 L 1521.717424801591 47.1976305788389 L 1521.7160944022123 47.10640711374838" stroke-miterlimit="10" stroke-width="2.3497561670000002" stroke-dasharray=""/></g><g><g/><text fill="black" stroke="none" font-family="sans-serif" font-size="8pt" font-style="normal" font-weight="normal" text-decoration="normal" x="1518.3521382010208" y="71.045568814" text-anchor="start" dominant-baseline="alphabetic" xml:space="preserve">Database</text></g></g><g><path fill="white" stroke="black" paint-order="fill stroke markers" d=" M 378.2470773067709 120.80511117400002 L 392.06917240677086 120.80511117400002 L 392.06917240677086 581.0808780039999 L 378.2470773067709 581.0808780039999 L 378.2470773067709 120.80511117400002" stroke-miterlimit="10" stroke-width="1.1518412583333333" stroke-dasharray=""/><path fill="white" stroke="black" paint-order="fill stroke markers" d=" M 657.3537886609375 272.848157274 L 671.1758837609376 272.848157274 L 671.1758837609376 542.379011724 L 657.3537886609375 542.379011724 L 657.3537886609375 272.848157274" stroke-miterlimit="10" stroke-width="1.1518412583333333" stroke-dasharray=""/><path fill="white" stroke="black" paint-order="fill stroke markers" d=" M 378.2470773067709 619.7827442839999 L 392.06917240677086 619.7827442839999 L 392.06917240677086 1759.8291481320007 L 378.2470773067709 1759.8291481320007 L 378.2470773067709 619.7827442839999" stroke-miterlimit="10" stroke-width="1.1518412583333333" stroke-dasharray=""/><path fill="white" stroke="black" paint-order="fill stroke markers" d=" M 209.3751439713542 701.8859891779999 L 223.1972390713542 701.8859891779999 L 223.1972390713542 740.5878554579999 L 209.3751439713542 740.5878554579999 L 209.3751439713542 701.8859891779999" stroke-miterlimit="10" stroke-width="1.1518412583333333" stroke-dasharray=""/><path fill="white" stroke="black" paint-order="fill stroke markers" d=" M 209.3751439713542 779.2897217379999 L 223.1972390713542 779.2897217379999 L 223.1972390713542 895.3953205779999 L 209.3751439713542 895.3953205779999 L 209.3751439713542 779.2897217379999" stroke-miterlimit="10" stroke-width="1.1518412583333333" stroke-dasharray=""/><path fill="white" stroke="black" paint-order="fill stroke markers" d=" M 11.21484375 817.9915880179999 L 25.03693885 817.9915880179999 L 25.03693885 856.6934542979999 L 11.21484375 856.6934542979999 L 11.21484375 817.9915880179999" stroke-miterlimit="10" stroke-width="1.1518412583333333" stroke-dasharray=""/><path fill="white" stroke="black" paint-order="fill stroke markers" d=" M 657.3537886609375 934.0971868579999 L 671.1758837609376 934.0971868579999 L 671.1758837609376 1721.1272818520006 L 657.3537886609375 1721.1272818520006 L 657.3537886609375 934.0971868579999" stroke-miterlimit="10" stroke-width="1.1518412583333333" stroke-dasharray=""/><path fill="white" stroke="black" paint-order="fill stroke markers" d=" M 664.2648362109376 1106.8733756079998 L 678.0869313109376 1106.8733756079998 L 678.0869313109376 1664.4566919420004 L 664.2648362109376 1664.4566919420004 L 664.2648362109376 1106.8733756079998" stroke-miterlimit="10" stroke-width="1.1518412583333333" stroke-dasharray=""/><path fill="white" stroke="black" paint-order="fill stroke markers" d=" M 671.1758837609375 1216.0679268979998 L 684.9979788609376 1216.0679268979998 L 684.9979788609376 1607.7861020320006 L 671.1758837609375 1607.7861020320006 L 671.1758837609375 1216.0679268979998" stroke-miterlimit="10" stroke-width="1.1518412583333333" stroke-dasharray=""/><path fill="white" stroke="black" paint-order="fill stroke markers" d=" M 385.1581248567709 1254.7697931779999 L 398.98021995677084 1254.7697931779999 L 398.98021995677084 1569.0842357520005 L 385.1581248567709 1569.0842357520005 L 385.1581248567709 1254.7697931779999" stroke-miterlimit="10" stroke-width="1.1518412583333333" stroke-dasharray=""/><path fill="white" stroke="black" paint-order="fill stroke markers" d=" M 100.96515993139585 1336.8730380719999 L 114.78725503139586 1336.8730380719999 L 114.78725503139586 1375.574904352 L 100.96515993139585 1375.574904352 L 100.96515993139585 1336.8730380719999" stroke-miterlimit="10" stroke-width="1.1518412583333333" stroke-dasharray=""/><path fill="white" stroke="black" paint-order="fill stroke markers" d=" M 11.21484375 1452.9786369120002 L 25.03693885 1452.9786369120002 L 25.03693885 1491.6805031920003 L 11.21484375 1491.6805031920003 L 11.21484375 1452.9786369120002" stroke-miterlimit="10" stroke-width="1.1518412583333333" stroke-dasharray=""/><g><g><rect fill="white" stroke="none" x="104.09559191338548" y="102.83638754400002" width="188.18178478" height="17.96872363"/></g><text fill="black" stroke="none" font-family="sans-serif" font-size="8pt" font-style="normal" font-weight="normal" text-decoration="normal" x="106.16890617838547" y="115.27627313400002" text-anchor="start" dominant-baseline="alphabetic" xml:space="preserve">mousePressed(x : Integer, y : Integer)</text></g><g><path fill="none" stroke="black" paint-order="fill stroke markers" d=" M 18.1258913 120.80511117400002 L 366.8668856744376 120.80511117400002" stroke-miterlimit="10" stroke-width="1.1518412583333333" stroke-dasharray=""/><g transform="translate(378.2470773067709,120.80511117400002) translate(-378.2470773067709,-120.80511117400002)"><path fill="black" stroke="none" paint-order="stroke fill markers" d=" M 366.7286647234376 115.04590488233335 L 378.2470773067709 120.80511117400002 L 366.7286647234376 126.56431746566669 Z"/></g></g><g><g><rect fill="white" stroke="none" x="408.42531827510413" y="141.53825382400004" width="139.56801524875" height="17.96872363"/></g><text fill="black" stroke="none" font-family="sans-serif" font-size="8pt" font-style="normal" font-weight="normal" text-decoration="normal" x="410.49863254010415" y="153.97813941400005" text-anchor="start" dominant-baseline="alphabetic" xml:space="preserve">sn := yToScreen(y : Integer)</text></g><g><path fill="none" stroke="black" paint-order="fill stroke markers" d=" M 392.06917240677086 159.50697745400004 L 447.35755280677085 159.50697745400004 L 447.35755280677085 177.47570108400004 L 403.4493640391042 177.47570108400004" stroke-miterlimit="10" stroke-width="1.1518412583333333" stroke-dasharray=""/><g transform="translate(392.06917240677086,177.47570108400004) translate(-392.06917240677086,-177.47570108400004)"><path fill="black" stroke="none" paint-order="stroke fill markers" d=" M 403.5875849901042 171.71649479233338 L 392.06917240677086 177.47570108400004 L 403.5875849901042 183.2349073756667 Z"/></g></g><g><g><rect fill="white" stroke="none" x="408.42531827510413" y="198.20884373400003" width="137.9190894675" height="17.96872363"/></g><text fill="black" stroke="none" font-family="sans-serif" font-size="8pt" font-style="normal" font-weight="normal" text-decoration="normal" x="410.49863254010415" y="210.64872932400004" text-anchor="start" dominant-baseline="alphabetic" xml:space="preserve">time := xToTime(x : Integer)</text></g><g><path fill="none" stroke="black" paint-order="fill stroke markers" d=" M 392.06917240677086 216.17756736400003 L 447.35755280677085 216.17756736400003 L 447.35755280677085 234.14629099400003 L 403.4493640391042 234.14629099400003" stroke-miterlimit="10" stroke-width="1.1518412583333333" stroke-dasharray=""/><g transform="translate(392.06917240677086,234.14629099400003) translate(-392.06917240677086,-234.14629099400003)"><path fill="black" stroke="none" paint-order="stroke fill markers" d=" M 403.5875849901042 228.38708470233337 L 392.06917240677086 234.14629099400003 L 403.5875849901042 239.90549728566668 Z"/></g></g><g><g><rect fill="white" stroke="none" x="411.8808420501042" y="254.87943364400002" width="225.6612769675" height="17.96872363"/></g><text fill="black" stroke="none" font-family="sans-serif" font-size="8pt" font-style="normal" font-weight="normal" text-decoration="normal" x="413.9541563151042" y="267.31931923400003" text-anchor="start" dominant-baseline="alphabetic" xml:space="preserve">selectScreening(sn : String, time : LocalTime)</text></g><g><path fill="none" stroke="black" paint-order="fill stroke markers" d=" M 392.06917240677086 272.848157274 L 645.9735970286042 272.848157274" stroke-miterlimit="10" stroke-width="1.1518412583333333" stroke-dasharray=""/><g transform="translate(657.3537886609375,272.848157274) translate(-657.3537886609375,-272.848157274)"><path fill="black" stroke="none" paint-order="stroke fill markers" d=" M 645.8353760776042 267.08895098233336 L 657.3537886609375 272.848157274 L 645.8353760776042 278.6073635656667 Z"/></g></g><g><g><rect fill="white" stroke="none" x="859.6876433106041" y="330.900956694" width="90.95961681125" height="17.96872363"/></g><text fill="black" stroke="none" font-family="sans-serif" font-size="8pt" font-style="normal" font-weight="normal" text-decoration="normal" x="861.7609575756042" y="343.340842284" text-anchor="start" dominant-baseline="alphabetic" xml:space="preserve">getScreenName()</text></g><g><path fill="none" stroke="black" paint-order="fill stroke markers" d=" M 671.1758837609376 348.869680324 L 1127.7788280391874 348.869680324" stroke-miterlimit="10" stroke-width="1.1518412583333333" stroke-dasharray=""/><g transform="translate(1139.1590196715208,348.869680324) translate(-1139.1590196715208,-348.869680324)"><path fill="black" stroke="none" paint-order="stroke fill markers" d=" M 1127.6406070881874 343.11047403233334 L 1139.1590196715208 348.869680324 L 1127.6406070881874 354.62888661566666 Z"/></g></g><g><g><rect fill="white" stroke="none" x="879.7647917481041" y="369.602822974" width="50.80531993625" height="17.96872363"/></g><text fill="black" stroke="none" font-family="sans-serif" font-size="8pt" font-style="normal" font-weight="normal" text-decoration="normal" x="881.8381060131042" y="382.042708564" text-anchor="start" dominant-baseline="alphabetic" xml:space="preserve">getTime()</text></g><g><path fill="none" stroke="black" paint-order="fill stroke markers" d=" M 671.1758837609376 387.571546604 L 1127.7788280391874 387.571546604" stroke-miterlimit="10" stroke-width="1.1518412583333333" stroke-dasharray=""/><g transform="translate(1139.1590196715208,387.571546604) translate(-1139.1590196715208,-387.571546604)"><path fill="black" stroke="none" paint-order="stroke fill markers" d=" M 1127.6406070881874 381.81234031233333 L 1139.1590196715208 387.571546604 L 1127.6406070881874 393.33075289566665 Z"/></g></g><g><g><rect fill="white" stroke="none" x="687.5320296292709" y="429.037831904" width="88.49965587375" height="17.96872363"/></g><text fill="black" stroke="none" font-family="sans-serif" font-size="8pt" font-style="normal" font-weight="normal" text-decoration="normal" x="689.605343894271" y="441.477717494" text-anchor="start" dominant-baseline="alphabetic" xml:space="preserve">notifyObservers()</text></g><g><path fill="none" stroke="black" paint-order="fill stroke markers" d=" M 671.1758837609376 447.006555534 L 726.4642641609377 447.006555534 L 726.4642641609377 464.97527916399997 L 682.5560753932709 464.97527916399997" stroke-miterlimit="10" stroke-width="1.1518412583333333" stroke-dasharray=""/><g transform="translate(671.1758837609376,464.97527916399997) translate(-671.1758837609376,-464.97527916399997)"><path fill="black" stroke="none" paint-order="stroke fill markers" d=" M 682.6942963442709 459.2160728723333 L 671.1758837609376 464.97527916399997 L 682.6942963442709 470.73448545566663 Z"/></g></g><g><g><rect fill="white" stroke="none" x="502.1528147063542" y="485.70842181399996" width="45.117331655" height="17.96872363"/></g><text fill="black" stroke="none" font-family="sans-serif" font-size="8pt" font-style="normal" font-weight="normal" text-decoration="normal" x="504.2261289713542" y="498.148307404" text-anchor="start" dominant-baseline="alphabetic" xml:space="preserve">update()</text></g><g><path fill="none" stroke="black" paint-order="fill stroke markers" d=" M 657.3537886609375 503.67714544399996 L 403.4493640391042 503.67714544399996" stroke-miterlimit="10" stroke-width="1.1518412583333333" stroke-dasharray=""/><g transform="translate(392.06917240677086,503.67714544399996) translate(-392.06917240677086,-503.67714544399996)"><path fill="black" stroke="none" paint-order="stroke fill markers" d=" M 403.5875849901042 497.9179391523333 L 392.06917240677086 503.67714544399996 L 403.5875849901042 509.4363517356666 Z"/></g></g><g><g><rect fill="white" stroke="none" x="522.6381662688542" y="524.410288094" width="4.14662853" height="17.96872363"/></g><text fill="black" stroke="none" font-family="sans-serif" font-size="8pt" font-style="normal" font-weight="normal" text-decoration="normal" x="524.7114805338542" y="536.8501736839999" text-anchor="start" dominant-baseline="alphabetic" xml:space="preserve"></text></g><g><path fill="none" stroke="black" paint-order="fill stroke markers" d=" M 657.3537886609375 542.379011724 L 403.4493640391042 542.379011724" stroke-miterlimit="10" stroke-width="1.1518412583333333" stroke-dasharray="5.52883804"/><g transform="translate(392.06917240677086,542.379011724) translate(-392.06917240677086,-542.379011724)"><path fill="black" stroke="none" paint-order="stroke fill markers" d=" M 403.5875849901042 536.6198054323332 L 392.06917240677086 542.379011724 L 403.5875849901042 548.1382180156667 Z"/></g></g><g><g><rect fill="white" stroke="none" x="196.11317003838548" y="563.1121543739999" width="4.14662853" height="17.96872363"/></g><text fill="black" stroke="none" font-family="sans-serif" font-size="8pt" font-style="normal" font-weight="normal" text-decoration="normal" x="198.18648430338547" y="575.5520399639998" text-anchor="start" dominant-baseline="alphabetic" xml:space="preserve"></text></g><g><path fill="none" stroke="black" paint-order="fill stroke markers" d=" M 378.2470773067709 581.0808780039999 L 29.506082932333335 581.0808780039999" stroke-miterlimit="10" stroke-width="1.1518412583333333" stroke-dasharray="5.52883804"/><g transform="translate(18.1258913,581.0808780039999) translate(-18.1258913,-581.0808780039999)"><path fill="black" stroke="none" paint-order="stroke fill markers" d=" M 29.644303883333333 575.3216717123332 L 18.1258913 581.0808780039999 L 29.644303883333333 586.8400842956667 Z"/></g></g><g><g><rect fill="white" stroke="none" x="166.98035753838548" y="601.8140206539999" width="62.41225353" height="17.96872363"/></g><text fill="black" stroke="none" font-family="sans-serif" font-size="8pt" font-style="normal" font-weight="normal" text-decoration="normal" x="169.05367180338547" y="614.2539062439998" text-anchor="start" dominant-baseline="alphabetic" xml:space="preserve">sellTickets()</text></g><g><path fill="none" stroke="black" paint-order="fill stroke markers" d=" M 18.1258913 619.7827442839999 L 366.8668856744376 619.7827442839999" stroke-miterlimit="10" stroke-width="1.1518412583333333" stroke-dasharray=""/><g transform="translate(378.2470773067709,619.7827442839999) translate(-378.2470773067709,-619.7827442839999)"><path fill="black" stroke="none" paint-order="stroke fill markers" d=" M 366.7286647234376 614.0235379923332 L 378.2470773067709 619.7827442839999 L 366.7286647234376 625.5419505756666 Z"/></g></g><g><path fill="white" stroke="black" paint-order="fill stroke markers" d=" M 243.7230502948542 661.0416981575 A 20.5258112235 20.5258112235 0 1 1 243.72304003194944 661.0211723496975 M 190.0242108313542 639.3410088505001 L 190.0242108313542 682.7423874645 M 188.8493327478542 661.0416981575 L 202.6714278478542 661.0416981575" stroke-miterlimit="10" stroke-width="2.3497561670000002" stroke-dasharray=""/></g><g><g/><text fill="black" stroke="none" font-family="sans-serif" font-size="8pt" font-style="normal" font-weight="normal" text-decoration="normal" x="186.2268653494792" y="696.5644825644999" text-anchor="start" dominant-baseline="alphabetic" xml:space="preserve">TicketDialog</text></g><g><g><rect fill="white" stroke="none" x="276.500571125625" y="653.2322144259999" width="71.59145274875" height="17.96872363"/></g><text fill="black" stroke="none" font-family="sans-serif" font-size="8pt" font-style="normal" font-weight="normal" text-decoration="normal" x="278.57388539062504" y="665.6721000159998" text-anchor="start" dominant-baseline="alphabetic" xml:space="preserve">TicketDialog()</text></g><g><path fill="none" stroke="black" paint-order="fill stroke markers" d=" M 378.2470773067709 671.2009380559999 L 257.72570932556255 671.2009380559999" stroke-miterlimit="10" stroke-width="1.1518412583333333" stroke-dasharray=""/><g transform="translate(246.3455176932292,671.2009380559999) translate(-246.3455176932292,-671.2009380559999)"><path fill="black" stroke="none" paint-order="stroke fill markers" d=" M 257.86393027656254 665.4417317643332 L 246.3455176932292 671.2009380559999 L 257.86393027656254 676.9601443476666 Z"/></g></g><g><g><rect fill="white" stroke="none" x="298.64884392406253" y="722.6191318279999" width="4.14662853" height="17.96872363"/></g><text fill="black" stroke="none" font-family="sans-serif" font-size="8pt" font-style="normal" font-weight="normal" text-decoration="normal" x="300.72215818906255" y="735.0590174179998" text-anchor="start" dominant-baseline="alphabetic" xml:space="preserve"></text></g><g><path fill="none" stroke="black" paint-order="fill stroke markers" d=" M 223.1972390713542 740.5878554579999 L 366.8668856744376 740.5878554579999" stroke-miterlimit="10" stroke-width="1.1518412583333333" stroke-dasharray="5.52883804"/><g transform="translate(378.2470773067709,740.5878554579999) translate(-378.2470773067709,-740.5878554579999)"><path fill="black" stroke="none" paint-order="stroke fill markers" d=" M 366.7286647234376 734.8286491663332 L 378.2470773067709 740.5878554579999 L 366.7286647234376 746.3470617496666 Z"/></g></g><g><g><rect fill="white" stroke="none" x="261.56144158031253" y="761.3209981079999" width="78.3214332175" height="17.96872363"/></g><text fill="black" stroke="none" font-family="sans-serif" font-size="8pt" font-style="normal" font-weight="normal" text-decoration="normal" x="263.63475584531255" y="773.7608836979998" text-anchor="start" dominant-baseline="alphabetic" xml:space="preserve">showAndWait()</text></g><g><path fill="none" stroke="black" paint-order="fill stroke markers" d=" M 378.2470773067709 779.2897217379999 L 234.57743070368753 779.2897217379999" stroke-miterlimit="10" stroke-width="1.1518412583333333" stroke-dasharray=""/><g transform="translate(223.1972390713542,779.2897217379999) translate(-223.1972390713542,-779.2897217379999)"><path fill="black" stroke="none" paint-order="stroke fill markers" d=" M 234.71565165468755 773.5305154463332 L 223.1972390713542 779.2897217379999 L 234.71565165468755 785.0489280296666 Z"/></g></g><g><g><rect fill="white" stroke="none" x="115.1327271456771" y="800.0228643879999" width="4.14662853" height="17.96872363"/></g><text fill="black" stroke="none" font-family="sans-serif" font-size="8pt" font-style="normal" font-weight="normal" text-decoration="normal" x="117.20604141067709" y="812.4627499779998" text-anchor="start" dominant-baseline="alphabetic" xml:space="preserve"></text></g><g><path fill="none" stroke="black" paint-order="fill stroke markers" d=" M 209.3751439713542 817.9915880179999 L 36.417130482333334 817.9915880179999" stroke-miterlimit="10" stroke-width="1.1518412583333333" stroke-dasharray=""/><g transform="translate(25.03693885,817.9915880179999) translate(-25.03693885,-817.9915880179999)"><path fill="black" stroke="none" paint-order="stroke fill markers" d=" M 36.55535143333333 812.2323817263332 L 25.03693885 817.9915880179999 L 36.55535143333333 823.7507943096666 Z"/></g></g><g><g><rect fill="white" stroke="none" x="115.1327271456771" y="838.7247306679999" width="4.14662853" height="17.96872363"/></g><text fill="black" stroke="none" font-family="sans-serif" font-size="8pt" font-style="normal" font-weight="normal" text-decoration="normal" x="117.20604141067709" y="851.1646162579998" text-anchor="start" dominant-baseline="alphabetic" xml:space="preserve"></text></g><g><path fill="none" stroke="black" paint-order="fill stroke markers" d=" M 25.03693885 856.6934542979999 L 197.99495233902087 856.6934542979999" stroke-miterlimit="10" stroke-width="1.1518412583333333" stroke-dasharray="5.52883804"/><g transform="translate(209.3751439713542,856.6934542979999) translate(-209.3751439713542,-856.6934542979999)"><path fill="black" stroke="none" paint-order="stroke fill markers" d=" M 197.85673138802085 850.9342480063332 L 209.3751439713542 856.6934542979999 L 197.85673138802085 862.4526605896666 Z"/></g></g><g><g><rect fill="white" stroke="none" x="239.55338493968756" y="877.4265969479999" width="122.33754649875" height="17.96872363"/></g><text fill="black" stroke="none" font-family="sans-serif" font-size="8pt" font-style="normal" font-weight="normal" text-decoration="normal" x="241.62669920468755" y="889.8664825379998" text-anchor="start" dominant-baseline="alphabetic" xml:space="preserve">return tn : TicketNumber</text></g><g><path fill="none" stroke="black" paint-order="fill stroke markers" d=" M 223.1972390713542 895.3953205779999 L 366.8668856744376 895.3953205779999" stroke-miterlimit="10" stroke-width="1.1518412583333333" stroke-dasharray="5.52883804"/><g transform="translate(378.2470773067709,895.3953205779999) translate(-378.2470773067709,-895.3953205779999)"><path fill="black" stroke="none" paint-order="stroke fill markers" d=" M 366.7286647234376 889.6361142863332 L 378.2470773067709 895.3953205779999 L 366.7286647234376 901.1545268696666 Z"/></g></g><g><g><rect fill="white" stroke="none" x="440.3100412688542" y="916.1284632279999" width="168.80287853" height="17.96872363"/></g><text fill="black" stroke="none" font-family="sans-serif" font-size="8pt" font-style="normal" font-weight="normal" text-decoration="normal" x="442.3833555338542" y="928.5683488179998" text-anchor="start" dominant-baseline="alphabetic" xml:space="preserve">sellTickets(tn : int, sg : Screening)</text></g><g><path fill="none" stroke="black" paint-order="fill stroke markers" d=" M 392.06917240677086 934.0971868579999 L 645.9735970286042 934.0971868579999" stroke-miterlimit="10" stroke-width="1.1518412583333333" stroke-dasharray=""/><g transform="translate(657.3537886609375,934.0971868579999) translate(-657.3537886609375,-934.0971868579999)"><path fill="black" stroke="none" paint-order="stroke fill markers" d=" M 645.8353760776042 928.3379805663332 L 657.3537886609375 934.0971868579999 L 645.8353760776042 939.8563931496666 Z"/></g></g><g><g><rect fill="white" stroke="none" x="884.5354584387293" y="954.8303295079999" width="152.60365978" height="17.96872363"/></g><text fill="black" stroke="none" font-family="sans-serif" font-size="8pt" font-style="normal" font-weight="normal" text-decoration="normal" x="886.6087727037293" y="967.2702150979998" text-anchor="start" dominant-baseline="alphabetic" xml:space="preserve">nts := getNumberTicketsSold()</text></g><g><path fill="none" stroke="black" paint-order="fill stroke markers" d=" M 671.1758837609376 972.7990531379999 L 1239.1185012641874 972.7990531379999" stroke-miterlimit="10" stroke-width="1.1518412583333333" stroke-dasharray=""/><g transform="translate(1250.4986928965209,972.7990531379999) translate(-1250.4986928965209,-972.7990531379999)"><path fill="black" stroke="none" paint-order="stroke fill markers" d=" M 1238.9802803131874 967.0398468463331 L 1250.4986928965209 972.7990531379999 L 1238.9802803131874 978.5582594296666 Z"/></g></g><g><g><rect fill="white" stroke="none" x="916.7324799231043" y="993.5321957879999" width="88.20961681125" height="17.96872363"/></g><text fill="black" stroke="none" font-family="sans-serif" font-size="8pt" font-style="normal" font-weight="normal" text-decoration="normal" x="918.8057941881043" y="1005.9720813779998" text-anchor="start" dominant-baseline="alphabetic" xml:space="preserve">sc := getScreen()</text></g><g><path fill="none" stroke="black" paint-order="fill stroke markers" d=" M 671.1758837609376 1011.5009194179999 L 1239.1185012641874 1011.5009194179999" stroke-miterlimit="10" stroke-width="1.1518412583333333" stroke-dasharray=""/><g transform="translate(1250.4986928965209,1011.5009194179999) translate(-1250.4986928965209,-1011.5009194179999)"><path fill="black" stroke="none" paint-order="stroke fill markers" d=" M 1238.9802803131874 1005.7417131263331 L 1250.4986928965209 1011.5009194179999 L 1238.9802803131874 1017.2601257096666 Z"/></g></g><g><g><rect fill="white" stroke="none" x="958.3394503246667" y="1032.2340620679997" width="96.77114024875" height="17.96872363"/></g><text fill="black" stroke="none" font-family="sans-serif" font-size="8pt" font-style="normal" font-weight="normal" text-decoration="normal" x="960.4127645896667" y="1044.6739476579999" text-anchor="start" dominant-baseline="alphabetic" xml:space="preserve">cp := getCapacity()</text></g><g><path fill="none" stroke="black" paint-order="fill stroke markers" d=" M 671.1758837609376 1050.2027856979998 L 1330.8939655048125 1050.2027856979998" stroke-miterlimit="10" stroke-width="1.1518412583333333" stroke-dasharray=""/><g transform="translate(1342.274157137146,1050.2027856979998) translate(-1342.274157137146,-1050.2027856979998)"><path fill="black" stroke="none" paint-order="stroke fill markers" d=" M 1330.7557445538125 1044.4435794063331 L 1342.274157137146 1050.2027856979998 L 1330.7557445538125 1055.9619919896666 Z"/></g></g><g><g><rect fill="white" stroke="none" x="694.4430771792709" y="1070.9359283479998" width="338.121237905" height="17.96872363"/></g><text fill="black" stroke="none" font-family="sans-serif" font-size="8pt" font-style="normal" font-weight="normal" text-decoration="normal" x="696.5163914442709" y="1083.375813938" text-anchor="start" dominant-baseline="alphabetic" xml:space="preserve">checkTicketOverSold(tn : int, cp : int, nts : int)                                     </text></g><g><path fill="none" stroke="black" paint-order="fill stroke markers" d=" M 671.1758837609376 1088.904651978 L 733.3753117109376 1088.904651978 L 733.3753117109376 1106.8733756079998 L 689.4671229432709 1106.8733756079998" stroke-miterlimit="10" stroke-width="1.1518412583333333" stroke-dasharray=""/><g transform="translate(678.0869313109375,1106.8733756079998) translate(-678.0869313109375,-1106.8733756079998)"><path fill="black" stroke="none" paint-order="stroke fill markers" d=" M 689.6053438942708 1101.1141693163331 L 678.0869313109375 1106.8733756079998 L 689.6053438942708 1112.6325818996665 Z"/></g></g><path fill="white" stroke="black" paint-order="fill stroke markers" d=" M 496.3387077584376 1127.6065182579998 L 819.7510790734376 1127.6065182579998 L 832.1909646634376 1140.0464038479997 L 832.1909646634376 1159.3973369879998 L 496.3387077584376 1159.3973369879998 L 496.3387077584376 1127.6065182579998 M 819.7510790734376 1127.6065182579998 L 819.7510790734376 1140.0464038479997 L 832.1909646634376 1140.0464038479997" stroke-miterlimit="10" stroke-width="1.1518412583333333" stroke-dasharray=""/><g><text fill="black" stroke="none" font-family="sans-serif" font-size="8pt" font-style="normal" font-weight="normal" text-decoration="normal" x="515.6896408984376" y="1146.9574513979999" text-anchor="start" dominant-baseline="alphabetic" xml:space="preserve">found the left ticket number is less the required ticket number</text></g><g><g><rect fill="white" stroke="none" x="701.3541247292709" y="1180.1304796379998" width="260.32631603" height="17.96872363"/></g><text fill="black" stroke="none" font-family="sans-serif" font-size="8pt" font-style="normal" font-weight="normal" text-decoration="normal" x="703.4274389942709" y="1192.570365228" text-anchor="start" dominant-baseline="alphabetic" xml:space="preserve">observerMessage(message : String, false : Boolean)</text></g><g><path fill="none" stroke="black" paint-order="fill stroke markers" d=" M 678.0869313109375 1198.0992032679997 L 740.2863592609376 1198.0992032679997 L 740.2863592609376 1216.0679268979998 L 696.3781704932709 1216.0679268979998" stroke-miterlimit="10" stroke-width="1.1518412583333333" stroke-dasharray=""/><g transform="translate(684.9979788609376,1216.0679268979998) translate(-684.9979788609376,-1216.0679268979998)"><path fill="black" stroke="none" paint-order="stroke fill markers" d=" M 696.5163914442709 1210.308720606333 L 684.9979788609376 1216.0679268979998 L 696.5163914442709 1221.8271331896665 Z"/></g></g><g><g><rect fill="white" stroke="none" x="426.3133313438542" y="1236.8010695479998" width="217.52944103" height="17.96872363"/></g><text fill="black" stroke="none" font-family="sans-serif" font-size="8pt" font-style="normal" font-weight="normal" text-decoration="normal" x="428.3866456088542" y="1249.240955138" text-anchor="start" dominant-baseline="alphabetic" xml:space="preserve">message(message : String, false : Boolean)</text></g><g><path fill="none" stroke="black" paint-order="fill stroke markers" d=" M 671.1758837609376 1254.7697931779999 L 410.3604115891042 1254.7697931779999" stroke-miterlimit="10" stroke-width="1.1518412583333333" stroke-dasharray=""/><g transform="translate(398.9802199567709,1254.7697931779999) translate(-398.9802199567709,-1254.7697931779999)"><path fill="black" stroke="none" paint-order="stroke fill markers" d=" M 410.4986325401042 1249.0105868863332 L 398.9802199567709 1254.7697931779999 L 410.4986325401042 1260.5289994696666 Z"/></g></g><g><path fill="white" stroke="black" paint-order="fill stroke markers" d=" M 135.31306625489586 1296.0287470514995 A 20.5258112235 20.5258112235 0 1 1 135.3130559919911 1296.0082212436969 M 81.61422679139585 1274.3280577444993 L 81.61422679139585 1317.7294363584997 M 80.43934870789585 1296.0287470514995 L 94.26144380789586 1296.0287470514995" stroke-miterlimit="10" stroke-width="2.3497561670000002" stroke-dasharray=""/></g><g><g/><text fill="black" stroke="none" font-family="sans-serif" font-size="8pt" font-style="normal" font-weight="normal" text-decoration="normal" x="96.56736959077085" y="1331.5515314584998" text-anchor="start" dominant-baseline="alphabetic" xml:space="preserve">Alert</text></g><g><g><rect fill="white" stroke="none" x="193.44163617945836" y="1288.2192633199998" width="131.30727306125" height="17.96872363"/></g><text fill="black" stroke="none" font-family="sans-serif" font-size="8pt" font-style="normal" font-weight="normal" text-decoration="normal" x="195.51495044445835" y="1300.6591489099999" text-anchor="start" dominant-baseline="alphabetic" xml:space="preserve">Alert( warning : AlertType)</text></g><g><path fill="none" stroke="black" paint-order="fill stroke markers" d=" M 385.1581248567709 1306.1879869499999 L 144.41261219572917 1306.1879869499999" stroke-miterlimit="10" stroke-width="1.1518412583333333" stroke-dasharray=""/><g transform="translate(133.03242056339585,1306.1879869499999) translate(-133.03242056339585,-1306.1879869499999)"><path fill="black" stroke="none" paint-order="stroke fill markers" d=" M 144.5508331467292 1300.4287806583332 L 133.03242056339585 1306.1879869499999 L 144.5508331467292 1311.9471932416666 Z"/></g></g><g><g><rect fill="white" stroke="none" x="247.8993756790834" y="1357.6061807219999" width="4.14662853" height="17.96872363"/></g><text fill="black" stroke="none" font-family="sans-serif" font-size="8pt" font-style="normal" font-weight="normal" text-decoration="normal" x="249.97268994408338" y="1370.046066312" text-anchor="start" dominant-baseline="alphabetic" xml:space="preserve"></text></g><g><path fill="none" stroke="black" paint-order="fill stroke markers" d=" M 114.78725503139586 1375.574904352 L 373.77793322443756 1375.574904352" stroke-miterlimit="10" stroke-width="1.1518412583333333" stroke-dasharray="5.52883804"/><g transform="translate(385.1581248567709,1375.574904352) translate(-385.1581248567709,-1375.574904352)"><path fill="black" stroke="none" paint-order="stroke fill markers" d=" M 373.63971227343757 1369.8156980603333 L 385.1581248567709 1375.574904352 L 373.63971227343757 1381.3341106436667 Z"/></g></g><g><g><rect fill="white" stroke="none" x="205.82837338845837" y="1396.308047002" width="81.37758556125" height="17.96872363"/></g><text fill="black" stroke="none" font-family="sans-serif" font-size="8pt" font-style="normal" font-weight="normal" text-decoration="normal" x="207.90168765345837" y="1408.747932592" text-anchor="start" dominant-baseline="alphabetic" xml:space="preserve">showAndWait();</text></g><g><path fill="none" stroke="black" paint-order="fill stroke markers" d=" M 385.1581248567709 1414.276770632 L 119.25639911372919 1414.276770632" stroke-miterlimit="10" stroke-width="1.1518412583333333" stroke-dasharray=""/><g transform="translate(107.87620748139585,1414.276770632) translate(-107.87620748139585,-1414.276770632)"><path fill="black" stroke="none" paint-order="stroke fill markers" d=" M 119.39462006472918 1408.5175643403334 L 107.87620748139585 1414.276770632 L 119.39462006472918 1420.0359769236668 Z"/></g></g><g><g><rect fill="white" stroke="none" x="64.38325890069794" y="1435.009913282" width="4.14662853" height="17.96872363"/></g><text fill="black" stroke="none" font-family="sans-serif" font-size="8pt" font-style="normal" font-weight="normal" text-decoration="normal" x="66.45657316569793" y="1447.4497988720002" text-anchor="start" dominant-baseline="alphabetic" xml:space="preserve"></text></g><g><path fill="none" stroke="black" paint-order="fill stroke markers" d=" M 107.87620748139585 1452.9786369120002 L 36.417130482333334 1452.9786369120002" stroke-miterlimit="10" stroke-width="1.1518412583333333" stroke-dasharray=""/><g transform="translate(25.03693885,1452.9786369120002) translate(-25.03693885,-1452.9786369120002)"><path fill="black" stroke="none" paint-order="stroke fill markers" d=" M 36.55535143333333 1447.2194306203335 L 25.03693885 1452.9786369120002 L 36.55535143333333 1458.737843203667 Z"/></g></g><g><g><rect fill="white" stroke="none" x="64.38325890069794" y="1473.7117795620002" width="4.14662853" height="17.96872363"/></g><text fill="black" stroke="none" font-family="sans-serif" font-size="8pt" font-style="normal" font-weight="normal" text-decoration="normal" x="66.45657316569793" y="1486.1516651520003" text-anchor="start" dominant-baseline="alphabetic" xml:space="preserve"></text></g><g><path fill="none" stroke="black" paint-order="fill stroke markers" d=" M 25.03693885 1491.6805031920003 L 96.49601584906252 1491.6805031920003" stroke-miterlimit="10" stroke-width="1.1518412583333333" stroke-dasharray="5.52883804"/><g transform="translate(107.87620748139585,1491.6805031920003) translate(-107.87620748139585,-1491.6805031920003)"><path fill="black" stroke="none" paint-order="stroke fill markers" d=" M 96.35779489806252 1485.9212969003336 L 107.87620748139585 1491.6805031920003 L 96.35779489806252 1497.439709483667 Z"/></g></g><g><g><rect fill="white" stroke="none" x="215.09888120095837" y="1512.4136458420003" width="62.83656993625" height="17.96872363"/></g><text fill="black" stroke="none" font-family="sans-serif" font-size="8pt" font-style="normal" font-weight="normal" text-decoration="normal" x="217.17219546595837" y="1524.8535314320004" text-anchor="start" dominant-baseline="alphabetic" xml:space="preserve">return result</text></g><g><path fill="none" stroke="black" paint-order="fill stroke markers" d=" M 107.87620748139585 1530.3823694720004 L 373.77793322443756 1530.3823694720004" stroke-miterlimit="10" stroke-width="1.1518412583333333" stroke-dasharray="5.52883804"/><g transform="translate(385.1581248567709,1530.3823694720004) translate(-385.1581248567709,-1530.3823694720004)"><path fill="black" stroke="none" paint-order="stroke fill markers" d=" M 373.63971227343757 1524.6231631803337 L 385.1581248567709 1530.3823694720004 L 373.63971227343757 1536.141575763667 Z"/></g></g><g><g><rect fill="white" stroke="none" x="505.4913098594792" y="1551.1155121220004" width="59.17348399875" height="17.96872363"/></g><text fill="black" stroke="none" font-family="sans-serif" font-size="8pt" font-style="normal" font-weight="normal" text-decoration="normal" x="507.5646241244792" y="1563.5553977120005" text-anchor="start" dominant-baseline="alphabetic" xml:space="preserve">return false</text></g><g><path fill="none" stroke="black" paint-order="fill stroke markers" d=" M 398.9802199567709 1569.0842357520005 L 659.7956921286043 1569.0842357520005" stroke-miterlimit="10" stroke-width="1.1518412583333333" stroke-dasharray="5.52883804"/><g transform="translate(671.1758837609376,1569.0842357520005) translate(-671.1758837609376,-1569.0842357520005)"><path fill="black" stroke="none" paint-order="stroke fill markers" d=" M 659.6574711776043 1563.3250294603338 L 671.1758837609376 1569.0842357520005 L 659.6574711776043 1574.8434420436672 Z"/></g></g><g><g><rect fill="white" stroke="none" x="701.3541247292709" y="1589.8173784020005" width="59.17348399875" height="17.96872363"/></g><text fill="black" stroke="none" font-family="sans-serif" font-size="8pt" font-style="normal" font-weight="normal" text-decoration="normal" x="703.4274389942709" y="1602.2572639920006" text-anchor="start" dominant-baseline="alphabetic" xml:space="preserve">return false</text></g><g><path fill="none" stroke="black" paint-order="fill stroke markers" d=" M 684.9979788609376 1607.7861020320006 L 740.2863592609376 1607.7861020320006 L 740.2863592609376 1625.7548256620005 L 689.4671229432709 1625.7548256620005" stroke-miterlimit="10" stroke-width="1.1518412583333333" stroke-dasharray="5.52883804"/><g transform="translate(678.0869313109375,1625.7548256620005) translate(-678.0869313109375,-1625.7548256620005)"><path fill="black" stroke="none" paint-order="stroke fill markers" d=" M 689.6053438942708 1619.9956193703338 L 678.0869313109375 1625.7548256620005 L 689.6053438942708 1631.5140319536672 Z"/></g></g><g><g><rect fill="white" stroke="none" x="694.4430771792709" y="1646.4879683120005" width="59.17348399875" height="17.96872363"/></g><text fill="black" stroke="none" font-family="sans-serif" font-size="8pt" font-style="normal" font-weight="normal" text-decoration="normal" x="696.5163914442709" y="1658.9278539020006" text-anchor="start" dominant-baseline="alphabetic" xml:space="preserve">return false</text></g><g><path fill="none" stroke="black" paint-order="fill stroke markers" d=" M 678.0869313109375 1664.4566919420004 L 733.3753117109376 1664.4566919420004 L 733.3753117109376 1682.4254155720005 L 682.5560753932708 1682.4254155720005" stroke-miterlimit="10" stroke-width="1.1518412583333333" stroke-dasharray="5.52883804"/><g transform="translate(671.1758837609375,1682.4254155720005) translate(-671.1758837609375,-1682.4254155720005)"><path fill="black" stroke="none" paint-order="stroke fill markers" d=" M 682.6942963442708 1676.6662092803338 L 671.1758837609375 1682.4254155720005 L 682.6942963442708 1688.1846218636672 Z"/></g></g><g><g><rect fill="white" stroke="none" x="495.1247385344792" y="1703.1585582220005" width="59.17348399875" height="17.96872363"/></g><text fill="black" stroke="none" font-family="sans-serif" font-size="8pt" font-style="normal" font-weight="normal" text-decoration="normal" x="497.1980527994792" y="1715.5984438120006" text-anchor="start" dominant-baseline="alphabetic" xml:space="preserve">return false</text></g><g><path fill="none" stroke="black" paint-order="fill stroke markers" d=" M 657.3537886609375 1721.1272818520006 L 403.4493640391042 1721.1272818520006" stroke-miterlimit="10" stroke-width="1.1518412583333333" stroke-dasharray="5.52883804"/><g transform="translate(392.06917240677086,1721.1272818520006) translate(-392.06917240677086,-1721.1272818520006)"><path fill="black" stroke="none" paint-order="stroke fill markers" d=" M 403.5875849901042 1715.3680755603339 L 392.06917240677086 1721.1272818520006 L 403.5875849901042 1726.8864881436673 Z"/></g></g><g><g><rect fill="white" stroke="none" x="196.11317003838548" y="1741.8604245020006" width="4.14662853" height="17.96872363"/></g><text fill="black" stroke="none" font-family="sans-serif" font-size="8pt" font-style="normal" font-weight="normal" text-decoration="normal" x="198.18648430338547" y="1754.3003100920007" text-anchor="start" dominant-baseline="alphabetic" xml:space="preserve"></text></g><g><path fill="none" stroke="black" paint-order="fill stroke markers" d=" M 378.2470773067709 1759.8291481320007 L 29.506082932333335 1759.8291481320007" stroke-miterlimit="10" stroke-width="1.1518412583333333" stroke-dasharray="5.52883804"/><g transform="translate(18.1258913,1759.8291481320007) translate(-18.1258913,-1759.8291481320007)"><path fill="black" stroke="none" paint-order="stroke fill markers" d=" M 29.644303883333333 1754.069941840334 L 18.1258913 1759.8291481320007 L 29.644303883333333 1765.5883544236674 Z"/></g></g><g><g/><path fill="none" stroke="black" paint-order="fill stroke markers" d=" M 615.8875033609376 293.581299924 L 1187.5363525215207 293.581299924 L 1187.5363525215207 408.304689254 L 615.8875033609376 408.304689254 L 615.8875033609376 293.581299924 Z" stroke-miterlimit="10" stroke-width="1.9745850142857144" stroke-dasharray=""/><path fill="white" stroke="black" paint-order="fill stroke markers" d=" M 615.8875033609376 293.581299924 L 615.8875033609376 310.167814044 L 662.5248576234376 310.167814044 L 670.8181146834376 301.874556984 L 670.8181146834376 293.581299924 L 615.8875033609376 293.581299924" stroke-miterlimit="10" stroke-width="1.9745850142857144" stroke-dasharray=""/><text fill="black" stroke="none" font-family="sans-serif" font-size="6.4pt" font-style="normal" font-weight="bold" text-decoration="normal" x="629.7095984609375" y="304.638976004" text-anchor="start" dominant-baseline="alphabetic" xml:space="preserve">loop</text><text fill="black" stroke="none" font-family="sans-serif" font-size="6.4pt" font-style="normal" font-weight="bold" text-decoration="normal" x="684.6402097834375" y="304.638976004" text-anchor="start" dominant-baseline="alphabetic" xml:space="preserve">[for each current Screening]</text></g></g><g/><g/><g/><g/><g/><g/><g/><g/></g></svg>