<svg version="1.1" xmlns="http://www.w3.org/2000/svg" xmlns:xlink="http://www.w3.org/1999/xlink" width="1561" height="1750"><desc>actor%20Staff%0Aboundary%20TicketDialog%0Aboundary%20StaffUI%0A%0Acontrol%20ManagementSystem%0Aparticipant%20Cinema%0Aentity%20Screening%20(current)%0Aentity%20Screening%20(selected)%0Aentity%20%22sc%20%3A%20Screen%22%20as%20sc%0Aparticipant%20ScreeningMapper%0Adatabase%20Database%0AStaff-%3EStaffUI%3AmousePressed(x%20%3A%20Integer%2C%20y%20%3A%20Integer)%0Aactivate%20StaffUI%0A%0AStaffUI-%3EStaffUI%3Asn%20%3A%3D%20yToScreen(y%20%3A%20Integer)%0AStaffUI-%3EStaffUI%3Atime%20%3A%3D%20xToTime(x%20%3A%20Integer)%0AStaffUI-%3EManagementSystem%3AselectScreening(sn%20%3A%20String%2C%20time%20%3A%20LocalTime)%0Aactivate%20ManagementSystem%0A%0Aloop%20for%20each%20current%20Screening%0AManagementSystem-%3EScreening%20(current)%3AgetScreenName()%0AManagementSystem-%3EScreening%20(current)%3AgetTime()%0Aend%0AManagementSystem-%3EManagementSystem%3AnotifyObservers()%0AManagementSystem-%3EStaffUI%3Aupdate()%0A%0AManagementSystem--%3EStaffUI%3A%0Adeactivate%20ManagementSystem%0AStaffUI--%3EStaff%3A%0Adeactivate%20StaffUI%0A%0AStaff-%3EStaffUI%3AsellTickets()%0Aactivate%20StaffUI%0A%0AStaffUI-%3E*TicketDialog%3ATicketDialog()%0Aactivate%20TicketDialog%0ATicketDialog--%3EStaffUI%3A%0Adeactivate%20TicketDialog%0A%0AStaffUI-%3ETicketDialog%3AshowAndWait()%0Aactivate%20TicketDialog%0ATicketDialog-%3EStaff%3A%0AStaff--%3ETicketDialog%3A%0ATicketDialog--%3EStaffUI%3Areturn%20tn%20%3A%20TicketNumber%0Adeactivate%20TicketDialog%0A%0AStaffUI-%3EManagementSystem%3AsellTickets(tn%20%3A%20int%2C%20sg%20%3A%20Screening)%0Aactivate%20ManagementSystem%0A%0AManagementSystem-%3EScreening%20(selected)%3Ants%20%3A%3D%20getNumberTicketsSold()%0AManagementSystem-%3EScreening%20(selected)%3Asc%20%3A%3D%20getScreen()%0AManagementSystem-%3Esc%3Acp%20%3A%3D%20getCapacity()%0A%0Aexpandable-%20see%20diagram%2006%20ACE%20(sold%20ticket%20number%20exceeds%20the%20capacity%20number)%0AManagementSystem-%3EManagementSystem%3AcheckTicketOverSold(tn%20%3A%20int%2C%20cp%20%3A%20int%2C%20nts%20%3A%20int)%20%20%20%20%20%20%20%20%20%20%20%20%20%20%20%20%20%20%20%20%20%20%20%20%20%20%20%20%20%20%20%20%20%20%20%0Aend%20%20%20%20%20%20%20%20%0A%0AManagementSystem-%3EScreening%20(selected)%3AsetNumberTicketsSold(tn%20%3A%20int)%0A%0AManagementSystem-%3ECinema%3AupdateScreening(selected%20%3A%20Screening)%0Aactivate%20Cinema%0ACinema-%3EScreeningMapper%3AupdateScreening(sg%20%3A%20Screening)%0Aactivate%20ScreeningMapper%0AScreeningMapper-%3EScreeningMapper%3AperformUpdate(sql%20%3A%20String)%0Aactivate%20ScreeningMapper%0AScreeningMapper-%3EDatabase%3Aexecute(sql%20%3A%20String)%0AScreeningMapper--%3EScreeningMapper%3A%0Adeactivate%20ScreeningMapper%0AScreeningMapper--%3ECinema%3A%0A%0A%0ACinema--%3EManagementSystem%3A%0Adeactivate%20Cinema%0Aexpandable-%20see%2001%20-%20Display%20Date%20BCE%0AManagementSystem-%3EManagementSystem%3AnotifyObservers()%20%20%20%20%20%20%20%20%20%20%20%20%20%20%20%20%20%20%20%20%0Aend%0AManagementSystem--%3EStaffUI%3A%0Adeactivate%20ManagementSystem%0A%0AStaffUI--%3EStaff%3A%0Adeactivate%20StaffUI</desc><defs/><g><g/><g/><g/><g/><g/><g/><g/><g/><g/><g/><g/><g/><g/><g/><g/><g/><g/><g/><g/><g/><g/><g/><g/><g/><g/><g/><g/><g/><g/><g/><g/><g/><g/><g/><g/><g/><g/><g/><g><rect fill="white" stroke="none" x="0" y="0" width="1561" height="1750"/></g><g/><g><path fill="none" stroke="black" paint-order="fill stroke markers" d=" M 18.1258913 75.19219734400001 L 18.1258913 1750.9830072680004" stroke-miterlimit="10" stroke-width="1.1518412583333333" stroke-dasharray="10.632380846153845,4.607365033333333"/><path fill="none" stroke="black" paint-order="fill stroke markers" d=" M 135.48397710833333 701.8859891779999 L 135.48397710833333 1750.9830072680004" stroke-miterlimit="10" stroke-width="1.1518412583333333" stroke-dasharray="10.632380846153845,4.607365033333333"/><path fill="none" stroke="black" paint-order="fill stroke markers" d=" M 304.35591044375 75.19219734400001 L 304.35591044375 1750.9830072680004" stroke-miterlimit="10" stroke-width="1.1518412583333333" stroke-dasharray="10.632380846153845,4.607365033333333"/><path fill="none" stroke="black" paint-order="fill stroke markers" d=" M 576.5515742479166 75.19219734400001 L 576.5515742479166 1750.9830072680004" stroke-miterlimit="10" stroke-width="1.1518412583333333" stroke-dasharray="10.632380846153845,4.607365033333333"/><path fill="none" stroke="black" paint-order="fill stroke markers" d=" M 957.3985768187499 75.19219734400001 L 957.3985768187499 1750.9830072680004" stroke-miterlimit="10" stroke-width="1.1518412583333333" stroke-dasharray="10.632380846153845,4.607365033333333"/><path fill="none" stroke="black" paint-order="fill stroke markers" d=" M 1052.244500571 75.19219734400001 L 1052.244500571 1750.9830072680004" stroke-miterlimit="10" stroke-width="1.1518412583333333" stroke-dasharray="10.632380846153845,4.607365033333333"/><path fill="none" stroke="black" paint-order="fill stroke markers" d=" M 1163.584173796 75.19219734400001 L 1163.584173796 1750.9830072680004" stroke-miterlimit="10" stroke-width="1.1518412583333333" stroke-dasharray="10.632380846153845,4.607365033333333"/><path fill="none" stroke="black" paint-order="fill stroke markers" d=" M 1255.359638036625 75.19219734400001 L 1255.359638036625 1750.9830072680004" stroke-miterlimit="10" stroke-width="1.1518412583333333" stroke-dasharray="10.632380846153845,4.607365033333333"/><path fill="none" stroke="black" paint-order="fill stroke markers" d=" M 1355.103999288875 75.19219734400001 L 1355.103999288875 1750.9830072680004" stroke-miterlimit="10" stroke-width="1.1518412583333333" stroke-dasharray="10.632380846153845,4.607365033333333"/><path fill="none" stroke="black" paint-order="fill stroke markers" d=" M 1526.9272466034583 75.19219734400001 L 1526.9272466034583 1750.9830072680004" stroke-miterlimit="10" stroke-width="1.1518412583333333" stroke-dasharray="10.632380846153845,4.607365033333333"/></g><g><g><path fill="white" stroke="black" paint-order="fill stroke markers" d=" M 26.004485507 16.724735071000005 A 7.878594207 7.878594207 0 1 1 26.004481567703223 16.7168564781061 M 18.1258913 24.603329278000004 L 18.1258913 41.4662853 M 8.173982828 30.685051122000004 L 28.077799772 30.685051122000004 M 18.1258913 41.4662853 L 8.173982828 57.22347371400001 M 18.1258913 41.4662853 L 28.077799772 57.22347371400001" stroke-miterlimit="10" stroke-width="2.3497561670000002" stroke-dasharray=""/></g><g><g/><text fill="black" stroke="none" font-family="sans-serif" font-size="8pt" font-style="normal" font-weight="normal" text-decoration="normal" x="6.911047549999999" y="71.045568814" text-anchor="start" dominant-baseline="alphabetic" xml:space="preserve">Staff</text></g><g><path fill="white" stroke="black" paint-order="fill stroke markers" d=" M 331.79276921725 35.52278440700001 A 20.5258112235 20.5258112235 0 1 1 331.79275895434523 35.50225859919747 M 278.09392975375005 13.822095100000011 L 278.09392975375005 57.22347371400001 M 276.91905167025004 35.52278440700001 L 290.74114677025 35.52278440700001" stroke-miterlimit="10" stroke-width="2.3497561670000002" stroke-dasharray=""/></g><g><g/><text fill="black" stroke="none" font-family="sans-serif" font-size="8pt" font-style="normal" font-weight="normal" text-decoration="normal" x="287.64106669375" y="71.045568814" text-anchor="start" dominant-baseline="alphabetic" xml:space="preserve">StaffUI</text></g><g><path fill="white" stroke="black" paint-order="fill stroke markers" d=" M 597.0773854714166 35.52278440700001 A 20.5258112235 20.5258112235 0 1 1 597.0773752085119 35.50225859919747 M 573.7871552279166 14.99697318350001 L 582.0804122879166 8.085925633500011 M 573.7871552279166 14.99697318350001 L 582.0804122879166 21.90802073350001" stroke-miterlimit="10" stroke-width="2.3497561670000002" stroke-dasharray=""/></g><g><g/><text fill="black" stroke="none" font-family="sans-serif" font-size="8pt" font-style="normal" font-weight="normal" text-decoration="normal" x="526.1116328416666" y="71.045568814" text-anchor="start" dominant-baseline="alphabetic" xml:space="preserve">ManagementSystem</text></g><path fill="none" stroke="none"/><g><path fill="white" stroke="black" paint-order="fill stroke markers" d=" M 923.4496993383749 37.87254057400001 L 991.3474542991249 37.87254057400001 L 991.3474542991249 75.19219734400001 L 923.4496993383749 75.19219734400001 L 923.4496993383749 37.87254057400001 Z" stroke-miterlimit="10" stroke-width="2.211535216" stroke-dasharray=""/></g><g><g/><text fill="black" stroke="none" font-family="sans-serif" font-size="8pt" font-style="normal" font-weight="normal" text-decoration="normal" x="938.4466725218749" y="61.370102243999995" text-anchor="start" dominant-baseline="alphabetic" xml:space="preserve">Cinema</text></g><g><path fill="white" stroke="black" paint-order="fill stroke markers" d=" M 1072.7703117944998 33.64297947340001 A 20.5258112235 20.5258112235 0 1 1 1072.7703015315951 33.62245366559747 M 1030.543811264 56.04859563050001 L 1073.9451898779998 56.04859563050001" stroke-miterlimit="10" stroke-width="2.3497561670000002" stroke-dasharray=""/></g><g><g/><text fill="black" stroke="none" font-family="sans-serif" font-size="8pt" font-style="normal" font-weight="normal" text-decoration="normal" x="1005.1695493991249" y="71.045568814" text-anchor="start" dominant-baseline="alphabetic" xml:space="preserve">Screening (current)</text></g><g><path fill="white" stroke="black" paint-order="fill stroke markers" d=" M 1184.1099850195 33.64297947340001 A 20.5258112235 20.5258112235 0 1 1 1184.1099747565952 33.62245366559747 M 1141.8834844889998 56.04859563050001 L 1185.2848631030001 56.04859563050001" stroke-miterlimit="10" stroke-width="2.3497561670000002" stroke-dasharray=""/></g><g><g/><text fill="black" stroke="none" font-family="sans-serif" font-size="8pt" font-style="normal" font-weight="normal" text-decoration="normal" x="1113.141546842875" y="71.045568814" text-anchor="start" dominant-baseline="alphabetic" xml:space="preserve">Screening (selected)</text></g><g><path fill="white" stroke="black" paint-order="fill stroke markers" d=" M 1275.885449260125 33.64297947340001 A 20.5258112235 20.5258112235 0 1 1 1275.8854389972203 33.62245366559747 M 1233.658948729625 56.04859563050001 L 1277.060327343625 56.04859563050001" stroke-miterlimit="10" stroke-width="2.3497561670000002" stroke-dasharray=""/></g><g><text fill="black" stroke="none" font-family="sans-serif" font-size="8pt" font-style="normal" font-weight="normal" text-decoration="normal" x="1227.848895849125" y="71.045568814" text-anchor="start" dominant-baseline="alphabetic" xml:space="preserve">sc : Screen</text></g><path fill="none" stroke="none"/><g><path fill="white" stroke="black" paint-order="fill stroke markers" d=" M 1296.692475324125 37.87254057400001 L 1413.5155232536251 37.87254057400001 L 1413.5155232536251 75.19219734400001 L 1296.692475324125 75.19219734400001 L 1296.692475324125 37.87254057400001 Z" stroke-miterlimit="10" stroke-width="2.211535216" stroke-dasharray=""/></g><g><g/><text fill="black" stroke="none" font-family="sans-serif" font-size="8pt" font-style="normal" font-weight="normal" text-decoration="normal" x="1311.689448507625" y="61.370102243999995" text-anchor="start" dominant-baseline="alphabetic" xml:space="preserve">ScreeningMapper</text></g><g><path fill="white" stroke="black" paint-order="fill stroke markers" d=" M 1506.7469877574583 48.10089094800001 L 1506.7469877574583 19.074491238000007 L 1547.1075054494584 19.074491238000007 L 1547.1075054494584 48.10089094800001" stroke-miterlimit="10" stroke-width="2.3497561670000002" stroke-dasharray=""/><path fill="white" stroke="black" paint-order="fill stroke markers" d=" M 1547.1075054494584 18.065478295700007 L 1547.1064964449245 18.15670260293715 L 1547.1034695322223 18.247917787819585 L 1547.098425014041 18.339114728904843 L 1547.0913633948278 18.430284306574812 L 1547.0822853807388 18.521417403947694 L 1547.0711918795678 18.612504907789702 L 1547.0580840006558 18.703537709426353 L 1547.0429630547796 18.794506705653347 L 1547.0258305540215 18.885402799646865 L 1547.006688211617 18.976216901873258 L 1546.9855379417845 19.066939930997982 L 1546.9623818595335 19.15756281479372 L 1546.9372222804527 19.248076491047623 L 1546.910061720479 19.338471908467483 L 1546.8809028956462 19.42874002758689 L 1546.849748721812 19.518871821669155 L 1546.8166023143679 19.608858277609983 L 1546.7814669879272 19.698690396838764 L 1546.7443462559932 19.788359196218437 L 1546.705243830608 19.877855708943788 L 1546.6641636219817 19.967170985438123 L 1546.621109738101 20.05629609424822 L 1546.5760864843185 20.145222122937476 L 1546.5290983629218 20.23394017897712 L 1546.480150072684 20.322441390635486 L 1546.4292465083931 20.41071690786515 L 1546.3763927603634 20.498757903187958 L 1546.3215941139256 20.586555572577744 L 1546.2648560488988 20.674101136340735 L 1546.206184239042 20.7613858399935 L 1546.1455845514872 20.848400955138427 L 1546.083063046153 20.935137780336497 L 1546.0186259751376 21.021587641977483 L 1545.9522797820946 21.107741895147257 L 1545.8840311015877 21.193591924492296 L 1545.8138867584282 21.279129145081207 L 1545.741853766992 21.364345003263217 L 1545.6679393305185 21.449230977523516 L 1545.5921508403894 21.533778579335415 L 1545.5144958753906 21.617979354009194 L 1545.434982200954 21.701824881537547 L 1545.3536177683807 21.785306777437597 L 1545.270410714046 21.868416693589317 L 1545.1853693585863 21.951146319070357 L 1545.098502206066 22.033487380987104 L 1545.0098179431282 22.115431645301985 L 1544.9193254381253 22.196970917656856 L 1544.827033740232 22.278097044192428 L 1544.7329520785418 22.35880191236366 L 1544.637089861142 22.43907745175098 L 1544.5394566741745 22.518915634867348 L 1544.4400622808766 22.598308477960988 L 1544.3389166206052 22.677248041813744 L 1544.2360298078415 22.75572643253502 L 1544.1314121311816 22.83373580235114 L 1544.0250740523056 22.911268350390124 L 1543.9170262049327 22.988316323461788 L 1543.8072793937579 23.06487201683303 L 1543.6958445933706 23.140927774998303 L 1543.5827329471583 23.216475992445172 L 1543.467955766191 23.291509114414854 L 1543.3515245280912 23.366019637657672 L 1543.233450875886 23.4400001111834 L 1543.1137466168418 23.51344313700633 L 1542.9924237212851 23.586341370885087 L 1542.8694943214043 23.658687523057033 L 1542.7449707100368 23.73047435896723 L 1542.61886533944 23.801694699991916 L 1542.4911908200459 23.872341424156335 L 1542.3619599192002 23.942407466846948 L 1542.231185559885 24.011885821517872 L 1542.0988808194274 24.080769540391536 L 1541.9650589281912 24.149051735153456 L 1541.829733268254 24.216725577641057 L 1541.692917372069 24.283784300526488 L 1541.5546249211118 24.350221197993342 L 1541.4148697445123 24.416029626407234 L 1541.2736658176718 24.481203004980163 L 1541.131027260865 24.54573481642858 L 1540.986968337829 24.609618607625126 L 1540.841503454336 24.67284799024391 L 1540.694647156753 24.73541664139936 L 1540.5464141305874 24.797318304278505 L 1540.3968191990186 24.858546788766642 L 1540.2458773214146 24.919095972066344 L 1540.0936035918378 24.978959799309735 L 1539.940013237534 25.038132284163982 L 1539.7851216174108 25.09660750942991 L 1539.628944220501 25.154379627633716 L 1539.4714966644142 25.21144286161173 L 1539.3127946937748 25.267791505088102 L 1539.1528541786477 25.323419923245446 L 1538.991691112951 25.378322553288296 L 1538.829321612857 25.432493904999404 L 1538.6657619151804 25.48592856128874 L 1538.501028375755 25.53862117873521 L 1538.3351374677968 25.59056648812097 L 1538.1681057802587 25.641759294958376 L 1537.9999500161705 25.692194480009405 L 1537.8306869909682 25.741866999797576 L 1537.660333630813 25.790771887112307 L 1537.4889069708997 25.838904251505618 L 1537.3164241537509 25.886259279781186 L 1537.1429024275044 25.932832236475637 L 1536.9683591441888 25.978618464332122 L 1536.7928117579868 26.023613384766 L 1536.6162778234902 26.06781249832273 L 1536.4387749939463 26.11121138512779 L 1536.260321019489 26.153805705328658 L 1536.0809337453682 26.195591199528817 L 1535.900631110161 26.236563689213664 L 1535.719431143981 26.276719077168373 L 1535.5373519666734 26.316053347887618 L 1535.354411786005 26.354562567977098 L 1535.1706288958408 26.392242886546896 L 1534.9860216743168 26.429090535596558 L 1534.8006085820014 26.46510183039188 L 1534.6144081600492 26.5002731698334 L 1534.4274390283472 26.534601036816476 L 1534.239719883653 26.568081998583022 L 1534.0512694977244 26.60071270706476 L 1533.862106715443 26.63248989921803 L 1533.6722504529296 26.663410397350102 L 1533.481719695652 26.693471109436928 L 1533.2905334965271 26.722669029432353 L 1533.0987109740156 26.7510012375687 L 1532.90627131021 26.77846490064878 L 1532.7132337489163 26.805057272329158 L 1532.5196175937297 26.830775693394834 L 1532.3254422061043 26.855617592025126 L 1532.1307270034172 26.879580484050884 L 1531.9354914570263 26.90266197320286 L 1531.7397550903233 26.924859751351384 L 1531.5435374767824 26.946171598737138 L 1531.3468582380008 26.96659538419314 L 1531.149737041739 26.986129065357865 L 1530.952193599952 27.00477068887948 L 1530.7542476668193 27.022518390611154 L 1530.5559190367694 27.03937039579752 L 1530.3572275425004 27.055325019252088 L 1530.1581930529956 27.070380665525818 L 1529.9588354715381 27.084535829066628 L 1529.7591747337203 27.097789094369954 L 1529.5592308054495 27.110139136120317 L 1529.3590236809516 27.121584719323828 L 1529.1585733807726 27.132124699431706 L 1528.957899949775 27.141758022454724 L 1528.7570234551354 27.15048372506861 L 1528.5559639843352 27.15830093471037 L 1528.3547416431543 27.165208869665555 L 1528.153376553659 27.17120683914643 L 1527.9518888521902 27.176294243361042 L 1527.7502986873506 27.180470573573206 L 1527.5486262179886 27.18373541215339 L 1527.3468916111826 27.186088432620444 L 1527.1451150402258 27.18752939967429 L 1526.9433166826068 27.188058169219428 L 1526.7415167179934 27.187674688379335 L 1526.5397353262138 27.186378995501777 L 1526.3379926852388 27.184171220154965 L 1526.1363089691647 27.181051583114595 L 1525.9347043461948 27.17702039634177 L 1525.7331989766235 27.172078062951805 L 1525.53181301082 27.166225077173927 L 1525.3305665872128 27.159462024301828 L 1525.1294798302768 27.15178958063516 L 1524.92857284852 27.143208513411906 L 1524.7278657324728 27.13371968073163 L 1524.5273785526801 27.12332403146969 L 1524.3271313576927 27.112022605182354 L 1524.127144172063 27.099816532002833 L 1523.927436994343 27.086707032528267 L 1523.7280297950842 27.072695417697688 L 1523.52894251484 27.057783088660898 L 1523.330195062173 27.041971536638375 L 1523.1318073116627 27.025262342772145 L 1522.9337991019183 27.007657177967666 L 1522.7361902335965 26.98915780272675 L 1522.539000467419 26.96976606697151 L 1522.3422495221985 26.94948390985936 L 1522.145957072865 26.928313359589104 L 1521.9501427485004 26.906256533198132 L 1521.7548261303737 26.883315636350694 L 1521.5600267499838 26.859492963117372 L 1521.3657640871065 26.834790895745627 L 1521.1720575678467 26.809211904421616 L 1520.9789265626941 26.78275854702315 L 1520.786390384589 26.755433468863927 L 1520.594468286988 26.727239402428996 L 1520.4031794619416 26.6981791671015 L 1520.2125430381725 26.668255668880757 L 1520.0225780791645 26.637471900091654 L 1519.8333035812552 26.605830939085415 L 1519.6447384717362 26.573335949931778 L 1519.4569016069618 26.53999018210257 L 1519.269811770462 26.505796970146797 L 1519.083487671064 26.470759733357152 L 1518.897947941023 26.43488197542812 L 1518.7132111341568 26.398167284105593 L 1518.5292957239928 26.360619330828115 L 1518.3462201019186 26.32224187035971 L 1518.1640025753436 26.28303874041446 L 1517.9826613658688 26.243013861272683 L 1517.8022146074638 26.20217123538894 L 1517.6226803446543 26.160514946991775 L 1517.444076530717 26.11804916167533 L 1517.2664210258843 26.07477812598274 L 1517.0897315955588 26.03070616698151 L 1516.914025908536 25.985837691830824 L 1516.7393215352383 25.940177187340804 L 1516.5656359459579 25.893729219523845 L 1516.3929865091084 25.846498433138024 L 1516.2213904894897 25.798489551222623 L 1516.0508650465608 25.74970737462582 L 1515.8814272327243 25.700156781524633 L 1515.7130939916199 25.64984272693707 L 1515.5458821564314 25.59877024222667 L 1515.3798084482034 25.546944434599336 L 1515.214889474168 25.49437048659265 L 1515.0511417260852 25.441053655557596 L 1514.8885815785936 25.386999273132844 L 1514.7272252875723 25.3322127447116 L 1514.5670889885157 25.27669954890105 L 1514.4081886949207 25.220465236974505 L 1514.250540296684 25.163515432316306 L 1514.094159558514 25.105855829859454 L 1513.9390621183545 25.04749219551615 L 1513.7852634858198 24.98843036560119 L 1513.6327790406453 24.928676246248344 L 1513.4816240311486 24.86823581281976 L 1513.3318135727043 24.807115109308405 L 1513.1833626462337 24.74532024773371 L 1513.0362860967055 24.68285740753032 L 1512.8905986316522 24.61973283493021 L 1512.7463148196991 24.555952842338044 L 1512.6034490891068 24.49152380769992 L 1512.4620157263296 24.42645217386562 L 1512.3220288745856 24.360744447944292 L 1512.1835025324438 24.294407200653783 L 1512.0464505524224 24.227447065663533 L 1511.9108866396057 24.159870738931243 L 1511.7768243502717 24.09168497803327 L 1511.6442770905376 24.022896601488892 L 1511.5132581150192 23.95351248807843 L 1511.3837805255046 23.883539576155414 L 1511.255857269645 23.812984862952717 L 1511.1295011396594 23.741855403882866 L 1511.0047247710552 23.6701583118325 L 1510.8815406413657 23.597900756451068 L 1510.759961068901 23.5250899634339 L 1510.6399982115172 23.451733213799617 L 1510.5216640653996 23.377837843162055 L 1510.4049704638649 23.303411240996702 L 1510.2899290761754 23.228460849901744 L 1510.1765514063743 23.15299416485384 L 1510.064848792134 23.077018732458605 L 1509.954832403623 23.00054215019596 L 1509.8465132423883 22.923572065660405 L 1509.7399021402557 22.846116175796254 L 1509.635009758247 22.768182226127944 L 1509.5318465855123 22.6897780099855 L 1509.4304229382835 22.610911367725194 L 1509.3307489588403 22.53159018594554 L 1509.2328346144982 22.451822396698603 L 1509.1366896966097 22.37161597669684 L 1509.0423238195863 22.29097894651542 L 1508.9497464199371 22.209919369790153 L 1508.8589667553254 22.128445352411166 L 1508.7699939036413 22.046565041712302 L 1508.6828367620965 21.9642866256564 L 1508.597504046332 21.881618332016497 L 1508.5140042895487 21.79856842755307 L 1508.4323458416522 21.715145217187356 L 1508.3525368684197 21.631357043170873 L 1508.274585350682 21.547212284251195 L 1508.1984990835253 21.4627193548341 L 1508.1242856755136 21.377886704142114 L 1508.0519525479256 21.29272281536962 L 1507.9815069340139 21.207236204834516 L 1507.9129558782809 21.12143542112662 L 1507.8463062357753 21.03532904425281 L 1507.7815646714057 20.948925684779006 L 1507.7187376592747 20.862233982969162 L 1507.657831482031 20.77526260792121 L 1507.5988522302418 20.688020256700185 L 1507.5418058017829 20.600515653468506 L 1507.4866979012497 20.51275754861357 L 1507.4335340393861 20.424754717872737 L 1507.3823195325344 20.336515961455746 L 1507.3330595021025 20.2480501031647 L 1507.2857588740521 20.159365989511716 L 1507.240422378407 20.07047248883425 L 1507.1970545487786 19.98137849040829 L 1507.155659721914 19.89209290355944 L 1507.1162420372611 19.80262465677198 L 1507.078805436556 19.712982696796026 L 1507.043353663427 19.62317598775288 L 1507.0098902630223 19.533213510238607 L 1506.9784185816538 19.443104260425986 L 1506.9489417664636 19.352857249164913 L 1506.9214627651086 19.262481501081304 L 1506.8959843254659 19.171986053674658 L 1506.8725089953584 19.0813799564143 L 1506.8510391222994 18.99067226983445 L 1506.8315768532586 18.899872064628184 L 1506.8141241344463 18.80898842074035 L 1506.7986827111201 18.7180304264596 L 1506.7852541274094 18.627007177509565 L 1506.7738397261612 18.53592777613929 L 1506.7644406488064 18.44480133021301 L 1506.757057835245 18.35363695229938 L 1506.7516920237517 18.26244375876022 L 1506.7483437509036 18.171230868838894 L 1506.7470133515249 18.08000740374838 L 1506.7477009586546 17.98878248575917 L 1506.7504065035328 17.89756523728704 L 1506.7551297156067 17.80636477998082 L 1506.7618701225595 17.71519023381025 L 1506.770627050356 17.624050716153963 L 1506.7813996233106 17.532955340887774 L 1506.7941867641753 17.4419132174733 L 1506.8089871942461 17.350933450047012 L 1506.8257994334929 17.26002513650984 L 1506.8446218007055 17.16919736761737 L 1506.8654524136628 17.07845922607082 L 1506.8882891893209 16.987819785608714 L 1506.9131298440216 16.897288110099574 L 1506.9399718937198 16.8068732526355 L 1506.9688126542328 16.716584254626905 L 1506.999649241509 16.62643014489834 L 1507.032478571915 16.536419938785652 L 1507.067297362545 16.446562637234447 L 1507.1041021315493 16.356867225899993 L 1507.1428891984817 16.26734267424868 L 1507.1836546846678 16.177997934661075 L 1507.2263945135926 16.08884194153668 L 1507.2711044113091 15.999883610400506 L 1507.3177799068649 15.911131837011538 L 1507.3664163327492 15.82259549647316 L 1507.4170088253597 15.734283442345639 L 1507.4695523254898 15.6462045057608 L 1507.5240415788328 15.558367494538897 L 1507.580471136509 15.47078119230786 L 1507.6388353556097 15.383454357624922 L 1507.6991283997615 15.296395723100778 L 1507.7613442397103 15.209613994526332 L 1507.825476653924 15.123117850002128 L 1507.8915192292145 15.036915939070532 L 1507.9594653613794 14.951016881850805 L 1508.0293082558621 14.865429268177088 L 1508.1010409284313 14.780161656739425 L 1508.1746562058797 14.695222574227904 L 1508.2501467267407 14.610620514479992 L 1508.327504942025 14.526363937631164 L 1508.4067231159759 14.44246126926889 L 1508.4877933268417 14.358920899590089 L 1508.5707074676689 14.27575118256211 L 1508.6554572471127 14.19296043508735 L 1508.742034190266 14.110556936171564 L 1508.8304296395058 14.028548926095976 L 1508.9206347553618 13.946944605593249 L 1509.012640517397 13.865752135027433 L 1509.1064377251118 13.784979633577926 L 1509.202016998864 13.704635178427559 L 1509.299368780806 13.624726803954896 L 1509.39848333584 13.545262500930793 L 1509.4993507525935 13.466250215719334 L 1509.601960944409 13.387697849483194 L 1509.7063036503528 13.30961325739354 L 1509.812368436241 13.23200424784451 L 1509.9201446956838 13.154878581672381 L 1510.0296216511447 13.078243971379504 L 1510.1407883550196 13.002108080363044 L 1510.2536336907306 12.926478522148656 L 1510.3681463738383 12.851362859629138 L 1510.4843149531696 12.776768604308145 L 1510.6021278119636 12.702703215549048 L 1510.7215731690326 12.629174099829003 L 1510.8426390799402 12.556188609998305 L 1510.9653134381965 12.483754044545117 L 1511.0895839764678 12.411877646865625 L 1511.2154382678038 12.340566604539697 L 1511.34286372688 12.26982804861214 L 1511.4718476112573 12.199669052879603 L 1511.602377022654 12.130096633183188 L 1511.7344389082384 12.06111774670689 L 1511.8680200619315 11.992739291281874 L 1512.0031071257295 11.924968104696699 L 1512.1396865910385 11.857810964013552 L 1512.2777448000259 11.791274584890534 L 1512.4172679469855 11.725365620910111 L 1512.5582420797193 11.660090662913756 L 1512.7006531009315 11.595456238342878 L 1512.8444867696383 11.531468810586066 L 1512.9897287025929 11.468134778332775 L 1513.1363643757231 11.405460474933456 L 1513.2843791255837 11.343452167766216 L 1513.433758150823 11.282116057610097 L 1513.5844865136633 11.221458278025008 L 1513.7365491413934 11.16148489473835 L 1513.8899308278774 11.10220190503848 L 1514.0446162350747 11.043615237174969 L 1514.2005898945733 10.985730749765775 L 1514.3578362091375 10.928554231211407 L 1514.5163394542665 10.87209139911607 L 1514.6760837797679 10.816347899715922 L 1514.8370532113427 10.76132930731445 L 1514.9992316521812 10.707041123725045 L 1515.162602884575 10.653488777720831 L 1515.327150571537 10.600677624491773 L 1515.4928582584353 10.548612945109191 L 1515.6597093746395 10.497299945997636 L 1515.827687235177 10.446743758414254 L 1515.9967750424019 10.396949437935678 L 1516.1669558876742 10.347921963952459 L 1516.338212753051 10.299666239171138 L 1516.5105285129887 10.252187089123984 L 1516.683885936055 10.20548926168643 L 1516.858267686652 10.159577426602311 L 1517.0336563267497 10.114456175016873 L 1517.2100343176305 10.070130019017672 L 1517.3873840216422 10.026603391183372 L 1517.5656877039623 9.983880644140482 L 1517.744927534371 9.941966050128107 L 1517.9250855890348 9.900863800570718 L 1518.1061438522981 9.86057800565902 L 1518.288084218486 9.82111269393893 L 1518.4708884937127 9.782471811908737 L 1518.6545383977036 9.744659223624438 L 1518.8390155656211 9.707678710313356 L 1519.0243015499022 9.671533969996 L 1519.210377822103 9.636228617116288 L 1519.3972257747512 9.60176618218008 L 1519.5848267232072 9.568150111402154 L 1519.7731619075328 9.535383766361576 L 1519.962212494366 9.503470423665544 L 1520.151959578806 9.472413274621731 L 1520.3423841863025 9.442215424919162 L 1520.5334672745532 9.412879894317644 L 1520.7251897354088 9.384409616345788 L 1520.917532396783 9.35680743800767 L 1521.1104760245694 9.330076119498116 L 1521.3040013245666 9.304218333926707 L 1521.4980889444057 9.27923666705045 L 1521.6927194754862 9.255133617015213 L 1521.8878734549178 9.231911594105915 L 1522.0835313674645 9.209572920505497 L 1522.2796736474984 9.1881198300627 L 1522.476280680955 9.167554468068694 L 1522.6733328072946 9.147878891042538 L 1522.8708103214692 9.129095066525542 L 1523.0686934758915 9.1112048728845 L 1523.266962482411 9.09421009912387 L 1523.4655975142923 9.078112444706866 L 1523.664578708198 9.062913519385516 L 1523.8638861661743 9.048614843039683 L 1524.0634999576416 9.03521784552509 L 1524.263400121387 9.022723866530322 L 1524.4635666675606 9.011134155442866 L 1524.6639795796748 9.000449871224175 L 1524.8646188166053 8.990672082293766 L 1525.0654643145958 8.981801766422386 L 1525.2664959892636 8.973839810634226 L 1525.467693737609 8.966787011118234 L 1525.6690374400246 8.960644073148481 L 1525.870506962308 8.955411611013648 L 1526.072082157675 8.951090147955588 L 1526.2737428687738 8.947680116117002 L 1526.4754689297015 8.945181856498236 L 1526.67724016802 8.943595618923167 L 1526.879036406774 8.942921562014233 L 1527.0808374665073 8.94315975317656 L 1527.2826231672823 8.944310168591237 L 1527.484373330697 8.946372693217674 L 1527.6860677819034 8.949347120805129 L 1527.8876863516243 8.953233153913324 L 1528.0892088781707 8.958030403942185 L 1528.2906152094579 8.963738391170708 L 1528.4918852050207 8.970356544804925 L 1528.692998738027 8.97788420303499 L 1528.8939356972915 8.98632061310135 L 1529.0946759892854 8.99566493137003 L 1529.295199540147 9.00591622341699 L 1529.4954862976883 9.017073464121571 L 1529.6955162334002 9.029135537768996 L 1529.895269344456 9.042101238161953 L 1530.0947256557113 9.055969268741208 L 1530.2938652217006 9.070738242715262 L 1530.4926681286338 9.086406683199021 L 1530.6911144963856 9.102973023361494 L 1530.8891844804846 9.120435606582474 L 1531.0868582740975 9.138792686618187 L 1531.2841161100096 9.158042427775927 L 1531.480938262602 9.178182905097621 L 1531.677305049823 9.199212104552322 L 1531.8731968351578 9.221127923237606 L 1532.068594029591 9.243928169589871 L 1532.263477093566 9.267610563603478 L 1532.457826538939 9.292172737058763 L 1532.651622930927 9.317612233758847 L 1532.8448468900528 9.343926509775264 L 1533.0374790940812 9.371112933702335 L 1533.2295002799524 9.399168786920328 L 1533.4208912457077 9.428091263867296 L 1533.6116328524101 9.45787747231965 L 1533.8017060260581 9.488524433681365 L 1533.9910917594923 9.520029083281843 L 1534.1797711142976 9.55238827068238 L 1534.3677252226955 9.585598759991202 L 1534.5549352894318 9.619657230187048 L 1534.741382593656 9.654560275451288 L 1534.927048490793 9.690304405508478 L 1535.1119144144075 9.726886045975398 L 1535.2959618780617 9.764301538718486 L 1535.4791724771621 9.802547142219648 L 1535.6615278908018 9.841619031950406 L 1535.8430098835913 9.881513300754346 L 1536.0236003074826 9.92222595923783 L 1536.203281103584 9.963752936168941 L 1536.3820343039652 10.00609007888459 L 1536.5598420334552 10.049233153705785 L 1536.7366865114293 10.093177846360998 L 1536.9125500535872 10.137919762417582 L 1537.0874150737213 10.18345442772122 L 1537.261264085475 10.229777288843323 L 1537.434079704092 10.276883713536382 L 1537.605844648155 10.324768991197185 L 1537.776541741312 10.373428333337866 L 1537.9461539139963 10.422856874064767 L 1538.1146642051322 10.473049670564997 L 1538.2820557638304 10.52400170360074 L 1538.448311851075 10.575707878011151 L 1538.6134158413959 10.628163023221877 L 1538.7773512245312 10.681361893762105 L 1538.9401016070794 10.73529916978912 L 1539.101650714138 10.789969457620263 L 1539.261982390931 10.84536729027231 L 1539.421080604424 10.90148712800816 L 1539.5789294449285 10.958323358890807 L 1539.7355131276918 11.015870299344526 L 1539.8908159944763 11.074122194723225 L 1540.0448225151245 11.133073219885913 L 1540.1975172891127 11.192717479779198 L 1540.348885047091 11.253049010026789 L 1540.4989106524097 11.314061777525946 L 1540.6475791026332 11.375749681050758 L 1540.7948755310401 11.43810655186228 L 1540.9407852081108 11.501126154325393 L 1541.085293542999 11.564802186532368 L 1541.2283860849914 11.629128280933049 L 1541.3700485249533 11.6940980049716 L 1541.5102666967584 11.759704861729757 L 1541.649026578707 11.825942290576517 L 1541.7863142949261 11.892803667824193 L 1541.9221161167586 11.96028230739078 L 1542.0564184641353 12.02837146146855 L 1542.1892079069337 12.097064321198838 L 1542.32047116632 12.166354017352914 L 1542.4501951160776 12.236233621018904 L 1542.5783667839196 12.306696144294676 L 1542.7049733527863 12.377734540986618 L 1542.830002162126 12.449341707314261 L 1542.9534407091621 12.521510482620645 L 1543.0752766501428 12.594233650088377 L 1543.1954978015754 12.667503937461316 L 1543.314092141445 12.741314017771781 L 1543.4310478104164 12.815656510073252 L 1543.5463531130204 12.890523980178447 L 1543.6599965188227 12.965908941402748 L 1543.7719666635771 13.04180385531285 L 1543.882252350363 13.11820113248061 L 1543.9908425507033 13.195093133241976 L 1544.0977264056683 13.272472168460947 L 1544.2028932269618 13.350330500298481 L 1544.3063324979894 13.42866034298628 L 1544.40803387491 13.507453863605349 L 1544.5079871876708 13.586703182869286 L 1544.6061824410237 13.666400375912204 L 1544.7026098155252 13.746537473081217 L 1544.7972596685183 13.827106460733386 L 1544.8901225350965 13.908099282037085 L 1544.9811891290506 13.989507837777682 L 1545.070450343797 14.071323987167439 L 1545.1578972532886 14.1535395486596 L 1545.2435211129075 14.236146300766524 L 1545.3273133603388 14.319135982881845 L 1545.4092656164278 14.402500296106505 L 1545.4893696860172 14.486230904078653 L 1545.5676175587666 14.570319433807267 L 1545.6440014099542 14.654757476509447 L 1545.7185136012583 14.739536588451287 L 1545.7911466815222 14.824648291792245 L 1545.861893387498 14.910084075432911 L 1545.9307466445741 14.995835395866116 L 1545.9976995674824 15.081893678031278 L 1546.0627454609862 15.168250316171896 L 1546.1258778205506 15.254896674696116 L 1546.1870903329918 15.341824089040294 L 1546.2463768771102 15.429023866535433 L 1546.3037315243002 15.516487287276451 L 1546.3591485391453 15.604205604994158 L 1546.41262237999 15.692170047929883 L 1546.4641476994948 15.780371819712634 L 1546.5137193451708 15.868802100238737 L 1546.5613323598943 15.957452046553826 L 1546.6069819824042 16.046312793737147 L 1546.6506636477757 16.135375455788033 L 1546.692372987879 16.2246311265145 L 1546.7321058318148 16.314070880423845 L 1546.7698582063315 16.40368577361522 L 1546.8056263362237 16.49346684467398 L 1546.8394066447077 16.583405115567835 L 1546.871195753781 16.67349159254465 L 1546.900990484559 16.763717267031794 L 1546.928787857594 16.85407311653701 L 1546.9545850931713 16.944550105550636 L 1546.978379611589 17.03513918644918 L 1547.0001690334152 17.12583130040003 L 1547.0199511797257 17.216617378267376 L 1547.0377240723224 17.307488341519083 L 1547.053485933931 17.398435103134553 L 1547.0672351883782 17.48944856851341 L 1547.0789704607503 17.580519636384963 L 1547.0886905775296 17.67163919971832 L 1547.096394566713 17.762798146633074 L 1547.102081657907 17.8539873613105 L 1547.1057512824084 17.945197724905128 L 1547.107403073257 18.0364201164566 M 1547.1075054494584 47.09187800570001 L 1547.1064964449245 47.18310231293715 L 1547.1034695322223 47.27431749781959 L 1547.098425014041 47.365514438904846 L 1547.0913633948278 47.45668401657481 L 1547.0822853807388 47.547817113947694 L 1547.0711918795678 47.638904617789706 L 1547.0580840006558 47.729937419426356 L 1547.0429630547796 47.82090641565335 L 1547.0258305540215 47.91180250964687 L 1547.006688211617 48.002616611873265 L 1546.9855379417845 48.09333964099798 L 1546.9623818595335 48.18396252479373 L 1546.9372222804527 48.27447620104763 L 1546.910061720479 48.36487161846748 L 1546.8809028956462 48.45513973758689 L 1546.849748721812 48.54527153166916 L 1546.8166023143679 48.63525798760998 L 1546.7814669879272 48.72509010683876 L 1546.7443462559932 48.81475890621844 L 1546.705243830608 48.90425541894379 L 1546.6641636219817 48.99357069543812 L 1546.621109738101 49.082695804248225 L 1546.5760864843185 49.17162183293748 L 1546.5290983629218 49.26033988897713 L 1546.480150072684 49.34884110063549 L 1546.4292465083931 49.43711661786516 L 1546.3763927603634 49.525157613187965 L 1546.3215941139256 49.61295528257775 L 1546.2648560488988 49.70050084634074 L 1546.206184239042 49.78778554999351 L 1546.1455845514872 49.87480066513843 L 1546.083063046153 49.961537490336504 L 1546.0186259751376 50.04798735197749 L 1545.9522797820946 50.134141605147256 L 1545.8840311015877 50.2199916344923 L 1545.8138867584282 50.305528855081214 L 1545.741853766992 50.39074471326322 L 1545.6679393305185 50.47563068752352 L 1545.5921508403894 50.56017828933542 L 1545.5144958753906 50.64437906400919 L 1545.434982200954 50.72822459153755 L 1545.3536177683807 50.8117064874376 L 1545.270410714046 50.894816403589324 L 1545.1853693585863 50.97754602907036 L 1545.098502206066 51.059887090987104 L 1545.0098179431282 51.14183135530199 L 1544.9193254381253 51.22337062765686 L 1544.827033740232 51.304496754192435 L 1544.7329520785418 51.38520162236367 L 1544.637089861142 51.46547716175098 L 1544.5394566741745 51.545315344867355 L 1544.4400622808766 51.62470818796099 L 1544.3389166206052 51.70364775181375 L 1544.2360298078415 51.78212614253502 L 1544.1314121311816 51.86013551235114 L 1544.0250740523056 51.93766806039013 L 1543.9170262049327 52.014716033461795 L 1543.8072793937579 52.09127172683303 L 1543.6958445933706 52.1673274849983 L 1543.5827329471583 52.242875702445176 L 1543.467955766191 52.31790882441486 L 1543.3515245280912 52.39241934765768 L 1543.233450875886 52.4663998211834 L 1543.1137466168418 52.539842847006334 L 1542.9924237212851 52.612741080885094 L 1542.8694943214043 52.68508723305703 L 1542.7449707100368 52.756874068967235 L 1542.61886533944 52.82809440999192 L 1542.4911908200459 52.89874113415634 L 1542.3619599192002 52.96880717684695 L 1542.231185559885 53.03828553151787 L 1542.0988808194274 53.107169250391536 L 1541.9650589281912 53.175451445153456 L 1541.829733268254 53.243125287641064 L 1541.692917372069 53.31018401052649 L 1541.5546249211118 53.37662090799334 L 1541.4148697445123 53.44242933640724 L 1541.2736658176718 53.507602714980166 L 1541.131027260865 53.572134526428584 L 1540.986968337829 53.63601831762513 L 1540.841503454336 53.699247700243916 L 1540.694647156753 53.76181635139937 L 1540.5464141305874 53.82371801427851 L 1540.3968191990186 53.884946498766645 L 1540.2458773214146 53.945495682066344 L 1540.0936035918378 54.00535950930974 L 1539.940013237534 54.064531994163985 L 1539.7851216174108 54.123007219429915 L 1539.628944220501 54.18077933763372 L 1539.4714966644142 54.237842571611736 L 1539.3127946937748 54.294191215088105 L 1539.1528541786477 54.349819633245446 L 1538.991691112951 54.4047222632883 L 1538.829321612857 54.45889361499941 L 1538.6657619151804 54.512328271288744 L 1538.501028375755 54.56502088873521 L 1538.3351374677968 54.61696619812098 L 1538.1681057802587 54.66815900495838 L 1537.9999500161705 54.718594190009405 L 1537.8306869909682 54.76826670979758 L 1537.660333630813 54.817171597112306 L 1537.4889069708997 54.865303961505624 L 1537.3164241537509 54.912658989781185 L 1537.1429024275044 54.95923194647564 L 1536.9683591441888 55.00501817433212 L 1536.7928117579868 55.050013094766 L 1536.6162778234902 55.09421220832273 L 1536.4387749939463 55.137611095127795 L 1536.260321019489 55.180205415328665 L 1536.0809337453682 55.22199090952882 L 1535.900631110161 55.26296339921367 L 1535.719431143981 55.30311878716838 L 1535.5373519666734 55.342453057887624 L 1535.354411786005 55.3809622779771 L 1535.1706288958408 55.418642596546896 L 1534.9860216743168 55.45549024559656 L 1534.8006085820014 55.49150154039188 L 1534.6144081600492 55.5266728798334 L 1534.4274390283472 55.56100074681648 L 1534.239719883653 55.594481708583025 L 1534.0512694977244 55.627112417064765 L 1533.862106715443 55.658889609218036 L 1533.6722504529296 55.689810107350105 L 1533.481719695652 55.719870819436935 L 1533.2905334965271 55.74906873943235 L 1533.0987109740156 55.77740094756871 L 1532.90627131021 55.80486461064878 L 1532.7132337489163 55.83145698232916 L 1532.5196175937297 55.857175403394834 L 1532.3254422061043 55.88201730202513 L 1532.1307270034172 55.90598019405088 L 1531.9354914570263 55.92906168320286 L 1531.7397550903233 55.95125946135139 L 1531.5435374767824 55.972571308737145 L 1531.3468582380008 55.99299509419315 L 1531.149737041739 56.01252877535787 L 1530.952193599952 56.03117039887948 L 1530.7542476668193 56.04891810061116 L 1530.5559190367694 56.065770105797526 L 1530.3572275425004 56.081724729252095 L 1530.1581930529956 56.096780375525825 L 1529.9588354715381 56.11093553906663 L 1529.7591747337203 56.12418880436996 L 1529.5592308054495 56.13653884612032 L 1529.3590236809516 56.14798442932383 L 1529.1585733807726 56.158524409431706 L 1528.957899949775 56.16815773245473 L 1528.7570234551354 56.17688343506861 L 1528.5559639843352 56.184700644710375 L 1528.3547416431543 56.19160857966556 L 1528.153376553659 56.197606549146435 L 1527.9518888521902 56.20269395336105 L 1527.7502986873506 56.20687028357321 L 1527.5486262179886 56.21013512215339 L 1527.3468916111826 56.212488142620444 L 1527.1451150402258 56.2139291096743 L 1526.9433166826068 56.21445787921943 L 1526.7415167179934 56.21407439837934 L 1526.5397353262138 56.21277870550178 L 1526.3379926852388 56.21057093015497 L 1526.1363089691647 56.2074512931146 L 1525.9347043461948 56.203420106341774 L 1525.7331989766235 56.19847777295181 L 1525.53181301082 56.192624787173926 L 1525.3305665872128 56.18586173430183 L 1525.1294798302768 56.17818929063517 L 1524.92857284852 56.16960822341191 L 1524.7278657324728 56.16011939073163 L 1524.5273785526801 56.14972374146969 L 1524.3271313576927 56.13842231518235 L 1524.127144172063 56.12621624200283 L 1523.927436994343 56.113106742528274 L 1523.7280297950842 56.099095127697694 L 1523.52894251484 56.084182798660905 L 1523.330195062173 56.06837124663838 L 1523.1318073116627 56.051662052772144 L 1522.9337991019183 56.034056887967665 L 1522.7361902335965 56.01555751272676 L 1522.539000467419 55.996165776971516 L 1522.3422495221985 55.97588361985936 L 1522.145957072865 55.954713069589104 L 1521.9501427485004 55.93265624319813 L 1521.7548261303737 55.9097153463507 L 1521.5600267499838 55.885892673117375 L 1521.3657640871065 55.861190605745634 L 1521.1720575678467 55.835611614421616 L 1520.9789265626941 55.80915825702316 L 1520.786390384589 55.781833178863934 L 1520.594468286988 55.753639112429 L 1520.4031794619416 55.72457887710151 L 1520.2125430381725 55.69465537888076 L 1520.0225780791645 55.66387161009166 L 1519.8333035812552 55.63223064908542 L 1519.6447384717362 55.59973565993178 L 1519.4569016069618 55.56638989210258 L 1519.269811770462 55.5321966801468 L 1519.083487671064 55.497159443357155 L 1518.897947941023 55.46128168542812 L 1518.7132111341568 55.4245669941056 L 1518.5292957239928 55.387019040828115 L 1518.3462201019186 55.34864158035972 L 1518.1640025753436 55.30943845041446 L 1517.9826613658688 55.269413571272686 L 1517.8022146074638 55.22857094538894 L 1517.6226803446543 55.18691465699178 L 1517.444076530717 55.14444887167533 L 1517.2664210258843 55.10117783598274 L 1517.0897315955588 55.05710587698152 L 1516.914025908536 55.01223740183083 L 1516.7393215352383 54.96657689734081 L 1516.5656359459579 54.92012892952385 L 1516.3929865091084 54.87289814313803 L 1516.2213904894897 54.82488926122262 L 1516.0508650465608 54.77610708462583 L 1515.8814272327243 54.72655649152463 L 1515.7130939916199 54.67624243693707 L 1515.5458821564314 54.62516995222667 L 1515.3798084482034 54.57334414459934 L 1515.214889474168 54.52077019659265 L 1515.0511417260852 54.467453365557596 L 1514.8885815785936 54.41339898313285 L 1514.7272252875723 54.358612454711604 L 1514.5670889885157 54.30309925890105 L 1514.4081886949207 54.24686494697451 L 1514.250540296684 54.18991514231631 L 1514.094159558514 54.13225553985946 L 1513.9390621183545 54.073891905516156 L 1513.7852634858198 54.014830075601196 L 1513.6327790406453 53.95507595624835 L 1513.4816240311486 53.89463552281976 L 1513.3318135727043 53.83351481930841 L 1513.1833626462337 53.77171995773371 L 1513.0362860967055 53.70925711753032 L 1512.8905986316522 53.64613254493022 L 1512.7463148196991 53.582352552338044 L 1512.6034490891068 53.51792351769993 L 1512.4620157263296 53.45285188386562 L 1512.3220288745856 53.3871441579443 L 1512.1835025324438 53.320806910653786 L 1512.0464505524224 53.25384677566353 L 1511.9108866396057 53.186270448931246 L 1511.7768243502717 53.11808468803328 L 1511.6442770905376 53.049296311488895 L 1511.5132581150192 52.97991219807844 L 1511.3837805255046 52.909939286155414 L 1511.255857269645 52.83938457295272 L 1511.1295011396594 52.76825511388287 L 1511.0047247710552 52.6965580218325 L 1510.8815406413657 52.62430046645107 L 1510.759961068901 52.5514896734339 L 1510.6399982115172 52.47813292379962 L 1510.5216640653996 52.40423755316206 L 1510.4049704638649 52.3298109509967 L 1510.2899290761754 52.25486055990175 L 1510.1765514063743 52.179393874853844 L 1510.064848792134 52.103418442458604 L 1509.954832403623 52.02694186019596 L 1509.8465132423883 51.94997177566041 L 1509.7399021402557 51.87251588579626 L 1509.635009758247 51.79458193612795 L 1509.5318465855123 51.7161777199855 L 1509.4304229382835 51.6373110777252 L 1509.3307489588403 51.55798989594554 L 1509.2328346144982 51.47822210669861 L 1509.1366896966097 51.398015686696844 L 1509.0423238195863 51.31737865651542 L 1508.9497464199371 51.23631907979016 L 1508.8589667553254 51.15484506241117 L 1508.7699939036413 51.072964751712306 L 1508.6828367620965 50.990686335656406 L 1508.597504046332 50.9080180420165 L 1508.5140042895487 50.82496813755307 L 1508.4323458416522 50.74154492718736 L 1508.3525368684197 50.65775675317087 L 1508.274585350682 50.573611994251195 L 1508.1984990835253 50.4891190648341 L 1508.1242856755136 50.40428641414212 L 1508.0519525479256 50.31912252536962 L 1507.9815069340139 50.233635914834515 L 1507.9129558782809 50.14783513112663 L 1507.8463062357753 50.06172875425281 L 1507.7815646714057 49.975325394779006 L 1507.7187376592747 49.888633692969165 L 1507.657831482031 49.80166231792121 L 1507.5988522302418 49.71441996670019 L 1507.5418058017829 49.626915363468505 L 1507.4866979012497 49.53915725861357 L 1507.4335340393861 49.45115442787274 L 1507.3823195325344 49.362915671455745 L 1507.3330595021025 49.27444981316471 L 1507.2857588740521 49.18576569951172 L 1507.240422378407 49.09687219883425 L 1507.1970545487786 49.007778200408296 L 1507.155659721914 48.918492613559444 L 1507.1162420372611 48.82902436677198 L 1507.078805436556 48.73938240679603 L 1507.043353663427 48.64957569775289 L 1507.0098902630223 48.55961322023861 L 1506.9784185816538 48.46950397042599 L 1506.9489417664636 48.37925695916492 L 1506.9214627651086 48.28888121108131 L 1506.8959843254659 48.198385763674665 L 1506.8725089953584 48.1077796664143 L 1506.8510391222994 48.017071979834455 L 1506.8315768532586 47.92627177462819 L 1506.8141241344463 47.835388130740355 L 1506.7986827111201 47.744430136459606 L 1506.7852541274094 47.65340688750957 L 1506.7738397261612 47.562327486139296 L 1506.7644406488064 47.47120104021301 L 1506.757057835245 47.38003666229938 L 1506.7516920237517 47.28884346876023 L 1506.7483437509036 47.1976305788389 L 1506.7470133515249 47.10640711374838" stroke-miterlimit="10" stroke-width="2.3497561670000002" stroke-dasharray=""/></g><g><g/><text fill="black" stroke="none" font-family="sans-serif" font-size="8pt" font-style="normal" font-weight="normal" text-decoration="normal" x="1503.3830571503333" y="71.045568814" text-anchor="start" dominant-baseline="alphabetic" xml:space="preserve">Database</text></g></g><g><path fill="white" stroke="black" paint-order="fill stroke markers" d=" M 297.44486289375004 120.80511117400002 L 311.26695799375 120.80511117400002 L 311.26695799375 581.0808780039999 L 297.44486289375004 581.0808780039999 L 297.44486289375004 120.80511117400002" stroke-miterlimit="10" stroke-width="1.1518412583333333" stroke-dasharray=""/><path fill="white" stroke="black" paint-order="fill stroke markers" d=" M 569.6405266979166 272.848157274 L 583.4626217979167 272.848157274 L 583.4626217979167 542.379011724 L 569.6405266979166 542.379011724 L 569.6405266979166 272.848157274" stroke-miterlimit="10" stroke-width="1.1518412583333333" stroke-dasharray=""/><path fill="white" stroke="black" paint-order="fill stroke markers" d=" M 297.44486289375004 619.7827442839999 L 311.26695799375 619.7827442839999 L 311.26695799375 1702.6056744180005 L 297.44486289375004 1702.6056744180005 L 297.44486289375004 619.7827442839999" stroke-miterlimit="10" stroke-width="1.1518412583333333" stroke-dasharray=""/><path fill="white" stroke="black" paint-order="fill stroke markers" d=" M 128.57292955833333 701.8859891779999 L 142.39502465833334 701.8859891779999 L 142.39502465833334 740.5878554579999 L 128.57292955833333 740.5878554579999 L 128.57292955833333 701.8859891779999" stroke-miterlimit="10" stroke-width="1.1518412583333333" stroke-dasharray=""/><path fill="white" stroke="black" paint-order="fill stroke markers" d=" M 128.57292955833333 779.2897217379999 L 142.39502465833334 779.2897217379999 L 142.39502465833334 895.3953205779999 L 128.57292955833333 895.3953205779999 L 128.57292955833333 779.2897217379999" stroke-miterlimit="10" stroke-width="1.1518412583333333" stroke-dasharray=""/><path fill="white" stroke="black" paint-order="fill stroke markers" d=" M 569.6405266979166 934.0971868579999 L 583.4626217979167 934.0971868579999 L 583.4626217979167 1663.9038081380004 L 569.6405266979166 1663.9038081380004 L 569.6405266979166 934.0971868579999" stroke-miterlimit="10" stroke-width="1.1518412583333333" stroke-dasharray=""/><path fill="white" stroke="black" paint-order="fill stroke markers" d=" M 950.4875292687499 1242.329907588 L 964.30962436875 1242.329907588 L 964.30962436875 1510.4785525280004 L 950.4875292687499 1510.4785525280004 L 950.4875292687499 1242.329907588" stroke-miterlimit="10" stroke-width="1.1518412583333333" stroke-dasharray=""/><path fill="white" stroke="black" paint-order="fill stroke markers" d=" M 1348.192951738875 1281.031773868 L 1362.015046838875 1281.031773868 L 1362.015046838875 1737.1609121680003 L 1348.192951738875 1737.1609121680003 L 1348.192951738875 1281.031773868" stroke-miterlimit="10" stroke-width="1.1518412583333333" stroke-dasharray=""/><path fill="white" stroke="black" paint-order="fill stroke markers" d=" M 1355.103999288875 1337.702363778 L 1368.9260943888748 1337.702363778 L 1368.9260943888748 1415.106096338 L 1355.103999288875 1415.106096338 L 1355.103999288875 1337.702363778" stroke-miterlimit="10" stroke-width="1.1518412583333333" stroke-dasharray=""/><g><g><rect fill="white" stroke="none" x="63.69448470687504" y="102.83638754400002" width="188.18178478" height="17.96872363"/></g><text fill="black" stroke="none" font-family="sans-serif" font-size="8pt" font-style="normal" font-weight="normal" text-decoration="normal" x="65.76779897187504" y="115.27627313400002" text-anchor="start" dominant-baseline="alphabetic" xml:space="preserve">mousePressed(x : Integer, y : Integer)</text></g><g><path fill="none" stroke="black" paint-order="fill stroke markers" d=" M 18.1258913 120.80511117400002 L 286.0646712614167 120.80511117400002" stroke-miterlimit="10" stroke-width="1.1518412583333333" stroke-dasharray=""/><g transform="translate(297.44486289375004,120.80511117400002) translate(-297.44486289375004,-120.80511117400002)"><path fill="black" stroke="none" paint-order="stroke fill markers" d=" M 285.9264503104167 115.04590488233335 L 297.44486289375004 120.80511117400002 L 285.9264503104167 126.56431746566669 Z"/></g></g><g><g><rect fill="white" stroke="none" x="327.62310386208327" y="141.53825382400004" width="139.56801524875" height="17.96872363"/></g><text fill="black" stroke="none" font-family="sans-serif" font-size="8pt" font-style="normal" font-weight="normal" text-decoration="normal" x="329.6964181270833" y="153.97813941400005" text-anchor="start" dominant-baseline="alphabetic" xml:space="preserve">sn := yToScreen(y : Integer)</text></g><g><path fill="none" stroke="black" paint-order="fill stroke markers" d=" M 311.26695799375 159.50697745400004 L 366.55533839375 159.50697745400004 L 366.55533839375 177.47570108400004 L 322.6471496260833 177.47570108400004" stroke-miterlimit="10" stroke-width="1.1518412583333333" stroke-dasharray=""/><g transform="translate(311.26695799375,177.47570108400004) translate(-311.26695799375,-177.47570108400004)"><path fill="black" stroke="none" paint-order="stroke fill markers" d=" M 322.7853705770833 171.71649479233338 L 311.26695799375 177.47570108400004 L 322.7853705770833 183.2349073756667 Z"/></g></g><g><g><rect fill="white" stroke="none" x="327.62310386208327" y="198.20884373400003" width="137.9190894675" height="17.96872363"/></g><text fill="black" stroke="none" font-family="sans-serif" font-size="8pt" font-style="normal" font-weight="normal" text-decoration="normal" x="329.6964181270833" y="210.64872932400004" text-anchor="start" dominant-baseline="alphabetic" xml:space="preserve">time := xToTime(x : Integer)</text></g><g><path fill="none" stroke="black" paint-order="fill stroke markers" d=" M 311.26695799375 216.17756736400003 L 366.55533839375 216.17756736400003 L 366.55533839375 234.14629099400003 L 322.6471496260833 234.14629099400003" stroke-miterlimit="10" stroke-width="1.1518412583333333" stroke-dasharray=""/><g transform="translate(311.26695799375,234.14629099400003) translate(-311.26695799375,-234.14629099400003)"><path fill="black" stroke="none" paint-order="stroke fill markers" d=" M 322.7853705770833 228.38708470233337 L 311.26695799375 234.14629099400003 L 322.7853705770833 239.90549728566668 Z"/></g></g><g><g><rect fill="white" stroke="none" x="327.62310386208327" y="254.87943364400002" width="225.6612769675" height="17.96872363"/></g><text fill="black" stroke="none" font-family="sans-serif" font-size="8pt" font-style="normal" font-weight="normal" text-decoration="normal" x="329.6964181270833" y="267.31931923400003" text-anchor="start" dominant-baseline="alphabetic" xml:space="preserve">selectScreening(sn : String, time : LocalTime)</text></g><g><path fill="none" stroke="black" paint-order="fill stroke markers" d=" M 311.26695799375 272.848157274 L 558.2603350655833 272.848157274" stroke-miterlimit="10" stroke-width="1.1518412583333333" stroke-dasharray=""/><g transform="translate(569.6405266979166,272.848157274) translate(-569.6405266979166,-272.848157274)"><path fill="black" stroke="none" paint-order="stroke fill markers" d=" M 558.1221141145833 267.08895098233336 L 569.6405266979166 272.848157274 L 558.1221141145833 278.6073635656667 Z"/></g></g><g><g><rect fill="white" stroke="none" x="772.3737527788332" y="330.900956694" width="90.95961681125" height="17.96872363"/></g><text fill="black" stroke="none" font-family="sans-serif" font-size="8pt" font-style="normal" font-weight="normal" text-decoration="normal" x="774.4470670438333" y="343.340842284" text-anchor="start" dominant-baseline="alphabetic" xml:space="preserve">getScreenName()</text></g><g><path fill="none" stroke="black" paint-order="fill stroke markers" d=" M 583.4626217979167 348.869680324 L 1040.8643089386665 348.869680324" stroke-miterlimit="10" stroke-width="1.1518412583333333" stroke-dasharray=""/><g transform="translate(1052.244500571,348.869680324) translate(-1052.244500571,-348.869680324)"><path fill="black" stroke="none" paint-order="stroke fill markers" d=" M 1040.7260879876665 343.11047403233334 L 1052.244500571 348.869680324 L 1040.7260879876665 354.62888661566666 Z"/></g></g><g><g><rect fill="white" stroke="none" x="792.4509012163332" y="369.602822974" width="50.80531993625" height="17.96872363"/></g><text fill="black" stroke="none" font-family="sans-serif" font-size="8pt" font-style="normal" font-weight="normal" text-decoration="normal" x="794.5242154813333" y="382.042708564" text-anchor="start" dominant-baseline="alphabetic" xml:space="preserve">getTime()</text></g><g><path fill="none" stroke="black" paint-order="fill stroke markers" d=" M 583.4626217979167 387.571546604 L 1040.8643089386665 387.571546604" stroke-miterlimit="10" stroke-width="1.1518412583333333" stroke-dasharray=""/><g transform="translate(1052.244500571,387.571546604) translate(-1052.244500571,-387.571546604)"><path fill="black" stroke="none" paint-order="stroke fill markers" d=" M 1040.7260879876665 381.81234031233333 L 1052.244500571 387.571546604 L 1040.7260879876665 393.33075289566665 Z"/></g></g><g><g><rect fill="white" stroke="none" x="599.81876766625" y="429.037831904" width="88.49965587375" height="17.96872363"/></g><text fill="black" stroke="none" font-family="sans-serif" font-size="8pt" font-style="normal" font-weight="normal" text-decoration="normal" x="601.89208193125" y="441.477717494" text-anchor="start" dominant-baseline="alphabetic" xml:space="preserve">notifyObservers()</text></g><g><path fill="none" stroke="black" paint-order="fill stroke markers" d=" M 583.4626217979167 447.006555534 L 638.7510021979167 447.006555534 L 638.7510021979167 464.97527916399997 L 594.84281343025 464.97527916399997" stroke-miterlimit="10" stroke-width="1.1518412583333333" stroke-dasharray=""/><g transform="translate(583.4626217979167,464.97527916399997) translate(-583.4626217979167,-464.97527916399997)"><path fill="black" stroke="none" paint-order="stroke fill markers" d=" M 594.98103438125 459.2160728723333 L 583.4626217979167 464.97527916399997 L 594.98103438125 470.73448545566663 Z"/></g></g><g><g><rect fill="white" stroke="none" x="417.89507651833327" y="485.70842181399996" width="45.117331655" height="17.96872363"/></g><text fill="black" stroke="none" font-family="sans-serif" font-size="8pt" font-style="normal" font-weight="normal" text-decoration="normal" x="419.9683907833333" y="498.148307404" text-anchor="start" dominant-baseline="alphabetic" xml:space="preserve">update()</text></g><g><path fill="none" stroke="black" paint-order="fill stroke markers" d=" M 569.6405266979166 503.67714544399996 L 322.6471496260833 503.67714544399996" stroke-miterlimit="10" stroke-width="1.1518412583333333" stroke-dasharray=""/><g transform="translate(311.26695799375,503.67714544399996) translate(-311.26695799375,-503.67714544399996)"><path fill="black" stroke="none" paint-order="stroke fill markers" d=" M 322.7853705770833 497.9179391523333 L 311.26695799375 503.67714544399996 L 322.7853705770833 509.4363517356666 Z"/></g></g><g><g><rect fill="white" stroke="none" x="438.38042808083327" y="524.410288094" width="4.14662853" height="17.96872363"/></g><text fill="black" stroke="none" font-family="sans-serif" font-size="8pt" font-style="normal" font-weight="normal" text-decoration="normal" x="440.4537423458333" y="536.8501736839999" text-anchor="start" dominant-baseline="alphabetic" xml:space="preserve"></text></g><g><path fill="none" stroke="black" paint-order="fill stroke markers" d=" M 569.6405266979166 542.379011724 L 322.6471496260833 542.379011724" stroke-miterlimit="10" stroke-width="1.1518412583333333" stroke-dasharray="5.52883804"/><g transform="translate(311.26695799375,542.379011724) translate(-311.26695799375,-542.379011724)"><path fill="black" stroke="none" paint-order="stroke fill markers" d=" M 322.7853705770833 536.6198054323332 L 311.26695799375 542.379011724 L 322.7853705770833 548.1382180156667 Z"/></g></g><g><g><rect fill="white" stroke="none" x="155.71206283187504" y="563.1121543739999" width="4.14662853" height="17.96872363"/></g><text fill="black" stroke="none" font-family="sans-serif" font-size="8pt" font-style="normal" font-weight="normal" text-decoration="normal" x="157.78537709687504" y="575.5520399639998" text-anchor="start" dominant-baseline="alphabetic" xml:space="preserve"></text></g><g><path fill="none" stroke="black" paint-order="fill stroke markers" d=" M 297.44486289375004 581.0808780039999 L 29.506082932333335 581.0808780039999" stroke-miterlimit="10" stroke-width="1.1518412583333333" stroke-dasharray="5.52883804"/><g transform="translate(18.1258913,581.0808780039999) translate(-18.1258913,-581.0808780039999)"><path fill="black" stroke="none" paint-order="stroke fill markers" d=" M 29.644303883333333 575.3216717123332 L 18.1258913 581.0808780039999 L 29.644303883333333 586.8400842956667 Z"/></g></g><g><g><rect fill="white" stroke="none" x="126.57925033187504" y="601.8140206539999" width="62.41225353" height="17.96872363"/></g><text fill="black" stroke="none" font-family="sans-serif" font-size="8pt" font-style="normal" font-weight="normal" text-decoration="normal" x="128.65256459687504" y="614.2539062439998" text-anchor="start" dominant-baseline="alphabetic" xml:space="preserve">sellTickets()</text></g><g><path fill="none" stroke="black" paint-order="fill stroke markers" d=" M 18.1258913 619.7827442839999 L 286.0646712614167 619.7827442839999" stroke-miterlimit="10" stroke-width="1.1518412583333333" stroke-dasharray=""/><g transform="translate(297.44486289375004,619.7827442839999) translate(-297.44486289375004,-619.7827442839999)"><path fill="black" stroke="none" paint-order="stroke fill markers" d=" M 285.9264503104167 614.0235379923332 L 297.44486289375004 619.7827442839999 L 285.9264503104167 625.5419505756666 Z"/></g></g><g><path fill="white" stroke="black" paint-order="fill stroke markers" d=" M 162.92083588183334 661.0416981575 A 20.5258112235 20.5258112235 0 1 1 162.92082561892857 661.0211723496975 M 109.22199641833333 639.3410088505001 L 109.22199641833333 682.7423874645 M 108.04711833483333 661.0416981575 L 121.86921343483334 661.0416981575" stroke-miterlimit="10" stroke-width="2.3497561670000002" stroke-dasharray=""/></g><g><g/><text fill="black" stroke="none" font-family="sans-serif" font-size="8pt" font-style="normal" font-weight="normal" text-decoration="normal" x="105.42465093645833" y="696.5644825644999" text-anchor="start" dominant-baseline="alphabetic" xml:space="preserve">TicketDialog</text></g><g><g><rect fill="white" stroke="none" x="195.69835671260418" y="653.2322144259999" width="71.59145274875" height="17.96872363"/></g><text fill="black" stroke="none" font-family="sans-serif" font-size="8pt" font-style="normal" font-weight="normal" text-decoration="normal" x="197.77167097760417" y="665.6721000159998" text-anchor="start" dominant-baseline="alphabetic" xml:space="preserve">TicketDialog()</text></g><g><path fill="none" stroke="black" paint-order="fill stroke markers" d=" M 297.44486289375004 671.2009380559999 L 176.92349491254166 671.2009380559999" stroke-miterlimit="10" stroke-width="1.1518412583333333" stroke-dasharray=""/><g transform="translate(165.54330328020833,671.2009380559999) translate(-165.54330328020833,-671.2009380559999)"><path fill="black" stroke="none" paint-order="stroke fill markers" d=" M 177.06171586354168 665.4417317643332 L 165.54330328020833 671.2009380559999 L 177.06171586354168 676.9601443476666 Z"/></g></g><g><g><rect fill="white" stroke="none" x="217.8466295110417" y="722.6191318279999" width="4.14662853" height="17.96872363"/></g><text fill="black" stroke="none" font-family="sans-serif" font-size="8pt" font-style="normal" font-weight="normal" text-decoration="normal" x="219.9199437760417" y="735.0590174179998" text-anchor="start" dominant-baseline="alphabetic" xml:space="preserve"></text></g><g><path fill="none" stroke="black" paint-order="fill stroke markers" d=" M 142.39502465833334 740.5878554579999 L 286.0646712614167 740.5878554579999" stroke-miterlimit="10" stroke-width="1.1518412583333333" stroke-dasharray="5.52883804"/><g transform="translate(297.44486289375004,740.5878554579999) translate(-297.44486289375004,-740.5878554579999)"><path fill="black" stroke="none" paint-order="stroke fill markers" d=" M 285.9264503104167 734.8286491663332 L 297.44486289375004 740.5878554579999 L 285.9264503104167 746.3470617496666 Z"/></g></g><g><g><rect fill="white" stroke="none" x="180.7592271672917" y="761.3209981079999" width="78.3214332175" height="17.96872363"/></g><text fill="black" stroke="none" font-family="sans-serif" font-size="8pt" font-style="normal" font-weight="normal" text-decoration="normal" x="182.8325414322917" y="773.7608836979998" text-anchor="start" dominant-baseline="alphabetic" xml:space="preserve">showAndWait()</text></g><g><path fill="none" stroke="black" paint-order="fill stroke markers" d=" M 297.44486289375004 779.2897217379999 L 153.77521629066666 779.2897217379999" stroke-miterlimit="10" stroke-width="1.1518412583333333" stroke-dasharray=""/><g transform="translate(142.39502465833334,779.2897217379999) translate(-142.39502465833334,-779.2897217379999)"><path fill="black" stroke="none" paint-order="stroke fill markers" d=" M 153.91343724166668 773.5305154463332 L 142.39502465833334 779.2897217379999 L 153.91343724166668 785.0489280296666 Z"/></g></g><g><g><rect fill="white" stroke="none" x="71.27609616416666" y="800.0228643879999" width="4.14662853" height="17.96872363"/></g><text fill="black" stroke="none" font-family="sans-serif" font-size="8pt" font-style="normal" font-weight="normal" text-decoration="normal" x="73.34941042916665" y="812.4627499779998" text-anchor="start" dominant-baseline="alphabetic" xml:space="preserve"></text></g><g><path fill="none" stroke="black" paint-order="fill stroke markers" d=" M 128.57292955833333 817.9915880179999 L 29.506082932333335 817.9915880179999" stroke-miterlimit="10" stroke-width="1.1518412583333333" stroke-dasharray=""/><g transform="translate(18.1258913,817.9915880179999) translate(-18.1258913,-817.9915880179999)"><path fill="black" stroke="none" paint-order="stroke fill markers" d=" M 29.644303883333333 812.2323817263332 L 18.1258913 817.9915880179999 L 29.644303883333333 823.7507943096666 Z"/></g></g><g><g><rect fill="white" stroke="none" x="71.27609616416666" y="838.7247306679999" width="4.14662853" height="17.96872363"/></g><text fill="black" stroke="none" font-family="sans-serif" font-size="8pt" font-style="normal" font-weight="normal" text-decoration="normal" x="73.34941042916665" y="851.1646162579998" text-anchor="start" dominant-baseline="alphabetic" xml:space="preserve"></text></g><g><path fill="none" stroke="black" paint-order="fill stroke markers" d=" M 18.1258913 856.6934542979999 L 117.19273792599999 856.6934542979999" stroke-miterlimit="10" stroke-width="1.1518412583333333" stroke-dasharray="5.52883804"/><g transform="translate(128.57292955833333,856.6934542979999) translate(-128.57292955833333,-856.6934542979999)"><path fill="black" stroke="none" paint-order="stroke fill markers" d=" M 117.054516975 850.9342480063332 L 128.57292955833333 856.6934542979999 L 117.054516975 862.4526605896666 Z"/></g></g><g><g><rect fill="white" stroke="none" x="158.7511705266667" y="877.4265969479999" width="122.33754649875" height="17.96872363"/></g><text fill="black" stroke="none" font-family="sans-serif" font-size="8pt" font-style="normal" font-weight="normal" text-decoration="normal" x="160.8244847916667" y="889.8664825379998" text-anchor="start" dominant-baseline="alphabetic" xml:space="preserve">return tn : TicketNumber</text></g><g><path fill="none" stroke="black" paint-order="fill stroke markers" d=" M 142.39502465833334 895.3953205779999 L 286.0646712614167 895.3953205779999" stroke-miterlimit="10" stroke-width="1.1518412583333333" stroke-dasharray="5.52883804"/><g transform="translate(297.44486289375004,895.3953205779999) translate(-297.44486289375004,-895.3953205779999)"><path fill="black" stroke="none" paint-order="stroke fill markers" d=" M 285.9264503104167 889.6361142863332 L 297.44486289375004 895.3953205779999 L 285.9264503104167 901.1545268696666 Z"/></g></g><g><g><rect fill="white" stroke="none" x="356.05230308083327" y="916.1284632279999" width="168.80287853" height="17.96872363"/></g><text fill="black" stroke="none" font-family="sans-serif" font-size="8pt" font-style="normal" font-weight="normal" text-decoration="normal" x="358.1256173458333" y="928.5683488179998" text-anchor="start" dominant-baseline="alphabetic" xml:space="preserve">sellTickets(tn : int, sg : Screening)</text></g><g><path fill="none" stroke="black" paint-order="fill stroke markers" d=" M 311.26695799375 934.0971868579999 L 558.2603350655833 934.0971868579999" stroke-miterlimit="10" stroke-width="1.1518412583333333" stroke-dasharray=""/><g transform="translate(569.6405266979166,934.0971868579999) translate(-569.6405266979166,-934.0971868579999)"><path fill="black" stroke="none" paint-order="stroke fill markers" d=" M 558.1221141145833 928.3379805663332 L 569.6405266979166 934.0971868579999 L 558.1221141145833 939.8563931496666 Z"/></g></g><g><g><rect fill="white" stroke="none" x="797.2215679069583" y="954.8303295079999" width="152.60365978" height="17.96872363"/></g><text fill="black" stroke="none" font-family="sans-serif" font-size="8pt" font-style="normal" font-weight="normal" text-decoration="normal" x="799.2948821719583" y="967.2702150979998" text-anchor="start" dominant-baseline="alphabetic" xml:space="preserve">nts := getNumberTicketsSold()</text></g><g><path fill="none" stroke="black" paint-order="fill stroke markers" d=" M 583.4626217979167 972.7990531379999 L 1152.2039821636665 972.7990531379999" stroke-miterlimit="10" stroke-width="1.1518412583333333" stroke-dasharray=""/><g transform="translate(1163.584173796,972.7990531379999) translate(-1163.584173796,-972.7990531379999)"><path fill="black" stroke="none" paint-order="stroke fill markers" d=" M 1152.0657612126665 967.0398468463331 L 1163.584173796 972.7990531379999 L 1152.0657612126665 978.5582594296666 Z"/></g></g><g><g><rect fill="white" stroke="none" x="829.4185893913333" y="993.5321957879999" width="88.20961681125" height="17.96872363"/></g><text fill="black" stroke="none" font-family="sans-serif" font-size="8pt" font-style="normal" font-weight="normal" text-decoration="normal" x="831.4919036563333" y="1005.9720813779998" text-anchor="start" dominant-baseline="alphabetic" xml:space="preserve">sc := getScreen()</text></g><g><path fill="none" stroke="black" paint-order="fill stroke markers" d=" M 583.4626217979167 1011.5009194179999 L 1152.2039821636665 1011.5009194179999" stroke-miterlimit="10" stroke-width="1.1518412583333333" stroke-dasharray=""/><g transform="translate(1163.584173796,1011.5009194179999) translate(-1163.584173796,-1011.5009194179999)"><path fill="black" stroke="none" paint-order="stroke fill markers" d=" M 1152.0657612126665 1005.7417131263331 L 1163.584173796 1011.5009194179999 L 1152.0657612126665 1017.2601257096666 Z"/></g></g><g><g><rect fill="white" stroke="none" x="871.0255597928958" y="1032.2340620679997" width="96.77114024875" height="17.96872363"/></g><text fill="black" stroke="none" font-family="sans-serif" font-size="8pt" font-style="normal" font-weight="normal" text-decoration="normal" x="873.0988740578958" y="1044.6739476579999" text-anchor="start" dominant-baseline="alphabetic" xml:space="preserve">cp := getCapacity()</text></g><g><path fill="none" stroke="black" paint-order="fill stroke markers" d=" M 583.4626217979167 1050.2027856979998 L 1243.9794464042916 1050.2027856979998" stroke-miterlimit="10" stroke-width="1.1518412583333333" stroke-dasharray=""/><g transform="translate(1255.359638036625,1050.2027856979998) translate(-1255.359638036625,-1050.2027856979998)"><path fill="black" stroke="none" paint-order="stroke fill markers" d=" M 1243.8412254532916 1044.4435794063331 L 1255.359638036625 1050.2027856979998 L 1243.8412254532916 1055.9619919896666 Z"/></g></g><g><g><rect fill="white" stroke="none" x="599.81876766625" y="1108.2555851179998" width="332.0089332175" height="17.96872363"/></g><text fill="black" stroke="none" font-family="sans-serif" font-size="8pt" font-style="normal" font-weight="normal" text-decoration="normal" x="601.89208193125" y="1120.695470708" text-anchor="start" dominant-baseline="alphabetic" xml:space="preserve">checkTicketOverSold(tn : int, cp : int, nts : int)                                   </text></g><g><path fill="none" stroke="black" paint-order="fill stroke markers" d=" M 583.4626217979167 1126.2243087479997 L 638.7510021979167 1126.2243087479997 L 638.7510021979167 1144.1930323779998 L 594.84281343025 1144.1930323779998" stroke-miterlimit="10" stroke-width="1.1518412583333333" stroke-dasharray=""/><g transform="translate(583.4626217979167,1144.1930323779998) translate(-583.4626217979167,-1144.1930323779998)"><path fill="black" stroke="none" paint-order="stroke fill markers" d=" M 594.98103438125 1138.433826086333 L 583.4626217979167 1144.1930323779998 L 594.98103438125 1149.9522386696665 Z"/></g></g><g><g><rect fill="white" stroke="none" x="797.6834819694583" y="1185.6593176779998" width="151.679831655" height="17.96872363"/></g><text fill="black" stroke="none" font-family="sans-serif" font-size="8pt" font-style="normal" font-weight="normal" text-decoration="normal" x="799.7567962344583" y="1198.0992032679999" text-anchor="start" dominant-baseline="alphabetic" xml:space="preserve">setNumberTicketsSold(tn : int)</text></g><g><path fill="none" stroke="black" paint-order="fill stroke markers" d=" M 583.4626217979167 1203.6280413079999 L 1152.2039821636665 1203.6280413079999" stroke-miterlimit="10" stroke-width="1.1518412583333333" stroke-dasharray=""/><g transform="translate(1163.584173796,1203.6280413079999) translate(-1163.584173796,-1203.6280413079999)"><path fill="black" stroke="none" paint-order="stroke fill markers" d=" M 1152.0657612126665 1197.8688350163332 L 1163.584173796 1203.6280413079999 L 1152.0657612126665 1209.3872475996666 Z"/></g></g><g><g><rect fill="white" stroke="none" x="669.8146030652082" y="1224.3611839579999" width="194.32094493625" height="17.96872363"/></g><text fill="black" stroke="none" font-family="sans-serif" font-size="8pt" font-style="normal" font-weight="normal" text-decoration="normal" x="671.8879173302082" y="1236.801069548" text-anchor="start" dominant-baseline="alphabetic" xml:space="preserve">updateScreening(selected : Screening)</text></g><g><path fill="none" stroke="black" paint-order="fill stroke markers" d=" M 583.4626217979167 1242.329907588 L 939.1073376364166 1242.329907588" stroke-miterlimit="10" stroke-width="1.1518412583333333" stroke-dasharray=""/><g transform="translate(950.4875292687499,1242.329907588) translate(-950.4875292687499,-1242.329907588)"><path fill="black" stroke="none" paint-order="stroke fill markers" d=" M 938.9691166854166 1236.5707012963333 L 950.4875292687499 1242.329907588 L 938.9691166854166 1248.0891138796667 Z"/></g></g><g><g><rect fill="white" stroke="none" x="1073.7673292575626" y="1263.063050238" width="164.9679175925" height="17.96872363"/></g><text fill="black" stroke="none" font-family="sans-serif" font-size="8pt" font-style="normal" font-weight="normal" text-decoration="normal" x="1075.8406435225625" y="1275.502935828" text-anchor="start" dominant-baseline="alphabetic" xml:space="preserve">updateScreening(sg : Screening)</text></g><g><path fill="none" stroke="black" paint-order="fill stroke markers" d=" M 964.30962436875 1281.031773868 L 1336.8127601065416 1281.031773868" stroke-miterlimit="10" stroke-width="1.1518412583333333" stroke-dasharray=""/><g transform="translate(1348.192951738875,1281.031773868) translate(-1348.192951738875,-1281.031773868)"><path fill="black" stroke="none" paint-order="stroke fill markers" d=" M 1336.6745391555417 1275.2725675763334 L 1348.192951738875 1281.031773868 L 1336.6745391555417 1286.7909801596668 Z"/></g></g><g><g><rect fill="white" stroke="none" x="1385.2822402572085" y="1301.764916518" width="136.80727306125" height="17.96872363"/></g><text fill="black" stroke="none" font-family="sans-serif" font-size="8pt" font-style="normal" font-weight="normal" text-decoration="normal" x="1387.3555545222084" y="1314.2048021080002" text-anchor="start" dominant-baseline="alphabetic" xml:space="preserve">performUpdate(sql : String)</text></g><g><path fill="none" stroke="black" paint-order="fill stroke markers" d=" M 1362.015046838875 1319.7336401480002 L 1424.2144747888751 1319.7336401480002 L 1424.2144747888751 1337.702363778 L 1380.3062860212085 1337.702363778" stroke-miterlimit="10" stroke-width="1.1518412583333333" stroke-dasharray=""/><g transform="translate(1368.926094388875,1337.702363778) translate(-1368.926094388875,-1337.702363778)"><path fill="black" stroke="none" paint-order="stroke fill markers" d=" M 1380.4445069722085 1331.9431574863333 L 1368.926094388875 1337.702363778 L 1380.4445069722085 1343.4615700696668 Z"/></g></g><g><g><rect fill="white" stroke="none" x="1396.9441765436668" y="1358.4355064280003" width="101.964987905" height="17.96872363"/></g><text fill="black" stroke="none" font-family="sans-serif" font-size="8pt" font-style="normal" font-weight="normal" text-decoration="normal" x="1399.0174908086667" y="1370.8753920180004" text-anchor="start" dominant-baseline="alphabetic" xml:space="preserve">execute(sql : String)</text></g><g><path fill="none" stroke="black" paint-order="fill stroke markers" d=" M 1368.926094388875 1376.4042300580002 L 1515.547054971125 1376.4042300580002" stroke-miterlimit="10" stroke-width="1.1518412583333333" stroke-dasharray=""/><g transform="translate(1526.9272466034583,1376.4042300580002) translate(-1526.9272466034583,-1376.4042300580002)"><path fill="black" stroke="none" paint-order="stroke fill markers" d=" M 1515.408834020125 1370.6450237663335 L 1526.9272466034583 1376.4042300580002 L 1515.408834020125 1382.1634363496669 Z"/></g></g><g><g><rect fill="white" stroke="none" x="1385.2822402572085" y="1397.1373727080002" width="4.14662853" height="17.96872363"/></g><text fill="black" stroke="none" font-family="sans-serif" font-size="8pt" font-style="normal" font-weight="normal" text-decoration="normal" x="1387.3555545222084" y="1409.5772582980003" text-anchor="start" dominant-baseline="alphabetic" xml:space="preserve"></text></g><g><path fill="none" stroke="black" paint-order="fill stroke markers" d=" M 1368.926094388875 1415.106096338 L 1424.2144747888751 1415.106096338 L 1424.2144747888751 1433.0748199680002 L 1373.3952384712086 1433.0748199680002" stroke-miterlimit="10" stroke-width="1.1518412583333333" stroke-dasharray="5.52883804"/><g transform="translate(1362.0150468388752,1433.0748199680002) translate(-1362.0150468388752,-1433.0748199680002)"><path fill="black" stroke="none" paint-order="stroke fill markers" d=" M 1373.5334594222086 1427.3156136763334 L 1362.0150468388752 1433.0748199680002 L 1373.5334594222086 1438.8340262596669 Z"/></g></g><g><g><rect fill="white" stroke="none" x="1154.1779737888126" y="1453.8079626180001" width="4.14662853" height="17.96872363"/></g><text fill="black" stroke="none" font-family="sans-serif" font-size="8pt" font-style="normal" font-weight="normal" text-decoration="normal" x="1156.2512880538125" y="1466.2478482080003" text-anchor="start" dominant-baseline="alphabetic" xml:space="preserve"></text></g><g><path fill="none" stroke="black" paint-order="fill stroke markers" d=" M 1348.192951738875 1471.7766862480003 L 975.6898160010833 1471.7766862480003" stroke-miterlimit="10" stroke-width="1.1518412583333333" stroke-dasharray="5.52883804"/><g transform="translate(964.30962436875,1471.7766862480003) translate(-964.30962436875,-1471.7766862480003)"><path fill="black" stroke="none" paint-order="stroke fill markers" d=" M 975.8280369520833 1466.0174799563335 L 964.30962436875 1471.7766862480003 L 975.8280369520833 1477.535892539667 Z"/></g></g><g><g><rect fill="white" stroke="none" x="764.9017612683332" y="1492.5098288980003" width="4.14662853" height="17.96872363"/></g><text fill="black" stroke="none" font-family="sans-serif" font-size="8pt" font-style="normal" font-weight="normal" text-decoration="normal" x="766.9750755333332" y="1504.9497144880004" text-anchor="start" dominant-baseline="alphabetic" xml:space="preserve"></text></g><g><path fill="none" stroke="black" paint-order="fill stroke markers" d=" M 950.4875292687499 1510.4785525280004 L 594.84281343025 1510.4785525280004" stroke-miterlimit="10" stroke-width="1.1518412583333333" stroke-dasharray="5.52883804"/><g transform="translate(583.4626217979167,1510.4785525280004) translate(-583.4626217979167,-1510.4785525280004)"><path fill="black" stroke="none" paint-order="stroke fill markers" d=" M 594.98103438125 1504.7193462363336 L 583.4626217979167 1510.4785525280004 L 594.98103438125 1516.237758819667 Z"/></g></g><g><g><rect fill="white" stroke="none" x="599.81876766625" y="1568.5313519480003" width="149.62270274875" height="17.96872363"/></g><text fill="black" stroke="none" font-family="sans-serif" font-size="8pt" font-style="normal" font-weight="normal" text-decoration="normal" x="601.89208193125" y="1580.9712375380004" text-anchor="start" dominant-baseline="alphabetic" xml:space="preserve">notifyObservers()                    </text></g><g><path fill="none" stroke="black" paint-order="fill stroke markers" d=" M 583.4626217979167 1586.5000755780002 L 638.7510021979167 1586.5000755780002 L 638.7510021979167 1604.4687992080003 L 594.84281343025 1604.4687992080003" stroke-miterlimit="10" stroke-width="1.1518412583333333" stroke-dasharray=""/><g transform="translate(583.4626217979167,1604.4687992080003) translate(-583.4626217979167,-1604.4687992080003)"><path fill="black" stroke="none" paint-order="stroke fill markers" d=" M 594.98103438125 1598.7095929163336 L 583.4626217979167 1604.4687992080003 L 594.98103438125 1610.228005499667 Z"/></g></g><g><g><rect fill="white" stroke="none" x="438.38042808083327" y="1645.9350845080003" width="4.14662853" height="17.96872363"/></g><text fill="black" stroke="none" font-family="sans-serif" font-size="8pt" font-style="normal" font-weight="normal" text-decoration="normal" x="440.4537423458333" y="1658.3749700980004" text-anchor="start" dominant-baseline="alphabetic" xml:space="preserve"></text></g><g><path fill="none" stroke="black" paint-order="fill stroke markers" d=" M 569.6405266979166 1663.9038081380004 L 322.6471496260833 1663.9038081380004" stroke-miterlimit="10" stroke-width="1.1518412583333333" stroke-dasharray="5.52883804"/><g transform="translate(311.26695799375,1663.9038081380004) translate(-311.26695799375,-1663.9038081380004)"><path fill="black" stroke="none" paint-order="stroke fill markers" d=" M 322.7853705770833 1658.1446018463337 L 311.26695799375 1663.9038081380004 L 322.7853705770833 1669.663014429667 Z"/></g></g><g><g><rect fill="white" stroke="none" x="155.71206283187504" y="1684.6369507880004" width="4.14662853" height="17.96872363"/></g><text fill="black" stroke="none" font-family="sans-serif" font-size="8pt" font-style="normal" font-weight="normal" text-decoration="normal" x="157.78537709687504" y="1697.0768363780005" text-anchor="start" dominant-baseline="alphabetic" xml:space="preserve"></text></g><g><path fill="none" stroke="black" paint-order="fill stroke markers" d=" M 297.44486289375004 1702.6056744180005 L 29.506082932333335 1702.6056744180005" stroke-miterlimit="10" stroke-width="1.1518412583333333" stroke-dasharray="5.52883804"/><g transform="translate(18.1258913,1702.6056744180005) translate(-18.1258913,-1702.6056744180005)"><path fill="black" stroke="none" paint-order="stroke fill markers" d=" M 29.644303883333333 1696.8464681263338 L 18.1258913 1702.6056744180005 L 29.644303883333333 1708.3648807096672 Z"/></g></g><g><g/><path fill="none" stroke="black" paint-order="fill stroke markers" d=" M 528.1742413979166 293.581299924 L 1100.6218334209998 293.581299924 L 1100.6218334209998 408.304689254 L 528.1742413979166 408.304689254 L 528.1742413979166 293.581299924 Z" stroke-miterlimit="10" stroke-width="1.9745850142857144" stroke-dasharray=""/><path fill="white" stroke="black" paint-order="fill stroke markers" d=" M 528.1742413979166 293.581299924 L 528.1742413979166 310.167814044 L 574.8115956604166 310.167814044 L 583.1048527204166 301.874556984 L 583.1048527204166 293.581299924 L 528.1742413979166 293.581299924" stroke-miterlimit="10" stroke-width="1.9745850142857144" stroke-dasharray=""/><text fill="black" stroke="none" font-family="sans-serif" font-size="6.4pt" font-style="normal" font-weight="bold" text-decoration="normal" x="541.9963364979166" y="304.638976004" text-anchor="start" dominant-baseline="alphabetic" xml:space="preserve">loop</text><text fill="black" stroke="none" font-family="sans-serif" font-size="6.4pt" font-style="normal" font-weight="bold" text-decoration="normal" x="596.9269478204166" y="304.638976004" text-anchor="start" dominant-baseline="alphabetic" xml:space="preserve">[for each current Screening]</text></g><g><g/><path fill="none" stroke="black" paint-order="fill stroke markers" d=" M 528.1742413979166 1070.9359283479998 L 936.6654341687499 1070.9359283479998 L 936.6654341687499 1164.9261750279998 L 528.1742413979166 1164.9261750279998 L 528.1742413979166 1070.9359283479998 Z" stroke-miterlimit="10" stroke-width="1.9745850142857144" stroke-dasharray=""/><path fill="white" stroke="black" paint-order="fill stroke markers" d=" M 528.1742413979166 1070.9359283479998 L 528.1742413979166 1087.5224424679998 L 608.3330800354166 1087.5224424679998 L 616.6263370954166 1079.229185408 L 616.6263370954166 1070.9359283479998 L 528.1742413979166 1070.9359283479998" stroke-miterlimit="10" stroke-width="1.9745850142857144" stroke-dasharray=""/><text fill="black" stroke="none" font-family="sans-serif" font-size="6.4pt" font-style="normal" font-weight="bold" text-decoration="normal" x="541.9963364979166" y="1081.9936044279998" text-anchor="start" dominant-baseline="alphabetic" xml:space="preserve">expandable-</text><text fill="black" stroke="none" font-family="sans-serif" font-size="6.4pt" font-style="normal" font-weight="bold" text-decoration="normal" x="630.4484321954166" y="1081.9936044279998" text-anchor="start" dominant-baseline="alphabetic" xml:space="preserve">[see diagram 06 ACE (sold ticket number exceeds the capacity number)]</text></g><g><g/><path fill="none" stroke="black" paint-order="fill stroke markers" d=" M 528.1742413979166 1531.2116951780004 L 754.2792037 1531.2116951780004 L 754.2792037 1625.2019418580003 L 528.1742413979166 1625.2019418580003 L 528.1742413979166 1531.2116951780004 Z" stroke-miterlimit="10" stroke-width="1.9745850142857144" stroke-dasharray=""/><path fill="white" stroke="black" paint-order="fill stroke markers" d=" M 528.1742413979166 1531.2116951780004 L 528.1742413979166 1547.7982092980003 L 608.3330800354166 1547.7982092980003 L 616.6263370954166 1539.5049522380004 L 616.6263370954166 1531.2116951780004 L 528.1742413979166 1531.2116951780004" stroke-miterlimit="10" stroke-width="1.9745850142857144" stroke-dasharray=""/><text fill="black" stroke="none" font-family="sans-serif" font-size="6.4pt" font-style="normal" font-weight="bold" text-decoration="normal" x="541.9963364979166" y="1542.2693712580003" text-anchor="start" dominant-baseline="alphabetic" xml:space="preserve">expandable-</text><text fill="black" stroke="none" font-family="sans-serif" font-size="6.4pt" font-style="normal" font-weight="bold" text-decoration="normal" x="630.4484321954166" y="1542.2693712580003" text-anchor="start" dominant-baseline="alphabetic" xml:space="preserve">[see 01 - Display Date BCE]</text></g></g><g/><g/><g/><g/><g/><g/><g/><g/></g></svg>